<?xml version="1.0" encoding="UTF-8" standalone="no"?>
<!-- Created with Inkscape (http://www.inkscape.org/) -->

<svg
   xmlns:dc="http://purl.org/dc/elements/1.1/"
   xmlns:cc="http://creativecommons.org/ns#"
   xmlns:rdf="http://www.w3.org/1999/02/22-rdf-syntax-ns#"
   xmlns:svg="http://www.w3.org/2000/svg"
   xmlns="http://www.w3.org/2000/svg"
   version="1.1"
   width="109.46875"
   height="109.5"
   id="svg2984">
  <defs
     id="defs2986" />
  <metadata
     id="metadata2989">
    <rdf:RDF>
      <cc:Work
         rdf:about="">
        <dc:format>image/svg+xml</dc:format>
        <dc:type
           rdf:resource="http://purl.org/dc/dcmitype/StillImage" />
        <dc:title></dc:title>
      </cc:Work>
    </rdf:RDF>
  </metadata>
  <g
     transform="translate(2.90625,-48.78125)"
     id="layer2"
     style="display:none">
    <g
       transform="translate(-18.993843,-63.561877)"
       id="layer6"
       style="display:inline">
      <path
         d="m -41.416254,164.19525 a 6.8185296,6.8185296 0 1 1 -13.637059,0 6.8185296,6.8185296 0 1 1 13.637059,0 z"
         transform="matrix(1.4190262,0,0,1.4190262,109.98314,-94.142948)"
         id="path4907"
         style="fill:#3de0b7;fill-opacity:1;stroke:none" />
    </g>
  </g>
  <g
     transform="translate(2.90625,-48.78125)"
     id="layer4"
     style="display:none">
    <g
       transform="translate(20.314107,-839.13317)"
       id="layer3-9"
       style="fill:#fdf42b;fill-opacity:1">
      <path
         d="m -41.416254,164.19525 a 6.8185296,6.8185296 0 1 1 -13.637059,0 6.8185296,6.8185296 0 1 1 13.637059,0 z"
         transform="matrix(1.4190262,0,0,1.4190262,110.24728,681.42835)"
         id="path4900-0"
         style="fill:#fdf42b;fill-opacity:1;stroke:none;display:inline" />
    </g>
  </g>
  <g
     transform="translate(2.90625,-48.78125)"
     id="layer5"
     style="display:none">
    <g
       transform="translate(-21.406023,-178.91122)"
       id="g3972"
       style="display:inline">
      <path
         d="m -41.416254,164.19525 a 6.8185296,6.8185296 0 1 1 -13.637059,0 6.8185296,6.8185296 0 1 1 13.637059,0 z"
         transform="translate(90.844825,29.261212)"
         id="path3974"
         style="fill:#ffffff;fill-opacity:1;stroke:none" />
    </g>
  </g>
  <g
     transform="translate(2.90625,-48.78125)"
     id="layer8"
     style="display:none">
    <g
       transform="translate(0.70124717,-88.953011)"
       id="g3956"
       style="display:inline">
      <path
         d="m -41.416254,164.19525 a 6.8185296,6.8185296 0 1 1 -13.637059,0 6.8185296,6.8185296 0 1 1 13.637059,0 z"
         transform="translate(90.844825,29.261212)"
         id="path3958"
         style="fill:#ffffff;fill-opacity:1;stroke:none" />
    </g>
    <g
       transform="translate(-28.302853,-64.569033)"
       id="g3968"
       style="display:inline">
      <path
         d="m -41.416254,164.19525 a 6.8185296,6.8185296 0 1 1 -13.637059,0 6.8185296,6.8185296 0 1 1 13.637059,0 z"
         transform="translate(90.844825,29.261212)"
         id="path3970"
         style="fill:#ffffff;fill-opacity:1;stroke:none" />
    </g>
  </g>
  <g
     transform="translate(2.90625,-48.78125)"
     id="layer9"
     style="display:none">
    <g
       transform="translate(0.70124717,-64.569033)"
       id="layer7"
       style="display:inline">
      <path
         d="m -41.416254,164.19525 a 6.8185296,6.8185296 0 1 1 -13.637059,0 6.8185296,6.8185296 0 1 1 13.637059,0 z"
         transform="translate(90.844825,29.261212)"
         id="path4878"
         style="fill:#ffffff;fill-opacity:1;stroke:none" />
    </g>
    <g
       transform="translate(-15.212507,-88.953011)"
       id="g3960"
       style="display:inline">
      <path
         d="m -41.416254,164.19525 a 6.8185296,6.8185296 0 1 1 -13.637059,0 6.8185296,6.8185296 0 1 1 13.637059,0 z"
         transform="translate(90.844825,29.261212)"
         id="path3962"
         style="fill:#ffffff;fill-opacity:1;stroke:none" />
    </g>
    <g
       transform="translate(16.871674,-88.953011)"
       id="g3964"
       style="display:inline">
      <path
         d="m -41.416254,164.19525 a 6.8185296,6.8185296 0 1 1 -13.637059,0 6.8185296,6.8185296 0 1 1 13.637059,0 z"
         transform="translate(90.844825,29.261212)"
         id="path3966"
         style="fill:#ffffff;fill-opacity:1;stroke:none" />
    </g>
  </g>
  <g
     transform="translate(2.90625,-48.78125)"
     id="layer10"
     style="display:none">
    <g
       transform="translate(0.70124717,-88.953011)"
       id="g4116"
       style="display:inline">
      <path
         d="m -41.416254,164.19525 a 6.8185296,6.8185296 0 1 1 -13.637059,0 6.8185296,6.8185296 0 1 1 13.637059,0 z"
         transform="translate(90.844825,29.261212)"
         id="path4118"
         style="fill:#ffffff;fill-opacity:1;stroke:none" />
    </g>
  </g>
  <rect
     width="108.49553"
     height="108.49553"
     rx="4.0242662"
     ry="4.0242662"
     x="0.48447442"
     y="0.50400925"
     id="rect3863"
     style="fill:#ffffff;fill-opacity:1;stroke:#000000;stroke-opacity:1" />
  <path
     d="m 100.85834,100.38472 a 46.852749,46.852749 0 1 1 -93.7054965,0 46.852749,46.852749 0 1 1 93.7054965,0 z"
     transform="translate(0.7266467,-45.632946)"
     id="path3861"
     style="fill:none;stroke:#000000;stroke-width:8;stroke-miterlimit:4;stroke-opacity:1;stroke-dasharray:none" />
</svg>
