<?xml version="1.0" encoding="UTF-8" standalone="no"?>
<!-- Created with Inkscape (http://www.inkscape.org/) -->

<svg
   xmlns:dc="http://purl.org/dc/elements/1.1/"
   xmlns:cc="http://creativecommons.org/ns#"
   xmlns:rdf="http://www.w3.org/1999/02/22-rdf-syntax-ns#"
   xmlns:svg="http://www.w3.org/2000/svg"
   xmlns="http://www.w3.org/2000/svg"
   version="1.1"
   width="275.10007"
   height="607.00006"
   id="svg3045">
  <metadata
     id="metadata3051">
    <rdf:RDF>
      <cc:Work
         rdf:about="">
        <dc:format>image/svg+xml</dc:format>
        <dc:type
           rdf:resource="http://purl.org/dc/dcmitype/StillImage" />
        <dc:title></dc:title>
      </cc:Work>
    </rdf:RDF>
  </metadata>
  <defs
     id="defs3049">
    <filter
       color-interpolation-filters="sRGB"
       id="filter3005">
      <feGaussianBlur
         stdDeviation="3"
         id="feGaussianBlur3007" />
    </filter>
  </defs>
  <g
     transform="matrix(0.16258587,0,0,0.14267369,110.54113,278.668)"
     id="g4050"
     style="fill:#626262;fill-opacity:1">
    <path
       d="m 31.077636,1693.8467 270.086464,0 0,607.4328 -270.086464,0 z"
       id="path4052"
       style="fill:#626262;fill-opacity:1;stroke:none" />
  </g>
  <g
     transform="matrix(0.90046801,0,0,0.90046801,-27.984417,-1525.2548)"
     id="layer1"
     style="fill:#000000;fill-opacity:1">
    <path
       d="m 31.077636,1731.0392 38.519878,-37.1925 235.773336,0 31.21466,31.8793 0,575.5535 -305.507874,0 z"
       id="rect2982"
       style="fill:#000000;fill-opacity:1;stroke:none" />
  </g>
  <path
     d="m 267.07181,461.58724 a 46.636665,46.636665 0 0 1 -93.27333,0 46.636665,46.636665 0 1 1 93.27333,0 z"
     id="path3964"
     style="fill:#ffb500;fill-opacity:1;stroke:none" />
  <path
     d="m 101.30158,461.58724 a 46.636661,46.636661 0 0 1 -93.2733195,0 46.636661,46.636661 0 1 1 93.2733195,0 z"
     id="path3845"
     style="fill:#ffb500;fill-opacity:1;stroke:none" />
</svg>
