<?xml version="1.0" encoding="UTF-8" standalone="no"?>
<!-- Created with Inkscape (http://www.inkscape.org/) -->

<svg
   xmlns:dc="http://purl.org/dc/elements/1.1/"
   xmlns:cc="http://creativecommons.org/ns#"
   xmlns:rdf="http://www.w3.org/1999/02/22-rdf-syntax-ns#"
   xmlns:svg="http://www.w3.org/2000/svg"
   xmlns="http://www.w3.org/2000/svg"
   version="1.1"
   width="47.625"
   height="190.40625"
   id="svg2">
  <defs
     id="defs4" />
  <metadata
     id="metadata7">
    <rdf:RDF>
      <cc:Work
         rdf:about="">
        <dc:format>image/svg+xml</dc:format>
        <dc:type
           rdf:resource="http://purl.org/dc/dcmitype/StillImage" />
        <dc:title></dc:title>
      </cc:Work>
    </rdf:RDF>
  </metadata>
  <g
     transform="translate(-0.9059152,-861.0576)"
     id="layer1" />
  <path
     d="m 0,0 0,190.40625 47.625,0 L 47.625,0 0,0 z M 23.875,12.8125 35.4375,30.53125 23.875,48.25 12.34375,30.40625 23.875,12.8125 z m 0,42.75 L 35.4375,73.28125 23.875,91 12.34375,73.15625 23.875,55.5625 z m 0,42.75 11.5625,17.71875 L 23.875,133.75 12.34375,115.90625 23.875,98.3125 z m 0,42.75 11.5625,17.71875 L 23.875,176.5 12.34375,158.65625 23.875,141.0625 z"
     id="rect3836"
     style="fill:#190000;fill-opacity:1;stroke:none" />
  <g
     transform="translate(-0.9059152,-861.0576)"
     id="layer3" />
  <path
     d="M 12.343735,30.399139 23.8756,12.816584 35.443742,30.53719 23.882057,48.24213 z"
     id="rect3858"
     style="fill:#ffffff;fill-opacity:1;stroke:none" />
  <path
     d="M 12.343735,73.150944 23.8756,55.568389 35.443742,73.288995 23.882057,90.993935 z"
     id="path3861"
     style="fill:#ffffff;fill-opacity:1;stroke:none" />
  <path
     d="M 12.343735,115.90274 23.8756,98.320186 35.443742,116.04079 23.882057,133.74573 z"
     id="path3863"
     style="fill:#ffffff;fill-opacity:1;stroke:none" />
  <path
     d="M 12.343735,158.65455 23.8756,141.07199 35.443742,158.7926 23.882057,176.49754 z"
     id="path3865"
     style="fill:#ffffff;fill-opacity:1;stroke:none" />
  <rect
     width="38.545094"
     height="182.31529"
     x="4.5916724"
     y="3.6804681"
     id="rect3867"
     style="fill:none;stroke:#ffffff;stroke-width:3.5;stroke-miterlimit:4;stroke-opacity:1;stroke-dasharray:none" />
  <rect
     width="38.545094"
     height="182.31529"
     x="4.5916724"
     y="3.6804681"
     id="rect3882"
     style="fill:none;stroke:#ffffff;stroke-width:3.5;stroke-miterlimit:4;stroke-opacity:1;stroke-dasharray:none" />
</svg>
