<?xml version="1.0" encoding="UTF-8" standalone="no"?>
<!-- Created with Inkscape (http://www.inkscape.org/) -->

<svg
   xmlns:dc="http://purl.org/dc/elements/1.1/"
   xmlns:cc="http://creativecommons.org/ns#"
   xmlns:rdf="http://www.w3.org/1999/02/22-rdf-syntax-ns#"
   xmlns:svg="http://www.w3.org/2000/svg"
   xmlns="http://www.w3.org/2000/svg"
   version="1.1"
   width="60.28125"
   height="240"
   id="svg2">
  <defs
     id="defs4" />
  <metadata
     id="metadata7">
    <rdf:RDF>
      <cc:Work
         rdf:about="">
        <dc:format>image/svg+xml</dc:format>
        <dc:type
           rdf:resource="http://purl.org/dc/dcmitype/StillImage" />
        <dc:title></dc:title>
      </cc:Work>
    </rdf:RDF>
  </metadata>
  <rect
     width="38.545094"
     height="182.31529"
     x="10.435423"
     y="53.27422"
     id="rect3882"
     style="fill:none;stroke:#ffffff;stroke-width:3.5;stroke-miterlimit:4;stroke-opacity:0.15161294;stroke-dasharray:none" />
  <g
     transform="translate(4.9378348,-811.46385)"
     id="layer1" />
  <path
     d="m 5.84375,49.59375 0,190.40625 47.625,0 0,-190.40625 -47.625,0 z m 23.875,12.8125 L 41.28125,80.125 29.71875,97.84375 18.1875,80 29.71875,62.40625 z m 0,42.75 11.5625,17.71875 -11.5625,17.71875 L 18.1875,122.75 29.71875,105.15625 z m 0,42.75 11.5625,17.71875 -11.5625,17.71875 L 18.1875,165.5 29.71875,147.90625 z m 0,42.75 11.5625,17.71875 -11.5625,17.71875 L 18.1875,208.25 29.71875,190.65625 z"
     id="rect3836"
     style="fill:#000000;fill-opacity:1;stroke:none" />
  <g
     transform="translate(4.9378348,-811.46385)"
     id="layer3" />
  <path
     d="M 18.187485,79.992889 29.71935,62.410334 41.287492,80.13094 29.725807,97.83588 z"
     id="rect3858"
     style="fill:#ffffff;fill-opacity:1;stroke:none" />
  <path
     d="M 18.187485,122.74469 29.71935,105.16214 41.287492,122.88275 29.725807,140.58768 z"
     id="path3861"
     style="fill:#ffffff;fill-opacity:1;stroke:none" />
  <path
     d="m 18.187485,165.49649 11.531865,-17.58255 11.568142,17.7206 -11.561685,17.70494 z"
     id="path3863"
     style="fill:#ffffff;fill-opacity:1;stroke:none" />
  <path
     d="M 18.187485,208.2483 29.71935,190.66574 41.287492,208.38635 29.725807,226.09129 z"
     id="path3865"
     style="fill:#ffffff;fill-opacity:1;stroke:none" />
  <rect
     width="38.545094"
     height="182.31529"
     x="10.435423"
     y="53.27422"
     id="rect3867"
     style="fill:none;stroke:#ffffff;stroke-width:3.5;stroke-miterlimit:4;stroke-opacity:1;stroke-dasharray:none" />
  <path
     d="M 0,0 29.6875,48.9375 60.28125,0 0,0 z m 6.84375,4.34375 46.34375,0 -23.5,37.625 -22.84375,-37.625 z"
     id="path3862"
     style="color:#000000;fill:#000000;fill-opacity:1;stroke:none;stroke-width:3.79999995;marker:none;visibility:visible;display:inline;overflow:visible;enable-background:accumulate" />
  <path
     d="M 29.673322,41.979517 6.8567668,4.351736 l 46.3372082,0 z"
     id="path3866"
     style="color:#000000;fill:#ffffff;fill-opacity:1;stroke:none;stroke-width:3.79999995;marker:none;visibility:visible;display:inline;overflow:visible;enable-background:accumulate" />
</svg>
