<?xml version="1.0" encoding="UTF-8" standalone="no"?>
<svg
   xmlns:dc="http://purl.org/dc/elements/1.1/"
   xmlns:cc="http://creativecommons.org/ns#"
   xmlns:rdf="http://www.w3.org/1999/02/22-rdf-syntax-ns#"
   xmlns:svg="http://www.w3.org/2000/svg"
   xmlns="http://www.w3.org/2000/svg"
   height="333.79883"
   width="53.165409"
   version="1.1"
   id="svg3045">
  <metadata
     id="metadata3051">
    <rdf:RDF>
      <cc:Work
         rdf:about="">
        <dc:format>image/svg+xml</dc:format>
        <dc:type
           rdf:resource="http://purl.org/dc/dcmitype/StillImage" />
        <dc:title></dc:title>
      </cc:Work>
    </rdf:RDF>
  </metadata>
  <defs
     id="defs3049" />
  <g
     transform="translate(-655.46442,-306.92676)"
     style="display:inline;opacity:0.98999999"
     id="layer8">
    <path
       id="rect5967"
       transform="translate(457.69547,450.55762)"
       d="m 197.76953,-143.63086 0,46.404298 53.16406,0 0,-46.404298 -53.16406,0 z m 0,95.150391 0,46.7792971 53.16406,0 0,-46.7792971 -53.16406,0 z m 0,95.523438 0,45.167969 53.16406,0 0,-45.167969 -53.16406,0 z m 0,93.914061 0,49.21094 53.16406,0 0,-49.21094 -53.16406,0 z"
       style="display:inline;opacity:1;fill:#ffffff;fill-opacity:1;stroke:none;stroke-width:2;stroke-linecap:round;stroke-linejoin:round;stroke-miterlimit:4;stroke-dasharray:none;stroke-opacity:1" />
  </g>
  <g
     style="display:inline"
     transform="translate(-655.46442,-1959.9377)"
     id="layer1">
    <path
       id="rect6097"
       d="m 655.46442,353.33026 53.16541,0 0,48.74602 -53.16541,0 z"
       style="display:inline;opacity:1;fill:#000000;fill-opacity:1;stroke:none;stroke-width:2;stroke-linecap:round;stroke-linejoin:round;stroke-miterlimit:4;stroke-dasharray:none;stroke-opacity:1"
       transform="translate(0,1653.011)" />
    <path
       id="rect6100"
       d="m 655.46442,2101.8665 53.16541,0 0,48.746 -53.16541,0 z"
       style="display:inline;opacity:1;fill:#000000;fill-opacity:1;stroke:none;stroke-width:2;stroke-linecap:round;stroke-linejoin:round;stroke-miterlimit:4;stroke-dasharray:none;stroke-opacity:1" />
    <path
       id="rect6102"
       d="m 655.46442,2195.7791 53.16541,0 0,48.746 -53.16541,0 z"
       style="display:inline;opacity:1;fill:#000000;fill-opacity:1;stroke:none;stroke-width:2;stroke-linecap:round;stroke-linejoin:round;stroke-miterlimit:4;stroke-dasharray:none;stroke-opacity:1" />
  </g>
</svg>
