<?xml version="1.0" encoding="UTF-8" standalone="no"?>
<!-- Created with Inkscape (http://www.inkscape.org/) -->

<svg
   xmlns:dc="http://purl.org/dc/elements/1.1/"
   xmlns:cc="http://creativecommons.org/ns#"
   xmlns:rdf="http://www.w3.org/1999/02/22-rdf-syntax-ns#"
   xmlns:svg="http://www.w3.org/2000/svg"
   xmlns="http://www.w3.org/2000/svg"
   version="1.1"
   width="156.09383"
   height="277.47"
   id="svg2">
  <defs
     id="defs4" />
  <metadata
     id="metadata7">
    <rdf:RDF>
      <cc:Work
         rdf:about="">
        <dc:format>image/svg+xml</dc:format>
        <dc:type
           rdf:resource="http://purl.org/dc/dcmitype/StillImage" />
        <dc:title></dc:title>
      </cc:Work>
    </rdf:RDF>
  </metadata>
  <rect
     width="31.765776"
     height="44.797886"
     x="62.158073"
     y="52.666058"
     id="rect3883"
     style="fill:#6a6a6a;fill-opacity:1;stroke:none" />
  <g
     transform="translate(8.2816452,-774.90013)"
     id="layer1" />
  <rect
     width="130.56221"
     height="190.41373"
     x="9.1756926"
     y="86.148331"
     id="rect3836"
     style="fill:#ffffff;fill-opacity:1;stroke:#000000;stroke-width:1.79999995;stroke-linecap:round;stroke-linejoin:round;stroke-miterlimit:4;stroke-opacity:1;stroke-dasharray:none" />
  <path
     d="m 31.681607,116.03247 0,135 21.40625,0 0,-57.65625 29.28125,0 0,-0.0312 c 48.610993,-0.067 50.386243,-77.24819 0,-77.3125 l -0.0625,0 -29.21875,0 -4.8125,0 -16.59375,0 z m 50.6875,21.40625 c 20.367913,0.0716 20.652043,34.4307 0,34.5 -0.02084,7e-5 -0.04162,0 -0.0625,0 l -29.21875,0 0,-34.46875 29.28125,0 0,-0.0312 z"
     id="rect3931"
     style="fill:#060000;fill-opacity:1;stroke:none" />
  <g
     transform="translate(8.2816452,-774.90013)"
     id="layer3" />
  <rect
     width="154.30717"
     height="57.946732"
     x="0.89332581"
     y="0.90869933"
     id="rect3838"
     style="fill:#ffffff;fill-opacity:1;stroke:#000000;stroke-width:1.79999995;stroke-linecap:round;stroke-linejoin:round;stroke-miterlimit:4;stroke-opacity:1;stroke-dasharray:none" />
  <path
     d="m 20.087857,0.907471 0,57.9375 19.5625,0 0,-57.9375 -19.5625,0 z"
     id="rect3858"
     style="fill:#060000;fill-opacity:1;stroke:none" />
  <path
     d="m 116.83786,0.907471 0,57.9375 18.71875,0 0,-57.9375 -18.71875,0 z"
     id="rect3860"
     style="fill:#060000;fill-opacity:1;stroke:none" />
</svg>
