<?xml version="1.0" encoding="UTF-8" standalone="no"?>
<svg
   xmlns:dc="http://purl.org/dc/elements/1.1/"
   xmlns:cc="http://creativecommons.org/ns#"
   xmlns:rdf="http://www.w3.org/1999/02/22-rdf-syntax-ns#"
   xmlns:svg="http://www.w3.org/2000/svg"
   xmlns="http://www.w3.org/2000/svg"
   xmlns:sodipodi="http://sodipodi.sourceforge.net/DTD/sodipodi-0.dtd"
   xmlns:inkscape="http://www.inkscape.org/namespaces/inkscape"
   id="svg3045"
   version="1.1"
   width="296.84"
   height="388.70523"
   inkscape:version="0.91 r13725"
   sodipodi:docname="el6-through.svg">
  <sodipodi:namedview
     pagecolor="#ffffff"
     bordercolor="#666666"
     borderopacity="1"
     objecttolerance="10"
     gridtolerance="10"
     guidetolerance="10"
     inkscape:pageopacity="0"
     inkscape:pageshadow="2"
     inkscape:window-width="1920"
     inkscape:window-height="1007"
     id="namedview20346"
     showgrid="false"
     inkscape:zoom="0.60714387"
     inkscape:cx="148.42"
     inkscape:cy="194.35262"
     inkscape:window-x="0"
     inkscape:window-y="0"
     inkscape:window-maximized="1"
     inkscape:current-layer="svg3045" />
  <metadata
     id="metadata3051">
    <rdf:RDF>
      <cc:Work
         rdf:about="">
        <dc:format>image/svg+xml</dc:format>
        <dc:type
           rdf:resource="http://purl.org/dc/dcmitype/StillImage" />
        <dc:title></dc:title>
      </cc:Work>
    </rdf:RDF>
  </metadata>
  <defs
     id="defs3049" />
  <path
     id="rect6979"
     d="M 148.41992,91.865379 0,240.2853 148.41992,388.70523 296.83985,240.2853 148.41992,91.865379 Z m 0,24.632811 L 272.20703,240.2853 148.41992,364.07241 24.63282,240.2853 148.41992,116.49819 Z"
     style="opacity:1;fill:#ffffff;fill-opacity:1;stroke:none;stroke-width:7;stroke-linecap:square;stroke-linejoin:miter;stroke-miterlimit:4;stroke-dasharray:none;stroke-opacity:0.56485356" />
  <g
     id="g20888"
     transform="matrix(0.80374953,0,0,0.80374953,28.039062,79.008821)">
    <path
       style="opacity:1;fill:#0d8ef7;fill-opacity:1;stroke:#000000;stroke-width:7;stroke-linecap:square;stroke-linejoin:miter;stroke-miterlimit:4;stroke-dasharray:none;stroke-opacity:1"
       d="M 24.633306,240.28515 148.41969,116.49877 272.20606,240.28514 148.41968,364.07152 Z"
       id="rect6977"
       inkscape:connector-curvature="0" />
    <path
       id="path4237"
       d="m 148.41992,153.63491 -86.650389,86.65039 86.650389,86.65039 86.65039,-86.65039 -86.65039,-86.65039 z m 0,25.99414 60.6543,60.65625 -60.6543,60.6543 -60.656248,-60.6543 60.656248,-60.65625 z m 0,25.47656 -35.17969,35.17969 35.17969,35.17969 35.17969,-35.17969 -35.17969,-35.17969 z"
       style="opacity:1;fill:#ffffff;fill-opacity:1;stroke:none;stroke-width:4.9000001;stroke-linecap:square;stroke-linejoin:miter;stroke-miterlimit:4;stroke-dasharray:none;stroke-opacity:0.49372385"
       inkscape:connector-curvature="0" />
    <path
       id="path4239"
       d="m 148.41992,179.62905 -60.656248,60.65625 60.656248,60.6543 60.6543,-60.6543 -60.6543,-60.65625 z m 0,25.47656 35.17969,35.17969 -35.17969,35.17969 -35.17969,-35.17969 35.17969,-35.17969 z"
       style="opacity:1;fill:#0d8ef7;fill-opacity:1;stroke:none;stroke-width:4.9000001;stroke-linecap:square;stroke-linejoin:miter;stroke-miterlimit:4;stroke-dasharray:none;stroke-opacity:0.49372385"
       inkscape:connector-curvature="0" />
  </g>
  <g
     id="g20893"
     transform="matrix(1.227922,0,0,1.227922,-89.523195,-77.519852)">
    <path
       inkscape:connector-curvature="0"
       id="rect4253"
       d="m 217.41147,194.35269 0,-108.90368 -24.52096,-19.936602 -24.52096,19.936602 0,108.90368 z"
       style="opacity:1;fill:#ffffff;fill-opacity:1;stroke:none;stroke-width:2.70000005;stroke-linecap:butt;stroke-linejoin:miter;stroke-miterlimit:4;stroke-dasharray:none;stroke-opacity:1" />
    <path
       inkscape:connector-curvature="0"
       id="rect4256"
       d="m 209.55104,97.918526 -8.46732,8.468664 0,81.20099 -12.99561,0 0,-81.20099 -8.46732,-8.468664 14.96512,-14.965122 14.96513,14.965122 z"
       style="opacity:1;fill:#0d8ef7;fill-opacity:1;stroke:none;stroke-width:2.70000005;stroke-linecap:butt;stroke-linejoin:miter;stroke-miterlimit:4;stroke-dasharray:none;stroke-opacity:1" />
  </g>
</svg>
