<?xml version="1.0" encoding="UTF-8" standalone="no"?>
<svg
   xmlns:dc="http://purl.org/dc/elements/1.1/"
   xmlns:cc="http://creativecommons.org/ns#"
   xmlns:rdf="http://www.w3.org/1999/02/22-rdf-syntax-ns#"
   xmlns:svg="http://www.w3.org/2000/svg"
   xmlns="http://www.w3.org/2000/svg"
   id="svg3045"
   version="1.1"
   width="296.84"
   height="388.70523">
  <metadata
     id="metadata3051">
    <rdf:RDF>
      <cc:Work
         rdf:about="">
        <dc:format>image/svg+xml</dc:format>
        <dc:type
           rdf:resource="http://purl.org/dc/dcmitype/StillImage" />
        <dc:title></dc:title>
      </cc:Work>
    </rdf:RDF>
  </metadata>
  <defs
     id="defs3049" />
  <path
     id="rect6979"
     d="M 148.41992,91.865379 0,240.2853 148.41992,388.70523 296.83985,240.2853 148.41992,91.865379 Z m 0,24.632811 L 272.20703,240.2853 148.41992,364.07241 24.63282,240.2853 148.41992,116.49819 Z"
     style="opacity:1;fill:#ffffff;fill-opacity:1;stroke:none;stroke-width:7;stroke-linecap:square;stroke-linejoin:miter;stroke-miterlimit:4;stroke-dasharray:none;stroke-opacity:0.56485356" />
  <path
     id="rect6977"
     d="M 24.633306,240.28515 148.41969,116.49877 272.20606,240.28514 148.41968,364.07152 Z"
     style="opacity:1;fill:#0d8ef7;fill-opacity:1;stroke:#000000;stroke-width:7;stroke-linecap:square;stroke-linejoin:miter;stroke-miterlimit:4;stroke-dasharray:none;stroke-opacity:1" />
  <path
     style="opacity:1;fill:#ffffff;fill-opacity:1;stroke:none;stroke-width:4.9000001;stroke-linecap:square;stroke-linejoin:miter;stroke-miterlimit:4;stroke-dasharray:none;stroke-opacity:0.49372385"
     d="m 148.41992,153.63491 -86.650389,86.65039 86.650389,86.65039 86.65039,-86.65039 -86.65039,-86.65039 z m 0,25.99414 60.6543,60.65625 -60.6543,60.6543 -60.656248,-60.6543 60.656248,-60.65625 z m 0,25.47656 -35.17969,35.17969 35.17969,35.17969 35.17969,-35.17969 -35.17969,-35.17969 z"
     id="path4237" />
  <path
     style="opacity:1;fill:#0d8ef7;fill-opacity:1;stroke:none;stroke-width:4.9000001;stroke-linecap:square;stroke-linejoin:miter;stroke-miterlimit:4;stroke-dasharray:none;stroke-opacity:0.49372385"
     d="m 148.41992,179.62905 -60.656248,60.65625 60.656248,60.6543 60.6543,-60.6543 -60.6543,-60.65625 z m 0,25.47656 35.17969,35.17969 -35.17969,35.17969 -35.17969,-35.17969 35.17969,-35.17969 z"
     id="path4239" />
  <path
     style="opacity:1;fill:#ffffff;fill-opacity:1;stroke:none;stroke-width:2.70000005;stroke-linecap:butt;stroke-linejoin:miter;stroke-miterlimit:4;stroke-dasharray:none;stroke-opacity:1"
     d="M 0,0 250.90731,0 296.84,45.932689 250.90731,91.865379 0,91.865379 Z"
     id="rect4253" />
  <path
     style="opacity:1;fill:#0d8ef7;fill-opacity:1;stroke:none;stroke-width:2.70000005;stroke-linecap:butt;stroke-linejoin:miter;stroke-miterlimit:4;stroke-dasharray:none;stroke-opacity:1"
     d="m 245.74151,12.523453 -22.44954,22.445976 -215.2552465,0 0,34.449974 215.2552465,0 22.44954,22.445976 39.67096,-39.670953 -39.67096,-39.670973 z"
     id="rect4256" />
</svg>
