<?xml version="1.0" encoding="UTF-8" standalone="no"?>
<!-- Created with Inkscape (http://www.inkscape.org/) -->

<svg
   xmlns:dc="http://purl.org/dc/elements/1.1/"
   xmlns:cc="http://creativecommons.org/ns#"
   xmlns:rdf="http://www.w3.org/1999/02/22-rdf-syntax-ns#"
   xmlns:svg="http://www.w3.org/2000/svg"
   xmlns="http://www.w3.org/2000/svg"
   version="1.1"
   width="312.89319"
   height="933.06592"
   id="svg3045">
  <metadata
     id="metadata3051">
    <rdf:RDF>
      <cc:Work
         rdf:about="">
        <dc:format>image/svg+xml</dc:format>
        <dc:type
           rdf:resource="http://purl.org/dc/dcmitype/StillImage" />
        <dc:title></dc:title>
      </cc:Work>
    </rdf:RDF>
  </metadata>
  <defs
     id="defs3049">
    <filter
       color-interpolation-filters="sRGB"
       id="filter3005">
      <feGaussianBlur
         stdDeviation="3"
         id="feGaussianBlur3007" />
    </filter>
    <filter
       color-interpolation-filters="sRGB"
       id="filter3042">
      <feGaussianBlur
         stdDeviation="3"
         id="feGaussianBlur3044" />
    </filter>
    <filter
       color-interpolation-filters="sRGB"
       id="filter3016">
      <feGaussianBlur
         id="feGaussianBlur3018"
         stdDeviation="3" />
    </filter>
    <filter
       color-interpolation-filters="sRGB"
       id="filter3054">
      <feGaussianBlur
         id="feGaussianBlur3056"
         stdDeviation="3" />
    </filter>
    <filter
       color-interpolation-filters="sRGB"
       id="filter3058">
      <feGaussianBlur
         id="feGaussianBlur3060"
         stdDeviation="3" />
    </filter>
    <filter
       color-interpolation-filters="sRGB"
       id="filter3062">
      <feGaussianBlur
         id="feGaussianBlur3064"
         stdDeviation="3" />
    </filter>
    <filter
       color-interpolation-filters="sRGB"
       id="filter3066">
      <feGaussianBlur
         id="feGaussianBlur3068"
         stdDeviation="3" />
    </filter>
  </defs>
  <g
     transform="translate(5.9204708,-1653.0109)"
     id="layer1">
    <path
       d="m 0,1693.8467 40.8358,-40.8358 223.9589,0.638 36.3694,40.1978 0,607.4328 -301.1641,0 z"
       id="rect2982"
       style="fill:#000000;fill-opacity:1;stroke:none" />
  </g>
  <g
     transform="translate(5.9204708,-1653.0109)"
     id="layer3"
     style="display:inline">
    <path
       d="m 2705.0531,894.29816 a 34.9916,34.9916 0 1 1 -69.9832,0 34.9916,34.9916 0 1 1 69.9832,0 z"
       transform="matrix(1.765267,0,0,1.765267,-4504.0257,184.80226)"
       id="path3756"
       style="fill:#69ee71;fill-opacity:1;stroke:none;display:inline;filter:url(#filter3042)" />
  </g>
  <path
     d="m 2705.0531,894.29816 a 34.991589,34.991589 0 1 1 -69.9832,0 34.991589,34.991589 0 1 1 69.9832,0 z"
     transform="matrix(1.765267,0,0,1.765267,-4622.2972,-1023.8011)"
     id="path3797"
     style="fill:#fff03c;fill-opacity:1;stroke:none;display:inline;filter:url(#filter3016)" />
  <rect
     width="301.3858"
     height="263.487"
     x="5.9204707"
     y="669.57892"
     id="rect3768"
     style="fill:#000000;fill-opacity:1;stroke:none" />
  <path
     d="m 2705.0531,894.29816 a 34.991589,34.991589 0 1 1 -69.9832,0 34.991589,34.991589 0 1 1 69.9832,0 z"
     transform="matrix(1.017542,0,0,1.017542,-2673.968,-169.14267)"
     id="path3802"
     style="fill:#69ee71;fill-opacity:1;stroke:none;display:inline;filter:url(#filter3066)" />
  <path
     d="m 2705.0531,894.29816 a 34.991589,34.991589 0 1 1 -69.9832,0 34.991589,34.991589 0 1 1 69.9832,0 z"
     transform="matrix(1.017542,0,0,1.017542,-2598.2914,-169.14267)"
     id="path3804"
     style="fill:#69ee71;fill-opacity:1;stroke:none;display:inline;filter:url(#filter3062)" />
  <path
     d="m 2705.0531,894.29816 a 34.991589,34.991589 0 1 1 -69.9832,0 34.991589,34.991589 0 1 1 69.9832,0 z"
     transform="matrix(1.017542,0,0,1.017542,-2522.6148,-169.14267)"
     id="path3806"
     style="fill:#69ee71;fill-opacity:1;stroke:none;display:inline;filter:url(#filter3058)" />
  <path
     d="m 2705.0531,894.29816 a 34.991589,34.991589 0 1 1 -69.9832,0 34.991589,34.991589 0 1 1 69.9832,0 z"
     transform="matrix(1.017542,0,0,1.017542,-2446.9383,-169.14267)"
     id="path3808"
     style="fill:#69ee71;fill-opacity:1;stroke:none;display:inline;filter:url(#filter3054)" />
</svg>
