<?xml version="1.0" encoding="UTF-8" standalone="no"?>
<svg
   xmlns:dc="http://purl.org/dc/elements/1.1/"
   xmlns:cc="http://creativecommons.org/ns#"
   xmlns:rdf="http://www.w3.org/1999/02/22-rdf-syntax-ns#"
   xmlns:svg="http://www.w3.org/2000/svg"
   xmlns="http://www.w3.org/2000/svg"
   version="1.1"
   width="83.337997"
   height="128.49899"
   id="svg2984">
  <defs
     id="defs2986">
    <filter
       style="color-interpolation-filters:sRGB"
       id="filter3011">
      <feGaussianBlur
         id="feGaussianBlur3013"
         stdDeviation="3" />
    </filter>
    <filter
       id="filter3004"
       style="color-interpolation-filters:sRGB">
      <feGaussianBlur
         id="feGaussianBlur3006"
         stdDeviation="3" />
    </filter>
  </defs>
  <metadata
     id="metadata2989">
    <rdf:RDF>
      <cc:Work
         rdf:about="">
        <dc:format>image/svg+xml</dc:format>
        <dc:type
           rdf:resource="http://purl.org/dc/dcmitype/StillImage" />
        <dc:title></dc:title>
      </cc:Work>
    </rdf:RDF>
  </metadata>
  <g
     id="layer11"
     style="display:inline"
     transform="scale(1,0.79489339)">
    <rect
       width="83.337997"
       height="161.65564"
       x="0"
       y="0"
       id="rect3087"
       style="fill:#000000;fill-opacity:1;stroke:none" />
  </g>
  <g
     transform="matrix(2.1375,0,0,2.1375,-48.149146,-52.828917)"
     id="layer1"
     style="display:inline;filter:url(#filter3011)">
    <g
       transform="translate(0.5280619,-873.23078)"
       id="layer3">
      <path
         d="m -41.416254,164.19525 a 6.8185296,6.8185296 0 1 1 -13.637059,0 6.8185296,6.8185296 0 1 1 13.637059,0 z"
         transform="matrix(1.4190262,0,0,1.4190262,110.24728,681.42835)"
         id="path4900"
         style="display:inline;fill:#e60f1e;fill-opacity:1;stroke:none" />
    </g>
  </g>
  <g
     transform="translate(0,-33.15664)"
     id="layer2"
     style="display:none">
    <g
       transform="translate(-18.993843,-63.561877)"
       id="layer6"
       style="display:inline">
      <path
         d="m -41.416254,164.19525 a 6.8185296,6.8185296 0 1 1 -13.637059,0 6.8185296,6.8185296 0 1 1 13.637059,0 z"
         transform="matrix(1.4190262,0,0,1.4190262,109.98314,-94.142948)"
         id="path4907"
         style="fill:#3de0b7;fill-opacity:1;stroke:none" />
    </g>
  </g>
  <g
     transform="translate(0,-33.15664)"
     id="layer4"
     style="display:none">
    <g
       transform="translate(20.314107,-839.13317)"
       id="layer3-9"
       style="fill:#fdf42b;fill-opacity:1">
      <path
         d="m -41.416254,164.19525 a 6.8185296,6.8185296 0 1 1 -13.637059,0 6.8185296,6.8185296 0 1 1 13.637059,0 z"
         transform="matrix(1.4190262,0,0,1.4190262,110.24728,681.42835)"
         id="path4900-0"
         style="display:inline;fill:#fdf42b;fill-opacity:1;stroke:none" />
    </g>
  </g>
  <g
     transform="translate(0,-33.15664)"
     id="layer5"
     style="display:none">
    <g
       transform="translate(-21.406023,-178.91122)"
       id="g3972"
       style="display:inline">
      <path
         d="m -41.416254,164.19525 a 6.8185296,6.8185296 0 1 1 -13.637059,0 6.8185296,6.8185296 0 1 1 13.637059,0 z"
         transform="translate(90.844825,29.261212)"
         id="path3974"
         style="fill:#ffffff;fill-opacity:1;stroke:none" />
    </g>
  </g>
  <g
     transform="translate(0,-33.15664)"
     id="layer8"
     style="display:none">
    <g
       transform="translate(0.70124717,-88.953011)"
       id="g3956"
       style="display:inline">
      <path
         d="m -41.416254,164.19525 a 6.8185296,6.8185296 0 1 1 -13.637059,0 6.8185296,6.8185296 0 1 1 13.637059,0 z"
         transform="translate(90.844825,29.261212)"
         id="path3958"
         style="fill:#ffffff;fill-opacity:1;stroke:none" />
    </g>
    <g
       transform="translate(-28.302853,-64.569033)"
       id="g3968"
       style="display:inline">
      <path
         d="m -41.416254,164.19525 a 6.8185296,6.8185296 0 1 1 -13.637059,0 6.8185296,6.8185296 0 1 1 13.637059,0 z"
         transform="translate(90.844825,29.261212)"
         id="path3970"
         style="fill:#ffffff;fill-opacity:1;stroke:none" />
    </g>
  </g>
  <g
     transform="translate(0,-33.15664)"
     id="layer9"
     style="display:none">
    <g
       transform="translate(0.70124717,-64.569033)"
       id="layer7"
       style="display:inline">
      <path
         d="m -41.416254,164.19525 a 6.8185296,6.8185296 0 1 1 -13.637059,0 6.8185296,6.8185296 0 1 1 13.637059,0 z"
         transform="translate(90.844825,29.261212)"
         id="path4878"
         style="fill:#ffffff;fill-opacity:1;stroke:none" />
    </g>
    <g
       transform="translate(-15.212507,-88.953011)"
       id="g3960"
       style="display:inline">
      <path
         d="m -41.416254,164.19525 a 6.8185296,6.8185296 0 1 1 -13.637059,0 6.8185296,6.8185296 0 1 1 13.637059,0 z"
         transform="translate(90.844825,29.261212)"
         id="path3962"
         style="fill:#ffffff;fill-opacity:1;stroke:none" />
    </g>
    <g
       transform="translate(16.871674,-88.953011)"
       id="g3964"
       style="display:inline">
      <path
         d="m -41.416254,164.19525 a 6.8185296,6.8185296 0 1 1 -13.637059,0 6.8185296,6.8185296 0 1 1 13.637059,0 z"
         transform="translate(90.844825,29.261212)"
         id="path3966"
         style="fill:#ffffff;fill-opacity:1;stroke:none" />
    </g>
  </g>
  <g
     transform="translate(0,-33.15664)"
     id="layer10"
     style="display:none">
    <g
       transform="translate(0.70124717,-88.953011)"
       id="g4116"
       style="display:inline">
      <path
         d="m -41.416254,164.19525 a 6.8185296,6.8185296 0 1 1 -13.637059,0 6.8185296,6.8185296 0 1 1 13.637059,0 z"
         transform="translate(90.844825,29.261212)"
         id="path4118"
         style="fill:#ffffff;fill-opacity:1;stroke:none" />
    </g>
  </g>
  <g
     style="fill:#ffffff;fill-opacity:1;filter:url(#filter3004)"
     id="g4289"
     transform="matrix(0.70839397,0,0,0.70839397,-12.639526,-633.08442)">
    <path
       style="display:inline;fill:#ffffff;fill-opacity:1;stroke:none"
       id="path4291"
       transform="matrix(1.4190262,0,0,1.4190262,110.24728,681.42835)"
       d="m -41.416254,164.19525 a 6.8185296,6.8185296 0 1 1 -13.637059,0 6.8185296,6.8185296 0 1 1 13.637059,0 z" />
  </g>
</svg>
