<?xml version="1.0" encoding="UTF-8" standalone="no"?>
<!-- Created with Inkscape (http://www.inkscape.org/) -->

<svg
   xmlns:dc="http://purl.org/dc/elements/1.1/"
   xmlns:cc="http://creativecommons.org/ns#"
   xmlns:rdf="http://www.w3.org/1999/02/22-rdf-syntax-ns#"
   xmlns:svg="http://www.w3.org/2000/svg"
   xmlns="http://www.w3.org/2000/svg"
   xmlns:sodipodi="http://sodipodi.sourceforge.net/DTD/sodipodi-0.dtd"
   xmlns:inkscape="http://www.inkscape.org/namespaces/inkscape"
   width="449.35999"
   height="384.07001"
   id="svg2"
   version="1.1"
   inkscape:version="0.91 r13725"
   sodipodi:docname="lf4-ds301-60-sign-down.svg">
  <defs
     id="defs4" />
  <sodipodi:namedview
     id="base"
     pagecolor="#ffffff"
     bordercolor="#666666"
     borderopacity="1.0"
     inkscape:pageopacity="0.0"
     inkscape:pageshadow="2"
     inkscape:zoom="0.49497475"
     inkscape:cx="93.831934"
     inkscape:cy="240.34578"
     inkscape:document-units="px"
     inkscape:current-layer="layer5"
     showgrid="false"
     inkscape:window-width="1309"
     inkscape:window-height="744"
     inkscape:window-x="57"
     inkscape:window-y="24"
     inkscape:window-maximized="1" />
  <metadata
     id="metadata7">
    <rdf:RDF>
      <cc:Work
         rdf:about="">
        <dc:format>image/svg+xml</dc:format>
        <dc:type
           rdf:resource="http://purl.org/dc/dcmitype/StillImage" />
        <dc:title></dc:title>
      </cc:Work>
    </rdf:RDF>
  </metadata>
  <g
     inkscape:label="Ebene 1"
     inkscape:groupmode="layer"
     id="layer1"
     transform="translate(0,-668.2922)"
     style="display:inline" />
  <g
     inkscape:groupmode="layer"
     id="layer4"
     inkscape:label="orange-weiss"
     transform="translate(0,209.39001)" />
  <g
     inkscape:groupmode="layer"
     id="layer5"
     inkscape:label="schwarz"
     transform="translate(0,209.39001)">
    <path
       sodipodi:nodetypes="ccccc"
       inkscape:connector-curvature="0"
       id="path4624"
       d="m 441.5343,-203.03571 c -170.4274,0 -300.3326,-0.5962 -437.0343,-1.8584 66.0146,116.334203 151.3149,258.739903 217.3295,375.0741 68.2981,-116.165297 223.0279,-373.1969 223.0279,-373.1969 z"
       style="color:#000000;fill:#ffffff;stroke:#000000;stroke-width:9;stroke-linecap:round;stroke-linejoin:round;stroke-miterlimit:4;stroke-opacity:1;stroke-dasharray:none;stroke-dashoffset:0;marker:none;visibility:visible;display:inline;overflow:visible;enable-background:accumulate;fill-opacity:1" />
  </g>
  <g
     inkscape:groupmode="layer"
     id="layer6"
     inkscape:label="Ziffer"
     transform="translate(0,209.39001)">
    <path
       style="color:#000000;fill:#000000;fill-opacity:1;stroke:none;stroke-width:1px;marker:none;visibility:visible;display:inline;overflow:visible;enable-background:accumulate"
       d="m 221.661,-181.10178 c -20.7945,0.002 -41.5626,21.94948 -41.5626,42.875 l 0,112.562503 c 0,14.13709 12.4491,36.5 40.8126,36.5 22.9996,0 40.8437,-20.84264 40.8437,-36.5 l 0,-53.53125 c 0,-37.880723 -40.0092,-38.772683 -54.0625,-33.343753 l 0,-28.28125 c 0,-15.15229 30.8125,-14.64721 30.8125,0 l 24.75,0 c 0,-18.33878 -20.7994,-40.28349 -41.5937,-40.28125 z m -1.5313,94.343753 c 7.0872,-0.32918 14.625,3.32575 14.625,10.6875 l 0,43.5625 c 0,19.17212 -26.7813,20.38804 -26.7813,0 l 0,-43.9375 c 0,-6.64461 5.9029,-10.02205 12.1563,-10.3125 z"
       id="path4637"
       inkscape:connector-curvature="0" />
  </g>
</svg>
