<?xml version="1.0" encoding="UTF-8" standalone="no"?>
<!-- Created with Inkscape (http://www.inkscape.org/) -->

<svg
   xmlns:sketch="http://www.bohemiancoding.com/sketch/ns"
   xmlns:dc="http://purl.org/dc/elements/1.1/"
   xmlns:cc="http://creativecommons.org/ns#"
   xmlns:rdf="http://www.w3.org/1999/02/22-rdf-syntax-ns#"
   xmlns:svg="http://www.w3.org/2000/svg"
   xmlns="http://www.w3.org/2000/svg"
   xmlns:sodipodi="http://sodipodi.sourceforge.net/DTD/sodipodi-0.dtd"
   xmlns:inkscape="http://www.inkscape.org/namespaces/inkscape"
   width="449.35999"
   height="384.07001"
   id="svg2"
   version="1.1"
   inkscape:version="0.91 r13725"
   sodipodi:docname="lf4-ds301-80-sign-down.svg">
  <defs
     id="defs4" />
  <sodipodi:namedview
     id="base"
     pagecolor="#ffffff"
     bordercolor="#666666"
     borderopacity="1.0"
     inkscape:pageopacity="0.0"
     inkscape:pageshadow="2"
     inkscape:zoom="0.7"
     inkscape:cx="214.12907"
     inkscape:cy="290.85524"
     inkscape:document-units="px"
     inkscape:current-layer="layer5"
     showgrid="false"
     inkscape:window-width="1920"
     inkscape:window-height="1028"
     inkscape:window-x="1366"
     inkscape:window-y="30"
     inkscape:window-maximized="1" />
  <metadata
     id="metadata7">
    <rdf:RDF>
      <cc:Work
         rdf:about="">
        <dc:format>image/svg+xml</dc:format>
        <dc:type
           rdf:resource="http://purl.org/dc/dcmitype/StillImage" />
        <dc:title></dc:title>
      </cc:Work>
    </rdf:RDF>
  </metadata>
  <g
     inkscape:label="Ebene 1"
     inkscape:groupmode="layer"
     id="layer1"
     transform="translate(0,-668.2922)"
     style="display:inline" />
  <g
     inkscape:groupmode="layer"
     id="layer4"
     inkscape:label="orange-weiss"
     transform="translate(0,209.39001)" />
  <g
     inkscape:groupmode="layer"
     id="layer5"
     inkscape:label="schwarz"
     transform="translate(0,209.39001)">
    <path
       sodipodi:nodetypes="ccccc"
       inkscape:connector-curvature="0"
       id="path4624"
       d="m 441.5343,-203.03571 c -170.4274,0 -300.3326,-0.5962 -437.0343,-1.8584 66.0146,116.334203 151.3149,258.739903 217.3295,375.0741 68.2981,-116.165297 223.0279,-373.1969 223.0279,-373.1969 z"
       style="color:#000000;fill:#ffffff;stroke:#000000;stroke-width:9;stroke-linecap:round;stroke-linejoin:round;stroke-miterlimit:4;stroke-opacity:1;stroke-dasharray:none;stroke-dashoffset:0;marker:none;visibility:visible;display:inline;overflow:visible;enable-background:accumulate;fill-opacity:1" />
  </g>
  <g
     inkscape:groupmode="layer"
     id="layer6"
     inkscape:label="Ziffer"
     transform="translate(0,209.39001)">
    <g
       id="layer6-5"
       transform="translate(190.5,-167.92999)"
       sketch:type="MSShapeGroup"
       style="fill:#000000;stroke:none">
      <path
         d="m 39.10534,-0.17227 c -22.25434,0 -38.45398,14.95552 -38.8125,38.8125 -0.0103,10e-4 -0.0312,0 -0.0312,0 l 0,20.375 c 0,9.001759 3.92532,19.627029 11.40625,26.906249 -7.48098,7.34172 -11.4063,17.529491 -11.4063,26.531251 l 0.0312,31.21875 c 0.0238,23.85325 16.56164,38.8125 38.8125,38.8125 20.7827,0 38.0625,-14.62446 38.0625,-38.8125 l 0,-31.21875 c 0,-9.00176 -4.78967,-20.674671 -11.41813,-26.548561 8.04267,-7.81843 11.41813,-18.10501 11.41813,-27.106769 l 0,-20.15717 c 0,-24.18802 -17.2798,-38.8125 -38.0625,-38.8125 l 5e-5,0 z m -0.78125,23 c 9.29281,-0.125 16.53125,5.76083 16.53125,15.3125 l 0,20.25 c 0,8.138929 -5.99177,16.278979 -16.125,16.281249 -10.14907,0.002 -16.18109,-8.13475 -16.15625,-16.281249 l 0.0625,-20.5 c 0.0289,-9.47307 8.24074,-14.96233 15.6875,-15.0625 l 0,0 z m 0.40625,74.218749 c 9.38311,0 16.125,7.586111 16.125,16.343751 l 0,30.78125 c 0,9.55167 -7.23844,15.40625 -16.53125,15.28125 -7.44676,-0.10017 -15.66842,-5.55816 -15.6875,-15.03125 l -0.0625,-31.03125 c -0.0177,-8.80978 6.97819,-16.343751 16.15625,-16.343751 l 0,0 z"
         id="path3830-7"
         inkscape:connector-curvature="0" />
    </g>
  </g>
</svg>
