<?xml version="1.0" encoding="UTF-8" standalone="no"?>
<!-- Created with Inkscape (http://www.inkscape.org/) -->

<svg
   xmlns:dc="http://purl.org/dc/elements/1.1/"
   xmlns:cc="http://creativecommons.org/ns#"
   xmlns:rdf="http://www.w3.org/1999/02/22-rdf-syntax-ns#"
   xmlns:svg="http://www.w3.org/2000/svg"
   xmlns="http://www.w3.org/2000/svg"
   xmlns:sodipodi="http://sodipodi.sourceforge.net/DTD/sodipodi-0.dtd"
   xmlns:inkscape="http://www.inkscape.org/namespaces/inkscape"
   width="449.35999"
   height="384.07001"
   id="svg2"
   version="1.1"
   inkscape:version="0.48.3.1 r9886"
   sodipodi:docname="Lf6_130_Tafel_nu.svg">
  <defs
     id="defs4" />
  <sodipodi:namedview
     id="base"
     pagecolor="#ffffff"
     bordercolor="#666666"
     borderopacity="1.0"
     inkscape:pageopacity="0.0"
     inkscape:pageshadow="2"
     inkscape:zoom="1.4142136"
     inkscape:cx="300.03021"
     inkscape:cy="191.79932"
     inkscape:document-units="px"
     inkscape:current-layer="layer6"
     showgrid="false"
     inkscape:window-width="1912"
     inkscape:window-height="1137"
     inkscape:window-x="0"
     inkscape:window-y="0"
     inkscape:window-maximized="1" />
  <metadata
     id="metadata7">
    <rdf:RDF>
      <cc:Work
         rdf:about="">
        <dc:format>image/svg+xml</dc:format>
        <dc:type
           rdf:resource="http://purl.org/dc/dcmitype/StillImage" />
        <dc:title></dc:title>
      </cc:Work>
    </rdf:RDF>
  </metadata>
  <g
     inkscape:groupmode="layer"
     id="layer5"
     inkscape:label="Schild"
     transform="translate(0,209.39001)"
     style="display:inline">
    <path
       sodipodi:nodetypes="cccc"
       inkscape:connector-curvature="0"
       id="path4624"
       d="m 4.5,-205.32 220,375.49999 220,-375.49999 z"
       style="color:#000000;fill:#ffffff;stroke:#000000;stroke-width:9;stroke-linecap:round;stroke-linejoin:round;stroke-miterlimit:4;stroke-opacity:1;stroke-dasharray:none;stroke-dashoffset:0;marker:none;visibility:visible;display:inline;overflow:visible;enable-background:accumulate;fill-opacity:1" />
    <path
       style="color:#000000;fill:#d97100;fill-opacity:1;stroke:none;stroke-width:9;marker:none;visibility:visible;display:inline;overflow:visible;enable-background:accumulate"
       d="M 37.201488,-186.26365 224.5,133.42084 411.79851,-186.26365 z"
       id="path3780"
       inkscape:connector-curvature="0"
       sodipodi:nodetypes="cccc" />
  </g>
  <g
     inkscape:groupmode="layer"
     id="layer6"
     inkscape:label="Ziffer"
     transform="translate(0,209.39001)"
     style="display:inline">
    <path
       style="fill:#000000;fill-opacity:1;stroke:none"
       d="m 166.23145,-161.6796 -25.38393,25.03125 0,30.125 23.77678,-24.10268 0,148.946423 22.27776,0 0,-179.999993 z"
       id="rect4089"
       inkscape:connector-curvature="0"
       sodipodi:nodetypes="cccccccc" />
    <path
       style="font-size:260px;font-style:normal;font-variant:normal;font-weight:normal;font-stretch:normal;text-align:center;line-height:100%;letter-spacing:0px;word-spacing:0px;writing-mode:lr-tb;text-anchor:middle;fill:#000000;fill-opacity:1;stroke:none;display:inline;font-family:DIN 1451 Engschrift;-inkscape-font-specification:DIN 1451 Engschrift"
       d="m 255.10534,-161.17227 c -22.25434,0 -38.45398,14.95552 -38.8125,38.8125 -0.0103,10e-4 -0.0312,0 -0.0312,0 l 0,20.375 c 0,9.001759 3.92532,19.627029 11.40625,26.906249 -7.48098,7.34172 -11.4063,17.52949 -11.4063,26.53125 l 0.0312,31.21875 c 0.0238,23.8532496 16.56164,38.8125 38.8125,38.8125 20.7827,0 38.0625,-14.6244604 38.0625,-38.8125 l 0,-31.21875 c 0,-9.00176 -4.78967,-20.67467 -11.41813,-26.54856 8.04267,-7.81843 11.41813,-18.10501 11.41813,-27.106769 l 0,-20.15717 c 0,-24.18802 -17.2798,-38.8125 -38.0625,-38.8125 z m -0.78125,23 c 9.29281,-0.125 16.53125,5.76083 16.53125,15.3125 l 0,20.25 c 0,8.138929 -5.99177,16.278979 -16.125,16.281249 -10.14907,0.002 -16.18109,-8.13475 -16.15625,-16.281249 l 0.0625,-20.5 c 0.0289,-9.47307 8.24074,-14.96233 15.6875,-15.0625 z m 0.40625,74.218749 c 9.38311,0 16.125,7.58611 16.125,16.34375 l 0,30.78125 c 0,9.5516696 -7.23844,15.4062496 -16.53125,15.2812496 -7.44676,-0.10017 -15.66842,-5.55816 -15.6875,-15.0312496 l -0.0625,-31.03125 c -0.0177,-8.80978 6.97819,-16.34375 16.15625,-16.34375 z"
       id="path3830-7"
       inkscape:connector-curvature="0"
       sodipodi:nodetypes="sccsccsssscssssssssssssssssss" />
  </g>
</svg>
