<?xml version="1.0" encoding="UTF-8" standalone="no"?>
<!-- Created with Inkscape (http://www.inkscape.org/) -->

<svg
   xmlns:dc="http://purl.org/dc/elements/1.1/"
   xmlns:cc="http://creativecommons.org/ns#"
   xmlns:rdf="http://www.w3.org/1999/02/22-rdf-syntax-ns#"
   xmlns:svg="http://www.w3.org/2000/svg"
   xmlns="http://www.w3.org/2000/svg"
   xmlns:sodipodi="http://sodipodi.sourceforge.net/DTD/sodipodi-0.dtd"
   xmlns:inkscape="http://www.inkscape.org/namespaces/inkscape"
   width="449.35999"
   height="384.07001"
   id="svg2"
   version="1.1"
   inkscape:version="0.91 r13725"
   sodipodi:docname="lf6-5-sign-down.svg"
   inkscape:export-filename="/home/bjoern/orm-github/OpenRailwayMap/styles/icons/de/lf6-5-sign-down-32.png"
   inkscape:export-xdpi="6.3269715"
   inkscape:export-ydpi="6.3269715">
  <defs
     id="defs4" />
  <sodipodi:namedview
     id="base"
     pagecolor="#ffffff"
     bordercolor="#666666"
     borderopacity="1.0"
     inkscape:pageopacity="0.0"
     inkscape:pageshadow="2"
     inkscape:zoom="0.49497475"
     inkscape:cx="-1007.898"
     inkscape:cy="410.68732"
     inkscape:document-units="px"
     inkscape:current-layer="layer6"
     showgrid="false"
     inkscape:window-width="1920"
     inkscape:window-height="1007"
     inkscape:window-x="0"
     inkscape:window-y="0"
     inkscape:window-maximized="1" />
  <metadata
     id="metadata7">
    <rdf:RDF>
      <cc:Work
         rdf:about="">
        <dc:format>image/svg+xml</dc:format>
        <dc:type
           rdf:resource="http://purl.org/dc/dcmitype/StillImage" />
        <dc:title />
      </cc:Work>
    </rdf:RDF>
  </metadata>
  <g
     inkscape:label="Ebene 1"
     inkscape:groupmode="layer"
     id="layer1"
     transform="translate(0,-668.2922)"
     style="display:inline" />
  <g
     inkscape:groupmode="layer"
     id="layer4"
     inkscape:label="orange-weiss"
     transform="translate(0,209.39001)">
    <path
       style="color:#000000;fill:#d97100;fill-opacity:1;stroke:#ffffff;stroke-width:15;stroke-linecap:round;stroke-linejoin:round;stroke-miterlimit:4;stroke-opacity:1;stroke-dasharray:none;stroke-dashoffset:0;marker:none;visibility:visible;display:inline;overflow:visible;enable-background:accumulate"
       d="m 432.3545,-196.12211 c -142.257,0.2431 -281.4368,-0.8006 -415.1475,-1.1875 66.0146,116.334203 139.1155,237.711803 205.1301,354.046 68.2981,-116.165297 141.8641,-236.459897 210.1622,-352.6252 -2.1381,3.7034 -7.2936,-0.2333 -0.1448,-0.2333 z"
       id="path3047"
       inkscape:connector-curvature="0"
       sodipodi:nodetypes="ccccc" />
  </g>
  <g
     inkscape:groupmode="layer"
     id="layer5"
     inkscape:label="schwarz"
     transform="translate(0,209.39001)">
    <path
       sodipodi:nodetypes="ccccc"
       inkscape:connector-curvature="0"
       id="path4624"
       d="m 441.5343,-203.03571 c -170.4274,0 -300.3326,-0.5962 -437.0343,-1.8584 66.0146,116.334203 151.3149,258.739903 217.3295,375.0741 68.2981,-116.165297 223.0279,-373.1969 223.0279,-373.1969 z"
       style="color:#000000;fill:none;stroke:#000000;stroke-width:9;stroke-linecap:round;stroke-linejoin:round;stroke-miterlimit:4;stroke-opacity:1;stroke-dasharray:none;stroke-dashoffset:0;marker:none;visibility:visible;display:inline;overflow:visible;enable-background:accumulate" />
  </g>
  <g
     inkscape:groupmode="layer"
     id="layer6"
     inkscape:label="Ziffer"
     transform="translate(0,209.39001)">
    <path
       style="fill:#000000;fill-opacity:1;stroke:none"
       d="m 203.99539,-161.21591 c -19.09533,0.10849 -38.20872,13.14287 -38.24097,38.78727 l -0.22495,0 0,105.949983 0.22495,0 c 0.47429,51.76202 76.41766,51.1823 76.44981,0 l 0.19281,0 0,-105.949983 -0.19281,0 c -0.0476,-26.06629 -19.12124,-38.89571 -38.20884,-38.78727 z m -0.0643,23.04099 c 8.07364,-0.073 16.16267,5.10564 16.19617,15.74628 l -0.0643,0 0,105.949983 0.0964,0 c -0.0341,20.8146698 -32.29595,20.8555198 -32.29595,-0.48203 l 0,-105.467953 -0.0643,0 c 0.034,-10.36934 8.07532,-15.67339 16.13191,-15.74628 z"
       id="rect4094"
       inkscape:connector-curvature="0" />
    <g
       transform="matrix(0.66402123,0,0,0.69054321,104.41881,-50.991084)"
       style="font-style:normal;font-variant:normal;font-weight:normal;font-stretch:normal;font-size:265.14154053px;line-height:100%;font-family:'DIN 1451 Engschrift';-inkscape-font-specification:'DIN 1451 Engschrift';text-align:center;letter-spacing:0px;word-spacing:0px;writing-mode:lr-tb;text-anchor:middle;display:inline;fill:#000000;fill-opacity:1;stroke:none"
       id="text4403">
      <path
         d="m 309.94892,-61.23902 0,45.725794 c 0.2166,18.5554069 -15.94794,34.923373 -36.28611,34.923373 -21.22314,0 -36.34738,-16.6095971 -36.34738,-34.923373 l 0,-10.461969 22.78688,0 0,10.461969 c 0,7.4498831 6.24076,13.028706 13.40749,13.0183303 7.74152,-0.011208 13.67474,-5.9183653 13.67474,-13.0183303 l 0,-44.96977 c 0,-7.572509 -6.5501,-12.971688 -13.56893,-12.971688 -5.51567,0 -11.3922,3.11256 -13.5133,9.299107 l -22.69637,0 0,-94.390393 72.54298,0 0,21.86411 -49.84661,0 0,49.193827 c 6.1866,-5.302719 12.69785,-6.965977 21.07142,-6.965977 19.07871,0 28.77519,16.47311 28.77519,33.21499 z"
         id="path4426"
         inkscape:connector-curvature="0"
         sodipodi:nodetypes="scscccssssscccccccss" />
    </g>
  </g>
</svg>
