<?xml version="1.0" encoding="UTF-8" standalone="no"?>
<!-- Created with Inkscape (http://www.inkscape.org/) -->

<svg
   xmlns:dc="http://purl.org/dc/elements/1.1/"
   xmlns:cc="http://creativecommons.org/ns#"
   xmlns:rdf="http://www.w3.org/1999/02/22-rdf-syntax-ns#"
   xmlns:svg="http://www.w3.org/2000/svg"
   xmlns="http://www.w3.org/2000/svg"
   xmlns:sodipodi="http://sodipodi.sourceforge.net/DTD/sodipodi-0.dtd"
   xmlns:inkscape="http://www.inkscape.org/namespaces/inkscape"
   width="449.35999"
   height="384.07001"
   id="svg2"
   version="1.1"
   inkscape:version="0.48.3.1 r9886"
   sodipodi:docname="Lf6_160_Tafel_nu.svg">
  <defs
     id="defs4" />
  <sodipodi:namedview
     id="base"
     pagecolor="#ffffff"
     bordercolor="#666666"
     borderopacity="1.0"
     inkscape:pageopacity="0.0"
     inkscape:pageshadow="2"
     inkscape:zoom="0.5"
     inkscape:cx="-353.6661"
     inkscape:cy="374.56796"
     inkscape:document-units="px"
     inkscape:current-layer="layer6"
     showgrid="false"
     inkscape:window-width="1912"
     inkscape:window-height="1137"
     inkscape:window-x="0"
     inkscape:window-y="0"
     inkscape:window-maximized="1" />
  <metadata
     id="metadata7">
    <rdf:RDF>
      <cc:Work
         rdf:about="">
        <dc:format>image/svg+xml</dc:format>
        <dc:type
           rdf:resource="http://purl.org/dc/dcmitype/StillImage" />
        <dc:title></dc:title>
      </cc:Work>
    </rdf:RDF>
  </metadata>
  <g
     inkscape:groupmode="layer"
     id="layer5"
     inkscape:label="Schild"
     transform="translate(0,209.39001)"
     style="display:inline">
    <path
       sodipodi:nodetypes="cccc"
       inkscape:connector-curvature="0"
       id="path4624"
       d="m 4.5,-205.32 220,375.49999 220,-375.49999 z"
       style="color:#000000;fill:#ffffff;stroke:#000000;stroke-width:9;stroke-linecap:round;stroke-linejoin:round;stroke-miterlimit:4;stroke-opacity:1;stroke-dasharray:none;stroke-dashoffset:0;marker:none;visibility:visible;display:inline;overflow:visible;enable-background:accumulate;fill-opacity:1" />
    <path
       style="color:#000000;fill:#d97100;fill-opacity:1;stroke:none;stroke-width:9;marker:none;visibility:visible;display:inline;overflow:visible;enable-background:accumulate"
       d="M 37.201488,-186.26365 224.5,133.42084 411.79851,-186.26365 z"
       id="path3780"
       inkscape:connector-curvature="0"
       sodipodi:nodetypes="cccc" />
  </g>
  <g
     inkscape:groupmode="layer"
     id="layer6"
     inkscape:label="Ziffer"
     transform="translate(0,209.39001)"
     style="display:inline">
    <path
       style="fill:#000000;fill-opacity:1;stroke:none"
       d="m 166.23145,-161.6796 -25.38393,25.03125 0,30.125 23.77678,-24.10268 0,148.946423 22.27776,0 0,-179.999993 z"
       id="rect4089"
       inkscape:connector-curvature="0"
       sodipodi:nodetypes="cccccccc" />
    <path
       style="font-size:265.14154053px;font-style:normal;font-variant:normal;font-weight:normal;font-stretch:normal;text-align:center;line-height:100%;letter-spacing:0px;word-spacing:0px;writing-mode:lr-tb;text-anchor:middle;fill:#000000;fill-opacity:1;stroke:none;font-family:DIN 1451 Engschrift;-inkscape-font-specification:DIN 1451 Engschrift"
       d="m 256.5625,19.79749 c 19.94378,0 35.7749,-16.67141 35.5625,-35.59375 l 0,-110.25 c 0,-18.67593 -14.81342,-35.625 -35.625,-35.625 -19.94378,0 -35.80615,16.70266 -35.59375,35.625 l 0,46.625 c 0,17.07295 9.51001,33.875 28.21875,33.875 8.2112,0 14.58962,-1.71742 20.65625,-7.125 l 0,37.5625 c -0.35617,6.928811 -6.02634,12.551465 -13.375,12.5625 -7.02775,0.01058 -13.15625,-5.6528 -13.15625,-13.25 l 0,-10.6875 -22.34375,0 0,10.6875 c 0,18.67593 14.84467,35.59375 35.65625,35.59375 z m -0.0312,-86.75 c -6.88272,0 -13.3125,-5.52774 -13.3125,-13.25 l 0,-45.84375 c 0,-7.24037 5.81485,-13.26982 13.40625,-13.28125 7.0277,-0.0106 13.1562,5.68404 13.1562,13.28125 l 0,10.65625 0,35.18669 c 0,7.88673 -6.81167,13.25081 -13.25,13.25081 z"
       id="path4426"
       inkscape:connector-curvature="0"
       sodipodi:nodetypes="sccscssccssccssssssscss" />
  </g>
</svg>
