<?xml version="1.0" encoding="UTF-8" standalone="no"?>
<!-- Created with Inkscape (http://www.inkscape.org/) -->

<svg
   xmlns:dc="http://purl.org/dc/elements/1.1/"
   xmlns:cc="http://creativecommons.org/ns#"
   xmlns:rdf="http://www.w3.org/1999/02/22-rdf-syntax-ns#"
   xmlns:svg="http://www.w3.org/2000/svg"
   xmlns="http://www.w3.org/2000/svg"
   xmlns:sodipodi="http://sodipodi.sourceforge.net/DTD/sodipodi-0.dtd"
   xmlns:inkscape="http://www.inkscape.org/namespaces/inkscape"
   width="217.07001"
   height="277.67001"
   id="svg2"
   version="1.1"
   inkscape:version="0.48.3.1 r9886"
   sodipodi:docname="Lf7_100_Tafel.svg">
  <defs
     id="defs4" />
  <sodipodi:namedview
     id="base"
     pagecolor="#ffffff"
     bordercolor="#666666"
     borderopacity="1.0"
     inkscape:pageopacity="0.0"
     inkscape:pageshadow="2"
     inkscape:zoom="2"
     inkscape:cx="3.0693016"
     inkscape:cy="205.71923"
     inkscape:document-units="px"
     inkscape:current-layer="layer6"
     showgrid="false"
     inkscape:window-width="1912"
     inkscape:window-height="1137"
     inkscape:window-x="0"
     inkscape:window-y="0"
     inkscape:window-maximized="1" />
  <metadata
     id="metadata7">
    <rdf:RDF>
      <cc:Work
         rdf:about="">
        <dc:format>image/svg+xml</dc:format>
        <dc:type
           rdf:resource="http://purl.org/dc/dcmitype/StillImage" />
        <dc:title></dc:title>
      </cc:Work>
    </rdf:RDF>
  </metadata>
  <g
     inkscape:groupmode="layer"
     id="layer5"
     inkscape:label="schwarz"
     transform="translate(0,102.99001)"
     style="display:inline">
    <rect
       style="fill:#ffffff;fill-opacity:1;stroke:#000000;stroke-width:12;stroke-linecap:round;stroke-linejoin:round;stroke-miterlimit:4;stroke-opacity:1;stroke-dasharray:none"
       id="rect4663"
       width="205.06096"
       height="265.6701"
       x="6"
       y="-96.990112" />
  </g>
  <g
     inkscape:groupmode="layer"
     id="layer6"
     inkscape:label="Ziffer"
     transform="translate(0,102.99001)"
     style="display:inline">
    <g
       id="g5035"
       transform="translate(14.121319,0)">
      <path
         sodipodi:nodetypes="scsccsscssss"
         inkscape:connector-curvature="0"
         id="rect4094"
         d="m 142.12007,-54.87375 c -19.14222,0 -38.20872,13.142869 -38.24097,38.787272 l 0,105.949987 c 0,51.699641 76.4175,51.434821 76.44981,0 l 0,-105.949987 C 180.28131,-42.15277 161.20798,-54.87375 142.12007,-54.87375 z m -0.0643,23.040989 c 7.82375,0 16.16267,5.105641 16.19617,15.746283 l 0.0321,105.949987 c 0.006,20.814681 -32.28294,20.855501 -32.29595,-0.482029 l -0.0643,-105.467958 c -0.006,-9.495799 8.03978,-15.746283 16.13198,-15.746283 z"
         style="fill:#000000;fill-opacity:1;stroke:none;display:inline" />
      <path
         sodipodi:nodetypes="cccssssscccsscsccc"
         d="m 84.1622,126.60569 -75.5954,0 0,-22.6393 49.11404,-93.931875 c 2.23003,-4.2649867 4.94417,-8.7247166 4.94417,-13.2221967 l 0,-12.9228713 c 0,-9.66465 -7.23388,-15.60841 -16.52669,-15.48193 -7.44676,0.10136 -15.69801,5.63951 -15.69801,15.22467 l 0,14.5293513 -22.36587,0 0,-12.9523613 c 0,-24.61516 16.32739,-40.07979 38.83229,-40.07979 20.7827,0 38.04547,14.79187 38.04547,39.26597 l 0,15.3852213 c 0,7.66144 -4.644,15.3820237 -8.16848,22.1269287 l -42.96127,82.216283 50.37975,0 0,22.4819"
         style="font-size:260px;font-style:normal;font-variant:normal;font-weight:normal;font-stretch:normal;text-align:center;line-height:100%;letter-spacing:0px;word-spacing:0px;writing-mode:lr-tb;text-anchor:middle;fill:#000000;fill-opacity:1;stroke:none;display:inline;font-family:DIN 1451 Engschrift;-inkscape-font-specification:DIN 1451 Engschrift"
         id="path3774"
         inkscape:connector-curvature="0" />
    </g>
  </g>
</svg>
