<?xml version="1.0" encoding="UTF-8" standalone="no"?>
<!-- Created with Inkscape (http://www.inkscape.org/) -->

<svg
   xmlns:dc="http://purl.org/dc/elements/1.1/"
   xmlns:cc="http://creativecommons.org/ns#"
   xmlns:rdf="http://www.w3.org/1999/02/22-rdf-syntax-ns#"
   xmlns:svg="http://www.w3.org/2000/svg"
   xmlns="http://www.w3.org/2000/svg"
   xmlns:sodipodi="http://sodipodi.sourceforge.net/DTD/sodipodi-0.dtd"
   xmlns:inkscape="http://www.inkscape.org/namespaces/inkscape"
   width="217.07001"
   height="277.67001"
   id="svg2"
   version="1.1"
   inkscape:version="0.48.3.1 r9886"
   sodipodi:docname="Lf7_140_Tafel.svg">
  <defs
     id="defs4" />
  <sodipodi:namedview
     id="base"
     pagecolor="#ffffff"
     bordercolor="#666666"
     borderopacity="1.0"
     inkscape:pageopacity="0.0"
     inkscape:pageshadow="2"
     inkscape:zoom="0.5"
     inkscape:cx="-260.3743"
     inkscape:cy="157.53686"
     inkscape:document-units="px"
     inkscape:current-layer="layer6"
     showgrid="false"
     inkscape:window-width="1912"
     inkscape:window-height="1137"
     inkscape:window-x="0"
     inkscape:window-y="0"
     inkscape:window-maximized="1" />
  <metadata
     id="metadata7">
    <rdf:RDF>
      <cc:Work
         rdf:about="">
        <dc:format>image/svg+xml</dc:format>
        <dc:type
           rdf:resource="http://purl.org/dc/dcmitype/StillImage" />
        <dc:title></dc:title>
      </cc:Work>
    </rdf:RDF>
  </metadata>
  <g
     inkscape:groupmode="layer"
     id="layer5"
     inkscape:label="schwarz"
     transform="translate(0,102.99001)"
     style="display:inline">
    <rect
       style="fill:#ffffff;fill-opacity:1;stroke:#000000;stroke-width:12;stroke-linecap:round;stroke-linejoin:round;stroke-miterlimit:4;stroke-opacity:1;stroke-dasharray:none"
       id="rect4663"
       width="205.06096"
       height="265.6701"
       x="6"
       y="-96.990112" />
  </g>
  <g
     inkscape:groupmode="layer"
     id="layer6"
     inkscape:label="Ziffer"
     transform="translate(0,102.99001)"
     style="display:inline">
    <g
       id="g3908"
       transform="translate(-12.64206,-14.831702)">
      <path
         sodipodi:nodetypes="cccccccc"
         inkscape:connector-curvature="0"
         id="rect4089-7"
         d="m 69.599082,-39.092545 -25.38393,25.031248 0,30.125 23.77678,-24.1026802 0,148.9464172 22.27776,0 0,-179.999985 z"
         style="fill:#000000;fill-opacity:1;stroke:none;display:inline" />
      <g
         id="text4403"
         style="font-size:265.14154053px;font-style:normal;font-variant:normal;font-weight:normal;font-stretch:normal;text-align:center;line-height:100%;letter-spacing:0px;word-spacing:0px;writing-mode:lr-tb;text-anchor:middle;fill:#000000;fill-opacity:1;stroke:none;display:inline;font-family:DIN 1451 Engschrift;-inkscape-font-specification:DIN 1451 Engschrift"
         transform="matrix(0.98060828,0,0,1.0197752,-96.632368,122.58705)">
        <path
           sodipodi:nodetypes="scscccssssscccccccss"
           inkscape:connector-curvature="0"
           id="path4426"
           d="m 297.90112,-61.23902 0,45.725794 c 0.2166,18.5554069 -15.94794,34.923373 -36.28611,34.923373 -21.22314,0 -36.34738,-16.6095971 -36.34738,-34.923373 l 0,-10.461969 22.78688,0 0,10.461969 c 0,7.4498831 6.24076,13.028706 13.40749,13.0183303 7.74152,-0.011208 13.67474,-5.9183653 13.67474,-13.0183303 l 0,-44.96977 c 0,-7.572509 -6.5501,-12.971688 -13.56893,-12.971688 -5.51567,0 -11.3922,3.11256 -13.5133,9.299107 l -22.69637,0 0,-94.390393 72.54298,0 0,21.86411 -49.84661,0 0,49.193827 c 6.1866,-5.302719 12.69785,-6.965977 21.07142,-6.965977 19.07871,0 28.77519,16.47311 28.77519,33.21499 z" />
      </g>
    </g>
  </g>
</svg>
