<?xml version="1.0" encoding="UTF-8" standalone="no"?>
<!-- Created with Inkscape (http://www.inkscape.org/) -->

<svg
   xmlns:dc="http://purl.org/dc/elements/1.1/"
   xmlns:cc="http://creativecommons.org/ns#"
   xmlns:rdf="http://www.w3.org/1999/02/22-rdf-syntax-ns#"
   xmlns:svg="http://www.w3.org/2000/svg"
   xmlns="http://www.w3.org/2000/svg"
   xmlns:sodipodi="http://sodipodi.sourceforge.net/DTD/sodipodi-0.dtd"
   xmlns:inkscape="http://www.inkscape.org/namespaces/inkscape"
   width="217.07001"
   height="277.67001"
   id="svg2"
   version="1.1"
   inkscape:version="0.91 r13725"
   sodipodi:docname="lf7-5-sign.svg">
  <defs
     id="defs4" />
  <sodipodi:namedview
     id="base"
     pagecolor="#ffffff"
     bordercolor="#666666"
     borderopacity="1.0"
     inkscape:pageopacity="0.0"
     inkscape:pageshadow="2"
     inkscape:zoom="0.49497475"
     inkscape:cx="-44.809104"
     inkscape:cy="118.61192"
     inkscape:document-units="px"
     inkscape:current-layer="g3908"
     showgrid="false"
     inkscape:window-width="1920"
     inkscape:window-height="1007"
     inkscape:window-x="0"
     inkscape:window-y="0"
     inkscape:window-maximized="1" />
  <metadata
     id="metadata7">
    <rdf:RDF>
      <cc:Work
         rdf:about="">
        <dc:format>image/svg+xml</dc:format>
        <dc:type
           rdf:resource="http://purl.org/dc/dcmitype/StillImage" />
        <dc:title></dc:title>
      </cc:Work>
    </rdf:RDF>
  </metadata>
  <g
     inkscape:label="Ebene 1"
     inkscape:groupmode="layer"
     id="layer1"
     transform="translate(0,-774.69217)"
     style="display:inline" />
  <g
     inkscape:groupmode="layer"
     id="layer5"
     inkscape:label="schwarz"
     transform="translate(0,102.99001)">
    <rect
       style="fill:#ffffff;fill-opacity:1;stroke:#000000;stroke-width:12;stroke-linecap:round;stroke-linejoin:round;stroke-miterlimit:4;stroke-opacity:1;stroke-dasharray:none"
       id="rect4663"
       width="205.06096"
       height="265.6701"
       x="6"
       y="-96.990112" />
    <path
       style="fill:#000000;fill-opacity:1;stroke:none"
       d="m 72.05967,-56.995068 c -19.09533,0.108489 -38.20872,13.142869 -38.24097,38.787272 l -0.22495,0 0,105.949987 0.22495,0 c 0.47429,51.762019 76.41766,51.182299 76.44981,0 l 0.19281,0 0,-105.949987 -0.19281,0 c -0.0476,-26.066292 -19.12124,-38.895716 -38.20884,-38.787272 z m -0.0643,23.040989 c 8.07364,-0.07304 16.16267,5.105641 16.19617,15.746283 l -0.0643,0 0,105.949987 0.0964,0 C 88.18954,108.55686 55.92769,108.59771 55.92769,87.260162 l 0,-105.467958 -0.0643,0 c 0.034,-10.369342 8.07532,-15.673398 16.13191,-15.746283 z"
       id="rect4094"
       inkscape:connector-curvature="0" />
    <g
       style="display:inline"
       id="g3908"
       transform="translate(-0.65659564,-20.405076)">
      <g
         id="text4403"
         style="font-style:normal;font-variant:normal;font-weight:normal;font-stretch:normal;font-size:265.14154053px;line-height:100%;font-family:'DIN 1451 Engschrift';-inkscape-font-specification:'DIN 1451 Engschrift';text-align:center;letter-spacing:0px;word-spacing:0px;writing-mode:lr-tb;text-anchor:middle;display:inline;fill:#000000;fill-opacity:1;stroke:none"
         transform="matrix(0.64683741,0,0,0.67267304,-13.363376,73.616317)">
        <path
           sodipodi:nodetypes="scscccssssscccccccss"
           inkscape:connector-curvature="0"
           id="path4426"
           d="m 297.90112,-61.23902 0,45.725794 c 0.2166,18.5554069 -15.94794,34.923373 -36.28611,34.923373 -21.22314,0 -36.34738,-16.6095971 -36.34738,-34.923373 l 0,-10.461969 22.78688,0 0,10.461969 c 0,7.4498831 6.24076,13.028706 13.40749,13.0183303 7.74152,-0.011208 13.67474,-5.9183653 13.67474,-13.0183303 l 0,-44.96977 c 0,-7.572509 -6.5501,-12.971688 -13.56893,-12.971688 -5.51567,0 -11.3922,3.11256 -13.5133,9.299107 l -22.69637,0 0,-94.390393 72.54298,0 0,21.86411 -49.84661,0 0,49.193827 c 6.1866,-5.302719 12.69785,-6.965977 21.07142,-6.965977 19.07871,0 28.77519,16.47311 28.77519,33.21499 z" />
      </g>
    </g>
    <text
       xml:space="preserve"
       style="font-style:normal;font-weight:normal;font-size:40px;line-height:125%;font-family:sans-serif;letter-spacing:0px;word-spacing:0px;fill:#000000;fill-opacity:1;stroke:none;stroke-width:1px;stroke-linecap:butt;stroke-linejoin:miter;stroke-opacity:1"
       x="135.36044"
       y="29.218044"
       id="text6354"
       sodipodi:linespacing="125%"><tspan
         sodipodi:role="line"
         id="tspan6356"
         x="135.36044"
         y="29.218044"></tspan></text>
  </g>
  <g
     inkscape:groupmode="layer"
     id="layer6"
     inkscape:label="Ziffer"
     transform="translate(0,102.99001)" />
</svg>
