<?xml version="1.0" encoding="UTF-8" standalone="no"?>
<!-- Created with Inkscape (http://www.inkscape.org/) -->

<svg
   xmlns:dc="http://purl.org/dc/elements/1.1/"
   xmlns:cc="http://creativecommons.org/ns#"
   xmlns:rdf="http://www.w3.org/1999/02/22-rdf-syntax-ns#"
   xmlns:svg="http://www.w3.org/2000/svg"
   xmlns="http://www.w3.org/2000/svg"
   xmlns:sodipodi="http://sodipodi.sourceforge.net/DTD/sodipodi-0.dtd"
   xmlns:inkscape="http://www.inkscape.org/namespaces/inkscape"
   width="168.61147"
   height="118.96885"
   id="svg2"
   version="1.1"
   inkscape:version="0.91 r13725"
   sodipodi:docname="LZB-Bereichskennzeichen.svg">
  <defs
     id="defs4" />
  <sodipodi:namedview
     id="base"
     pagecolor="#ffffff"
     bordercolor="#666666"
     borderopacity="1.0"
     inkscape:pageopacity="0.0"
     inkscape:pageshadow="2"
     inkscape:zoom="1.4"
     inkscape:cx="77.3861"
     inkscape:cy="34.395137"
     inkscape:document-units="px"
     inkscape:current-layer="layer1"
     showgrid="false"
     inkscape:window-width="1920"
     inkscape:window-height="1028"
     inkscape:window-x="1366"
     inkscape:window-y="30"
     inkscape:window-maximized="1"
     fit-margin-top="0"
     fit-margin-left="0"
     fit-margin-right="0"
     fit-margin-bottom="0" />
  <metadata
     id="metadata7">
    <rdf:RDF>
      <cc:Work
         rdf:about="">
        <dc:format>image/svg+xml</dc:format>
        <dc:type
           rdf:resource="http://purl.org/dc/dcmitype/StillImage" />
        <dc:title></dc:title>
      </cc:Work>
    </rdf:RDF>
  </metadata>
  <g
     inkscape:label="Layer 1"
     inkscape:groupmode="layer"
     id="layer1"
     transform="translate(16.16244,-855.83319)">
    <rect
       style="fill:#ffffff;fill-opacity:1;stroke:#000000;stroke-width:3;stroke-linecap:round;stroke-linejoin:round;stroke-miterlimit:4;stroke-dasharray:none;stroke-opacity:1"
       id="rect3905"
       width="165.61147"
       height="115.96885"
       x="-14.66244"
       y="857.33319" />
    <path
       style="opacity:1;fill:#000000;fill-opacity:1;stroke:none;stroke-width:2;stroke-linecap:round;stroke-linejoin:round;stroke-miterlimit:4;stroke-dasharray:none;stroke-opacity:1"
       d="m -0.25197457,885.95027 0,59.0957 1.13671874,0 6.69140623,0 29.4199226,0 0,-7.83007 -29.4199226,0 0,-51.26563 -7.82812497,0 z"
       id="rect4287"
       inkscape:connector-curvature="0" />
    <path
       style="opacity:1;fill:#000000;fill-opacity:1;stroke:none;stroke-width:2;stroke-linecap:round;stroke-linejoin:round;stroke-miterlimit:4;stroke-dasharray:none;stroke-opacity:1"
       d="m 45.330057,885.95027 0,7.83008 26.63086,0 -26.63086,43.43555 0,7.83007 37.00586,0 0,-7.83007 -26.962891,0 26.962891,-43.43555 0,-7.83008 -37.00586,0 z"
       id="path4292"
       inkscape:connector-curvature="0" />
    <path
       style="opacity:1;fill:#000000;fill-opacity:1;stroke:none;stroke-width:2;stroke-linecap:round;stroke-linejoin:round;stroke-miterlimit:4;stroke-dasharray:none;stroke-opacity:1"
       d="m 94.455078,-89.578125 0,7.830078 0,17.802735 0,7.830078 0,17.802734 0,7.830078 25.753902,0 0,-0.08203 c 18.19786,-1.31961 19.25861,-20.93857 9.00196,-29.466797 10.25566,-8.528641 9.19535,-28.145274 -9.00196,-29.464844 l 0,-0.08203 -1.96484,0 -15.95898,0 -7.830082,0 z m 7.830082,7.830078 15.95898,0 c 10.26785,0 11.45495,17.802735 0,17.802735 l -15.95898,0 0,-17.802735 z m 0,25.632813 15.95898,0 c 11.45495,0 10.26785,17.802734 0,17.802734 l -15.95898,0 0,-17.802734 z"
       transform="translate(-2.145346e-5,975.52921)"
       id="path4305"
       inkscape:connector-curvature="0" />
  </g>
  <g
     inkscape:groupmode="layer"
     id="layer2"
     inkscape:label="sign"
     transform="translate(16.16244,-855.83319)" />
  <g
     inkscape:groupmode="layer"
     id="layer3"
     inkscape:label="character"
     transform="translate(16.16244,-855.83319)" />
</svg>
