<?xml version="1.0" encoding="UTF-8" standalone="no"?>
<!-- Created with Inkscape (http://www.inkscape.org/) -->

<svg
   xmlns:dc="http://purl.org/dc/elements/1.1/"
   xmlns:cc="http://creativecommons.org/ns#"
   xmlns:rdf="http://www.w3.org/1999/02/22-rdf-syntax-ns#"
   xmlns:svg="http://www.w3.org/2000/svg"
   xmlns="http://www.w3.org/2000/svg"
   version="1.1"
   width="98.724998"
   height="114.71875"
   id="svg2">
  <defs
     id="defs4" />
  <metadata
     id="metadata7">
    <rdf:RDF>
      <cc:Work
         rdf:about="">
        <dc:format>image/svg+xml</dc:format>
        <dc:type
           rdf:resource="http://purl.org/dc/dcmitype/StillImage" />
        <dc:title></dc:title>
      </cc:Work>
    </rdf:RDF>
  </metadata>
  <rect
     width="16.041182"
     height="30.38818"
     x="41.341999"
     y="84.330566"
     id="rect2997"
     style="fill:#444444;fill-opacity:1;stroke:none" />
  <g
     transform="translate(-15.730915,-861.6826)"
     id="layer1" />
  <g
     transform="translate(-15.730915,-861.6826)"
     id="layer3" />
  <g
     transform="matrix(0.8,0,0,0.8,0.0125,0.0125)"
     id="g2991">
    <path
       d="m 0.0625,0.0625 0,114.59375 123.25,0 0,-114.59375 -123.25,0 z m 62.03125,11.21875 c 24.731091,0 44.78125,20.050159 44.78125,44.78125 0,24.731092 -20.050159,44.78125 -44.78125,44.78125 -24.731091,0 -44.78125,-20.050158 -44.78125,-44.78125 0,-24.731091 20.050159,-44.78125 44.78125,-44.78125 z"
       id="rect3880"
       style="fill:#000000;fill-opacity:1;stroke:#ffffff;stroke-width:0.1;stroke-linecap:round;stroke-linejoin:round;stroke-miterlimit:4;stroke-opacity:1;stroke-dashoffset:0" />
    <path
       d="m 106.88692,56.06563 c 0,24.731092 -20.048507,44.7796 -44.779598,44.7796 -24.731091,0 -44.779602,-20.048508 -44.779602,-44.7796 0,-24.731091 20.048511,-44.779602 44.779602,-44.779602 24.731091,0 44.779598,20.048511 44.779598,44.779602 z"
       id="path3904"
       style="fill:#ffffff;fill-opacity:1;stroke:none" />
    <path
       d="m 93.608244,24.008069 c 17.487526,17.487523 17.487526,45.840394 10e-7,63.327916 -17.487522,17.487525 -45.840396,17.487525 -63.327919,2e-6 -17.487522,-17.487523 -17.487522,-45.840399 0,-63.327921 17.487522,-17.4875219 45.840396,-17.4875191 63.327918,3e-6 z"
       id="path3882"
       style="fill:#ffffff;fill-opacity:0.54516129;stroke:none" />
    <rect
       width="102.22063"
       height="23.620705"
       x="-47.231796"
       y="71.729813"
       transform="matrix(0.70710678,-0.70710678,0.70710678,0.70710678,0,0)"
       id="rect3908"
       style="fill:#000000;fill-opacity:1;stroke:none" />
  </g>
</svg>
