<?xml version="1.0" encoding="UTF-8" standalone="no"?>
<svg
   xmlns:dc="http://purl.org/dc/elements/1.1/"
   xmlns:cc="http://creativecommons.org/ns#"
   xmlns:rdf="http://www.w3.org/1999/02/22-rdf-syntax-ns#"
   xmlns:svg="http://www.w3.org/2000/svg"
   xmlns="http://www.w3.org/2000/svg"
   width="163.92969"
   height="111.78513"
   id="svg2"
   version="1.1">
  <defs
     id="defs4" />
  <metadata
     id="metadata7">
    <rdf:RDF>
      <cc:Work
         rdf:about="">
        <dc:format>image/svg+xml</dc:format>
        <dc:type
           rdf:resource="http://purl.org/dc/dcmitype/StillImage" />
        <dc:title></dc:title>
      </cc:Work>
    </rdf:RDF>
  </metadata>
  <path
     id="rect4593"
     d="M 42.685547,0 80.488284,38.12696 115.08203,0 91.429684,0 72.500004,0 42.685547,0 Z m 37.802737,38.12696 -16.955081,18.68747 17.765621,17.918 16.95508,-18.6875 -17.76562,-17.91797 z m 17.76562,17.91797 43.656246,44.0293 22.01953,-44.1816 L 140.69336,9.27149 98.253904,56.04493 Z m -16.95508,18.6875 -33.621089,37.0527 24.822269,0 18.92968,0 26.607426,0 -36.738286,-37.0527 z M 63.533203,56.81443 20.947266,13.86328 0,55.89263 l 22.822266,45.789 40.710937,-44.8672 z"
     style="opacity:1;fill:#ffffff;fill-opacity:1;stroke:none;stroke-width:2;stroke-linecap:round;stroke-linejoin:round;stroke-miterlimit:4;stroke-dasharray:none;stroke-opacity:1" />
  <path
     id="rect4599"
     d="m 27.857422,0 -6.910156,13.86328 97.089844,97.92185 18.03515,0 5.83789,-11.7109 L 42.685547,0 27.857422,0 Z"
     style="opacity:1;fill:#000000;fill-opacity:1;stroke:none;stroke-width:2;stroke-linecap:round;stroke-linejoin:round;stroke-miterlimit:4;stroke-dasharray:none;stroke-opacity:1" />
  <path
     id="rect4601"
     d="m 115.08203,0 -92.259764,101.68163 5.035156,10.1035 19.820313,0 L 140.69336,9.27149 136.07226,0 115.08203,0 Z"
     style="opacity:1;fill:#000000;fill-opacity:1;stroke:none;stroke-width:2;stroke-linecap:round;stroke-linejoin:round;stroke-miterlimit:4;stroke-dasharray:none;stroke-opacity:1" />
  <g
     id="layer5"
     transform="translate(-34.285156,-68.26339)"
     style="display:inline" />
  <g
     id="layer6"
     transform="translate(-34.285156,-68.26339)"
     style="display:inline" />
</svg>
