<?xml version="1.0" encoding="UTF-8" standalone="no"?>
<!-- Created with Inkscape (http://www.inkscape.org/) -->

<svg
   xmlns:dc="http://purl.org/dc/elements/1.1/"
   xmlns:cc="http://creativecommons.org/ns#"
   xmlns:rdf="http://www.w3.org/1999/02/22-rdf-syntax-ns#"
   xmlns:svg="http://www.w3.org/2000/svg"
   xmlns="http://www.w3.org/2000/svg"
   version="1.1"
   width="331.00351"
   height="723.78497"
   id="svg2">
  <defs
     id="defs4" />
  <metadata
     id="metadata7">
    <rdf:RDF>
      <cc:Work
         rdf:about="">
        <dc:format>image/svg+xml</dc:format>
        <dc:type
           rdf:resource="http://purl.org/dc/dcmitype/StillImage" />
        <dc:title></dc:title>
      </cc:Work>
    </rdf:RDF>
  </metadata>
  <g
     transform="matrix(1,0,0,0.8069646,-38.093689,-125.43401)"
     id="layer13"
     style="display:inline">
    <rect
       width="28.571398"
       height="697.14203"
       x="193.59544"
       y="355.22012"
       id="rect4681"
       style="fill:#000000;fill-opacity:1;stroke:none" />
  </g>
  <g
     transform="translate(-38.093689,-194.00407)"
     id="layer14"
     style="display:inline">
    <g
       transform="matrix(0.9999989,0,0,0.9999989,149.30979,102.85822)"
       id="g3842"
       style="display:inline">
      <path
         d="m 187.14285,253.07646 a 132.14285,132.14285 0 1 1 -264.285703,0 132.14285,132.14285 0 1 1 264.285703,0 z"
         transform="matrix(1.2524472,0,0,1.2524472,-14.598881,-60.317015)"
         id="path3840"
         style="fill:#ffffff;fill-opacity:1;stroke:none" />
      <path
         d="m 187.14285,253.07646 a 132.14285,132.14285 0 1 1 -264.285703,0 132.14285,132.14285 0 1 1 264.285703,0 z"
         transform="translate(-1.4285714,5.7142858)"
         id="path3070"
         style="fill:#dd9501;fill-opacity:1;stroke:#000000;stroke-width:13;stroke-miterlimit:4;stroke-opacity:1;stroke-dasharray:none" />
    </g>
  </g>
  <g
     transform="translate(-1.6439819,0)"
     id="g3775">
    <rect
       width="168.69547"
       height="272.74121"
       x="82.797997"
       y="443.54376"
       id="rect4663"
       style="fill:#ffffff;fill-opacity:1;stroke:#000000;stroke-width:15;stroke-linecap:round;stroke-linejoin:round;stroke-miterlimit:4;stroke-opacity:1;stroke-dasharray:none;display:inline" />
    <path
       d="m 100.09961,454.31045 66.30217,100.29782 68.92209,-99.27744"
       id="path3837"
       style="color:#000000;fill:none;stroke:#000000;stroke-width:30.13618469;stroke-linecap:round;stroke-linejoin:miter;stroke-miterlimit:4;stroke-opacity:1;stroke-dasharray:none;stroke-dashoffset:0;marker:none;visibility:visible;display:inline;overflow:visible;enable-background:accumulate" />
    <path
       d="m 237.41227,708.09172 -71.1291,-100.43371 -67.26181,98.4134"
       id="path3839"
       style="color:#000000;fill:none;stroke:#000000;stroke-width:30;stroke-linecap:round;stroke-linejoin:miter;stroke-miterlimit:4;stroke-opacity:1;stroke-dasharray:none;stroke-dashoffset:0;marker:none;visibility:visible;display:inline;overflow:visible;enable-background:accumulate" />
  </g>
</svg>
