<?xml version="1.0" encoding="UTF-8" standalone="no"?>
<!-- Created with Inkscape (http://www.inkscape.org/) -->

<svg
   xmlns:dc="http://purl.org/dc/elements/1.1/"
   xmlns:cc="http://creativecommons.org/ns#"
   xmlns:rdf="http://www.w3.org/1999/02/22-rdf-syntax-ns#"
   xmlns:svg="http://www.w3.org/2000/svg"
   xmlns="http://www.w3.org/2000/svg"
   xmlns:sodipodi="http://sodipodi.sourceforge.net/DTD/sodipodi-0.dtd"
   xmlns:inkscape="http://www.inkscape.org/namespaces/inkscape"
   width="200"
   height="174.67999"
   id="svg2"
   version="1.1"
   inkscape:version="0.48.4 r9939"
   sodipodi:docname="Zs3_60_Tafel.svg">
  <defs
     id="defs4" />
  <sodipodi:namedview
     id="base"
     pagecolor="#ffffff"
     bordercolor="#666666"
     borderopacity="1.0"
     inkscape:pageopacity="0.0"
     inkscape:pageshadow="2"
     inkscape:zoom="0.7"
     inkscape:cx="437.38512"
     inkscape:cy="166.21845"
     inkscape:document-units="px"
     inkscape:current-layer="layer1"
     showgrid="false"
     inkscape:window-width="1309"
     inkscape:window-height="744"
     inkscape:window-x="57"
     inkscape:window-y="24"
     inkscape:window-maximized="1" />
  <metadata
     id="metadata7">
    <rdf:RDF>
      <cc:Work
         rdf:about="">
        <dc:format>image/svg+xml</dc:format>
        <dc:type
           rdf:resource="http://purl.org/dc/dcmitype/StillImage" />
        <dc:title></dc:title>
      </cc:Work>
    </rdf:RDF>
  </metadata>
  <g
     inkscape:label="Ebene 1"
     inkscape:groupmode="layer"
     id="layer1"
     transform="translate(0,-877.68218)">
    <path
       style="color:#000000;fill:#000000;fill-opacity:1;stroke:#ffffff;stroke-width:10.15501022;stroke-linecap:round;stroke-linejoin:round;stroke-miterlimit:4;stroke-opacity:1;stroke-dasharray:none;stroke-dashoffset:0;marker:none;visibility:visible;display:inline;overflow:visible;enable-background:accumulate"
       d="m 194.43777,1047.2847 -189.3602648,0 94.9877048,-164.52356 94.85728,164.29756"
       id="path3047"
       inkscape:connector-curvature="0"
       sodipodi:nodetypes="cccc" />
    <path
       style="color:#000000;fill:#ffffff;fill-opacity:1;stroke:none;stroke-width:1px;marker:none;visibility:visible;display:inline;overflow:visible;enable-background:accumulate"
       d="m 88.777294,972.85207 0,-19.4366 33.460406,0 0,-11.3175 -43.547746,0 0,42.5637 c 0,0 7.38926,-0.2472 11.07147,0 1.93453,-4.2767 6.54909,-5.9391 11.594716,-5.9391 4.83869,0 10.30217,5.5325 10.30217,8.8914 0,8.6112 0,6.3619 0,14.26993 0.17397,16.1618 -23.241326,14.7675 -23.241326,2.0876 -3.71067,0 -5.89323,-0.068 -11.00308,-0.068 -0.0985,9.17 9.37068,21.7077 22.53309,21.7077 14.554406,0 23.028806,-14.228 23.028806,-21.0117 0,-23.13603 0,-13.35653 0,-20.67563 0,-7.1374 -9.16662,-15.7268 -18.99455,-15.7268 -7.579776,0 -10.366236,0 -15.203956,4.6553 z"
       id="path3859"
       inkscape:connector-curvature="0"
       sodipodi:nodetypes="cccccccsscccsscscc" />
  </g>
</svg>
