<?xml version="1.0" encoding="UTF-8" standalone="no"?>
<svg width="200px" height="178px" viewBox="0 0 200 178" version="1.1" xmlns="http://www.w3.org/2000/svg" xmlns:xlink="http://www.w3.org/1999/xlink" xmlns:sketch="http://www.bohemiancoding.com/sketch/ns">
    <title>Slice 1 1</title>
    <description>Created with Sketch (http://www.bohemiancoding.com/sketch)</description>
    <defs></defs>
    <g id="Page-1" stroke="none" stroke-width="1" fill="none" fill-rule="evenodd" sketch:type="MSPage">
        <g id="Zs3_60_Tafel" sketch:type="MSLayerGroup" transform="translate(5.000000, 5.000000)" stroke="#FFFFFF" stroke-width="10.1550102" fill="#000000">
            <g id="layer1" transform="translate(0.000000, 0.317820)" sketch:type="MSShapeGroup">
                <path d="M189.43777,164.2847 L0.0775052,164.2847 L95.06521,-0.23886 L189.92249,164.0587" id="path3047"></path>
            </g>
        </g>
        <path d="M79.0364913,75 L68,85.9859375 L68,99.2074653 L78.3377304,88.6290668 L78.3377304,153.999997 L88.023713,153.999997 L88.023713,75 L79.0364913,75 Z" id="rect4089" fill="#FFFFFF" sketch:type="MSShapeGroup"></path>
        <path d="M115.528211,75 C106.820363,75 99.9081843,82.2764718 100.000922,90.5353936 L100.000922,138.655559 C100.000922,146.806932 106.468754,154.204593 115.5555,154.204593 C124.263347,154.204593 131.189171,146.914481 131.096433,138.655559 L131.096433,118.305421 C131.096433,110.853692 126.944175,103.5202 118.77557,103.5202 C115.190398,103.5202 112.405454,104.269792 109.756644,106.630007 L109.756644,90.2353246 C109.912155,87.2111474 112.387863,84.7570609 115.596433,84.7522445 C118.664887,84.7476267 121.340711,87.2194887 121.340711,90.5353936 L121.340711,95.2001036 L131.096433,95.2001036 L131.096433,90.5353936 C131.096433,82.3840209 124.614957,75 115.528211,75 L115.528211,75 Z M115.541834,112.86326 C118.546965,112.86326 121.354334,115.27592 121.354334,118.646409 L121.354334,138.655559 C121.354334,141.815721 118.815455,144.447359 115.500901,144.452348 C112.432468,144.456966 109.756644,141.971469 109.756644,138.655559 L109.756644,134.004489 L109.756644,118.646762 C109.756644,115.204488 112.730754,112.86326 115.541855,112.86326 L115.541834,112.86326 Z" id="path4426" fill="#FFFFFF" sketch:type="MSShapeGroup"></path>
    </g>
</svg>