<?xml version="1.0" encoding="UTF-8" standalone="no"?>
<svg width="200px" height="178px" viewBox="0 0 200 178" version="1.1" xmlns="http://www.w3.org/2000/svg" xmlns:xlink="http://www.w3.org/1999/xlink" xmlns:sketch="http://www.bohemiancoding.com/sketch/ns">
    <title>Slice 1 1</title>
    <description>Created with Sketch (http://www.bohemiancoding.com/sketch)</description>
    <defs></defs>
    <g id="Page-1" stroke="none" stroke-width="1" fill="none" fill-rule="evenodd" sketch:type="MSPage">
        <g id="Zs3_60_Tafel" sketch:type="MSLayerGroup" transform="translate(5.000000, 5.000000)" stroke="#FFFFFF" stroke-width="10.1550102" fill="#000000">
            <g id="layer1" transform="translate(0.000000, 0.317820)" sketch:type="MSShapeGroup">
                <path d="M189.43777,164.2847 L0.0775052,164.2847 L95.06521,-0.23886 L189.92249,164.0587" id="path3047"></path>
            </g>
        </g>
        <path d="M78.0364913,76 L67,86.846875 L67,99.9010417 L77.3377304,89.456547 L77.3377304,153.999997 L87.023713,153.999997 L87.023713,76 L78.0364913,76 Z" id="rect4089" fill="#FFFFFF" sketch:type="MSShapeGroup"></path>
        <path d="M133.614855,154.207895 L100.235068,154.207895 L100.235068,144.326655 L121.921787,103.328758 C122.906476,101.467243 124.104927,99.5207314 124.104927,97.5577429 L124.104927,91.9173743 C124.104927,87.6991016 120.910746,85.1048638 116.807428,85.1600678 C113.519248,85.2043078 109.875839,87.6215114 109.875839,91.8050895 L109.875839,98.146629 L100,98.146629 L100,92.493389 C100,81.7497556 107.209497,75 117.146725,75 C126.323502,75 133.946024,81.4561201 133.946024,92.1381858 L133.946024,98.8532818 C133.946024,102.197225 131.895426,105.566983 130.339163,108.510892 L111.369251,144.395355 L133.614855,144.395355 L133.614855,154.207895" id="path3774" fill="#FFFFFF" sketch:type="MSShapeGroup"></path>
    </g>
</svg>