<?xml version="1.0" encoding="UTF-8" standalone="no"?>
<svg width="280px" height="246px" viewBox="0 0 280 246" version="1.1" xmlns="http://www.w3.org/2000/svg" xmlns:xlink="http://www.w3.org/1999/xlink" xmlns:sketch="http://www.bohemiancoding.com/sketch/ns">
    <title>Slice 1</title>
    <description>Created with Sketch (http://www.bohemiancoding.com/sketch)</description>
    <defs>
        <path id="path-1" d="M7.129127,7.12978 L140.49765,238.13093 L273.68317,7.4471 L7.129127,7.12978 Z"></path>
    </defs>
    <g id="Page-1" stroke="none" stroke-width="1" fill="none" fill-rule="evenodd" sketch:type="MSPage">
        <g id="path3047">
            <use stroke="#E6F445" stroke-width="14.258254" stroke-linecap="round" stroke-linejoin="round" fill="#000000" fill-rule="evenodd" sketch:type="MSShapeGroup" xlink:href="#path-1"></use>
            <use stroke="none" fill="none" xlink:href="#path-1"></use>
            <use stroke="none" fill="none" xlink:href="#path-1"></use>
        </g>
        <path d="M140.759058,34 C126.001192,34 115.258474,43.8253545 115.020723,59.498717 C115.013893,59.499374 115.000033,59.498717 115.000033,59.498717 L115.000033,72.8845169 C115.000033,78.7984185 117.603091,85.778921 122.564036,90.561163 C117.603058,95.3844659 115,102.077543 115,107.991445 L115.02069,128.501283 C115.036473,144.172195 126.003467,154 140.759025,154 C154.540978,154 166,144.392142 166,128.501283 L166,107.991445 C166,102.077543 162.823752,94.4087708 158.428119,90.5497909 C163.761579,85.413303 166,78.6553103 166,72.7414087 L166,59.498717 C166,43.6078706 154.540978,34 140.759025,34 L140.759058,34 Z M140.733812,49.0012803 C147.066941,48.9193063 152,52.7791869 152,59.0430963 L152,72.3228858 C152,77.6603309 147.916558,82.9985111 141.010675,82.9999998 C134.093997,83.0013113 129.983123,77.6652952 130.000052,72.3228858 L130.042646,58.8791483 C130.062342,52.6667841 135.658781,49.066971 140.733812,49.0012803 L140.733812,49.0012803 Z M141.01066,97 C147.405338,97 152,101.983807 152,107.737269 L152,127.959467 C152,134.234578 147.066935,138.080831 140.733797,137.998711 C135.658759,137.932903 130.05562,134.347195 130.042617,128.123709 L130.000023,107.737269 C129.98796,101.949553 134.755725,97 141.01066,97 L141.01066,97 Z" id="path3830-7" fill="#E6F445" sketch:type="MSShapeGroup"></path>
    </g>
</svg>