<?xml version="1.0" encoding="UTF-8" standalone="no"?>
<svg width="280px" height="246px" viewBox="0 0 280 246" version="1.1" xmlns="http://www.w3.org/2000/svg" xmlns:xlink="http://www.w3.org/1999/xlink" xmlns:sketch="http://www.bohemiancoding.com/sketch/ns">
    <title>Slice 1</title>
    <description>Created with Sketch (http://www.bohemiancoding.com/sketch)</description>
    <defs>
        <path id="path-1" d="M7.129127,7.12978 L140.49765,238.13093 L273.68317,7.4471 L7.129127,7.12978 Z"></path>
    </defs>
    <g id="Page-1" stroke="none" stroke-width="1" fill="none" fill-rule="evenodd" sketch:type="MSPage">
        <g id="path3047">
            <use stroke="#E6F445" stroke-width="14.258254" stroke-linecap="round" stroke-linejoin="round" fill="#000000" fill-rule="evenodd" sketch:type="MSShapeGroup" xlink:href="#path-1"></use>
            <use stroke="none" fill="none" xlink:href="#path-1"></use>
            <use stroke="none" fill="none" xlink:href="#path-1"></use>
        </g>
        <path d="M107.899263,30 L93,45.01875 L93,63.09375 L106.955936,48.632142 L106.955936,137.999996 L120.032013,137.999996 L120.032013,30 L107.899263,30 L107.899263,30 Z" id="rect4089" fill="#E6F445" sketch:type="MSShapeGroup"></path>
        <path d="M176.426427,91.0401722 L176.426427,118.783912 C176.541018,130.042249 167.98924,139.973374 157.229421,139.973374 C146.001413,139.973374 138,129.895641 138,118.783912 L138,112.436201 L150.055298,112.436201 L150.055298,118.783912 C150.055298,123.304066 153.356945,126.688969 157.148471,126.682674 C161.244088,126.675874 164.383032,123.091756 164.383032,118.783912 L164.383032,91.4988837 C164.383032,86.9043272 160.917731,83.6284206 157.20445,83.6284206 C154.286409,83.6284206 151.177457,85.5169401 150.055298,89.2705758 L138.047884,89.2705758 L138.047884,32 L176.426427,32 L176.426427,45.2658645 L150.055298,45.2658645 L150.055298,75.1138045 C153.328292,71.8964244 156.77304,70.887256 161.20304,70.887256 C171.296547,70.887256 176.426427,80.8821775 176.426427,91.0401722 L176.426427,91.0401722 L176.426427,91.0401722 Z" id="path4426" fill="#E6F445" sketch:type="MSShapeGroup"></path>
    </g>
</svg>