<?xml version="1.0" encoding="UTF-8" standalone="no"?>
<svg width="280px" height="246px" viewBox="0 0 280 246" version="1.1" xmlns="http://www.w3.org/2000/svg" xmlns:xlink="http://www.w3.org/1999/xlink" xmlns:sketch="http://www.bohemiancoding.com/sketch/ns">
    <title>Slice 1</title>
    <description>Created with Sketch (http://www.bohemiancoding.com/sketch)</description>
    <defs>
        <path id="path-1" d="M7.129127,7.12978 L140.49765,238.13093 L273.68317,7.4471 L7.129127,7.12978 Z"></path>
    </defs>
    <g id="Page-1" stroke="none" stroke-width="1" fill="none" fill-rule="evenodd" sketch:type="MSPage">
        <g id="path3047">
            <use stroke="#E6F445" stroke-width="14.258254" stroke-linecap="round" stroke-linejoin="round" fill="#000000" fill-rule="evenodd" sketch:type="MSShapeGroup" xlink:href="#path-1"></use>
            <use stroke="none" fill="none" xlink:href="#path-1"></use>
            <use stroke="none" fill="none" xlink:href="#path-1"></use>
        </g>
        <path d="M141.009724,154 C154.013116,153.99875 167,140.277108 167,127.1944 L167,56.819928 C167,47.9813698 159.215224,34 141.47872,34 C127.096416,34 115.937993,47.0308916 115.937993,56.819928 L115.937993,90.2878532 C115.937993,113.971014 140.956884,114.528671 149.744812,111.134485 L149.744812,128.816021 C149.744812,138.289286 130.476879,137.973508 130.476879,128.816021 L115,128.816021 C115,140.281491 128.006457,154.0014 141.009724,154 L141.009724,154 Z M142.28353,94.9872958 C137.784779,95.1921135 133,92.9179952 133,88.3374726 L133,61.2326376 C133,49.3036356 150,48.5470833 150,61.2326376 L150,88.5707997 C150,92.7051138 146.253009,94.8065761 142.28353,94.9872958 L142.28353,94.9872958 Z" id="path4637" fill="#E6F445" sketch:type="MSShapeGroup"></path>
    </g>
</svg>