<?xml version="1.0" encoding="UTF-8" standalone="no"?>
<svg width="280px" height="246px" viewBox="0 0 280 246" version="1.1" xmlns="http://www.w3.org/2000/svg" xmlns:xlink="http://www.w3.org/1999/xlink" xmlns:sketch="http://www.bohemiancoding.com/sketch/ns">
    <title>Slice 1</title>
    <description>Created with Sketch (http://www.bohemiancoding.com/sketch)</description>
    <defs>
        <path id="path-1" d="M7.129127,7.12978 L140.49765,238.13093 L273.68317,7.4471 L7.129127,7.12978 Z"></path>
    </defs>
    <g id="Page-1" stroke="none" stroke-width="1" fill="none" fill-rule="evenodd" sketch:type="MSPage">
        <g id="path3047">
            <use stroke="#E6F445" stroke-width="14.258254" stroke-linecap="round" stroke-linejoin="round" fill="#000000" fill-rule="evenodd" sketch:type="MSShapeGroup" xlink:href="#path-1"></use>
            <use stroke="none" fill="none" xlink:href="#path-1"></use>
            <use stroke="none" fill="none" xlink:href="#path-1"></use>
        </g>
        <path d="M92,45.01875 L92,63.09375 L105.955936,48.632142 L105.955936,137.999996 L119.032013,137.999996 L119.032013,30 L106.899263,30 L92,45.01875 Z" id="rect4089" fill="#E6F445" sketch:type="MSShapeGroup"></path>
        <path d="M138,54.034836 L138,62.2233607 L151.657467,62.2233607 L151.657467,53.0870902 C151.657467,47.3411055 156.687529,44.0115785 161.232954,43.9508197 C166.905189,43.875 171.323458,47.4450935 171.323458,53.2387295 L171.323458,67.9477454 C171.323458,74.0750427 165.580138,76.9513323 156.655033,76.9513323 L156.655033,77.3114752 C156.648721,77.310087 156.635958,83.4149596 156.635958,83.4149596 L156.635958,89.5184426 C156.642269,89.5170475 156.655033,89.8596305 156.655033,89.8596305 C165.580138,89.8596305 171.323458,92.7548805 171.323458,98.8821723 L171.323458,117.552767 C171.323458,123.346402 166.905189,126.89754 161.232954,126.821722 C156.687529,126.760962 151.657467,123.45039 151.657467,117.704405 L151.657467,108.568135 L138,108.568135 L138,116.75666 C138,131.512642 147.973064,140.791495 161.709822,140.791495 C174.395365,140.791495 184.942776,131.92091 184.942776,117.249488 L184.942776,98.3135248 C184.942776,92.8534403 182.527727,87.2994854 176.053977,83.4149596 C182.527727,79.5304323 184.942776,73.9764774 184.942776,68.5163929 L184.942776,53.5420082 C184.942776,38.8705862 174.395365,30 161.709822,30 C147.973064,30 138,39.278854 138,54.034836 L138,54.034836 Z" id="path3830" fill="#E6F445" sketch:type="MSShapeGroup"></path>
    </g>
</svg>