<?xml version="1.0" encoding="UTF-8" standalone="no"?>
<svg
   xmlns:dc="http://purl.org/dc/elements/1.1/"
   xmlns:cc="http://creativecommons.org/ns#"
   xmlns:rdf="http://www.w3.org/1999/02/22-rdf-syntax-ns#"
   xmlns:svg="http://www.w3.org/2000/svg"
   xmlns="http://www.w3.org/2000/svg"
   height="203.29297"
   width="156.89062"
   version="1.1"
   id="svg3045">
  <metadata
     id="metadata3051">
    <rdf:RDF>
      <cc:Work
         rdf:about="">
        <dc:format>image/svg+xml</dc:format>
        <dc:type
           rdf:resource="http://purl.org/dc/dcmitype/StillImage" />
        <dc:title></dc:title>
      </cc:Work>
    </rdf:RDF>
  </metadata>
  <defs
     id="defs3049" />
  <g
     transform="translate(-188.92969,0.42382812)"
     id="layer12">
    <path
       id="rect5808"
       d="m 188.92969,-0.42382812 0,203.29296812 156.89062,0 0,-203.29296812 -156.89062,0 z m 9.39258,11.59960912 137.55273,0 0,181.748049 -137.55273,0 0,-181.748049 z"
       style="display:inline;opacity:1;fill:#ffffff;fill-opacity:1;stroke:none;stroke-width:2;stroke-linecap:round;stroke-linejoin:round;stroke-miterlimit:4;stroke-dasharray:none;stroke-opacity:1" />
  </g>
  <g
     style="display:inline"
     transform="translate(-293.63298,-2095.5882)"
     id="layer1">
    <path
       transform="translate(104.70329,2096.012)"
       id="rect5803"
       d="m 198.32227,11.175781 0,181.748049 137.55273,0 0,-181.748049 -137.55273,0 z m 20.26171,19.341797 15.19141,0 0,27.166016 83.5918,83.589846 0.002,0.002 0.0137,0.0137 -0.0137,0.0137 0,32.83985 -15.19141,0 0,-27.21094 -83.54687,-83.544921 -0.0469,0 0,-32.869141 z"
       style="opacity:1;fill:#000000;fill-opacity:1;stroke:none;stroke-width:2;stroke-linecap:round;stroke-linejoin:round;stroke-miterlimit:4;stroke-dasharray:none;stroke-opacity:1" />
  </g>
  <g
     transform="translate(-293.63298,-442.57722)"
     style="opacity:0.98999999"
     id="layer8">
    <path
       id="rect5818"
       transform="translate(104.70329,443.00105)"
       d="m 218.58398,30.517578 0,32.869141 0.0469,0 83.54687,83.544921 0,27.21094 15.19141,0 0,-32.83985 0.0137,-0.0137 -0.0137,-0.0137 -0.002,-0.002 -83.5918,-83.589846 0,-27.166016 -15.19141,0 z"
       style="opacity:1;fill:#ffffff;fill-opacity:1;stroke:none;stroke-width:2;stroke-linecap:round;stroke-linejoin:round;stroke-miterlimit:4;stroke-dasharray:none;stroke-opacity:1" />
  </g>
</svg>
