<?xml version="1.0" encoding="UTF-8" standalone="no"?>
<svg
   xmlns:dc="http://purl.org/dc/elements/1.1/"
   xmlns:cc="http://creativecommons.org/ns#"
   xmlns:rdf="http://www.w3.org/1999/02/22-rdf-syntax-ns#"
   xmlns:svg="http://www.w3.org/2000/svg"
   xmlns="http://www.w3.org/2000/svg"
   width="226.80804"
   height="195.97978"
   id="svg3894"
   version="1.1">
  <defs
     id="defs3896" />
  <metadata
     id="metadata3899">
    <rdf:RDF>
      <cc:Work
         rdf:about="">
        <dc:format>image/svg+xml</dc:format>
        <dc:type
           rdf:resource="http://purl.org/dc/dcmitype/StillImage" />
        <dc:title></dc:title>
      </cc:Work>
    </rdf:RDF>
  </metadata>
  <path
     id="path3925"
     d="M 10.404021,6 113.40402,184.00001 216.40402,6 Z"
     style="fill:#ffffff;stroke:#ff0000;stroke-width:12;stroke-linecap:butt;stroke-linejoin:miter;stroke-miterlimit:4;stroke-dasharray:none;stroke-opacity:1;fill-opacity:1" />
  <g
     transform="translate(30.181797,-878.73469)"
     id="text4437"
     style="font-style:normal;font-variant:normal;font-weight:normal;font-stretch:normal;font-size:144px;line-height:125%;font-family:'Swis721 BT';-inkscape-font-specification:'Swis721 BT';text-align:start;writing-mode:lr-tb;text-anchor:start;fill:#ff0000;fill-opacity:1;stroke:none">
    <path
       id="path3127"
       style="font-weight:bold;font-family:OSP-DIN;-inkscape-font-specification:'OSP-DIN Bold'"
       d="m 67.964409,904.31158 c 4.218734,-4.26552 9.304667,-6.39833 15.257812,-6.39843 5.953093,10e-5 11.039025,2.13291 15.257813,6.39843 4.218706,4.21884 6.328076,9.30478 6.328126,15.25782 -5e-5,3.18757 -0.63286,6.16413 -1.89844,8.92968 l -25.171874,55.82813 27.070314,0 0,14.41406 -43.171876,0 0,-14.41406 27.070312,-59.20313 c 1.171842,-2.76554 1.734342,-4.6171 1.6875,-5.55468 -3.3e-5,-2.01555 -0.703158,-3.72648 -2.109375,-5.13282 -1.359405,-1.40616 -3.046903,-2.10928 -5.0625,-2.10937 -2.015649,9e-5 -3.726585,0.70321 -5.132812,2.10937 -1.40627,1.40634 -2.109394,3.11727 -2.109375,5.13282 l -14.34375,0 c -5e-6,-5.95304 2.109368,-11.03898 6.328125,-15.25782" />
  </g>
</svg>
