<?xml version="1.0" encoding="UTF-8" standalone="no"?>
<!-- Generator: Adobe Illustrator 16.0.3, SVG Export Plug-In . SVG Version: 6.00 Build 0)  -->

<svg
   version="1.1"
   id="Ebene_1"
   x="0px"
   y="0px"
   width="666.96002"
   height="575.52002"
   viewBox="0 0 666.96002 575.52002"
   enable-background="new 0 0 800 800"
   xml:space="preserve"
   sodipodi:docname="ankuendigungstafel-35-sign.svg"
   inkscape:version="1.2.2 (732a01da63, 2022-12-09)"
   xmlns:inkscape="http://www.inkscape.org/namespaces/inkscape"
   xmlns:sodipodi="http://sodipodi.sourceforge.net/DTD/sodipodi-0.dtd"
   xmlns="http://www.w3.org/2000/svg"
   xmlns:svg="http://www.w3.org/2000/svg"><defs
   id="defs35880" /><sodipodi:namedview
   id="namedview35878"
   pagecolor="#ffffff"
   bordercolor="#000000"
   borderopacity="0.25"
   inkscape:showpageshadow="2"
   inkscape:pageopacity="0.0"
   inkscape:pagecheckerboard="0"
   inkscape:deskcolor="#d1d1d1"
   showgrid="false"
   inkscape:zoom="1.5575"
   inkscape:cx="323.91653"
   inkscape:cy="252.32745"
   inkscape:window-width="2560"
   inkscape:window-height="1494"
   inkscape:window-x="-11"
   inkscape:window-y="-11"
   inkscape:window-maximized="1"
   inkscape:current-layer="Ebene_1" />
<path
   style="fill:#fd0101;stroke-width:0.24"
   d="M 332.8705,574.14 332.09515,572.76 166.04758,286.51022 0,0.26045 V 0.13022 0 H 333.48 666.96 V 0.13259 0.26518 L 597.2172,120.79259 527.4744,241.32 l -0.78809,1.32 -0.78806,1.32 -91.67314,158.4 -91.67313,158.4 -0.96106,1.68 -0.96106,1.68 -3.30674,5.7 -3.30674,5.7 h -0.18528 -0.18528 z M 467.18309,266.03909 600.24408,34.45223 600.16208,34.20612 600.07998,33.96 H 333.82001 67.559996 l 0.0275,0.3851 0.0275,0.38511 133.027084,231.52337 133.02706,231.52336 0.22646,-0.0755 0.22647,-0.0755 z m -178.41115,67.31385 -3.18807,-0.20844 -2.81193,-0.38172 -2.81194,-0.38172 -2.64,-0.48456 -2.64,-0.48453 -3.83976,-0.97659 -3.83974,-0.97658 -3.0479,-1.04398 -3.04788,-1.044 -2.23236,-1.00224 -2.23236,-1.00224 -2.15014,-1.19068 -2.15013,-1.19072 -2.05831,-1.38398 -2.05829,-1.38401 -1.79158,-1.42697 -1.79155,-1.42696 -2.00239,-1.88751 -2.00237,-1.8875 -1.92262,-2.29399 -1.9226,-2.29402 -1.63366,-2.28 -1.63366,-2.28 -1.45487,-2.45189 -1.45487,-2.45191 -1.1077,-2.20555 -1.1077,-2.20555 -0.91436,-2.07783 -0.91437,-2.07782 -1.24255,-3.33586 -1.24255,-3.33583 -1.30047,-4.53773 -1.30047,-4.5377 -0.83391,-3.87759 -0.83391,-3.87758 -0.59992,-3.71359 -0.59992,-3.71357 -0.40734,-3.6 -0.40733,-3.6 -0.0202,-7.32 -0.0202,-7.32 15.06433,-0.0618 15.06431,-0.0618 0.22219,0.54181 0.22217,0.5418 0.7422,5.52 0.74218,5.52 0.95837,6.36 0.95839,6.36 0.72924,2.96215 0.72924,2.96218 0.7986,2.09265 0.7986,2.09268 1.12893,2.26517 1.12896,2.26517 1.58597,2.4 1.58597,2.4 3.25018,3.24857 3.25017,3.24857 2.25384,1.50456 2.25382,1.50456 2.66618,1.29172 2.66616,1.29176 2.24405,0.7386 2.24402,0.73862 3.03598,0.64757 3.03595,0.64759 6.12,-0.004 6.12,-0.004 3,-0.41645 3,-0.41647 2.30237,-0.46786 2.30239,-0.46788 2.13761,-0.607 2.13763,-0.60704 2.04,-0.74604 2.04,-0.74606 2.66717,-1.29014 2.66719,-1.29015 2.85281,-1.89849 2.85283,-1.8985 2.21623,-1.94518 2.21621,-1.9452 1.93354,-2.2162 1.93351,-2.21624 1.28988,-1.92 1.28988,-1.92 0.96773,-1.8 0.9677,-1.8 0.99007,-2.50027 0.99008,-2.50025 0.69206,-2.77975 0.69206,-2.77973 0.38511,-2.76 0.38513,-2.76 0.003,-4.8 0.003,-4.8 -0.26206,-2.16 -0.26208,-2.16 -0.4901,-2.61598 -0.49011,-2.61599 -0.95347,-2.90401 -0.9535,-2.90402 -1.30082,-2.70545 -1.3008,-2.70546 -1.36262,-2.09454 -1.36265,-2.09455 -0.97061,-1.2 -0.97063,-1.2 -1.69831,-1.76112 -1.69832,-1.76112 -1.68,-1.38521 -1.68,-1.3852 -2.04,-1.32497 -2.04,-1.32497 -2.02272,-1.01287 -2.02274,-1.01286 -2.05726,-0.78125 -2.05728,-0.78124 -2.4,-0.62249 -2.4,-0.62249 -2.52,-0.36067 -2.52,-0.36068 -4.92,-0.48733 -4.92,-0.48733 -5.83728,-0.48409 -5.83725,-0.48411 h -3.58275 -3.58272 V 183.8317 166.54417 l 0.3606,-0.13838 0.36063,-0.13838 4.13937,0.3144 4.1394,0.3144 6.15603,-0.0358 6.156,-0.0358 3.924,-0.25507 3.92397,-0.25507 3,-0.49408 3,-0.49409 2.88,-0.95523 2.88,-0.95522 1.8,-0.97044 1.8,-0.97043 1.51764,-1.0826 1.51762,-1.08259 1.55201,-1.45182 1.55198,-1.45181 1.42167,-1.88669 1.42166,-1.88668 0.99439,-1.70264 0.99439,-1.70264 1.01936,-2.43415 1.01932,-2.43416 0.62664,-2.16 0.62664,-2.16 0.36029,-1.68 0.36029,-1.68 0.24569,-1.44 0.24569,-1.44 0.23037,-3.25129 0.23038,-3.25129 -0.23511,-3.10574 -0.23508,-3.10573 -0.4774,-2.34274 -0.47744,-2.34274 -0.72667,-2.22023 -0.72665,-2.22024 -1.5478,-3.12 -1.54779,-3.12 -1.62103,-2.27089 -1.62106,-2.27089 -2.64,-2.67426 -2.64,-2.67426 -2.42301,-1.79457 -2.42302,-1.79458 -2.73698,-1.58635 -2.73699,-1.58635 -1.95988,-0.83621 -1.95989,-0.83622 -2.34017,-0.74962 -2.34017,-0.74962 -2.89994,-0.49413 -2.89995,-0.49412 -4.44,0.12285 -4.44,0.12284 -2.34271,0.50868 -2.34271,0.50867 -2.21729,0.73097 -2.21729,0.73098 -2.88,1.42732 -2.88,1.42732 -2.16,1.54667 -2.16,1.54667 -2.04578,1.89657 -2.04578,1.89658 -1.34456,1.65298 -1.34455,1.65297 -1.11259,1.66904 -1.11259,1.66904 -1.20106,2.33818 -1.20103,2.33818 -0.94116,2.83278 -0.94114,2.83278 -0.87403,4.08 -0.87401,4.08 -1.51209,9.04859 -1.51212,9.04859 -0.45425,0.79141 -0.45425,0.79141 -1.04585,0.53039 -1.04584,0.53039 -13.42051,-0.002 -13.42051,-0.002 -0.12928,-0.3369 -0.12928,-0.33689 0.26984,-4.87185 0.26983,-4.87185 0.48113,-5.28 0.48114,-5.28 0.606,-4.08 0.60599,-4.08 0.70033,-3.37326 0.70032,-3.37325 0.94839,-3.34675 0.94839,-3.34674 0.85897,-2.46014 0.85897,-2.46014 1.33146,-3.05986 1.33145,-3.05986 1.22047,-2.28 1.22046,-2.28 1.66942,-2.64 1.66942,-2.64 2.34776,-3.12 2.34778,-3.12 2.4055,-2.66554 2.40549,-2.66555 2.13557,-1.91476 2.13554,-1.91475 1.87452,-1.48961 1.87452,-1.48962 2.67996,-1.76967 2.67999,-1.76967 2.51805,-1.33274 2.51808,-1.33274 2.51376,-1.05043 2.51376,-1.05043 2.64,-0.87298 2.64,-0.87299 3,-0.70548 3,-0.70548 2.43732,-0.38016 2.43735,-0.38016 3.38265,-0.22745 3.38268,-0.22745 3.42,0.22895 3.42,0.22895 2.28,0.38351 2.28,0.38351 2.64,0.68052 2.64,0.68051 3.48,1.12115 3.48,1.12116 3.72,1.44617 3.72,1.44617 3.38924,1.61642 3.38923,1.61642 2.37077,1.38567 2.37076,1.38567 2.28,1.56272 2.28,1.56272 2.4,1.97344 2.4,1.97344 2.41066,2.49028 2.41063,2.49028 1.76775,2.28 1.76776,2.28 2.13982,3.24 2.13982,3.24 2.24719,4.56 2.24721,4.56 1.10931,3.24 1.10928,3.24 0.69962,2.76 0.69963,2.76 0.46732,2.76 0.46733,2.76 0.29139,3.36 0.2914,3.36 -0.14985,4.92 -0.14988,4.92 -0.34469,2.64 -0.34469,2.64 -0.38789,2.28 -0.38788,2.28 -1.08987,4.44 -1.08986,4.44 -1.42901,4.28194 -1.42903,4.28194 -1.34177,3.03806 -1.34177,3.03806 -1.31913,2.31669 -1.31914,2.31668 -1.89818,2.55654 -1.89819,2.55654 -2.93263,3.01592 -2.93266,3.01593 -3.19221,2.76664 -3.19222,2.76663 0.22143,0.22143 0.22142,0.22143 4.30872,1.9786 4.3087,1.9786 1.66209,0.92128 1.66207,0.92128 2.15194,1.46291 2.15191,1.4629 2.25504,2.15416 2.25504,2.15415 1.85839,2.47511 1.85842,2.47512 1.44845,2.57073 1.44847,2.57073 0.89098,2.04 0.89097,2.04 0.72154,1.92 0.72153,1.92 1.05819,3.36 1.05818,3.36 0.82594,3.36 0.82596,3.36 0.47412,2.7624 0.47414,2.7624 0.42435,3.4776 0.42436,3.4776 -0.002,6.96 -0.002,6.96 -0.42136,3.6 -0.42135,3.6 -0.47045,2.75436 -0.47042,2.75436 -0.61135,2.76564 -0.61138,2.76564 -1.08777,3.84 -1.0878,3.84 -0.96483,2.64 -0.96485,2.64 -1.31923,3 -1.31923,3 -1.44924,2.64 -1.44926,2.64 -1.4334,2.16 -1.43343,2.16 -1.57999,2.04 -1.58002,2.04 -2.6489,2.72837 -2.64888,2.72835 -2.49696,2.00575 -2.49698,2.00575 -2.72177,1.82026 -2.72177,1.82025 -2.82127,1.68461 -2.82125,1.68461 -3.77549,1.87975 -3.77546,1.87975 -3.66454,1.44636 -3.66451,1.44639 -3.24,0.9756 -3.24,0.97557 -2.64,0.59021 -2.64,0.59021 -2.16,0.3762 -2.16,0.37622 -3.12,0.34049 -3.12,0.34049 -4.2,0.11309 -4.2,0.11308 -3.18806,-0.20841 z M 452.4,184.0589 l -1.56,-0.20023 -1.8,-0.39869 -1.8,-0.39869 -2.38418,-0.8295 -2.38419,-0.82949 -1.45581,-0.72747 -1.45582,-0.72748 -1.96346,-1.2979 -1.96344,-1.29791 -1.88501,-1.85577 -1.88501,-1.85577 -1.13402,-1.48501 -1.13405,-1.48501 -1.17372,-1.89244 -1.17372,-1.89244 -1.07172,-2.14255 -1.0717,-2.14255 -0.85627,-2.16 -0.85625,-2.16 -0.60093,-2.4 -0.60092,-2.4 -0.99175,-4.40295 -0.99177,-4.40296 0.12933,-0.33704 0.12934,-0.33705 6.06753,0.0175 6.06754,0.0175 1.30795,0.1856 1.30798,0.18561 0.88051,0.99221 0.88051,0.99221 2.72707,5.34466 2.72708,5.34467 1.38852,2.08319 1.38854,2.0832 1.10616,0.97368 1.10616,0.97368 1.22976,0.58136 1.22976,0.58136 1.5175,0.39287 1.51752,0.39287 2.32248,0.13235 2.3225,0.13235 2.4,-0.36828 2.4,-0.36829 2.04,-0.64006 2.04,-0.64005 2.0539,-1.0556 2.05387,-1.05559 1.54613,-1.28058 1.5461,-1.28058 1.36776,-1.90884 1.36776,-1.90883 1.0716,-2.03011 1.0716,-2.0301 0.73178,-2.09403 0.73179,-2.09403 0.39801,-2.10597 0.39804,-2.10597 0.006,-3.12 0.006,-3.12 -0.29445,-1.8 -0.29446,-1.8 -0.61586,-2.4 -0.61587,-2.4 -0.7859,-2.06952 -0.78593,-2.06953 -0.60038,-1.17047 -0.60039,-1.17048 -1.1591,-1.42306 -1.1591,-1.42306 -1.68,-1.27999 -1.68,-1.27998 -1.92768,-0.94284 -1.92766,-0.94284 -2.10943,-0.61129 -2.10941,-0.61129 -2.20291,-0.27095 -2.20291,-0.27096 -2.16,0.15014 -2.16,0.15013 -2.04,0.48582 -2.04,0.48582 -1.92,0.94903 -1.92,0.94904 -1.27995,1.05168 -1.27997,1.05169 -0.93938,1.17145 -0.93941,1.17146 -0.88478,1.05149 -0.88479,1.05149 -1.21586,0.56616 -1.21586,0.56617 -1.44,0.002 -1.44,0.002 -1.8,-0.34361 -1.8,-0.34361 -3.6,-0.28256 -3.6,-0.28256 -0.20768,-0.19346 -0.20767,-0.19346 2.43147,-19.64033 2.43148,-19.64033 1.43607,-12.12 1.43609,-12.12 0.45468,-3.81012 0.45468,-3.81011 0.32544,-0.20621 0.32544,-0.20621 28.692,-0.004 28.692,-0.004 0.288,0.288 0.288,0.288 v 9.744 9.744 l -0.288,0.288 -0.288,0.288 H 467.00273 444.2616 l -0.12451,0.78 -0.12454,0.78 -1.20749,12.6 -1.20748,12.6 v 0.9 0.9 h 0.0883 0.0884 l 3.69163,-1.7889 3.69166,-1.7889 2.88,-0.95197 2.88,-0.95197 2.26228,-0.37913 2.26229,-0.37913 h 2.91543 2.91542 l 2.25595,0.38752 2.25598,0.38752 1.80631,0.58408 1.80634,0.58408 2.16482,1.04691 2.16482,1.04691 1.89471,1.35938 1.89468,1.35937 1.43184,1.24212 1.43181,1.24211 1.9088,2.28 1.90881,2.28 1.3416,2.16 1.34158,2.16 1.06985,2.28 1.06982,2.28 1.02643,3.12 1.02641,3.12 0.60874,3 0.60873,3 0.31327,2.52 0.31328,2.52 -0.017,5.28 -0.017,5.28 -0.41451,2.88 -0.4145,2.88 -0.60247,2.70913 -0.60248,2.70913 -0.83244,2.51406 -0.83241,2.51407 -0.86415,1.9768 -0.86416,1.97681 -0.6056,1.08 -0.60561,1.08 -0.73373,1.2 -0.73373,1.2 -1.35588,1.8 -1.3559,1.8 -2.26217,2.16 -2.26219,2.16 -2.15191,1.46972 -2.15194,1.46972 -2.4,1.19979 -2.4,1.19978 -1.74048,0.62551 -1.74046,0.6255 -1.92638,0.49185 -1.92636,0.49184 -2.45316,0.34875 -2.45316,0.34874 -3.12,-0.026 -3.12,-0.026 -1.56,-0.20023 z M 392.64,75.78722 391.08,75.24 389.88,74.54295 388.68,73.8459 386.87995,72.02295 385.07988,70.2 384.32285,68.76 383.56579,67.32 383.1829,66.01644 382.8,64.71288 v -1.82602 -1.82601 l 0.36749,-1.41088 0.36749,-1.41087 0.77251,-1.45955 0.77251,-1.45955 1.56,-1.56246 1.56,-1.56245 1.70474,-0.89211 1.70475,-0.8921 1.53525,-0.36189 1.53526,-0.3619 h 1.32 1.32 l 1.50247,0.35425 1.50245,0.35424 1.49755,0.75424 1.49753,0.75424 1.56,1.59034 1.56,1.59034 0.76574,1.58335 0.76575,1.58336 0.40488,1.99809 0.40485,1.99808 -0.14131,1.51331 -0.14131,1.5133 -0.60422,1.73747 -0.60425,1.73747 -1.11682,1.63451 -1.11681,1.63452 -1.34825,1.20508 -1.34825,1.20509 -1.77307,0.87866 -1.77307,0.87866 -2.30693,0.0744 -2.30693,0.0744 z"
   id="path35882" />
</svg>
