<?xml version="1.0" encoding="UTF-8" standalone="no"?>
<!-- Generator: Adobe Illustrator 16.0.3, SVG Export Plug-In . SVG Version: 6.00 Build 0)  -->

<svg
   version="1.1"
   id="Ebene_1"
   x="0px"
   y="0px"
   width="657.35834"
   height="569.28906"
   viewBox="0 0 657.35834 569.28906"
   enable-background="new 0 0 800 800"
   xml:space="preserve"
   sodipodi:docname="ankuendigungstafel-85-sign.svg"
   inkscape:version="1.2.2 (732a01da63, 2022-12-09)"
   xmlns:inkscape="http://www.inkscape.org/namespaces/inkscape"
   xmlns:sodipodi="http://sodipodi.sourceforge.net/DTD/sodipodi-0.dtd"
   xmlns="http://www.w3.org/2000/svg"
   xmlns:svg="http://www.w3.org/2000/svg"><defs
   id="defs35772"><rect
     x="181.60046"
     y="84.444214"
     width="268.76868"
     height="178.87645"
     id="rect6606" /><rect
     x="205.20853"
     y="88.076225"
     width="192.49648"
     height="157.0844"
     id="rect5720" /><rect
     x="189.77248"
     y="81.720207"
     width="301.45676"
     height="200.6685"
     id="rect1690" /><rect
     x="181.60046"
     y="84.444214"
     width="268.76868"
     height="178.87645"
     id="rect6606-2" /></defs><sodipodi:namedview
   id="namedview35770"
   pagecolor="#ffffff"
   bordercolor="#000000"
   borderopacity="0.25"
   inkscape:showpageshadow="2"
   inkscape:pageopacity="0.0"
   inkscape:pagecheckerboard="0"
   inkscape:deskcolor="#d1d1d1"
   showgrid="false"
   inkscape:zoom="1.1013188"
   inkscape:cx="471.25319"
   inkscape:cy="301.45676"
   inkscape:window-width="2560"
   inkscape:window-height="1494"
   inkscape:window-x="-11"
   inkscape:window-y="-11"
   inkscape:window-maximized="1"
   inkscape:current-layer="Ebene_1" />

<path
   sodipodi:type="star"
   style="fill:#ffffff;fill-opacity:1;stroke:#ff0101;stroke-width:35.2378;stroke-dasharray:none;stroke-opacity:1"
   id="path1634"
   inkscape:flatsided="false"
   sodipodi:sides="3"
   sodipodi:cx="233.06581"
   sodipodi:cy="120.06421"
   sodipodi:r1="318.60724"
   sodipodi:r2="159.30363"
   sodipodi:arg1="1.5707963"
   sodipodi:arg2="2.6179939"
   inkscape:rounded="0"
   inkscape:randomized="0"
   d="M 233.06582,438.67145 95.104815,199.71602 -42.856156,-39.239403 l 275.921966,-2.3e-5 275.92196,8e-6 L 371.0268,199.71603 Z"
   inkscape:transform-center-y="85.432711"
   transform="matrix(1.0725769,0,0,1.0725769,78.698167,60.984927)"
   inkscape:transform-center-x="-4.3759982e-05" /><text
   xml:space="preserve"
   id="text5718"
   style="font-size:192px;white-space:pre;shape-inside:url(#rect5720);fill:#3f1552;fill-opacity:1;stroke:none;stroke-width:37.7953;stroke-dasharray:none;stroke-opacity:1"
   transform="translate(-474.25034,-94.526048)"><tspan
     x="205.20898"
     y="420.32758"
     id="tspan25495"><tspan
       style="font-family:Arial;-inkscape-font-specification:Arial;fill:#ff0000"
       id="tspan25493">7</tspan></tspan></text><g
   aria-label="8"
   transform="matrix(2.4271348,0,0,2.5584305,-250.05739,-215.89177)"
   id="text6604"
   style="font-size:133.333px;font-family:Arial;-inkscape-font-specification:Arial;white-space:pre;shape-inside:url(#rect6606);fill:#ff0000;stroke-width:37.7953"><path
     d="m 205.16726,152.78596 q -7.29165,-2.66926 -10.80727,-7.61717 -3.51561,-4.9479 -3.51561,-11.84892 0,-10.41664 7.48696,-17.51298 7.48696,-7.09634 19.92182,-7.09634 12.49997,0 20.11714,7.29165 7.61717,7.22655 7.61717,17.64319 0,6.6406 -3.51562,11.58851 -3.45051,4.8828 -10.54685,7.55206 8.78904,2.86458 13.34632,9.24477 4.62239,6.38019 4.62239,15.23434 0,12.23955 -8.65884,20.57286 -8.65883,8.33331 -22.7864,8.33331 -14.12756,0 -22.7864,-8.33331 -8.65883,-8.39842 -8.65883,-20.89838 0,-9.30988 4.68749,-15.55986 4.75259,-6.31509 13.47653,-8.59373 z m -2.34375,-19.85672 q 0,6.77082 4.36197,11.06768 4.36197,4.29687 11.3281,4.29687 6.77081,0 11.06768,-4.23176 4.36197,-4.29687 4.36197,-10.48175 0,-6.44529 -4.49218,-10.80726 -4.42707,-4.42707 -11.06768,-4.42707 -6.70571,0 -11.13278,4.29686 -4.42708,4.29686 -4.42708,10.28643 z m -3.77603,44.07541 q 0,5.01301 2.34375,9.7005 2.40884,4.68748 7.09633,7.29164 4.68749,2.53906 10.09112,2.53906 8.39842,0 13.86715,-5.40363 5.46874,-5.40363 5.46874,-13.73695 0,-8.46352 -5.66405,-13.99736 -5.59894,-5.53384 -14.06246,-5.53384 -8.26821,0 -13.73695,5.46874 -5.40363,5.46874 -5.40363,13.67184 z"
     id="path25108" /></g><g
   aria-label="5"
   transform="matrix(2.0907328,0,0,2.0907328,30.95773,-147.65958)"
   id="text6604-9"
   style="font-size:86.7032px;font-family:Arial;-inkscape-font-specification:Arial;white-space:pre;shape-inside:url(#rect6606-2);fill:#ff0000;stroke-width:37.7953"><path
     d="m 185.19813,146.2848 8.00142,-0.67737 q 0.88905,5.84231 4.10655,8.8058 3.25983,2.92115 7.83207,2.92115 5.50362,0 9.31382,-4.14888 3.8102,-4.14889 3.8102,-11.00725 0,-6.51967 -3.68319,-10.28754 -3.64086,-3.76786 -9.56783,-3.76786 -3.6832,0 -6.64668,1.69342 -2.96349,1.65109 -4.65691,4.31823 l -7.15471,-0.93138 6.01165,-31.87867 h 30.86261 v 7.28171 h -24.76629 l -3.34451,16.68021 q 5.58829,-3.89487 11.72694,-3.89487 8.12843,0 13.71672,5.63063 5.58829,5.63062 5.58829,14.47875 0,8.42478 -4.91092,14.56343 -5.96931,7.53573 -16.29919,7.53573 -8.46711,0 -13.84372,-4.74158 -5.33428,-4.74158 -6.09632,-12.57366 z"
     id="path25112" /></g><path
   id="path6693"
   style="fill:#ff0000;stroke-width:37.7953"
   d="M 396.09561,74.618591 A 12.841091,12.841091 0 0 1 383.25452,87.459682 12.841091,12.841091 0 0 1 370.41343,74.618591 12.841091,12.841091 0 0 1 383.25452,61.7775 12.841091,12.841091 0 0 1 396.09561,74.618591 Z" /></svg>
