<?xml version="1.0" encoding="UTF-8" standalone="no"?>
<!-- Generator: Adobe Illustrator 16.0.3, SVG Export Plug-In . SVG Version: 6.00 Build 0)  -->

<svg
   version="1.1"
   id="Ebene_1"
   x="0px"
   y="0px"
   width="657.35834"
   height="569.28906"
   viewBox="0 0 657.35834 569.28906"
   enable-background="new 0 0 800 800"
   xml:space="preserve"
   sodipodi:docname="ankuendigungstafel-25-sign.svg"
   inkscape:version="1.2.2 (732a01da63, 2022-12-09)"
   xmlns:inkscape="http://www.inkscape.org/namespaces/inkscape"
   xmlns:sodipodi="http://sodipodi.sourceforge.net/DTD/sodipodi-0.dtd"
   xmlns="http://www.w3.org/2000/svg"
   xmlns:svg="http://www.w3.org/2000/svg"><defs
   id="defs35772"><rect
     x="181.60046"
     y="84.444214"
     width="268.76868"
     height="178.87645"
     id="rect6606" /><rect
     x="205.20853"
     y="88.076225"
     width="192.49648"
     height="157.0844"
     id="rect5720" /><rect
     x="189.77248"
     y="81.720207"
     width="301.45676"
     height="200.6685"
     id="rect1690" /><rect
     x="181.60046"
     y="84.444214"
     width="268.76868"
     height="178.87645"
     id="rect6606-2" /></defs><sodipodi:namedview
   id="namedview35770"
   pagecolor="#ffffff"
   bordercolor="#000000"
   borderopacity="0.25"
   inkscape:showpageshadow="2"
   inkscape:pageopacity="0.0"
   inkscape:pagecheckerboard="0"
   inkscape:deskcolor="#d1d1d1"
   showgrid="false"
   inkscape:zoom="1.1013188"
   inkscape:cx="471.25319"
   inkscape:cy="301.45676"
   inkscape:window-width="2560"
   inkscape:window-height="1494"
   inkscape:window-x="-11"
   inkscape:window-y="-11"
   inkscape:window-maximized="1"
   inkscape:current-layer="Ebene_1" />

<path
   sodipodi:type="star"
   style="fill:#ffffff;fill-opacity:1;stroke:#ff0101;stroke-width:35.2378;stroke-dasharray:none;stroke-opacity:1"
   id="path1634"
   inkscape:flatsided="false"
   sodipodi:sides="3"
   sodipodi:cx="233.06581"
   sodipodi:cy="120.06421"
   sodipodi:r1="318.60724"
   sodipodi:r2="159.30363"
   sodipodi:arg1="1.5707963"
   sodipodi:arg2="2.6179939"
   inkscape:rounded="0"
   inkscape:randomized="0"
   d="M 233.06582,438.67145 95.104815,199.71602 -42.856156,-39.239403 l 275.921966,-2.3e-5 275.92196,8e-6 L 371.0268,199.71603 Z"
   inkscape:transform-center-y="85.432711"
   transform="matrix(1.0725769,0,0,1.0725769,78.698167,60.984927)"
   inkscape:transform-center-x="-4.3759982e-05" /><text
   xml:space="preserve"
   id="text5718"
   style="font-size:192px;white-space:pre;shape-inside:url(#rect5720);fill:#3f1552;fill-opacity:1;stroke:none;stroke-width:37.7953;stroke-dasharray:none;stroke-opacity:1"
   transform="translate(-474.25034,-94.526048)"><tspan
     x="205.20898"
     y="420.32758"
     id="tspan22539"><tspan
       style="font-family:Arial;-inkscape-font-specification:Arial;fill:#ff0000"
       id="tspan22537">7</tspan></tspan></text><g
   aria-label="2"
   transform="matrix(2.2114086,0,0,2.3310346,-198.50957,-195.71144)"
   id="text6604"
   style="font-size:133.333px;font-family:Arial;-inkscape-font-specification:Arial;white-space:pre;shape-inside:url(#rect6606);fill:#ff0000;stroke-width:37.7953"><path
     d="m 248.72183,193.28065 v 11.26299 h -63.08577 q -0.13021,-4.23176 1.36718,-8.138 2.40885,-6.44529 7.68227,-12.69528 5.33853,-6.24998 15.36455,-14.45309 15.55985,-12.76038 21.02859,-20.18224 5.46874,-7.48696 5.46874,-14.12756 0,-6.96613 -5.01301,-11.71872 -4.94791,-4.8177 -12.9557,-4.8177 -8.46352,0 -13.54163,5.07811 -5.07811,5.07811 -5.14322,14.06247 l -12.04424,-1.23698 q 1.23698,-13.47653 9.30988,-20.50776 8.07289,-7.09634 21.67963,-7.09634 13.73694,0 21.74473,7.61717 8.0078,7.61717 8.0078,18.88016 0,5.72915 -2.34375,11.26299 -2.34374,5.53384 -7.81248,11.65362 -5.40363,6.11978 -18.03381,16.79683 -10.54684,8.85415 -13.54163,12.04424 -2.99478,3.12499 -4.9479,6.31509 z"
     id="path22152" /></g><g
   aria-label="5"
   transform="matrix(2.0907328,0,0,2.0907328,30.95773,-147.65958)"
   id="text6604-9"
   style="font-size:86.7032px;font-family:Arial;-inkscape-font-specification:Arial;white-space:pre;shape-inside:url(#rect6606-2);fill:#ff0000;stroke-width:37.7953"><path
     d="m 185.19813,146.2848 8.00142,-0.67737 q 0.88905,5.84231 4.10655,8.8058 3.25983,2.92115 7.83207,2.92115 5.50362,0 9.31382,-4.14888 3.8102,-4.14889 3.8102,-11.00725 0,-6.51967 -3.68319,-10.28754 -3.64086,-3.76786 -9.56783,-3.76786 -3.6832,0 -6.64668,1.69342 -2.96349,1.65109 -4.65691,4.31823 l -7.15471,-0.93138 6.01165,-31.87867 h 30.86261 v 7.28171 h -24.76629 l -3.34451,16.68021 q 5.58829,-3.89487 11.72694,-3.89487 8.12843,0 13.71672,5.63063 5.58829,5.63062 5.58829,14.47875 0,8.42478 -4.91092,14.56343 -5.96931,7.53573 -16.29919,7.53573 -8.46711,0 -13.84372,-4.74158 -5.33428,-4.74158 -6.09632,-12.57366 z"
     id="path22156" /></g><path
   id="path6693"
   style="fill:#ff0000;stroke-width:37.7953"
   d="m 400.63562,71.894585 a 12.841091,12.841091 0 0 1 -12.84109,12.841091 12.841091,12.841091 0 0 1 -12.8411,-12.841091 12.841091,12.841091 0 0 1 12.8411,-12.841092 12.841091,12.841091 0 0 1 12.84109,12.841092 z" /></svg>
