<?xml version="1.0" encoding="UTF-8" standalone="no"?>
<svg
   xmlns:dc="http://purl.org/dc/elements/1.1/"
   xmlns:cc="http://creativecommons.org/ns#"
   xmlns:rdf="http://www.w3.org/1999/02/22-rdf-syntax-ns#"
   xmlns:svg="http://www.w3.org/2000/svg"
   xmlns="http://www.w3.org/2000/svg"
   version="1.1"
   id="svg3894"
   height="195.97978"
   width="226.80804">
  <defs
     id="defs3896" />
  <metadata
     id="metadata3899">
    <rdf:RDF>
      <cc:Work
         rdf:about="">
        <dc:format>image/svg+xml</dc:format>
        <dc:type
           rdf:resource="http://purl.org/dc/dcmitype/StillImage" />
        <dc:title></dc:title>
      </cc:Work>
    </rdf:RDF>
  </metadata>
  <path
     style="fill:#ffffff;stroke:#ff0000;stroke-width:12;stroke-linecap:butt;stroke-linejoin:miter;stroke-miterlimit:4;stroke-dasharray:none;stroke-opacity:1;fill-opacity:1"
     d="M 10.404021,6 113.40402,184.00001 216.40402,6 Z"
     id="path3925" />
  <g
     style="font-style:normal;font-variant:normal;font-weight:normal;font-stretch:normal;font-size:144px;line-height:125%;font-family:'Swis721 BT';-inkscape-font-specification:'Swis721 BT';text-align:start;writing-mode:lr-tb;text-anchor:start;fill:#ff0000;fill-opacity:1;stroke:none"
     id="text4437"
     transform="translate(27.528202,-878.73469)">
    <path
       d="m 56.298393,896.71783 12.011719,0 0,84.02344 -12.011719,0 0,-72.01172 -11.953125,12.01172 0,-12.01172 11.953125,-12.01172"
       style="font-weight:bold;font-size:120px;font-family:OSP-DIN;-inkscape-font-specification:'OSP-DIN Bold'"
       id="path3086" />
    <path
       d="m 91.396049,902.04987 c 3.515613,-3.55461 7.75389,-5.33195 12.714841,-5.33204 4.96091,9e-5 9.19919,1.77743 12.71485,5.33204 3.51558,3.5157 5.27339,7.75397 5.27343,12.71484 l 0,11.95312 c -4e-5,4.57037 -1.52347,8.57427 -4.57031,12.01172 3.04684,3.43754 4.57027,7.44144 4.57031,12.01172 l 0,12.01172 c -4e-5,4.96095 -1.75785,9.19923 -5.27343,12.71484 -3.51566,3.51563 -7.75394,5.27344 -12.71485,5.27344 -4.960951,0 -9.199228,-1.75781 -12.714841,-5.27344 -3.51563,-3.51561 -5.273441,-7.75389 -5.273437,-12.71484 l 0,-6.03516 11.953125,0 0,6.03516 c -1.6e-5,1.6797 0.585921,3.10548 1.757812,4.27734 1.171861,1.13283 2.597641,1.69924 4.277341,1.69922 1.67967,2e-5 3.08592,-0.56639 4.21875,-1.69922 1.17185,-1.17186 1.75779,-2.59764 1.75782,-4.27734 l 0,-12.01172 c -3e-5,-1.67965 -0.58597,-3.0859 -1.75782,-4.21875 -1.13283,-1.17184 -2.53908,-1.75777 -4.21875,-1.75781 l 0,-12.01172 c 1.67967,5e-5 3.08592,-0.58589 4.21875,-1.75781 1.17185,-1.17183 1.75779,-2.59761 1.75782,-4.27735 l 0,-11.95312 c -3e-5,-1.67962 -0.58597,-3.1054 -1.75782,-4.27734 -1.13283,-1.17181 -2.53908,-1.75774 -4.21875,-1.75782 -1.6797,8e-5 -3.10548,0.58601 -4.277341,1.75782 -1.171891,1.17194 -1.757828,2.59772 -1.757812,4.27734 l 0,5.97656 -11.953125,0 0,-5.97656 c -4e-6,-4.96087 1.757807,-9.19914 5.273437,-12.71484"
       style="font-weight:bold;font-size:120px;font-family:OSP-DIN;-inkscape-font-specification:'OSP-DIN Bold'"
       id="path3088" />
  </g>
</svg>
