<?xml version="1.0" encoding="UTF-8" standalone="no"?>
<!-- Generator: Adobe Illustrator 16.0.3, SVG Export Plug-In . SVG Version: 6.00 Build 0)  -->

<svg
   version="1.1"
   id="Ebene_1"
   x="0px"
   y="0px"
   width="666.96002"
   height="575.52002"
   viewBox="0 0 666.96002 575.52002"
   enable-background="new 0 0 800 800"
   xml:space="preserve"
   sodipodi:docname="ankuendigungstafel-75-sign.svg"
   inkscape:version="1.2.2 (732a01da63, 2022-12-09)"
   xmlns:inkscape="http://www.inkscape.org/namespaces/inkscape"
   xmlns:sodipodi="http://sodipodi.sourceforge.net/DTD/sodipodi-0.dtd"
   xmlns="http://www.w3.org/2000/svg"
   xmlns:svg="http://www.w3.org/2000/svg"><defs
   id="defs35772" /><sodipodi:namedview
   id="namedview35770"
   pagecolor="#ffffff"
   bordercolor="#000000"
   borderopacity="0.25"
   inkscape:showpageshadow="2"
   inkscape:pageopacity="0.0"
   inkscape:pagecheckerboard="0"
   inkscape:deskcolor="#d1d1d1"
   showgrid="false"
   inkscape:zoom="1.5575"
   inkscape:cx="334.18941"
   inkscape:cy="236.27608"
   inkscape:window-width="2560"
   inkscape:window-height="1494"
   inkscape:window-x="-11"
   inkscape:window-y="-11"
   inkscape:window-maximized="1"
   inkscape:current-layer="Ebene_1" />
<path
   style="fill:#fd0101;stroke-width:0.24"
   d="m 332.8705,574.14002 -0.77534,-1.38 L 166.04758,286.51023 0,0.26045 V 0.13022 0 h 333.48001 333.48001 v 0.13259 0.13259 l -69.74281,120.52741 -69.7428,120.52742 -0.78809,1.32 -0.78806,1.32 -91.67314,158.4 -91.67314,158.40001 -0.96105,1.68 -0.96106,1.68 -3.30674,5.7 -3.30675,5.7 h -0.18528 -0.18528 z M 467.1831,266.0391 600.24409,34.45223 600.16209,34.20612 600.07999,33.96 H 333.82002 67.559997 l 0.0275,0.38486 0.0275,0.38486 59.762663,104.01514 59.76266,104.01515 4.30669,7.56 4.30668,7.56 9.5584,16.68 9.55839,16.68 10.61322,18.36 10.61323,18.36 33.23372,57.84 33.23371,57.84001 15.55241,27.06849 15.55238,27.06848 0.22649,-0.0755 0.22651,-0.0755 z m -210.40316,51.90091 -0.0199,-0.3 0.0275,-2.76 0.0275,-2.76 0.23527,-4.08 0.23529,-4.08 0.36284,-4.32 0.36283,-4.32 0.4793,-4.32 0.47933,-4.32 0.72355,-5.28 0.72353,-5.28 0.95609,-5.76 0.95606,-5.76 0.97147,-5.16 0.9715,-5.16 1.44192,-6.72 1.44192,-6.72 1.42483,-6 1.42481,-6 1.33563,-5.04 1.33564,-5.04 1.19703,-4.2 1.19702,-4.2 1.65598,-5.4 1.65595,-5.4 2.38632,-7.08 2.38634,-7.08 1.91698,-5.16 1.91698,-5.16 1.79872,-4.56 1.79873,-4.56 2.28072,-5.4 2.2807,-5.4 2.71661,-6 2.71658,-6.00001 4.23658,-8.52 4.23655,-8.52 2.34312,-4.32 2.34309,-4.32 2.40838,-4.2 2.40838,-4.2 2.41519,-3.9564 2.41519,-3.9564 3.55282,-5.363 3.55279,-5.36299 0.94701,-1.28193 0.94702,-1.28193 0.0662,-0.31867 0.0661,-0.31868 -53.16,-0.12 -53.16001,-0.12 -0.0662,-15.12 -0.0663,-15.12 0.13082,-0.54 0.13083,-0.54 h 70.40976 70.40974 l 0.14568,0.37963 0.14568,0.37963 v 12.11615 12.11615 l -0.26477,0.49471 -0.26477,0.49472 -2.69978,3.6295 -2.69979,3.62951 -2.40218,3.48 -2.40218,3.48 -2.6892,4.16089 -2.68918,4.16089 -2.83229,4.71911 -2.83229,4.71911 -2.95202,5.28 -2.95202,5.28 -4.35653,8.64 -4.35656,8.64 -2.47279,5.40001 -2.47279,5.4 -2.8278,6.6 -2.82778,6.6 -2.15539,5.4 -2.15537,5.4 -2.1659,5.76 -2.1659,5.76 -2.27357,6.48 -2.27357,6.48 -1.57363,4.92 -1.57363,4.92 -1.32173,4.36135 -1.32173,4.36135 -1.56034,5.59865 -1.56036,5.59865 -1.67851,6.72 -1.67853,6.72 -1.32202,6 -1.32204,6 -1.07909,5.64 -1.07906,5.64 -0.84149,5.04 -0.84149,5.04 -0.71882,5.04 -0.71883,5.04 -0.60688,5.16 -0.60692,5.16 -0.36729,3.72348 -0.36732,3.72348 -0.46253,6.29453 -0.46255,6.2945 -0.14955,0.24202 -0.14956,0.24199 H 270.34585 256.8 l -0.0202,-0.3 z m 195.62007,-133.8811 -1.56,-0.20024 -1.8,-0.39869 -1.8,-0.39869 -2.38418,-0.82949 -2.38419,-0.8295 -1.45581,-0.72747 -1.45582,-0.72747 -1.96346,-1.29791 -1.96344,-1.29791 -1.88501,-1.85577 -1.88501,-1.85576 -1.13402,-1.48502 -1.13405,-1.48501 -1.17372,-1.89244 -1.17372,-1.89244 -1.07172,-2.14254 -1.0717,-2.14255 -0.85627,-2.16 -0.85625,-2.16 -0.60093,-2.4 -0.60092,-2.4 -0.99175,-4.40296 -0.99177,-4.40295 0.12933,-0.33705 0.12934,-0.33704 6.06753,0.0175 6.06754,0.0175 1.30795,0.1856 1.30798,0.1856 0.88051,0.99222 0.88051,0.99221 2.72707,5.34466 2.72708,5.34466 1.38852,2.0832 1.38854,2.08319 1.10616,0.97369 1.10616,0.97368 1.22976,0.58136 1.22976,0.58136 1.5175,0.39287 1.51752,0.39287 2.32248,0.13235 2.3225,0.13235 2.4,-0.36829 2.4,-0.36829 2.04,-0.64005 2.04,-0.64006 2.0539,-1.05559 2.05387,-1.0556 1.54613,-1.28057 1.5461,-1.28058 1.36776,-1.90884 1.36776,-1.90884 1.0716,-2.0301 1.0716,-2.03011 0.73179,-2.09403 0.73178,-2.09402 0.39802,-2.10598 0.39804,-2.10597 0.006,-3.12 0.006,-3.12 -0.29446,-1.8 -0.29446,-1.8 -0.61586,-2.4 -0.61586,-2.4 -0.78591,-2.06952 -0.78593,-2.06952 -0.60038,-1.17048 -0.60038,-1.17048 -1.15911,-1.42306 -1.1591,-1.42306 -1.68,-1.27998 -1.68,-1.27999 -1.92768,-0.94284 -1.92766,-0.94284 -2.10943,-0.61129 -2.10941,-0.61128 -2.20291,-0.27096 -2.20291,-0.27095 -2.16,0.15013 -2.16,0.15013 -2.04,0.48582 -2.04,0.48582 -1.92,0.94904 -1.92,0.94903 -1.27995,1.05169 -1.27997,1.05169 -0.93938,1.17145 -0.93941,1.17145 -0.88478,1.05149 -0.88479,1.05149 -1.21586,0.56617 -1.21586,0.56616 -1.44,0.002 -1.44,0.002 -1.8,-0.34361 -1.8,-0.34361 -3.6,-0.28256 -3.6,-0.28256 -0.20768,-0.19346 -0.20767,-0.19346 2.43147,-19.64033 2.43148,-19.64033 1.43607,-12.12 1.43609,-12.12 0.45468,-3.81011 0.45468,-3.81012 0.32544,-0.20621 0.32544,-0.20621 28.692,-0.004 28.692,-0.004 0.288,0.288 0.288,0.288 v 9.744 9.744 l -0.288,0.288 -0.288,0.288 h -22.74113 -22.74113 l -0.12451,0.78 -0.12454,0.78 -1.20749,12.6 -1.20748,12.6 v 0.9 0.9 h 0.0883 0.0884 l 3.69163,-1.7889 3.69166,-1.7889 2.88,-0.95196 2.88,-0.95198 2.26228,-0.37913 2.26229,-0.37913 h 2.91543 2.91542 l 2.25595,0.38752 2.25598,0.38752 1.80631,0.58408 1.80634,0.58408 2.16482,1.04691 2.16483,1.04691 1.8947,1.35938 1.89468,1.35938 1.43184,1.24211 1.43182,1.24211 1.90879,2.28 1.90881,2.28 1.3416,2.16 1.34158,2.16 1.06985,2.28 1.06982,2.28 1.02643,3.12 1.02641,3.12 0.60874,3 0.60873,3 0.31328,2.52 0.31327,2.52 -0.017,5.28 -0.017,5.28 -0.41451,2.88 -0.4145,2.88 -0.60247,2.70913 -0.60247,2.70914 -0.83244,2.51406 -0.83242,2.51406 -0.86414,1.97681 -0.86417,1.9768 -0.60559,1.08 -0.60562,1.08 -0.73373,1.2 -0.73373,1.2 -1.35588,1.8 -1.3559,1.8 -2.26217,2.16 -2.26219,2.16 -2.15191,1.46972 -2.15194,1.46972 -2.4,1.19979 -2.4,1.19979 -1.74048,0.6255 -1.74045,0.6255 -1.92639,0.49185 -1.92636,0.49185 -2.45316,0.34874 -2.45316,0.34875 -3.12,-0.026 -3.12,-0.026 -1.56,-0.20024 z m -59.76,-108.27168 -1.56,-0.54723 -1.2,-0.69705 -1.2,-0.69705 -1.80005,-1.82295 -1.80007,-1.82295 -0.75703,-1.44 -0.75706,-1.44 -0.3829,-1.30356 -0.38289,-1.30356 v -1.82601 -1.82602 l 0.36749,-1.41088 0.36748,-1.41087 0.77252,-1.45955 0.77251,-1.45955 1.56,-1.56245 1.56,-1.56246 1.70474,-0.89211 1.70475,-0.8921 1.53525,-0.36189 1.53526,-0.36189 h 1.32 1.32 l 1.50247,0.35424 1.50245,0.35424 1.49755,0.75424 1.49753,0.75424 1.56,1.59034 1.56,1.59035 0.76574,1.58335 0.76575,1.58335 0.40488,1.99809 0.40485,1.99809 -0.14131,1.5133 -0.14131,1.5133 -0.60422,1.73747 -0.60425,1.73747 -1.11682,1.63451 -1.11681,1.63452 -1.34825,1.20508 -1.34825,1.20509 -1.77307,0.87866 -1.77308,0.87866 -2.30692,0.0744 -2.30693,0.0744 z"
   id="path35774" />
</svg>
