<?xml version="1.0" encoding="UTF-8" standalone="no"?>
<!-- Generator: Adobe Illustrator 16.0.3, SVG Export Plug-In . SVG Version: 6.00 Build 0)  -->

<svg
   version="1.1"
   id="Ebene_1"
   x="0px"
   y="0px"
   width="666.96002"
   height="575.52002"
   viewBox="0 0 666.96002 575.52002"
   enable-background="new 0 0 800 800"
   xml:space="preserve"
   sodipodi:docname="ankuendigungstafel-75-sign.svg"
   inkscape:version="1.2.2 (732a01da63, 2022-12-09)"
   xmlns:inkscape="http://www.inkscape.org/namespaces/inkscape"
   xmlns:sodipodi="http://sodipodi.sourceforge.net/DTD/sodipodi-0.dtd"
   xmlns="http://www.w3.org/2000/svg"
   xmlns:svg="http://www.w3.org/2000/svg"><defs
   id="defs35772" /><sodipodi:namedview
   id="namedview35770"
   pagecolor="#ffffff"
   bordercolor="#000000"
   borderopacity="0.25"
   inkscape:showpageshadow="2"
   inkscape:pageopacity="0.0"
   inkscape:pagecheckerboard="0"
   inkscape:deskcolor="#d1d1d1"
   showgrid="false"
   inkscape:zoom="1.5575"
   inkscape:cx="335.47352"
   inkscape:cy="236.59711"
   inkscape:window-width="2560"
   inkscape:window-height="1494"
   inkscape:window-x="-11"
   inkscape:window-y="-11"
   inkscape:window-maximized="1"
   inkscape:current-layer="Ebene_1" />
<path
   style="fill:#fd0101;stroke-width:0.24"
   d="m 332.8705,574.14002 -0.77534,-1.38 L 166.04758,286.51023 0,0.26045 V 0.13022 0 h 333.48001 333.48001 v 0.13259 0.13259 l -69.74281,120.52741 -69.7428,120.52742 -0.78809,1.32 -0.78806,1.32 -91.67314,158.4 -91.67314,158.40001 -0.96105,1.68 -0.96106,1.68 -3.30674,5.7 -3.30675,5.7 h -0.18528 -0.18528 z M 467.1831,266.0391 600.24409,34.45223 600.16209,34.20612 600.07999,33.96 H 333.82002 67.559997 l 0.0275,0.38486 0.0275,0.38486 59.762663,104.01514 59.76266,104.01515 4.30669,7.56 4.30668,7.56 9.5584,16.68 9.55839,16.68 10.61322,18.36 10.61323,18.36 33.23372,57.84 33.23371,57.84001 15.55241,27.06849 15.55238,27.06848 0.22649,-0.0755 0.22651,-0.0755 z m -210.40316,51.90091 -0.0199,-0.3 0.0275,-2.76 0.0275,-2.76 0.23527,-4.08 0.23529,-4.08 0.36284,-4.32 0.36283,-4.32 0.4793,-4.32 0.47933,-4.32 0.72355,-5.28 0.72353,-5.28 0.95609,-5.76 0.95606,-5.76 0.97147,-5.16 0.9715,-5.16 1.44192,-6.72 1.44192,-6.72 1.42483,-6 1.42481,-6 1.33563,-5.04 1.33564,-5.04 1.19703,-4.2 1.19702,-4.2 1.65598,-5.4 1.65595,-5.4 2.38632,-7.08 2.38634,-7.08 1.91698,-5.16 1.91698,-5.16 1.79872,-4.56 1.79873,-4.56 2.28072,-5.4 2.2807,-5.4 2.71661,-6 2.71658,-6.00001 4.23658,-8.52 4.23655,-8.52 2.34312,-4.32 2.34309,-4.32 2.40838,-4.2 2.40838,-4.2 2.41519,-3.9564 2.41519,-3.9564 3.55282,-5.363 3.55279,-5.36299 0.94701,-1.28193 0.94702,-1.28193 0.0662,-0.31867 0.0661,-0.31868 -53.16,-0.12 -53.16001,-0.12 -0.0662,-15.12 -0.0663,-15.12 0.13082,-0.54 0.13083,-0.54 h 70.40976 70.40974 l 0.14568,0.37963 0.14568,0.37963 v 12.11615 12.11615 l -0.26477,0.49471 -0.26477,0.49472 -2.69978,3.6295 -2.69979,3.62951 -2.40218,3.48 -2.40218,3.48 -2.6892,4.16089 -2.68918,4.16089 -2.83229,4.71911 -2.83229,4.71911 -2.95202,5.28 -2.95202,5.28 -4.35653,8.64 -4.35656,8.64 -2.47279,5.40001 -2.47279,5.4 -2.8278,6.6 -2.82778,6.6 -2.15539,5.4 -2.15537,5.4 -2.1659,5.76 -2.1659,5.76 -2.27357,6.48 -2.27357,6.48 -1.57363,4.92 -1.57363,4.92 -1.32173,4.36135 -1.32173,4.36135 -1.56034,5.59865 -1.56036,5.59865 -1.67851,6.72 -1.67853,6.72 -1.32202,6 -1.32204,6 -1.07909,5.64 -1.07906,5.64 -0.84149,5.04 -0.84149,5.04 -0.71882,5.04 -0.71883,5.04 -0.60688,5.16 -0.60692,5.16 -0.36729,3.72348 -0.36732,3.72348 -0.46253,6.29453 -0.46255,6.2945 -0.14955,0.24202 -0.14956,0.24199 H 270.34585 256.8 l -0.0202,-0.3 z m 195.62007,-133.8811 -1.56,-0.20024 -1.8,-0.39869 -1.8,-0.39869 -2.38418,-0.82949 -2.38419,-0.8295 -1.45581,-0.72747 -1.45582,-0.72747 -1.96346,-1.29791 -1.96344,-1.29791 -1.88501,-1.85577 -1.88501,-1.85576 -1.13402,-1.48502 -1.13405,-1.48501 -1.17372,-1.89244 -1.17372,-1.89244 -1.07172,-2.14254 -1.0717,-2.14255 -0.85627,-2.16 -0.85625,-2.16 -0.60093,-2.4 -0.60092,-2.4 -0.99175,-4.40296 -0.99177,-4.40295 0.12933,-0.33705 0.12934,-0.33704 6.06753,0.0175 6.06754,0.0175 1.30795,0.1856 1.30798,0.1856 0.88051,0.99222 0.88051,0.99221 2.72707,5.34466 2.72708,5.34466 1.38852,2.0832 1.38854,2.08319 1.10616,0.97369 1.10616,0.97368 1.22976,0.58136 1.22976,0.58136 1.5175,0.39287 1.51752,0.39287 2.32248,0.13235 2.3225,0.13235 2.4,-0.36829 2.4,-0.36829 2.04,-0.64005 2.04,-0.64006 2.0539,-1.05559 2.05387,-1.0556 1.54613,-1.28057 1.5461,-1.28058 1.36776,-1.90884 1.36776,-1.90884 1.0716,-2.0301 1.0716,-2.03011 0.73179,-2.09403 0.73178,-2.09402 0.39802,-2.10598 0.39804,-2.10597 0.006,-3.12 0.006,-3.12 -0.29446,-1.8 -0.29446,-1.8 -0.61586,-2.4 -0.61586,-2.4 -0.78591,-2.06952 -0.78593,-2.06952 -0.60038,-1.17048 -0.60038,-1.17048 -1.15911,-1.42306 -1.1591,-1.42306 -1.68,-1.27998 -1.68,-1.27999 -1.92768,-0.94284 -1.92766,-0.94284 -2.10943,-0.61129 -2.10941,-0.61128 -2.20291,-0.27096 -2.20291,-0.27095 -2.16,0.15013 -2.16,0.15013 -2.04,0.48582 -2.04,0.48582 -1.92,0.94904 -1.92,0.94903 -1.27995,1.05169 -1.27997,1.05169 -0.93938,1.17145 -0.93941,1.17145 -0.88478,1.05149 -0.88479,1.05149 -1.21586,0.56617 -1.21586,0.56616 -1.44,0.002 -1.44,0.002 -1.8,-0.34361 -1.8,-0.34361 -3.6,-0.28256 -3.6,-0.28256 -0.20768,-0.19346 -0.20767,-0.19346 2.43147,-19.64033 2.43148,-19.64033 1.43607,-12.12 1.43609,-12.12 0.45468,-3.81011 0.45468,-3.81012 0.32544,-0.20621 0.32544,-0.20621 28.692,-0.004 28.692,-0.004 0.288,0.288 0.288,0.288 v 9.744 9.744 l -0.288,0.288 -0.288,0.288 h -22.74113 -22.74113 l -0.12451,0.78 -0.12454,0.78 -1.20749,12.6 -1.20748,12.6 v 0.9 0.9 h 0.0883 0.0884 l 3.69163,-1.7889 3.69166,-1.7889 2.88,-0.95196 2.88,-0.95198 2.26228,-0.37913 2.26229,-0.37913 h 2.91543 2.91542 l 2.25595,0.38752 2.25598,0.38752 1.80631,0.58408 1.80634,0.58408 2.16482,1.04691 2.16483,1.04691 1.8947,1.35938 1.89468,1.35938 1.43184,1.24211 1.43182,1.24211 1.90879,2.28 1.90881,2.28 1.3416,2.16 1.34158,2.16 1.06985,2.28 1.06982,2.28 1.02643,3.12 1.02641,3.12 0.60874,3 0.60873,3 0.31328,2.52 0.31327,2.52 -0.017,5.28 -0.017,5.28 -0.41451,2.88 -0.4145,2.88 -0.60247,2.70913 -0.60247,2.70914 -0.83244,2.51406 -0.83242,2.51406 -0.86414,1.97681 -0.86417,1.9768 -0.60559,1.08 -0.60562,1.08 -0.73373,1.2 -0.73373,1.2 -1.35588,1.8 -1.3559,1.8 -2.26217,2.16 -2.26219,2.16 -2.15191,1.46972 -2.15194,1.46972 -2.4,1.19979 -2.4,1.19979 -1.74048,0.6255 -1.74045,0.6255 -1.92639,0.49185 -1.92636,0.49185 -2.45316,0.34874 -2.45316,0.34875 -3.12,-0.026 -3.12,-0.026 -1.56,-0.20024 z m -59.76,-108.27168 -1.56,-0.54723 -1.2,-0.69705 -1.2,-0.69705 -1.80005,-1.82295 -1.80007,-1.82295 -0.75703,-1.44 -0.75706,-1.44 -0.3829,-1.30356 -0.38289,-1.30356 v -1.82601 -1.82602 l 0.36749,-1.41088 0.36748,-1.41087 0.77252,-1.45955 0.77251,-1.45955 1.56,-1.56245 1.56,-1.56246 1.70474,-0.89211 1.70475,-0.8921 1.53525,-0.36189 1.53526,-0.36189 h 1.32 1.32 l 1.50247,0.35424 1.50245,0.35424 1.49755,0.75424 1.49753,0.75424 1.56,1.59034 1.56,1.59035 0.76574,1.58335 0.76575,1.58335 0.40488,1.99809 0.40485,1.99809 -0.14131,1.5133 -0.14131,1.5133 -0.60422,1.73747 -0.60425,1.73747 -1.11682,1.63451 -1.11681,1.63452 -1.34825,1.20508 -1.34825,1.20509 -1.77307,0.87866 -1.77308,0.87866 -2.30692,0.0744 -2.30693,0.0744 z"
   id="path35774" />
<path
   style="opacity:1;fill:#ffffff;stroke-width:0.10192;stroke-linecap:round;stroke-miterlimit:3.7"
   d="M 311.40168,458.24874 C 299.08437,436.80584 274.29311,393.69181 256.30998,362.43981 238.32686,331.1878 210.68669,283.08186 194.88737,255.53772 143.22232,165.46615 69.5623,37.270837 68.62467,35.794543 L 67.707155,34.34992 H 333.78599 599.86483 L 466.97169,265.65008 C 393.88047,392.86517 334.01515,497.0145 333.93767,497.09305 c -0.0775,0.0786 -10.21868,-17.40139 -22.53599,-38.84431 z M 284.89619,312.03852 c 1.93838,-26.70663 7.33641,-57.87907 14.57466,-84.16567 14.43971,-52.43952 37.80638,-104.35917 62.41144,-138.675274 l 5.69395,-7.94123 V 68.397034 55.537721 h -70.94703 -70.94703 v 15.632766 15.632766 l 6.84145,0.418598 c 3.7628,0.230229 27.59908,0.418598 52.96951,0.418598 25.37042,0 46.12805,0.121426 46.12805,0.269836 0,0.14841 -1.55209,2.532038 -3.44907,5.29695 -19.46688,28.373535 -39.76284,72.189335 -51.84683,111.929205 -10.88854,35.80846 -18.26302,75.11648 -19.60633,104.50718 l -0.41875,9.16208 14.06498,-0.17331 14.06499,-0.17332 z M 466.02555,183.6386 c 14.78733,-3.13312 24.80227,-13.40516 29.43201,-30.18756 2.04656,-7.41857 2.03568,-23.94429 -0.0207,-31.46067 -2.77661,-10.14894 -7.40079,-17.58227 -14.25762,-22.919018 -5.45383,-4.244775 -9.83085,-5.789386 -17.42003,-6.147364 -6.78187,-0.319897 -12.32242,0.898689 -18.63869,4.099385 l -3.06598,1.553635 v -1.399915 c 0,-2.045975 1.94861,-23.08974 2.29434,-24.777341 l 0.29428,-1.436524 22.94326,-0.168612 22.94325,-0.168613 V 60.35313 50.080257 l -29.60571,-0.166867 -29.60571,-0.166867 -0.43738,4.340222 c -0.40185,3.987621 -6.92734,58.152905 -7.85186,65.174895 l -0.40153,3.04976 h 2.36674 c 1.30171,0 4.36005,0.32918 6.79632,0.73153 5.48976,0.90661 7.19232,0.31357 10.51641,-3.66311 8.82693,-10.55984 28.80892,-8.01054 34.64446,4.41994 3.82047,8.1381 4.509,18.21001 1.74177,25.47872 -3.85083,10.11505 -11.94115,15.672 -22.61334,15.53233 -7.82932,-0.10247 -9.94499,-1.8363 -15.95146,-13.07249 -2.26181,-4.23112 -4.10834,-6.89609 -5.13644,-7.41306 -0.97237,-0.48895 -4.19948,-0.81087 -8.18619,-0.8166 l -6.58106,-0.009 v 1.63399 c 0,0.89869 0.71866,4.58248 1.59704,8.18619 2.92517,12.00119 9.30716,21.91586 17.12851,26.60981 6.98497,4.192 17.80271,5.67407 27.07528,3.70941 z M 400.51343,75.689142 c 7.4555,-3.760348 10.57915,-12.722868 6.8123,-19.546211 -3.36479,-6.095064 -11.15709,-8.525804 -17.27758,-5.38959 -4.13425,2.118445 -7.70465,7.757204 -7.70465,12.168007 0,8.939367 10.76402,16.503121 18.16993,12.767794 z"
   id="path17081" /><path
   style="opacity:1;fill:#ffffff;stroke-width:0.10192;stroke-linecap:round;stroke-miterlimit:3.7"
   d="M 279.62883,403.04266 C 249.82833,351.22473 210.94105,283.54735 193.21265,252.64848 175.48425,221.7496 140.05781,160.06421 114.48723,115.56982 L 67.995267,34.670947 201.14469,34.508914 c 73.23219,-0.08912 192.8694,-0.08912 265.86047,0 l 132.71105,0.162033 -36.34353,63.242376 C 543.38374,132.69663 484.04553,235.98716 431.51,327.44783 378.97447,418.90851 335.5005,494.53131 334.90119,495.49852 l -1.08965,1.75855 z m 5.26736,-91.00414 c 1.93704,-26.68803 7.32672,-57.82225 14.57004,-84.16567 14.43938,-52.51503 37.71108,-104.21982 62.41606,-138.675274 l 5.69395,-7.94123 V 68.397034 55.537721 h -70.94703 -70.94703 v 15.632766 15.632766 l 6.84145,0.418598 c 3.7628,0.230229 27.59908,0.418598 52.96951,0.418598 25.37042,0 46.12805,0.105975 46.12805,0.2355 0,0.129524 -2.30264,3.730784 -5.11697,8.002799 -23.3311,35.415422 -43.29323,81.599742 -55.82709,129.161382 -7.78731,29.55014 -14.1419,69.5071 -14.1697,89.09759 l -0.007,4.66742 13.96469,-0.17304 13.96469,-0.17303 z M 470.29048,182.43866 c 5.70069,-1.98676 12.54085,-6.4921 16.10955,-10.61069 3.3379,-3.85223 7.30626,-11.90245 9.05892,-18.37693 2.01695,-7.45074 2.01773,-24.03993 10e-4,-31.38244 -3.64664,-13.27983 -11.38057,-23.092818 -21.46933,-27.240778 -5.8423,-2.402045 -14.70861,-2.728393 -21.13061,-0.777769 -2.57071,0.780826 -6.05368,2.11882 -7.73996,2.97332 l -3.06577,1.553635 v -1.399915 c 0,-2.045975 1.94861,-23.08974 2.29434,-24.777341 l 0.29428,-1.436524 22.94326,-0.168612 22.94325,-0.168613 V 60.35313 50.080257 l -29.57446,-0.166846 -29.57446,-0.166847 -1.13696,10.118693 c -0.62532,5.56528 -2.55759,21.618764 -4.29392,35.674408 -1.73633,14.055645 -3.15696,25.829325 -3.15696,26.163725 0,0.3344 1.02812,0.60801 2.28472,0.60801 1.25659,0 4.31278,0.31466 6.79153,0.69925 5.56004,0.86267 7.14154,0.31254 10.43779,-3.63083 8.82693,-10.55984 28.80892,-8.01054 34.64446,4.41994 3.82047,8.1381 4.509,18.21001 1.74177,25.47872 -3.82175,10.03864 -11.95018,15.69448 -22.3586,15.55731 -7.99126,-0.10531 -10.48432,-2.10639 -16.22278,-13.02141 -1.83712,-3.49437 -3.78423,-6.72189 -4.32691,-7.17227 -0.62941,-0.52237 -3.62518,-0.90263 -8.27344,-1.05019 l -7.28676,-0.23131 6.4e-4,1.51391 c 10e-4,2.59449 3.06873,14.32124 4.72626,18.06922 3.36381,7.60618 8.64527,13.86805 14.67919,17.40416 7.74227,4.53728 21.03803,5.44395 30.65949,2.09076 z m -69.03623,-107.172 c 12.48142,-7.069534 8.52412,-25.834019 -5.4276,-25.736328 -4.03049,0.02822 -6.49914,1.123412 -9.43777,4.186959 -5.12629,5.344208 -5.30453,12.484796 -0.44587,17.86275 4.50191,4.983078 10.48072,6.422647 15.31124,3.686619 z"
   id="path18557" /></svg>
