<?xml version="1.0" encoding="UTF-8" standalone="no"?>
<!-- Generator: Adobe Illustrator 16.0.3, SVG Export Plug-In . SVG Version: 6.00 Build 0)  -->

<svg
   version="1.1"
   id="Ebene_1"
   x="0px"
   y="0px"
   width="666.96002"
   height="575.52002"
   viewBox="0 0 666.96002 575.52002"
   enable-background="new 0 0 800 800"
   xml:space="preserve"
   sodipodi:docname="ankuendigungstafel-55-sign.svg"
   inkscape:version="1.2.2 (732a01da63, 2022-12-09)"
   xmlns:inkscape="http://www.inkscape.org/namespaces/inkscape"
   xmlns:sodipodi="http://sodipodi.sourceforge.net/DTD/sodipodi-0.dtd"
   xmlns="http://www.w3.org/2000/svg"
   xmlns:svg="http://www.w3.org/2000/svg"><defs
   id="defs35826" /><sodipodi:namedview
   id="namedview35824"
   pagecolor="#ffffff"
   bordercolor="#000000"
   borderopacity="0.25"
   inkscape:showpageshadow="2"
   inkscape:pageopacity="0.0"
   inkscape:pagecheckerboard="0"
   inkscape:deskcolor="#d1d1d1"
   showgrid="false"
   inkscape:zoom="1.1013188"
   inkscape:cx="298.27875"
   inkscape:cy="303.27276"
   inkscape:window-width="2560"
   inkscape:window-height="1494"
   inkscape:window-x="-11"
   inkscape:window-y="-11"
   inkscape:window-maximized="1"
   inkscape:current-layer="Ebene_1" />
<path
   style="fill:#fd0101;stroke-width:0.24"
   d="M 332.8705,574.14 332.09515,572.76 166.04758,286.51022 0,0.26045 V 0.13022 0 H 333.48 666.96 V 0.13259 0.26518 L 597.2172,120.79259 527.4744,241.32 l -0.78809,1.32 -0.78806,1.32 -91.67314,158.4 -91.67313,158.4 -0.96106,1.68 -0.96106,1.68 -3.30674,5.7 -3.30674,5.7 h -0.18528 -0.18528 z M 467.18309,266.03909 600.24408,34.45223 600.16208,34.20612 600.07998,33.96 H 333.82001 67.56 l 0.0275,0.38486 0.0275,0.38486 59.76266,104.01514 59.76265,104.01514 4.30669,7.56 4.30669,7.56 9.5584,16.68 9.55839,16.68 10.61322,18.36 10.61322,18.36 33.23372,57.84 33.23371,57.84 15.55241,27.0685 15.55239,27.06847 0.22648,-0.0755 0.22652,-0.0755 z m -167.48979,56.51196 -2.58669,-0.21631 -3.05331,-0.49344 -3.0533,-0.49342 -3.13322,-0.82133 -3.13323,-0.8213 -2.26677,-0.82426 -2.26678,-0.82425 -2.44241,-1.08684 -2.44241,-1.08687 -2.59759,-1.49553 -2.59759,-1.49556 -1.71938,-1.15937 -1.71939,-1.15937 -2.48061,-1.95926 -2.48062,-1.95927 -3.37049,-3.38733 -3.37046,-3.38734 -1.63073,-2.04 -1.63075,-2.04 -2.15986,-3.24 -2.15988,-3.24 -2.24383,-4.56 -2.24383,-4.56 -1.07753,-2.91492 -1.0775,-2.91492 -0.95314,-3.32508 -0.95313,-3.32508 -0.73403,-3.36 -0.73403,-3.36 -0.59598,-4.2 -0.59599,-4.2 -0.15982,-1.83014 -0.15982,-1.83015 0.27123,-0.16761 0.27123,-0.16764 13.61417,-1.39971 13.61417,-1.39973 0.1596,0.15749 0.1596,0.15749 0.62299,3.72 0.62299,3.72 0.59585,2.64 0.59583,2.64 0.72588,2.55773 0.7259,2.55773 0.96432,2.60227 0.9643,2.60227 1.2804,2.66508 1.28037,2.66508 1.01139,1.73172 1.01138,1.73174 1.7796,2.36244 1.7796,2.36244 2.19869,2.18825 2.19869,2.18825 2.18131,1.64671 2.18131,1.64671 1.92,1.1028 1.92,1.10283 2.10703,0.85857 2.10701,0.85858 2.27551,0.57725 2.27551,0.57722 1.97117,0.24718 1.97117,0.24715 h 2.40631 2.40629 l 2.16,-0.26297 2.16,-0.26297 2.68154,-0.67521 2.68155,-0.67522 2.48623,-1.05374 2.48626,-1.05377 1.97736,-1.17622 1.97733,-1.17621 2.09487,-1.5558 2.09486,-1.55583 3.00842,-3.01536 3.00845,-3.01536 2.05049,-2.76 2.05051,-2.76 1.10815,-1.8 1.10818,-1.8 1.67568,-3.48 1.6757,-3.48 0.98938,-2.88 0.98935,-2.88 0.69723,-2.64 0.69722,-2.64 0.49848,-2.52 0.4985,-2.52 0.46707,-3.6298 0.46709,-3.62981 0.23853,-5.2502 0.23851,-5.25019 -0.22905,-4.76266 -0.22903,-4.76266 -0.37124,-3.03734 -0.37123,-3.03734 -0.73241,-3.6 -0.7324,-3.6 -1.27059,-3.85458 -1.27061,-3.85458 -1.35972,-2.86056 -1.35972,-2.86056 -1.11259,-1.80486 -1.11261,-1.80486 -1.6472,-2.21 -1.64719,-2.21 -1.85069,-1.97135 -1.85066,-1.97135 -2.16,-1.8018 -2.16,-1.80179 -2.07554,-1.36355 -2.07555,-1.36354 -2.25991,-1.10666 -2.25991,-1.10666 -2.86455,-0.95524 -2.86454,-0.95524 -2.76,-0.50553 -2.76,-0.50553 -3.72,-0.13962 -3.72,-0.13962 -2.38898,0.28177 -2.38901,0.28177 -1.81099,0.36769 -1.81102,0.36768 -2.78266,0.92356 -2.78268,0.92356 -2.638,1.32301 -2.63799,1.323 -2.49933,1.67959 -2.49934,1.67958 -2.19818,1.92618 -2.19819,1.92619 -1.83806,2.11195 -1.83807,2.11195 -1.86266,2.76934 -1.86269,2.76933 -0.79452,1.49067 -0.79452,1.49066 h -0.44527 -0.44527 l -11.4613,-1.80623 -11.46127,-1.80622 -0.66,-0.13284 -0.66,-0.13284 v -0.45593 -0.45593 l 10.44862,-67.385 10.44861,-67.38501 0.22649,-0.54052 0.22646,-0.54053 53.94492,0.0605 53.9449,0.0605 v 15.48 15.48 l -43.18865,0.0607 -43.18867,0.0607 -0.19543,0.19544 -0.19543,0.19543 -5.76308,34.78391 -5.76309,34.7839 0.0672,0.67271 0.0672,0.6727 2.28,-1.83224 2.28,-1.83224 2.76122,-1.85396 2.76123,-1.85396 2.46055,-1.38102 2.46058,-1.38102 2.41128,-1.0691 2.41128,-1.0691 2.7161,-0.93656 2.7161,-0.93655 2.49084,-0.60719 2.49082,-0.60719 2.76,-0.42219 2.76,-0.42219 5.04,-0.003 5.04,-0.003 2.28,0.30284 2.28,0.30285 2.30237,0.4669 2.30239,0.46691 2.11152,0.6119 2.11154,0.6119 2.30609,0.85446 2.30609,0.85446 2.9875,1.46619 2.98749,1.4662 3.49251,2.32416 3.4925,2.32417 2.39398,2.0064 2.39395,2.0064 2.42076,2.4 2.42076,2.4 1.87303,2.16 1.87301,2.16 1.66217,2.2108 1.66219,2.21079 1.39965,2.22921 1.39964,2.2292 1.34299,2.4281 1.34297,2.4281 1.44264,3.25658 1.44266,3.25658 1.3165,3.91532 1.31652,3.91532 0.83383,3.36 0.83385,3.36 0.49044,2.64 0.49044,2.64 0.47888,3.84 0.47884,3.84 0.24418,3.36 0.24418,3.36 v 6.48 6.48 l -0.24418,3.36 -0.24418,3.36 -0.46598,3.72 -0.46601,3.72 -0.61704,3.36 -0.61704,3.36 -0.84857,3.48 -0.84859,3.48 -1.51773,4.56 -1.51774,4.56 -1.4831,3.48 -1.48308,3.48 -1.75508,3.36648 -1.75504,3.36646 -1.37782,2.27354 -1.37779,2.27352 -1.87503,2.76 -1.875,2.76 -2.09872,2.64 -2.09873,2.64 -2.65579,2.72871 -2.65582,2.7287 -2.4,2.02757 -2.4,2.02757 -3.17441,2.12033 -3.17441,2.12035 -2.6423,1.35156 -2.6423,1.35158 -2.6989,1.08466 -2.6989,1.08468 -2.76439,0.8016 -2.76439,0.80162 -2.52,0.50127 -2.52,0.50126 -2.88,0.37872 -2.88,0.37872 -5.04,0.0892 -5.04,0.0892 -2.5867,-0.21629 z M 452.4,184.0589 l -1.56,-0.20023 -1.8,-0.39869 -1.8,-0.39869 -2.38418,-0.8295 -2.38419,-0.82949 -1.45581,-0.72747 -1.45582,-0.72748 -1.96346,-1.2979 -1.96344,-1.29791 -1.88501,-1.85577 -1.88501,-1.85577 -1.13402,-1.48501 -1.13405,-1.48501 -1.17372,-1.89244 -1.17372,-1.89244 -1.07172,-2.14255 -1.0717,-2.14255 -0.85627,-2.16 -0.85625,-2.16 -0.60093,-2.4 -0.60092,-2.4 -0.99175,-4.40295 -0.99177,-4.40296 0.12933,-0.33704 0.12934,-0.33705 6.06753,0.0175 6.06754,0.0175 1.30795,0.1856 1.30798,0.18561 0.88051,0.99221 0.88051,0.99221 2.72707,5.34466 2.72708,5.34467 1.38852,2.08319 1.38854,2.0832 1.10616,0.97368 1.10616,0.97368 1.22976,0.58136 1.22976,0.58136 1.5175,0.39287 1.51752,0.39287 2.32248,0.13235 2.3225,0.13235 2.4,-0.36828 2.4,-0.36829 2.04,-0.64006 2.04,-0.64005 2.0539,-1.0556 2.05387,-1.05559 1.54613,-1.28058 1.5461,-1.28058 1.36776,-1.90884 1.36776,-1.90883 1.0716,-2.03011 1.0716,-2.0301 0.73178,-2.09403 0.73179,-2.09403 0.39801,-2.10597 0.39804,-2.10597 0.006,-3.12 0.006,-3.12 -0.29445,-1.8 -0.29446,-1.8 -0.61586,-2.4 -0.61587,-2.4 -0.7859,-2.06952 -0.78593,-2.06953 -0.60038,-1.17047 -0.60039,-1.17048 -1.1591,-1.42306 -1.1591,-1.42306 -1.68,-1.27999 -1.68,-1.27998 -1.92768,-0.94284 -1.92766,-0.94284 -2.10943,-0.61129 -2.10941,-0.61129 -2.20291,-0.27095 -2.20291,-0.27096 -2.16,0.15014 -2.16,0.15013 -2.04,0.48582 -2.04,0.48582 -1.92,0.94903 -1.92,0.94904 -1.27995,1.05168 -1.27997,1.05169 -0.93938,1.17145 -0.93941,1.17146 -0.88478,1.05149 -0.88479,1.05149 -1.21586,0.56616 -1.21586,0.56617 -1.44,0.002 -1.44,0.002 -1.8,-0.34361 -1.8,-0.34361 -3.6,-0.28256 -3.6,-0.28256 -0.20768,-0.19346 -0.20767,-0.19346 2.43147,-19.64033 2.43148,-19.64033 1.43607,-12.12 1.43609,-12.12 0.45468,-3.81012 0.45468,-3.81011 0.32544,-0.20621 0.32544,-0.20621 28.692,-0.004 28.692,-0.004 0.288,0.288 0.288,0.288 v 9.744 9.744 l -0.288,0.288 -0.288,0.288 H 467.00273 444.2616 l -0.12451,0.78 -0.12454,0.78 -1.20749,12.6 -1.20748,12.6 v 0.9 0.9 h 0.0883 0.0884 l 3.69163,-1.7889 3.69166,-1.7889 2.88,-0.95197 2.88,-0.95197 2.26228,-0.37913 2.26229,-0.37913 h 2.91543 2.91542 l 2.25595,0.38752 2.25598,0.38752 1.80631,0.58408 1.80634,0.58408 2.16482,1.04691 2.16482,1.04691 1.89471,1.35938 1.89468,1.35937 1.43184,1.24212 1.43181,1.24211 1.9088,2.28 1.90881,2.28 1.3416,2.16 1.34158,2.16 1.06985,2.28 1.06982,2.28 1.02643,3.12 1.02641,3.12 0.60874,3 0.60873,3 0.31327,2.52 0.31328,2.52 -0.017,5.28 -0.017,5.28 -0.41451,2.88 -0.4145,2.88 -0.60247,2.70913 -0.60248,2.70913 -0.83244,2.51406 -0.83241,2.51407 -0.86415,1.9768 -0.86416,1.97681 -0.6056,1.08 -0.60561,1.08 -0.73373,1.2 -0.73373,1.2 -1.35588,1.8 -1.3559,1.8 -2.26217,2.16 -2.26219,2.16 -2.15191,1.46972 -2.15194,1.46972 -2.4,1.19979 -2.4,1.19978 -1.74048,0.62551 -1.74046,0.6255 -1.92638,0.49185 -1.92636,0.49184 -2.45316,0.34875 -2.45316,0.34874 -3.12,-0.026 -3.12,-0.026 -1.56,-0.20023 z M 392.64,75.78722 391.08,75.24 389.88,74.54295 388.68,73.8459 386.87995,72.02295 385.07988,70.2 384.32285,68.76 383.56579,67.32 383.1829,66.01644 382.8,64.71288 v -1.82602 -1.82601 l 0.36749,-1.41088 0.36749,-1.41087 0.77251,-1.45955 0.77251,-1.45955 1.56,-1.56246 1.56,-1.56245 1.70474,-0.89211 1.70475,-0.8921 1.53525,-0.36189 1.53526,-0.3619 h 1.32 1.32 l 1.50247,0.35425 1.50245,0.35424 1.49755,0.75424 1.49753,0.75424 1.56,1.59034 1.56,1.59034 0.76574,1.58335 0.76575,1.58336 0.40488,1.99809 0.40485,1.99808 -0.14131,1.51331 -0.14131,1.5133 -0.60422,1.73747 -0.60425,1.73747 -1.11682,1.63451 -1.11681,1.63452 -1.34825,1.20508 -1.34825,1.20509 -1.77307,0.87866 -1.77307,0.87866 -2.30693,0.0744 -2.30693,0.0744 z"
   id="path35828" />
</svg>
