<?xml version="1.0" encoding="UTF-8" standalone="no"?>
<!-- Generator: Adobe Illustrator 16.0.3, SVG Export Plug-In . SVG Version: 6.00 Build 0)  -->

<svg
   version="1.1"
   id="Ebene_1"
   x="0px"
   y="0px"
   width="666.96002"
   height="575.52002"
   viewBox="0 0 666.96002 575.52002"
   enable-background="new 0 0 800 800"
   xml:space="preserve"
   sodipodi:docname="ankuendigungstafel-95-sign.svg"
   inkscape:version="1.2.2 (732a01da63, 2022-12-09)"
   xmlns:inkscape="http://www.inkscape.org/namespaces/inkscape"
   xmlns:sodipodi="http://sodipodi.sourceforge.net/DTD/sodipodi-0.dtd"
   xmlns="http://www.w3.org/2000/svg"
   xmlns:svg="http://www.w3.org/2000/svg"><defs
   id="defs35718" /><sodipodi:namedview
   id="namedview35716"
   pagecolor="#ffffff"
   bordercolor="#000000"
   borderopacity="0.25"
   inkscape:showpageshadow="2"
   inkscape:pageopacity="0.0"
   inkscape:pagecheckerboard="0"
   inkscape:deskcolor="#d1d1d1"
   showgrid="false"
   inkscape:zoom="1.1013188"
   inkscape:cx="276.4867"
   inkscape:cy="344.13287"
   inkscape:window-width="2560"
   inkscape:window-height="1494"
   inkscape:window-x="-11"
   inkscape:window-y="-11"
   inkscape:window-maximized="1"
   inkscape:current-layer="Ebene_1" />
<path
   style="fill:#fd0101;stroke-width:0.24"
   d="M 332.87049,574.14 332.09514,572.76 166.04757,286.51022 0,0.26045 V 0.13022 0 H 333.47999 666.96 V 0.13259 0.26518 L 597.2172,120.79259 527.4744,241.32 l -0.78809,1.32 -0.78806,1.32 -91.67314,158.4 -91.67313,158.4 -0.96106,1.68 -0.96106,1.68 -3.30674,5.7 -3.30674,5.7 h -0.18528 -0.18528 z m 134.31259,-308.10091 133.061,-231.58686 -0.082,-0.24611 -0.0821,-0.24612 H 333.82 67.559995 l 0.0275,0.38486 0.0275,0.38486 59.762665,104.01514 59.76264,104.01514 4.3067,7.56 4.30669,7.56 9.5584,16.68 9.55838,16.68 10.61322,18.36 10.61323,18.36 33.23372,57.84 33.23371,57.84 15.55241,27.0685 15.55239,27.06847 0.22648,-0.0755 0.22652,-0.0755 z m -183.0847,56.51837 -2.34158,-0.21137 -3.01291,-0.5088 -3.01292,-0.5088 -2.5398,-0.71316 -2.5398,-0.71319 -2.30568,-0.85848 -2.3057,-0.85848 -3.03062,-1.53542 -3.03065,-1.53542 -2.48935,-1.65958 -2.48938,-1.65958 -2.28,-1.9055 -2.28,-1.90553 -2.58888,-2.68209 -2.58886,-2.68208 -1.99488,-2.68999 -1.99488,-2.68999 -1.5194,-2.52 -1.51941,-2.52 -1.49134,-3.12 -1.49133,-3.12 -1.08566,-2.88 -1.08566,-2.88 -0.9637,-3.36 -0.96369,-3.36 -0.60533,-2.76 -0.60533,-2.76 -0.48531,-2.8193 -0.4853,-2.81928 -0.29282,-2.6334 -0.29282,-2.63343 0.13389,-0.13389 0.1339,-0.13388 12.5734,-1.41487 12.57341,-1.41487 0.15742,0.16147 0.15744,0.16145 0.63374,3.48 0.63377,3.48 0.60422,2.4 0.60423,2.4 0.49922,1.68 0.49922,1.68 1.05735,2.7547 1.05734,2.75467 1.37362,2.64693 1.37361,2.64692 1.14454,1.70589 1.14454,1.70587 1.45257,1.72568 1.45255,1.72564 1.91112,1.62744 1.91112,1.62744 1.86843,1.12952 1.86842,1.12951 1.94261,0.83988 1.94258,0.83985 2.2524,0.57137 2.2524,0.57137 2.50277,0.29131 2.50277,0.29131 3.36,-0.14215 3.36,-0.14215 2.29848,-0.48694 2.2985,-0.48696 1.9015,-0.6174 1.90152,-0.61737 2.46223,-1.1725 2.46221,-1.17249 1.97779,-1.29015 1.97777,-1.29017 2.16,-1.80096 2.16,-1.80098 1.4635,-1.66253 1.46347,-1.66255 1.50341,-2.03705 1.5034,-2.03705 1.4335,-2.40295 1.4335,-2.40295 1.63166,-3.36 1.63169,-3.36 1.21721,-3.02009 1.21723,-3.02011 1.22443,-3.57989 1.22443,-3.57991 1.0554,-3.72 1.05543,-3.72 0.74848,-3.34963 0.74852,-3.34962 0.46706,-2.53037 0.46706,-2.53038 0.46484,-3 0.46483,-3 0.4884,-4.56 0.48837,-4.56 0.25004,-3.36 0.25005,-3.36 0.14736,-8.94 0.14739,-8.94 h -0.25772 -0.25771 l -0.77865,1.38 -0.77866,1.38 -1.95598,3 -1.956,3 -2.00844,2.52 -2.00846,2.52 -2.77452,2.76613 -2.77452,2.76614 -2.04,1.63508 -2.04,1.63507 -3.24,2.16229 -3.24,2.1623 -3.49512,1.7341 -3.49512,1.73411 -3.34488,1.10921 -3.34488,1.10922 -2.4,0.48407 -2.4,0.48408 -2.88,0.28178 -2.88,0.28178 -3.24002,-0.14546 -3.24,-0.14547 -2.75753,-0.38461 -2.75751,-0.3846 -3.23613,-0.82941 -3.23611,-0.8294 -2.76634,-1.09604 -2.76636,-1.09604 -2.52,-1.32031 -2.52,-1.32032 -2.28,-1.49994 -2.28,-1.49994 -2.16,-1.6785 -2.16,-1.67851 -2.61998,-2.4984 -2.61996,-2.49841 -2.02059,-2.26593 -2.02056,-2.26593 -1.9914,-2.65407 -1.99141,-2.65407 -1.43972,-2.28818 -1.43972,-2.28818 -1.45661,-2.75182 -1.45661,-2.75182 -1.23485,-2.88 -1.23486,-2.88 -1.17542,-3.4478 -1.17541,-3.44781 -1.06113,-4.23219 -1.06113,-4.2322 -0.62016,-3.72 -0.62017,-3.72 -0.34365,-3 -0.34365,-3 -0.28857,-4.43747 -0.28858,-4.43747 0.13712,-7.80253 0.13711,-7.80253 0.37942,-3.72 0.37942,-3.72 0.4871,-3.36 0.4871,-3.36 0.8277,-3.86125 0.82769,-3.86124 0.95633,-3.27044 0.95633,-3.27045 1.10883,-3.05892 1.10882,-3.05893 1.48502,-3.24939 1.48504,-3.24938 1.41705,-2.51878 1.41706,-2.51878 1.85285,-2.76122 1.85285,-2.76122 2.04909,-2.54763 2.04907,-2.54762 2.41983,-2.53447 2.4198,-2.53447 2.33174,-2.02178 2.33177,-2.02177 2.29058,-1.69128 2.29059,-1.69128 2.26941,-1.38344 2.26942,-1.38345 2.9328,-1.40949 2.9328,-1.4095 3.5472,-1.17736 3.5472,-1.17735 2.88,-0.59611 2.88,-0.5961 2.4,-0.30729 2.4,-0.30729 5.16,-0.004 5.16,-0.004 2.16,0.30483 2.16,0.30483 2.4,0.48256 2.4,0.48256 2.16,0.61605 2.16,0.61605 2.69237,1.03692 2.69234,1.03691 3.30766,1.67948 3.30763,1.67948 2.88,1.89412 2.88,1.89411 2.28,1.75624 2.28,1.75623 3.96737,3.98229 3.96737,3.98229 2.17185,2.88 2.17186,2.88 1.22321,1.82314 1.22323,1.82314 1.85611,3.21686 1.85609,3.21686 1.42605,2.98867 1.42604,2.98868 1.08811,2.65132 1.08809,2.65133 0.93914,2.52 0.93912,2.52 1.17019,3.99301 1.17019,3.99301 0.9668,4.40699 0.96679,4.40699 0.60005,3.6 0.60002,3.6 0.47837,3.48 0.47834,3.48 0.49205,4.92 0.49207,4.92 0.35287,5.28 0.35288,5.28 0.27787,8.76 0.27785,8.76 -0.15387,9.96 -0.15389,9.96 -0.24295,5.4 -0.24295,5.4 -0.35556,5.16 -0.35556,5.16 -0.4907,4.92 -0.49068,4.92 -0.59254,4.44 -0.59256,4.44 -0.84132,4.89304 -0.84132,4.89303 -0.72168,3.26697 -0.72168,3.26696 -0.96749,3.72 -0.96749,3.72 -1.52901,4.59542 -1.52904,4.59545 -1.48056,3.68455 -1.48056,3.68458 -2.09047,4.32 -2.09048,4.32 -1.5202,2.64 -1.52019,2.64 -2.10626,3.12 -2.10627,3.12 -2.06128,2.56694 -2.06127,2.56697 -2.58708,2.59941 -2.5871,2.59944 -2.62899,2.10759 -2.62898,2.10758 -2.28,1.51479 -2.28,1.51478 -2.18971,1.24106 -2.18974,1.24107 -2.85026,1.28001 -2.85029,1.28004 -2.28,0.76625 -2.28,0.76627 -2.68562,0.696 -2.68565,0.69603 -3.31435,0.49308 -3.31438,0.4931 -4.8,0.0992 -4.8,0.0992 -2.34161,-0.21139 z m 18.90161,-124.07676 2.4,-0.51219 1.8,-0.59195 1.8,-0.59195 2.64,-1.31175 2.64,-1.31174 2.16,-1.55101 2.16,-1.551 2.0795,-1.92792 2.07951,-1.92791 1.81694,-2.16556 1.81695,-2.16555 1.43496,-2.13412 1.43498,-2.13412 1.19306,-2.24197 1.19307,-2.24196 1.07669,-2.64 1.07666,-2.64 0.8695,-2.86906 0.86947,-2.86907 0.69888,-3.49093 0.6989,-3.49094 0.36456,-2.88 0.36456,-2.88 0.24353,-3.48 0.24353,-3.48 0.002,-4.00091 0.002,-4.00091 -0.25059,-3.67909 -0.25058,-3.67909 -0.58486,-4.08 -0.58488,-4.08 -0.82648,-3.36004 -0.82649,-3.36003 -0.89103,-2.63997 -0.89104,-2.63996 -0.94342,-2.16 -0.94339,-2.16 -1.09613,-2.04 -1.09613,-2.04 -1.31304,-1.99576 -1.31301,-1.99577 -2.09674,-2.56423 -2.09671,-2.56424 -2.17548,-2.06706 -2.17548,-2.06705 -2.12225,-1.58403 -2.12227,-1.58402 -2.52,-1.30655 -2.52,-1.30654 -2.04,-0.71439 -2.04,-0.71439 -2.04,-0.44545 -2.04,-0.44545 -4.2,0.006 -4.2,0.006 -2.03355,0.43835 -2.03356,0.43835 -2.40644,0.832 -2.40645,0.832 -2.01027,1.06296 -2.01024,1.06295 -1.58976,1.05884 -1.58973,1.05883 -2.32894,1.94626 -2.32893,1.94625 -1.91842,2.09323 -1.91844,2.09323 -1.35142,1.68 -1.35144,1.68 -1.68244,2.52 -1.68243,2.52 -1.73546,3.49324 -1.73544,3.49324 -0.99723,2.74676 -0.99722,2.74676 -0.71134,2.52 -0.71131,2.52 -0.6192,2.96479 -0.6192,2.96479 -0.49325,3.63521 -0.49327,3.63521 -0.13392,7.14024 -0.13389,7.14023 0.2886,3.41977 0.28862,3.41976 0.59542,3.54445 0.59541,3.54445 0.81375,2.96913 0.81374,2.96914 0.88003,2.34959 0.88003,2.34959 1.03858,2.17682 1.0386,2.17683 1.37287,2.28 1.37287,2.28 1.24692,1.68 1.2469,1.68 1.84639,2.10248 1.84637,2.10248 2.20903,1.93476 2.20906,1.93476 2.14721,1.44382 2.1472,1.44382 1.87092,0.94068 1.87095,0.94068 1.84737,0.73386 1.84738,0.73385 2.41447,0.58035 2.4145,0.58035 1.68,0.22932 1.68,0.22933 4.08,-0.0888 4.08,-0.0888 2.4,-0.51219 z m 149.4,-14.4218 -1.56,-0.20023 -1.79999,-0.39869 -1.8,-0.39869 -2.38418,-0.8295 -2.38419,-0.82949 -1.45581,-0.72747 -1.45582,-0.72748 -1.96347,-1.2979 -1.96344,-1.29791 -1.88501,-1.85577 -1.88501,-1.85577 -1.13402,-1.48501 -1.13405,-1.48501 -1.17372,-1.89244 -1.17372,-1.89244 -1.07172,-2.14255 -1.0717,-2.14255 -0.85627,-2.16 -0.85625,-2.16 -0.60093,-2.4 -0.60092,-2.4 -0.99175,-4.40295 -0.99177,-4.40296 0.12933,-0.33704 0.12934,-0.33705 6.06753,0.0175 6.06754,0.0175 1.30795,0.1856 1.30798,0.18561 0.88051,0.99221 0.88051,0.99221 2.72707,5.34466 2.72708,5.34467 1.38852,2.08319 1.38854,2.0832 1.10616,0.97368 1.10616,0.97368 1.22976,0.58136 1.22977,0.58136 1.5175,0.39287 1.51752,0.39287 2.32248,0.13235 2.3225,0.13235 2.4,-0.36828 2.4,-0.36829 2.04,-0.64006 2.03999,-0.64005 2.0539,-1.0556 2.05387,-1.05559 1.54613,-1.28058 1.5461,-1.28058 1.36776,-1.90884 1.36776,-1.90883 1.0716,-2.03011 1.0716,-2.0301 0.73178,-2.09403 0.73179,-2.09403 0.39801,-2.10597 0.39804,-2.10597 0.006,-3.12 0.006,-3.12 -0.29445,-1.8 -0.29446,-1.8 -0.61586,-2.4 -0.61587,-2.4 -0.7859,-2.06952 -0.78593,-2.06953 -0.60038,-1.17047 -0.60038,-1.17048 -1.1591,-1.42306 -1.1591,-1.42306 -1.68,-1.27999 -1.68,-1.27998 -1.92768,-0.94284 -1.92766,-0.94284 -2.10943,-0.61129 -2.10941,-0.61129 -2.20291,-0.27095 -2.20291,-0.27096 -2.16,0.15014 -2.16,0.15013 -2.04,0.48582 -2.04,0.48582 -1.92,0.94903 -1.92,0.94904 -1.27995,1.05168 -1.27997,1.05169 -0.93938,1.17145 -0.93941,1.17146 -0.88478,1.05149 -0.88479,1.05149 -1.21586,0.56616 -1.21586,0.56617 -1.44,0.002 -1.44,0.002 -1.8,-0.34361 -1.8,-0.34361 -3.6,-0.28256 -3.6,-0.28256 -0.20768,-0.19346 -0.20767,-0.19346 2.43147,-19.64033 2.43148,-19.64033 1.43607,-12.12 1.43609,-12.12 0.45468,-3.81012 0.45468,-3.81011 0.32544,-0.20621 0.32544,-0.20621 28.692,-0.004 28.692,-0.004 0.288,0.288 0.288,0.288 v 9.744 9.744 l -0.288,0.288 -0.288,0.288 H 467.00273 444.2616 l -0.12451,0.78 -0.12454,0.78 -1.20749,12.6 -1.20748,12.6 v 0.9 0.9 h 0.0883 0.0884 l 3.69163,-1.7889 3.69166,-1.7889 2.88,-0.95197 2.88,-0.95197 2.26228,-0.37913 2.26229,-0.37913 h 2.91543 2.91542 l 2.25595,0.38752 2.25598,0.38752 1.80631,0.58408 1.80634,0.58408 2.16482,1.04691 2.16482,1.04691 1.89471,1.35938 1.89468,1.35937 1.43184,1.24212 1.43181,1.24211 1.9088,2.28 1.90881,2.28 1.3416,2.16 1.34158,2.16 1.06985,2.28 1.06982,2.28 1.02643,3.12 1.02641,3.12 0.60874,3 0.60873,3 0.31327,2.52 0.31328,2.52 -0.017,5.28 -0.017,5.28 -0.41451,2.88 -0.4145,2.88 -0.60247,2.70913 -0.60248,2.70913 -0.83244,2.51406 -0.83241,2.51407 -0.86415,1.9768 -0.86416,1.97681 -0.6056,1.08 -0.60561,1.08 -0.73373,1.2 -0.73373,1.2 -1.35588,1.8 -1.3559,1.8 -2.26217,2.16 -2.26219,2.16 -2.15191,1.46972 -2.15194,1.46972 -2.4,1.19979 -2.4,1.19978 -1.74048,0.62551 -1.74046,0.6255 -1.92638,0.49185 -1.92636,0.49184 -2.45316,0.34875 -2.45316,0.34874 -3.12,-0.026 -3.12,-0.026 -1.56,-0.20023 z m -59.76,-108.27168 -1.56,-0.54722 -1.2,-0.69705 -1.2,-0.69705 -1.80005,-1.82295 -1.80007,-1.82295 -0.75703,-1.44 -0.75706,-1.44 -0.38289,-1.30356 -0.3829,-1.30356 v -1.82602 -1.82601 l 0.36749,-1.41088 0.36749,-1.41087 0.77251,-1.45955 0.77251,-1.45955 1.56,-1.56246 1.56,-1.56245 1.70474,-0.89211 1.70475,-0.8921 1.53525,-0.36189 1.53526,-0.3619 h 1.32 1.32 l 1.50247,0.35425 1.50245,0.35424 1.49755,0.75424 1.49753,0.75424 1.56,1.59034 1.56,1.59034 0.76574,1.58335 0.76575,1.58336 0.40488,1.99809 0.40485,1.99808 -0.14131,1.51331 -0.1413,1.5133 -0.60422,1.73747 -0.60425,1.73747 -1.11682,1.63451 -1.11681,1.63452 -1.34825,1.20508 -1.34825,1.20509 -1.77308,0.87866 -1.77307,0.87866 -2.30693,0.0744 -2.30693,0.0744 z"
   id="path35720" />
</svg>
