<?xml version="1.0" encoding="UTF-8" standalone="no"?>
<!-- Generator: Adobe Illustrator 16.0.3, SVG Export Plug-In . SVG Version: 6.00 Build 0)  -->

<svg
   version="1.1"
   id="Ebene_1"
   x="0px"
   y="0px"
   width="666.96002"
   height="575.52002"
   viewBox="0 0 666.96002 575.52002"
   enable-background="new 0 0 800 800"
   xml:space="preserve"
   sodipodi:docname="ankuendigungstafel-65-sign.svg"
   inkscape:version="1.2.2 (732a01da63, 2022-12-09)"
   xmlns:inkscape="http://www.inkscape.org/namespaces/inkscape"
   xmlns:sodipodi="http://sodipodi.sourceforge.net/DTD/sodipodi-0.dtd"
   xmlns="http://www.w3.org/2000/svg"
   xmlns:svg="http://www.w3.org/2000/svg"><defs
   id="defs35799" /><sodipodi:namedview
   id="namedview35797"
   pagecolor="#ffffff"
   bordercolor="#000000"
   borderopacity="0.25"
   inkscape:showpageshadow="2"
   inkscape:pageopacity="0.0"
   inkscape:pagecheckerboard="0"
   inkscape:deskcolor="#d1d1d1"
   showgrid="false"
   inkscape:zoom="1.5575"
   inkscape:cx="345.10433"
   inkscape:cy="236.91814"
   inkscape:window-width="2560"
   inkscape:window-height="1494"
   inkscape:window-x="-11"
   inkscape:window-y="-11"
   inkscape:window-maximized="1"
   inkscape:current-layer="Ebene_1" />
<path
   style="fill:#fd0101;stroke-width:0.24"
   d="M 332.8705,574.14 332.09515,572.76 166.04758,286.51022 0,0.26045 V 0.13022 0 H 333.48 666.96 V 0.13259 0.26518 L 597.2172,120.79259 527.4744,241.32 l -0.78809,1.32 -0.78806,1.32 -91.67314,158.4 -91.67313,158.4 -0.96106,1.68 -0.96106,1.68 -3.30674,5.7 -3.30674,5.7 h -0.18528 -0.18528 z M 467.18309,266.03909 600.24408,34.45223 600.16208,34.20612 600.07998,33.96 H 333.82001 67.559997 l 0.0275,0.38486 0.0275,0.38486 59.762663,104.01514 59.76265,104.01514 4.30669,7.56 4.30669,7.56 9.5584,16.68 9.55839,16.68 10.61322,18.36 10.61322,18.36 33.23372,57.84 33.23371,57.84 15.55241,27.0685 15.55239,27.06847 0.22648,-0.0755 0.22652,-0.0755 z M 304.56,322.5282 l -2.52,-0.20501 -2.95994,-0.49829 -2.95995,-0.49826 -2.98517,-0.81814 -2.98516,-0.81816 -2.76552,-1.08132 -2.7655,-1.08134 -2.80937,-1.43239 -2.80939,-1.43242 -2.88,-1.88563 -2.88,-1.88566 -2.04,-1.64596 -2.04,-1.646 -2.00988,-1.8198 -2.00986,-1.81982 -2.23152,-2.46173 -2.23152,-2.4617 -1.77105,-2.2183 -1.77106,-2.21827 -1.45313,-2.04 -1.45315,-2.04 -1.44273,-2.4 -1.44276,-2.4 -1.45402,-2.90107 -1.45399,-2.90107 -1.30697,-3.10431 -1.30694,-3.10428 -1.12709,-3.23465 -1.12709,-3.23462 -1.1586,-4.08 -1.15858,-4.08 -0.98229,-4.34518 -0.9823,-4.34517 -0.83291,-4.89891 -0.8329,-4.8989 -0.59651,-4.67592 -0.59651,-4.67592 -0.37944,-4.08 -0.37944,-4.08 -0.37254,-5.16 -0.37253,-5.16 -0.12991,-15.27304 -0.12992,-15.27304 0.27716,-6.80696 0.27716,-6.80696 0.35596,-5.16 0.35596,-5.16 0.35963,-3.84 0.35963,-3.84 0.61481,-5.04 0.61482,-5.04 0.81086,-4.92 0.81085,-4.92 0.7548,-3.72 0.75477,-3.72 1.04057,-4.2 1.04057,-4.2 0.95683,-3.17082 0.95683,-3.17083 0.97231,-2.76883 0.97232,-2.76882 1.23979,-3.06035 1.23981,-3.06035 1.8697,-3.74494 1.86972,-3.74495 1.36579,-2.25505 1.36579,-2.25506 1.47034,-2.14975 1.47036,-2.14975 1.85222,-2.38209 1.8522,-2.3821 2.4678,-2.77008 2.46778,-2.77008 2.64,-2.38437 2.64,-2.38436 2.64,-1.969 2.64,-1.96901 1.99462,-1.26259 1.99461,-1.2626 3.57787,-1.75216 3.5779,-1.75215 3.30751,-1.09231 3.30749,-1.09231 2.87182,-0.63624 2.87184,-0.63625 2.64816,-0.37702 2.64818,-0.37703 5.88,-0.0112 5.88,-0.0113 2.88,0.4185 2.88,0.41851 2.71613,0.60404 2.71615,0.60403 3.04385,1.04345 3.04387,1.04344 2.28,1.06282 2.28,1.06283 2.49698,1.48678 2.49701,1.48678 2.78299,2.08924 2.78302,2.08925 2.89526,2.88205 2.89524,2.88204 1.52861,1.89481 1.52861,1.89481 2.0071,3.00549 2.00707,3.00548 2.01504,4.09971 2.01504,4.0997 1.19837,3.24 1.19834,3.24 0.98671,3.48 0.98669,3.48 0.81948,4.08 0.81946,4.08 0.48566,3.35183 0.48566,3.35183 -0.1968,0.1968 -0.1968,0.19679 -12.93936,1.28719 -12.93938,1.28719 -0.26338,-0.27581 -0.26337,-0.27582 -0.55068,-2.76 -0.55071,-2.76 -0.94692,-3.48 -0.94692,-3.48 -1.08571,-3 -1.08573,-3 -1.15143,-2.4 -1.15142,-2.4 -1.28187,-1.95945 -1.28186,-1.95945 -1.66068,-1.94175 -1.66066,-1.94175 -1.59444,-1.41705 -1.59441,-1.41704 -1.90491,-1.36833 -1.9049,-1.36833 -2.28,-1.13927 -2.28,-1.13926 -1.92,-0.62922 -1.92,-0.62922 -1.8,-0.38838 -1.8,-0.38838 -3.36,-0.12594 -3.36,-0.12593 -2.65742,0.39142 -2.65743,0.39142 -2.14257,0.61504 -2.14258,0.61503 -2.52,1.19664 -2.52,1.19664 -1.2,0.75629 -1.2,0.75629 -1.92,1.44515 -1.92,1.44515 -2.04053,2.04484 -2.04053,2.04484 -1.46162,1.8 -1.4616,1.8 -1.5643,2.28 -1.56432,2.28 -1.38523,2.37005 -1.38523,2.37004 -1.74353,3.62996 -1.74353,3.62995 -1.20933,3.24 -1.20936,3.24 -1.11101,3.80142 -1.11098,3.80143 -0.80396,3.51857 -0.80392,3.51858 -0.59988,3.36 -0.59986,3.36 -0.25202,1.56 -0.252,1.56 -0.48312,3.84 -0.4831,3.84 -0.3534,3.84 -0.35342,3.84 -0.27221,4.17064 -0.27221,4.17063 -0.17237,6.86937 -0.17237,6.86936 0.16095,0.48 0.16094,0.48 0.69154,-1.17378 0.69151,-1.17378 1.75738,-2.78622 1.75737,-2.78622 2.00415,-2.64 2.00414,-2.64 1.99848,-2.22369 1.99848,-2.22369 2.16,-1.9513 2.16,-1.9513 2.16,-1.62621 2.16,-1.62622 2.16,-1.36193 2.16,-1.36194 3.36,-1.64831 3.36,-1.64832 3.24,-1.07751 3.24,-1.0775 3,-0.6088 3,-0.60881 3.78,-0.29036 3.78,-0.29036 3.78,0.29036 3.78,0.29036 3,0.60881 3,0.6088 3.24,1.07625 3.24,1.07625 3.16226,1.55682 3.16224,1.55682 2.98294,1.99203 2.98294,1.99203 1.89482,1.53598 1.8948,1.53598 2.93861,2.86673 2.93861,2.86674 2.22139,2.61839 2.22139,2.6184 1.75087,2.44275 1.7509,2.44275 1.66281,2.77433 1.66282,2.77433 1.66109,3.46567 1.66109,3.46567 0.84098,2.16 0.84098,2.16 0.85469,2.5846 0.85469,2.58459 0.72115,2.69541 0.72113,2.6954 0.72014,3.6 0.72015,3.6 0.48216,3.72 0.48218,3.72 0.23899,2.88 0.239,2.88 0.15484,5.16 0.15485,5.16 -0.27477,5.04 -0.27478,5.04 -0.36468,3.24 -0.36468,3.24 -0.59693,3.6 -0.59695,3.6 -0.70056,3.06022 -0.70056,3.06024 -0.98417,3.3973 -0.98417,3.39729 -1.19596,3.25015 -1.19597,3.25013 -1.10081,2.53234 -1.10083,2.53233 -1.39157,2.77985 -1.39157,2.77985 -1.37393,2.38015 -1.37395,2.38015 -1.88049,2.80721 -1.8805,2.80719 -1.96546,2.44346 -1.96543,2.44346 -2.53841,2.56121 -2.53838,2.56123 -2.28,1.82168 -2.28,1.82167 -2.64,1.71643 -2.64,1.71643 -2.76,1.40835 -2.76,1.40834 -2.45669,0.97843 -2.45669,0.97843 -2.46331,0.73239 -2.46331,0.73241 -3.12,0.57244 -3.12,0.57248 -3.07308,0.25838 -3.07306,0.25838 -2.68694,-0.0334 -2.68692,-0.0334 z m 12.36,-27.29513 1.92,-0.47791 2.07197,-0.75014 2.07197,-0.75012 2.12803,-1.21971 2.12803,-1.21973 1.77175,-1.33288 1.77175,-1.33289 2.0359,-1.92715 2.0359,-1.92713 1.91772,-2.28771 1.91772,-2.2877 1.90209,-2.86426 1.9021,-2.86423 1.42193,-2.89577 1.42192,-2.89574 0.86182,-2.26992 0.86179,-2.26994 0.84079,-2.89006 0.84077,-2.89008 0.69324,-3.48 0.69324,-3.48 0.36319,-2.88 0.3632,-2.88 0.28171,-4.8 0.28171,-4.8 -0.15614,-4.68 -0.15615,-4.68 -0.35714,-3.48 -0.35717,-3.48 -0.62544,-3.48 -0.62546,-3.48 -0.91481,-3.24 -0.91481,-3.24 -0.8304,-2.16 -0.83042,-2.16 -0.85368,-1.8626 -0.85368,-1.86261 -1.34072,-2.27806 -1.34071,-2.27806 -1.76717,-2.33934 -1.76716,-2.33933 -1.84457,-1.97912 -1.84457,-1.97912 -2.35802,-1.89673 -2.35803,-1.89672 -2.25333,-1.34469 -2.25336,-1.34469 -2.30096,-0.93982 -2.30097,-0.93983 -2.4877,-0.61258 -2.48767,-0.61259 -2.16,-0.27869 -2.16,-0.27869 -3.48,0.14003 -3.48,0.14003 -2.4,0.50735 -2.4,0.50735 -1.8,0.58974 -1.8,0.58974 -2.88,1.44083 -2.88,1.44082 -2.28,1.61363 -2.28,1.61363 -3.26683,3.24006 -3.26686,3.24006 -1.93464,2.61767 -1.93464,2.61767 -1.43971,2.54233 -1.43969,2.54233 -0.97581,2.22393 -0.97582,2.22394 -0.85937,2.5686 -0.85939,2.56861 -0.69814,2.85894 -0.69811,2.85894 -0.48264,3.26852 -0.48261,3.26852 -0.24039,2.88 -0.24041,2.88 -0.002,4.69203 -0.002,4.69202 0.24696,3.22797 0.24696,3.22798 0.36903,2.76 0.36905,2.76 0.60684,3 0.60686,3 0.80633,2.80157 0.8063,2.80154 0.86861,2.35846 0.86861,2.35843 1.64877,3.36 1.6488,3.36 1.71989,2.64 1.71989,2.64 1.82258,2.28 1.82256,2.28 2.531,2.52029 2.53096,2.52031 2.08095,1.56043 2.08097,1.56043 1.9054,1.15188 1.90541,1.15188 2.22648,0.95988 2.22648,0.95988 2.06717,0.59079 2.06714,0.59076 2.16,0.3497 2.16,0.34971 3.72,-0.0975 3.72,-0.0975 1.92,-0.47791 z M 452.4,184.0589 l -1.56,-0.20023 -1.8,-0.39869 -1.8,-0.39869 -2.38418,-0.8295 -2.38419,-0.82949 -1.45581,-0.72747 -1.45582,-0.72748 -1.96346,-1.2979 -1.96344,-1.29791 -1.88501,-1.85577 -1.88501,-1.85577 -1.13402,-1.48501 -1.13405,-1.48501 -1.17372,-1.89244 -1.17372,-1.89244 -1.07172,-2.14255 -1.0717,-2.14255 -0.85627,-2.16 -0.85625,-2.16 -0.60093,-2.4 -0.60092,-2.4 -0.99175,-4.40295 -0.99177,-4.40296 0.12933,-0.33704 0.12934,-0.33705 6.06753,0.0175 6.06754,0.0175 1.30795,0.1856 1.30798,0.18561 0.88051,0.99221 0.88051,0.99221 2.72707,5.34466 2.72708,5.34467 1.38852,2.08319 1.38854,2.0832 1.10616,0.97368 1.10616,0.97368 1.22976,0.58136 1.22976,0.58136 1.5175,0.39287 1.51752,0.39287 2.32248,0.13235 2.3225,0.13235 2.4,-0.36828 2.4,-0.36829 2.04,-0.64006 2.04,-0.64005 2.0539,-1.0556 2.05387,-1.05559 1.54613,-1.28058 1.5461,-1.28058 1.36776,-1.90884 1.36776,-1.90883 1.0716,-2.03011 1.0716,-2.0301 0.73178,-2.09403 0.73179,-2.09403 0.39801,-2.10597 0.39804,-2.10597 0.006,-3.12 0.006,-3.12 -0.29445,-1.8 -0.29446,-1.8 -0.61586,-2.4 -0.61587,-2.4 -0.7859,-2.06952 -0.78593,-2.06953 -0.60038,-1.17047 -0.60039,-1.17048 -1.1591,-1.42306 -1.1591,-1.42306 -1.68,-1.27999 -1.68,-1.27998 -1.92768,-0.94284 -1.92766,-0.94284 -2.10943,-0.61129 -2.10941,-0.61129 -2.20291,-0.27095 -2.20291,-0.27096 -2.16,0.15014 -2.16,0.15013 -2.04,0.48582 -2.04,0.48582 -1.92,0.94903 -1.92,0.94904 -1.27995,1.05168 -1.27997,1.05169 -0.93938,1.17145 -0.93941,1.17146 -0.88478,1.05149 -0.88479,1.05149 -1.21586,0.56616 -1.21586,0.56617 -1.44,0.002 -1.44,0.002 -1.8,-0.34361 -1.8,-0.34361 -3.6,-0.28256 -3.6,-0.28256 -0.20768,-0.19346 -0.20767,-0.19346 2.43147,-19.64033 2.43148,-19.64033 1.43607,-12.12 1.43609,-12.12 0.45468,-3.81012 0.45468,-3.81011 0.32544,-0.20621 0.32544,-0.20621 28.692,-0.004 28.692,-0.004 0.288,0.288 0.288,0.288 v 9.744 9.744 l -0.288,0.288 -0.288,0.288 H 467.00273 444.2616 l -0.12451,0.78 -0.12454,0.78 -1.20749,12.6 -1.20748,12.6 v 0.9 0.9 h 0.0883 0.0884 l 3.69163,-1.7889 3.69166,-1.7889 2.88,-0.95197 2.88,-0.95197 2.26228,-0.37913 2.26229,-0.37913 h 2.91543 2.91542 l 2.25595,0.38752 2.25598,0.38752 1.80631,0.58408 1.80634,0.58408 2.16482,1.04691 2.16482,1.04691 1.89471,1.35938 1.89468,1.35937 1.43184,1.24212 1.43181,1.24211 1.9088,2.28 1.90881,2.28 1.3416,2.16 1.34158,2.16 1.06985,2.28 1.06982,2.28 1.02643,3.12 1.02641,3.12 0.60874,3 0.60873,3 0.31327,2.52 0.31328,2.52 -0.017,5.28 -0.017,5.28 -0.41451,2.88 -0.4145,2.88 -0.60247,2.70913 -0.60248,2.70913 -0.83244,2.51406 -0.83241,2.51407 -0.86415,1.9768 -0.86416,1.97681 -0.6056,1.08 -0.60561,1.08 -0.73373,1.2 -0.73373,1.2 -1.35588,1.8 -1.3559,1.8 -2.26217,2.16 -2.26219,2.16 -2.15191,1.46972 -2.15194,1.46972 -2.4,1.19979 -2.4,1.19978 -1.74048,0.62551 -1.74046,0.6255 -1.92638,0.49185 -1.92636,0.49184 -2.45316,0.34875 -2.45316,0.34874 -3.12,-0.026 -3.12,-0.026 -1.56,-0.20023 z M 392.64,75.78722 391.08,75.24 389.88,74.54295 388.68,73.8459 386.87995,72.02295 385.07988,70.2 384.32285,68.76 383.56579,67.32 383.1829,66.01644 382.8,64.71288 v -1.82602 -1.82601 l 0.36749,-1.41088 0.36749,-1.41087 0.77251,-1.45955 0.77251,-1.45955 1.56,-1.56246 1.56,-1.56245 1.70474,-0.89211 1.70475,-0.8921 1.53525,-0.36189 1.53526,-0.3619 h 1.32 1.32 l 1.50247,0.35425 1.50245,0.35424 1.49755,0.75424 1.49753,0.75424 1.56,1.59034 1.56,1.59034 0.76574,1.58335 0.76575,1.58336 0.40488,1.99809 0.40485,1.99808 -0.14131,1.51331 -0.14131,1.5133 -0.60422,1.73747 -0.60425,1.73747 -1.11682,1.63451 -1.11681,1.63452 -1.34825,1.20508 -1.34825,1.20509 -1.77307,0.87866 -1.77307,0.87866 -2.30693,0.0744 -2.30693,0.0744 z"
   id="path35801" />
</svg>
