<?xml version="1.0" encoding="UTF-8" standalone="no"?>
<!-- Generator: Adobe Illustrator 16.0.3, SVG Export Plug-In . SVG Version: 6.00 Build 0)  -->

<svg
   version="1.1"
   id="Ebene_1"
   x="0px"
   y="0px"
   width="666.96002"
   height="575.52002"
   viewBox="0 0 666.96002 575.52002"
   enable-background="new 0 0 800 800"
   xml:space="preserve"
   sodipodi:docname="ankuendigungstafel-85-sign.svg"
   inkscape:version="1.2.2 (732a01da63, 2022-12-09)"
   xmlns:inkscape="http://www.inkscape.org/namespaces/inkscape"
   xmlns:sodipodi="http://sodipodi.sourceforge.net/DTD/sodipodi-0.dtd"
   xmlns="http://www.w3.org/2000/svg"
   xmlns:svg="http://www.w3.org/2000/svg"><defs
   id="defs35745" /><sodipodi:namedview
   id="namedview35743"
   pagecolor="#ffffff"
   bordercolor="#000000"
   borderopacity="0.25"
   inkscape:showpageshadow="2"
   inkscape:pageopacity="0.0"
   inkscape:pagecheckerboard="0"
   inkscape:deskcolor="#d1d1d1"
   showgrid="false"
   inkscape:zoom="1.5575"
   inkscape:cx="328.41091"
   inkscape:cy="258.42697"
   inkscape:window-width="2560"
   inkscape:window-height="1494"
   inkscape:window-x="-11"
   inkscape:window-y="-11"
   inkscape:window-maximized="1"
   inkscape:current-layer="Ebene_1" />
<path
   style="fill:#fd0101;stroke-width:0.24"
   d="M 332.8705,574.14 332.09515,572.76 166.04758,286.51022 0,0.26045 V 0.13022 0 H 333.48 666.96 V 0.13259 0.26518 L 597.2172,120.79259 527.4744,241.32 l -0.78809,1.32 -0.78806,1.32 -91.67314,158.4 -91.67313,158.4 -0.96106,1.68 -0.96106,1.68 -3.30674,5.7 -3.30674,5.7 h -0.18528 -0.18528 z M 467.18309,266.03909 600.24408,34.45223 600.16208,34.20612 600.07998,33.96 H 333.82001 67.560003 l 0.0275,0.38486 0.0275,0.38486 59.762657,104.01514 59.76265,104.01514 4.30669,7.56 4.30669,7.56 9.5584,16.68 9.55839,16.68 10.61322,18.36 10.61322,18.36 33.23372,57.84 33.23371,57.84 15.55241,27.0685 15.55239,27.06847 0.22648,-0.0755 0.22652,-0.0755 z m -177.18768,56.50449 -2.44462,-0.18808 -2.59538,-0.38492 -2.59541,-0.38491 -2.76,-0.6138 -2.76,-0.6138 -3,-0.96792 -3,-0.96789 -2.88,-1.24323 -2.88,-1.24325 -2.52,-1.41316 -2.52,-1.4132 -2.62022,-1.76868 -2.62025,-1.76868 -2.5368,-2.08603 -2.5368,-2.08603 -2.64295,-2.6465 -2.64298,-2.64651 -1.82611,-2.18126 -1.82611,-2.18127 -1.68956,-2.37223 -1.68956,-2.37223 -1.36636,-2.24894 -1.36636,-2.24895 -1.62862,-3.27105 -1.62862,-3.27106 -0.89747,-2.28 -0.89748,-2.28 -0.93296,-2.86099 -0.93296,-2.86102 -0.71166,-2.89898 -0.71165,-2.89901 -0.60158,-3.48 -0.60157,-3.48 -0.37212,-3.48 -0.37211,-3.48 -0.14434,-5.64 -0.14433,-5.64 0.2822,-4.32 0.2822,-4.32 0.3672,-2.88 0.36721,-2.88 0.70052,-3.50089 0.70052,-3.5009 0.94288,-3.2191 0.94288,-3.21911 1.34939,-3.36 1.34939,-3.36 1.34141,-2.5131 1.34141,-2.5131 1.31988,-2.0469 1.31988,-2.0469 1.82659,-2.38384 1.8266,-2.38383 2.52067,-2.55785 2.5207,-2.55785 1.92,-1.51796 1.92,-1.51797 2.50394,-1.65422 2.50395,-1.65421 2.89605,-1.43454 2.89606,-1.43453 2.3814,-0.89581 2.3814,-0.8958 0.0754,-0.2358 0.0754,-0.23579 -2.81294,-1.44 -2.81292,-1.44 -2.76389,-1.83463 -2.76389,-1.83463 -2.3136,-1.93934 -2.3136,-1.93934 -1.85028,-1.98603 -1.85028,-1.98603 -1.62626,-2.16 -1.62627,-2.16 -1.10964,-1.83002 -1.10961,-1.83003 -1.30391,-2.72997 -1.30391,-2.72998 -0.87189,-2.52 -0.8719,-2.52 -0.70668,-2.88 -0.70667,-2.88 -0.47648,-3.24 -0.47648,-3.24 -0.26836,-4.47934 -0.26836,-4.47934 0.26925,-4.70787 0.26924,-4.70787 0.36505,-2.69279 0.36504,-2.69279 0.37242,-1.92 0.37243,-1.92 0.59936,-2.4 0.59936,-2.4 0.95312,-2.82194 0.95311,-2.82195 1.15633,-2.61579 1.15633,-2.61579 1.11206,-2.04012 1.11206,-2.04012 1.63676,-2.48215 1.63675,-2.48214 1.93975,-2.41032 1.93975,-2.41033 2.69707,-2.69708 2.69708,-2.69707 2.18594,-1.7565 2.18592,-1.7565 2.4,-1.61384 2.4,-1.61384 3.72833,-1.85761 3.72833,-1.85761 3.35167,-1.107 3.35167,-1.10701 2.76,-0.60922 2.76,-0.60922 3,-0.41685 3,-0.41684 5.88,0.004 5.88,0.004 3,0.41288 3,0.41288 2.76,0.61278 2.76,0.61277 3.24,1.071 3.24,1.07101 3.6,1.76733 3.6,1.76734 2.52,1.65541 2.52,1.65541 2.4,1.93681 2.4,1.93681 3.2459,3.32824 3.24591,3.32825 2.19379,2.92071 2.19382,2.92072 1.57032,2.64547 1.57032,2.64546 0.86174,1.71119 0.86174,1.71119 1.04302,2.56263 1.04302,2.56263 0.88797,2.76 0.888,2.76 0.68669,3 0.68671,3 0.48271,3.36 0.48272,3.36 0.27777,4.32 0.27775,4.32 -0.15715,3.84 -0.15715,3.84 -0.23695,2.16 -0.23695,2.16 -0.37138,2.28 -0.37135,2.28 -0.83268,3.21237 -0.83268,3.21238 -0.85923,2.30762 -0.8592,2.30763 -1.52882,3.01761 -1.5288,3.01761 -1.33675,1.99714 -1.33675,1.99713 -1.3969,1.7095 -1.39687,1.70949 -2.25015,2.21029 -2.25014,2.21029 -1.68,1.34432 -1.68,1.34432 -2.48419,1.6413 -2.48419,1.6413 -2.73291,1.39985 -2.73288,1.39985 -0.003,0.1548 -0.003,0.15481 4.38,2.16423 4.38,2.16423 2.88,1.92033 2.88,1.92032 2.03887,1.64064 2.0389,1.64064 2.4011,2.40111 2.40113,2.40112 1.63128,2.03888 1.63131,2.03889 1.39716,2.04 1.39718,2.04 1.48495,2.58351 1.48495,2.58351 1.17543,2.63804 1.17542,2.63803 1.06944,3.07406 1.06944,3.07405 0.83938,3.3444 0.83937,3.3444 0.50436,3 0.50439,3 0.35431,3.36 0.35431,3.36 0.15646,4.92 0.15645,4.92 -0.28711,4.56 -0.28713,4.56 -0.47528,3.58168 -0.47529,3.58167 -0.60567,2.89833 -0.60566,2.89832 -0.6119,2.2698 -0.61193,2.26977 -1.03579,3.024 -1.0358,3.02398 -1.22884,2.86622 -1.22888,2.86623 -1.5725,2.87781 -1.57253,2.87779 -1.77893,2.69398 -1.7789,2.69398 -1.91249,2.4006 -1.91246,2.4006 -2.10425,2.22043 -2.10425,2.22043 -2.16,2.02358 -2.16,2.02361 -2.16,1.68048 -2.16,1.68051 -2.64,1.73474 -2.64,1.73474 -2.52,1.33695 -2.52,1.33692 -3.36,1.34861 -3.36,1.34858 -3.28701,0.92981 -3.28704,0.92978 -3.67296,0.61138 -3.67299,0.61137 -3.24,0.24108 -3.24,0.24106 -3.12,-0.0336 -3.12,-0.0336 -2.44459,-0.18809 z m 11.76581,-26.98353 2.74579,-0.35993 2.24649,-0.58589 2.2465,-0.58589 1.68,-0.6328 1.68,-0.63281 2.78815,-1.43904 2.78815,-1.43904 2.55324,-1.91707 2.55322,-1.91705 2.33928,-2.32527 2.33928,-2.32526 1.5871,-2.04 1.58712,-2.04 1.15128,-1.8 1.1513,-1.8 1.51027,-3.0989 1.51027,-3.09891 1.06688,-3.26109 1.06684,-3.2611 0.501,-2.32279 0.50098,-2.32277 0.35251,-2.35723 0.35254,-2.35721 0.28089,-3.84 0.2809,-3.84 -0.1607,-4.0488 -0.16071,-4.0488 -0.34944,-2.82259 -0.34946,-2.8226 -0.48528,-2.36861 -0.48531,-2.3686 -0.61536,-2.28 -0.61536,-2.28 -1.05988,-2.72072 -1.05992,-2.72071 -1.20264,-2.34131 -1.20264,-2.34131 -1.41849,-2.13798 -1.4185,-2.13797 -1.55796,-1.93288 -1.55796,-1.93289 -2.74034,-2.62711 -2.74037,-2.62712 -1.94518,-1.39284 -1.94517,-1.39284 -1.97071,-1.17216 -1.97074,-1.17215 -2.3226,-0.96391 -2.32262,-0.9639 -2.08534,-0.60431 -2.08536,-0.60431 -2.21657,-0.41707 -2.21659,-0.41707 -4.8,-0.01 -4.8,-0.01 -2.4,0.4477 -2.4,0.44769 -2.81674,0.91925 -2.81671,0.91926 -2.09054,1.02134 -2.09055,1.02134 -2.05274,1.35418 -2.05272,1.35418 -1.2907,1.02737 -1.29069,1.02737 -1.80043,1.71016 -1.80046,1.71016 -1.81241,2.16 -1.81238,2.16 -1.6698,2.52 -1.66978,2.52 -1.50386,3.07398 -1.50387,3.07397 -1.08516,3.28603 -1.08516,3.28602 -0.60213,2.76 -0.60211,2.76 -0.38842,3 -0.38844,3 -0.13961,4.44 -0.13958,4.44 0.28231,3.65964 0.28234,3.65964 0.477,2.92382 0.477,2.92383 0.58627,2.31281 0.58627,2.31283 0.75722,2.2637 0.75725,2.26373 1.11811,2.52 1.11812,2.52 1.3798,2.34067 1.37979,2.34067 1.76717,2.33933 1.76716,2.33933 1.83833,1.97242 1.83833,1.97241 2.20627,1.85127 2.20625,1.85124 2.16,1.42096 2.16,1.42095 2.4,1.15433 2.4,1.15432 2.76,0.85292 2.76,0.85288 2.04,0.3606 2.04,0.36058 0.96,0.0872 0.96,0.0872 3.04771,0.0403 3.04771,0.0403 z M 301.2,160.9309 l 2.28,-0.34626 2.16,-0.62576 2.16,-0.62575 2.43125,-1.15809 2.43122,-1.15809 1.52878,-1.02664 1.52875,-1.02664 1.98655,-1.65938 1.98658,-1.65939 1.81058,-2.07101 1.81061,-2.07101 1.4351,-2.1455 1.43511,-2.1455 1.04174,-2.18594 1.04172,-2.18594 0.64306,-1.8 0.64305,-1.8 0.57128,-2.28 0.57127,-2.28 0.41431,-2.76 0.41429,-2.76 0.003,-4.68 0.003,-4.68 -0.29575,-2.28 -0.29578,-2.28 -0.46697,-2.24533 -0.46694,-2.24532 -0.94236,-2.8185 -0.94236,-2.81851 -1.25064,-2.49617 -1.25064,-2.49617 -1.20327,-1.8 -1.20328,-1.8 -1.54604,-1.85869 -1.54605,-1.85868 -1.96037,-1.81073 -1.96039,-1.81073 -2.11594,-1.45469 -2.11596,-1.45469 -2.08404,-1.0284 -2.08406,-1.0284 -1.80972,-0.60144 -1.80972,-0.60143 -2.03028,-0.444 -2.03028,-0.444 -4.32,0.006 -4.32,0.006 -2.03028,0.43823 -2.03028,0.43823 -1.80972,0.59697 -1.80972,0.59698 -2.09395,1.03452 -2.09398,1.03452 -1.68158,1.11792 -1.68159,1.11791 -2.10446,1.8547 -2.10444,1.8547 -2.0022,2.38983 -2.0022,2.38983 -1.34443,2.16 -1.34446,2.16 -1.13707,2.53277 -1.13707,2.53276 -0.71765,2.41573 -0.71765,2.41574 -0.54372,3.0915 -0.54372,3.0915 v 5.4 5.4 l 0.40606,2.77401 0.40605,2.77401 0.71441,2.92561 0.71438,2.9256 0.81243,2.10358 0.8124,2.10358 0.97017,1.92959 0.97018,1.9296 1.50386,2.2483 1.50387,2.24829 2.4053,2.49727 2.40528,2.49726 1.8745,1.41247 1.87449,1.41247 1.64355,0.97642 1.64357,0.97642 2.02406,0.8252 2.02404,0.8252 2.2698,0.60306 2.2698,0.60307 1.68,0.21414 1.68,0.21413 2.88,0.0289 2.88,0.0289 2.28,-0.34627 z m 151.2,23.128 -1.56,-0.20023 -1.8,-0.39869 -1.8,-0.39869 -2.38418,-0.8295 -2.38419,-0.82949 -1.45581,-0.72747 -1.45582,-0.72748 -1.96346,-1.2979 -1.96344,-1.29791 -1.88501,-1.85577 -1.88501,-1.85577 -1.13402,-1.48501 -1.13405,-1.48501 -1.17372,-1.89244 -1.17372,-1.89244 -1.07172,-2.14255 -1.0717,-2.14255 -0.85627,-2.16 -0.85625,-2.16 -0.60093,-2.4 -0.60092,-2.4 -0.99175,-4.40295 -0.99177,-4.40296 0.12933,-0.33704 0.12934,-0.33705 6.06753,0.0175 6.06754,0.0175 1.30795,0.1856 1.30798,0.18561 0.88051,0.99221 0.88051,0.99221 2.72707,5.34466 2.72708,5.34467 1.38852,2.08319 1.38854,2.0832 1.10616,0.97368 1.10616,0.97368 1.22976,0.58136 1.22976,0.58136 1.5175,0.39287 1.51752,0.39287 2.32248,0.13235 2.3225,0.13235 2.4,-0.36828 2.4,-0.36829 2.04,-0.64006 2.04,-0.64005 2.0539,-1.0556 2.05387,-1.05559 1.54613,-1.28058 1.5461,-1.28058 1.36776,-1.90884 1.36776,-1.90883 1.0716,-2.03011 1.0716,-2.0301 0.73178,-2.09403 0.73179,-2.09403 0.39801,-2.10597 0.39804,-2.10597 0.006,-3.12 0.006,-3.12 -0.29445,-1.8 -0.29446,-1.8 -0.61586,-2.4 -0.61587,-2.4 -0.7859,-2.06952 -0.78593,-2.06953 -0.60038,-1.17047 -0.60039,-1.17048 -1.1591,-1.42306 -1.1591,-1.42306 -1.68,-1.27999 -1.68,-1.27998 -1.92768,-0.94284 -1.92766,-0.94284 -2.10943,-0.61129 -2.10941,-0.61129 -2.20291,-0.27095 -2.20291,-0.27096 -2.16,0.15014 -2.16,0.15013 -2.04,0.48582 -2.04,0.48582 -1.92,0.94903 -1.92,0.94904 -1.27995,1.05168 -1.27997,1.05169 -0.93938,1.17145 -0.93941,1.17146 -0.88478,1.05149 -0.88479,1.05149 -1.21586,0.56616 -1.21586,0.56617 -1.44,0.002 -1.44,0.002 -1.8,-0.34361 -1.8,-0.34361 -3.6,-0.28256 -3.6,-0.28256 -0.20768,-0.19346 -0.20767,-0.19346 2.43147,-19.64033 2.43148,-19.64033 1.43607,-12.12 1.43609,-12.12 0.45468,-3.81012 0.45468,-3.81011 0.32544,-0.20621 0.32544,-0.20621 28.692,-0.004 28.692,-0.004 0.288,0.288 0.288,0.288 v 9.744 9.744 l -0.288,0.288 -0.288,0.288 H 467.00273 444.2616 l -0.12451,0.78 -0.12454,0.78 -1.20749,12.6 -1.20748,12.6 v 0.9 0.9 h 0.0883 0.0884 l 3.69163,-1.7889 3.69166,-1.7889 2.88,-0.95197 2.88,-0.95197 2.26228,-0.37913 2.26229,-0.37913 h 2.91543 2.91542 l 2.25595,0.38752 2.25598,0.38752 1.80631,0.58408 1.80634,0.58408 2.16482,1.04691 2.16482,1.04691 1.89471,1.35938 1.89468,1.35937 1.43184,1.24212 1.43181,1.24211 1.9088,2.28 1.90881,2.28 1.3416,2.16 1.34158,2.16 1.06985,2.28 1.06982,2.28 1.02643,3.12 1.02641,3.12 0.60874,3 0.60873,3 0.31327,2.52 0.31328,2.52 -0.017,5.28 -0.017,5.28 -0.41451,2.88 -0.4145,2.88 -0.60247,2.70913 -0.60248,2.70913 -0.83244,2.51406 -0.83241,2.51407 -0.86415,1.9768 -0.86416,1.97681 -0.6056,1.08 -0.60561,1.08 -0.73373,1.2 -0.73373,1.2 -1.35588,1.8 -1.3559,1.8 -2.26217,2.16 -2.26219,2.16 -2.15191,1.46972 -2.15194,1.46972 -2.4,1.19979 -2.4,1.19978 -1.74048,0.62551 -1.74046,0.6255 -1.92638,0.49185 -1.92636,0.49184 -2.45316,0.34875 -2.45316,0.34874 -3.12,-0.026 -3.12,-0.026 -1.56,-0.20023 z M 392.64,75.78722 391.08,75.24 389.88,74.54295 388.68,73.8459 386.87995,72.02295 385.07988,70.2 384.32285,68.76 383.56579,67.32 383.1829,66.01644 382.8,64.71288 v -1.82602 -1.82601 l 0.36749,-1.41088 0.36749,-1.41087 0.77251,-1.45955 0.77251,-1.45955 1.56,-1.56246 1.56,-1.56245 1.70474,-0.89211 1.70475,-0.8921 1.53525,-0.36189 1.53526,-0.3619 h 1.32 1.32 l 1.50247,0.35425 1.50245,0.35424 1.49755,0.75424 1.49753,0.75424 1.56,1.59034 1.56,1.59034 0.76574,1.58335 0.76575,1.58336 0.40488,1.99809 0.40485,1.99808 -0.14131,1.51331 -0.14131,1.5133 -0.60422,1.73747 -0.60425,1.73747 -1.11682,1.63451 -1.11681,1.63452 -1.34825,1.20508 -1.34825,1.20509 -1.77307,0.87866 -1.77307,0.87866 -2.30693,0.0744 -2.30693,0.0744 z"
   id="path35747" />
<path
   style="opacity:1;fill:#ffffff;stroke-width:0.10192;stroke-linecap:round;stroke-miterlimit:3.7"
   d="M 311.40168,458.24874 C 299.08437,436.80584 274.29311,393.69181 256.30998,362.43981 238.32686,331.1878 210.68669,283.08186 194.88737,255.53772 143.22232,165.46615 69.5623,37.270837 68.62467,35.794543 L 67.707155,34.34992 H 333.78599 599.86483 L 466.97169,265.65008 C 393.88047,392.86517 334.01515,497.0145 333.93767,497.09305 c -0.0775,0.0786 -10.21868,-17.40139 -22.53599,-38.84431 z m -7.06781,-135.63948 c 15.7558,-1.78507 28.20097,-7.57187 39.49985,-18.36676 5.74199,-5.48586 9.68987,-10.4512 13.50928,-16.99092 14.35701,-24.58261 14.50843,-64.20374 0.33689,-88.15451 -2.9882,-5.05025 -11.10703,-13.96026 -15.98713,-17.54507 -1.81099,-1.33032 -5.58013,-3.61068 -8.37584,-5.06747 l -5.08312,-2.64868 4.58528,-2.67796 c 12.85714,-7.50897 20.89695,-18.35249 24.61216,-33.19514 1.21053,-4.83618 1.43046,-7.49872 1.45194,-17.57752 0.0285,-13.34981 -0.81346,-18.7728 -4.3975,-28.325121 -7.22673,-19.260957 -22.96034,-34.017272 -41.8051,-39.208375 -4.43769,-1.222434 -6.7523,-1.414917 -17.01445,-1.414917 -10.21489,0 -12.5972,0.19631 -17.01444,1.402043 -23.76892,6.487964 -41.59644,27.659433 -45.21835,53.70004 -0.98411,7.07544 -0.84989,20.45765 0.26957,26.8771 1.25401,7.19104 4.30116,15.50135 7.49683,20.44568 4.78236,7.39923 12.84565,14.71674 20.4375,18.54721 l 2.88924,1.45777 -2.28229,0.7906 c -6.45568,2.23631 -15.82175,8.4618 -20.64445,13.72208 -9.90908,10.80817 -15.4992,24.58822 -17.23853,42.49422 -2.38744,24.578 3.26863,47.87291 15.59956,64.24786 15.36717,20.40695 38.74858,30.39101 64.3731,27.48784 z M 466.02555,183.6386 c 14.5229,-3.07709 24.08415,-12.61325 29.11046,-29.03405 1.58927,-5.19207 1.7283,-6.52878 1.72274,-16.56282 -0.005,-9.24181 -0.22226,-11.70228 -1.4166,-16.05136 -2.79093,-10.16302 -7.40993,-17.58527 -14.2629,-22.919018 -5.45383,-4.244775 -9.83086,-5.789386 -17.42004,-6.147364 -6.78186,-0.319897 -12.32241,0.898689 -18.63868,4.099385 l -3.06596,1.553635 v -1.399915 c 0,-2.045975 1.94861,-23.08974 2.29434,-24.777341 l 0.29428,-1.436524 22.94326,-0.168612 22.94325,-0.168613 V 60.35313 50.080257 l -29.61144,-0.166871 -29.61144,-0.166871 -0.45533,4.661253 c -0.25044,2.563689 -2.16606,18.653245 -4.25695,35.754569 -2.09088,17.101323 -3.8016,31.330853 -3.8016,31.621183 0,0.29034 1.02781,0.52788 2.28402,0.52788 1.25622,0 4.27734,0.32918 6.71361,0.73153 5.48976,0.90661 7.19232,0.31357 10.51641,-3.66311 7.5392,-9.0193 24.27312,-8.68993 32.2548,0.63486 5.25165,6.13537 7.42223,21.24326 4.20429,29.26301 -4.11139,10.24641 -12.03623,15.67251 -22.6862,15.53312 -7.82932,-0.10247 -9.94499,-1.8363 -15.95146,-13.07249 -2.26181,-4.23112 -4.10834,-6.89609 -5.13644,-7.41306 -0.97237,-0.48895 -4.19948,-0.81087 -8.18619,-0.8166 l -6.58106,-0.009 v 1.63399 c 0,0.89869 0.71866,4.58248 1.59704,8.18619 2.92517,12.00119 9.30716,21.91586 17.12851,26.60981 6.98497,4.192 17.80271,5.67407 27.07528,3.70941 z M 400.51343,75.689142 c 7.4555,-3.760348 10.57915,-12.722868 6.8123,-19.546211 -3.36479,-6.095064 -11.15709,-8.525804 -17.27758,-5.38959 -4.13425,2.118445 -7.70465,7.757204 -7.70465,12.168007 0,8.939367 10.76402,16.503121 18.16993,12.767794 z"
   id="path19306" /><path
   style="opacity:1;fill:#ffffff;stroke-width:0.10192;stroke-linecap:round;stroke-miterlimit:3.7"
   d="m 286.01912,159.34937 c -11.74925,-3.93725 -20.56881,-14.24312 -23.79833,-27.80894 -1.86877,-7.84985 -1.53132,-20.85215 0.71212,-27.43929 3.39451,-9.966845 10.27162,-18.011474 19.17535,-22.430702 5.07773,-2.520255 5.75816,-2.685535 12.00834,-2.916899 5.39185,-0.199592 7.45259,0.0059 11.06673,1.103686 10.53018,3.198445 19.35631,12.307024 23.58185,24.336505 2.32972,6.63235 2.94612,19.90048 1.27375,27.41748 -3.08699,13.87544 -13.20225,24.97683 -25.73174,28.24035 -5.4553,1.42093 -13.18245,1.20874 -18.28807,-0.50219 z"
   id="path19308" /><path
   style="opacity:1;fill:#ffffff;stroke-width:0.10192;stroke-linecap:round;stroke-miterlimit:3.7"
   d="m 288.92456,295.05604 c -14.2124,-3.08756 -26.79736,-14.16426 -32.75711,-28.83131 -0.84348,-2.07581 -2.15303,-6.77421 -2.91012,-10.44088 -1.1756,-5.6936 -1.33072,-8.11925 -1.06278,-16.61852 0.27132,-8.60659 0.57354,-10.83217 2.23575,-16.46426 2.32084,-7.86374 4.9019,-12.86679 9.53685,-18.48596 9.19611,-11.14886 20.70202,-16.43268 33.89157,-15.5639 6.3624,0.41908 10.17884,1.41158 15.27978,3.97363 9.13905,4.59029 17.2535,13.21157 21.73261,23.09004 5.67252,12.51046 6.84637,31.41375 2.82825,45.54484 -2.61488,9.19612 -6.09795,15.23697 -12.46167,21.61289 -8.68696,8.7036 -15.93201,12.01229 -27.32437,12.47857 -3.5313,0.14454 -7.57624,0.0118 -8.98876,-0.29514 z"
   id="path19310" /></svg>
