<?xml version="1.0" encoding="UTF-8" standalone="no"?>
<!-- Generator: Adobe Illustrator 16.0.3, SVG Export Plug-In . SVG Version: 6.00 Build 0)  -->

<svg
   version="1.1"
   id="Ebene_1"
   x="0px"
   y="0px"
   width="666.96002"
   height="575.52002"
   viewBox="0 0 666.96002 575.52002"
   enable-background="new 0 0 800 800"
   xml:space="preserve"
   sodipodi:docname="ankuendigungstafel-25-sign.svg"
   inkscape:version="1.2.2 (732a01da63, 2022-12-09)"
   xmlns:inkscape="http://www.inkscape.org/namespaces/inkscape"
   xmlns:sodipodi="http://sodipodi.sourceforge.net/DTD/sodipodi-0.dtd"
   xmlns="http://www.w3.org/2000/svg"
   xmlns:svg="http://www.w3.org/2000/svg"><defs
   id="defs35907" /><sodipodi:namedview
   id="namedview35905"
   pagecolor="#ffffff"
   bordercolor="#000000"
   borderopacity="0.25"
   inkscape:showpageshadow="2"
   inkscape:pageopacity="0.0"
   inkscape:pagecheckerboard="0"
   inkscape:deskcolor="#d1d1d1"
   showgrid="false"
   inkscape:zoom="1.5575"
   inkscape:cx="309.79133"
   inkscape:cy="209.63082"
   inkscape:window-width="2560"
   inkscape:window-height="1494"
   inkscape:window-x="-11"
   inkscape:window-y="-11"
   inkscape:window-maximized="1"
   inkscape:current-layer="Ebene_1" />
<path
   style="fill:#fd0101;stroke-width:0.24"
   d="M 332.8705,574.14 332.09515,572.76 166.04758,286.51022 0,0.26045 V 0.13022 0 H 333.48 666.96 V 0.13259 0.26518 L 597.2172,120.79259 527.4744,241.32 l -0.78809,1.32 -0.78806,1.32 -91.67314,158.4 -91.67313,158.4 -0.96106,1.68 -0.96106,1.68 -3.30674,5.7 -3.30674,5.7 h -0.18528 -0.18528 z M 467.18309,266.03909 600.24408,34.45223 600.16208,34.20612 600.07998,33.96 H 333.82001 67.560001 l 0.0275,0.38486 0.0275,0.38486 59.762659,104.01514 59.76265,104.01514 4.30669,7.56 4.30669,7.56 9.5584,16.68 9.55839,16.68 10.61322,18.36 10.61322,18.36 33.23372,57.84 33.23371,57.84 15.55241,27.0685 15.55239,27.06847 0.22648,-0.0755 0.22652,-0.0755 z m -234.30572,51.81638 -0.14786,-0.38534 0.14515,-3.63507 0.14515,-3.63506 0.49659,-3.30487 0.49659,-3.30487 0.95414,-3.80033 0.95415,-3.80035 1.16405,-3.45478 1.16406,-3.4548 1.26586,-3.12 1.26588,-3.12 2.08591,-4.32 2.08594,-4.32 1.60082,-2.81366 1.60082,-2.81367 2.12024,-3.31519 2.12025,-3.31519 2.48491,-3.47115 2.48492,-3.47114 2.41178,-3.12 2.41178,-3.12 3.51096,-4.2 3.51099,-4.2 3.21477,-3.59924 3.21478,-3.59924 3.62134,-3.84076 3.62131,-3.84076 9.57869,-9.72504 9.57866,-9.72504 3.48,-3.72157 3.48,-3.72158 3.2419,-3.59339 3.24187,-3.59338 2.89209,-3.36 2.89208,-3.36 3.0078,-3.72 3.0078,-3.72 2.40799,-3.24 2.40799,-3.24 2.27702,-3.48 2.27705,-3.48 1.11401,-1.97308 1.11401,-1.97309 1.80876,-3.6189 1.80876,-3.61891 1.10673,-2.68801 1.10672,-2.68801 1.0313,-3.06116 1.03128,-3.06115 0.61087,-2.45885 0.61087,-2.45884 0.51147,-2.88 0.51146,-2.88 0.1183,-5.3153 0.11827,-5.3153 -0.28553,-2.4847 -0.28553,-2.4847 -0.4829,-2.52 -0.48288,-2.52 -1.02703,-3.12 -1.02706,-3.12 -1.26115,-2.52 -1.26115,-2.52 -1.32526,-2.04 -1.32525,-2.04 -1.38603,-1.69627 -1.386,-1.69628 -2.3814,-2.26372 -2.38137,-2.26373 -2.08548,-1.48282 -2.08546,-1.48281 -2.61538,-1.33779 -2.61535,-1.33779 L 321.0781,80.05572 318.6,79.23266 316.8,78.86901 315,78.50537 312.96629,78.25268 310.9326,78 h -2.934 -2.93402 l -2.73646,0.35872 -2.73648,0.35872 -2.33863,0.59324 -2.33861,0.59324 -2.66506,1.08259 -2.66503,1.0826 -2.43605,1.46928 -2.43604,1.46929 -2.42448,2.022 -2.42448,2.022 -1.94868,2.21416 -1.94868,2.21416 -1.53108,2.28501 -1.53111,2.28502 -1.30824,2.63498 -1.30821,2.63499 -0.88563,2.38822 -0.8856,2.38823 -0.8136,3.23033 -0.8136,3.23034 -0.48153,3.26144 -0.48156,3.26144 -0.24039,2.88 -0.24041,2.88 -0.002,2.20584 -0.002,2.20583 -0.18,0.1058 -0.18,0.1058 -13.41381,-1.63745 -13.4138,-1.63744 -0.19917,-0.19916 -0.19916,-0.19917 0.36513,-3.59502 0.36513,-3.59503 0.60216,-3.96 0.60217,-3.96 0.82494,-3.86125 0.82493,-3.86124 0.95635,-3.27044 0.95633,-3.27045 1.0691,-2.94831 1.0691,-2.94831 1.22943,-2.76 1.2294,-2.76 1.10666,-2.04 1.10667,-2.04 1.19445,-1.92 1.19443,-1.92 2.03919,-2.76 2.03918,-2.76 3.74559,-3.73675 3.7456,-3.73676 2.76,-2.04918 2.76,-2.04919 2.4,-1.44191 2.4,-1.44192 1.92,-0.96227 1.92,-0.96227 2.84096,-1.12144 2.84097,-1.12143 2.91238,-0.83827 2.9124,-0.83827 2.88806,-0.57466 2.88809,-0.57466 3.47856,-0.42493 3.47858,-0.42494 h 6.48 6.48 l 3.48,0.42495 3.48,0.42495 3,0.60713 3,0.60714 2.76,0.8329 2.76,0.83291 2.16,0.85346 2.16,0.85346 2.80666,1.42323 2.80668,1.42323 2.39494,1.60774 2.39496,1.60775 2.4148,2.00272 2.41484,2.00271 1.79712,1.91035 1.79712,1.91035 1.58131,1.96694 1.58131,1.96693 2.11246,3.12 2.11245,3.12 1.51337,2.63088 1.51339,2.63088 1.17067,2.48187 1.1707,2.48188 1.2011,3.04724 1.20108,3.04725 1.04758,3.60216 1.0476,3.60216 0.61303,3.14408 0.61306,3.1441 0.42261,2.97375 0.4226,2.97375 0.004,8.04 0.004,8.04 -0.31268,2.52 -0.31264,2.52 -0.47732,2.88 -0.47728,2.88 -0.8496,3.48 -0.84958,3.48 -1.26835,3.8488 -1.26833,3.84879 -1.25542,2.99121 -1.25541,2.9912 -1.39899,2.88 -1.39898,2.88 -1.84109,3.24 -1.84109,3.24 -3.0245,4.55213 -3.0245,4.55214 -3.62844,4.83282 -3.62844,4.83283 -3.09932,3.81504 -3.09928,3.81504 -4.28112,4.9855 -4.28112,4.98551 -3.50674,3.89449 -3.50674,3.8945 -3.23695,3.48 -3.23693,3.48 -11.07837,11.52 -11.07838,11.52 -4.03375,4.32 -4.03373,4.32 -3.27549,3.72 -3.27548,3.72 -1.80741,2.28 -1.80742,2.28 -1.58894,2.22247 -1.58895,2.22245 -1.82083,2.8741 -1.82081,2.87409 -1.31481,2.48417 -1.31479,2.48419 v 0.27874 0.27873 l 53.34,0.0605 53.34,0.0605 v 15.6 15.6 l -71.9474,0.0604 -71.94736,0.0604 -0.14787,-0.38532 z M 452.4,184.0589 l -1.56,-0.20023 -1.8,-0.39869 -1.8,-0.39869 -2.38418,-0.8295 -2.38419,-0.82949 -1.45581,-0.72747 -1.45582,-0.72748 -1.96346,-1.2979 -1.96344,-1.29791 -1.88501,-1.85577 -1.88501,-1.85577 -1.13402,-1.48501 -1.13405,-1.48501 -1.17372,-1.89244 -1.17372,-1.89244 -1.07172,-2.14255 -1.0717,-2.14255 -0.85627,-2.16 -0.85625,-2.16 -0.60093,-2.4 -0.60092,-2.4 -0.99175,-4.40295 -0.99177,-4.40296 0.12933,-0.33704 0.12934,-0.33705 6.06753,0.0175 6.06754,0.0175 1.30795,0.1856 1.30798,0.18561 0.88051,0.99221 0.88051,0.99221 2.72707,5.34466 2.72708,5.34467 1.38852,2.08319 1.38854,2.0832 1.10616,0.97368 1.10616,0.97368 1.22976,0.58136 1.22976,0.58136 1.5175,0.39287 1.51752,0.39287 2.32248,0.13235 2.3225,0.13235 2.4,-0.36828 2.4,-0.36829 2.04,-0.64006 2.04,-0.64005 2.0539,-1.0556 2.05387,-1.05559 1.54613,-1.28058 1.5461,-1.28058 1.36776,-1.90884 1.36776,-1.90883 1.0716,-2.03011 1.0716,-2.0301 0.73178,-2.09403 0.73179,-2.09403 0.39801,-2.10597 0.39804,-2.10597 0.006,-3.12 0.006,-3.12 -0.29445,-1.8 -0.29446,-1.8 -0.61586,-2.4 -0.61587,-2.4 -0.7859,-2.06952 -0.78593,-2.06953 -0.60038,-1.17047 -0.60039,-1.17048 -1.1591,-1.42306 -1.1591,-1.42306 -1.68,-1.27999 -1.68,-1.27998 -1.92768,-0.94284 -1.92766,-0.94284 -2.10943,-0.61129 -2.10941,-0.61129 -2.20291,-0.27095 -2.20291,-0.27096 -2.16,0.15014 -2.16,0.15013 -2.04,0.48582 -2.04,0.48582 -1.92,0.94903 -1.92,0.94904 -1.27995,1.05168 -1.27997,1.05169 -0.93938,1.17145 -0.93941,1.17146 -0.88478,1.05149 -0.88479,1.05149 -1.21586,0.56616 -1.21586,0.56617 -1.44,0.002 -1.44,0.002 -1.8,-0.34361 -1.8,-0.34361 -3.6,-0.28256 -3.6,-0.28256 -0.20768,-0.19346 -0.20767,-0.19346 2.43147,-19.64033 2.43148,-19.64033 1.43607,-12.12 1.43609,-12.12 0.45468,-3.81012 0.45468,-3.81011 0.32544,-0.20621 0.32544,-0.20621 28.692,-0.004 28.692,-0.004 0.288,0.288 0.288,0.288 v 9.744 9.744 l -0.288,0.288 -0.288,0.288 H 467.00273 444.2616 l -0.12451,0.78 -0.12454,0.78 -1.20749,12.6 -1.20748,12.6 v 0.9 0.9 h 0.0883 0.0884 l 3.69163,-1.7889 3.69166,-1.7889 2.88,-0.95197 2.88,-0.95197 2.26228,-0.37913 2.26229,-0.37913 h 2.91543 2.91542 l 2.25595,0.38752 2.25598,0.38752 1.80631,0.58408 1.80634,0.58408 2.16482,1.04691 2.16482,1.04691 1.89471,1.35938 1.89468,1.35937 1.43184,1.24212 1.43181,1.24211 1.9088,2.28 1.90881,2.28 1.3416,2.16 1.34158,2.16 1.06985,2.28 1.06982,2.28 1.02643,3.12 1.02641,3.12 0.60874,3 0.60873,3 0.31327,2.52 0.31328,2.52 -0.017,5.28 -0.017,5.28 -0.41451,2.88 -0.4145,2.88 -0.60247,2.70913 -0.60248,2.70913 -0.83244,2.51406 -0.83241,2.51407 -0.86415,1.9768 -0.86416,1.97681 -0.6056,1.08 -0.60561,1.08 -0.73373,1.2 -0.73373,1.2 -1.35588,1.8 -1.3559,1.8 -2.26217,2.16 -2.26219,2.16 -2.15191,1.46972 -2.15194,1.46972 -2.4,1.19979 -2.4,1.19978 -1.74048,0.62551 -1.74046,0.6255 -1.92638,0.49185 -1.92636,0.49184 -2.45316,0.34875 -2.45316,0.34874 -3.12,-0.026 -3.12,-0.026 -1.56,-0.20023 z M 392.64,75.78722 391.08,75.24 389.88,74.54295 388.68,73.8459 386.87995,72.02295 385.07988,70.2 384.32285,68.76 383.56579,67.32 383.1829,66.01644 382.8,64.71288 v -1.82602 -1.82601 l 0.36749,-1.41088 0.36749,-1.41087 0.77251,-1.45955 0.77251,-1.45955 1.56,-1.56246 1.56,-1.56245 1.70474,-0.89211 1.70475,-0.8921 1.53525,-0.36189 1.53526,-0.3619 h 1.32 1.32 l 1.50247,0.35425 1.50245,0.35424 1.49755,0.75424 1.49753,0.75424 1.56,1.59034 1.56,1.59034 0.76574,1.58335 0.76575,1.58336 0.40488,1.99809 0.40485,1.99808 -0.14131,1.51331 -0.14131,1.5133 -0.60422,1.73747 -0.60425,1.73747 -1.11682,1.63451 -1.11681,1.63452 -1.34825,1.20508 -1.34825,1.20509 -1.77307,0.87866 -1.77307,0.87866 -2.30693,0.0744 -2.30693,0.0744 z"
   id="path35909" />
<path
   style="opacity:1;mix-blend-mode:normal;fill:#ffffff;stroke-width:0.10192;stroke-linecap:round;stroke-miterlimit:3.7"
   d="M 311.40168,458.24874 C 299.08437,436.80584 274.29452,393.69181 256.31312,362.43981 238.33172,331.1878 210.69105,283.08186 194.88941,255.53772 140.35904,160.4848 69.539458,37.234872 68.62467,35.794543 L 67.707155,34.34992 H 333.78599 599.86483 L 466.97169,265.65008 C 393.88047,392.86517 334.01515,497.0145 333.93767,497.09305 c -0.0775,0.0786 -10.21868,-17.40139 -22.53599,-38.84431 z m 30.65289,-139.89539 35.15249,-0.42547 v -15.62525 -15.62526 h -53.29053 c -29.30979,0 -53.27505,-0.2167 -53.25613,-0.48154 0.0189,-0.26485 1.68023,-3.14911 3.69181,-6.40947 6.33362,-10.26551 11.65139,-16.37283 40.20877,-46.1788 40.83194,-42.61718 55.69942,-65.0031 60.76866,-91.49916 1.19385,-6.24004 1.32781,-8.72849 1.06209,-19.72889 -0.33867,-14.02062 -1.20282,-18.71724 -5.38395,-29.261591 -7.81294,-19.70334 -21.35518,-33.468983 -38.10248,-38.731033 -8.8057,-2.766776 -10.90645,-3.023534 -24.39808,-2.981994 -12.08262,0.0372 -13.66863,0.177228 -19.33796,1.707313 -12.21693,3.2972 -21.62243,8.758009 -29.84336,17.326972 -10.65328,11.104299 -16.79442,24.632343 -20.15194,44.391883 -0.71101,4.18437 -1.29274,8.9751 -1.29274,10.64606 v 3.03812 l 12.35955,1.44572 c 6.79775,0.79516 12.95913,1.58487 13.69196,1.75493 1.26227,0.29293 1.37267,-0.10227 2.09737,-7.50802 1.03107,-10.53656 2.22814,-15.14166 5.95947,-22.9258 2.61767,-5.46088 3.97172,-7.399212 7.94312,-11.370616 12.21863,-12.21863 30.21234,-15.09774 45.87272,-7.339935 9.38846,4.650834 17.64316,14.42112 20.55636,24.330571 4.69018,15.95399 3.07279,30.23046 -5.41905,47.83306 -7.72911,16.02158 -19.35127,30.56933 -47.20275,59.0849 -29.8352,30.5466 -41.50125,45.11135 -50.12584,62.5808 -7.20972,14.60359 -10.07916,24.0549 -10.67348,35.15613 l -0.38669,7.22312 37.17407,-6.5e-4 c 20.44573,-3.5e-4 52.99268,-0.1921 72.32654,-0.4261 z M 466.02555,183.6386 c 14.5229,-3.07709 24.08415,-12.61325 29.11046,-29.03405 1.58927,-5.19207 1.7283,-6.52878 1.72274,-16.56282 -0.005,-9.24181 -0.22226,-11.70228 -1.4166,-16.05136 -2.79093,-10.16302 -7.40993,-17.58527 -14.2629,-22.919018 -5.45383,-4.244775 -9.83086,-5.789386 -17.42004,-6.147364 -6.78186,-0.319897 -12.32241,0.898689 -18.63868,4.099385 l -3.06596,1.553635 v -1.399915 c 0,-2.045975 1.94861,-23.08974 2.29434,-24.777341 l 0.29428,-1.436524 22.94326,-0.168612 22.94325,-0.168613 V 60.35313 50.080257 l -29.61144,-0.166871 -29.61144,-0.166871 -0.45533,4.661253 c -0.25044,2.563689 -2.16606,18.653245 -4.25695,35.754569 -2.09088,17.101323 -3.8016,31.330853 -3.8016,31.621183 0,0.29034 1.02781,0.52788 2.28402,0.52788 1.25622,0 4.27734,0.32918 6.71361,0.73153 5.48976,0.90661 7.19232,0.31357 10.51641,-3.66311 7.5392,-9.0193 24.27312,-8.68993 32.2548,0.63486 5.25165,6.13537 7.42223,21.24326 4.20429,29.26301 -4.11139,10.24641 -12.03623,15.67251 -22.6862,15.53312 -7.82932,-0.10247 -9.94499,-1.8363 -15.95146,-13.07249 -2.26181,-4.23112 -4.10834,-6.89609 -5.13644,-7.41306 -0.97237,-0.48895 -4.19948,-0.81087 -8.18619,-0.8166 l -6.58106,-0.009 v 1.63399 c 0,0.89869 0.71866,4.58248 1.59704,8.18619 2.92517,12.00119 9.30716,21.91586 17.12851,26.60981 6.98497,4.192 17.80271,5.67407 27.07528,3.70941 z M 400.51343,75.689142 c 7.4555,-3.760348 10.57915,-12.722868 6.8123,-19.546211 -3.36479,-6.095064 -11.15709,-8.525804 -17.27758,-5.38959 -4.13425,2.118445 -7.70465,7.757204 -7.70465,12.168007 0,8.939367 10.76402,16.503121 18.16993,12.767794 z"
   id="path3840" /></svg>
