<?xml version="1.0" encoding="UTF-8" standalone="no"?>
<!-- Generator: Adobe Illustrator 16.0.3, SVG Export Plug-In . SVG Version: 6.00 Build 0)  -->

<svg
   version="1.1"
   id="Ebene_1"
   x="0px"
   y="0px"
   width="666.96002"
   height="575.52002"
   viewBox="0 0 666.96002 575.52002"
   enable-background="new 0 0 800 800"
   xml:space="preserve"
   sodipodi:docname="ankuendigungstafel-45-sign.svg"
   inkscape:version="1.2.2 (732a01da63, 2022-12-09)"
   xmlns:inkscape="http://www.inkscape.org/namespaces/inkscape"
   xmlns:sodipodi="http://sodipodi.sourceforge.net/DTD/sodipodi-0.dtd"
   xmlns="http://www.w3.org/2000/svg"
   xmlns:svg="http://www.w3.org/2000/svg"><defs
   id="defs35853" /><sodipodi:namedview
   id="namedview35851"
   pagecolor="#ffffff"
   bordercolor="#000000"
   borderopacity="0.25"
   inkscape:showpageshadow="2"
   inkscape:pageopacity="0.0"
   inkscape:pagecheckerboard="0"
   inkscape:deskcolor="#d1d1d1"
   showgrid="false"
   inkscape:zoom="8.8105505"
   inkscape:cx="276.42995"
   inkscape:cy="212.86979"
   inkscape:window-width="2560"
   inkscape:window-height="1494"
   inkscape:window-x="-11"
   inkscape:window-y="-11"
   inkscape:window-maximized="1"
   inkscape:current-layer="Ebene_1" />
<path
   style="fill:#fd0101;stroke-width:0.24"
   d="M 332.87049,574.14 332.09514,572.76 166.04757,286.51022 0,0.26045 V 0.13022 0 h 333.47999 333.48 v 0.13259 0.13259 l -69.7428,120.52741 -69.7428,120.52741 -0.78809,1.32 -0.78806,1.32 -91.67314,158.4 -91.67313,158.4 -0.96106,1.68 -0.96105,1.68 -3.30674,5.7 -3.30674,5.7 h -0.18528 -0.18528 z M 467.18308,266.03909 600.24407,34.45223 600.16207,34.20612 600.07997,33.96 H 333.82001 67.559995 l 0.0275,0.38486 0.0275,0.38486 59.762665,104.01514 59.76265,104.01514 4.30669,7.56 4.30669,7.56 9.5584,16.68 9.55839,16.68 10.61322,18.36 10.61322,18.36 33.23372,57.84 33.2337,57.84 15.55241,27.0685 15.5524,27.06847 0.22647,-0.0755 0.22653,-0.0755 z m -145.18107,52.04294 -0.16202,-0.16202 V 286.53962 255.15926 L 321.69431,254.77963 321.54863,254.4 H 274.41431 227.27999 V 239.2831 224.1662 L 276.94633,138.1831 326.61265,52.2 h 10.87368 10.87366 l 0.12084,86.04 0.12082,86.04 0.0592,0.06 0.0592,0.06 h 14.61432 14.61432 l 0.14568,0.37963 0.14568,0.37963 V 239.4 253.64074 l -0.14568,0.37963 -0.14568,0.37963 h -14.61438 -14.61432 l -0.0578,0.06 -0.0578,0.06 -0.12221,31.8 -0.12221,31.8 -13.09798,0.062 -13.09797,0.062 z m -0.3077,-94.06166 0.14568,-0.37963 -0.004,-58.96037 -0.004,-58.96037 -0.20362,-0.32125 -0.20364,-0.32124 -0.48892,0.80124 -0.48893,0.80125 -33.37959,58.64969 -33.37958,58.64968 0.12996,0.21032 0.12998,0.21031 h 33.80016 33.80016 l 0.14568,-0.37963 z m 130.70568,-39.96147 -1.56,-0.20023 -1.8,-0.39869 -1.79999,-0.39869 -2.38419,-0.8295 -2.38418,-0.82949 -1.45581,-0.72747 -1.45582,-0.72748 -1.96346,-1.2979 -1.96344,-1.29791 -1.88501,-1.85577 -1.88502,-1.85577 -1.13401,-1.48501 -1.13405,-1.48501 -1.17373,-1.89244 -1.17372,-1.89244 -1.07172,-2.14255 -1.0717,-2.14255 -0.85627,-2.16 -0.85625,-2.16 -0.60093,-2.4 -0.60092,-2.4 -0.99175,-4.40295 -0.99177,-4.40296 0.12933,-0.33704 0.12934,-0.33705 6.06753,0.0175 6.06754,0.0175 1.30795,0.1856 1.30798,0.18561 0.88051,0.99221 0.88051,0.99221 2.72708,5.34466 2.72708,5.34467 1.38851,2.08319 1.38855,2.0832 1.10616,0.97368 1.10616,0.97368 1.22976,0.58136 1.22976,0.58136 1.5175,0.39287 1.51752,0.39287 2.32248,0.13235 2.3225,0.13235 2.4,-0.36828 2.4,-0.36829 2.04,-0.64006 2.04,-0.64005 2.0539,-1.0556 2.05387,-1.05559 1.54613,-1.28058 1.5461,-1.28058 1.36776,-1.90884 1.36776,-1.90883 1.0716,-2.03011 1.0716,-2.0301 0.73177,-2.09403 0.7318,-2.09403 0.39801,-2.10597 0.39804,-2.10597 0.006,-3.12 0.006,-3.12 -0.29445,-1.8 -0.29446,-1.8 -0.61586,-2.4 -0.61587,-2.4 -0.7859,-2.06952 -0.78593,-2.06953 -0.60038,-1.17047 -0.60039,-1.17048 -1.1591,-1.42306 -1.1591,-1.42306 -1.68,-1.27999 -1.68,-1.27998 -1.92768,-0.94284 -1.92766,-0.94284 -2.10943,-0.61129 -2.10941,-0.61129 -2.20291,-0.27095 -2.20291,-0.27096 -2.16,0.15014 -2.16,0.15013 -2.04,0.48582 -2.04,0.48582 -1.92,0.94903 -1.92,0.94904 -1.27995,1.05168 -1.27997,1.05169 -0.93938,1.17145 -0.93941,1.17146 -0.88478,1.05149 -0.88479,1.05149 -1.21586,0.56616 -1.21586,0.56617 -1.44,0.002 -1.44,0.002 -1.8,-0.34361 -1.8,-0.34361 -3.6,-0.28256 -3.6,-0.28256 -0.20768,-0.19346 -0.20767,-0.19346 2.43147,-19.64033 2.43148,-19.64033 1.43607,-12.12 1.43609,-12.12 0.45468,-3.81012 0.45468,-3.81011 0.32544,-0.20621 0.32544,-0.20621 28.692,-0.004 28.692,-0.004 0.288,0.288 0.288,0.288 v 9.744 9.744 l -0.288,0.288 -0.288,0.288 H 467.00273 444.2616 l -0.12451,0.78 -0.12454,0.78 -1.20749,12.6 -1.20748,12.6 v 0.9 0.9 h 0.0883 0.0884 l 3.69163,-1.7889 3.69166,-1.7889 2.88,-0.95197 2.88,-0.95197 2.26228,-0.37913 2.26229,-0.37913 h 2.91543 2.91542 l 2.25595,0.38752 2.25598,0.38752 1.80631,0.58408 1.80634,0.58408 2.16482,1.04691 2.16482,1.04691 1.89471,1.35938 1.89468,1.35937 1.43184,1.24212 1.43181,1.24211 1.9088,2.28 1.90881,2.28 1.3416,2.16 1.34158,2.16 1.06985,2.28 1.06982,2.28 1.02643,3.12 1.02641,3.12 0.60874,3 0.60873,3 0.31327,2.52 0.31328,2.52 -0.017,5.28 -0.017,5.28 -0.41451,2.88 -0.4145,2.88 -0.60247,2.70913 -0.60248,2.70913 -0.83244,2.51406 -0.83241,2.51407 -0.86415,1.9768 -0.86416,1.97681 -0.6056,1.08 -0.60561,1.08 -0.73373,1.2 -0.73373,1.2 -1.35588,1.8 -1.3559,1.8 -2.26217,2.16 -2.26219,2.16 -2.15191,1.46972 -2.15194,1.46972 -2.4,1.19979 -2.4,1.19978 -1.74048,0.62551 -1.74046,0.6255 -1.92638,0.49185 -1.92636,0.49184 -2.45316,0.34875 -2.45316,0.34874 -3.12,-0.026 -3.12,-0.026 -1.56,-0.20023 z m -59.76,-108.27168 -1.56,-0.54722 -1.2,-0.69705 -1.2,-0.69705 -1.80005,-1.82295 -1.80007,-1.82295 -0.75703,-1.44 -0.75706,-1.44 -0.38289,-1.30356 -0.3829,-1.30356 v -1.82602 -1.82601 l 0.36749,-1.41088 0.36749,-1.41087 0.77251,-1.45955 0.77251,-1.45955 1.56,-1.56246 1.56,-1.56245 1.70474,-0.89211 1.70475,-0.8921 1.53525,-0.36189 1.53526,-0.3619 h 1.32 1.32 l 1.50247,0.35425 1.50245,0.35424 1.49755,0.75424 1.49753,0.75424 1.56,1.59034 1.56,1.59034 0.76574,1.58335 0.76575,1.58336 0.40488,1.99809 0.40485,1.99808 -0.14131,1.51331 -0.1413,1.5133 -0.60423,1.73747 -0.60425,1.73747 -1.11681,1.63451 -1.11681,1.63452 -1.34825,1.20508 -1.34825,1.20509 -1.77308,0.87866 -1.77307,0.87866 -2.30693,0.0744 -2.30693,0.0744 z"
   id="path35855" />
<path
   style="opacity:1;fill:#ffffff;stroke-width:0.10192;stroke-linecap:round;stroke-miterlimit:3.7"
   d="M 311.40168,458.24874 C 299.08437,436.80584 274.29452,393.69181 256.31312,362.43981 238.33172,331.1878 210.69105,283.08186 194.88941,255.53772 140.35904,160.4848 69.539458,37.234872 68.62467,35.794543 L 67.707155,34.34992 H 333.78599 599.86483 L 466.97169,265.65008 C 393.88047,392.86517 334.01515,497.0145 333.93767,497.09305 c -0.0775,0.0786 -10.21868,-17.40139 -22.53599,-38.84431 z m 31.29495,-139.88983 6.26003,-0.41454 v -31.68486 -31.68487 h 14.76726 14.76725 V 239.48636 224.39807 H 363.72392 348.95666 V 138.02692 51.655763 l -11.33376,0.175329 -11.33376,0.175329 -49.66143,85.973339 -49.66142,85.97334 v 15.31077 15.31077 h 47.19101 47.19101 v 31.67469 c 0,17.42108 0.19262,31.86731 0.42804,32.10273 0.54427,0.54427 12.74441,0.54826 20.92028,0.007 z M 466.02555,183.6386 c 14.5229,-3.07709 24.08415,-12.61325 29.11046,-29.03405 1.58927,-5.19207 1.7283,-6.52878 1.72274,-16.56282 -0.005,-9.24181 -0.22226,-11.70228 -1.4166,-16.05136 -2.79093,-10.16302 -7.40993,-17.58527 -14.2629,-22.919018 -5.45383,-4.244775 -9.83086,-5.789386 -17.42004,-6.147364 -6.78186,-0.319897 -12.32241,0.898689 -18.63868,4.099385 l -3.06596,1.553635 v -1.399915 c 0,-2.045975 1.94861,-23.08974 2.29434,-24.777341 l 0.29428,-1.436524 22.94326,-0.168612 22.94325,-0.168613 V 60.35313 50.080257 l -29.61144,-0.166871 -29.61144,-0.166871 -0.45533,4.661253 c -0.25044,2.563689 -2.16606,18.653245 -4.25695,35.754569 -2.09088,17.101323 -3.8016,31.330853 -3.8016,31.621183 0,0.29034 1.02781,0.52788 2.28402,0.52788 1.25622,0 4.27734,0.32918 6.71361,0.73153 5.48976,0.90661 7.19232,0.31357 10.51641,-3.66311 8.82693,-10.55984 28.80892,-8.01054 34.64446,4.41994 3.82047,8.1381 4.509,18.21001 1.74177,25.47872 -3.85083,10.11505 -11.94115,15.672 -22.61334,15.53233 -7.82932,-0.10247 -9.94499,-1.8363 -15.95146,-13.07249 -2.26181,-4.23112 -4.10834,-6.89609 -5.13644,-7.41306 -0.97237,-0.48895 -4.19948,-0.81087 -8.18619,-0.8166 l -6.58106,-0.009 v 1.63399 c 0,0.89869 0.71866,4.58248 1.59704,8.18619 2.92517,12.00119 9.30716,21.91586 17.12851,26.60981 6.98497,4.192 17.80271,5.67407 27.07528,3.70941 z M 400.51343,75.689142 c 7.4555,-3.760348 10.57915,-12.722868 6.8123,-19.546211 -3.36479,-6.095064 -11.15709,-8.525804 -17.27758,-5.38959 -4.13425,2.118445 -7.70465,7.757204 -7.70465,12.168007 0,8.939367 10.76402,16.503121 18.16993,12.767794 z"
   id="path8970" /><path
   style="opacity:1;fill:none;stroke-width:0.10192;stroke-linecap:round;stroke-miterlimit:3.7"
   d="m 254.14481,223.91653 c 0.1584,-0.26484 15.00455,-26.34029 32.99145,-57.94542 17.98689,-31.60514 33.0341,-58.04174 33.43822,-58.748 0.55575,-0.97122 0.73954,13.14774 0.75431,57.94543 l 0.0195,59.22953 h -33.74575 c -18.56017,0 -33.61616,-0.21669 -33.45775,-0.48154 z"
   id="path11172" /><path
   style="opacity:1;fill:#ffffff;stroke-width:0.0180171;stroke-linecap:round;stroke-miterlimit:3.7"
   d="m 253.88443,224.16306 c -0.0359,-0.0936 -0.0365,-0.24528 -0.001,-0.33699 0.0921,-0.2399 66.39568,-116.73732 67.03077,-117.77505 l 0.53015,-0.86626 0.19303,0.33633 c 0.18102,0.3154 0.19302,3.99551 0.19302,59.16316 0,52.2656 -0.0192,58.87269 -0.17177,59.23796 l -0.17178,0.41111 h -33.76837 c -29.91163,0 -33.77584,-0.0194 -33.83371,-0.17026 z"
   id="path12651" /><path
   style="opacity:1;fill:#ffffff;stroke-width:0.0180171;stroke-linecap:round;stroke-miterlimit:3.7"
   d="m 253.88166,224.15582 c -0.0375,-0.0976 -0.0166,-0.28914 0.0462,-0.42562 0.10374,-0.22511 9.33805,-16.4574 52.63544,-92.52387 7.81719,-13.73353 14.36333,-25.20658 14.54697,-25.49565 l 0.33389,-0.52559 0.19293,0.33616 c 0.18089,0.31519 0.19293,4.00766 0.19293,59.18051 0,51.12832 -0.0216,58.89596 -0.16446,59.23795 l -0.16446,0.39361 h -33.77569 c -30.53029,0 -33.78223,-0.0171 -33.84379,-0.1775 z"
   id="path12653" /></svg>
