<?xml version="1.0" encoding="UTF-8" standalone="no"?>
<svg
   xmlns:dc="http://purl.org/dc/elements/1.1/"
   xmlns:cc="http://creativecommons.org/ns#"
   xmlns:rdf="http://www.w3.org/1999/02/22-rdf-syntax-ns#"
   xmlns:svg="http://www.w3.org/2000/svg"
   xmlns="http://www.w3.org/2000/svg"
   version="1.1"
   id="svg3894"
   height="195.97978"
   width="226.80804">
  <defs
     id="defs3896" />
  <metadata
     id="metadata3899">
    <rdf:RDF>
      <cc:Work
         rdf:about="">
        <dc:format>image/svg+xml</dc:format>
        <dc:type
           rdf:resource="http://purl.org/dc/dcmitype/StillImage" />
        <dc:title></dc:title>
      </cc:Work>
    </rdf:RDF>
  </metadata>
  <path
     style="fill:#ffffff;fill-opacity:1;stroke:#ff0000;stroke-width:12;stroke-linecap:butt;stroke-linejoin:miter;stroke-miterlimit:4;stroke-dasharray:none;stroke-opacity:1"
     d="M 10.404021,6 113.40402,184.00001 216.40402,6 Z"
     id="path3925" />
  <g
     transform="translate(30.181797,-878.73469)"
     style="font-style:normal;font-variant:normal;font-weight:normal;font-stretch:normal;font-size:144px;line-height:125%;font-family:'Swis721 BT';-inkscape-font-specification:'Swis721 BT';text-align:start;writing-mode:lr-tb;text-anchor:start;fill:#ff0000;fill-opacity:1;stroke:none"
     id="text4437">
    <path
       d="m 67.964409,904.31158 c 4.218734,-4.26552 9.304667,-6.39833 15.257812,-6.39843 5.953093,10e-5 11.039025,2.13291 15.257813,6.39843 4.218706,4.21884 6.328076,9.30478 6.328126,15.25782 l 0,14.34375 c -5e-5,5.48443 -1.82817,10.28911 -5.484376,14.41406 3.656206,4.12505 5.484326,8.92973 5.484376,14.41406 l 0,14.41406 c -5e-5,5.95315 -2.10942,11.03908 -6.328126,15.25782 -4.218788,4.21875 -9.30472,6.32812 -15.257813,6.32812 -5.953145,0 -11.039078,-2.10937 -15.257812,-6.32812 -4.218757,-4.21874 -6.32813,-9.30467 -6.328125,-15.25782 l 0,-7.24218 14.34375,0 0,7.24218 c -1.9e-5,2.01565 0.703105,3.72658 2.109375,5.13282 1.406227,1.35939 3.117163,2.03907 5.132812,2.03906 2.015597,10e-6 3.703095,-0.67967 5.0625,-2.03906 1.406217,-1.40624 2.109342,-3.11717 2.109375,-5.13282 l 0,-14.41406 c -3.3e-5,-2.01559 -0.703158,-3.70308 -2.109375,-5.0625 -1.359405,-1.40621 -3.046903,-2.10933 -5.0625,-2.10937 l 0,-14.41407 c 2.015597,6e-5 3.703095,-0.70306 5.0625,-2.10937 1.406217,-1.40619 2.109342,-3.11713 2.109375,-5.13281 l 0,-14.34375 c -3.3e-5,-2.01555 -0.703158,-3.72648 -2.109375,-5.13282 -1.359405,-1.40616 -3.046903,-2.10928 -5.0625,-2.10937 -2.015649,9e-5 -3.726585,0.70321 -5.132812,2.10937 -1.40627,1.40634 -2.109394,3.11727 -2.109375,5.13282 l 0,7.17187 -14.34375,0 0,-7.17187 c -5e-6,-5.95304 2.109368,-11.03898 6.328125,-15.25782"
       style="font-weight:bold;font-family:OSP-DIN;-inkscape-font-specification:'OSP-DIN Bold'"
       id="path3124" />
  </g>
</svg>
