<?xml version="1.0" encoding="UTF-8" standalone="no"?>
<!-- Generator: Adobe Illustrator 16.0.3, SVG Export Plug-In . SVG Version: 6.00 Build 0)  -->

<svg
   version="1.1"
   id="Ebene_1"
   x="0px"
   y="0px"
   width="155.71957"
   height="788.87292"
   viewBox="0 0 155.71957 788.87292"
   enable-background="new 0 0 800 800"
   xml:space="preserve"
   sodipodi:docname="eisenbahnkreuzungs-ueberwachungssignal_3EK.svg"
   inkscape:version="1.2.2 (732a01da63, 2022-12-09)"
   xmlns:inkscape="http://www.inkscape.org/namespaces/inkscape"
   xmlns:sodipodi="http://sodipodi.sourceforge.net/DTD/sodipodi-0.dtd"
   xmlns="http://www.w3.org/2000/svg"
   xmlns:svg="http://www.w3.org/2000/svg"><defs
   id="defs404">
	
	
	
	
	
	
	
	

		
		
		
		
		
		
		
		
	</defs><sodipodi:namedview
   id="namedview402"
   pagecolor="#ffffff"
   bordercolor="#000000"
   borderopacity="0.25"
   inkscape:showpageshadow="2"
   inkscape:pageopacity="0.0"
   inkscape:pagecheckerboard="0"
   inkscape:deskcolor="#d1d1d1"
   showgrid="false"
   inkscape:zoom="0.76249997"
   inkscape:cx="651.14757"
   inkscape:cy="556.06559"
   inkscape:window-width="2560"
   inkscape:window-height="1494"
   inkscape:window-x="-11"
   inkscape:window-y="-11"
   inkscape:window-maximized="1"
   inkscape:current-layer="g130284" />

<g
   id="g130284"
   transform="translate(-320.67081,-5.98682)"><rect
     x="377.29611"
     y="161.70641"
     fill="#808080"
     width="42.468979"
     height="76.859444"
     id="rect351"
     style="stroke-width:2.39934" /><path
     d="m 476.39038,137.43841 c 0,13.402 -10.86598,24.26799 -24.26798,24.26799 H 344.93879 c -13.402,0 -24.26798,-10.86599 -24.26798,-24.26799 V 30.254806 c 0,-13.401995 10.86598,-24.267986 24.26798,-24.267986 H 452.1224 c 13.402,0 24.26798,10.865991 24.26798,24.267986 z"
     id="path353"
     style="stroke-width:2.02233" /><circle
     fill="#ffe700"
     cx="398.2515"
     cy="83.787949"
     r="27.916273"
     id="circle355"
     style="stroke-width:2.02233" /><g
     id="g373"
     transform="matrix(2.0223322,0,0,2.0223322,-413.43578,-345.89898)">
			<line
   fill="#ffe700"
   stroke="#ffff00"
   stroke-width="2"
   stroke-miterlimit="10"
   x1="402"
   y1="199"
   x2="402"
   y2="187"
   id="line357" />
			<line
   fill="#ffe700"
   stroke="#ffff00"
   stroke-width="2"
   stroke-miterlimit="10"
   x1="402"
   y1="238"
   x2="402"
   y2="226"
   id="line359" />
			<line
   fill="#ffe700"
   stroke="#ffff00"
   stroke-width="2"
   stroke-miterlimit="10"
   x1="415"
   y1="212"
   x2="424"
   y2="212"
   id="line361" />
			<line
   fill="#ffe700"
   stroke="#ffff00"
   stroke-width="2"
   stroke-miterlimit="10"
   x1="379"
   y1="212"
   x2="388"
   y2="212"
   id="line363" />
			
				<line
   fill="#ffe700"
   stroke="#ffff00"
   stroke-width="2"
   stroke-miterlimit="10"
   x1="382.34601"
   y1="193.67101"
   x2="391.27301"
   y2="202.90199"
   id="line365" />
			
				<line
   fill="#ffe700"
   stroke="#ffff00"
   stroke-width="2"
   stroke-miterlimit="10"
   x1="411.34601"
   y1="221.67101"
   x2="420.27301"
   y2="230.90199"
   id="line367" />
			
				<line
   fill="#ffe700"
   stroke="#ffff00"
   stroke-width="2"
   stroke-miterlimit="10"
   x1="411.30301"
   y1="202.85899"
   x2="420.31699"
   y2="193.714"
   id="line369" />
			
				<line
   fill="#ffe700"
   stroke="#ffff00"
   stroke-width="2"
   stroke-miterlimit="10"
   x1="382.30301"
   y1="230.85899"
   x2="391.31699"
   y2="221.714"
   id="line371" />
		</g><path
     fill="none"
     d="M 456.16706,497.14556"
     id="path375"
     style="stroke-width:2.02233" /><rect
     x="338.54776"
     y="239.98535"
     fill="#ffffff"
     stroke="#000000"
     stroke-width="3.39665"
     stroke-miterlimit="10"
     width="117.94328"
     height="553.17609"
     id="rect377" /><rect
     x="338.87177"
     y="240.30936"
     width="117.29527"
     height="182.0099"
     id="rect379"
     style="stroke-width:2.02233" /><circle
     fill="#ffe700"
     cx="398.2515"
     cy="291.82022"
     r="33.983273"
     id="circle381"
     style="stroke-width:2.02233" /><polyline
     points="430,405 430,426 372,459 372,437  "
     id="polyline385"
     transform="matrix(2.0223322,0,0,2.0223322,-413.43578,-321.89898)" /><polyline
     points="430,446 430,467 372,500 372,478  "
     id="polyline387"
     transform="matrix(2.0223322,0,0,2.0223322,-413.43578,-321.89898)" /><polyline
     points="430,488 430,509 372,542 372,520  "
     id="polyline393"
     transform="matrix(2.0223322,0,0,2.0223322,-413.43578,-321.89898)" /><polyline
     points="430,364 430,385 372,418 372,396  "
     id="polyline397"
     transform="matrix(2.0223322,0,0,2.0223322,-413.43578,-321.89898)" /><rect
     style="fill:#ffffff;stroke:#000000;stroke-width:0.711082;stroke-linecap:butt;stroke-linejoin:round;stroke-dasharray:none;stroke-opacity:1"
     id="rect127351"
     width="135.2188"
     height="67.985703"
     x="329.06595"
     y="166.31543" /><text
     xml:space="preserve"
     style="font-weight:bold;font-size:53.3333px;font-family:Arial;-inkscape-font-specification:'Arial Bold';fill:#ffffff;stroke:#000000;stroke-width:1;stroke-linecap:butt;stroke-linejoin:round;stroke-dasharray:none;stroke-opacity:1"
     x="335.23819"
     y="218.39168"
     id="text130259"><tspan
       sodipodi:role="line"
       id="tspan130257"
       x="335.23819"
       y="218.39168"
       style="font-size:53.3333px;fill:#000000;stroke:none">3 EK</tspan></text></g></svg>
