<?xml version="1.0" encoding="UTF-8" standalone="no"?>
<!-- Generator: Adobe Illustrator 16.0.3, SVG Export Plug-In . SVG Version: 6.00 Build 0)  -->

<svg
   version="1.1"
   id="Ebene_1"
   x="0px"
   y="0px"
   width="155.71957"
   height="764.87292"
   viewBox="0 0 155.71957 764.87292"
   enable-background="new 0 0 800 800"
   xml:space="preserve"
   sodipodi:docname="eisenbahnkreuzungs-ueberwachungssignal.svg"
   inkscape:version="1.2.2 (732a01da63, 2022-12-09)"
   xmlns:inkscape="http://www.inkscape.org/namespaces/inkscape"
   xmlns:sodipodi="http://sodipodi.sourceforge.net/DTD/sodipodi-0.dtd"
   xmlns="http://www.w3.org/2000/svg"
   xmlns:svg="http://www.w3.org/2000/svg"><defs
   id="defs404">
	
	
	
	
	
	
	
	

		
		
		
		
		
		
		
		
	</defs><sodipodi:namedview
   id="namedview402"
   pagecolor="#ffffff"
   bordercolor="#000000"
   borderopacity="0.25"
   inkscape:showpageshadow="2"
   inkscape:pageopacity="0.0"
   inkscape:pagecheckerboard="0"
   inkscape:deskcolor="#d1d1d1"
   showgrid="false"
   inkscape:zoom="1.0783378"
   inkscape:cx="414.99055"
   inkscape:cy="500.77072"
   inkscape:window-width="2560"
   inkscape:window-height="1494"
   inkscape:window-x="-11"
   inkscape:window-y="-11"
   inkscape:window-maximized="1"
   inkscape:current-layer="Ebene_1" />
<g
   id="g544"
   transform="matrix(1.3264761,0,0,1.3264761,-449.50763,-35.122819)"><rect
     x="381.56204"
     y="143.87172"
     fill="#808080"
     width="32.016392"
     height="41.163929"
     id="rect351"
     style="stroke-width:1.52459" /><path
     d="m 456.26695,125.57664 c 0,10.10346 -8.19162,18.29508 -18.29508,18.29508 H 357.1686 c -10.10346,0 -18.29508,-8.19162 -18.29508,-18.29508 V 44.77337 c 0,-10.103458 8.19162,-18.29508 18.29508,-18.29508 h 80.80327 c 10.10346,0 18.29508,8.191622 18.29508,18.29508 z"
     id="path353"
     style="stroke-width:1.52459" /><circle
     fill="#ffe700"
     cx="397.35983"
     cy="85.130783"
     r="21.045441"
     id="circle355"
     style="stroke-width:1.52459" /><g
     id="g373"
     transform="matrix(1.52459,0,0,1.52459,-214.55265,-238.80037)">
			<line
   fill="#ffe700"
   stroke="#ffff00"
   stroke-width="2"
   stroke-miterlimit="10"
   x1="402"
   y1="199"
   x2="402"
   y2="187"
   id="line357" />
			<line
   fill="#ffe700"
   stroke="#ffff00"
   stroke-width="2"
   stroke-miterlimit="10"
   x1="402"
   y1="238"
   x2="402"
   y2="226"
   id="line359" />
			<line
   fill="#ffe700"
   stroke="#ffff00"
   stroke-width="2"
   stroke-miterlimit="10"
   x1="415"
   y1="212"
   x2="424"
   y2="212"
   id="line361" />
			<line
   fill="#ffe700"
   stroke="#ffff00"
   stroke-width="2"
   stroke-miterlimit="10"
   x1="379"
   y1="212"
   x2="388"
   y2="212"
   id="line363" />
			
				<line
   fill="#ffe700"
   stroke="#ffff00"
   stroke-width="2"
   stroke-miterlimit="10"
   x1="382.34601"
   y1="193.67101"
   x2="391.27301"
   y2="202.90199"
   id="line365" />
			
				<line
   fill="#ffe700"
   stroke="#ffff00"
   stroke-width="2"
   stroke-miterlimit="10"
   x1="411.34601"
   y1="221.67101"
   x2="420.27301"
   y2="230.90199"
   id="line367" />
			
				<line
   fill="#ffe700"
   stroke="#ffff00"
   stroke-width="2"
   stroke-miterlimit="10"
   x1="411.30301"
   y1="202.85899"
   x2="420.31699"
   y2="193.714"
   id="line369" />
			
				<line
   fill="#ffe700"
   stroke="#ffff00"
   stroke-width="2"
   stroke-miterlimit="10"
   x1="382.30301"
   y1="230.85899"
   x2="391.31699"
   y2="221.714"
   id="line371" />
		</g><path
     fill="none"
     d="M 441.02105,378.65858"
     id="path375"
     style="stroke-width:1.52459" /><rect
     x="352.35056"
     y="184.79138"
     fill="#ffffff"
     stroke="#000000"
     stroke-width="2.56066"
     stroke-miterlimit="10"
     width="88.914742"
     height="417.02679"
     id="rect377" /><rect
     x="352.59482"
     y="185.03564"
     width="88.426224"
     height="137.2131"
     id="rect379"
     style="stroke-width:1.52459" /><circle
     fill="#ffe700"
     cx="397.35983"
     cy="223.8685"
     r="25.619211"
     id="circle381"
     style="stroke-width:1.52459" /><polyline
     points="430,405 430,426 372,459 372,437  "
     id="polyline385"
     transform="matrix(1.52459,0,0,1.52459,-214.55265,-238.80037)" /><polyline
     points="430,446 430,467 372,500 372,478  "
     id="polyline387"
     transform="matrix(1.52459,0,0,1.52459,-214.55265,-238.80037)" /><polyline
     points="430,488 430,509 372,542 372,520  "
     id="polyline393"
     transform="matrix(1.52459,0,0,1.52459,-214.55265,-238.80037)" /><polyline
     points="430,364 430,385 372,418 372,396  "
     id="polyline397"
     transform="matrix(1.52459,0,0,1.52459,-214.55265,-238.80037)" /></g>
</svg>
