<?xml version="1.0" encoding="UTF-8" standalone="no"?>
<!-- Generator: Adobe Illustrator 16.0.3, SVG Export Plug-In . SVG Version: 6.00 Build 0)  -->

<svg
   version="1.1"
   id="Ebene_1"
   x="0px"
   y="0px"
   width="155.71957"
   height="788.87292"
   viewBox="0 0 155.71957 788.87292"
   enable-background="new 0 0 800 800"
   xml:space="preserve"
   sodipodi:docname="eisenbahnkreuzungs-ueberwachungssignal_3EK.svg"
   inkscape:version="1.2.2 (732a01da63, 2022-12-09)"
   xmlns:inkscape="http://www.inkscape.org/namespaces/inkscape"
   xmlns:sodipodi="http://sodipodi.sourceforge.net/DTD/sodipodi-0.dtd"
   xmlns="http://www.w3.org/2000/svg"
   xmlns:svg="http://www.w3.org/2000/svg"><defs
   id="defs404">
	
	
	
	
	
	
	
	

		
		
		
		
		
		
		
		
	</defs><sodipodi:namedview
   id="namedview402"
   pagecolor="#ffffff"
   bordercolor="#000000"
   borderopacity="0.25"
   inkscape:showpageshadow="2"
   inkscape:pageopacity="0.0"
   inkscape:pagecheckerboard="0"
   inkscape:deskcolor="#d1d1d1"
   showgrid="false"
   inkscape:zoom="3.0499999"
   inkscape:cx="170.00001"
   inkscape:cy="151.14755"
   inkscape:window-width="2560"
   inkscape:window-height="1494"
   inkscape:window-x="-11"
   inkscape:window-y="-11"
   inkscape:window-maximized="1"
   inkscape:current-layer="text130259" />

<g
   id="g130284"
   transform="translate(-320.67081,-5.98682)"><rect
     x="377.29611"
     y="161.70641"
     fill="#808080"
     width="42.468979"
     height="76.859444"
     id="rect351"
     style="stroke-width:2.39934" /><path
     d="m 476.39038,137.43841 c 0,13.402 -10.86598,24.26799 -24.26798,24.26799 H 344.93879 c -13.402,0 -24.26798,-10.86599 -24.26798,-24.26799 V 30.254806 c 0,-13.401995 10.86598,-24.267986 24.26798,-24.267986 H 452.1224 c 13.402,0 24.26798,10.865991 24.26798,24.267986 z"
     id="path353"
     style="stroke-width:2.02233" /><circle
     fill="#ffe700"
     cx="398.2515"
     cy="83.787949"
     r="27.916273"
     id="circle355"
     style="stroke-width:2.02233" /><g
     id="g373"
     transform="matrix(2.0223322,0,0,2.0223322,-413.43578,-345.89898)">
			<line
   fill="#ffe700"
   stroke="#ffff00"
   stroke-width="2"
   stroke-miterlimit="10"
   x1="402"
   y1="199"
   x2="402"
   y2="187"
   id="line357" />
			<line
   fill="#ffe700"
   stroke="#ffff00"
   stroke-width="2"
   stroke-miterlimit="10"
   x1="402"
   y1="238"
   x2="402"
   y2="226"
   id="line359" />
			<line
   fill="#ffe700"
   stroke="#ffff00"
   stroke-width="2"
   stroke-miterlimit="10"
   x1="415"
   y1="212"
   x2="424"
   y2="212"
   id="line361" />
			<line
   fill="#ffe700"
   stroke="#ffff00"
   stroke-width="2"
   stroke-miterlimit="10"
   x1="379"
   y1="212"
   x2="388"
   y2="212"
   id="line363" />
			
				<line
   fill="#ffe700"
   stroke="#ffff00"
   stroke-width="2"
   stroke-miterlimit="10"
   x1="382.34601"
   y1="193.67101"
   x2="391.27301"
   y2="202.90199"
   id="line365" />
			
				<line
   fill="#ffe700"
   stroke="#ffff00"
   stroke-width="2"
   stroke-miterlimit="10"
   x1="411.34601"
   y1="221.67101"
   x2="420.27301"
   y2="230.90199"
   id="line367" />
			
				<line
   fill="#ffe700"
   stroke="#ffff00"
   stroke-width="2"
   stroke-miterlimit="10"
   x1="411.30301"
   y1="202.85899"
   x2="420.31699"
   y2="193.714"
   id="line369" />
			
				<line
   fill="#ffe700"
   stroke="#ffff00"
   stroke-width="2"
   stroke-miterlimit="10"
   x1="382.30301"
   y1="230.85899"
   x2="391.31699"
   y2="221.714"
   id="line371" />
		</g><path
     fill="none"
     d="M 456.16706,497.14556"
     id="path375"
     style="stroke-width:2.02233" /><rect
     x="338.54776"
     y="239.98535"
     fill="#ffffff"
     stroke="#000000"
     stroke-width="3.39665"
     stroke-miterlimit="10"
     width="117.94328"
     height="553.17609"
     id="rect377" /><rect
     x="338.87177"
     y="240.30936"
     width="117.29527"
     height="182.0099"
     id="rect379"
     style="stroke-width:2.02233" /><circle
     fill="#ffe700"
     cx="398.2515"
     cy="291.82022"
     r="33.983273"
     id="circle381"
     style="stroke-width:2.02233" /><polyline
     points="430,405 430,426 372,459 372,437  "
     id="polyline385"
     transform="matrix(2.0223322,0,0,2.0223322,-413.43578,-321.89898)" /><polyline
     points="430,446 430,467 372,500 372,478  "
     id="polyline387"
     transform="matrix(2.0223322,0,0,2.0223322,-413.43578,-321.89898)" /><polyline
     points="430,488 430,509 372,542 372,520  "
     id="polyline393"
     transform="matrix(2.0223322,0,0,2.0223322,-413.43578,-321.89898)" /><polyline
     points="430,364 430,385 372,418 372,396  "
     id="polyline397"
     transform="matrix(2.0223322,0,0,2.0223322,-413.43578,-321.89898)" /><rect
     style="fill:#ffffff;stroke:#000000;stroke-width:0.711082;stroke-linecap:butt;stroke-linejoin:round;stroke-dasharray:none;stroke-opacity:1"
     id="rect127351"
     width="135.2188"
     height="67.985703"
     x="329.06595"
     y="166.31543" /><g
     aria-label="3 EK"
     id="text130259"
     style="font-weight:bold;font-size:53.3333px;font-family:Arial;-inkscape-font-specification:'Arial Bold';fill:#ffffff;stroke:#000000;stroke-linejoin:round"><path
       d="m 337.2434,208.26148 7.08333,-0.85938 q 0.33854,2.70833 1.82291,4.14062 1.48438,1.43229 3.59375,1.43229 2.26562,0 3.80208,-1.71874 1.5625,-1.71875 1.5625,-4.63542 0,-2.76041 -1.48437,-4.375 -1.48438,-1.61458 -3.61979,-1.61458 -1.40625,0 -3.35938,0.54688 l 0.80729,-5.96354 q 2.96875,0.0781 4.53125,-1.27604 1.5625,-1.38021 1.5625,-3.64583 0,-1.92709 -1.14583,-3.07292 -1.14583,-1.14583 -3.04688,-1.14583 -1.87499,0 -3.20312,1.30208 -1.32812,1.30208 -1.61458,3.80208 l -6.74479,-1.14583 q 0.70313,-3.46354 2.10938,-5.52083 1.43229,-2.08333 3.95833,-3.25521 2.55208,-1.19791 5.70312,-1.19791 5.39062,0 8.64583,3.4375 2.68229,2.81249 2.68229,6.35416 0,5.02604 -5.49479,8.02083 3.28125,0.70312 5.23437,3.15104 1.97917,2.44791 1.97917,5.91145 0,5.02604 -3.67188,8.5677 -3.67187,3.54167 -9.14062,3.54167 -5.18229,0 -8.59374,-2.96875 -3.41146,-2.99479 -3.95833,-7.81249 z"
       style="fill:#000000;stroke:none"
       id="path33103" /><path
       d="m 383.59754,218.39168 v -38.17706 h 28.30727 v 6.45833 h -20.59894 v 8.46353 h 19.16665 v 6.43229 h -19.16665 v 10.39062 h 21.32811 v 6.43229 z"
       style="fill:#000000;stroke:none"
       id="path33105" /><path
       d="m 419.27459,218.39168 v -38.17706 h 7.70833 v 16.95311 l 15.57291,-16.95311 h 10.36458 l -14.37499,14.86978 15.15624,23.30728 h -9.97395 l -10.49479,-17.91666 -6.25,6.38021 v 11.53645 z"
       style="fill:#000000;stroke:none"
       id="path33107" /></g></g></svg>
