<?xml version="1.0" encoding="UTF-8" standalone="no"?>
<!-- Generator: Adobe Illustrator 16.0.3, SVG Export Plug-In . SVG Version: 6.00 Build 0)  -->

<svg
   version="1.1"
   id="Ebene_1"
   x="0px"
   y="0px"
   width="343.35254"
   height="972.23364"
   viewBox="0 0 343.35254 972.23366"
   enable-background="new 0 0 800 800"
   xml:space="preserve"
   sodipodi:docname="ek-sicht_gruppenpfeiftafel_50.svg"
   inkscape:version="1.2.2 (732a01da63, 2022-12-09)"
   xmlns:inkscape="http://www.inkscape.org/namespaces/inkscape"
   xmlns:sodipodi="http://sodipodi.sourceforge.net/DTD/sodipodi-0.dtd"
   xmlns="http://www.w3.org/2000/svg"
   xmlns:svg="http://www.w3.org/2000/svg"><defs
   id="defs880" /><sodipodi:namedview
   id="namedview878"
   pagecolor="#ffffff"
   bordercolor="#000000"
   borderopacity="0.25"
   inkscape:showpageshadow="2"
   inkscape:pageopacity="0.0"
   inkscape:pagecheckerboard="0"
   inkscape:deskcolor="#d1d1d1"
   showgrid="false"
   inkscape:zoom="0.70710678"
   inkscape:cx="275.06454"
   inkscape:cy="316.78384"
   inkscape:window-width="2560"
   inkscape:window-height="1494"
   inkscape:window-x="-11"
   inkscape:window-y="-11"
   inkscape:window-maximized="1"
   inkscape:current-layer="text111087" />


<g
   id="g23392"><g
     id="g857"
     transform="matrix(1.4780846,0,0,1.4780846,-483.46625,-202.49759)">
	<g
   opacity="0.4"
   id="g845">
		<path
   fill="#ffffff"
   stroke="#000000"
   stroke-width="2"
   stroke-miterlimit="10"
   d="M 378,244"
   id="path835" />
		<path
   fill="#ffffff"
   stroke="#000000"
   stroke-width="2"
   stroke-miterlimit="10"
   d="M 378,328"
   id="path837" />
		<path
   fill="#ffffff"
   stroke="#000000"
   stroke-width="2"
   stroke-miterlimit="10"
   d="M 378,412"
   id="path839" />
		<path
   fill="#ffffff"
   stroke="#000000"
   stroke-width="2"
   stroke-miterlimit="10"
   d="M 378,495"
   id="path841" />
		<path
   fill="#ffffff"
   stroke="#000000"
   stroke-width="2"
   stroke-miterlimit="10"
   d="M 378,580"
   id="path843" />
	</g>
	<path
   d="M 378,205"
   id="path847" />
	<path
   d="M 423,137"
   id="path849" />
	<path
   d="M 378,178"
   id="path851" />
	<path
   d="M 378,244"
   id="path853" />
	<path
   d="M 378,217"
   id="path855" />
</g><g
     id="g875"
     transform="matrix(1.4780846,0,0,1.4780846,-424.89615,-41.732412)">
	<rect
   x="383"
   y="266"
   fill="#ff0000"
   stroke="#000000"
   stroke-width="2"
   stroke-miterlimit="10"
   width="45"
   height="84"
   id="rect859" />
	<rect
   x="383"
   y="350"
   fill="#ffffff"
   stroke="#000000"
   stroke-width="2"
   stroke-miterlimit="10"
   width="45"
   height="84"
   id="rect861" />
	<rect
   x="383"
   y="434"
   fill="#ff0000"
   stroke="#000000"
   stroke-width="2"
   stroke-miterlimit="10"
   width="45"
   height="83"
   id="rect863" />
	<rect
   x="383"
   y="602"
   fill="#ff0000"
   stroke="#000000"
   stroke-width="2"
   stroke-miterlimit="10"
   width="45"
   height="83"
   id="rect865" />
	<rect
   x="383"
   y="517"
   fill="#ffffff"
   stroke="#000000"
   stroke-width="2"
   stroke-miterlimit="10"
   width="45"
   height="85"
   id="rect867" />
	<rect
   x="383"
   y="159"
   fill="#ffffff"
   stroke="#000000"
   stroke-width="2"
   stroke-miterlimit="10"
   width="45"
   height="107"
   id="rect869" />
	<polyline
   points="383,200 428,159 428,185 383,227  "
   id="polyline871" />
	<polyline
   points="383,239 428,198 428,224 383,266  "
   id="polyline873" />
</g><g
     id="g69448"
     transform="matrix(2.0069749,0,0,2.0069749,-30.922766,-279.1027)"><rect
       style="fill:#ff7f2a;stroke:#000000;stroke-width:2.39943;stroke-dasharray:none"
       id="rect67208"
       width="168.68021"
       height="93.592598"
       x="16.607365"
       y="140.30011" /><g
       id="g67264"
       transform="matrix(1.1377154,0,0,1.1377154,-40.882554,41.063925)"><ellipse
         style="fill:#ffffff;fill-opacity:1;stroke:#000000;stroke-width:2.84688;stroke-dasharray:none;stroke-opacity:1"
         id="path61020"
         cx="125.9634"
         cy="128.68492"
         rx="61.354267"
         ry="38.9622" /><circle
         style="fill:#ffff00;fill-opacity:1;stroke:#000000;stroke-width:3.43094;stroke-dasharray:none;stroke-opacity:1"
         id="path61800"
         cx="127.75474"
         cy="129.13275"
         r="36.430969" /></g></g><g
     aria-label="5"
     id="text111087"
     style="font-size:192px;font-family:Arial;-inkscape-font-specification:Arial;stroke-width:11.3386"><path
       d="m 133.94547,131.7261 26.25,-2.71875 q 1.125,8.90625 6.65625,14.15625 5.53125,5.15625 12.75,5.15625 8.25,0 13.96875,-6.65625 5.71875,-6.75 5.71875,-20.25 0,-12.65625 -5.71875,-18.9375 -5.625,-6.374995 -14.71875,-6.374995 -11.34375,0 -20.34375,10.031245 l -21.375,-3.09375 13.5,-71.531245 h 69.65625 v 24.65625 h -49.6875 l -4.125,23.34375 q 8.8125,-4.40625 18,-4.40625 17.53125,0 29.71875,12.75 12.1875,12.749995 12.1875,33.093745 0,16.96875 -9.84375,30.28125 -13.40625,18.1875 -37.21875,18.1875 -19.03125,0 -31.03125,-10.21875 -12,-10.21875 -14.34375,-27.46875 z"
       style="font-weight:bold;-inkscape-font-specification:'Arial Bold'"
       id="path5869" /></g></g></svg>
