<?xml version="1.0" encoding="UTF-8" standalone="no"?>
<!-- Created with Inkscape (http://www.inkscape.org/) -->

<svg
   width="171.35593mm"
   height="243.71538mm"
   viewBox="0 0 171.35593 243.71538"
   version="1.1"
   id="svg72379"
   inkscape:version="1.2.2 (732a01da63, 2022-12-09)"
   sodipodi:docname="ek-sicht_80.svg"
   xmlns:inkscape="http://www.inkscape.org/namespaces/inkscape"
   xmlns:sodipodi="http://sodipodi.sourceforge.net/DTD/sodipodi-0.dtd"
   xmlns="http://www.w3.org/2000/svg"
   xmlns:svg="http://www.w3.org/2000/svg">
  <sodipodi:namedview
     id="namedview72381"
     pagecolor="#ffffff"
     bordercolor="#000000"
     borderopacity="0.25"
     inkscape:showpageshadow="2"
     inkscape:pageopacity="0.0"
     inkscape:pagecheckerboard="0"
     inkscape:deskcolor="#d1d1d1"
     inkscape:document-units="mm"
     showgrid="false"
     inkscape:zoom="0.5946522"
     inkscape:cx="95.013522"
     inkscape:cy="465.81851"
     inkscape:window-width="2560"
     inkscape:window-height="1494"
     inkscape:window-x="-11"
     inkscape:window-y="-11"
     inkscape:window-maximized="1"
     inkscape:current-layer="g84048" />
  <defs
     id="defs72376">
    <rect
       x="285.38635"
       y="525.58655"
       width="269.92792"
       height="275.87347"
       id="rect79482" />
  </defs>
  <g
     inkscape:label="Ebene 1"
     inkscape:groupmode="layer"
     id="layer1"
     transform="translate(-18.637288,-35.063305)">
    <g
       id="g80996">
      <g
         id="g82507">
        <g
           id="g84805">
          <g
             id="g84048">
            <path
               sodipodi:type="star"
               style="fill:#ffffff;stroke:#000000;stroke-width:3"
               id="path77974"
               inkscape:flatsided="true"
               sodipodi:sides="3"
               sodipodi:cx="21.079449"
               sodipodi:cy="129.9375"
               sodipodi:r1="86.999878"
               sodipodi:r2="43.499939"
               sodipodi:arg1="-0.52359878"
               sodipodi:arg2="0.52359878"
               inkscape:rounded="0"
               inkscape:randomized="0"
               d="M 96.423553,86.437561 21.079449,216.93738 -54.264656,86.437561 Z"
               inkscape:transform-center-y="23.79486"
               transform="matrix(1.0940181,0,0,1.0940181,80.846145,38.163205)" />
            <g
               id="g69448"
               transform="translate(3.5059208,-104.03709)">
              <rect
                 style="fill:#ff7f2a;stroke:#000000;stroke-width:2.39943;stroke-dasharray:none"
                 id="rect67208"
                 width="168.68021"
                 height="93.592598"
                 x="16.607365"
                 y="140.30011" />
              <g
                 id="g67264"
                 transform="matrix(1.1377154,0,0,1.1377154,-40.882554,41.063925)">
                <ellipse
                   style="fill:#ffffff;fill-opacity:1;stroke:#000000;stroke-width:2.84688;stroke-dasharray:none;stroke-opacity:1"
                   id="path61020"
                   cx="125.9634"
                   cy="128.68492"
                   rx="61.354267"
                   ry="38.9622" />
                <circle
                   style="fill:#ffff00;fill-opacity:1;stroke:#000000;stroke-width:3.43094;stroke-dasharray:none;stroke-opacity:1"
                   id="path61800"
                   cx="127.75474"
                   cy="129.13275"
                   r="36.430969" />
              </g>
            </g>
            <g
               aria-label="8"
               transform="matrix(0.54045584,0,0,0.54045584,-77.282105,-160.89716)"
               id="text79480"
               style="font-size:192px;font-family:Arial;-inkscape-font-specification:Arial;white-space:pre;shape-inside:url(#rect79482);display:inline;fill:#ffffff;stroke:#000000;stroke-width:11.3386">
              <path
                 d="m 319.32422,623.99954 q -10.5,-3.84375 -15.5625,-10.96875 -5.0625,-7.125 -5.0625,-17.0625 0,-15 10.78125,-25.21875 10.78125,-10.21875 28.6875,-10.21875 18,0 28.96875,10.5 10.96875,10.40625 10.96875,25.40625 0,9.5625 -5.0625,16.6875 -4.96875,7.03125 -15.1875,10.875 12.65625,4.125 19.21875,13.3125 6.65625,9.1875 6.65625,21.9375 0,17.625 -12.46875,29.625 -12.46875,12 -32.8125,12 -20.34375,0 -32.8125,-12 -12.46875,-12.09375 -12.46875,-30.09375 0,-13.40625 6.75,-22.40625 6.84375,-9.09375 19.40625,-12.375 z m -3.375,-28.59375 q 0,9.75 6.28125,15.9375 6.28125,6.1875 16.3125,6.1875 9.75,0 15.9375,-6.09375 6.28125,-6.1875 6.28125,-15.09375 0,-9.28125 -6.46875,-15.5625 -6.375,-6.375 -15.9375,-6.375 -9.65625,0 -16.03125,6.1875 -6.375,6.1875 -6.375,14.8125 z m -5.4375,63.46875 q 0,7.21875 3.375,13.96875 3.46875,6.75 10.21875,10.5 6.75,3.65625 14.53125,3.65625 12.09375,0 19.96875,-7.78125 7.875,-7.78125 7.875,-19.78125 0,-12.1875 -8.15625,-20.15625 -8.0625,-7.96875 -20.25,-7.96875 -11.90625,0 -19.78125,7.875 -7.78125,7.875 -7.78125,19.6875 z"
                 style="fill:#000000;stroke:none"
                 id="path53065" />
            </g>
          </g>
        </g>
      </g>
    </g>
  </g>
</svg>
