<?xml version="1.0" encoding="UTF-8" standalone="no"?>
<!-- Generator: Adobe Illustrator 16.0.3, SVG Export Plug-In . SVG Version: 6.00 Build 0)  -->

<svg
   version="1.1"
   id="Ebene_1"
   x="0px"
   y="0px"
   width="343.35254"
   height="972.17114"
   viewBox="0 0 343.35254 972.17116"
   enable-background="new 0 0 800 800"
   xml:space="preserve"
   sodipodi:docname="ek-sicht_gruppenpfeiftafel_80.svg"
   inkscape:version="1.2.2 (732a01da63, 2022-12-09)"
   xmlns:inkscape="http://www.inkscape.org/namespaces/inkscape"
   xmlns:sodipodi="http://sodipodi.sourceforge.net/DTD/sodipodi-0.dtd"
   xmlns="http://www.w3.org/2000/svg"
   xmlns:svg="http://www.w3.org/2000/svg"><defs
   id="defs880" /><sodipodi:namedview
   id="namedview878"
   pagecolor="#ffffff"
   bordercolor="#000000"
   borderopacity="0.25"
   inkscape:showpageshadow="2"
   inkscape:pageopacity="0.0"
   inkscape:pagecheckerboard="0"
   inkscape:deskcolor="#d1d1d1"
   showgrid="false"
   inkscape:zoom="2"
   inkscape:cx="159.75"
   inkscape:cy="170.5"
   inkscape:window-width="2560"
   inkscape:window-height="1494"
   inkscape:window-x="-11"
   inkscape:window-y="-11"
   inkscape:window-maximized="1"
   inkscape:current-layer="Ebene_1" />


<g
   id="g857"
   transform="matrix(1.4780846,0,0,1.4780846,-483.46625,-202.49759)">
	<g
   opacity="0.4"
   id="g845">
		<path
   fill="#ffffff"
   stroke="#000000"
   stroke-width="2"
   stroke-miterlimit="10"
   d="M 378,244"
   id="path835" />
		<path
   fill="#ffffff"
   stroke="#000000"
   stroke-width="2"
   stroke-miterlimit="10"
   d="M 378,328"
   id="path837" />
		<path
   fill="#ffffff"
   stroke="#000000"
   stroke-width="2"
   stroke-miterlimit="10"
   d="M 378,412"
   id="path839" />
		<path
   fill="#ffffff"
   stroke="#000000"
   stroke-width="2"
   stroke-miterlimit="10"
   d="M 378,495"
   id="path841" />
		<path
   fill="#ffffff"
   stroke="#000000"
   stroke-width="2"
   stroke-miterlimit="10"
   d="M 378,580"
   id="path843" />
	</g>
	<path
   d="M 378,205"
   id="path847" />
	<path
   d="M 423,137"
   id="path849" />
	<path
   d="M 378,178"
   id="path851" />
	<path
   d="M 378,244"
   id="path853" />
	<path
   d="M 378,217"
   id="path855" />
</g><g
   id="g875"
   transform="matrix(1.4780846,0,0,1.4780846,-424.89615,-41.794912)">
	<rect
   x="383"
   y="266"
   fill="#ff0000"
   stroke="#000000"
   stroke-width="2"
   stroke-miterlimit="10"
   width="45"
   height="84"
   id="rect859" />
	<rect
   x="383"
   y="350"
   fill="#ffffff"
   stroke="#000000"
   stroke-width="2"
   stroke-miterlimit="10"
   width="45"
   height="84"
   id="rect861" />
	<rect
   x="383"
   y="434"
   fill="#ff0000"
   stroke="#000000"
   stroke-width="2"
   stroke-miterlimit="10"
   width="45"
   height="83"
   id="rect863" />
	<rect
   x="383"
   y="602"
   fill="#ff0000"
   stroke="#000000"
   stroke-width="2"
   stroke-miterlimit="10"
   width="45"
   height="83"
   id="rect865" />
	<rect
   x="383"
   y="517"
   fill="#ffffff"
   stroke="#000000"
   stroke-width="2"
   stroke-miterlimit="10"
   width="45"
   height="85"
   id="rect867" />
	<rect
   x="383"
   y="159"
   fill="#ffffff"
   stroke="#000000"
   stroke-width="2"
   stroke-miterlimit="10"
   width="45"
   height="107"
   id="rect869" />
	<polyline
   points="383,200 428,159 428,185 383,227  "
   id="polyline871" />
	<polyline
   points="383,239 428,198 428,224 383,266  "
   id="polyline873" />
</g><g
   id="g69448"
   transform="matrix(2.0069749,0,0,2.0069749,-30.922766,-279.1652)"><rect
     style="fill:#ff7f2a;stroke:#000000;stroke-width:2.39943;stroke-dasharray:none"
     id="rect67208"
     width="168.68021"
     height="93.592598"
     x="16.607365"
     y="140.30011" /><g
     id="g67264"
     transform="matrix(1.1377154,0,0,1.1377154,-40.882554,41.063925)"><ellipse
       style="fill:#ffffff;fill-opacity:1;stroke:#000000;stroke-width:2.84688;stroke-dasharray:none;stroke-opacity:1"
       id="path61020"
       cx="125.9634"
       cy="128.68492"
       rx="61.354267"
       ry="38.9622" /><circle
       style="fill:#ffff00;fill-opacity:1;stroke:#000000;stroke-width:3.43094;stroke-dasharray:none;stroke-opacity:1"
       id="path61800"
       cx="127.75474"
       cy="129.13275"
       r="36.430969" /></g></g><g
   aria-label="8"
   id="text111087"
   style="font-size:192px;font-family:Arial;-inkscape-font-specification:Arial;stroke-width:11.3386"><path
     d="m 156.16422,92.851105 q -10.21875,-4.3125 -14.90625,-11.8125 -4.59375,-7.59375 -4.59375,-16.59375 0,-15.375 10.6875,-25.40625 10.78125,-10.03125 30.5625,-10.03125 19.59375,0 30.375,10.03125 10.875,10.03125 10.875,25.40625 0,9.5625 -4.96875,17.0625 -4.96875,7.40625 -13.96875,11.34375 11.4375,4.59375 17.34375,13.406245 6,8.8125 6,20.34375 0,19.03125 -12.1875,30.9375 -12.09375,11.90625 -32.25,11.90625 -18.75,0 -31.21875,-9.84375 -14.71875,-11.625 -14.71875,-31.875 0,-11.15625 5.53125,-20.4375 5.53125,-9.374995 17.4375,-14.437495 z m 5.4375,-26.53125 q 0,7.875 4.40625,12.28125 4.5,4.40625 11.90625,4.40625 7.5,0 12,-4.40625 4.5,-4.5 4.5,-12.375 0,-7.40625 -4.5,-11.8125 -4.40625,-4.5 -11.71875,-4.5 -7.59375,0 -12.09375,4.5 -4.5,4.5 -4.5,11.90625 z m -2.4375,58.874995 q 0,10.875 5.53125,16.96875 5.625,6.09375 13.96875,6.09375 8.15625,0 13.5,-5.8125 5.34375,-5.90625 5.34375,-16.96875 0,-9.65625 -5.4375,-15.46875 -5.4375,-5.90625 -13.78125,-5.90625 -9.65625,0 -14.4375,6.65625 -4.6875,6.65625 -4.6875,14.4375 z"
     style="font-weight:bold;-inkscape-font-specification:'Arial Bold'"
     id="path9152" /></g></svg>
