<?xml version="1.0" encoding="UTF-8" standalone="no"?>
<!-- Created with Inkscape (http://www.inkscape.org/) -->

<svg
   width="171.35593mm"
   height="243.71538mm"
   viewBox="0 0 171.35593 243.71538"
   version="1.1"
   id="svg72379"
   inkscape:version="1.2.2 (732a01da63, 2022-12-09)"
   sodipodi:docname="ek-sicht_50.svg"
   xmlns:inkscape="http://www.inkscape.org/namespaces/inkscape"
   xmlns:sodipodi="http://sodipodi.sourceforge.net/DTD/sodipodi-0.dtd"
   xmlns="http://www.w3.org/2000/svg"
   xmlns:svg="http://www.w3.org/2000/svg">
  <sodipodi:namedview
     id="namedview72381"
     pagecolor="#ffffff"
     bordercolor="#000000"
     borderopacity="0.25"
     inkscape:showpageshadow="2"
     inkscape:pageopacity="0.0"
     inkscape:pagecheckerboard="0"
     inkscape:deskcolor="#d1d1d1"
     inkscape:document-units="mm"
     showgrid="false"
     inkscape:zoom="0.5946522"
     inkscape:cx="95.013522"
     inkscape:cy="465.81851"
     inkscape:window-width="2560"
     inkscape:window-height="1494"
     inkscape:window-x="-11"
     inkscape:window-y="-11"
     inkscape:window-maximized="1"
     inkscape:current-layer="g84048" />
  <defs
     id="defs72376">
    <rect
       x="285.38635"
       y="525.58655"
       width="269.92792"
       height="275.87347"
       id="rect79482" />
  </defs>
  <g
     inkscape:label="Ebene 1"
     inkscape:groupmode="layer"
     id="layer1"
     transform="translate(-18.637288,-35.063305)">
    <g
       id="g80996">
      <g
         id="g82507">
        <g
           id="g84805">
          <g
             id="g84048">
            <path
               sodipodi:type="star"
               style="fill:#ffffff;stroke:#000000;stroke-width:3"
               id="path77974"
               inkscape:flatsided="true"
               sodipodi:sides="3"
               sodipodi:cx="21.079449"
               sodipodi:cy="129.9375"
               sodipodi:r1="86.999878"
               sodipodi:r2="43.499939"
               sodipodi:arg1="-0.52359878"
               sodipodi:arg2="0.52359878"
               inkscape:rounded="0"
               inkscape:randomized="0"
               d="M 96.423553,86.437561 21.079449,216.93738 -54.264656,86.437561 Z"
               inkscape:transform-center-y="23.79486"
               transform="matrix(1.0940181,0,0,1.0940181,80.846145,38.163205)" />
            <g
               id="g69448"
               transform="translate(3.5059208,-104.03709)">
              <rect
                 style="fill:#ff7f2a;stroke:#000000;stroke-width:2.39943;stroke-dasharray:none"
                 id="rect67208"
                 width="168.68021"
                 height="93.592598"
                 x="16.607365"
                 y="140.30011" />
              <g
                 id="g67264"
                 transform="matrix(1.1377154,0,0,1.1377154,-40.882554,41.063925)">
                <ellipse
                   style="fill:#ffffff;fill-opacity:1;stroke:#000000;stroke-width:2.84688;stroke-dasharray:none;stroke-opacity:1"
                   id="path61020"
                   cx="125.9634"
                   cy="128.68492"
                   rx="61.354267"
                   ry="38.9622" />
                <circle
                   style="fill:#ffff00;fill-opacity:1;stroke:#000000;stroke-width:3.43094;stroke-dasharray:none;stroke-opacity:1"
                   id="path61800"
                   cx="127.75474"
                   cy="129.13275"
                   r="36.430969" />
              </g>
            </g>
            <g
               aria-label="5"
               transform="matrix(0.54045584,0,0,0.54045584,-77.282105,-160.89716)"
               id="text79480"
               style="font-size:192px;font-family:Arial;-inkscape-font-specification:Arial;white-space:pre;shape-inside:url(#rect79482);display:inline;fill:#ffffff;stroke:#000000;stroke-width:11.3386">
              <path
                 d="m 293.35547,662.53079 17.71875,-1.5 q 1.96875,12.9375 9.09375,19.5 7.21875,6.46875 17.34375,6.46875 12.1875,0 20.625,-9.1875 8.4375,-9.1875 8.4375,-24.375 0,-14.4375 -8.15625,-22.78125 -8.0625,-8.34375 -21.1875,-8.34375 -8.15625,0 -14.71875,3.75 -6.5625,3.65625 -10.3125,9.5625 l -15.84375,-2.0625 13.3125,-70.59375 h 68.34375 v 16.125 h -54.84375 l -7.40625,36.9375 q 12.375,-8.625 25.96875,-8.625 18,0 30.375,12.46875 12.375,12.46875 12.375,32.0625 0,18.65625 -10.875,32.25 -13.21875,16.6875 -36.09375,16.6875 -18.75,0 -30.65625,-10.5 -11.8125,-10.5 -13.5,-27.84375 z"
                 style="fill:#000000;stroke:none"
                 id="path50698" />
            </g>
          </g>
        </g>
      </g>
    </g>
  </g>
</svg>
