<?xml version="1.0" encoding="UTF-8" standalone="no"?>
<!-- Generator: Adobe Illustrator 16.0.3, SVG Export Plug-In . SVG Version: 6.00 Build 0)  -->

<svg
   version="1.1"
   id="Ebene_1"
   x="0px"
   y="0px"
   width="343.35254"
   height="972.42114"
   viewBox="0 0 343.35254 972.42116"
   enable-background="new 0 0 800 800"
   xml:space="preserve"
   sodipodi:docname="ek-sicht_gruppenpfeiftafel_60.svg"
   inkscape:version="1.2.2 (732a01da63, 2022-12-09)"
   xmlns:inkscape="http://www.inkscape.org/namespaces/inkscape"
   xmlns:sodipodi="http://sodipodi.sourceforge.net/DTD/sodipodi-0.dtd"
   xmlns="http://www.w3.org/2000/svg"
   xmlns:svg="http://www.w3.org/2000/svg"><defs
   id="defs880" /><sodipodi:namedview
   id="namedview878"
   pagecolor="#ffffff"
   bordercolor="#000000"
   borderopacity="0.25"
   inkscape:showpageshadow="2"
   inkscape:pageopacity="0.0"
   inkscape:pagecheckerboard="0"
   inkscape:deskcolor="#d1d1d1"
   showgrid="false"
   inkscape:zoom="0.5"
   inkscape:cx="745"
   inkscape:cy="848"
   inkscape:window-width="2560"
   inkscape:window-height="1494"
   inkscape:window-x="-11"
   inkscape:window-y="-11"
   inkscape:window-maximized="1"
   inkscape:current-layer="Ebene_1" />


<g
   id="g857"
   transform="matrix(1.4780846,0,0,1.4780846,-483.46625,-202.49759)">
	<g
   opacity="0.4"
   id="g845">
		<path
   fill="#ffffff"
   stroke="#000000"
   stroke-width="2"
   stroke-miterlimit="10"
   d="M 378,244"
   id="path835" />
		<path
   fill="#ffffff"
   stroke="#000000"
   stroke-width="2"
   stroke-miterlimit="10"
   d="M 378,328"
   id="path837" />
		<path
   fill="#ffffff"
   stroke="#000000"
   stroke-width="2"
   stroke-miterlimit="10"
   d="M 378,412"
   id="path839" />
		<path
   fill="#ffffff"
   stroke="#000000"
   stroke-width="2"
   stroke-miterlimit="10"
   d="M 378,495"
   id="path841" />
		<path
   fill="#ffffff"
   stroke="#000000"
   stroke-width="2"
   stroke-miterlimit="10"
   d="M 378,580"
   id="path843" />
	</g>
	<path
   d="M 378,205"
   id="path847" />
	<path
   d="M 423,137"
   id="path849" />
	<path
   d="M 378,178"
   id="path851" />
	<path
   d="M 378,244"
   id="path853" />
	<path
   d="M 378,217"
   id="path855" />
</g><g
   id="g875"
   transform="matrix(1.4780846,0,0,1.4780846,-424.89615,-41.544912)">
	<rect
   x="383"
   y="266"
   fill="#ff0000"
   stroke="#000000"
   stroke-width="2"
   stroke-miterlimit="10"
   width="45"
   height="84"
   id="rect859" />
	<rect
   x="383"
   y="350"
   fill="#ffffff"
   stroke="#000000"
   stroke-width="2"
   stroke-miterlimit="10"
   width="45"
   height="84"
   id="rect861" />
	<rect
   x="383"
   y="434"
   fill="#ff0000"
   stroke="#000000"
   stroke-width="2"
   stroke-miterlimit="10"
   width="45"
   height="83"
   id="rect863" />
	<rect
   x="383"
   y="602"
   fill="#ff0000"
   stroke="#000000"
   stroke-width="2"
   stroke-miterlimit="10"
   width="45"
   height="83"
   id="rect865" />
	<rect
   x="383"
   y="517"
   fill="#ffffff"
   stroke="#000000"
   stroke-width="2"
   stroke-miterlimit="10"
   width="45"
   height="85"
   id="rect867" />
	<rect
   x="383"
   y="159"
   fill="#ffffff"
   stroke="#000000"
   stroke-width="2"
   stroke-miterlimit="10"
   width="45"
   height="107"
   id="rect869" />
	<polyline
   points="383,200 428,159 428,185 383,227  "
   id="polyline871" />
	<polyline
   points="383,239 428,198 428,224 383,266  "
   id="polyline873" />
</g><g
   id="g69448"
   transform="matrix(2.0069749,0,0,2.0069749,-30.922766,-278.9152)"><rect
     style="fill:#ff7f2a;stroke:#000000;stroke-width:2.39943;stroke-dasharray:none"
     id="rect67208"
     width="168.68021"
     height="93.592598"
     x="16.607365"
     y="140.30011" /><g
     id="g67264"
     transform="matrix(1.1377154,0,0,1.1377154,-40.882554,41.063925)"><ellipse
       style="fill:#ffffff;fill-opacity:1;stroke:#000000;stroke-width:2.84688;stroke-dasharray:none;stroke-opacity:1"
       id="path61020"
       cx="125.9634"
       cy="128.68492"
       rx="61.354267"
       ry="38.9622" /><circle
       style="fill:#ffff00;fill-opacity:1;stroke:#000000;stroke-width:3.43094;stroke-dasharray:none;stroke-opacity:1"
       id="path61800"
       cx="127.75474"
       cy="129.13275"
       r="36.430969" /></g></g><g
   aria-label="6"
   id="text111087"
   style="font-size:192px;font-family:Arial;-inkscape-font-specification:Arial;stroke-width:11.3386"><path
     d="m 222.82047,63.476105 -25.5,2.8125 q -0.9375,-7.875 -4.875,-11.625 -3.9375,-3.75 -10.21875,-3.75 -8.34375,0 -14.15625,7.5 -5.71875,7.5 -7.21875,31.21875 9.84375,-11.625 24.46875,-11.625 16.5,0 28.21875,12.5625 11.8125,12.562495 11.8125,32.437495 0,21.09375 -12.375,33.84375 -12.375,12.75 -31.78125,12.75 -20.8125,0 -34.21875,-16.125 -13.40625,-16.21875 -13.40625,-53.0625 0,-37.781245 13.96875,-54.468745 13.96875,-16.6875 36.28125,-16.6875 15.65625,0 25.875,8.8125 10.3125,8.71875 13.125,25.40625 z m -59.71875,57.468745 q 0,12.84375 5.90625,19.875 5.90625,6.9375 13.5,6.9375 7.3125,0 12.1875,-5.71875 4.875,-5.71875 4.875,-18.75 0,-13.40625 -5.25,-19.59375 -5.25,-6.281245 -13.125,-6.281245 -7.59375,0 -12.84375,5.999995 -5.25,5.90625 -5.25,17.53125 z"
     style="font-weight:bold;-inkscape-font-specification:'Arial Bold'"
     id="path6699" /></g></svg>
