<?xml version="1.0" encoding="UTF-8" standalone="no"?>
<!-- Generator: Adobe Illustrator 16.0.3, SVG Export Plug-In . SVG Version: 6.00 Build 0)  -->

<svg
   version="1.1"
   id="Ebene_1"
   x="0px"
   y="0px"
   width="343.35254"
   height="968.05383"
   viewBox="0 0 343.35254 968.05383"
   enable-background="new 0 0 800 800"
   xml:space="preserve"
   sodipodi:docname="ek-sicht_pfeiftafel_50.svg"
   inkscape:version="1.2.2 (732a01da63, 2022-12-09)"
   xmlns:inkscape="http://www.inkscape.org/namespaces/inkscape"
   xmlns:sodipodi="http://sodipodi.sourceforge.net/DTD/sodipodi-0.dtd"
   xmlns="http://www.w3.org/2000/svg"
   xmlns:svg="http://www.w3.org/2000/svg"><defs
   id="defs773" /><sodipodi:namedview
   id="namedview771"
   pagecolor="#ffffff"
   bordercolor="#000000"
   borderopacity="0.25"
   inkscape:showpageshadow="2"
   inkscape:pageopacity="0.0"
   inkscape:pagecheckerboard="0"
   inkscape:deskcolor="#d1d1d1"
   showgrid="false"
   inkscape:zoom="0.834386"
   inkscape:cx="151.60849"
   inkscape:cy="547.70814"
   inkscape:window-width="2560"
   inkscape:window-height="1494"
   inkscape:window-x="-11"
   inkscape:window-y="-11"
   inkscape:window-maximized="1"
   inkscape:current-layer="Ebene_1" />

<g
   id="g105051"
   transform="translate(-65.623974,-27.117271)"><g
     id="g768"
     transform="matrix(1.547207,0,0,1.547207,-380.40417,-13.607861)">
	<polygon
   fill="#ff0000"
   stroke="#000000"
   stroke-width="2"
   stroke-miterlimit="10"
   points="424,651 424,569 424,484 424,401 424,317 424,235 424,150 377,150 377,234 377,317 377,401 377,484 377,569 377,651 "
   id="polygon750" />
	<line
   fill="#ff0000"
   stroke="#000000"
   stroke-width="2"
   stroke-miterlimit="10"
   x1="377"
   y1="235"
   x2="424"
   y2="235"
   id="line752" />
	<line
   fill="#ff0000"
   stroke="#000000"
   stroke-width="2"
   stroke-miterlimit="10"
   x1="377"
   y1="317"
   x2="424"
   y2="317"
   id="line754" />
	<line
   fill="#ffffff"
   stroke="#000000"
   stroke-width="2"
   stroke-miterlimit="10"
   x1="377"
   y1="401"
   x2="424"
   y2="401"
   id="line756" />
	<line
   fill="#ffffff"
   stroke="#000000"
   stroke-width="2"
   stroke-miterlimit="10"
   x1="377"
   y1="484"
   x2="424"
   y2="484"
   id="line758" />
	<line
   fill="#ffffff"
   stroke="#000000"
   stroke-width="2"
   stroke-miterlimit="10"
   x1="377"
   y1="569"
   x2="424"
   y2="569"
   id="line760" />
	<rect
   x="377"
   y="235"
   fill="#ffffff"
   stroke="#000000"
   stroke-width="2"
   stroke-miterlimit="10"
   width="47"
   height="82"
   id="rect762" />
	<rect
   x="377"
   y="401"
   fill="#ffffff"
   stroke="#000000"
   stroke-width="2"
   stroke-miterlimit="10"
   width="47"
   height="83"
   id="rect764" />
	<rect
   x="377"
   y="569"
   fill="#ffffff"
   stroke="#000000"
   stroke-width="2"
   stroke-miterlimit="10"
   width="47"
   height="82"
   id="rect766" />
</g><g
     id="g69448"
     transform="matrix(2.0069749,0,0,2.0069749,34.701208,-252.05373)"><rect
       style="fill:#ff7f2a;stroke:#000000;stroke-width:2.39943;stroke-dasharray:none"
       id="rect67208"
       width="168.68021"
       height="93.592598"
       x="16.607365"
       y="140.30011" /><g
       id="g67264"
       transform="matrix(1.1377154,0,0,1.1377154,-40.882554,41.063925)"><ellipse
         style="fill:#ffffff;fill-opacity:1;stroke:#000000;stroke-width:2.84688;stroke-dasharray:none;stroke-opacity:1"
         id="path61020"
         cx="125.9634"
         cy="128.68492"
         rx="61.354267"
         ry="38.9622" /><circle
         style="fill:#ffff00;fill-opacity:1;stroke:#000000;stroke-width:3.43094;stroke-dasharray:none;stroke-opacity:1"
         id="path61800"
         cx="127.75474"
         cy="129.13275"
         r="36.430969" /></g></g></g><g
   aria-label="5"
   id="text117510"
   style="font-size:192px;font-family:Arial;-inkscape-font-specification:Arial;stroke-width:11.3386"><path
     d="m 131.97532,129.64279 26.25,-2.71875 q 1.125,8.90625 6.65625,14.15625 5.53125,5.15625 12.75,5.15625 8.25,0 13.96875,-6.65625 5.71875,-6.75 5.71875,-20.25 0,-12.65625 -5.71875,-18.9375 -5.625,-6.374998 -14.71875,-6.374998 -11.34375,0 -20.34375,10.031248 l -21.375,-3.09375 13.5,-71.531248 h 69.65625 v 24.65625 h -49.6875 l -4.125,23.34375 q 8.8125,-4.40625 18,-4.40625 17.53125,0 29.71875,12.75 12.1875,12.75 12.1875,33.093748 0,16.96875 -9.84375,30.28125 -13.40625,18.1875 -37.21875,18.1875 -19.03125,0 -31.03125,-10.21875 -12,-10.21875 -14.34375,-27.46875 z"
     style="font-weight:bold;-inkscape-font-specification:'Arial Bold'"
     id="path57056" /></g></svg>
