<?xml version="1.0" encoding="UTF-8" standalone="no"?>
<!-- Generator: Adobe Illustrator 16.0.3, SVG Export Plug-In . SVG Version: 6.00 Build 0)  -->

<svg
   version="1.1"
   id="Ebene_1"
   x="0px"
   y="0px"
   width="343.35254"
   height="968.05383"
   viewBox="0 0 343.35254 968.05383"
   enable-background="new 0 0 800 800"
   xml:space="preserve"
   sodipodi:docname="ek-sicht_pfeiftafel_60.svg"
   inkscape:version="1.2.2 (732a01da63, 2022-12-09)"
   xmlns:inkscape="http://www.inkscape.org/namespaces/inkscape"
   xmlns:sodipodi="http://sodipodi.sourceforge.net/DTD/sodipodi-0.dtd"
   xmlns="http://www.w3.org/2000/svg"
   xmlns:svg="http://www.w3.org/2000/svg"><defs
   id="defs773" /><sodipodi:namedview
   id="namedview771"
   pagecolor="#ffffff"
   bordercolor="#000000"
   borderopacity="0.25"
   inkscape:showpageshadow="2"
   inkscape:pageopacity="0.0"
   inkscape:pagecheckerboard="0"
   inkscape:deskcolor="#d1d1d1"
   showgrid="false"
   inkscape:zoom="0.834386"
   inkscape:cx="151.60849"
   inkscape:cy="547.70814"
   inkscape:window-width="2560"
   inkscape:window-height="1494"
   inkscape:window-x="-11"
   inkscape:window-y="-11"
   inkscape:window-maximized="1"
   inkscape:current-layer="Ebene_1" />

<g
   id="g105051"
   transform="translate(-65.623974,-27.117271)"><g
     id="g768"
     transform="matrix(1.547207,0,0,1.547207,-380.40417,-13.607861)">
	<polygon
   fill="#ff0000"
   stroke="#000000"
   stroke-width="2"
   stroke-miterlimit="10"
   points="424,651 424,569 424,484 424,401 424,317 424,235 424,150 377,150 377,234 377,317 377,401 377,484 377,569 377,651 "
   id="polygon750" />
	<line
   fill="#ff0000"
   stroke="#000000"
   stroke-width="2"
   stroke-miterlimit="10"
   x1="377"
   y1="235"
   x2="424"
   y2="235"
   id="line752" />
	<line
   fill="#ff0000"
   stroke="#000000"
   stroke-width="2"
   stroke-miterlimit="10"
   x1="377"
   y1="317"
   x2="424"
   y2="317"
   id="line754" />
	<line
   fill="#ffffff"
   stroke="#000000"
   stroke-width="2"
   stroke-miterlimit="10"
   x1="377"
   y1="401"
   x2="424"
   y2="401"
   id="line756" />
	<line
   fill="#ffffff"
   stroke="#000000"
   stroke-width="2"
   stroke-miterlimit="10"
   x1="377"
   y1="484"
   x2="424"
   y2="484"
   id="line758" />
	<line
   fill="#ffffff"
   stroke="#000000"
   stroke-width="2"
   stroke-miterlimit="10"
   x1="377"
   y1="569"
   x2="424"
   y2="569"
   id="line760" />
	<rect
   x="377"
   y="235"
   fill="#ffffff"
   stroke="#000000"
   stroke-width="2"
   stroke-miterlimit="10"
   width="47"
   height="82"
   id="rect762" />
	<rect
   x="377"
   y="401"
   fill="#ffffff"
   stroke="#000000"
   stroke-width="2"
   stroke-miterlimit="10"
   width="47"
   height="83"
   id="rect764" />
	<rect
   x="377"
   y="569"
   fill="#ffffff"
   stroke="#000000"
   stroke-width="2"
   stroke-miterlimit="10"
   width="47"
   height="82"
   id="rect766" />
</g><g
     id="g69448"
     transform="matrix(2.0069749,0,0,2.0069749,34.701208,-252.05373)"><rect
       style="fill:#ff7f2a;stroke:#000000;stroke-width:2.39943;stroke-dasharray:none"
       id="rect67208"
       width="168.68021"
       height="93.592598"
       x="16.607365"
       y="140.30011" /><g
       id="g67264"
       transform="matrix(1.1377154,0,0,1.1377154,-40.882554,41.063925)"><ellipse
         style="fill:#ffffff;fill-opacity:1;stroke:#000000;stroke-width:2.84688;stroke-dasharray:none;stroke-opacity:1"
         id="path61020"
         cx="125.9634"
         cy="128.68492"
         rx="61.354267"
         ry="38.9622" /><circle
         style="fill:#ffff00;fill-opacity:1;stroke:#000000;stroke-width:3.43094;stroke-dasharray:none;stroke-opacity:1"
         id="path61800"
         cx="127.75474"
         cy="129.13275"
         r="36.430969" /></g></g></g><g
   aria-label="6"
   id="text117510"
   style="font-size:192px;font-family:Arial;-inkscape-font-specification:Arial;stroke-width:11.3386"><path
     d="m 224.85032,61.205292 -25.5,2.8125 q -0.9375,-7.875 -4.875,-11.625 -3.9375,-3.75 -10.21875,-3.75 -8.34375,0 -14.15625,7.5 -5.71875,7.5 -7.21875,31.21875 9.84375,-11.625 24.46875,-11.625 16.5,0 28.21875,12.5625 11.8125,12.562498 11.8125,32.437498 0,21.09375 -12.375,33.84375 -12.375,12.75 -31.78125,12.75 -20.8125,0 -34.21875,-16.125 -13.40625,-16.21875 -13.40625,-53.062498 0,-37.78125 13.96875,-54.46875 13.96875,-16.6875 36.28125,-16.6875 15.65625,0 25.875,8.8125 10.3125,8.71875 13.125,25.40625 z m -59.71875,57.468748 q 0,12.84375 5.90625,19.875 5.90625,6.9375 13.5,6.9375 7.3125,0 12.1875,-5.71875 4.875,-5.71875 4.875,-18.75 0,-13.40625 -5.25,-19.59375 -5.25,-6.281248 -13.125,-6.281248 -7.59375,0 -12.84375,5.999998 -5.25,5.90625 -5.25,17.53125 z"
     style="font-weight:bold;-inkscape-font-specification:'Arial Bold'"
     id="path57855" /></g></svg>
