<?xml version="1.0" encoding="UTF-8" standalone="no"?>
<!-- Generator: Adobe Illustrator 16.0.3, SVG Export Plug-In . SVG Version: 6.00 Build 0)  -->

<svg
   version="1.1"
   id="Ebene_1"
   x="0px"
   y="0px"
   width="343.35254"
   height="972.30243"
   viewBox="0 0 343.35254 972.30239"
   enable-background="new 0 0 800 800"
   xml:space="preserve"
   sodipodi:docname="ek-sicht_gruppenpfeiftafel_20.svg"
   inkscape:version="1.2.2 (732a01da63, 2022-12-09)"
   xmlns:inkscape="http://www.inkscape.org/namespaces/inkscape"
   xmlns:sodipodi="http://sodipodi.sourceforge.net/DTD/sodipodi-0.dtd"
   xmlns="http://www.w3.org/2000/svg"
   xmlns:svg="http://www.w3.org/2000/svg"><defs
   id="defs880" /><sodipodi:namedview
   id="namedview878"
   pagecolor="#ffffff"
   bordercolor="#000000"
   borderopacity="0.25"
   inkscape:showpageshadow="2"
   inkscape:pageopacity="0.0"
   inkscape:pagecheckerboard="0"
   inkscape:deskcolor="#d1d1d1"
   showgrid="false"
   inkscape:zoom="0.70710678"
   inkscape:cx="470.22601"
   inkscape:cy="746.70476"
   inkscape:window-width="2560"
   inkscape:window-height="1494"
   inkscape:window-x="-11"
   inkscape:window-y="-11"
   inkscape:window-maximized="1"
   inkscape:current-layer="Ebene_1" />


<g
   id="g18643"><g
     id="g857"
     transform="matrix(1.4780846,0,0,1.4780846,-483.46625,-202.49759)">
	<g
   opacity="0.4"
   id="g845">
		<path
   fill="#ffffff"
   stroke="#000000"
   stroke-width="2"
   stroke-miterlimit="10"
   d="M 378,244"
   id="path835" />
		<path
   fill="#ffffff"
   stroke="#000000"
   stroke-width="2"
   stroke-miterlimit="10"
   d="M 378,328"
   id="path837" />
		<path
   fill="#ffffff"
   stroke="#000000"
   stroke-width="2"
   stroke-miterlimit="10"
   d="M 378,412"
   id="path839" />
		<path
   fill="#ffffff"
   stroke="#000000"
   stroke-width="2"
   stroke-miterlimit="10"
   d="M 378,495"
   id="path841" />
		<path
   fill="#ffffff"
   stroke="#000000"
   stroke-width="2"
   stroke-miterlimit="10"
   d="M 378,580"
   id="path843" />
	</g>
	<path
   d="M 378,205"
   id="path847" />
	<path
   d="M 423,137"
   id="path849" />
	<path
   d="M 378,178"
   id="path851" />
	<path
   d="M 378,244"
   id="path853" />
	<path
   d="M 378,217"
   id="path855" />
</g><g
     id="g875"
     transform="matrix(1.4780846,0,0,1.4780846,-424.89615,-41.66363)">
	<rect
   x="383"
   y="266"
   fill="#ff0000"
   stroke="#000000"
   stroke-width="2"
   stroke-miterlimit="10"
   width="45"
   height="84"
   id="rect859" />
	<rect
   x="383"
   y="350"
   fill="#ffffff"
   stroke="#000000"
   stroke-width="2"
   stroke-miterlimit="10"
   width="45"
   height="84"
   id="rect861" />
	<rect
   x="383"
   y="434"
   fill="#ff0000"
   stroke="#000000"
   stroke-width="2"
   stroke-miterlimit="10"
   width="45"
   height="83"
   id="rect863" />
	<rect
   x="383"
   y="602"
   fill="#ff0000"
   stroke="#000000"
   stroke-width="2"
   stroke-miterlimit="10"
   width="45"
   height="83"
   id="rect865" />
	<rect
   x="383"
   y="517"
   fill="#ffffff"
   stroke="#000000"
   stroke-width="2"
   stroke-miterlimit="10"
   width="45"
   height="85"
   id="rect867" />
	<rect
   x="383"
   y="159"
   fill="#ffffff"
   stroke="#000000"
   stroke-width="2"
   stroke-miterlimit="10"
   width="45"
   height="107"
   id="rect869" />
	<polyline
   points="383,200 428,159 428,185 383,227  "
   id="polyline871" />
	<polyline
   points="383,239 428,198 428,224 383,266  "
   id="polyline873" />
</g><g
     id="g69448"
     transform="matrix(2.0069749,0,0,2.0069749,-30.922766,-279.03392)"><rect
       style="fill:#ff7f2a;stroke:#000000;stroke-width:2.39943;stroke-dasharray:none"
       id="rect67208"
       width="168.68021"
       height="93.592598"
       x="16.607365"
       y="140.30011" /><g
       id="g67264"
       transform="matrix(1.1377154,0,0,1.1377154,-40.882554,41.063925)"><ellipse
         style="fill:#ffffff;fill-opacity:1;stroke:#000000;stroke-width:2.84688;stroke-dasharray:none;stroke-opacity:1"
         id="path61020"
         cx="125.9634"
         cy="128.68492"
         rx="61.354267"
         ry="38.9622" /><circle
         style="fill:#ffff00;fill-opacity:1;stroke:#000000;stroke-width:3.43094;stroke-dasharray:none;stroke-opacity:1"
         id="path61800"
         cx="127.75474"
         cy="129.13275"
         r="36.430969" /></g></g><g
     aria-label="2"
     id="text111087"
     style="font-size:192px;font-family:Arial;-inkscape-font-specification:Arial;stroke-width:11.3386"><path
       d="m 222.53922,142.66989 v 24.46875 h -92.34375 q 1.5,-13.875 9,-26.25 7.5,-12.46875 29.625,-33 17.8125,-16.593749 21.84375,-22.499999 5.4375,-8.15625 5.4375,-16.125 0,-8.8125 -4.78125,-13.5 -4.6875,-4.78125 -13.03125,-4.78125 -8.25,0 -13.125,4.96875 -4.875,4.96875 -5.625,16.5 l -26.25,-2.625 q 2.34375,-21.75 14.71875,-31.21875 12.375,-9.46875 30.9375,-9.46875 20.34375,0 31.96875,10.96875 11.625,10.96875 11.625,27.28125 0,9.28125 -3.375,17.71875 -3.28125,8.34375 -10.5,17.531249 -4.78125,6.09375 -17.25,17.53125 -12.46875,11.4375 -15.84375,15.1875 -3.28125,3.75 -5.34375,7.3125 z"
       style="font-weight:bold;-inkscape-font-specification:'Arial Bold'"
       id="path3341" /></g></g></svg>
