<?xml version="1.0" encoding="UTF-8" standalone="no"?>
<!-- Created with Inkscape (http://www.inkscape.org/) -->

<svg
   width="171.35593mm"
   height="243.71538mm"
   viewBox="0 0 171.35593 243.71538"
   version="1.1"
   id="svg72379"
   inkscape:version="1.2.2 (732a01da63, 2022-12-09)"
   sodipodi:docname="ek-sicht_20.svg"
   xmlns:inkscape="http://www.inkscape.org/namespaces/inkscape"
   xmlns:sodipodi="http://sodipodi.sourceforge.net/DTD/sodipodi-0.dtd"
   xmlns="http://www.w3.org/2000/svg"
   xmlns:svg="http://www.w3.org/2000/svg">
  <sodipodi:namedview
     id="namedview72381"
     pagecolor="#ffffff"
     bordercolor="#000000"
     borderopacity="0.25"
     inkscape:showpageshadow="2"
     inkscape:pageopacity="0.0"
     inkscape:pagecheckerboard="0"
     inkscape:deskcolor="#d1d1d1"
     inkscape:document-units="mm"
     showgrid="false"
     inkscape:zoom="0.5946522"
     inkscape:cx="95.013522"
     inkscape:cy="465.81851"
     inkscape:window-width="2560"
     inkscape:window-height="1494"
     inkscape:window-x="-11"
     inkscape:window-y="-11"
     inkscape:window-maximized="1"
     inkscape:current-layer="text79480" />
  <defs
     id="defs72376">
    <rect
       x="285.38635"
       y="525.58655"
       width="269.92792"
       height="275.87347"
       id="rect79482" />
  </defs>
  <g
     inkscape:label="Ebene 1"
     inkscape:groupmode="layer"
     id="layer1"
     transform="translate(-18.637288,-35.063305)">
    <g
       id="g80996">
      <g
         id="g82507">
        <g
           id="g83284">
          <path
             sodipodi:type="star"
             style="fill:#ffffff;stroke:#000000;stroke-width:3"
             id="path77974"
             inkscape:flatsided="true"
             sodipodi:sides="3"
             sodipodi:cx="21.079449"
             sodipodi:cy="129.9375"
             sodipodi:r1="86.999878"
             sodipodi:r2="43.499939"
             sodipodi:arg1="-0.52359878"
             sodipodi:arg2="0.52359878"
             inkscape:rounded="0"
             inkscape:randomized="0"
             d="M 96.423553,86.437561 21.079449,216.93738 -54.264656,86.437561 Z"
             inkscape:transform-center-y="23.79486"
             transform="matrix(1.0940181,0,0,1.0940181,80.846145,38.163205)" />
          <g
             id="g69448"
             transform="translate(3.5059208,-104.03709)">
            <rect
               style="fill:#ff7f2a;stroke:#000000;stroke-width:2.39943;stroke-dasharray:none"
               id="rect67208"
               width="168.68021"
               height="93.592598"
               x="16.607365"
               y="140.30011" />
            <g
               id="g67264"
               transform="matrix(1.1377154,0,0,1.1377154,-40.882554,41.063925)">
              <ellipse
                 style="fill:#ffffff;fill-opacity:1;stroke:#000000;stroke-width:2.84688;stroke-dasharray:none;stroke-opacity:1"
                 id="path61020"
                 cx="125.9634"
                 cy="128.68492"
                 rx="61.354267"
                 ry="38.9622" />
              <circle
                 style="fill:#ffff00;fill-opacity:1;stroke:#000000;stroke-width:3.43094;stroke-dasharray:none;stroke-opacity:1"
                 id="path61800"
                 cx="127.75474"
                 cy="129.13275"
                 r="36.430969" />
            </g>
          </g>
          <g
             aria-label="2"
             transform="matrix(0.54045584,0,0,0.54045584,-77.282105,-160.89716)"
             id="text79480"
             style="font-size:192px;font-family:Arial;-inkscape-font-specification:Arial;white-space:pre;shape-inside:url(#rect79482);display:inline;fill:#ffffff;stroke:#000000;stroke-width:11.3386">
            <path
               d="m 382.04297,682.31204 v 16.21875 h -90.84375 q -0.1875,-6.09375 1.96875,-11.71875 3.46875,-9.28125 11.0625,-18.28125 7.6875,-9 22.125,-20.8125 22.40625,-18.375 30.28125,-29.0625 7.875,-10.78125 7.875,-20.34375 0,-10.03125 -7.21875,-16.875 -7.125,-6.9375 -18.65625,-6.9375 -12.1875,0 -19.5,7.3125 -7.3125,7.3125 -7.40625,20.25 l -17.34375,-1.78125 q 1.78125,-19.40625 13.40625,-29.53125 11.625,-10.21875 31.21875,-10.21875 19.78125,0 31.3125,10.96875 11.53125,10.96875 11.53125,27.1875 0,8.25 -3.375,16.21875 -3.375,7.96875 -11.25,16.78125 -7.78125,8.8125 -25.96875,24.1875 -15.1875,12.75 -19.5,17.34375 -4.3125,4.5 -7.125,9.09375 z"
               style="fill:#000000;stroke:none"
               id="path48335" />
          </g>
        </g>
      </g>
    </g>
  </g>
</svg>
