<?xml version="1.0" encoding="UTF-8" standalone="no"?>
<!-- Created with Inkscape (http://www.inkscape.org/) -->

<svg
   width="269.05075"
   height="136.30327"
   viewBox="0 0 71.186343 36.063572"
   version="1.1"
   id="svg36037"
   inkscape:version="1.2.2 (732a01da63, 2022-12-09)"
   sodipodi:docname="ekues_anfang2.svg"
   xmlns:inkscape="http://www.inkscape.org/namespaces/inkscape"
   xmlns:sodipodi="http://sodipodi.sourceforge.net/DTD/sodipodi-0.dtd"
   xmlns="http://www.w3.org/2000/svg"
   xmlns:svg="http://www.w3.org/2000/svg">
  <sodipodi:namedview
     id="namedview36039"
     pagecolor="#ffffff"
     bordercolor="#000000"
     borderopacity="0.25"
     inkscape:showpageshadow="2"
     inkscape:pageopacity="0.0"
     inkscape:pagecheckerboard="0"
     inkscape:deskcolor="#d1d1d1"
     inkscape:document-units="mm"
     showgrid="false"
     inkscape:zoom="2.3786088"
     inkscape:cx="133.9018"
     inkscape:cy="71.049935"
     inkscape:window-width="2560"
     inkscape:window-height="1494"
     inkscape:window-x="-11"
     inkscape:window-y="-11"
     inkscape:window-maximized="1"
     inkscape:current-layer="layer1" />
  <defs
     id="defs36034" />
  <g
     inkscape:label="Ebene 1"
     inkscape:groupmode="layer"
     id="layer1"
     transform="translate(-4.0063044,-1.3230159)">
    <rect
       id="rect127351"
       x="4.2676344"
       y="1.5843459"
       class="st0"
       width="70.663681"
       height="35.540913"
       style="fill:#ffffff;stroke:#000000;stroke-width:0.52266;stroke-linejoin:round" />
    <path
       d="m 21.567694,25.208597 v 3.554091 H 8.1875874 c 0.1567887,-1.358917 0.5749276,-2.613301 1.3066504,-3.81542 0.7317252,-1.202119 2.1429082,-2.822367 4.2858172,-4.808476 1.724779,-1.620247 2.770099,-2.717834 3.188228,-3.292761 0.522659,-0.783991 0.78399,-1.567981 0.78399,-2.351972 0,-0.836257 -0.209063,-1.515716 -0.679458,-1.986111 -0.470394,-0.470393 -1.097587,-0.679458 -1.881578,-0.679458 -0.783989,0 -1.411182,0.261332 -1.881576,0.731726 -0.470395,0.470394 -0.731725,1.254385 -0.836258,2.404237 L 8.6579822,14.598592 c 0.2090633,-2.090644 0.9407884,-3.606357 2.1429078,-4.547146 1.202118,-0.9407892 2.717834,-1.3589178 4.494878,-1.3589178 1.986111,0 3.501827,0.5226602 4.65168,1.5679818 1.149851,1.045321 1.672513,2.404237 1.672513,3.972218 0,0.888523 -0.156788,1.777047 -0.470395,2.561038 -0.313596,0.836256 -0.836258,1.672511 -1.515716,2.561035 -0.470393,0.574927 -1.30665,1.463449 -2.508769,2.561036 -1.20212,1.097586 -1.98611,1.829312 -2.299707,2.195173 -0.313596,0.365864 -0.574925,0.731726 -0.783991,1.045322 h 7.526311 z"
       id="path36023"
       style="stroke-width:0.52266" />
    <path
       d="M 32.752627,28.762688 V 8.8493262 H 47.543919 V 12.194352 H 36.777113 v 4.442615 h 10.03508 v 3.345026 h -10.03508 v 5.43567 h 11.184932 v 3.345025 z"
       id="path36025"
       style="stroke-width:0.52266" />
    <path
       d="M 51.411604,28.762688 V 8.8493262 h 4.024486 v 8.8852278 l 8.153503,-8.8852278 h 5.43567 l -7.526311,7.7876408 7.892172,12.125721 h -5.226603 l -5.487935,-9.355621 -3.292762,3.345028 v 6.010593 z"
       id="path36027"
       style="stroke-width:0.52266" />
  </g>
</svg>
