<?xml version="1.0" encoding="utf-8"?>
<!-- Generator: Adobe Illustrator 21.0.0, SVG Export Plug-In . SVG Version: 6.00 Build 0)  -->
<svg version="1.1"
	 id="Ebene_1" inkscape:version="1.2.2 (732a01da63, 2022-12-09)" sodipodi:docname="eisenbahnkreuzungs-ueberwachungssignal_2EK.svg" xmlns:inkscape="http://www.inkscape.org/namespaces/inkscape" xmlns:sodipodi="http://sodipodi.sourceforge.net/DTD/sodipodi-0.dtd" xmlns:svg="http://www.w3.org/2000/svg"
	 xmlns="http://www.w3.org/2000/svg" xmlns:xlink="http://www.w3.org/1999/xlink" x="0px" y="0px" viewBox="0 0 151 82.7"
	 style="enable-background:new 0 0 151 82.7;" xml:space="preserve">
<style type="text/css">
	.st0{fill:#FFFFFF;stroke:#000000;stroke-linejoin:round;}
	.st1{enable-background:new    ;}
</style>
<sodipodi:namedview  bordercolor="#000000" borderopacity="0.25" id="namedview402" inkscape:current-layer="Ebene_1" inkscape:cx="651.14757" inkscape:cy="556.06559" inkscape:deskcolor="#d1d1d1" inkscape:pagecheckerboard="0" inkscape:pageopacity="0.0" inkscape:showpageshadow="2" inkscape:window-height="1494" inkscape:window-maximized="1" inkscape:window-width="2560" inkscape:window-x="-11" inkscape:window-y="-11" inkscape:zoom="0.76249997" pagecolor="#ffffff" showgrid="false">
	</sodipodi:namedview>
<rect id="rect127351" x="8.4" y="8.7" class="st0" width="135.2" height="68"/>
<g class="st1">
	<path d="M41.5,53.9v6.8H15.9c0.3-2.6,1.1-5,2.5-7.3c1.4-2.3,4.1-5.4,8.2-9.2c3.3-3.1,5.3-5.2,6.1-6.3c1-1.5,1.5-3,1.5-4.5
		c0-1.6-0.4-2.9-1.3-3.8c-0.9-0.9-2.1-1.3-3.6-1.3c-1.5,0-2.7,0.5-3.6,1.4c-0.9,0.9-1.4,2.4-1.6,4.6l-7.3-0.7c0.4-4,1.8-6.9,4.1-8.7
		c2.3-1.8,5.2-2.6,8.6-2.6c3.8,0,6.7,1,8.9,3c2.2,2,3.2,4.6,3.2,7.6c0,1.7-0.3,3.4-0.9,4.9c-0.6,1.6-1.6,3.2-2.9,4.9
		c-0.9,1.1-2.5,2.8-4.8,4.9c-2.3,2.1-3.8,3.5-4.4,4.2c-0.6,0.7-1.1,1.4-1.5,2H41.5z"/>
	<path d="M62.9,60.7V22.6h28.3V29H70.6v8.5h19.2v6.4H70.6v10.4H92v6.4H62.9z"/>
	<path d="M98.6,60.7V22.6h7.7v17l15.6-17h10.4l-14.4,14.9L133,60.7h-10l-10.5-17.9l-6.3,6.4v11.5H98.6z"/>
</g>
</svg>
