<?xml version="1.0" encoding="UTF-8" standalone="no"?>
<svg
   xmlns:dc="http://purl.org/dc/elements/1.1/"
   xmlns:cc="http://creativecommons.org/ns#"
   xmlns:rdf="http://www.w3.org/1999/02/22-rdf-syntax-ns#"
   xmlns:svg="http://www.w3.org/2000/svg"
   xmlns="http://www.w3.org/2000/svg"
   version="1.1"
   id="svg3894"
   height="154"
   width="154">
  <defs
     id="defs3896" />
  <metadata
     id="metadata3899">
    <rdf:RDF>
      <cc:Work
         rdf:about="">
        <dc:format>image/svg+xml</dc:format>
        <dc:type
           rdf:resource="http://purl.org/dc/dcmitype/StillImage" />
        <dc:title></dc:title>
      </cc:Work>
    </rdf:RDF>
  </metadata>
  <path
     style="fill:#ffffff;stroke:#ff0000;stroke-width:10;stroke-linecap:butt;stroke-linejoin:miter;stroke-miterlimit:4;stroke-dasharray:none;stroke-opacity:1;fill-opacity:1"
     d="M 5,5 5,149 149,149 149,5 5,5 Z"
     id="path3925" />
  <g
     transform="translate(-3,-895.36218)"
     style="font-style:normal;font-variant:normal;font-weight:500;font-stretch:condensed;font-size:144px;line-height:125%;font-family:OSP-DIN;-inkscape-font-specification:'OSP-DIN Medium Condensed';text-align:start;letter-spacing:0px;word-spacing:0px;writing-mode:lr-tb;text-anchor:start;fill:#ff0000;fill-opacity:1;stroke:none"
     id="text2986-8">
    <path
       d="m 41.250999,925.61884 c 4.218735,-4.26553 9.304667,-6.39834 15.257813,-6.39844 5.953092,10e-5 11.039025,2.13291 15.257812,6.39844 4.218704,4.21884 6.328077,9.30477 6.328125,15.25781 l 0,7.17187 -14.414062,0 0,-7.17187 c -3.4e-5,-2.01555 -0.703158,-3.72648 -2.109375,-5.13281 -1.359405,-1.40617 -3.046904,-2.10929 -5.0625,-2.10938 -2.01565,9e-5 -3.726585,0.70321 -5.132813,2.10938 -1.40627,1.40633 -2.109394,3.11726 -2.109375,5.13281 l 0,15.67969 c 2.296854,-0.84369 4.710914,-1.289 7.242188,-1.33594 5.953092,6e-5 11.039025,2.13287 15.257812,6.39844 4.218704,4.2188 6.328077,9.30473 6.328125,15.25781 l 0,21.58594 c -4.8e-5,5.95311 -2.109421,11.03911 -6.328125,15.25781 -4.218787,4.2188 -9.30472,6.3281 -15.257812,6.3281 -5.953146,0 -11.039078,-2.1093 -15.257813,-6.3281 -4.218757,-4.2187 -6.328129,-9.3047 -6.328125,-15.25781 l 0,-21.58594 0,-36 c -4e-6,-5.95304 2.109368,-11.03897 6.328125,-15.25781 m 20.320313,46.125 c -1.359405,-1.4062 -3.046904,-2.10933 -5.0625,-2.10938 -2.01565,5e-5 -3.726585,0.70318 -5.132813,2.10938 -1.40627,1.40629 -2.109394,3.11723 -2.109375,5.13281 l 0,21.58594 c -1.9e-5,2.01561 0.703105,3.72661 2.109375,5.13281 1.406228,1.3594 3.117163,2.0391 5.132813,2.0391 2.015596,0 3.703095,-0.6797 5.0625,-2.0391 1.406217,-1.4062 2.109341,-3.1172 2.109375,-5.13281 l 0,-21.58594 c -3.4e-5,-2.01558 -0.703158,-3.72652 -2.109375,-5.13281"
       id="path3108" />
  </g>
  <g
     transform="translate(-3,-895.36218)"
     style="font-style:normal;font-variant:normal;font-weight:500;font-stretch:condensed;font-size:72px;line-height:125%;font-family:OSP-DIN;-inkscape-font-specification:'OSP-DIN Medium Condensed';text-align:start;letter-spacing:0px;word-spacing:0px;writing-mode:lr-tb;text-anchor:start;fill:#ff0000;fill-opacity:1;stroke:none"
     id="text2986">
    <path
       d="m 104.74847,919.2204 20,0 0,7.20703 -12.82812,0 0,11.46094 c 1.14843,-0.42185 2.35546,-0.6445 3.62109,-0.66797 2.97655,3e-5 5.51952,1.06644 7.62891,3.19922 2.10935,2.1094 3.16404,4.65237 3.16406,7.6289 l 0,10.79297 c -2e-5,2.97657 -1.05471,5.51954 -3.16406,7.62891 -2.10939,2.10937 -4.65236,3.16406 -7.62891,3.16406 -2.97657,0 -5.51954,-1.05469 -7.6289,-3.16406 -2.10938,-2.10937 -3.16407,-4.65234 -3.16407,-7.62891 l 0,-3.62109 7.17188,0 0,3.62109 c -1e-5,1.00782 0.35155,1.86329 1.05469,2.56641 0.70311,0.67969 1.55858,1.01954 2.5664,1.01953 1.0078,1e-5 1.85155,-0.33984 2.53125,-1.01953 0.70311,-0.70312 1.05467,-1.55859 1.05469,-2.56641 l 0,-10.79297 c -2e-5,-1.00779 -0.35158,-1.86325 -1.05469,-2.5664 -0.6797,-0.7031 -1.52345,-1.05467 -2.53125,-1.05469 -1.00782,2e-5 -1.86329,0.35159 -2.5664,1.05469 -0.70314,0.70315 -1.0547,1.55861 -1.05469,2.5664 l -7.17188,0 0,-21.62109 0,-7.20703"
       style="line-height:125%;font-family:OSP-DIN;-inkscape-font-specification:'OSP-DIN Medium Condensed';fill:#ff0000"
       id="path3102" />
  </g>
  <g
     transform="translate(-3,-895.36218)"
     style="font-style:normal;font-variant:normal;font-weight:500;font-stretch:condensed;font-size:100px;line-height:125%;font-family:OSP-DIN;-inkscape-font-specification:'OSP-DIN Medium Condensed';text-align:start;letter-spacing:0px;word-spacing:0px;writing-mode:lr-tb;text-anchor:start;fill:#ff0000;fill-opacity:1;stroke:none"
     id="text2986-6">
    <path
       d="m 83.743713,919.2204 10.009766,0 0,10.00976 -10.009766,0 0,-10.00976"
       id="path3105" />
  </g>
</svg>
