<?xml version="1.0" encoding="UTF-8" standalone="no"?>
<svg
   xmlns:dc="http://purl.org/dc/elements/1.1/"
   xmlns:cc="http://creativecommons.org/ns#"
   xmlns:rdf="http://www.w3.org/1999/02/22-rdf-syntax-ns#"
   xmlns:svg="http://www.w3.org/2000/svg"
   xmlns="http://www.w3.org/2000/svg"
   xmlns:sodipodi="http://sodipodi.sourceforge.net/DTD/sodipodi-0.dtd"
   xmlns:inkscape="http://www.inkscape.org/namespaces/inkscape"
   width="154"
   height="154"
   id="svg3894"
   version="1.1"
   inkscape:version="0.91 r13725"
   sodipodi:docname="geschwindigkeitsanzeiger_100.svg">
  <sodipodi:namedview
     pagecolor="#ffffff"
     bordercolor="#666666"
     borderopacity="1"
     objecttolerance="10"
     gridtolerance="10"
     guidetolerance="10"
     inkscape:pageopacity="0"
     inkscape:pageshadow="2"
     inkscape:window-width="640"
     inkscape:window-height="480"
     id="namedview11"
     showgrid="false"
     inkscape:zoom="1.8625"
     inkscape:cx="118.5933"
     inkscape:cy="101.34597"
     inkscape:current-layer="svg3894"
     fit-margin-top="0"
     fit-margin-left="0"
     fit-margin-right="0"
     fit-margin-bottom="0" />
  <defs
     id="defs3896" />
  <metadata
     id="metadata3899">
    <rdf:RDF>
      <cc:Work
         rdf:about="">
        <dc:format>image/svg+xml</dc:format>
        <dc:type
           rdf:resource="http://purl.org/dc/dcmitype/StillImage" />
        <dc:title></dc:title>
      </cc:Work>
    </rdf:RDF>
  </metadata>
  <path
     inkscape:connector-curvature="0"
     id="path3925"
     d="M 5,5 5,149 149,149 149,5 5,5 Z"
     style="fill:#000000;fill-opacity:1;stroke:#ffffff;stroke-width:10;stroke-linecap:butt;stroke-linejoin:miter;stroke-miterlimit:4;stroke-dasharray:none;stroke-opacity:1" />
  <g
     transform="matrix(0.272612,0,0,0.272612,-29.817969,-32.984085)"
     id="g4164">
    <g
       id="g15">
      <path
         d="m 258.816,269.702 -1.101,0 -62.193,33.573 -9.357,-36.876 78.155,-41.829 41.279,0 0,357.75 -46.783,0 0,-312.618 z"
         id="path17"
         inkscape:connector-curvature="0"
         style="fill:#ffffff" />
    </g>
    <g
       id="g19">
      <path
         d="m 597.498,399.593 c 0,121.635 -45.682,188.782 -124.387,188.782 -69.899,0 -117.783,-65.496 -118.883,-183.829 0,-120.534 52.287,-186.03 124.937,-186.03 74.853,0 118.333,67.147 118.333,181.077 z m -194.286,5.504 c 0,93.015 28.62,145.852 72.651,145.852 48.984,0 72.65,-57.79 72.65,-149.154 0,-88.062 -22.015,-145.852 -72.65,-145.852 -41.829,-0.001 -72.651,51.735 -72.651,149.154 z"
         id="path21"
         inkscape:connector-curvature="0"
         style="fill:#ffffff" />
    </g>
  </g>
</svg>
