<?xml version="1.0" encoding="UTF-8" standalone="no"?>
<!-- Generator: Adobe Illustrator 15.0.0, SVG Export Plug-In . SVG Version: 6.00 Build 0)  -->

<svg
   xmlns:dc="http://purl.org/dc/elements/1.1/"
   xmlns:cc="http://creativecommons.org/ns#"
   xmlns:rdf="http://www.w3.org/1999/02/22-rdf-syntax-ns#"
   xmlns:svg="http://www.w3.org/2000/svg"
   xmlns="http://www.w3.org/2000/svg"
   xmlns:sodipodi="http://sodipodi.sourceforge.net/DTD/sodipodi-0.dtd"
   xmlns:inkscape="http://www.inkscape.org/namespaces/inkscape"
   version="1.1"
   id="Ebene_1"
   x="0px"
   y="0px"
   width="470"
   height="409"
   viewBox="0 0 470 409"
   enable-background="new 0 0 600 600"
   xml:space="preserve"
   inkscape:version="0.91 r13725"
   sodipodi:docname="geschwindigkeitsvoranzeiger-sign-100.svg"><metadata
     id="metadata29"><rdf:RDF><cc:Work
         rdf:about=""><dc:format>image/svg+xml</dc:format><dc:type
           rdf:resource="http://purl.org/dc/dcmitype/StillImage" /><dc:title></dc:title></cc:Work></rdf:RDF></metadata><defs
     id="defs27" /><sodipodi:namedview
     pagecolor="#ffffff"
     bordercolor="#666666"
     borderopacity="1"
     objecttolerance="10"
     gridtolerance="10"
     guidetolerance="10"
     inkscape:pageopacity="0"
     inkscape:pageshadow="2"
     inkscape:window-width="640"
     inkscape:window-height="480"
     id="namedview25"
     showgrid="false"
     inkscape:zoom="1.9866666"
     inkscape:cx="171.75572"
     inkscape:cy="268.38499"
     inkscape:current-layer="Ebene_1"
     fit-margin-top="0"
     fit-margin-left="0"
     fit-margin-right="0"
     fit-margin-bottom="0" /><polygon
     points="527,129 292,538 57,129 "
     id="polygon7"
     style="fill:#f39200"
     transform="translate(-57,-129)" /><polygon
     points="499,146 293.5,502 88,146 "
     id="polygon13"
     transform="translate(-57,-129)" /><path
     d="M 236.5,374 236.067,373.25 30.134,16.5 l 412.732,0 -0.434,0.75 L 236.5,374 Z M 31.866,17.5 236.5,372 441.134,17.5 31.866,17.5 Z"
     id="path15"
     inkscape:connector-curvature="0" /><path
     stroke-miterlimit="10"
     d="m 177.666,86.795 -0.524,0 -29.612,15.985 -4.455,-17.558 37.211,-19.916 19.654,0 0,170.335 -22.275,0 0,-148.846 z"
     id="path19"
     inkscape:connector-curvature="0"
     style="fill:#f39200;stroke:none;stroke-width:2;stroke-miterlimit:10" /><path
     stroke-miterlimit="10"
     d="m 328.501,147.239 c 0,56.164 -20.75,87.169 -56.5,87.169 -31.75,0 -53.5,-30.242 -54,-84.881 0,-55.656 23.75,-85.898 56.75,-85.898 34,0 53.75,31.004 53.75,83.61 z m -88.25,2.542 c 0,42.949 13,67.346 33,67.346 22.25,0 33,-26.685 33,-68.871 0,-40.662 -10,-67.346 -33,-67.346 -19,0 -33,23.889 -33,68.871 z"
     id="path23"
     inkscape:connector-curvature="0"
     style="fill:#f39200;stroke:none;stroke-width:2;stroke-miterlimit:10" /></svg>