<?xml version="1.0" encoding="UTF-8" standalone="no"?>
<!-- Generator: Adobe Illustrator 15.0.0, SVG Export Plug-In . SVG Version: 6.00 Build 0)  -->

<svg
   xmlns:dc="http://purl.org/dc/elements/1.1/"
   xmlns:cc="http://creativecommons.org/ns#"
   xmlns:rdf="http://www.w3.org/1999/02/22-rdf-syntax-ns#"
   xmlns:svg="http://www.w3.org/2000/svg"
   xmlns="http://www.w3.org/2000/svg"
   xmlns:sodipodi="http://sodipodi.sourceforge.net/DTD/sodipodi-0.dtd"
   xmlns:inkscape="http://www.inkscape.org/namespaces/inkscape"
   version="1.1"
   id="Ebene_1"
   x="0px"
   y="0px"
   width="470"
   height="409"
   viewBox="0 0 470 409"
   enable-background="new 0 0 600 600"
   xml:space="preserve"
   inkscape:version="0.91 r13725"
   sodipodi:docname="geschwindigkeitsvoranzeiger-sign-80.svg"><metadata
     id="metadata25"><rdf:RDF><cc:Work
         rdf:about=""><dc:format>image/svg+xml</dc:format><dc:type
           rdf:resource="http://purl.org/dc/dcmitype/StillImage" /><dc:title></dc:title></cc:Work></rdf:RDF></metadata><defs
     id="defs23" /><sodipodi:namedview
     pagecolor="#ffffff"
     bordercolor="#666666"
     borderopacity="1"
     objecttolerance="10"
     gridtolerance="10"
     guidetolerance="10"
     inkscape:pageopacity="0"
     inkscape:pageshadow="2"
     inkscape:window-width="640"
     inkscape:window-height="480"
     id="namedview21"
     showgrid="false"
     fit-margin-top="0"
     fit-margin-left="0"
     fit-margin-right="0"
     fit-margin-bottom="0"
     inkscape:zoom="31.786667"
     inkscape:cx="461.63955"
     inkscape:cy="409.52455"
     inkscape:current-layer="Ebene_1" /><polygon
     points="527,129 292,538 57,129 "
     id="polygon7"
     style="fill:#f39200"
     transform="translate(-57,-129)" /><polygon
     points="499,146 293.5,502 88,146 "
     id="polygon13"
     transform="translate(-57,-129)" /><path
     d="M 236.5,374 236.067,373.25 30.134,16.5 l 412.732,0 -0.434,0.75 L 236.5,374 Z M 31.866,17.5 236.5,372 441.134,17.5 31.866,17.5 Z"
     id="path15"
     inkscape:connector-curvature="0" /><path
     stroke-miterlimit="10"
     d="m 205.295,145.316 c -11.303,-4.137 -19.678,-10.04 -25.127,-17.71 -5.449,-7.667 -8.174,-16.852 -8.174,-27.549 0,-16.144 5.802,-29.718 17.407,-40.718 11.603,-10.998 27.042,-16.499 46.319,-16.499 19.375,0 34.965,5.626 46.772,16.877 11.807,11.253 17.711,24.952 17.711,41.096 0,10.293 -2.701,19.25 -8.099,26.868 -5.399,7.621 -13.6,13.498 -24.597,17.634 13.623,4.442 23.991,11.605 31.105,21.494 7.114,9.892 10.672,21.697 10.672,35.42 0,18.973 -6.713,34.916 -20.133,47.832 -13.422,12.918 -31.082,19.375 -52.979,19.375 -21.898,0 -39.559,-6.482 -52.978,-19.451 -13.422,-12.965 -20.132,-29.138 -20.132,-48.513 0,-14.43 3.656,-26.513 10.974,-36.252 7.317,-9.736 17.735,-16.37 31.259,-19.904 z m -14.229,56.309 c 0,7.771 1.84,15.288 5.525,22.554 3.683,7.266 9.158,12.893 16.423,16.878 7.266,3.987 15.084,5.979 23.461,5.979 13.018,0 23.766,-4.187 32.243,-12.563 8.477,-8.375 12.715,-19.021 12.715,-31.938 0,-13.117 -4.366,-23.966 -13.094,-32.544 -8.729,-8.576 -19.654,-12.866 -32.772,-12.866 -12.816,0 -23.438,4.238 -31.862,12.715 -8.426,8.474 -12.639,19.07 -12.639,31.785 z m 8.78,-102.476 c 0,10.497 3.38,19.072 10.142,25.732 6.759,6.66 15.539,9.99 26.338,9.99 10.494,0 19.096,-3.304 25.808,-9.915 6.71,-6.608 10.065,-14.706 10.065,-24.294 0,-9.99 -3.457,-18.391 -10.368,-25.203 -6.913,-6.812 -15.515,-10.217 -25.808,-10.217 -10.395,0 -19.023,3.33 -25.884,9.99 -6.864,6.662 -10.293,14.634 -10.293,23.917 z"
     id="path19"
     inkscape:connector-curvature="0"
     style="fill:#f39200;stroke:none;stroke-width:2;stroke-miterlimit:10" /></svg>