<?xml version="1.0" encoding="UTF-8" standalone="no"?>
<svg
   xmlns:dc="http://purl.org/dc/elements/1.1/"
   xmlns:cc="http://creativecommons.org/ns#"
   xmlns:rdf="http://www.w3.org/1999/02/22-rdf-syntax-ns#"
   xmlns:svg="http://www.w3.org/2000/svg"
   xmlns="http://www.w3.org/2000/svg"
   xmlns:sodipodi="http://sodipodi.sourceforge.net/DTD/sodipodi-0.dtd"
   xmlns:inkscape="http://www.inkscape.org/namespaces/inkscape"
   width="154"
   height="154"
   id="svg3894"
   version="1.1"
   inkscape:version="0.91 r13725"
   sodipodi:docname="geschwindigkeitsanzeiger_080.svg">
  <sodipodi:namedview
     pagecolor="#ffffff"
     bordercolor="#666666"
     borderopacity="1"
     objecttolerance="10"
     gridtolerance="10"
     guidetolerance="10"
     inkscape:pageopacity="0"
     inkscape:pageshadow="2"
     inkscape:window-width="640"
     inkscape:window-height="480"
     id="namedview10"
     showgrid="false"
     inkscape:zoom="0.93125"
     inkscape:cx="-21.73609"
     inkscape:cy="175.54177"
     inkscape:current-layer="svg3894"
     fit-margin-top="0"
     fit-margin-left="0"
     fit-margin-right="0"
     fit-margin-bottom="0" />
  <defs
     id="defs3896" />
  <metadata
     id="metadata3899">
    <rdf:RDF>
      <cc:Work
         rdf:about="">
        <dc:format>image/svg+xml</dc:format>
        <dc:type
           rdf:resource="http://purl.org/dc/dcmitype/StillImage" />
        <dc:title></dc:title>
      </cc:Work>
    </rdf:RDF>
  </metadata>
  <path
     inkscape:connector-curvature="0"
     id="path3925"
     d="M 5,5 5,149 149,149 149,5 5,5 Z"
     style="fill:#000000;fill-opacity:1;stroke:#ffffff;stroke-width:10;stroke-linecap:butt;stroke-linejoin:miter;stroke-miterlimit:4;stroke-dasharray:none;stroke-opacity:1" />
  <g
     transform="matrix(0.25062203,0,0,0.25062203,-18.494763,-21.715632)"
     id="g15">
    <path
       style="fill:#ffffff"
       inkscape:connector-curvature="0"
       id="path17"
       d="m 326.208,374.667 c -20.068,-7.344 -34.937,-17.825 -44.612,-31.443 -9.675,-13.614 -14.512,-29.919 -14.512,-48.912 0,-28.663 10.3,-52.762 30.906,-72.292 20.601,-19.526 48.013,-29.293 82.236,-29.293 34.4,0 62.081,9.99 83.042,29.965 20.962,19.979 31.443,44.301 31.443,72.964 0,18.275 -4.796,34.177 -14.378,47.702 -9.587,13.53 -24.146,23.964 -43.671,31.309 24.187,7.886 42.596,20.605 55.227,38.162 12.631,17.561 18.946,38.523 18.946,62.887 0,33.686 -11.917,61.991 -35.743,84.923 -23.83,22.936 -55.185,34.399 -94.061,34.399 -38.88,0 -70.235,-11.51 -94.061,-34.534 -23.83,-23.02 -35.743,-51.732 -35.743,-86.132 0,-25.619 6.492,-47.073 19.484,-64.365 12.989,-17.288 31.486,-29.067 55.497,-35.34 z m -25.262,99.974 c 0,13.798 3.267,27.143 9.809,40.043 6.538,12.899 16.259,22.89 29.159,29.965 12.9,7.08 26.782,10.615 41.656,10.615 23.112,0 42.193,-7.433 57.243,-22.306 15.05,-14.869 22.574,-33.77 22.574,-56.705 0,-23.288 -7.751,-42.55 -23.246,-57.78 -15.499,-15.226 -34.895,-22.843 -58.184,-22.843 -22.755,0 -41.613,7.525 -56.571,22.575 -14.962,15.049 -22.44,33.861 -22.44,56.436 z M 316.533,292.7 c 0,18.636 6,33.862 18.006,45.687 12.001,11.825 27.588,17.737 46.761,17.737 18.632,0 33.904,-5.866 45.821,-17.603 11.913,-11.732 17.872,-26.11 17.872,-43.133 0,-17.737 -6.14,-32.652 -18.409,-44.746 -12.274,-12.093 -27.547,-18.14 -45.822,-18.14 -18.455,0 -33.773,5.912 -45.955,17.737 -12.186,11.824 -18.274,25.98 -18.274,42.461 z" />
  </g>
</svg>
