<?xml version="1.0" encoding="UTF-8" standalone="no"?>
<svg
   xmlns:dc="http://purl.org/dc/elements/1.1/"
   xmlns:cc="http://creativecommons.org/ns#"
   xmlns:rdf="http://www.w3.org/1999/02/22-rdf-syntax-ns#"
   xmlns:svg="http://www.w3.org/2000/svg"
   xmlns="http://www.w3.org/2000/svg"
   version="1.1"
   id="svg3894"
   height="154"
   width="154">
  <defs
     id="defs3896" />
  <metadata
     id="metadata3899">
    <rdf:RDF>
      <cc:Work
         rdf:about="">
        <dc:format>image/svg+xml</dc:format>
        <dc:type
           rdf:resource="http://purl.org/dc/dcmitype/StillImage" />
        <dc:title></dc:title>
      </cc:Work>
    </rdf:RDF>
  </metadata>
  <path
     style="fill:#ffffff;stroke:#ff0000;stroke-width:10;stroke-linecap:butt;stroke-linejoin:miter;stroke-miterlimit:4;stroke-dasharray:none;stroke-opacity:1;fill-opacity:1"
     d="M 5,5 5,149 149,149 149,5 5,5 Z"
     id="path3925" />
  <g
     transform="translate(-3,-895.36218)"
     style="font-style:normal;font-variant:normal;font-weight:500;font-stretch:condensed;font-size:144px;line-height:125%;font-family:OSP-DIN;-inkscape-font-specification:'OSP-DIN Medium Condensed';text-align:start;letter-spacing:0px;word-spacing:0px;writing-mode:lr-tb;text-anchor:start;fill:#ff0000;fill-opacity:1;stroke:none"
     id="text2986-8">
    <path
       d="m 48.621864,919.2204 14.414063,0 -14.414063,72 10.828125,0 0,-21.58594 14.414063,0 0,21.58594 3.585937,0 0,14.4141 -3.585937,0 0,14.414 -14.414063,0 0,-14.414 -25.242187,0 0,-14.4141 14.414062,-72"
       id="path4113" />
  </g>
  <g
     transform="translate(-3,-895.36218)"
     style="font-style:normal;font-variant:normal;font-weight:500;font-stretch:condensed;font-size:72px;line-height:125%;font-family:OSP-DIN;-inkscape-font-specification:'OSP-DIN Medium Condensed';text-align:start;letter-spacing:0px;word-spacing:0px;writing-mode:lr-tb;text-anchor:start;fill:#ff0000;fill-opacity:1;stroke:none"
     id="text2986">
    <path
       d="m 103.76807,919.2204 20,0 0,7.20703 -12.82812,0 0,11.46094 c 1.14843,-0.42185 2.35546,-0.6445 3.62109,-0.66797 2.97655,3e-5 5.51952,1.06644 7.62891,3.19922 2.10935,2.1094 3.16404,4.65237 3.16406,7.6289 l 0,10.79297 c -2e-5,2.97657 -1.05471,5.51954 -3.16406,7.62891 -2.10939,2.10937 -4.65236,3.16406 -7.62891,3.16406 -2.97657,0 -5.51954,-1.05469 -7.6289,-3.16406 -2.10938,-2.10937 -3.16407,-4.65234 -3.16407,-7.62891 l 0,-3.62109 7.17188,0 0,3.62109 c -10e-6,1.00782 0.35155,1.86329 1.05469,2.56641 0.70311,0.67969 1.55858,1.01954 2.5664,1.01953 1.0078,1e-5 1.85155,-0.33984 2.53125,-1.01953 0.70311,-0.70312 1.05467,-1.55859 1.05469,-2.56641 l 0,-10.79297 c -2e-5,-1.00779 -0.35158,-1.86325 -1.05469,-2.5664 -0.6797,-0.7031 -1.52345,-1.05467 -2.53125,-1.05469 -1.00782,2e-5 -1.86329,0.35159 -2.5664,1.05469 -0.70314,0.70315 -1.0547,1.55861 -1.05469,2.5664 l -7.17188,0 0,-21.62109 0,-7.20703"
       style="line-height:125%;font-family:OSP-DIN;-inkscape-font-specification:'OSP-DIN Medium Condensed';fill:#ff0000"
       id="path4116" />
  </g>
  <g
     transform="translate(-3,-895.36218)"
     style="font-style:normal;font-variant:normal;font-weight:500;font-stretch:condensed;font-size:100px;line-height:125%;font-family:OSP-DIN;-inkscape-font-specification:'OSP-DIN Medium Condensed';text-align:start;letter-spacing:0px;word-spacing:0px;writing-mode:lr-tb;text-anchor:start;fill:#ff0000;fill-opacity:1;stroke:none"
     id="text2986-6">
    <path
       d="m 82.763321,919.2204 10.009766,0 0,10.00976 -10.009766,0 0,-10.00976"
       id="path4119" />
  </g>
</svg>
