<?xml version="1.0" encoding="UTF-8" standalone="no"?>
<!-- Generator: Adobe Illustrator 15.0.0, SVG Export Plug-In . SVG Version: 6.00 Build 0)  -->

<svg
   xmlns:dc="http://purl.org/dc/elements/1.1/"
   xmlns:cc="http://creativecommons.org/ns#"
   xmlns:rdf="http://www.w3.org/1999/02/22-rdf-syntax-ns#"
   xmlns:svg="http://www.w3.org/2000/svg"
   xmlns="http://www.w3.org/2000/svg"
   xmlns:sodipodi="http://sodipodi.sourceforge.net/DTD/sodipodi-0.dtd"
   xmlns:inkscape="http://www.inkscape.org/namespaces/inkscape"
   version="1.1"
   id="Ebene_1"
   x="0px"
   y="0px"
   width="470"
   height="409"
   viewBox="0 0 470 409"
   enable-background="new 0 0 600 600"
   xml:space="preserve"
   inkscape:version="0.91 r13725"
   sodipodi:docname="geschwindigkeitsvoranzeiger-sign-60.svg"><metadata
     id="metadata25"><rdf:RDF><cc:Work
         rdf:about=""><dc:format>image/svg+xml</dc:format><dc:type
           rdf:resource="http://purl.org/dc/dcmitype/StillImage" /><dc:title /></cc:Work></rdf:RDF></metadata><defs
     id="defs23" /><sodipodi:namedview
     pagecolor="#ffffff"
     bordercolor="#666666"
     borderopacity="1"
     objecttolerance="10"
     gridtolerance="10"
     guidetolerance="10"
     inkscape:pageopacity="0"
     inkscape:pageshadow="2"
     inkscape:window-width="640"
     inkscape:window-height="480"
     id="namedview21"
     showgrid="false"
     fit-margin-top="0"
     fit-margin-left="0"
     fit-margin-right="0"
     fit-margin-bottom="0"
     inkscape:zoom="1.9866667"
     inkscape:cx="349.2362"
     inkscape:cy="342.3505"
     inkscape:current-layer="Ebene_1" /><polygon
     points="527,129 292,538 57,129 "
     id="polygon7"
     style="fill:#f39200"
     transform="translate(-57,-129)" /><polygon
     points="499,146 293.5,502 88,146 "
     id="polygon13"
     transform="translate(-57,-129)" /><path
     d="M 236.5,374 236.067,373.25 30.134,16.5 l 412.732,0 -0.434,0.75 L 236.5,374 Z M 31.866,17.5 236.5,372 441.134,17.5 31.866,17.5 Z"
     id="path15"
     inkscape:connector-curvature="0" /><path
     stroke-miterlimit="10"
     d="m 306.407,94.653 -27.65,2.163 C 276.285,85.901 272.783,77.97 268.253,73.027 260.734,65.098 251.466,61.132 240.447,61.132 c -8.857,0 -16.632,2.472 -23.325,7.415 -8.754,6.386 -15.655,15.705 -20.699,27.959 -5.047,12.256 -7.673,29.712 -7.878,52.366 6.693,-10.195 14.88,-17.765 24.561,-22.708 9.679,-4.943 19.824,-7.415 30.431,-7.415 18.536,0 34.316,6.823 47.346,20.467 13.026,13.646 19.54,31.281 19.54,52.907 0,14.211 -3.064,27.419 -9.19,39.622 -6.129,12.203 -14.547,21.549 -25.256,28.036 -10.712,6.488 -22.862,9.731 -36.456,9.731 -23.17,0 -42.069,-8.52 -56.691,-25.564 -14.624,-17.043 -21.935,-45.13 -21.935,-84.264 0,-43.766 8.083,-75.587 24.252,-95.463 14.107,-17.301 33.107,-25.952 57,-25.952 17.815,0 32.413,4.997 43.793,14.984 11.377,9.992 18.201,23.79 20.467,41.4 z m -113.536,97.626 c 0,9.577 2.032,18.744 6.102,27.496 4.067,8.754 9.756,15.423 17.069,20.004 7.311,4.584 14.984,6.874 23.017,6.874 11.739,0 21.831,-4.735 30.276,-14.211 8.442,-9.474 12.666,-22.346 12.666,-38.618 0,-15.652 -4.17,-27.983 -12.512,-36.996 -8.342,-9.01 -18.846,-13.516 -31.512,-13.516 -12.566,0 -23.224,4.506 -31.976,13.516 -8.755,9.013 -13.13,20.83 -13.13,35.451 z"
     id="path19"
     inkscape:connector-curvature="0"
     style="fill:#f39200;stroke:none;stroke-width:2;stroke-miterlimit:10;fill-opacity:1" /></svg>