<?xml version="1.0" encoding="UTF-8" standalone="no"?>
<!-- Generator: Adobe Illustrator 15.0.0, SVG Export Plug-In . SVG Version: 6.00 Build 0)  -->

<svg
   xmlns:dc="http://purl.org/dc/elements/1.1/"
   xmlns:cc="http://creativecommons.org/ns#"
   xmlns:rdf="http://www.w3.org/1999/02/22-rdf-syntax-ns#"
   xmlns:svg="http://www.w3.org/2000/svg"
   xmlns="http://www.w3.org/2000/svg"
   xmlns:sodipodi="http://sodipodi.sourceforge.net/DTD/sodipodi-0.dtd"
   xmlns:inkscape="http://www.inkscape.org/namespaces/inkscape"
   version="1.1"
   id="Ebene_1"
   x="0px"
   y="0px"
   width="470"
   height="409"
   viewBox="0 0 470 409"
   enable-background="new 0 0 600 600"
   xml:space="preserve"
   inkscape:version="0.91 r13725"
   sodipodi:docname="geschwindigkeitsvoranzeiger-sign-50.svg"><metadata
     id="metadata25"><rdf:RDF><cc:Work
         rdf:about=""><dc:format>image/svg+xml</dc:format><dc:type
           rdf:resource="http://purl.org/dc/dcmitype/StillImage" /><dc:title></dc:title></cc:Work></rdf:RDF></metadata><defs
     id="defs23" /><sodipodi:namedview
     pagecolor="#ffffff"
     bordercolor="#666666"
     borderopacity="1"
     objecttolerance="10"
     gridtolerance="10"
     guidetolerance="10"
     inkscape:pageopacity="0"
     inkscape:pageshadow="2"
     inkscape:window-width="640"
     inkscape:window-height="480"
     id="namedview21"
     showgrid="false"
     fit-margin-top="0"
     fit-margin-left="0"
     fit-margin-right="0"
     fit-margin-bottom="0"
     inkscape:zoom="0.99333333"
     inkscape:cx="281.68196"
     inkscape:cy="376.39574"
     inkscape:current-layer="Ebene_1" /><polygon
     points="527,129 292,538 57,129 "
     id="polygon7"
     style="fill:#f39200"
     transform="translate(-57,-129)" /><polygon
     points="499,146 293.5,502 88,146 "
     id="polygon13"
     transform="translate(-57,-129)" /><path
     d="M 236.5,374 236.067,373.25 30.134,16.5 l 412.732,0 -0.434,0.75 L 236.5,374 Z M 31.866,17.5 236.5,372 441.134,17.5 31.866,17.5 Z"
     id="path15"
     inkscape:connector-curvature="0" /><path
     stroke-miterlimit="10"
     d="m 162.13,206.336 29.195,-2.472 c 2.163,14.212 7.183,24.896 15.061,32.054 7.878,7.158 17.378,10.735 28.5,10.735 13.386,0 24.716,-5.045 33.983,-15.139 9.269,-10.091 13.902,-23.479 13.902,-40.162 0,-15.857 -4.455,-28.37 -13.361,-37.537 -8.909,-9.165 -20.571,-13.748 -34.988,-13.748 -8.959,0 -17.044,2.035 -24.251,6.102 -7.209,4.069 -12.875,9.346 -16.992,15.833 l -26.105,-3.398 21.935,-116.317 112.609,0 0,26.569 -90.366,0 -12.203,60.862 c 13.593,-9.473 27.855,-14.211 42.789,-14.211 19.772,0 36.455,6.85 50.049,20.545 13.594,13.697 20.391,31.307 20.391,52.829 0,20.494 -5.975,38.208 -17.919,53.139 -14.521,18.331 -34.346,27.495 -59.472,27.495 -20.598,0 -37.409,-5.766 -50.435,-17.301 -13.029,-11.532 -20.468,-26.824 -22.322,-45.878 z"
     id="path19"
     inkscape:connector-curvature="0"
     style="fill:#f39200;stroke:none;stroke-width:2;stroke-miterlimit:10" /></svg>