<?xml version="1.0" encoding="UTF-8" standalone="no"?>
<svg
   xmlns:dc="http://purl.org/dc/elements/1.1/"
   xmlns:cc="http://creativecommons.org/ns#"
   xmlns:rdf="http://www.w3.org/1999/02/22-rdf-syntax-ns#"
   xmlns:svg="http://www.w3.org/2000/svg"
   xmlns="http://www.w3.org/2000/svg"
   version="1.1"
   id="svg3894"
   height="154"
   width="154">
  <defs
     id="defs3896" />
  <metadata
     id="metadata3899">
    <rdf:RDF>
      <cc:Work
         rdf:about="">
        <dc:format>image/svg+xml</dc:format>
        <dc:type
           rdf:resource="http://purl.org/dc/dcmitype/StillImage" />
        <dc:title></dc:title>
      </cc:Work>
    </rdf:RDF>
  </metadata>
  <path
     style="fill:#ffffff;fill-opacity:1;stroke:#ff0000;stroke-width:10;stroke-linecap:butt;stroke-linejoin:miter;stroke-miterlimit:4;stroke-dasharray:none;stroke-opacity:1"
     d="M 5,5 5,149 149,149 149,5 5,5 Z"
     id="path3925" />
  <g
     transform="translate(-3,-895.36218)"
     style="font-style:normal;font-variant:normal;font-weight:normal;font-stretch:normal;font-size:144px;line-height:125%;font-family:'Swis721 BT';-inkscape-font-specification:'Swis721 BT';text-align:start;writing-mode:lr-tb;text-anchor:start;fill:#ff0000;fill-opacity:1;stroke:none"
     id="text4437">
    <path
       d="m 48.41304,919.2204 14.414063,0 0,100.8281 -14.414063,0 0,-86.41404 -14.34375,14.41406 0,-14.41406 14.34375,-14.41406"
       style="font-weight:bold;font-family:OSP-DIN;-inkscape-font-specification:'OSP-DIN Bold'"
       id="path3037" />
    <path
       d="m 84.202103,919.2204 39.999997,0 0,14.41406 -25.656247,0 0,22.92188 c 2.296857,-0.84369 4.710917,-1.289 7.242187,-1.33594 5.95309,6e-5 11.03903,2.13287 15.25781,6.39844 4.21871,4.2188 6.32808,9.30473 6.32813,15.25781 l 0,21.58594 c -5e-5,5.95311 -2.10942,11.03911 -6.32813,15.25781 -4.21878,4.2188 -9.30472,6.3281 -15.25781,6.3281 -5.953145,0 -11.039078,-2.1093 -15.257812,-6.3281 -4.218757,-4.2187 -6.32813,-9.3047 -6.328125,-15.25781 l 0,-7.24219 14.34375,0 0,7.24219 c -2e-5,2.01561 0.703105,3.72661 2.109377,5.13281 1.40622,1.3594 3.11716,2.0391 5.13281,2.0391 2.0156,0 3.70309,-0.6797 5.0625,-2.0391 1.40622,-1.4062 2.10934,-3.1172 2.10938,-5.13281 l 0,-21.58594 c -4e-5,-2.01558 -0.70316,-3.72652 -2.10938,-5.13281 -1.35941,-1.4062 -3.0469,-2.10933 -5.0625,-2.10938 -2.01565,5e-5 -3.72659,0.70318 -5.13281,2.10938 -1.406272,1.40629 -2.109397,3.11723 -2.109377,5.13281 l -14.34375,0 0,-43.24219 0,-14.41406"
       style="font-weight:bold;font-family:OSP-DIN;-inkscape-font-specification:'OSP-DIN Bold'"
       id="path3039" />
  </g>
</svg>
