<?xml version="1.0" encoding="UTF-8" standalone="no"?>
<!-- Generator: Adobe Illustrator 15.0.0, SVG Export Plug-In . SVG Version: 6.00 Build 0)  -->

<svg
   xmlns:dc="http://purl.org/dc/elements/1.1/"
   xmlns:cc="http://creativecommons.org/ns#"
   xmlns:rdf="http://www.w3.org/1999/02/22-rdf-syntax-ns#"
   xmlns:svg="http://www.w3.org/2000/svg"
   xmlns="http://www.w3.org/2000/svg"
   xmlns:sodipodi="http://sodipodi.sourceforge.net/DTD/sodipodi-0.dtd"
   xmlns:inkscape="http://www.inkscape.org/namespaces/inkscape"
   version="1.1"
   id="Ebene_1"
   x="0px"
   y="0px"
   width="470"
   height="409"
   viewBox="0 0 470 409"
   enable-background="new 0 0 600 600"
   xml:space="preserve"
   inkscape:version="0.91 r13725"
   sodipodi:docname="geschwindigkeitsvoranzeiger-sign-40.svg"><metadata
     id="metadata25"><rdf:RDF><cc:Work
         rdf:about=""><dc:format>image/svg+xml</dc:format><dc:type
           rdf:resource="http://purl.org/dc/dcmitype/StillImage" /><dc:title></dc:title></cc:Work></rdf:RDF></metadata><defs
     id="defs23" /><sodipodi:namedview
     pagecolor="#ffffff"
     bordercolor="#666666"
     borderopacity="1"
     objecttolerance="10"
     gridtolerance="10"
     guidetolerance="10"
     inkscape:pageopacity="0"
     inkscape:pageshadow="2"
     inkscape:window-width="640"
     inkscape:window-height="480"
     id="namedview21"
     showgrid="false"
     fit-margin-top="0"
     fit-margin-left="0"
     fit-margin-right="0"
     fit-margin-bottom="0"
     inkscape:zoom="3.9733333"
     inkscape:cx="258.09428"
     inkscape:cy="372.9684"
     inkscape:current-layer="Ebene_1" /><polygon
     points="527,129 292,538 57,129 "
     id="polygon7"
     style="fill:#f39200"
     transform="translate(-57,-129)" /><g
     id="g11"
     transform="translate(-57,-129)"><polygon
       id="polygon13"
       points="293.5,502 88,146 499,146 " /><path
       inkscape:connector-curvature="0"
       id="path15"
       d="m 293.5,503 -0.433,-0.75 -205.933,-356.75 412.732,0 -0.434,0.75 L 293.5,503 Z M 88.866,146.5 293.5,501 498.134,146.5 l -409.268,0 z" /></g><path
     stroke-miterlimit="10"
     d="m 251.261,265.653 0,-54.22 -98.244,0 0,-25.487 103.342,-146.748 22.707,0 0,146.748 30.585,0 0,25.487 -30.585,0 0,54.22 -27.805,0 z m 0,-79.707 0,-102.106 -70.902,102.106 70.902,0 z"
     id="path19"
     inkscape:connector-curvature="0"
     style="fill:#f39200;stroke:none;stroke-width:2;stroke-miterlimit:10" /></svg>