<?xml version="1.0" encoding="UTF-8" standalone="no"?>
<!-- Generator: Adobe Illustrator 15.0.0, SVG Export Plug-In . SVG Version: 6.00 Build 0)  -->

<svg
   xmlns:dc="http://purl.org/dc/elements/1.1/"
   xmlns:cc="http://creativecommons.org/ns#"
   xmlns:rdf="http://www.w3.org/1999/02/22-rdf-syntax-ns#"
   xmlns:svg="http://www.w3.org/2000/svg"
   xmlns="http://www.w3.org/2000/svg"
   xmlns:sodipodi="http://sodipodi.sourceforge.net/DTD/sodipodi-0.dtd"
   xmlns:inkscape="http://www.inkscape.org/namespaces/inkscape"
   version="1.1"
   id="Ebene_1"
   x="0px"
   y="0px"
   width="470"
   height="409"
   viewBox="0 0 470 409"
   enable-background="new 0 0 600 600"
   xml:space="preserve"
   inkscape:version="0.91 r13725"
   sodipodi:docname="geschwindigkeitsvoranzeiger-sign-90.svg"><metadata
     id="metadata25"><rdf:RDF><cc:Work
         rdf:about=""><dc:format>image/svg+xml</dc:format><dc:type
           rdf:resource="http://purl.org/dc/dcmitype/StillImage" /><dc:title></dc:title></cc:Work></rdf:RDF></metadata><defs
     id="defs23" /><sodipodi:namedview
     pagecolor="#ffffff"
     bordercolor="#666666"
     borderopacity="1"
     objecttolerance="10"
     gridtolerance="10"
     guidetolerance="10"
     inkscape:pageopacity="0"
     inkscape:pageshadow="2"
     inkscape:window-width="640"
     inkscape:window-height="480"
     id="namedview21"
     showgrid="false"
     fit-margin-top="0"
     fit-margin-left="0"
     fit-margin-right="0"
     fit-margin-bottom="0"
     inkscape:zoom="11.238284"
     inkscape:cx="478.45932"
     inkscape:cy="400.6933"
     inkscape:current-layer="Ebene_1" /><polygon
     points="527,129 292,538 57,129 "
     id="polygon7"
     style="fill:#f39200"
     transform="translate(-57,-129)" /><polygon
     points="499,146 293.5,502 88,146 "
     id="polygon13"
     transform="translate(-57,-129)" /><path
     d="M 236.5,374 236.067,373.25 30.134,16.5 l 412.732,0 -0.434,0.75 L 236.5,374 Z M 31.866,17.5 236.5,372 441.134,17.5 31.866,17.5 Z"
     id="path15"
     inkscape:connector-curvature="0" /><path
     stroke-miterlimit="10"
     d="m 167.453,214.34 26.187,-2.422 c 2.218,12.313 6.457,21.243 12.715,26.792 6.256,5.551 14.278,8.325 24.067,8.325 8.375,0 15.717,-1.916 22.024,-5.752 6.306,-3.834 11.478,-8.954 15.515,-15.363 4.035,-6.407 7.418,-15.062 10.143,-25.96 2.725,-10.898 4.086,-21.998 4.086,-33.301 0,-1.211 -0.052,-3.027 -0.15,-5.449 -5.449,8.68 -12.893,15.719 -22.327,21.116 -9.437,5.399 -19.655,8.098 -30.652,8.098 -18.368,0 -33.906,-6.66 -46.621,-19.98 -12.715,-13.32 -19.072,-30.879 -19.072,-52.676 0,-22.501 6.634,-40.616 19.905,-54.341 13.268,-13.722 29.895,-20.586 49.875,-20.586 14.43,0 27.625,3.886 39.583,11.655 11.958,7.772 21.04,18.845 27.246,33.225 6.206,14.38 9.31,35.193 9.31,62.439 0,28.358 -3.08,50.936 -9.234,67.736 -6.156,16.803 -15.313,29.593 -27.473,38.372 -12.161,8.779 -26.414,13.169 -42.762,13.169 -17.357,0 -31.537,-4.817 -42.534,-14.455 -11.002,-9.635 -17.613,-23.183 -19.831,-40.642 z m 111.559,-97.935 c 0,-15.641 -4.163,-28.053 -12.488,-37.236 -8.325,-9.181 -18.342,-13.774 -30.047,-13.774 -12.109,0 -22.655,4.945 -31.635,14.834 -8.983,9.891 -13.472,22.705 -13.472,38.447 0,14.129 4.262,25.607 12.791,34.436 8.526,8.832 19.046,13.245 31.561,13.245 12.613,0 22.982,-4.413 31.106,-13.245 8.12,-8.829 12.184,-21.064 12.184,-36.707 z"
     id="path19"
     inkscape:connector-curvature="0"
     style="fill:#f39200;stroke:none;stroke-width:2;stroke-miterlimit:10" /></svg>