<?xml version="1.0" encoding="UTF-8" standalone="no"?>
<svg
   xmlns:dc="http://purl.org/dc/elements/1.1/"
   xmlns:cc="http://creativecommons.org/ns#"
   xmlns:rdf="http://www.w3.org/1999/02/22-rdf-syntax-ns#"
   xmlns:svg="http://www.w3.org/2000/svg"
   xmlns="http://www.w3.org/2000/svg"
   xmlns:sodipodi="http://sodipodi.sourceforge.net/DTD/sodipodi-0.dtd"
   xmlns:inkscape="http://www.inkscape.org/namespaces/inkscape"
   width="154"
   height="154"
   id="svg3894"
   version="1.1"
   inkscape:version="0.91 r13725"
   sodipodi:docname="geschwindigkeitsanzeiger_030.svg">
  <sodipodi:namedview
     pagecolor="#ffffff"
     bordercolor="#666666"
     borderopacity="1"
     objecttolerance="10"
     gridtolerance="10"
     guidetolerance="10"
     inkscape:pageopacity="0"
     inkscape:pageshadow="2"
     inkscape:window-width="640"
     inkscape:window-height="480"
     id="namedview10"
     showgrid="false"
     fit-margin-top="0"
     fit-margin-left="0"
     fit-margin-right="0"
     fit-margin-bottom="0"
     inkscape:zoom="0.93125"
     inkscape:cx="186.22196"
     inkscape:cy="52.693695"
     inkscape:current-layer="svg3894" />
  <defs
     id="defs3896" />
  <metadata
     id="metadata3899">
    <rdf:RDF>
      <cc:Work
         rdf:about="">
        <dc:format>image/svg+xml</dc:format>
        <dc:type
           rdf:resource="http://purl.org/dc/dcmitype/StillImage" />
        <dc:title></dc:title>
      </cc:Work>
    </rdf:RDF>
  </metadata>
  <path
     inkscape:connector-curvature="0"
     id="path3925"
     d="M 5,5 5,149 149,149 149,5 5,5 Z"
     style="fill:#000000;fill-opacity:1;stroke:#ffffff;stroke-width:10;stroke-linecap:butt;stroke-linejoin:miter;stroke-miterlimit:4;stroke-dasharray:none;stroke-opacity:1" />
  <g
     id="g15"
     transform="matrix(0.25045519,0,0,0.25045519,-18.431442,-21.683477)">
    <path
       style="fill:#ffffff"
       inkscape:connector-curvature="0"
       id="path17"
       d="m 252.034,484.315 48.374,-6.45 c 5.551,27.412 15.003,47.165 28.353,59.259 13.345,12.093 29.604,18.14 48.777,18.14 22.751,0 41.966,-7.882 57.646,-23.649 15.676,-15.764 23.516,-35.294 23.516,-58.586 0,-22.214 -7.257,-40.535 -21.769,-54.959 -14.513,-14.42 -32.968,-21.634 -55.362,-21.634 -9.138,0 -20.517,1.793 -34.131,5.375 l 5.375,-42.462 c 3.225,0.361 5.82,0.538 7.793,0.538 20.601,0 39.145,-5.375 55.631,-16.125 16.481,-10.75 24.725,-27.32 24.725,-49.718 0,-17.737 -6.005,-32.426 -18.006,-44.074 -12.006,-11.644 -27.505,-17.468 -46.494,-17.468 -18.812,0 -34.492,5.912 -47.03,17.737 -12.542,11.825 -20.605,29.562 -24.187,53.211 l -48.374,-8.6 c 5.913,-32.426 19.35,-57.553 40.312,-75.383 20.962,-17.825 47.03,-26.74 78.205,-26.74 21.5,0 41.295,4.615 59.393,13.84 18.095,9.23 31.935,21.814 41.521,37.759 9.582,15.948 14.378,32.879 14.378,50.792 0,17.023 -4.569,32.518 -13.706,46.493 -9.138,13.975 -22.667,25.085 -40.581,33.324 23.289,5.375 41.387,16.528 54.287,33.458 12.899,16.932 19.35,38.12 19.35,63.559 0,34.399 -12.543,63.558 -37.625,87.477 -25.085,23.918 -56.797,35.877 -95.136,35.877 -34.58,0 -63.289,-10.301 -86.132,-30.905 -22.844,-20.601 -35.878,-47.298 -39.103,-80.086 z" />
  </g>
</svg>
