<?xml version="1.0" encoding="UTF-8" standalone="no"?>
<svg
   xmlns:dc="http://purl.org/dc/elements/1.1/"
   xmlns:cc="http://creativecommons.org/ns#"
   xmlns:rdf="http://www.w3.org/1999/02/22-rdf-syntax-ns#"
   xmlns:svg="http://www.w3.org/2000/svg"
   xmlns="http://www.w3.org/2000/svg"
   version="1.1"
   id="svg3894"
   height="154"
   width="154">
  <defs
     id="defs3896" />
  <metadata
     id="metadata3899">
    <rdf:RDF>
      <cc:Work
         rdf:about="">
        <dc:format>image/svg+xml</dc:format>
        <dc:type
           rdf:resource="http://purl.org/dc/dcmitype/StillImage" />
        <dc:title></dc:title>
      </cc:Work>
    </rdf:RDF>
  </metadata>
  <path
     style="fill:#ffffff;stroke:#ff0000;stroke-width:10;stroke-linecap:butt;stroke-linejoin:miter;stroke-miterlimit:4;stroke-dasharray:none;stroke-opacity:1;fill-opacity:1"
     d="M 5,5 5,149 149,149 149,5 5,5 Z"
     id="path3925" />
  <g
     transform="translate(-3,-895.36218)"
     style="font-style:normal;font-variant:normal;font-weight:normal;font-stretch:normal;font-size:144px;line-height:125%;font-family:'Swis721 BT';-inkscape-font-specification:'Swis721 BT';text-align:start;writing-mode:lr-tb;text-anchor:start;fill:#ff0000;fill-opacity:1;stroke:none"
     id="text4437">
    <path
       d="m 96.170853,1013.7204 c -4.218788,4.2188 -9.30472,6.3281 -15.257813,6.3281 -5.953145,0 -11.039078,-2.1093 -15.257812,-6.3281 -4.218757,-4.2187 -6.32813,-9.3047 -6.328125,-15.25781 l 0,-7.24219 14.34375,0 0,7.24219 c -2e-5,2.01561 0.703105,3.72661 2.109375,5.13281 1.406227,1.3594 3.117163,2.0391 5.132812,2.0391 2.015597,0 3.703095,-0.6797 5.0625,-2.0391 1.406217,-1.4062 2.109341,-3.1172 2.109375,-5.13281 l 0,-15.67969 c -2.296906,0.84378 -4.687529,1.26566 -7.171875,1.26562 -5.953145,4e-5 -11.039078,-2.10933 -15.257812,-6.32812 -4.218757,-4.21871 -6.32813,-9.30464 -6.328125,-15.25781 l 0,-21.58594 c -5e-6,-5.95304 2.109368,-11.03897 6.328125,-15.25781 4.218734,-4.26553 9.304667,-6.39834 15.257812,-6.39844 5.953093,10e-5 11.039025,2.13291 15.257813,6.39844 4.218707,4.21884 6.328077,9.30477 6.328127,15.25781 l 0,21.58594 0,36 c -5e-5,5.95311 -2.10942,11.03911 -6.328127,15.25781 m -20.390625,-46.125 c 1.406227,1.35942 3.117163,2.03911 5.132812,2.03906 2.015597,5e-5 3.703095,-0.67964 5.0625,-2.03906 1.406217,-1.4062 2.109341,-3.11713 2.109375,-5.13281 l 0,-21.58594 c -3.4e-5,-2.01555 -0.703158,-3.72648 -2.109375,-5.13281 -1.359405,-1.40617 -3.046903,-2.10929 -5.0625,-2.10938 -2.015649,9e-5 -3.726585,0.70321 -5.132812,2.10938 -1.40627,1.40633 -2.109395,3.11726 -2.109375,5.13281 l 0,21.58594 c -2e-5,2.01568 0.703105,3.72661 2.109375,5.13281"
       style="font-weight:bold;font-family:OSP-DIN;-inkscape-font-specification:'OSP-DIN Bold'"
       id="path3047" />
  </g>
</svg>
