<?xml version="1.0" encoding="UTF-8" standalone="no"?>
<svg
   xmlns:dc="http://purl.org/dc/elements/1.1/"
   xmlns:cc="http://creativecommons.org/ns#"
   xmlns:rdf="http://www.w3.org/1999/02/22-rdf-syntax-ns#"
   xmlns:svg="http://www.w3.org/2000/svg"
   xmlns="http://www.w3.org/2000/svg"
   xmlns:sodipodi="http://sodipodi.sourceforge.net/DTD/sodipodi-0.dtd"
   xmlns:inkscape="http://www.inkscape.org/namespaces/inkscape"
   width="154"
   height="154"
   id="svg3894"
   version="1.1"
   inkscape:version="0.91 r13725"
   sodipodi:docname="geschwindigkeitsanzeiger_050.svg">
  <sodipodi:namedview
     pagecolor="#ffffff"
     bordercolor="#666666"
     borderopacity="1"
     objecttolerance="10"
     gridtolerance="10"
     guidetolerance="10"
     inkscape:pageopacity="0"
     inkscape:pageshadow="2"
     inkscape:window-width="640"
     inkscape:window-height="480"
     id="namedview10"
     showgrid="false"
     fit-margin-top="0"
     fit-margin-left="0"
     fit-margin-right="0"
     fit-margin-bottom="0"
     inkscape:zoom="0.93125"
     inkscape:cx="97.877623"
     inkscape:cy="119.81399"
     inkscape:current-layer="svg3894" />
  <defs
     id="defs3896" />
  <metadata
     id="metadata3899">
    <rdf:RDF>
      <cc:Work
         rdf:about="">
        <dc:format>image/svg+xml</dc:format>
        <dc:type
           rdf:resource="http://purl.org/dc/dcmitype/StillImage" />
        <dc:title></dc:title>
      </cc:Work>
    </rdf:RDF>
  </metadata>
  <path
     inkscape:connector-curvature="0"
     id="path3925"
     d="M 5,5 5,149 149,149 149,5 5,5 Z"
     style="fill:#000000;fill-opacity:1;stroke:#ffffff;stroke-width:10;stroke-linecap:butt;stroke-linejoin:miter;stroke-miterlimit:4;stroke-dasharray:none;stroke-opacity:1" />
  <g
     transform="matrix(0.25505155,0,0,0.25505155,-20.525591,-24.35162)"
     id="g15">
    <path
       style="fill:#ffffff"
       inkscape:connector-curvature="0"
       id="path17"
       d="m 251.765,485.121 50.792,-4.3 c 3.763,24.725 12.497,43.314 26.203,55.765 13.706,12.455 30.234,18.678 49.583,18.678 23.289,0 43,-8.776 59.124,-26.337 16.125,-17.557 24.188,-40.849 24.188,-69.873 0,-27.589 -7.752,-49.357 -23.247,-65.306 -15.499,-15.944 -35.789,-23.918 -60.871,-23.918 -15.587,0 -29.654,3.54 -42.193,10.616 -12.543,7.08 -22.398,16.259 -29.562,27.546 l -45.418,-5.912 38.162,-202.365 195.915,0 0,46.224 -157.215,0 -21.23,105.885 c 23.649,-16.481 48.462,-24.724 74.442,-24.724 34.4,0 63.424,11.917 87.074,35.743 23.649,23.83 35.475,54.467 35.475,91.912 0,35.654 -10.394,66.472 -31.175,92.447 -25.262,31.893 -59.754,47.837 -103.467,47.837 -35.835,0 -65.083,-10.032 -87.745,-30.1 -22.668,-20.064 -35.61,-46.669 -38.835,-79.818 z" />
  </g>
</svg>
