<?xml version="1.0" encoding="UTF-8" standalone="no"?>
<svg
   xmlns:dc="http://purl.org/dc/elements/1.1/"
   xmlns:cc="http://creativecommons.org/ns#"
   xmlns:rdf="http://www.w3.org/1999/02/22-rdf-syntax-ns#"
   xmlns:svg="http://www.w3.org/2000/svg"
   xmlns="http://www.w3.org/2000/svg"
   xmlns:sodipodi="http://sodipodi.sourceforge.net/DTD/sodipodi-0.dtd"
   xmlns:inkscape="http://www.inkscape.org/namespaces/inkscape"
   width="154"
   height="154"
   id="svg3894"
   version="1.1"
   inkscape:version="0.91 r13725"
   sodipodi:docname="geschwindigkeitsanzeiger_090.svg">
  <sodipodi:namedview
     pagecolor="#ffffff"
     bordercolor="#666666"
     borderopacity="1"
     objecttolerance="10"
     gridtolerance="10"
     guidetolerance="10"
     inkscape:pageopacity="0"
     inkscape:pageshadow="2"
     inkscape:window-width="640"
     inkscape:window-height="480"
     id="namedview10"
     showgrid="false"
     fit-margin-top="0"
     fit-margin-left="0"
     fit-margin-right="0"
     fit-margin-bottom="0"
     inkscape:zoom="2.6339728"
     inkscape:cx="85.276422"
     inkscape:cy="51.211457"
     inkscape:current-layer="svg3894" />
  <defs
     id="defs3896" />
  <metadata
     id="metadata3899">
    <rdf:RDF>
      <cc:Work
         rdf:about="">
        <dc:format>image/svg+xml</dc:format>
        <dc:type
           rdf:resource="http://purl.org/dc/dcmitype/StillImage" />
        <dc:title></dc:title>
      </cc:Work>
    </rdf:RDF>
  </metadata>
  <path
     inkscape:connector-curvature="0"
     id="path3925"
     d="M 5,5 5,149 149,149 149,5 5,5 Z"
     style="fill:#000000;fill-opacity:1;stroke:#ffffff;stroke-width:10;stroke-linecap:butt;stroke-linejoin:miter;stroke-miterlimit:4;stroke-dasharray:none;stroke-opacity:1" />
  <g
     transform="matrix(0.25062203,0,0,0.25062203,-18.561804,-21.715632)"
     id="g15">
    <path
       style="fill:#ffffff"
       inkscape:connector-curvature="0"
       id="path17"
       d="m 259.021,497.215 46.493,-4.3 c 3.938,21.86 11.463,37.717 22.574,47.567 11.107,9.855 25.35,14.781 42.73,14.781 14.869,0 27.903,-3.401 39.103,-10.212 11.194,-6.807 20.378,-15.898 27.546,-27.277 7.164,-11.376 13.169,-26.74 18.006,-46.09 4.838,-19.35 7.256,-39.057 7.256,-59.124 0,-2.15 -0.092,-5.375 -0.269,-9.675 -9.675,15.41 -22.89,27.907 -39.64,37.489 -16.755,9.587 -34.895,14.379 -54.421,14.379 -32.611,0 -60.199,-11.825 -82.773,-35.475 -22.575,-23.65 -33.862,-54.824 -33.862,-93.523 0,-39.951 11.778,-72.112 35.34,-96.479 23.557,-24.363 53.077,-36.549 88.551,-36.549 25.619,0 49.046,6.899 70.277,20.693 21.23,13.798 37.355,33.459 48.374,58.99 11.019,25.53 16.527,62.483 16.527,110.857 0,50.348 -5.467,90.433 -16.394,120.263 -10.93,29.831 -27.189,52.54 -48.776,68.127 -21.593,15.587 -46.897,23.381 -75.921,23.381 -30.817,0 -55.991,-8.554 -75.517,-25.665 -19.528,-17.107 -31.265,-41.16 -35.204,-72.158 z M 457.086,323.337 c 0,-27.769 -7.391,-49.806 -22.171,-66.111 -14.781,-16.301 -32.564,-24.456 -53.346,-24.456 -21.5,0 -40.224,8.78 -56.168,26.337 -15.948,17.561 -23.918,40.312 -23.918,68.261 0,25.085 7.567,45.464 22.709,61.139 15.138,15.68 33.815,23.515 56.033,23.515 22.394,0 40.803,-7.835 55.227,-23.515 14.42,-15.675 21.634,-37.397 21.634,-65.17 z" />
  </g>
</svg>
