<?xml version="1.0" encoding="UTF-8" standalone="no"?>
<!-- Generator: Adobe Illustrator 15.0.0, SVG Export Plug-In . SVG Version: 6.00 Build 0)  -->

<svg
   xmlns:dc="http://purl.org/dc/elements/1.1/"
   xmlns:cc="http://creativecommons.org/ns#"
   xmlns:rdf="http://www.w3.org/1999/02/22-rdf-syntax-ns#"
   xmlns:svg="http://www.w3.org/2000/svg"
   xmlns="http://www.w3.org/2000/svg"
   xmlns:sodipodi="http://sodipodi.sourceforge.net/DTD/sodipodi-0.dtd"
   xmlns:inkscape="http://www.inkscape.org/namespaces/inkscape"
   version="1.1"
   id="Ebene_1"
   x="0px"
   y="0px"
   width="470"
   height="409"
   viewBox="0 0 470 409"
   enable-background="new 0 0 600 600"
   xml:space="preserve"
   inkscape:version="0.91 r13725"
   sodipodi:docname="geschwindigkeitsvoranzeiger-sign-30.svg"><metadata
     id="metadata25"><rdf:RDF><cc:Work
         rdf:about=""><dc:format>image/svg+xml</dc:format><dc:type
           rdf:resource="http://purl.org/dc/dcmitype/StillImage" /><dc:title></dc:title></cc:Work></rdf:RDF></metadata><defs
     id="defs23" /><sodipodi:namedview
     pagecolor="#ffffff"
     bordercolor="#666666"
     borderopacity="1"
     objecttolerance="10"
     gridtolerance="10"
     guidetolerance="10"
     inkscape:pageopacity="0"
     inkscape:pageshadow="2"
     inkscape:window-width="640"
     inkscape:window-height="480"
     id="namedview21"
     showgrid="false"
     fit-margin-top="0"
     fit-margin-left="0"
     fit-margin-right="0"
     fit-margin-bottom="0"
     inkscape:zoom="0.70239274"
     inkscape:cx="227.44126"
     inkscape:cy="289.01416"
     inkscape:current-layer="Ebene_1" /><polygon
     points="527,129 292,538 57,129 "
     id="polygon7"
     style="fill:#f39200"
     transform="translate(-57,-129)" /><g
     id="g11"
     transform="translate(-57,-129)"><polygon
       id="polygon13"
       points="293.5,502 88,146 499,146 " /><path
       inkscape:connector-curvature="0"
       id="path15"
       d="m 293.5,503 -0.433,-0.75 -205.933,-356.75 412.732,0 -0.434,0.75 L 293.5,503 Z M 88.866,146.5 293.5,501 498.134,146.5 l -409.268,0 z" /></g><path
     stroke-miterlimit="10"
     d="m 162.285,205.873 27.805,-3.708 c 3.191,15.757 8.624,27.11 16.297,34.062 7.67,6.951 17.016,10.427 28.036,10.427 13.077,0 24.122,-4.53 33.135,-13.594 9.01,-9.061 13.516,-20.286 13.516,-33.675 0,-12.768 -4.17,-23.298 -12.512,-31.589 -8.342,-8.288 -18.949,-12.435 -31.821,-12.435 -5.252,0 -11.793,1.03 -19.618,3.089 l 3.089,-24.407 c 1.854,0.208 3.345,0.309 4.479,0.309 11.842,0 22.5,-3.089 31.976,-9.269 9.474,-6.179 14.212,-15.703 14.212,-28.577 0,-10.195 -3.452,-18.638 -10.35,-25.333 -6.901,-6.693 -15.81,-10.041 -26.724,-10.041 -10.813,0 -19.826,3.398 -27.033,10.195 -7.209,6.797 -11.844,16.992 -13.902,30.585 l -27.805,-4.943 c 3.398,-18.638 11.122,-33.081 23.171,-43.329 12.049,-10.246 27.032,-15.37 44.951,-15.37 12.357,0 23.735,2.653 34.139,7.956 10.399,5.305 18.355,12.539 23.865,21.703 5.508,9.167 8.265,18.899 8.265,29.195 0,9.785 -2.626,18.691 -7.878,26.724 -5.252,8.032 -13.029,14.419 -23.325,19.154 13.386,3.089 23.788,9.5 31.203,19.232 7.414,9.731 11.122,21.911 11.122,36.533 0,19.771 -7.21,36.532 -21.626,50.28 -14.419,13.748 -32.647,20.622 -54.684,20.622 -19.876,0 -36.378,-5.921 -49.508,-17.765 -13.13,-11.84 -20.621,-27.185 -22.475,-46.031 z"
     id="path19"
     inkscape:connector-curvature="0"
     style="fill:#f39200;stroke:none;stroke-width:2;stroke-miterlimit:10" /></svg>