<?xml version="1.0" encoding="UTF-8" standalone="no"?>
<svg
   xmlns:dc="http://purl.org/dc/elements/1.1/"
   xmlns:cc="http://creativecommons.org/ns#"
   xmlns:rdf="http://www.w3.org/1999/02/22-rdf-syntax-ns#"
   xmlns:svg="http://www.w3.org/2000/svg"
   xmlns="http://www.w3.org/2000/svg"
   xmlns:sodipodi="http://sodipodi.sourceforge.net/DTD/sodipodi-0.dtd"
   xmlns:inkscape="http://www.inkscape.org/namespaces/inkscape"
   width="160"
   height="160"
   id="svg3894"
   version="1.1"
   inkscape:version="0.91 r13725"
   sodipodi:docname="geschwindigkeitsanzeiger_020.svg">
  <sodipodi:namedview
     pagecolor="#ffffff"
     bordercolor="#666666"
     borderopacity="1"
     objecttolerance="10"
     gridtolerance="10"
     guidetolerance="10"
     inkscape:pageopacity="0"
     inkscape:pageshadow="2"
     inkscape:window-width="640"
     inkscape:window-height="480"
     id="namedview10"
     showgrid="false"
     inkscape:zoom="0.65849319"
     inkscape:cx="224.35415"
     inkscape:cy="132.11625"
     inkscape:current-layer="svg3894" />
  <defs
     id="defs3896" />
  <metadata
     id="metadata3899">
    <rdf:RDF>
      <cc:Work
         rdf:about="">
        <dc:format>image/svg+xml</dc:format>
        <dc:type
           rdf:resource="http://purl.org/dc/dcmitype/StillImage" />
        <dc:title />
      </cc:Work>
    </rdf:RDF>
  </metadata>
  <path
     inkscape:connector-curvature="0"
     id="path3925"
     d="M 8,8 8,152 152,152 152,8 8,8 Z"
     style="fill:#000000;stroke:#ffffff;stroke-width:10;stroke-linecap:butt;stroke-linejoin:miter;stroke-miterlimit:4;stroke-dasharray:none;stroke-opacity:1;fill-opacity:1" />
  <g
     id="g15"
     transform="matrix(0.25487812,0,0,0.25487812,-15.775348,-19.535641)">
    <path
       style="fill:#ffffff"
       inkscape:connector-curvature="0"
       id="path17"
       d="m 505.998,541.826 0,46.493 -260.414,0 c -0.361,-11.645 1.52,-22.844 5.644,-33.593 6.626,-17.737 17.242,-35.206 31.846,-52.405 14.601,-17.2 35.697,-37.087 63.29,-59.661 42.818,-35.113 71.755,-62.929 86.805,-83.446 15.05,-20.513 22.574,-39.909 22.574,-58.183 0,-19.169 -6.853,-35.34 -20.559,-48.508 -13.706,-13.168 -31.578,-19.753 -53.615,-19.753 -23.293,0 -41.924,6.987 -55.899,20.962 -13.975,13.975 -21.055,33.324 -21.231,58.048 l -49.718,-5.106 c 3.401,-37.086 16.213,-65.347 38.431,-84.789 22.213,-19.438 52.044,-29.159 89.492,-29.159 37.801,0 67.724,10.481 89.761,31.443 22.037,20.962 33.056,46.942 33.056,77.936 0,15.768 -3.225,31.267 -9.675,46.493 -6.449,15.23 -17.157,31.267 -32.114,48.105 -14.962,16.843 -39.82,39.955 -74.578,69.337 -29.024,24.367 -47.66,40.895 -55.898,49.583 -8.243,8.692 -15.05,17.427 -20.425,26.202 l 193.227,0 z" />
  </g>
</svg>
