<?xml version="1.0" encoding="UTF-8" standalone="no"?>
<svg
   xmlns:dc="http://purl.org/dc/elements/1.1/"
   xmlns:cc="http://creativecommons.org/ns#"
   xmlns:rdf="http://www.w3.org/1999/02/22-rdf-syntax-ns#"
   xmlns:svg="http://www.w3.org/2000/svg"
   xmlns="http://www.w3.org/2000/svg"
   version="1.1"
   id="svg3894"
   height="154"
   width="154">
  <defs
     id="defs3896" />
  <metadata
     id="metadata3899">
    <rdf:RDF>
      <cc:Work
         rdf:about="">
        <dc:format>image/svg+xml</dc:format>
        <dc:type
           rdf:resource="http://purl.org/dc/dcmitype/StillImage" />
        <dc:title></dc:title>
      </cc:Work>
    </rdf:RDF>
  </metadata>
  <path
     style="fill:#ffffff;fill-opacity:1;stroke:#ff0000;stroke-width:10;stroke-linecap:butt;stroke-linejoin:miter;stroke-miterlimit:4;stroke-dasharray:none;stroke-opacity:1"
     d="M 5,5 5,149 149,149 149,5 5,5 Z"
     id="path3925" />
  <g
     transform="translate(-3,-895.36218)"
     style="font-style:normal;font-variant:normal;font-weight:normal;font-stretch:normal;font-size:144px;line-height:125%;font-family:'Swis721 BT';-inkscape-font-specification:'Swis721 BT';text-align:start;writing-mode:lr-tb;text-anchor:start;fill:#ff0000;fill-opacity:1;stroke:none"
     id="text4437">
    <path
       d="m 65.655228,925.61884 c 4.218734,-4.26553 9.304667,-6.39834 15.257812,-6.39844 5.953093,10e-5 11.039025,2.13291 15.257813,6.39844 4.218707,4.21884 6.328077,9.30477 6.328127,15.25781 -5e-5,3.18757 -0.63286,6.16413 -1.89844,8.92969 l -25.171875,55.82816 27.070315,0 0,14.414 -43.171877,0 0,-14.414 27.070312,-59.20316 c 1.171842,-2.76555 1.734341,-4.61711 1.6875,-5.55469 -3.4e-5,-2.01555 -0.703158,-3.72648 -2.109375,-5.13281 -1.359405,-1.40617 -3.046903,-2.10929 -5.0625,-2.10938 -2.015649,9e-5 -3.726585,0.70321 -5.132812,2.10938 -1.40627,1.40633 -2.109395,3.11726 -2.109375,5.13281 l -14.34375,0 c -5e-6,-5.95304 2.109368,-11.03897 6.328125,-15.25781"
       style="font-weight:bold;font-family:OSP-DIN;-inkscape-font-specification:'OSP-DIN Bold'"
       id="path3032" />
  </g>
</svg>
