<?xml version="1.0" encoding="UTF-8" standalone="no"?>
<svg
   xmlns:dc="http://purl.org/dc/elements/1.1/"
   xmlns:cc="http://creativecommons.org/ns#"
   xmlns:rdf="http://www.w3.org/1999/02/22-rdf-syntax-ns#"
   xmlns:svg="http://www.w3.org/2000/svg"
   xmlns="http://www.w3.org/2000/svg"
   xmlns:sodipodi="http://sodipodi.sourceforge.net/DTD/sodipodi-0.dtd"
   xmlns:inkscape="http://www.inkscape.org/namespaces/inkscape"
   width="154"
   height="154"
   id="svg3894"
   version="1.1"
   inkscape:version="0.91 r13725"
   sodipodi:docname="geschwindigkeitsanzeiger_060.svg">
  <sodipodi:namedview
     pagecolor="#ffffff"
     bordercolor="#666666"
     borderopacity="1"
     objecttolerance="10"
     gridtolerance="10"
     guidetolerance="10"
     inkscape:pageopacity="0"
     inkscape:pageshadow="2"
     inkscape:window-width="640"
     inkscape:window-height="480"
     id="namedview10"
     showgrid="false"
     inkscape:zoom="0.93125"
     inkscape:cx="-10.224501"
     inkscape:cy="139.2371"
     inkscape:current-layer="svg3894"
     fit-margin-top="0"
     fit-margin-left="0"
     fit-margin-right="0"
     fit-margin-bottom="0" />
  <defs
     id="defs3896" />
  <metadata
     id="metadata3899">
    <rdf:RDF>
      <cc:Work
         rdf:about="">
        <dc:format>image/svg+xml</dc:format>
        <dc:type
           rdf:resource="http://purl.org/dc/dcmitype/StillImage" />
        <dc:title></dc:title>
      </cc:Work>
    </rdf:RDF>
  </metadata>
  <path
     inkscape:connector-curvature="0"
     id="path3925"
     d="M 5,5 5,149 149,149 149,5 5,5 Z"
     style="fill:#000000;fill-opacity:1;stroke:#ffffff;stroke-width:10;stroke-linecap:butt;stroke-linejoin:miter;stroke-miterlimit:4;stroke-dasharray:none;stroke-opacity:1" />
  <g
     transform="matrix(0.25062203,0,0,0.25062203,-18.158177,-21.715882)"
     id="g15">
    <path
       style="fill:#ffffff"
       inkscape:connector-curvature="0"
       id="path17"
       d="m 502.773,290.819 -48.104,3.763 c -4.301,-18.989 -10.394,-32.787 -18.275,-41.387 -13.08,-13.794 -29.205,-20.693 -48.374,-20.693 -15.411,0 -28.936,4.3 -40.581,12.899 -15.23,11.111 -27.235,27.324 -36.012,48.643 -8.78,21.323 -13.349,51.691 -13.706,91.104 11.645,-17.737 25.888,-30.905 42.73,-39.505 16.838,-8.6 34.487,-12.899 52.943,-12.899 32.25,0 59.703,11.871 82.37,35.608 22.663,23.742 33.996,54.421 33.996,92.046 0,24.724 -5.332,47.702 -15.99,68.933 -10.661,21.23 -25.308,37.489 -43.939,48.777 -18.636,11.287 -39.774,16.931 -63.424,16.931 -40.312,0 -73.191,-14.823 -98.629,-44.478 -25.442,-29.649 -38.162,-78.515 -38.162,-146.6 0,-76.144 14.063,-131.505 42.193,-166.084 24.544,-30.1 57.6,-45.149 99.167,-45.149 30.994,0 56.391,8.692 76.189,26.068 19.794,17.38 31.665,41.386 35.608,72.023 z M 305.245,460.666 c 0,16.662 3.536,32.61 10.616,47.836 7.075,15.23 16.973,26.833 29.696,34.803 12.719,7.975 26.068,11.959 40.042,11.959 20.425,0 37.981,-8.238 52.675,-24.725 14.688,-16.481 22.037,-38.875 22.037,-67.186 0,-27.231 -7.257,-48.686 -21.769,-64.365 -14.513,-15.675 -32.787,-23.515 -54.824,-23.515 -21.861,0 -40.404,7.84 -55.63,23.515 -15.229,15.68 -22.843,36.24 -22.843,61.678 z" />
  </g>
</svg>
