<?xml version="1.0" encoding="UTF-8" standalone="no"?>
<!-- Generator: Adobe Illustrator 15.0.0, SVG Export Plug-In . SVG Version: 6.00 Build 0)  -->

<svg
   xmlns:dc="http://purl.org/dc/elements/1.1/"
   xmlns:cc="http://creativecommons.org/ns#"
   xmlns:rdf="http://www.w3.org/1999/02/22-rdf-syntax-ns#"
   xmlns:svg="http://www.w3.org/2000/svg"
   xmlns="http://www.w3.org/2000/svg"
   xmlns:sodipodi="http://sodipodi.sourceforge.net/DTD/sodipodi-0.dtd"
   xmlns:inkscape="http://www.inkscape.org/namespaces/inkscape"
   version="1.1"
   id="Ebene_1"
   x="0px"
   y="0px"
   width="470"
   height="409"
   viewBox="0 0 470 409"
   enable-background="new 0 0 600 600"
   xml:space="preserve"
   inkscape:version="0.91 r13725"
   sodipodi:docname="geschwindigkeitsvoranzeiger-sign-70.svg"><metadata
     id="metadata25"><rdf:RDF><cc:Work
         rdf:about=""><dc:format>image/svg+xml</dc:format><dc:type
           rdf:resource="http://purl.org/dc/dcmitype/StillImage" /><dc:title></dc:title></cc:Work></rdf:RDF></metadata><defs
     id="defs23" /><sodipodi:namedview
     pagecolor="#ffffff"
     bordercolor="#666666"
     borderopacity="1"
     objecttolerance="10"
     gridtolerance="10"
     guidetolerance="10"
     inkscape:pageopacity="0"
     inkscape:pageshadow="2"
     inkscape:window-width="640"
     inkscape:window-height="480"
     id="namedview21"
     showgrid="false"
     fit-margin-top="0"
     fit-margin-left="0"
     fit-margin-right="0"
     fit-margin-bottom="0"
     inkscape:zoom="7.9466666"
     inkscape:cx="429.73325"
     inkscape:cy="407.11168"
     inkscape:current-layer="Ebene_1" /><polygon
     points="527,129 292,538 57,129 "
     id="polygon7"
     style="fill:#f39200"
     transform="translate(-57,-129)" /><polygon
     points="499,146 293.5,502 88,146 "
     id="polygon13"
     transform="translate(-57,-129)" /><path
     d="M 236.5,374 236.067,373.25 30.134,16.5 l 412.732,0 -0.434,0.75 L 236.5,374 Z M 31.866,17.5 236.5,372 441.134,17.5 31.866,17.5 Z"
     id="path15"
     inkscape:connector-curvature="0" /><path
     stroke-miterlimit="10"
     d="m 174.182,72.812 0,-26.187 143.647,0 0,21.191 c -14.129,15.038 -28.13,35.018 -42.004,59.941 -13.876,24.926 -24.598,50.557 -32.166,76.895 -5.449,18.568 -8.93,38.901 -10.444,61.001 l -28.003,0 c 0.303,-17.457 3.732,-38.547 10.293,-63.271 6.559,-24.723 15.969,-48.563 28.23,-71.521 12.261,-22.956 25.302,-42.307 39.129,-58.049 l -108.682,0 z"
     id="path19"
     inkscape:connector-curvature="0"
     style="fill:#f39200;stroke:none;stroke-width:2;stroke-miterlimit:10" /></svg>