<?xml version="1.0" encoding="UTF-8" standalone="no"?>
<!-- Created with Inkscape (http://www.inkscape.org/) -->

<svg
   width="1000.0629"
   height="161.01457"
   viewBox="0 0 264.59998 42.601773"
   version="1.1"
   id="svg8220"
   inkscape:version="1.2.2 (732a01da63, 2022-12-09)"
   sodipodi:docname="haltestellentafel.svg"
   xmlns:inkscape="http://www.inkscape.org/namespaces/inkscape"
   xmlns:sodipodi="http://sodipodi.sourceforge.net/DTD/sodipodi-0.dtd"
   xmlns="http://www.w3.org/2000/svg"
   xmlns:svg="http://www.w3.org/2000/svg">
  <sodipodi:namedview
     id="namedview8222"
     pagecolor="#ffffff"
     bordercolor="#000000"
     borderopacity="0.25"
     inkscape:showpageshadow="2"
     inkscape:pageopacity="0.0"
     inkscape:pagecheckerboard="0"
     inkscape:deskcolor="#d1d1d1"
     inkscape:document-units="mm"
     showgrid="false"
     inkscape:zoom="2.3786088"
     inkscape:cx="503.23534"
     inkscape:cy="180.35753"
     inkscape:window-width="2560"
     inkscape:window-height="1494"
     inkscape:window-x="-11"
     inkscape:window-y="-11"
     inkscape:window-maximized="1"
     inkscape:current-layer="layer1" />
  <defs
     id="defs8217">
    <pattern
       id="EMFhbasepattern"
       patternUnits="userSpaceOnUse"
       width="6"
       height="6"
       x="0"
       y="0" />
  </defs>
  <g
     inkscape:label="Ebene 1"
     inkscape:groupmode="layer"
     id="layer1"
     transform="translate(-0.20483375,-0.15290497)">
    <g
       id="g9871">
      <g
         id="g9853"
         transform="matrix(0.55459721,0,0,0.55459721,75.943313,-59.340518)">
        <path
           style="fill:#000000;stroke-width:0.352366"
           d="m -136.56484,145.68106 v -38.40785 h 238.55149 238.55149 v 38.40785 38.40785 H 101.98665 -136.56484 Z m 112.756984,0.29931 c 9.593153,-18.62494 17.4949505,-34.00196 17.5595496,-34.17115 0.066643,-0.17454 -27.1817826,-0.30762 -62.9853446,-0.30762 h -63.102799 v 34.17946 34.17946 l 45.54325,-0.008 45.543249,-0.008 17.442095,-33.86354 z m 82.903678,10.62402 c 6.546114,-12.69397 14.444857,-28.03508 17.552763,-34.09136 l 5.650742,-11.01143 -14.557655,0.0165 -14.557652,0.0165 -19.203923,32.79923 C 23.417939,162.3734 14.409505,177.74826 13.961353,178.50017 l -0.814821,1.36713 17.023637,-0.0915 17.023636,-0.0915 z m 96.138988,-4.93311 c 7.94202,-15.40719 15.85503,-30.7483 17.58451,-34.09137 l 3.14444,-6.07831 -17.16799,0.01 -17.16799,0.01 -19.02774,32.45488 c -10.46526,17.8502 -19.47766,33.22795 -20.02755,34.17279 l -0.99981,1.71791 19.61105,-0.0911 19.61105,-0.0911 z m 181.07494,-5.99022 V 111.5016 h -50.51978 -50.51981 l -19.9533,34.0032 c -10.97436,18.70176 -19.95334,34.08252 -19.95334,34.17946 0,0.0969 31.7129,0.17626 70.47312,0.17626 h 70.47311 z"
           id="path8598" />
        <path
           style="fill:#ffffff;stroke-width:4.63753"
           d="M -499.42613,550.37165 V 421.16704 l 236.72534,0.67505 c 130.19893,0.37128 236.961081,0.91079 237.249202,1.19892 0.288121,0.28812 -20.364148,41.13702 -45.893932,90.77532 -25.529784,49.63831 -55.10384,107.23213 -65.72011,127.98629 l -19.30231,37.73483 -171.5291,0.0194 -171.52909,0.0194 z"
           id="path8738"
           transform="scale(0.26458333)" />
        <path
           style="fill:#ffffff;stroke-width:4.63753"
           d="m 52.358398,677.09588 c 0.835551,-1.57884 29.881984,-51.2971 64.547632,-110.48504 34.66564,-59.18794 67.89286,-116.01871 73.83827,-126.29059 l 10.80982,-18.67616 54.49807,-0.0523 54.49808,-0.0523 -5.26862,9.81015 c -2.89773,5.39559 -32.72281,63.18633 -66.27796,128.42387 l -61.00936,118.6137 H 152.2139 c -14.17923,0 -42.78913,0.35534 -63.577555,0.78967 l -37.79713,0.78965 z"
           id="path8740"
           transform="scale(0.26458333)" />
        <path
           style="fill:#ffffff;stroke-width:4.63753"
           d="m 387.53368,675.18768 c 1.31033,-2.49135 35.19707,-60.44762 75.30386,-128.79171 l 72.92144,-124.26198 64.01336,-0.30767 c 51.0812,-0.24552 63.89726,-0.005 63.43862,1.1901 -1.24168,3.23578 -130.61306,253.58609 -131.41666,254.3082 -0.47122,0.42343 -33.65867,1.13503 -73.7499,1.58134 l -72.89315,0.81145 z"
           id="path8742"
           transform="scale(0.26458333)" />
        <path
           style="fill:#ffffff;stroke-width:4.63753"
           d="m 771.58503,678.41646 -31.65866,-0.62385 10.02861,-17.2421 c 5.51573,-9.48315 39.27203,-67.14011 75.014,-128.12658 l 64.98541,-110.88449 h 190.00741 190.0075 v 129.01841 129.01842 l -233.3628,-0.26798 C 908.25696,679.1609 788.9973,678.75958 771.58503,678.41646 Z"
           id="path8744"
           transform="scale(0.26458333)" />
        <path
           style="fill:#ffffff;stroke-width:4.63753"
           d="m 771.5373,678.41646 -31.70639,-0.62385 28.49608,-48.75351 c 15.67285,-26.81442 49.45434,-84.47139 75.07,-128.12658 l 46.57392,-79.37308 h 189.99919 189.9992 v 129.01841 129.01842 l -233.3628,-0.26798 C 908.25696,679.1609 788.97582,678.75958 771.5373,678.41646 Z"
           id="path9845"
           transform="scale(0.26458333)" />
      </g>
      <path
         style="fill:#ffffff;stroke-width:1.63961"
         d="m 315.48343,152.34034 c -0.12519,-0.20288 55.79237,-96.065311 80.18244,-137.460997 l 2.87533,-4.8801066 30.09424,-0.3109212 c 16.55184,-0.1710067 30.18228,-0.2228991 30.28986,-0.1153164 0.10758,0.1075827 -2.90914,6.2272692 -6.70384,13.5993042 -36.51387,70.936346 -66.32118,128.772567 -66.42255,128.882117 -0.20963,0.22657 -70.17655,0.51107 -70.31548,0.28592 z"
         id="path9855"
         transform="scale(0.26458333)" />
      <path
         style="fill:#ffffff;stroke-width:1.63961"
         d="m 500.72912,152.0847 c 0.009,-0.17342 18.71175,-32.19319 41.56179,-71.155041 l 41.54551,-70.839727 9.41339,-0.2610606 c 9.93096,-0.2754137 62.17533,-0.4686918 62.17533,-0.2300177 0,0.076749 -8.19237,16.0156873 -18.20526,35.4198643 C 627.207,64.422893 610.71333,96.400522 600.5673,116.08011 l -18.44734,35.78108 -4.40316,0.26941 c -6.20265,0.37951 -77.00745,0.3373 -76.98768,-0.0459 z"
         id="path9857"
         transform="scale(0.26458333)" />
      <path
         style="fill:#ffffff;stroke-width:1.63961"
         d="m 697.61712,152.07826 c -0.32815,-0.21116 0.13284,-1.37289 1.45718,-3.67218 2.91659,-5.06373 47.74729,-81.624989 65.66711,-112.145388 L 780.47763,9.4593108 H 886.11691 991.75619 V 80.929659 152.40001 l -146.82953,-0.006 c -80.75623,-0.003 -147.04553,-0.14543 -147.30954,-0.31531 z"
         id="path9859"
         transform="scale(0.26458333)" />
    </g>
  </g>
</svg>
