<?xml version="1.0" encoding="UTF-8" standalone="no"?>
<!-- Created with Inkscape (http://www.inkscape.org/) -->

<svg
   width="211.38788"
   height="430.56854"
   viewBox="0 0 55.929707 113.92126"
   version="1.1"
   id="svg19254"
   inkscape:version="1.2.2 (732a01da63, 2022-12-09)"
   sodipodi:docname="mittelraeumer_heben.svg"
   xml:space="preserve"
   xmlns:inkscape="http://www.inkscape.org/namespaces/inkscape"
   xmlns:sodipodi="http://sodipodi.sourceforge.net/DTD/sodipodi-0.dtd"
   xmlns="http://www.w3.org/2000/svg"
   xmlns:svg="http://www.w3.org/2000/svg"><sodipodi:namedview
     id="namedview19256"
     pagecolor="#ffffff"
     bordercolor="#000000"
     borderopacity="0.25"
     inkscape:showpageshadow="2"
     inkscape:pageopacity="0.0"
     inkscape:pagecheckerboard="0"
     inkscape:deskcolor="#d1d1d1"
     inkscape:document-units="mm"
     showgrid="false"
     inkscape:zoom="0.92438075"
     inkscape:cx="-145.50281"
     inkscape:cy="310.47812"
     inkscape:window-width="2560"
     inkscape:window-height="1494"
     inkscape:window-x="-11"
     inkscape:window-y="-11"
     inkscape:window-maximized="1"
     inkscape:current-layer="layer1" /><defs
     id="defs19251"><rect
       x="40"
       y="135"
       width="440"
       height="256"
       id="rect22447" /><pattern
       id="EMFhbasepattern"
       patternUnits="userSpaceOnUse"
       width="6"
       height="6"
       x="0"
       y="0" /><pattern
       id="EMFhbasepattern-1"
       patternUnits="userSpaceOnUse"
       width="6"
       height="6"
       x="0"
       y="0" /><pattern
       id="EMFhbasepattern-8"
       patternUnits="userSpaceOnUse"
       width="6"
       height="6"
       x="0"
       y="0" /><pattern
       id="EMFhbasepattern-5"
       patternUnits="userSpaceOnUse"
       width="6"
       height="6"
       x="0"
       y="0" /><pattern
       id="EMFhbasepattern-9"
       patternUnits="userSpaceOnUse"
       width="6"
       height="6"
       x="0"
       y="0" /></defs><g
     inkscape:label="Ebene 1"
     inkscape:groupmode="layer"
     id="layer1"
     transform="translate(-64.701661,-31.432349)"><g
       id="g5339"><path
         style="fill:#000000;stroke-width:0.143435"
         d="M 88.09474,115.11565 V 68.776073 l -0.338877,0.266561 c -0.186384,0.146609 -3.547703,3.324763 -7.469599,7.062568 -3.921897,3.737802 -7.276387,6.910586 -7.454421,7.050627 -0.323072,0.25413 -0.331272,0.247614 -4.22694,-3.358732 l -3.903242,-3.613356 1.000181,-0.932319 c 2.619191,-2.441483 18.089879,-17.412501 18.089879,-17.505614 0,-0.106361 -5.715766,-5.70699 -14.271679,-13.984212 -2.524438,-2.442209 -4.589888,-4.489002 -4.589888,-4.548428 0,-0.160295 7.985907,-7.72571 8.104872,-7.678118 0.056,0.02241 4.284411,4.107086 9.396469,9.077072 5.112059,4.969987 9.413863,9.120939 9.559564,9.224341 0.290166,0.205923 -0.927088,1.341643 13.730211,-12.810531 3.18628,-3.076471 5.84176,-5.593583 5.90108,-5.593583 0.0594,0 1.91975,1.71045 4.13432,3.801 l 4.0265,3.801 -0.60436,0.587412 c -0.33239,0.323076 -3.37784,3.259886 -6.76766,6.526245 -8.9493,8.623334 -11.76108,11.351977 -11.80406,11.454969 -0.0463,0.111065 0.51681,0.659268 11.39381,11.091358 l 8.63047,8.277434 -4.02472,3.953337 -4.02471,3.953334 -1.66534,-1.628068 C 106.82758,79.252892 97.514011,70.298418 97.40022,70.255138 c -0.07183,-0.02731 -0.125707,19.508468 -0.125707,45.576152 0.219039,8.07671 0.340312,29.46932 0.340312,29.46932 l -4.691946,0.053 -4.826378,-0.11774 c 0,0 -0.05209,-20.8951 -0.0018,-30.12024 z m 8.462604,13.56492 v -7.81714 H 92.684627 88.81191 v 7.81714 7.81715 h 3.872717 3.872717 z m 0,-34.13728 V 86.726137 H 92.684627 88.81191 v 7.817153 7.81715 h 3.872717 3.872717 z M 108.51467,73.207488 c 1.98289,-1.913051 3.62378,-3.517694 3.64641,-3.565873 0.0226,-0.04818 -2.73755,-2.756472 -6.13374,-6.018427 -3.39618,-3.261954 -6.157875,-5.969038 -6.13709,-6.015742 0.02078,-0.0467 2.57152,-2.528889 5.66827,-5.515964 l 5.6305,-5.431048 -2.69009,-2.5946 c -1.47955,-1.42703 -3.14275,-3.025762 -3.696,-3.55274 l -1.00588,-0.958142 -5.800398,5.588265 -5.800391,5.588264 -1.08258,-1.051153 c -0.59542,-0.578133 -3.198759,-3.10684 -5.785195,-5.619345 l -4.702612,-4.568193 -1.39333,1.350453 c -0.766334,0.742749 -2.421184,2.342415 -3.677449,3.554814 l -2.284115,2.20436 2.85815,2.813928 c 1.571982,1.547659 4.100512,4.017326 5.618955,5.48815 1.518442,1.470822 2.760805,2.729613 2.760805,2.797314 0,0.106872 -6.698771,6.639322 -10.086128,9.835705 l -1.173438,1.107279 3.155547,3.088354 c 1.735553,1.698596 3.331157,3.220408 3.545792,3.381806 l 0.390242,0.293453 5.756312,-5.493123 c 3.16597,-3.021219 5.798081,-5.507944 5.849134,-5.526057 0.05105,-0.01812 2.965089,2.739226 6.475633,6.127418 3.510546,3.388195 6.406346,6.162326 6.435116,6.164734 0.0287,0.0024 1.67468,-1.560841 3.65757,-3.47389 z"
         id="path29997"
         sodipodi:nodetypes="ccsssscsssssssssscsscscccsscccccccccccccccccccccccscssccsccccsscsscsssscsscsssss" /><path
         style="fill:#ff6600;stroke:#000000;stroke-width:2.04436;stroke-dasharray:none;stroke-opacity:1"
         d="m 287.7602,164.56298 c -8.0324,-7.74631 -18.94399,-18.19215 -24.24796,-23.21297 l -9.6436,-9.12876 -2.52671,2.15719 c -1.38969,1.18646 -11.28934,10.53155 -21.99921,20.76685 l -19.4725,18.60965 -1.35225,-0.97767 c -0.74374,-0.53772 -6.67593,-6.16424 -13.18264,-12.50336 l -11.83038,-11.52568 16.6985,-16.05141 c 9.18418,-8.82828 18.76746,-18.16086 21.29618,-20.73909 l 4.59767,-4.68768 -21.25748,-20.928183 -21.25748,-20.928179 13.5795,-13.176269 13.5795,-13.176269 1.96473,1.835079 c 1.08061,1.009294 10.95392,10.563354 21.9407,21.231245 l 19.97595,19.396166 4.12798,-4.044888 c 2.27039,-2.224688 12.1409,-11.7476 21.93447,-21.162027 l 17.80649,-17.11714 4.64097,4.480421 c 2.55254,2.464232 8.71643,8.403415 13.69754,13.198185 l 9.05657,8.717765 -21.09165,20.39718 c -11.60041,11.218449 -21.09166,20.695244 -21.09166,21.059554 0,0.36431 10.3681,10.72103 23.04022,23.01493 l 23.04022,22.35255 -10.73468,10.34687 c -5.90408,5.69079 -12.07342,11.59187 -13.70965,13.11351 l -2.97496,2.76663 z"
         id="path29999"
         transform="matrix(0.26458333,0,0,0.26458333,24.830376,29.300478)" /><path
         style="fill:#ff6600;stroke:#000000;stroke-width:2.04436;stroke-dasharray:none;stroke-opacity:1"
         d="m 242.05393,246.6516 v -29.47919 h 14.33392 14.33392 v 29.47919 29.4792 h -14.33392 -14.33392 z"
         id="path30001"
         transform="matrix(0.26458333,0,0,0.26458333,24.830376,29.300478)" /><path
         style="fill:#ff6600;stroke:#000000;stroke-width:2.04436;stroke-dasharray:none;stroke-opacity:1"
         d="m 242.05393,375.65688 v -29.20874 h 14.33392 14.33392 v 29.20874 29.20875 h -14.33392 -14.33392 z"
         id="path30003"
         transform="matrix(0.26458333,0,0,0.26458333,24.830376,29.300478)" /><path
         sodipodi:type="star"
         style="fill:#ff6600;stroke:#000000;stroke-width:4.70929;stroke-linecap:round;stroke-miterlimit:3.7;stroke-dasharray:none;stroke-opacity:1"
         id="path3828"
         inkscape:flatsided="true"
         sodipodi:sides="3"
         sodipodi:cx="151.99365"
         sodipodi:cy="276.94217"
         sodipodi:r1="40.167259"
         sodipodi:r2="20.08363"
         sodipodi:arg1="0.52359878"
         sodipodi:arg2="1.5707963"
         inkscape:rounded="0"
         inkscape:randomized="0"
         d="m 186.77952,297.0258 -69.57173,0 34.78586,-60.25089 z"
         transform="matrix(0.3851923,0,0,0.3851923,34.169805,-11.690951)"
         inkscape:transform-center-y="-3.8680331" /></g></g></svg>
