<?xml version="1.0" encoding="UTF-8" standalone="no"?>
<!-- Created with Inkscape (http://www.inkscape.org/) -->

<svg
   width="262.66199"
   height="457.4393"
   viewBox="0 0 69.495981 121.03082"
   version="1.1"
   id="svg30090"
   inkscape:version="1.2.2 (732a01da63, 2022-12-09)"
   sodipodi:docname="raeumarbeit_aufnehmen.svg"
   xmlns:inkscape="http://www.inkscape.org/namespaces/inkscape"
   xmlns:sodipodi="http://sodipodi.sourceforge.net/DTD/sodipodi-0.dtd"
   xmlns="http://www.w3.org/2000/svg"
   xmlns:svg="http://www.w3.org/2000/svg">
  <sodipodi:namedview
     id="namedview30092"
     pagecolor="#ffffff"
     bordercolor="#000000"
     borderopacity="0.25"
     inkscape:showpageshadow="2"
     inkscape:pageopacity="0.0"
     inkscape:pagecheckerboard="0"
     inkscape:deskcolor="#d1d1d1"
     inkscape:document-units="mm"
     showgrid="false"
     inkscape:zoom="1.1100025"
     inkscape:cx="74.324159"
     inkscape:cy="343.24248"
     inkscape:window-width="2560"
     inkscape:window-height="1494"
     inkscape:window-x="-11"
     inkscape:window-y="-11"
     inkscape:window-maximized="1"
     inkscape:current-layer="layer1" />
  <defs
     id="defs30087">
    <pattern
       id="EMFhbasepattern"
       patternUnits="userSpaceOnUse"
       width="6"
       height="6"
       x="0"
       y="0" />
  </defs>
  <g
     inkscape:label="Ebene 1"
     inkscape:groupmode="layer"
     id="layer1"
     transform="translate(-33.373298,-8.5835372)">
    <g
       id="g32049">
      <path
         style="fill:#000000;stroke-width:0.138163"
         d="M 63.630988,75.385363 V 21.156373 H 48.502145 33.373298 V 14.869955 8.5835372 h 34.74799 34.747992 v 6.2864178 6.286418 h -14.161712 -14.1617 v 54.22899 54.228987 h -5.45744 -5.45744 z M 73.855048,98.87308 V 88.856258 h -4.76662 -4.76662 V 98.87308 108.8899 h 4.76662 4.76662 z m 0,-44.902987 v -10.01682 h -4.76662 -4.76662 v 10.01682 10.01682 h 4.76662 4.76662 z M 89.605628,14.869955 V 9.2743522 H 68.121288 46.636944 v 5.5956028 5.595603 h 21.484344 21.48434 z"
         id="path32037" />
      <path
         style="fill:#ff6600;stroke:#000000;stroke-width:3.40497"
         d="M 177.02663,56.306181 V 35.585506 h 80.63045 80.63045 v 20.720675 20.720674 h -80.63045 -80.63045 z"
         id="path32039"
         transform="scale(0.26458333)" />
      <path
         style="fill:#ff6600;stroke:#000000;stroke-width:3.40497"
         d="m 243.69315,203.60315 v -37.3873 h 17.56753 17.56753 v 37.3873 37.3873 h -17.56753 -17.56753 z"
         id="path32041"
         transform="scale(0.26458333)" />
      <path
         style="fill:#ff6600;stroke:#000000;stroke-width:3.40497"
         d="m 243.69315,373.87304 v -37.3873 h 17.56753 17.56753 v 37.3873 37.3873 h -17.56753 -17.56753 z"
         id="path32043"
         transform="scale(0.26458333)" />
    </g>
  </g>
</svg>
