<?xml version="1.0" encoding="UTF-8" standalone="no"?>
<!-- Created with Inkscape (http://www.inkscape.org/) -->

<svg
   width="195.43863mm"
   height="194.68837mm"
   viewBox="0 0 195.43863 194.68837"
   version="1.1"
   id="svg145802"
   inkscape:version="1.2.2 (732a01da63, 2022-12-09)"
   sodipodi:docname="schaltzeiger.svg"
   xmlns:inkscape="http://www.inkscape.org/namespaces/inkscape"
   xmlns:sodipodi="http://sodipodi.sourceforge.net/DTD/sodipodi-0.dtd"
   xmlns="http://www.w3.org/2000/svg"
   xmlns:svg="http://www.w3.org/2000/svg">
  <sodipodi:namedview
     id="namedview145804"
     pagecolor="#ffffff"
     bordercolor="#000000"
     borderopacity="0.25"
     inkscape:showpageshadow="2"
     inkscape:pageopacity="0.0"
     inkscape:pagecheckerboard="0"
     inkscape:deskcolor="#d1d1d1"
     inkscape:document-units="mm"
     showgrid="false"
     inkscape:zoom="3.3638608"
     inkscape:cx="300.69615"
     inkscape:cy="250.45626"
     inkscape:window-width="2560"
     inkscape:window-height="1494"
     inkscape:window-x="-11"
     inkscape:window-y="-11"
     inkscape:window-maximized="1"
     inkscape:current-layer="layer1" />
  <defs
     id="defs145799">
    <pattern
       id="EMFhbasepattern"
       patternUnits="userSpaceOnUse"
       width="6"
       height="6"
       x="0"
       y="0" />
  </defs>
  <g
     inkscape:label="Ebene 1"
     inkscape:groupmode="layer"
     id="layer1"
     transform="translate(-8.9659592,-65.260777)">
    <g
       id="g147104">
      <path
         style="fill:#000000;stroke-width:0.251649"
         d="m 96.237028,259.598 c -11.17775,-1.13772 -22.12351,-4.2647 -32.08521,-9.16611 -13.962,-6.86967 -24.49687,-15.31199 -34.24318,-27.44144 -2.57602,-3.2059 -7.71548,-11.01745 -9.61282,-14.61067 -6.38551,-12.09304 -10.20054,-25.25736 -11.1536397,-38.48721 -0.32497,-4.51094 -0.1822,-13.74411 0.27822,-17.99288 1.5774397,-14.55665 7.1143097,-29.90128 15.2070297,-42.14408 6.10412,-9.23442 11.05009,-14.756399 20.65074,-23.055729 4.90485,-4.24003 15.41322,-10.544263 23.15168,-13.889271 9.37599,-4.052846 20.19553,-6.610406 31.20444,-7.376217 4.635912,-0.322487 13.860592,-0.177571 18.118702,0.284637 15.3439,1.665546 29.8654,7.027298 43.40077,16.024811 2.84209,1.88925 5.22406,3.50341 5.29326,3.58702 0.0692,0.0836 1.2861,1.14455 2.70422,2.35764 11.03375,9.43856 18.57856,18.941579 25.00658,31.496849 6.41531,12.53045 9.65503,25.37847 10.18452,40.38962 0.78855,22.35555 -5.92603,43.54608 -19.49315,61.51842 -9.09377,12.0465 -20.80461,21.83643 -34.26879,28.64771 -2.83033,1.43181 -6.1086,2.97174 -7.28506,3.42207 -9.19293,3.51886 -17.52842,5.56727 -26.18879,6.43577 -4.66028,0.46735 -16.27378,0.46683 -20.869522,-9.4e-4 z m 16.148412,-6.6613 c 5.12845,-0.33448 7.0191,-0.60701 12.53954,-1.8075 4.21503,-0.91662 13.45182,-3.58351 15.9797,-4.61374 4.97646,-2.02815 15.48362,-8.05342 20.63519,-11.83315 2.11828,-1.55419 8.30776,-7.05043 10.07581,-8.94729 2.83722,-3.04392 7.50773,-8.90656 10.30584,-12.93634 2.35633,-3.39353 3.51366,-5.39011 5.59766,-9.65681 2.62332,-5.37091 3.28888,-7.00947 5.63024,-13.86141 1.70049,-4.97643 3.09984,-12.3668 3.86009,-20.38625 l 0.5837,-6.15716 -0.59192,-6.29945 c -0.55249,-5.87988 -1.6918,-12.93879 -2.73806,-16.96446 -1.46146,-5.62323 -6.6415,-18.03973 -9.45918,-22.67355 -2.08592,-3.43041 -6.28315,-9.12129 -10.01273,-13.57592 -2.76347,-3.300699 -4.65444,-5.256639 -7.64281,-7.905409 -2.18394,-1.93577 -4.52612,-3.93683 -5.20483,-4.4468 -3.36149,-2.52577 -10.74748,-7.006 -15.62856,-9.48004 -4.96938,-2.518804 -5.89254,-2.889979 -11.32419,-4.5531 -5.2386,-1.604013 -10.75839,-2.961887 -15.52099,-3.818177 -0.85496,-0.153718 -4.02574,-0.444737 -7.04616,-0.646707 -5.60435,-0.374752 -11.14948,-0.242237 -16.815872,0.401859 -3.83054,0.435415 -12.05375,2.407723 -17.85215,4.281773 -4.68356,1.513735 -6.35591,2.202112 -11.02119,4.536602 -5.45947,2.73189 -11.58255,6.45012 -15.26132,9.26738 -7.61692,5.83319 -17.89322,17.456559 -23.26182,26.311109 -3.45249,5.69426 -8.68092,19.20812 -9.96107,25.74623 -1.30665,6.67351 -1.53951,8.41337 -1.88071,14.05227 -0.46191,7.63363 -0.0353,15.17021 1.25122,22.10709 1.16491,6.28093 1.33594,6.92564 3.40459,12.83408 1.62931,4.65361 4.89909,12.09341 6.83125,15.54332 1.87796,3.35313 6.79616,10.0402 10.55896,14.35656 4.02098,4.61254 9.95065,10.30394 13.45844,12.91764 3.82303,2.8486 9.46625,6.26122 14.70419,8.89208 4.57826,2.29951 6.3229,3.02158 10.94672,4.53056 5.25288,1.71428 13.33559,3.69714 17.45904,4.28307 4.68546,0.66578 11.758402,0.86968 17.401382,0.50164 z M 97.621098,222.98812 c -30.02916,-0.0759 -52.35773,-0.22805 -52.7204,-0.35917 -1.10199,-0.39842 -2.98775,-2.18335 -3.76879,-3.56727 -0.96736,-1.71406 -1.23876,-4.12026 -0.69223,-6.13718 0.43521,-1.60614 58.48367,-102.04642 60.432832,-104.56592 1.01047,-1.30615 1.38873,-1.59325 2.73534,-2.07615 2.00807,-0.7201 3.88789,-0.72097 5.93272,-0.003 1.29157,0.45365 1.80721,0.80756 2.66192,1.827 1.52452,1.81832 60.13973,103.13909 60.63822,104.81766 0.50482,1.69992 0.51647,4.44322 0.0239,5.62214 -0.86154,2.06194 -2.86135,3.60472 -5.57313,4.29947 -1.2765,0.32703 -2.94463,0.38547 -9.56265,0.33499 -4.40904,-0.0336 -31.45751,-0.1204 -60.107712,-0.19283 z m 69.848032,-0.70417 c 2.21267,-0.61355 3.86548,-1.78715 4.60671,-3.27105 0.83571,-1.67303 0.95695,-2.87927 0.50937,-5.06773 -0.36035,-1.76188 -1.04181,-3.02807 -9.28509,-17.25201 -4.8929,-8.44281 -18.2357,-31.48755 -29.65066,-51.21052 -11.41495,-19.72297 -21.18372,-36.38461 -21.70838,-37.02588 -2.4063,-2.94115 -8.16561,-2.97991 -10.54924,-0.071 -1.08037,1.31845 2.30249,-4.46983 -31.755062,54.33482 -22.41571,38.70356 -28.49994,49.39052 -28.79664,50.5814 -0.72031,2.89113 0.31688,6.0317 2.56963,7.78066 2.2227,1.72565 -2.32461,1.60804 63.150302,1.6333 56.43168,0.0218 59.34724,0.001 60.90906,-0.43199 z m -121.482102,-3.1255 c -0.44057,-0.14164 -1.12002,-0.59048 -1.50989,-0.99742 -0.65378,-0.6824 -0.7082,-0.89017 -0.70034,-2.67365 l 0.008,-1.93375 19.70633,-33.97258 c 10.83848,-18.68492 24.25381,-41.82426 29.81184,-51.42075 5.55804,-9.5965 10.404612,-17.80654 10.770172,-18.24454 0.64157,-0.76872 0.73133,-0.796 2.5861,-0.78595 1.90346,0.0103 1.93047,0.0197 2.88304,1.00659 0.99916,1.03513 59.55367,102.55351 60.19405,104.36091 0.40568,1.14499 0.0509,2.41649 -0.99154,3.55407 -1.39072,1.5176 3.04708,1.41828 -62.11969,1.3903 -40.044222,-0.0172 -60.102532,-0.11088 -60.638602,-0.28323 z m 110.071682,-9.57833 c -0.0685,-0.17852 -5.62331,-9.79252 -12.34401,-21.36442 -6.72069,-11.57191 -12.20795,-21.24958 -12.1939,-21.50593 0.014,-0.25636 -5.46306,-9.86519 -12.17136,-21.35295 -6.70829,-11.48777 -12.31256,-21.09384 -12.45391,-21.34683 -0.21351,-0.38211 -2.37279,3.16743 -12.755572,20.96829 -6.87421,11.78555 -12.49855,21.65091 -12.49855,21.92303 0,0.36199 -19.92607,35.08378 -24.20935,42.18555 l -0.49328,0.81786 h 49.622252 c 40.41263,0 49.59912,-0.0602 49.49768,-0.3246 z M 104.58027,196.8819 c -0.87492,-4.11761 -1.6502,-7.74135 -1.72285,-8.05276 -0.10456,-0.4482 -0.0229,-0.56621 0.39194,-0.56621 0.3643,0 0.90953,0.54894 1.78882,1.80101 0.69564,0.99055 1.26929,1.69831 1.27478,1.5728 0.005,-0.12551 0.65946,-5.16355 1.45326,-11.19564 l 1.44327,-10.96744 -2.90024,1.69142 c -12.340222,7.19684 -12.121402,7.08113 -12.434212,6.575 -0.18895,-0.30574 2.66597,-10.95215 3.01537,-11.24477 0.16527,-0.1384 1.67526,-5.57402 3.355532,-12.07914 1.68027,-6.50512 3.16186,-12.08228 3.2924,-12.3937 0.23435,-0.55901 0.29817,-0.56621 5.02408,-0.56621 4.56525,0 4.78672,0.0225 4.78672,0.48691 0,0.2678 -2.21715,5.76997 -4.927,12.22705 -2.70985,6.45708 -4.88976,11.77383 -4.84424,11.815 0.0455,0.0412 3.40083,-1.89388 7.45624,-4.30011 4.05541,-2.40624 7.48098,-4.37498 7.61237,-4.37498 0.36991,0 0.30428,0.44709 -0.67186,4.57696 -0.50092,2.1193 -0.90786,4.24302 -0.90431,4.71938 0.005,0.68165 -5.2858,23.82303 -5.89417,25.78006 -0.10651,0.34264 0.3726,0.11511 1.72219,-0.81786 3.58076,-2.47538 3.37928,-1.74344 -1.71915,6.24526 -2.68356,4.20486 -4.331,6.55452 -4.59565,6.55452 -0.33738,0 -0.7023,-1.36377 -2.00329,-7.48655 z M 36.910848,140.65431 c -8.31798,-3.59327 -12.897,-5.69764 -12.897,-5.92706 0,-0.34244 4.43635,-11.1286 4.6756,-11.36784 0.0645,-0.0645 0.90732,0.13725 1.87301,0.44827 1.18991,0.38324 1.7558,0.69313 1.7558,0.96151 0,0.2178 -0.81079,2.3108 -1.80175,4.65111 -1.08205,2.55541 -1.7103,4.34654 -1.57281,4.48403 0.18977,0.18976 6.77942,3.27391 6.99509,3.27391 0.0376,0 0.85203,-1.98104 1.80989,-4.40231 0.95786,-2.42127 1.85481,-4.40302 1.99322,-4.40388 0.1384,-7.6e-4 0.95941,0.30673 1.82445,0.68357 1.08154,0.47114 1.5728,0.82472 1.5728,1.13198 0,0.24576 -0.79349,2.17158 -1.76332,4.27961 -0.96982,2.10802 -1.73251,3.92519 -1.69486,4.03814 0.11545,0.34635 8.05358,3.74195 8.24877,3.52847 0.10062,-0.11005 1.05492,-2.18182 2.12066,-4.60394 1.06575,-2.42211 2.02771,-4.49746 2.1377,-4.61188 0.32447,-0.33752 3.28424,1.27939 3.26648,1.78446 -0.0293,0.83448 -4.89598,11.50345 -5.27483,11.56388 -0.20455,0.0326 -6.17555,-2.44779 -13.2689,-5.51203 z m 125.893722,4.84083 c -0.21116,-0.40835 -0.38393,-1.23408 -0.38393,-1.83497 0,-0.95714 0.13253,-1.21923 1.06951,-2.11513 1.12104,-1.07189 1.85388,-1.3441 12.21009,-4.53543 2.46337,-0.7591 3.0557,-1.02911 2.92892,-1.33514 -0.35266,-0.85129 -0.20739,-1.1164 0.77777,-1.4194 1.55089,-0.47699 2.33114,-0.42893 2.51648,0.15503 0.20523,0.64661 0.20738,0.64638 2.78853,-0.28759 l 2.18572,-0.79088 1.35474,0.72797 c 0.80061,0.4302 1.32724,0.87529 1.2875,1.08811 -0.0416,0.22274 -1.29734,0.74457 -3.29126,1.36769 -3.17351,0.99175 -3.22124,1.01765 -3.04709,1.65305 0.39051,1.42476 0.30207,1.592 -1.02649,1.94099 -1.69728,0.44585 -2.13827,0.42524 -2.14286,-0.10016 -0.0106,-1.21009 -0.19128,-1.18742 -6.73179,0.84455 -3.46581,1.07674 -6.50132,2.10384 -6.74558,2.28244 -0.37957,0.27755 -0.39964,0.42231 -0.13808,0.99636 0.37639,0.8261 0.19394,1.03887 -1.41476,1.64984 -1.58773,0.603 -1.74783,0.58206 -2.19742,-0.28733 z m -2.01965,-9.29506 c -2.25988,-0.57681 -3.70052,-2.39995 -3.70122,-4.68394 -0.001,-2.89513 3.36607,-6.55943 8.2309,-8.95779 2.50263,-1.23379 5.79029,-2.24441 7.27515,-2.23636 1.12907,0.006 3.37551,1.23167 4.25438,2.32098 0.64912,0.80455 0.75931,1.15286 0.75931,2.40011 0,1.78158 -0.69679,3.09683 -2.65202,5.00586 -1.67535,1.63578 -4.90369,3.85964 -5.59234,3.85232 -0.41269,-0.004 -0.94114,-0.79085 -2.53459,-3.77206 -1.10725,-2.07159 -2.07292,-3.76773 -2.14593,-3.76919 -0.23505,-0.005 -1.35354,0.80643 -2.21748,1.60816 -0.46218,0.42891 -1.12174,1.33058 -1.46568,2.00371 -0.54745,1.07141 -0.58726,1.31586 -0.31956,1.96215 0.4909,1.18514 1.41599,1.5149 3.43206,1.2234 0.9405,-0.13599 1.79773,-0.2495 1.90496,-0.25224 0.2005,-0.005 0.56781,0.82133 0.83087,1.86945 0.13526,0.5389 0.0246,0.62947 -1.19332,0.97664 -1.72942,0.49297 -3.90587,0.69373 -4.86549,0.4488 z m 11.59775,-7.37332 c 2.04465,-1.88469 2.4056,-4.06023 0.81051,-4.88509 -1.04159,-0.53863 -4.28133,-0.40866 -4.88599,0.196 -0.3833,0.3833 -0.30615,0.60672 1.06285,3.07802 0.81188,1.46561 1.56466,2.66473 1.67284,2.66473 0.10819,0 0.7111,-0.47414 1.33979,-1.05366 z M 48.549598,126.22619 c -4.56742,-2.96025 -8.40773,-5.54247 -8.53401,-5.73826 -0.33632,-0.52145 0.78595,-2.26108 1.36156,-2.11055 0.82577,0.21594 17.36422,11.0623 17.36422,11.38792 0,0.68265 -0.88679,1.8733 -1.38406,1.85832 -0.27682,-0.008 -4.24028,-2.43718 -8.80771,-5.39743 z m 3.90056,-5.90203 c -4.22141,-3.73095 -7.71061,-6.9506 -7.75378,-7.15478 -0.10591,-0.50094 0.67797,-1.65931 1.12288,-1.65931 0.19656,0 0.65136,0.19261 1.01066,0.42804 0.62906,0.41217 0.64783,0.40984 0.5064,-0.0629 -0.463,-1.54757 -0.43287,-1.76011 0.4484,-3.16311 0.76707,-1.22117 1.04646,-1.45824 2.04957,-1.7391 0.95034,-0.26607 1.39312,-0.2658 2.4362,0.002 1.8328,0.46974 2.80106,1.09886 5.21264,3.38689 1.17646,1.11619 3.80933,3.49472 5.85083,5.28562 2.0415,1.7909 3.71182,3.44148 3.71182,3.66795 0,0.53239 -1.03695,1.5061 -1.60392,1.5061 -0.24149,0 -2.3891,-1.72694 -4.77247,-3.83765 -5.72562,-5.07059 -6.78075,-5.92703 -7.8552,-6.37596 -1.56387,-0.65343 -2.63421,0.0568 -2.61995,1.73844 0.005,0.57834 0.14645,1.2794 0.31456,1.5579 1.11593,1.84882 2.69084,3.50043 6.41915,6.73179 2.33261,2.0217 4.38201,3.84559 4.55422,4.05308 0.25509,0.30737 0.20503,0.56648 -0.27017,1.3985 -0.32079,0.56168 -0.6965,1.02108 -0.83491,1.02089 -0.13841,-2e-4 -3.70553,-3.05295 -7.92693,-6.7839 z m 100.067102,5.66772 c -0.55226,-0.51182 -0.66587,-0.83595 -0.66587,-1.89986 0,-1.55057 0.4144,-2.39747 1.66206,-3.39678 0.51841,-0.41522 1.74374,-1.43932 2.72296,-2.27578 0.97921,-0.83646 3.1741,-2.68798 4.87753,-4.11449 2.86504,-2.39927 3.08566,-2.64603 2.94367,-3.29249 -0.13121,-0.59738 10e-4,-0.83119 0.91161,-1.61052 0.99713,-0.85351 1.72444,-1.15686 1.7333,-0.72294 0.002,0.1038 0.1062,0.35045 0.23128,0.5481 0.18146,0.28674 0.58482,0.0706 1.99591,-1.06951 l 1.76849,-1.42887 h 1.77496 c 1.31251,0 1.77497,0.0875 1.77497,0.33596 0,0.26582 -2.98716,2.87013 -4.96422,4.32798 -0.29548,0.21788 -0.26842,0.36724 0.16674,0.92046 0.7373,0.93733 0.64235,1.50395 -0.3609,2.1538 -1.0909,0.70661 -1.57447,0.71187 -2.30558,0.025 l -0.57605,-0.54118 -3.2149,2.60194 c -8.07987,6.53937 -7.97599,6.43239 -7.06782,7.27848 l 0.55574,0.51775 -1.10902,1.13001 c -1.26435,1.28828 -1.89581,1.40173 -2.85486,0.51291 z m -78.453092,-3.52749 c -1.93319,-0.71154 -4.25025,-2.67255 -4.25025,-3.59713 0,-0.14882 0.57628,-0.46199 1.28063,-0.69594 l 1.28064,-0.42536 0.80745,0.78261 c 1.12365,1.08909 2.18637,1.06576 3.32513,-0.073 1.07353,-1.07352 1.10255,-1.88367 0.14311,-3.99416 -1.05073,-2.3113 -1.34496,-2.45548 -2.0293,-0.99439 -0.44672,0.95378 -0.77305,1.28321 -1.61681,1.63219 -1.33896,0.5538 -2.21174,0.5414 -3.9458,-0.0561 -2.09809,-0.72291 -5.53777,-4.04029 -7.08325,-6.8314 -1.52032,-2.74569 -2.47212,-5.09645 -2.6504,-6.54596 -0.16872,-1.3719 0.38102,-3.250059 1.28025,-4.373849 0.55871,-0.69824 0.7259,-0.75495 2.22584,-0.75495 1.49736,0 1.60055,-0.0348 1.34526,-0.4539 -0.23073,-0.37875 -0.1307,-0.57551 0.60427,-1.18856 0.48443,-0.40406 1.06307,-0.73771 1.28588,-0.74143 0.23991,-0.004 1.26096,1.25037 2.50378,3.07593 1.15427,1.69548 3.71302,5.428569 5.68612,8.295759 5.55552,8.07294 6.73679,10.59375 6.15183,13.12792 -0.39908,1.72889 -1.3372,2.86343 -2.96179,3.5819 -1.52329,0.67367 -2.07485,0.71114 -3.38259,0.22981 z m -2.23706,-10.95432 c 0.37937,-0.37938 0.50329,-0.83883 0.50329,-1.86598 0,-1.11095 -0.192,-1.72687 -1.03942,-3.33434 -2.02613,-3.84333 -4.53611,-6.313639 -6.66936,-6.563959 -1.53329,-0.17991 -2.10552,0.477599 -2.10552,2.419329 0,1.06604 0.13204,1.64381 0.4754,2.08033 0.26147,0.3324 0.64031,0.99905 0.84186,1.48142 0.57947,1.38686 2.3594,3.60785 4.01016,5.00385 1.25826,1.06408 1.68401,1.28264 2.4985,1.28264 0.64626,0 1.15379,-0.172 1.48509,-0.50329 z m 75.148562,8.33721 c -0.38887,-0.4059 -0.66827,-0.91587 -0.62088,-1.13329 0.13879,-0.63677 19.11058,-20.541309 19.57873,-20.541309 0.53015,0 1.52009,1.02449 1.52009,1.57314 0,0.408129 -18.99268,20.634719 -19.50163,20.768609 -0.1481,0.039 -0.58744,-0.26126 -0.97631,-0.66715 z m -112.249142,-2.5142 c -0.82076,-0.51484 -1.54117,-1.08271 -1.60091,-1.26193 -0.16907,-0.50719 0.76711,-2.0446 1.24502,-2.0446 0.56799,0 3.49721,1.75509 3.6668,2.19702 0.22087,0.57559 -0.73609,2.08326 -1.30964,2.06329 -0.27994,-0.01 -1.18051,-0.43895 -2.00127,-0.95378 z m 107.828232,-1.54746 -0.8664,-0.74435 0.40529,-0.84991 0.40529,-0.8499 -1.08956,0.23238 c -1.29023,0.27518 -2.67396,-0.0336 -3.9232,-0.87546 -1.13318,-0.76365 -1.48049,-1.52653 -1.48495,-3.26172 -0.005,-1.87923 0.68547,-3.65415 2.0035,-5.15151 1.09525,-1.24428 3.4292,-2.58939 4.49293,-2.58939 0.90251,0 3.53709,0.73007 4.6102,1.27753 1.50063,0.76556 2.07582,0.64986 2.60517,-0.52403 0.25001,-0.55442 0.60694,-1.1345 0.79317,-1.28906 0.73362,-0.60885 0.0924,-2.423269 -1.03844,-2.938529 -1.21802,-0.55497 -2.79865,-0.20119 -3.64216,0.81519 -0.79888,0.96259 -2.75255,-0.19591 -2.43876,-1.44615 0.43599,-1.73712 4.47921,-3.56811 6.57719,-2.97851 1.40423,0.39463 2.46444,1.09602 3.28713,2.17463 0.59318,0.77769 0.70352,1.16469 0.7057,2.475 0.003,2.098259 -0.58631,3.228749 -4.74896,9.102629 -1.86361,2.62973 -3.76842,5.51739 -4.23291,6.41704 -0.46449,0.89964 -1.00412,1.66109 -1.19918,1.6921 -0.19505,0.031 -0.74453,-0.27858 -1.22105,-0.68798 z m 2.69535,-7.23085 c 1.5067,-1.60795 1.75057,-1.97888 1.38407,-2.10525 -0.24469,-0.0844 -0.84123,-0.29376 -1.32565,-0.46532 -3.25394,-1.15243 -4.69415,-0.81131 -5.68167,1.34571 -0.42262,0.92311 -0.57545,1.58611 -0.46607,2.02188 0.0895,0.35661 0.17876,0.65009 0.19836,0.65217 0.0196,0.002 0.4886,0.1721 1.04223,0.37781 0.58082,0.21582 1.43237,0.32132 2.01319,0.24943 0.86454,-0.107 1.2647,-0.40003 2.83554,-2.07643 z m -15.10342,0.39797 c -0.38062,-0.13901 -0.69203,-0.34663 -0.69203,-0.46137 0,-0.11474 1.13242,-3.51811 2.51649,-7.56305 1.38406,-4.044939 2.51648,-7.686049 2.51648,-8.091359 0,-0.7806 -0.39493,-1.7136 -0.85553,-2.02115 -0.15229,-0.10169 -0.73595,-0.18662 -1.29703,-0.18874 -0.82759,-0.003 -1.16576,0.15052 -1.79165,0.81401 -0.98692,1.0462 -1.9944,2.83602 -2.22988,3.96145 -0.22523,1.07647 -3.83912,10.612509 -4.13571,10.912989 -0.27034,0.27387 -2.01639,-0.28859 -2.17444,-0.70046 -0.065,-0.16944 1.98126,-6.287729 4.5473,-13.596189 2.56603,-7.30845 4.66551,-13.330106 4.66551,-13.381448 0,-0.181715 0.83502,-0.08956 1.79526,0.198138 0.53508,0.16032 0.97288,0.43862 0.97288,0.61845 0,0.17984 -0.72298,2.20141 -1.60662,4.49239 l -1.60661,4.1654 0.81846,-0.50583 c 0.56293,-0.34791 1.25533,-0.50583 2.21781,-0.50583 1.23531,0 1.49977,0.0959 2.25585,0.81785 0.47701,0.45551 1.06507,1.40496 1.32729,2.14297 0.4058,1.14212 0.429,1.48146 0.16803,2.45719 -0.16653,0.62264 -0.30278,1.38614 -0.30278,1.69668 0,0.31053 -0.2676,1.07328 -0.59467,1.69501 -0.32707,0.62173 -1.53172,3.87654 -2.677,7.232899 -2.26448,6.63631 -2.13048,6.43342 -3.83741,5.81 z m -47.946942,-1.28741 c -1.54333,-0.80094 -3.82375,-3.55654 -4.66301,-5.63468 -1.50003,-3.714259 -2.04245,-5.890129 -2.13201,-8.552419 -0.0822,-2.44258 -0.0514,-2.62398 0.69739,-4.10729 0.64198,-1.27174 0.97412,-1.63844 1.84017,-2.03162 1.69013,-0.7673 3.40233,-0.65207 4.85913,0.32703 1.88639,1.26781 3.0205,2.93876 5.18693,7.6422 0.52851,1.14742 0.23221,1.36727 -3.95628,2.93547 -2.21451,0.82913 -4.06509,1.54014 -4.11239,1.58002 -0.30091,0.253639 0.80066,2.200049 1.94888,3.443549 1.3112,1.42001 1.39984,1.46972 2.49117,1.39726 1.67967,-0.11152 2.18371,-0.89956 2.14632,-3.3557 l -0.0286,-1.878229 h 1.33719 c 1.31208,0 1.3428,0.017 1.63608,0.905669 0.43697,1.32403 0.20434,3.78616 -0.49372,5.22536 -1.20327,2.48081 -4.22035,3.41996 -6.75725,2.10338 z m 1.88701,-13.131439 c 0.49592,-0.18429 -0.33006,-1.87249 -1.51321,-3.09281 -0.8651,-0.89228 -1.19695,-1.06951 -2.00257,-1.06951 -1.34799,0 -2.09046,0.79786 -2.32424,2.49762 -0.11345,0.82487 -0.0676,1.7281 0.12225,2.40602 l 0.30389,1.08536 2.55377,-0.85641 c 1.40457,-0.47104 2.69162,-0.90765 2.86011,-0.97027 z m 28.280792,9.495609 c -1.64785,-0.84634 -2.15792,-1.49689 -2.71769,-3.46616 -0.61516,-2.164109 -0.61253,-7.875699 0.005,-10.507229 0.59186,-2.52283 1.93497,-5.18841 3.18192,-6.31496 2.55697,-2.31006 6.31013,-1.45409 7.39362,1.68625 0.50419,1.4613 0.95538,4.05593 0.78328,4.50439 -0.14648,0.38174 -2.23135,0.81284 -2.65744,0.54951 -0.12408,-0.0767 -0.22809,-0.55741 -0.23113,-1.06827 -0.006,-1.03729 -0.70578,-2.76367 -1.32892,-3.27931 -0.59469,-0.49209 -2.04096,0.0503 -2.79904,1.04976 -1.23127,1.62327 -1.74528,3.7538 -1.8543,7.68582 -0.11192,4.03632 0.19633,5.303689 1.44124,5.925649 1.14443,0.57176 2.13458,0.0868 3.03458,-1.486219 0.43261,-0.75613 0.85269,-1.78226 0.93351,-2.28028 0.12904,-0.79516 0.21788,-0.8877 0.72907,-0.7594 1.43817,0.36096 1.86258,0.63954 1.86258,1.22261 0,2.16004 -2.02939,5.563119 -3.84028,6.439759 -1.77548,0.8595 -2.42198,0.87561 -3.93583,0.0981 z m -16.486202,-0.19618 c -1.40351,-0.95245 -2.08882,-1.85801 -2.65447,-3.50758 -0.69043,-2.013469 -0.65953,-2.304369 0.27957,-2.631739 1.53938,-0.53663 1.84444,-0.39853 2.30818,1.04489 0.34446,1.07217 0.59219,1.404149 1.31454,1.761539 1.09445,0.5415 1.44759,0.54788 2.50678,0.0453 1.169502,-0.554959 1.537972,-1.547709 1.123672,-3.027439 -0.35615,-1.27204 -0.60925,-1.43764 -4.197482,-2.74632 -2.90364,-1.05901 -3.32689,-1.45121 -3.93407,-3.64541 -0.67856,-2.45215 -0.66081,-4.27321 0.0596,-6.10856 0.50131,-1.27724 0.71908,-1.52844 1.79984,-2.0761 1.37315,-0.69583 1.90853,-0.74555 3.7577,-0.34897 2.084442,0.44703 2.871702,1.39793 3.892082,4.70107 0.1499,0.48523 0.0422,0.62739 -0.71477,0.94368 -1.30249,0.54421 -1.887902,0.47388 -2.167052,-0.26036 -0.13232,-0.34802 -0.49054,-0.97085 -0.79605,-1.38407 -1.15847,-1.56692 -3.73225,-0.63116 -3.73225,1.35695 0,1.20399 0.96005,2.28658 2.33471,2.63272 1.91968,0.48338 4.870052,1.97097 5.408322,2.7269 1.1778,1.65409 1.50225,5.68763 0.64293,7.992939 -0.37062,0.99426 -0.73947,1.43434 -1.84519,2.20151 -1.23244,0.85509 -1.548362,0.95889 -2.919662,0.95926 -1.2266,2.5e-4 -1.72567,-0.12716 -2.4669,-0.63017 z"
         id="path147023" />
      <path
         style="fill:#ffff00;stroke-width:14.9681;stroke-linecap:round;stroke-miterlimit:3.7"
         d="m 224.86022,777.98263 c 22.71667,-38.52399 79.78573,-138.25768 84.56318,-147.78232 7.88664,-15.72334 88.07414,-153.14995 92.68307,-158.84174 l 1.62174,-2.00277 1.73378,2.8559 c 14.33796,23.61781 85.99058,147.92112 90.90639,157.70482 3.94454,7.85066 32.5485,57.94244 68.10163,119.2609 13.40685,23.12276 24.08744,42.34567 23.73467,42.71757 -0.35276,0.37191 -84.32081,0.90626 -186.59566,1.18745 l -185.95427,0.51126 z m 186.62917,-16.12982 c 7.64888,-11.26353 19.7799,-30.67172 22.38684,-35.81625 4.05498,-8.00213 2.69287,-8.76808 -5.92035,-3.32919 -3.62379,2.28828 -6.6703,4.07212 -6.77002,3.9641 -0.0997,-0.10802 2.04817,-9.65571 4.7731,-21.21709 6.88626,-29.21725 16.43918,-72.31046 17.14833,-77.35614 0.32498,-2.31228 1.87882,-9.95787 3.45298,-16.99021 2.7304,-12.19772 3.41473,-17.06331 2.39993,-17.06331 -0.95973,0 -6.55485,3.15244 -30.92094,17.42167 -13.79229,8.07703 -25.18379,14.55587 -25.31444,14.39743 -0.13064,-0.15843 7.6999,-19.39587 17.40121,-42.74986 10.32088,-24.84547 17.68365,-43.68273 17.74699,-45.40469 l 0.10824,-2.9429 -17.04937,-0.22769 c -9.74419,-0.13013 -17.69436,0.1175 -18.5547,0.57794 -0.82793,0.4431 -1.90433,2.43742 -2.39201,4.43183 -1.09387,4.47348 -13.41446,51.19845 -18.02802,68.36993 -1.86375,6.93682 -4.88152,17.0643 -6.70616,22.5055 -3.70592,11.0513 -10.82781,37.84374 -10.83652,40.76678 -0.003,1.07446 0.50912,1.89186 1.18578,1.89186 1.69933,0 9.65213,-4.32256 34.38251,-18.68783 11.93515,-6.93284 21.80101,-12.46953 21.92414,-12.30377 0.34053,0.45846 -10.1849,79.81307 -10.64763,80.27579 -0.22202,0.22202 -1.73886,-1.41138 -3.37077,-3.62977 -4.19539,-5.7032 -6.97914,-8.12946 -8.6095,-7.50384 -0.98918,0.37959 -1.23848,1.17023 -0.8952,2.83907 4.24396,20.63133 11.84326,54.22679 12.76526,56.43345 1.17852,2.82057 1.23912,2.84881 2.89566,1.34965 0.93059,-0.84216 4.28068,-5.34327 7.44466,-10.00246 z"
         id="path147025"
         transform="scale(0.26458333)" />
      <path
         style="fill:#ffff00;stroke-width:7.48403;stroke-linecap:round;stroke-miterlimit:3.7"
         d="m 202.00884,841.02476 c -26.50513,-0.48818 -32.4014,-1.1479 -35.8786,-4.01432 -2.87714,-2.37176 -6.34433,-5.95457 -7.69764,-7.9544 -3.48888,-5.15557 -5.29739,-12.97781 -4.45541,-19.2707 0.38693,-2.89192 0.88534,-4.37727 2.65432,-7.9104 7.2806,-14.54135 32.71191,-58.86098 147.11954,-256.38802 74.09817,-127.93197 76.77098,-132.48351 79.73866,-135.78745 2.65829,-2.95948 6.20851,-5.2146 10.40507,-6.60935 3.02364,-1.00493 4.01899,-1.12751 9.07186,-1.11723 4.99251,0.0102 6.08434,0.14601 9.07186,1.12877 3.90096,1.28324 7.70711,3.60327 9.88155,6.02328 3.44859,3.83802 25.25143,41.1253 145.00145,247.98185 72.86412,125.8657 76.59613,132.36683 80.849,140.83863 3.29041,6.55462 4.39038,9.96776 5.01301,15.55531 0.40376,3.62367 0.36778,4.65421 -0.26074,7.46385 -1.84864,8.26413 -6.86973,13.96641 -15.29428,17.36924 -5.15053,2.08042 -6.82949,2.30223 -20.48142,2.7062 -14.94849,0.44232 -390.64443,0.42849 -414.73823,-0.0151 z m 418.01392,-12.12553 c 9.18764,-0.51152 13.27638,-1.04343 15.2057,-1.97817 1.30542,-0.63243 4.57847,-4.67782 5.92598,-7.32433 0.44072,-0.86557 0.8267,-2.77728 0.93744,-4.64286 0.17792,-2.99803 0.10334,-3.33992 -1.36386,-6.25345 C 633.52393,794.39501 503.10215,567.57 438.37759,456.77961 413.63463,414.42656 413.1637,413.70946 409.40771,412.66648 c -2.02451,-0.56217 -10.78217,-0.58318 -12.77118,-0.0306 -3.42765,0.95221 3.62712,-10.91862 -110.43383,185.82323 -34.92107,60.23479 -76.38019,131.73112 -92.13136,158.88075 l -28.6385,49.36294 v 7.09436 c 0,8.15691 0.32588,9.26946 3.45842,11.80691 2.32778,1.88559 3.88024,2.64684 6.21109,3.04568 5.607,0.95935 427.91694,1.19616 444.92041,0.24952 z"
         id="path147027"
         transform="scale(0.26458333)" />
      <path
         style="fill:#ffffff;stroke-width:14.9681;stroke-linecap:round;stroke-miterlimit:3.7"
         d="m 378.37243,955.57115 c -14.64024,-1.0086 -26.04682,-2.74642 -41.20055,-6.27701 -27.4253,-6.38968 -53.38653,-14.32631 -68.52745,-20.94956 -24.49736,-10.71615 -59.58093,-31.41668 -77.355,-45.64215 -9.75376,-7.80643 -37.57169,-35.23632 -46.94165,-46.28688 -20.0336,-23.6268 -35.7866,-46.27831 -44.18389,-63.53273 C 71.504955,713.9955 60.695122,666.95064 62.065636,607.07755 c 0.574161,-25.08313 1.306773,-33.10233 4.83939,-52.97214 3.241822,-18.23418 5.482455,-26.9883 11.253016,-43.96534 16.917308,-49.77087 31.151298,-75.29347 63.404988,-113.68984 10.30486,-12.26742 38.92955,-41.15884 48.0436,-48.49128 17.96203,-14.45083 47.99167,-32.44568 75.06564,-44.98204 22.68814,-10.50555 67.60183,-23.33745 95.20196,-27.19932 29.61412,-4.14368 74.98903,-2.96126 101.74014,2.65124 22.73049,4.76895 55.69575,14.04625 69.75262,19.63024 19.24137,7.64349 63.55527,32.90531 80.07167,45.6461 15.19247,11.7195 37.54682,33.24325 49.54084,47.70009 14.99166,18.07001 31.87012,41.33634 38.89839,53.61997 11.58352,20.24506 30.02545,66.18365 35.01371,87.21866 5.73663,24.19085 12.09129,75.68047 10.9476,88.70458 -4.6674,53.15128 -10.54602,81.15375 -24.80113,118.13902 -5.05171,13.1068 -20.71541,44.62947 -27.36652,55.07421 -11.88471,18.66344 -36.43332,49.66887 -49.68227,62.74978 -25.47508,25.15197 -51.98284,43.84045 -91.98594,64.8519 -15.21586,7.99205 -23.01005,11.09714 -41.76739,16.63946 -31.42805,9.28621 -55.1555,14.5001 -74.26682,16.31945 -13.53635,1.28863 -44.57348,1.74605 -57.5967,0.84886 z M 635.68536,841.81247 c 10.98368,-3.99851 18.17057,-12.02202 19.24067,-21.48047 1.13802,-10.05879 -0.25445,-14.31574 -10.95709,-33.4971 C 623.9998,751.04601 530.56927,588.98393 474.65381,493.1454 c -54.72884,-93.80466 -51.60728,-89.12174 -61.38703,-92.09223 -10.87051,-3.3018 -23.71168,-1.08256 -29.75765,5.14278 -1.5367,1.58229 -7.91468,11.48257 -14.17329,22.00062 -43.1256,72.47572 -200.36064,344.89978 -213.14232,369.28854 l -4.60604,8.7888 0.34824,8.02775 c 0.24843,5.72702 0.8436,9.11217 2.07668,11.81149 2.28051,4.99225 7.93324,11.25852 12.64942,14.02239 l 3.79535,2.22422 125.81915,0.56367 c 69.20053,0.31001 172.92652,0.53284 230.50219,0.49517 99.21701,-0.0649 104.90359,-0.14878 108.90685,-1.60613 z m -439.3839,-300.9501 c 8.08682,-16.90283 12.84424,-28.38547 12.96287,-31.28753 0.0882,-2.15728 -0.50994,-2.85801 -4.4856,-5.25517 -7.57481,-4.56729 -7.12965,-4.95421 -15.44014,13.41994 -4.02643,8.90227 -7.66799,16.7332 -8.09237,17.40207 -0.64736,1.02031 -2.10097,0.6906 -9.02822,-2.04784 -12.14393,-4.80068 -20.48051,-8.78339 -20.95084,-10.00905 -0.22787,-0.59384 2.27398,-7.18957 5.55966,-14.65718 3.2857,-7.46763 6.04593,-14.60143 6.13387,-15.8529 0.13876,-1.97488 -0.45094,-2.57951 -4.46468,-4.57774 -8.48479,-4.22414 -8.60765,-4.19896 -11.5114,2.35919 -1.39592,3.15268 -4.3597,10.27261 -6.58619,15.82207 -2.22649,5.54947 -4.3347,10.42151 -4.68492,10.82677 -0.58842,0.68089 -21.63386,-8.46304 -24.79007,-10.77092 -1.26269,-0.9233 -0.77775,-2.57986 5.12421,-17.50441 3.58538,-9.06653 6.30487,-17.0423 6.0433,-17.72395 -0.5547,-1.44552 -8.93098,-4.7668 -12.0219,-4.7668 -2.46858,0 -3.72057,2.49067 -13.837569,27.52806 -4.274873,10.57938 -5.926744,15.60624 -5.325824,16.20716 1.333446,1.33344 23.716643,11.42227 55.818773,25.15932 37.19859,15.91791 41.38746,17.65137 42.73278,17.68386 0.61297,0.0148 3.68384,-5.34913 6.84426,-11.95495 z m 427.36542,10.60097 c 1.97479,-0.75946 4.32072,-2.06772 5.21319,-2.90725 1.40456,-1.32127 1.48391,-1.83094 0.59037,-3.79205 -0.56776,-1.2461 -0.73041,-2.53971 -0.36142,-2.87471 1.96165,-1.78096 44.42364,-15.11082 48.1352,-15.11082 1.89846,0 2.50827,0.42467 2.71665,1.89186 0.23489,1.65391 0.75122,1.88646 4.10515,1.84889 2.11006,-0.0236 5.06756,-0.55291 6.57223,-1.17616 2.56501,-1.06247 2.72151,-1.3649 2.50745,-4.84576 -0.15576,-2.53288 0.16048,-3.95833 0.99522,-4.48599 0.67294,-0.42537 5.85486,-2.32304 11.51538,-4.21703 5.66052,-1.894 10.52183,-3.81576 10.80292,-4.27057 0.75857,-1.22738 -2.10031,-4.01162 -6.32456,-6.15944 l -3.72798,-1.8955 -8.65164,3.03637 -8.65164,3.03636 -1.399,-1.98823 c -1.18861,-1.68924 -1.92713,-1.9287 -4.91095,-1.59238 -5.57696,0.6286 -8.44969,2.37161 -8.44969,5.12681 0,1.29159 -0.56756,2.66244 -1.26124,3.04633 -0.69369,0.38388 -11.01814,3.77518 -22.94324,7.5362 -26.13891,8.2439 -29.50241,9.67504 -33.70777,14.34234 -3.13708,3.48168 -3.24088,3.78662 -2.78672,8.18702 0.54298,5.26101 2.41637,8.64454 4.7863,8.64454 0.90489,0 3.26099,-0.62138 5.23579,-1.38083 z m 0.64763,-37.48413 c 6.27536,-1.48642 6.9868,-2.08823 6.44145,-5.44882 -0.26333,-1.62275 -1.02702,-3.78716 -1.69709,-4.8098 -1.16203,-1.77348 -1.51242,-1.82319 -7.58622,-1.07622 -7.35612,0.90467 -9.86994,0.46631 -12.34014,-2.15191 -3.68086,-3.90139 0.19007,-12.50605 8.6257,-19.17404 5.00474,-3.95601 3.73888,-5.02622 12.00018,10.14533 7.06766,12.97944 8.56035,15.1349 10.48122,15.1349 2.47727,0 13.74761,-7.84592 20.544,-14.30183 7.81822,-7.42654 10.61725,-12.57739 10.61725,-19.53812 0,-2.7069 -0.55397,-5.99289 -1.23104,-7.3022 -2.70923,-5.23907 -12.43347,-10.96629 -18.64455,-10.98095 -7.89561,-0.0187 -25.30518,6.59182 -36.59517,13.89527 -20.28745,13.12388 -26.99602,29.88313 -16.51393,41.25484 5.54794,6.0188 13.33884,7.32847 25.89834,4.35355 z M 221.1898,493.88542 c 0.73193,-1.4154 1.13253,-3.09008 0.89023,-3.72151 -0.78119,-2.03573 -63.71051,-43.26402 -66.03658,-43.26402 -1.83428,0 -5.11489,4.39548 -5.11489,6.85314 0,2.20491 1.61475,3.46985 19.54924,15.31418 22.1346,14.61819 31.11494,20.32787 40.06399,25.47264 6.92745,3.98256 8.29355,3.8986 10.64801,-0.65443 z m 10.21843,-16.6357 c 1.05679,-1.56816 1.92144,-3.53204 1.92144,-4.36416 0,-0.8965 -5.90979,-6.80276 -14.50428,-14.49563 -23.89725,-21.39026 -28.37793,-26.68707 -28.37793,-33.54674 0,-2.88786 0.47027,-4.47924 1.68165,-5.69062 4.21717,-4.21717 8.39404,-1.67595 33.21269,20.20677 14.07465,12.40969 20.74281,17.63048 22.51819,17.63048 1.99265,0 5.64954,-3.6931 5.64954,-5.70548 0,-1.77089 -5.13345,-6.8198 -27.96862,-27.508 -18.90771,-17.12998 -23.83887,-20.17908 -32.63475,-20.17908 -6.74575,0 -9.11077,1.3768 -12.93764,7.53165 -1.91856,3.08568 -2.45332,4.87397 -2.32679,7.7811 0.14287,3.28278 -0.0256,3.69644 -1.29266,3.17445 -3.45454,-1.42314 -4.23393,-1.30595 -5.96688,0.89713 -0.98794,1.25596 -1.79625,2.90415 -1.79625,3.66267 0,2.17734 12.95132,14.36212 43.30262,40.73972 8.3242,7.23435 15.68915,13.05518 16.36657,12.93516 0.67742,-0.12001 2.09632,-1.50125 3.1531,-3.06942 z m 351.97121,0.66138 c 2.39102,-1.22409 8.1428,-6.72998 8.1428,-7.7947 0,-0.45441 -0.8227,-1.70192 -1.82822,-2.77225 l -1.82823,-1.94606 2.03843,-2.21247 c 2.35466,-2.5557 37.43089,-31.42063 38.18188,-31.42063 0.27536,0 1.59001,0.8054 2.92145,1.78978 2.88886,2.13582 5.43824,1.7365 9.21789,-1.44387 3.03037,-2.54989 3.18345,-3.80736 0.91107,-7.48414 l -1.67622,-2.71218 4.99168,-3.92168 c 7.79348,-6.1229 14.33648,-12.34767 14.33648,-13.63918 0,-0.91629 -1.58225,-1.17687 -7.14608,-1.17687 h -7.14608 l -5.67654,4.60801 c -6.00228,4.87243 -7.30145,5.4157 -8.08268,3.37985 -0.83114,-2.1659 -3.5125,-1.39399 -7.57283,2.18006 -3.09168,2.7214 -3.87189,3.93514 -3.72964,5.80203 0.0989,1.2984 -0.34229,2.98992 -0.98049,3.75892 -0.63822,0.76899 -10.36574,9.15241 -21.61672,18.6298 -11.25099,9.4774 -21.02249,18.32643 -21.71444,19.66452 -0.73605,1.42336 -1.25809,4.68706 -1.25809,7.86528 0,5.03387 0.18978,5.59208 2.587,7.6092 2.8543,2.40175 4.18697,2.63963 6.92758,1.23658 z M 291.55972,462.88102 c 7.97696,-2.98456 13.26505,-10.51106 13.22256,-18.81954 -0.0448,-8.75911 -5.41298,-18.62993 -28.86539,-53.07663 -17.02055,-24.99964 -24.07485,-34.68687 -25.73136,-35.33526 -0.67206,-0.26307 -2.75311,0.60523 -4.62455,1.92954 -2.56127,1.81244 -3.39442,2.96564 -3.36948,4.66373 0.0325,2.21537 -0.0634,2.25592 -5.33824,2.25592 -4.88721,0 -5.58434,0.22798 -7.73407,2.52927 -4.93473,5.28264 -6.43582,15.8532 -3.47288,24.45579 2.45459,7.12667 8.79323,19.17673 13.10147,24.90654 5.33004,7.08876 14.00897,14.88262 19.64124,17.63824 10.01872,4.9017 19.84543,3.0898 23.81395,-4.39093 1.09687,-2.06762 2.36977,-3.63416 2.82867,-3.4812 1.2397,0.41323 3.66225,4.87534 5.52631,10.17895 1.46793,4.17651 1.52031,4.99435 0.47947,7.48544 -1.47827,3.538 -5.12719,6.44232 -8.09399,6.44232 -1.33498,0 -3.7938,-1.18941 -5.89318,-2.8507 l -3.60243,-2.85071 -3.87314,1.28821 c -7.17405,2.38609 -7.51656,3.61945 -2.51267,9.04802 3.84234,4.16844 13.86956,9.65925 17.63957,9.65925 1.30789,0 4.39405,-0.75431 6.85814,-1.67625 z m 281.56623,-20.83351 c 13.56822,-13.89309 43.78405,-46.09853 54.82847,-58.43872 5.29741,-5.91893 5.59206,-6.45609 4.6616,-8.49822 -1.40451,-3.08257 -4.54708,-4.99448 -6.49541,-3.95177 -2.27226,1.21608 -55.55762,56.75339 -68.53633,71.43282 -2.60706,2.94869 -4.74011,5.95766 -4.74011,6.6866 0,1.29681 4.82084,6.87077 5.94244,6.87077 0.31219,0 6.76488,-6.34567 14.33934,-14.10148 z m -431.10083,3.1062 c 3.20934,-3.81407 2.85267,-6.11897 -1.3967,-9.02595 -8.77248,-6.00123 -11.63464,-6.50305 -14.09308,-2.47091 -2.29574,3.76529 -2.10708,5.15912 1.06025,7.83339 2.43137,2.05286 10.24122,6.22075 11.69685,6.24226 0.30573,0.004 1.53544,-1.15594 2.73268,-2.57879 z m 407.71815,-13.23676 c 2.08175,-3.55199 8.91014,-13.83643 15.17419,-22.85431 14.33456,-20.63639 16.79034,-25.31471 17.21277,-32.7907 0.3599,-6.3692 -0.63574,-9.02787 -4.9664,-13.26189 -7.13882,-6.97952 -16.302,-7.90421 -26.54756,-2.67899 -5.50111,2.80555 -9.54369,6.96607 -9.54369,9.82212 0,1.76773 4.65459,6.11718 6.54632,6.11718 0.8969,0 3.00579,-1.09277 4.68644,-2.42838 5.76664,-4.58274 13.26087,-3.89139 16.03829,1.47956 2.06803,3.99913 1.79575,4.87316 -4.15918,13.35103 -1.7064,2.42936 -2.4043,2.3886 -9.8053,-0.57268 -3.38775,-1.35549 -8.68237,-2.92863 -11.76583,-3.49587 -5.41499,-0.99616 -5.76481,-0.9538 -10.25154,1.24135 -12.6332,6.18085 -20.19575,18.83848 -18.56149,31.06679 1.07435,8.03877 9.65959,13.84548 19.02353,12.86676 l 4.84388,-0.50629 -1.38464,2.90362 c -1.37465,2.88266 -1.36742,2.91743 1.0018,4.81969 4.4162,3.54578 5.7393,4.02438 7.28159,2.63395 0.76549,-0.69012 3.09507,-4.16094 5.17682,-7.71294 z m -50.76483,-21.28804 c 0.88231,-1.45083 4.12037,-9.86962 7.1957,-18.70841 3.07533,-8.8388 7.21409,-20.23265 9.19725,-25.31965 3.43884,-8.82103 5.52133,-16.95572 5.52133,-21.56763 0,-2.97549 -4.72459,-12.11183 -7.31831,-14.15205 -2.42916,-1.91077 -10.9483,-2.38295 -15.0255,-0.8328 -1.25038,0.47539 -2.36974,0.75917 -2.48746,0.63062 -0.11772,-0.12855 2.20498,-6.65436 5.16158,-14.5018 2.95659,-7.84744 5.37562,-14.88119 5.37562,-15.63055 0,-1.59163 -2.93585,-3.09139 -7.47119,-3.81662 -2.63497,-0.42135 -3.32309,-0.23344 -3.82848,1.04547 -3.03471,7.67948 -31.12174,89.46609 -33.66267,98.02232 l -1.19349,4.01892 2.43588,1.25965 c 3.81951,1.97514 6.49795,1.61653 7.86204,-1.05264 1.47583,-2.88783 14.45092,-37.71005 15.11675,-40.56993 0.86952,-3.7348 6.97938,-12.97708 9.90271,-14.97964 5.48709,-3.75882 11.67927,-0.63255 11.67927,5.89656 0,2.00047 -3.71444,14.5665 -9.2491,31.28987 -5.08701,15.37076 -9.2491,28.19054 -9.2491,28.48842 0,0.91598 4.51432,3.04848 6.52877,3.08409 1.25383,0.0222 2.45212,-0.86729 3.5084,-2.6042 z M 324.0458,409.00409 c 5.25992,-1.12805 11.09646,-6.05374 13.11549,-11.06867 2.11983,-5.26532 2.64316,-15.42363 0.99701,-19.35278 -1.31574,-3.14048 -1.34098,-3.1531 -6.30604,-3.1531 h -4.98503 l -0.36562,7.35724 c -0.50534,10.16862 -2.11958,12.26207 -9.45516,12.26207 -1.96133,0 -3.41108,-1.00462 -6.74704,-4.67544 -4.47635,-4.92568 -8.37113,-11.57614 -7.35963,-12.56679 0.32945,-0.32266 5.99037,-2.6571 12.57984,-5.18764 19.83624,-7.61768 19.93981,-7.75133 14.57838,-18.81251 -8.96397,-18.49351 -16.67366,-25.73262 -27.43866,-25.76385 -7.5949,-0.022 -11.71503,2.53766 -15.37629,9.55273 l -2.85086,5.46232 0.457,10.51035 c 0.48624,11.18277 1.90626,17.55126 6.48189,29.06974 3.05184,7.68256 6.25409,12.6451 12.07461,18.712 4.49232,4.68248 7.6298,6.7365 11.86467,7.76748 3.64016,0.88619 4.10368,0.88018 8.73544,-0.11315 z m 58.87739,-17.46143 c 5.36934,-3.60166 7.99959,-8.55241 8.8458,-16.64987 0.63102,-6.03837 -0.66235,-15.25195 -2.81449,-20.04965 -1.83038,-4.08041 -7.85547,-7.97004 -17.79293,-11.48663 -7.94498,-2.8115 -10.28699,-4.24299 -11.57816,-7.07681 -1.59843,-3.50817 -1.1438,-6.21084 1.48738,-8.84202 4.33742,-4.33742 8.51656,-3.20389 12.58893,3.41455 2.89195,4.70003 4.5381,5.19141 9.89424,2.95347 2.87462,-1.20109 3.00012,-1.42012 2.51757,-4.39371 -0.83874,-5.16859 -5.34439,-13.38793 -8.36092,-15.25224 -1.49022,-0.92101 -5.23698,-2.14027 -8.32614,-2.70946 -4.94902,-0.9119 -6.07686,-0.85915 -9.48851,0.44377 -7.71203,2.94525 -10.84152,7.71406 -11.89816,18.13078 -0.52129,5.13899 1.23872,14.94251 3.56129,19.83697 1.7985,3.79007 4.22791,5.29673 15.616,9.68465 10.19686,3.92893 12.03514,5.3021 13.27827,9.91876 1.3677,5.07927 -0.76782,8.91163 -6.09434,10.93677 -1.79755,0.68342 -3.11286,0.57159 -5.76683,-0.49031 -2.97824,-1.19166 -3.75847,-2.08959 -5.83269,-6.71263 -2.19315,-4.88813 -2.61313,-5.33696 -4.99394,-5.33696 -3.97866,0 -7.56085,2.18631 -7.56085,4.6146 0,2.94952 3.23383,11.32326 5.59582,14.48995 6.68446,8.96174 17.79092,10.83559 27.12266,4.57602 z m 56.29152,1.86586 c 7.18676,-3.58132 13.90897,-13.90524 14.98836,-23.01903 0.49597,-4.18766 0.48998,-4.20056 -2.53519,-5.46456 -3.42579,-1.43138 -7.29048,-1.67401 -7.29048,-0.45769 0,2.48615 -3.976,10.7948 -6.50562,13.59478 -3.48243,3.85464 -6.47627,4.24182 -9.69972,1.25442 -2.96566,-2.74848 -3.9691,-7.05502 -3.94232,-16.91973 0.0566,-20.8447 4.16173,-32.86797 12.39711,-36.30893 2.61584,-1.09297 3.04518,-1.06356 4.59328,0.31466 2.28492,2.03421 4.10195,6.48706 4.73767,11.61027 0.4685,3.77561 0.75083,4.23062 2.76986,4.46401 1.2365,0.14293 3.79052,-0.15544 5.67559,-0.66303 3.22983,-0.8697 3.42702,-1.10279 3.42084,-4.0436 -0.0108,-5.123 -2.96369,-15.89724 -5.34193,-19.49102 -2.96246,-4.47657 -7.57712,-6.75243 -13.69159,-6.75243 -8.99947,0 -14.93254,4.74598 -20.45004,16.35838 -4.64007,9.76571 -5.42888,14.44541 -5.46301,32.40962 -0.0437,22.99097 1.80347,28.31292 11.50484,33.14732 5.51096,2.74622 9.27131,2.73774 14.83235,-0.0335 z"
         id="path147098"
         transform="scale(0.26458333)" />
    </g>
    <path
       style="fill:#ffffff;stroke:#000000;stroke-width:0.112357;stroke-linecap:round;stroke-miterlimit:3.7"
       d="m 228.29833,175.7312 c -0.82343,-0.38344 -2.83006,-1.77044 -4.45916,-3.08223 -6.64824,-5.35326 -13.40924,-13.56813 -16.33559,-19.84836 -0.68567,-1.47152 -1.9259,-3.71252 -2.75605,-4.98 -1.76964,-2.70187 -2.15477,-4.16996 -2.1483,-8.18916 0.008,-4.71614 0.82879,-7.21976 2.75164,-8.38912 3.78308,-2.30063 10.58855,0.0449 16.77902,5.78292 5.87275,5.44354 13.05946,16.29296 16.04738,24.22593 1.56381,4.15195 1.52374,10.1706 -0.0839,12.59989 -1.65157,2.49568 -6.48205,3.42287 -9.79506,1.88013 z"
       id="path2331"
       transform="matrix(0.26458333,0,0,0.26458333,8.9659592,65.260777)" />
    <path
       style="fill:#ffffff;stroke:#000000;stroke-width:0.112357;stroke-linecap:round;stroke-miterlimit:3.7"
       d="m 263.08114,115.56661 c -1.39141,-4.78055 -1.62896,-7.93421 -0.90385,-11.99928 1.03381,-5.795762 3.77404,-8.465052 8.64248,-8.418753 2.67268,0.02542 3.93862,0.669286 6.65324,3.383907 3.3363,3.336296 6.37707,8.074116 6.78148,10.566206 0.15639,0.96373 0.0944,1.07168 -0.83877,1.4616 -0.91961,0.38423 -19.53621,6.71567 -19.74639,6.71567 -0.0499,0 -0.31455,-0.76921 -0.58819,-1.70935 z"
       id="path3059"
       transform="matrix(0.26458333,0,0,0.26458333,8.9659592,65.260777)" />
    <path
       style="fill:#ffffff;stroke:#000000;stroke-width:0.112357;stroke-linecap:round;stroke-miterlimit:3.7"
       d="m 498.83158,170.94017 c -3.45627,-0.82626 -5.61388,-1.79087 -6.07038,-2.71392 -1.08575,-2.19537 -0.63328,-5.12488 1.46811,-9.50523 2.33079,-4.85854 5.28982,-6.98221 9.74234,-6.992 1.28276,-0.003 3.21196,0.14806 4.28711,0.33529 1.84616,0.3215 11.95077,3.58396 12.35627,3.98946 0.39045,0.39045 -1.00456,2.32721 -4.22937,5.87184 -4.36242,4.79506 -7.5695,7.75902 -9.30394,8.59866 -1.75973,0.85187 -5.61376,1.04615 -8.25014,0.4159 z"
       id="path4513"
       transform="matrix(0.26458333,0,0,0.26458333,8.9659592,65.260777)" />
    <path
       style="fill:#ffffff;stroke:none;stroke-width:0.15874016;stroke-linecap:round;stroke-miterlimit:3.7;stroke-dasharray:none"
       d="m 610.35434,240.55333 c -1.17704,-1.89197 -2.98578,-4.95343 -4.01944,-6.80325 -5.16998,-9.25218 -5.41934,-10.37225 -2.62066,-11.77159 1.47145,-0.73572 2.52248,-0.84082 8.40828,-0.84082 6.40143,0 6.81605,0.0508 8.57667,1.05103 2.60046,1.47735 3.51306,3.30845 3.27627,6.57373 -0.26201,3.61321 -1.85257,6.36687 -6.18638,10.71015 -5.22251,5.23394 -4.88175,5.18441 -7.43474,1.08075 z"
       id="path5241"
       transform="matrix(0.26458333,0,0,0.26458333,8.9659592,65.260777)" />
  </g>
</svg>
