<?xml version="1.0" encoding="utf-8"?>
<!-- Generator: Adobe Illustrator 27.5.0, SVG Export Plug-In . SVG Version: 6.00 Build 0)  -->
<svg version="1.1"
	 id="svg2984" xmlns:svg="http://www.w3.org/2000/svg" xmlns:rdf="http://www.w3.org/1999/02/22-rdf-syntax-ns#" xmlns:sodipodi="http://sodipodi.sourceforge.net/DTD/sodipodi-0.dtd" xmlns:dc="http://purl.org/dc/elements/1.1/" xmlns:cc="http://creativecommons.org/ns#" xmlns:inkscape="http://www.inkscape.org/namespaces/inkscape" inkscape:version="1.1.2 (b8e25be833, 2022-02-05)" sodipodi:docname="hauptsignal-halt.svg"
	 xmlns="http://www.w3.org/2000/svg" xmlns:xlink="http://www.w3.org/1999/xlink" x="0px" y="0px" viewBox="0 0 86.1 172.7"
	 style="enable-background:new 0 0 86.1 172.7;" xml:space="preserve">
<style type="text/css">
	.st0{opacity:0.96;stroke:#000000;stroke-width:0.2;stroke-linecap:round;stroke-linejoin:round;enable-background:new    ;}
	.st1{fill:#FFFFFF;}
	.st2{fill:none;}
</style>
<sodipodi:namedview  bordercolor="#666666" borderopacity="1.0" fit-margin-bottom="0" fit-margin-left="0" fit-margin-right="0" fit-margin-top="0" id="base" inkscape:current-layer="layer1" inkscape:cx="-99" inkscape:cy="57" inkscape:document-units="px" inkscape:pagecheckerboard="0" inkscape:pageopacity="0.0" inkscape:pageshadow="2" inkscape:window-height="1369" inkscape:window-maximized="1" inkscape:window-width="3440" inkscape:window-x="-8" inkscape:window-y="-8" inkscape:zoom="2" pagecolor="#ffffff" showgrid="false" showguides="true">
	<inkscape:grid  id="grid3538" type="xygrid"></inkscape:grid>
</sodipodi:namedview>
<g id="layer1" transform="translate(0.1,-880.53634)" inkscape:groupmode="layer" inkscape:label="Ebene 1">
	<path id="rect6586" inkscape:connector-curvature="0" class="st0" d="M5,880.6l-5,5.2v74.8v12.5v74.8l5,5.2h76.4l4.4-4.8v-75.2
		v-12.5v-75.2l-4.4-4.8L5,880.6z"/>
	<circle id="path4882" class="st1" cx="22.8" cy="909.9" r="8"/>
	<circle id="path4882-6" class="st1" cx="22.8" cy="965.2" r="8"/>
	<rect id="rect1079" x="0.1" y="885.8" class="st1" width="5" height="162.1"/>
	<rect id="rect1079-6" x="80.8" y="885.4" class="st1" width="5" height="162.9"/>
	<rect id="rect1079-9" x="40.4" y="880.7" class="st1" width="5" height="172.3"/>
	<rect id="rect1079-9-2" x="5" y="880.7" class="st1" width="76.5" height="5"/>
	<rect id="rect1079-9-2-0" x="5" y="1048.1" class="st1" width="76.4" height="5"/>
	<path id="path1891" class="st1" d="M81.5,880.7l4.3,4.7h-5L81.5,880.7z"/>
	<path id="path1959" class="st1" d="M81.5,880.7l4.3,4.7h-5L81.5,880.7z"/>
	<path id="path2087" class="st1" d="M5,880.7l-4.9,5.1h5L5,880.7"/>
	<path id="path2155" class="st1" d="M5,880.7l-4.9,5.1h5L5,880.7"/>
	<path id="path2323" class="st2" d="M81.2,1053.1l4.6-4.7h-5L81.2,1053.1"/>
	<path id="path2572" class="st1" d="M85.8,1048.4h-5l0.7,4.7L85.8,1048.4z"/>
	<path id="path2640" class="st1" d="M85.8,1048.4h-5l0.7,4.7L85.8,1048.4z"/>
	<path id="path2774" class="st1" d="M5,1053.1l-4.9-5.1h5L5,1053.1z"/>
	<path id="path2892" class="st1" d="M5,1053.1l-4.9-5.1h5L5,1053.1z"/>
</g>
</svg>
