<?xml version="1.0" encoding="UTF-8" standalone="no"?>
<!-- Created with Inkscape (http://www.inkscape.org/) -->

<svg
   width="152.42064mm"
   height="277.44107mm"
   viewBox="0 0 152.42064 277.44107"
   version="1.1"
   id="svg17353"
   inkscape:version="1.2.2 (732a01da63, 2022-12-09)"
   sodipodi:docname="schutzsignal-aufgehoben.svg"
   xmlns:inkscape="http://www.inkscape.org/namespaces/inkscape"
   xmlns:sodipodi="http://sodipodi.sourceforge.net/DTD/sodipodi-0.dtd"
   xmlns="http://www.w3.org/2000/svg"
   xmlns:svg="http://www.w3.org/2000/svg">
  <sodipodi:namedview
     id="namedview17355"
     pagecolor="#ffffff"
     bordercolor="#000000"
     borderopacity="0.25"
     inkscape:showpageshadow="2"
     inkscape:pageopacity="0.0"
     inkscape:pagecheckerboard="0"
     inkscape:deskcolor="#d1d1d1"
     inkscape:document-units="mm"
     showgrid="false"
     inkscape:zoom="0.5946522"
     inkscape:cx="433.86706"
     inkscape:cy="613.80417"
     inkscape:window-width="2560"
     inkscape:window-height="1494"
     inkscape:window-x="-11"
     inkscape:window-y="-11"
     inkscape:window-maximized="1"
     inkscape:current-layer="layer1" />
  <defs
     id="defs17350">
    <pattern
       id="EMFhbasepattern"
       patternUnits="userSpaceOnUse"
       width="6"
       height="6"
       x="0"
       y="0" />
    <pattern
       id="EMFhbasepattern-2"
       patternUnits="userSpaceOnUse"
       width="6"
       height="6"
       x="0"
       y="0" />
    <pattern
       id="EMFhbasepattern-6"
       patternUnits="userSpaceOnUse"
       width="6"
       height="6"
       x="0"
       y="0" />
  </defs>
  <g
     inkscape:label="Ebene 1"
     inkscape:groupmode="layer"
     id="layer1"
     transform="translate(-30.079857,-9.1179925)">
    <g
       id="g28331"
       transform="matrix(1.1325947,0,0,1.1325947,-8.1878475,-24.13801)">
      <g
         id="g28318"
         transform="translate(-0.88987591,7.1190073)">
        <path
           style="fill:#000000;stroke-width:0.246936"
           d="m 42.349078,267.20422 -3.83578,-7.6464 -3.83578,-7.6464 V 146.34238 40.773345 l 6.58976,-7.598024 c 3.62437,-4.178913 7.25198,-8.348091 8.06137,-9.264842 l 1.47162,-1.666818 50.524202,0.0049 50.52421,0.0049 8.70267,9.934296 8.70267,9.934295 -0.002,106.305968 c -9.9e-4,58.46828 -0.0836,106.42899 -0.18337,106.57935 -0.0998,0.15036 -3.77547,2.95617 -8.1682,6.23514 l -7.98677,5.96175 h -20.34914 c -42.403502,-0.4316 -42.429522,-0.34991 -90.215462,-4e-5 z m 116.175282,-9.02381 6.65886,-4.94936 0.0551,-104.93718 0.0551,-104.937177 -7.29732,-8.269729 c -4.01352,-4.548351 -7.42751,-8.352552 -7.58665,-8.453778 -0.37561,-0.238926 -97.499842,-0.241535 -97.841922,-0.0026 -0.14287,0.09978 -3.33761,3.764922 -7.09941,8.144758 l -6.83964,7.963337 V 146.94861 251.15857 l 2.24986,4.50399 c 1.23743,2.47719 2.63643,5.19923 3.10889,6.04899 l 0.85902,1.54503 53.50962,-0.0634 53.509622,-0.0634 z M 45.789648,147.06983 V 40.763865 h 25.14666 25.14667 l 0.16416,29.447124 c 0.0903,16.195918 0.16422,64.033601 0.16428,106.305961 l 1.2e-4,76.85885 h -25.31095 -25.31094 z m 28.77845,17.38617 c 3.33014,-0.61561 6.07108,-2.51433 7.7544,-5.37168 1.58762,-2.69491 2.05958,-4.42355 2.07276,-7.59186 0.01,-2.40896 -0.0735,-2.97358 -0.69416,-4.69179 -1.64305,-4.54875 -5.19604,-7.71393 -9.49608,-8.45957 -2.96622,-0.51436 -6.45372,0.46687 -8.96918,2.52354 -1.41239,1.15478 -3.19486,3.74725 -4.01175,5.83479 -0.65597,1.6763 -0.7237,2.12145 -0.71387,4.69178 0.009,2.42224 0.10566,3.10304 0.65564,4.63039 2.27938,6.33008 7.38936,9.54594 13.40224,8.4344 z m 2.52246,-73.044865 c 3.1002,-1.365852 5.33825,-3.92548 6.6075,-7.556929 0.59209,-1.694009 0.69176,-2.36569 0.69953,-4.714007 0.008,-2.40551 -0.0767,-2.976036 -0.69649,-4.691785 -1.6648,-4.608968 -5.37436,-7.945958 -9.47937,-8.527299 -5.59732,-0.792678 -10.77059,2.53222 -12.94882,8.322298 -2.79507,7.429745 1.65046,16.556069 8.71647,17.89425 2.09204,0.396197 5.29713,0.06828 7.10118,-0.726528 z m 28.457532,99.181175 c -4e-5,-34.53092 -0.074,-82.36861 -0.16439,-106.305966 l -0.16431,-43.522479 h 26.58655 26.58654 V 147.06983 253.3758 h -26.42215 -26.42216 z"
           id="path27552"
           sodipodi:nodetypes="cccccssccccccsscccccccsscscccssccccccccssccccssssssscsssscssssssccccccccs" />
      </g>
      <path
         style="fill:#ffffff;fill-opacity:1;stroke:none;stroke-width:3.17793;stroke-dasharray:none"
         d="m 160.33824,1010.0442 c -3.22352,-6.1275 -8.36209,-16.14903 -11.41904,-22.26992 l -5.55809,-11.12894 0.016,-394.14999 0.016,-394.14996 22.7815,-26.48607 c 12.52983,-14.56734 24.34676,-28.18875 26.25986,-30.2698 l 3.47835,-3.78372 h 184.453 184.45301 l 5.57404,6.20404 c 3.06572,3.41223 15.68178,17.60119 28.03569,31.53104 l 22.46165,25.32699 0.0305,396.23776 0.0305,396.23774 -25.40763,18.92093 -25.40764,18.9209 H 368.16756 166.19919 Z M 361.13491,652.69245 c -3e-4,-182.78542 -0.2518,-363.83663 -0.55888,-402.33602 l -0.55833,-69.9989 h -95.29546 -95.29547 v 402.33602 402.33602 h 95.85435 95.85435 z m 234.59147,-69.9989 V 180.35753 H 494.68823 393.65008 l 0.55925,89.6874 c 0.30758,49.32807 0.55924,230.37928 0.55924,402.33602 v 312.64862 h 100.4789 100.47891 z"
         id="path28320"
         transform="scale(0.26458333)" />
      <path
         style="fill:#ffffff;fill-opacity:1;stroke:none;stroke-width:3.17793;stroke-dasharray:none"
         d="m 260.50257,374.55002 c -6.46451,-1.27783 -13.05598,-5.14807 -19.23523,-11.29415 -10.09719,-10.04299 -14.65825,-20.58517 -15.28681,-35.33309 -0.47507,-11.14644 0.81983,-17.04236 5.88474,-26.79422 6.06591,-11.67918 16.8335,-20.50551 28.82623,-23.62921 22.09937,-5.75616 44.157,8.09995 52.45291,32.94973 2.69832,8.08265 2.49912,23.33771 -0.41839,32.03993 -1.19016,3.54995 -3.34084,8.5355 -4.77929,11.07901 -3.44113,6.08468 -11.70721,14.13714 -17.48277,17.03095 -8.27202,4.14465 -20.69451,5.78282 -29.96139,3.95105 z"
         id="path28322"
         transform="scale(0.26458333)" />
      <path
         style="fill:#ffffff;fill-opacity:1;stroke:none;stroke-width:3.17793;stroke-dasharray:none"
         d="m 259.32118,647.48392 c -14.81491,-4.08683 -27.86537,-18.3785 -32.25969,-35.32786 -2.07277,-7.99489 -1.71955,-21.44452 0.74671,-28.43266 2.73385,-7.74636 8.68158,-17.03549 14.32518,-22.37297 8.20594,-7.76084 22.1487,-12.71343 32.24139,-11.45244 17.48488,2.1846 31.98092,14.59747 38.44746,32.92236 1.67883,4.75746 2.03533,7.39684 2.04998,15.17692 0.0224,11.90042 -0.94502,16.57075 -5.26856,25.43434 -7.82536,16.04255 -22.77875,25.40399 -40.23976,25.19172 -3.40166,-0.0414 -7.92088,-0.55409 -10.04271,-1.13941 z"
         id="path28324"
         transform="scale(0.26458333)" />
    </g>
  </g>
</svg>
