<?xml version="1.0" encoding="UTF-8" standalone="no"?>
<!-- Created with Inkscape (http://www.inkscape.org/) -->

<svg
   width="401.91913"
   height="602.87866"
   viewBox="0 0 106.34124 159.51167"
   version="1.1"
   id="svg5661"
   inkscape:version="1.2.2 (732a01da63, 2022-12-09)"
   sodipodi:docname="signalnachahmer_frei.svg"
   xmlns:inkscape="http://www.inkscape.org/namespaces/inkscape"
   xmlns:sodipodi="http://sodipodi.sourceforge.net/DTD/sodipodi-0.dtd"
   xmlns="http://www.w3.org/2000/svg"
   xmlns:svg="http://www.w3.org/2000/svg">
  <sodipodi:namedview
     id="namedview5663"
     pagecolor="#ffffff"
     bordercolor="#000000"
     borderopacity="0.25"
     inkscape:showpageshadow="2"
     inkscape:pageopacity="0.0"
     inkscape:pagecheckerboard="0"
     inkscape:deskcolor="#d1d1d1"
     inkscape:document-units="mm"
     showgrid="false"
     inkscape:zoom="1.6819304"
     inkscape:cx="130.80208"
     inkscape:cy="271.11705"
     inkscape:window-width="2560"
     inkscape:window-height="1494"
     inkscape:window-x="-11"
     inkscape:window-y="-11"
     inkscape:window-maximized="1"
     inkscape:current-layer="layer1" />
  <defs
     id="defs5658">
    <pattern
       id="EMFhbasepattern"
       patternUnits="userSpaceOnUse"
       width="6"
       height="6"
       x="0"
       y="0" />
  </defs>
  <g
     inkscape:label="Ebene 1"
     inkscape:groupmode="layer"
     id="layer1"
     transform="translate(0.47192694,0.62923836)">
    <g
       id="g6745"
       transform="matrix(1.0059524,0,0,1.0049554,-0.63017448,-0.7873267)">
      <rect
         style="fill:#000000;stroke:none;stroke-width:1.01531"
         id="rect6208"
         width="105.712"
         height="158.72531"
         x="0.15731116"
         y="0.15721677" />
      <path
         style="fill:#ffffff;stroke:#ffffff;stroke-width:0.613506"
         d="m 25.605902,64.848172 c -1.260647,-0.71984 -1.60856,-2.405849 -0.841979,-4.080283 0.481851,-1.052503 1.731551,-2.785103 8.940554,-12.395301 9.981445,-13.30609 24.07274,-31.687456 25.234511,-32.917115 0.894327,-0.946583 2.165533,-1.293582 3.054624,-0.833815 0.563902,0.291606 1.408535,1.252205 1.686967,1.918584 0.470472,1.126001 0.355696,1.427042 -1.716579,4.502322 -6.336904,9.404041 -25.435165,34.675182 -31.842196,42.13414 -1.26746,1.475557 -1.516017,1.689568 -2.146748,1.848387 -1.049103,0.264168 -1.679073,0.217122 -2.369154,-0.176919 z"
         id="path6136" />
      <path
         style="fill:#ffffff;stroke:#ffffff;stroke-width:0.613506"
         d="m 23.153697,142.92457 c -1.36408,-0.72284 -1.629144,-1.26848 -1.890083,-3.89082 -0.454569,-4.56825 -0.607048,-53.093552 -0.178769,-56.892045 0.117332,-1.040642 0.255889,-1.539488 0.551799,-1.98664 1.089362,-1.646136 4.064124,-1.686851 5.009257,-0.06856 0.440613,0.754431 0.573884,3.578169 0.77139,16.344144 0.193645,12.516361 0.08732,38.206741 -0.171534,41.445651 -0.226727,2.83694 -0.425978,3.39959 -1.583347,4.47111 -1.067792,0.98859 -1.531133,1.09518 -2.508713,0.57716 z"
         id="path6138" />
    </g>
  </g>
</svg>
