<?xml version="1.0" encoding="UTF-8" standalone="no"?>
<!-- Created with Inkscape (http://www.inkscape.org/) -->

<svg
   width="490.85217"
   height="317.2851"
   viewBox="0 0 129.8713 83.94835"
   version="1.1"
   id="svg19254"
   inkscape:version="1.2.2 (732a01da63, 2022-12-09)"
   sodipodi:docname="SLB_X40.svg"
   xmlns:inkscape="http://www.inkscape.org/namespaces/inkscape"
   xmlns:sodipodi="http://sodipodi.sourceforge.net/DTD/sodipodi-0.dtd"
   xmlns="http://www.w3.org/2000/svg"
   xmlns:svg="http://www.w3.org/2000/svg">
  <sodipodi:namedview
     id="namedview19256"
     pagecolor="#ffffff"
     bordercolor="#000000"
     borderopacity="0.25"
     inkscape:showpageshadow="2"
     inkscape:pageopacity="0.0"
     inkscape:pagecheckerboard="0"
     inkscape:deskcolor="#d1d1d1"
     inkscape:document-units="mm"
     showgrid="false"
     inkscape:zoom="1"
     inkscape:cx="245.5"
     inkscape:cy="146"
     inkscape:window-width="2560"
     inkscape:window-height="1494"
     inkscape:window-x="-11"
     inkscape:window-y="-11"
     inkscape:window-maximized="1"
     inkscape:current-layer="text22445" />
  <defs
     id="defs19251">
    <rect
       x="40"
       y="135"
       width="440"
       height="256"
       id="rect22447" />
  </defs>
  <g
     inkscape:label="Ebene 1"
     inkscape:groupmode="layer"
     id="layer1"
     transform="translate(-1.8620243,-25.164583)">
    <g
       id="g26136">
      <rect
         style="fill:#ffff00;stroke:#000000;stroke-width:1;stroke-dasharray:none;stroke-opacity:1"
         id="rect21665"
         width="128.87131"
         height="82.948349"
         x="2.3620243"
         y="25.664583" />
      <g
         aria-label="X 40"
         transform="matrix(0.31682125,0,0,0.31682125,-7.1606757,-8.9936675)"
         id="text22445"
         style="font-size:192px;white-space:pre;shape-inside:url(#rect22447);fill:#ffff00;stroke-width:18.8976">
        <path
           d="M 40.84375,310.16742 94,238.54242 47.125,172.72992 h 21.65625 l 24.9375,35.25 q 7.78125,10.96875 11.0625,16.875 4.59375,-7.5 10.875,-15.65625 l 27.65625,-36.46875 h 19.78125 l -48.28125,64.78125 52.03125,72.65625 h -22.5 L 109.75,261.13617 q -2.90625,-4.21875 -6,-9.1875 -4.59375,7.5 -6.5625,10.3125 l -34.5,47.90625 z"
           style="font-family:Arial;-inkscape-font-specification:Arial;fill:#000000"
           id="path35942" />
        <path
           d="m 283.46875,310.16742 v -32.90625 h -59.625 v -15.46875 l 62.71875,-89.0625 h 13.78125 v 89.0625 h 18.5625 v 15.46875 h -18.5625 v 32.90625 z m 0,-48.375 v -61.96875 l -43.03125,61.96875 z"
           style="font-family:Arial;-inkscape-font-specification:Arial;fill:#000000"
           id="path35944" />
        <path
           d="m 336.15625,242.38617 q 0,-24.375 4.96875,-39.1875 5.0625,-14.90625 14.90625,-22.96875 9.9375,-8.0625 24.9375,-8.0625 11.0625,0 19.40625,4.5 8.34375,4.40625 13.78125,12.84375 5.4375,8.34375 8.53125,20.4375 3.09375,12 3.09375,32.4375 0,24.1875 -4.96875,39.09375 -4.96875,14.8125 -14.90625,22.96875 -9.84375,8.0625 -24.9375,8.0625 -19.875,0 -31.21875,-14.25 -13.59375,-17.15625 -13.59375,-55.875 z m 17.34375,0 q 0,33.84375 7.875,45.09375 7.96875,11.15625 19.59375,11.15625 11.625,0 19.5,-11.25 7.96875,-11.25 7.96875,-45 0,-33.9375 -7.96875,-45.09375 -7.875,-11.15625 -19.6875,-11.15625 -11.625,0 -18.5625,9.84375 Q 353.5,208.54242 353.5,242.38617 Z"
           style="font-family:Arial;-inkscape-font-specification:Arial;fill:#000000"
           id="path35946" />
      </g>
    </g>
  </g>
</svg>
