<?xml version="1.0" encoding="UTF-8" standalone="no"?>
<!-- Generator: Adobe Illustrator 15.0.0, SVG Export Plug-In . SVG Version: 6.00 Build 0)  -->

<svg
   xmlns:dc="http://purl.org/dc/elements/1.1/"
   xmlns:cc="http://creativecommons.org/ns#"
   xmlns:rdf="http://www.w3.org/1999/02/22-rdf-syntax-ns#"
   xmlns:svg="http://www.w3.org/2000/svg"
   xmlns="http://www.w3.org/2000/svg"
   xmlns:sodipodi="http://sodipodi.sourceforge.net/DTD/sodipodi-0.dtd"
   xmlns:inkscape="http://www.inkscape.org/namespaces/inkscape"
   version="1.1"
   id="Ebene_1"
   x="0px"
   y="0px"
   width="517.23047"
   height="379.13144"
   viewBox="0 0 517.23047 379.13144"
   enable-background="new 0 0 600 600"
   xml:space="preserve"
   inkscape:version="0.91 r13725"
   sodipodi:docname="vorsignal_frei_formsignal.svg"
   inkscape:export-filename="/home/michael/Entwicklung/OpenRailwayMap/styles/icons/at/vorsignal_frei_formsignal-12.png"
   inkscape:export-xdpi="2.8486164"
   inkscape:export-ydpi="2.8486164"><metadata
     id="metadata39"><rdf:RDF><cc:Work
         rdf:about=""><dc:format>image/svg+xml</dc:format><dc:type
           rdf:resource="http://purl.org/dc/dcmitype/StillImage" /><dc:title /></cc:Work></rdf:RDF></metadata><defs
     id="defs37" /><sodipodi:namedview
     pagecolor="#ffffff"
     bordercolor="#666666"
     borderopacity="1"
     objecttolerance="10"
     gridtolerance="10"
     guidetolerance="10"
     inkscape:pageopacity="0"
     inkscape:pageshadow="2"
     inkscape:window-width="640"
     inkscape:window-height="480"
     id="namedview35"
     showgrid="false"
     fit-margin-top="0"
     fit-margin-left="0"
     fit-margin-right="0"
     fit-margin-bottom="0"
     inkscape:zoom="0.24833334"
     inkscape:cx="30.835548"
     inkscape:cy="318.98228"
     inkscape:current-layer="Ebene_1" /><rect
     style="opacity:0.95999995;fill:#acacac;fill-opacity:1;stroke:none;stroke-width:16;stroke-linecap:round;stroke-linejoin:round;stroke-miterlimit:4;stroke-dasharray:none;stroke-dashoffset:0;stroke-opacity:1"
     id="rect4196"
     width="57.382549"
     height="162.08054"
     x="237.47369"
     y="217.0509" /><polygon
     points="479.536,397.232 463.802,409.336 455.329,415.388 144.267,415.388 134.583,406.916 124.9,398.443 114.007,389.971 101.904,375.446 87.379,360.922 74.065,340.346 68.014,319.77 60.751,288.3 538.845,288.3 538.845,302.824 524.32,334.294 515.848,348.818 502.533,369.395 492.851,383.919 "
     id="polygon7"
     style="fill:#ffffff;stroke:none"
     transform="translate(-38.365234,-184.62695)" /><rect
     x="115.58377"
     y="106.09406"
     width="295.328"
     height="119.826"
     id="rect13"
     style="fill:#009640;stroke:none" /><path
     style="fill:#acacac;fill-opacity:1;stroke:none"
     d="m 0,0 0,38.73047 146.65039,0 0,26.61524 82.30469,0 0,38.32812 69.39453,0 0,-38.32812 82.30469,0 0,-26.61524 136.57617,0 L 517.23047,0 0,0 Z"
     id="rect19"
     inkscape:connector-curvature="0" /></svg>