<?xml version="1.0" encoding="UTF-8" standalone="no"?>
<!-- Created with Inkscape (http://www.inkscape.org/) -->

<svg
   width="75.275391mm"
   height="240.76521mm"
   viewBox="0 0 75.275391 240.76521"
   version="1.1"
   id="svg28349"
   inkscape:version="1.2.2 (732a01da63, 2022-12-09)"
   sodipodi:docname="weichenueberwachungssignal.svg"
   xmlns:inkscape="http://www.inkscape.org/namespaces/inkscape"
   xmlns:sodipodi="http://sodipodi.sourceforge.net/DTD/sodipodi-0.dtd"
   xmlns="http://www.w3.org/2000/svg"
   xmlns:svg="http://www.w3.org/2000/svg">
  <sodipodi:namedview
     id="namedview28351"
     pagecolor="#ffffff"
     bordercolor="#000000"
     borderopacity="0.25"
     inkscape:showpageshadow="2"
     inkscape:pageopacity="0.0"
     inkscape:pagecheckerboard="0"
     inkscape:deskcolor="#d1d1d1"
     inkscape:document-units="mm"
     showgrid="false"
     inkscape:zoom="0.84096521"
     inkscape:cx="113.55999"
     inkscape:cy="781.83972"
     inkscape:window-width="2560"
     inkscape:window-height="1494"
     inkscape:window-x="-11"
     inkscape:window-y="-11"
     inkscape:window-maximized="1"
     inkscape:current-layer="layer1" />
  <defs
     id="defs28346">
    <pattern
       id="EMFhbasepattern"
       patternUnits="userSpaceOnUse"
       width="6"
       height="6"
       x="0"
       y="0" />
  </defs>
  <g
     inkscape:label="Ebene 1"
     inkscape:groupmode="layer"
     id="layer1"
     transform="translate(-74.050522,-28.624662)">
    <path
       style="fill:#fefe00;fill-opacity:1;stroke:none;stroke-width:0.196541"
       d="M 74.050522,66.458891 V 28.624662 h 37.637698 37.63769 V 66.458891 104.29312 H 111.68822 74.050522 Z m 64.367338,0 V 39.532712 H 111.68822 84.958565 l -0.04981,26.976015 -0.04981,26.976016 26.779475,-0.04983 26.77948,-0.04983 z"
       id="path28426" />
    <path
       style="fill:#000000;stroke-width:0.205856"
       d="m 94.043241,188.52903 v -80.8608 l 16.381919,-0.0554 c 9.01006,-0.0306 16.54678,-0.022 16.74828,0.0188 0.34818,0.0706 0.36637,4.08705 0.36637,80.91623 v 80.84201 H 110.79153 94.043241 Z m 30.260269,79.3933 c 0.0551,-0.13916 0.0757,-4.92853 0.0458,-10.64307 l -0.0545,-10.39005 -12.81085,10.49126 c -7.04598,5.7702 -12.816282,10.55957 -12.822916,10.64308 -0.007,0.0835 5.737656,0.1518 12.765096,0.1518 10.02869,0 12.79869,-0.0543 12.87735,-0.25302 z m -13.04093,-40.00674 13.13693,-10.76833 v -11.95 -11.94999 l -0.51586,0.37111 c -0.28372,0.20412 -6.40389,5.19876 -13.60038,11.09922 l -13.084523,10.7281 -0.0079,12.0285 -0.0079,12.02849 0.471044,-0.40937 c 0.259076,-0.22517 6.382669,-5.25515 13.607989,-11.17773 z m 0.20935,-53.80604 12.92758,-10.61116 V 151.23054 138.9627 l -0.47104,0.41094 c -0.25908,0.22601 -6.38267,5.25538 -13.60799,11.17637 l -13.136941,10.76544 v 12.25607 12.25608 l 0.6804,-0.55345 c 0.374224,-0.30439 6.497811,-5.32845 13.607991,-11.1646 z m -1.25817,-53.15229 c 6.76587,-5.54428 12.30156,-10.12143 12.30156,-10.17143 0,-0.05 -5.69964,-0.0909 -12.66589,-0.0909 H 97.183539 v 10.44925 c 0,9.90083 0.01914,10.43468 0.364331,10.17147 0.200379,-0.15281 5.90003,-4.81405 12.66589,-10.35835 z M 83.575562,66.669165 V 39.039236 h 28.367418 28.3674 v 27.629929 27.629931 h -28.3674 -28.367418 z m 32.461948,22.284061 c 4.14991,-0.995793 7.82842,-2.993363 10.79606,-5.862666 7.4097,-7.164203 8.85164,-18.32521 3.49605,-27.060519 -3.40321,-5.550859 -9.40903,-9.494288 -16.01912,-10.518167 -2.30285,-0.356706 -7.14271,-0.15958 -9.21062,0.375143 -8.558634,2.213104 -14.793198,8.425098 -16.756034,16.695363 -0.564911,2.380232 -0.61596,7.166786 -0.09991,9.368469 2.215358,9.451627 9.847865,16.225338 19.721314,17.502297 2.069,0.267591 5.84939,0.03348 8.07226,-0.49992 z"
       id="path28366" />
    <path
       style="fill:#1e8eff;fill-opacity:1;stroke:none;stroke-width:21.3476"
       d="m 106.00469,89.619142 c -5.01628,-1.115868 -8.864747,-3.184941 -12.435346,-6.685701 -2.770657,-2.716462 -4.768198,-5.922745 -6.065778,-9.736278 -0.795813,-2.338865 -0.91349,-3.206379 -0.910836,-6.714675 0.0035,-4.6409 0.542497,-7.134588 2.331171,-10.785449 3.013612,-6.151094 9.267547,-11.130209 15.962239,-12.708455 3.19952,-0.754273 8.96296,-0.666917 12.02746,0.182298 4.21868,1.169059 7.5163,3.111979 10.77422,6.348063 4.72055,4.688906 6.64369,8.952342 6.9353,15.374906 0.10381,2.286488 0.0144,4.582754 -0.22591,5.804435 -1.4909,7.578102 -7.16138,14.429499 -14.41957,17.422532 -4.41761,1.821675 -9.8842,2.407862 -13.97295,1.498324 z"
       id="path29101" />
    <path
       style="fill:#0000ff;fill-opacity:1;stroke:none;stroke-width:11.2385"
       d=""
       id="path29103"
       transform="scale(0.26458333)" />
    <path
       style="fill:#ffffff;fill-opacity:1;stroke:none;stroke-width:31.7873"
       d="M 87.928177,384.61521 C 87.778634,382.84612 87.65628,365.44098 87.65628,345.93714 V 310.4756 h 47.29655 c 26.01311,0 47.2839,0.14189 47.26844,0.31531 -0.0337,0.37775 -1.19022,1.35071 -21.41299,18.01424 -29.13746,24.00922 -72.046113,59.02659 -72.328425,59.02659 -0.153879,0 -0.402135,-1.44743 -0.551678,-3.21653 z"
       id="path38599"
       transform="matrix(0.26458333,0,0,0.26458333,74.050522,28.624662)" />
    <path
       style="fill:#ffffff;fill-opacity:1;stroke:none;stroke-width:31.7873"
       d="m 87.678527,547.53517 0.02225,-45.98149 17.500403,-14.29407 c 9.62522,-7.86174 32.45945,-26.56789 50.74272,-41.56922 18.28327,-15.00133 33.4788,-27.46349 33.76783,-27.69368 0.41978,-0.33432 0.5237,8.83388 0.51644,45.56315 l -0.009,45.98168 -50.45665,41.41076 c -27.75116,22.77592 -50.827788,41.67032 -51.281406,41.98756 -0.817934,0.57202 -0.824576,0.19618 -0.802514,-45.40469 z"
       id="path38601"
       transform="matrix(0.26458333,0,0,0.26458333,74.050522,28.624662)" />
    <path
       style="fill:#ffffff;fill-opacity:1;stroke:none;stroke-width:31.7873"
       d="m 87.656575,751.36553 2.95e-4,-45.07032 36.42412,-29.84938 c 51.48465,-42.19141 65.48024,-53.58368 65.84095,-53.59386 0.17342,-0.005 0.31531,20.10847 0.31531,44.69638 v 44.70527 l -15.86786,12.99652 c -8.72733,7.14809 -31.80804,26.08908 -51.29049,42.09111 l -35.42262,29.09459 z"
       id="path38603"
       transform="matrix(0.26458333,0,0,0.26458333,74.050522,28.624662)" />
    <path
       style="fill:#ffffff;fill-opacity:1;stroke:none;stroke-width:31.7873"
       d="m 109.20249,905.07953 c -8.382,-0.0821 -15.240002,-0.30528 -15.240002,-0.49593 0,-0.54443 15.929042,-13.76539 62.851862,-52.16649 17.34207,-14.19255 31.86212,-26.0882 32.26676,-26.43477 0.69995,-0.59948 0.73573,1.29229 0.73573,38.89604 v 39.52618 l -2.20718,0.25589 c -2.78076,0.32239 -58.09551,0.61805 -78.40717,0.41908 z"
       id="path38605"
       transform="matrix(0.26458333,0,0,0.26458333,74.050522,28.624662)" />
  </g>
</svg>
