<?xml version="1.0" encoding="UTF-8" standalone="no"?>
<!DOCTYPE svg PUBLIC "-//W3C//DTD SVG 1.1//EN" "http://www.w3.org/Graphics/SVG/1.1/DTD/svg11.dtd">
<svg width="100%" height="100%" viewBox="0 0 50 50" version="1.1" xmlns="http://www.w3.org/2000/svg" xmlns:xlink="http://www.w3.org/1999/xlink" xml:space="preserve" xmlns:serif="http://www.serif.com/" style="fill-rule:evenodd;clip-rule:evenodd;stroke-linecap:square;">
    <g id="path2820" transform="matrix(1.08815,0.00496151,-0.0049622,1.0883,22.8608,0.324858)">
        <path d="M24.351,41.044L-20.22,41.044L2.066,2.445L24.351,41.044Z" style="fill:white;fill-rule:nonzero;stroke:black;stroke-width:0.46px;"/>
    </g>
    <g id="path2820-1" transform="matrix(0.878582,0.00672443,-0.00672536,0.878705,23.3306,5.96578)">
        <path d="M25.061,41.454L-20.93,41.454L2.066,1.625L25.061,41.454Z" style="fill:rgb(255,217,0);fill-rule:nonzero;"/>
    </g>
    <g id="path2817" transform="matrix(1,0,0,1,0,12)">
        <path d="M22.63,14.718L18.032,13.894C18.414,12.429 19.149,11.306 20.235,10.526C21.322,9.746 22.861,9.356 24.851,9.356C27.136,9.356 28.789,9.782 29.808,10.633C30.827,11.485 31.336,12.556 31.336,13.846C31.336,14.603 31.129,15.287 30.715,15.9C30.301,16.513 29.676,17.051 28.84,17.513C29.517,17.68 30.035,17.875 30.393,18.098C30.974,18.456 31.426,18.928 31.748,19.513C32.071,20.098 32.232,20.797 32.232,21.609C32.232,22.628 31.965,23.605 31.432,24.541C30.898,25.477 30.13,26.197 29.127,26.703C28.124,27.208 26.806,27.461 25.174,27.461C23.581,27.461 22.325,27.274 21.406,26.9C20.486,26.526 19.73,25.978 19.137,25.258C18.544,24.537 18.088,23.631 17.769,22.541L22.63,21.896C22.821,22.875 23.118,23.554 23.52,23.932C23.922,24.31 24.433,24.499 25.054,24.499C25.707,24.499 26.251,24.26 26.685,23.783C27.119,23.305 27.335,22.668 27.335,21.872C27.335,21.06 27.126,20.431 26.708,19.985C26.29,19.539 25.723,19.316 25.007,19.316C24.624,19.316 24.099,19.412 23.43,19.603L23.681,16.127C23.952,16.167 24.163,16.187 24.314,16.187C24.951,16.187 25.482,15.984 25.908,15.578C26.334,15.172 26.547,14.69 26.547,14.133C26.547,13.599 26.388,13.173 26.07,12.855C25.751,12.536 25.313,12.377 24.756,12.377C24.183,12.377 23.717,12.55 23.359,12.897C23,13.243 22.757,13.85 22.63,14.718L22.63,14.718Z" style="fill-rule:nonzero;"/>
    </g>
</svg>
