<?xml version="1.0" encoding="UTF-8" standalone="no"?>
<svg
   xmlns="http://www.w3.org/2000/svg"
   style="clip-rule:evenodd;fill-rule:evenodd;stroke-linecap:square"
   version="1.1"
   viewBox="0 0 49.366928 42.758221"
   height="42.758221"
   width="49.366928">
   <g
   transform="matrix(1.08815,0.00496151,-0.0049622,1.0883,22.641276,-2.1705239)"
   id="path2820">
        <path
   style="fill:#ffffff;fill-rule:nonzero;stroke:#000000;stroke-width:0.46000001px"
   d="M 24.350537,40.942404 -20.219537,41.145596 2.066,2.445 Z" />
    </g>
    <g
   transform="matrix(0.878582,0.00672443,-0.00672536,0.878705,23.111076,3.4703981)">
        <path
   style="fill:#ffd900;fill-rule:nonzero"
   d="M 25.061,41.454 H -20.93 L 2.066,1.625 Z" />
    </g>
    <g
   transform="translate(-0.21952326,9.5046181)"
   >
        <path
   style="fill-rule:nonzero"
   d="m 22.63,14.718 -4.598,-0.824 c 0.382,-1.465 1.117,-2.588 2.203,-3.368 1.087,-0.78 2.626,-1.17 4.616,-1.17 2.285,0 3.938,0.426 4.957,1.277 1.019,0.852 1.528,1.923 1.528,3.213 0,0.757 -0.207,1.441 -0.621,2.054 -0.414,0.613 -1.039,1.151 -1.875,1.613 0.677,0.167 1.195,0.362 1.553,0.585 0.581,0.358 1.033,0.83 1.355,1.415 0.323,0.585 0.484,1.284 0.484,2.096 0,1.019 -0.267,1.996 -0.8,2.932 -0.534,0.936 -1.302,1.656 -2.305,2.162 -1.003,0.505 -2.321,0.758 -3.953,0.758 -1.593,0 -2.849,-0.187 -3.768,-0.561 -0.92,-0.374 -1.676,-0.922 -2.269,-1.642 -0.593,-0.721 -1.049,-1.627 -1.368,-2.717 l 4.861,-0.645 c 0.191,0.979 0.488,1.658 0.89,2.036 0.402,0.378 0.913,0.567 1.534,0.567 0.653,0 1.197,-0.239 1.631,-0.716 0.434,-0.478 0.65,-1.115 0.65,-1.911 0,-0.812 -0.209,-1.441 -0.627,-1.887 -0.418,-0.446 -0.985,-0.669 -1.701,-0.669 -0.383,0 -0.908,0.096 -1.577,0.287 l 0.251,-3.476 c 0.271,0.04 0.482,0.06 0.633,0.06 0.637,0 1.168,-0.203 1.594,-0.609 0.426,-0.406 0.639,-0.888 0.639,-1.445 0,-0.534 -0.159,-0.96 -0.477,-1.278 -0.319,-0.319 -0.757,-0.478 -1.314,-0.478 -0.573,0 -1.039,0.173 -1.397,0.52 C 23,13.243 22.757,13.85 22.63,14.718 Z" />
    </g>
</svg>
