<?xml version="1.0" encoding="UTF-8" standalone="no"?>
<!DOCTYPE svg PUBLIC "-//W3C//DTD SVG 1.1//EN" "http://www.w3.org/Graphics/SVG/1.1/DTD/svg11.dtd">
<svg width="100%" height="100%" viewBox="0 0 84 250" version="1.1" xmlns="http://www.w3.org/2000/svg" xmlns:xlink="http://www.w3.org/1999/xlink" xml:space="preserve" xmlns:serif="http://www.serif.com/" style="fill-rule:evenodd;clip-rule:evenodd;">
    <g transform="matrix(4.16667,0,0,4.16667,0,0)">
        <g id="Ebene-1" serif:id="Ebene 1">
            <g id="g3246">
                <rect id="rect2383" x="0" y="0" width="20" height="60" style="fill:rgb(140,140,140);"/>
                <g id="g3241">
                    <g id="path3159" transform="matrix(1.0172,0,0,1.0172,0.944954,1.40862)">
                        <path d="M15.784,9.428L15.784,9.431C15.784,13.206 12.677,16.312 8.902,16.312C5.127,16.312 2.02,13.206 2.02,9.431L2.02,9.428C2.02,5.653 5.127,2.546 8.902,2.546C12.677,2.546 15.784,5.653 15.784,9.428Z" style="fill:rgb(255,255,0);fill-rule:nonzero;stroke:black;stroke-width:0.98px;"/>
                    </g>
                    <g id="path3157" transform="matrix(1.0172,0,0,1.0172,0.944955,39.4086)">
                        <path d="M15.784,9.428L15.784,9.431C15.784,13.206 12.677,16.312 8.902,16.312C5.127,16.312 2.02,13.206 2.02,9.431L2.02,9.428C2.02,5.653 5.127,2.546 8.902,2.546C12.677,2.546 15.784,5.653 15.784,9.428Z" style="fill:rgb(255,0,0);fill-rule:nonzero;stroke:black;stroke-width:0.98px;"/>
                    </g>
                    <g id="path31571" serif:id="path3157" transform="matrix(1.0172,0,0,1.0172,0.944955,20.4086)">
                        <path d="M15.784,9.428L15.784,9.431C15.784,13.206 12.677,16.312 8.902,16.312C5.127,16.312 2.02,13.206 2.02,9.431L2.02,9.428C2.02,5.653 5.127,2.546 8.902,2.546C12.677,2.546 15.784,5.653 15.784,9.428Z" style="fill:rgb(255,0,0);fill-rule:nonzero;stroke:black;stroke-width:0.98px;"/>
                    </g>
                </g>
            </g>
        </g>
    </g>
</svg>
