<?xml version="1.0" encoding="UTF-8" standalone="no"?>
<!-- Created with Inkscape (http://www.inkscape.org/) -->

<svg
   xmlns:sketch="http://www.bohemiancoding.com/sketch/ns"
   xmlns:dc="http://purl.org/dc/elements/1.1/"
   xmlns:cc="http://creativecommons.org/ns#"
   xmlns:rdf="http://www.w3.org/1999/02/22-rdf-syntax-ns#"
   xmlns:svg="http://www.w3.org/2000/svg"
   xmlns="http://www.w3.org/2000/svg"
   xmlns:sodipodi="http://sodipodi.sourceforge.net/DTD/sodipodi-0.dtd"
   xmlns:inkscape="http://www.inkscape.org/namespaces/inkscape"
   width="310.48099"
   height="265.08105"
   id="svg2"
   version="1.1"
   inkscape:version="0.91 r13725"
   sodipodi:docname="G1a_30_Tafel.svg">
  <defs
     id="defs4" />
  <sodipodi:namedview
     id="base"
     pagecolor="#ffffff"
     bordercolor="#666666"
     borderopacity="1.0"
     inkscape:pageopacity="0.0"
     inkscape:pageshadow="2"
     inkscape:zoom="2.0000001"
     inkscape:cx="143.69761"
     inkscape:cy="141.75199"
     inkscape:document-units="px"
     inkscape:current-layer="layer5"
     showgrid="false"
     inkscape:window-width="1366"
     inkscape:window-height="719"
     inkscape:window-x="0"
     inkscape:window-y="25"
     inkscape:window-maximized="1"
     fit-margin-top="0"
     fit-margin-left="0"
     fit-margin-right="0"
     fit-margin-bottom="0" />
  <metadata
     id="metadata7">
    <rdf:RDF>
      <cc:Work
         rdf:about="">
        <dc:format>image/svg+xml</dc:format>
        <dc:type
           rdf:resource="http://purl.org/dc/dcmitype/StillImage" />
        <dc:title></dc:title>
      </cc:Work>
    </rdf:RDF>
  </metadata>
  <g
     inkscape:groupmode="layer"
     id="layer5"
     inkscape:label="schwarz"
     transform="translate(125.95901,127.22699)"
     style="display:inline">
    <g
       id="layer6-4"
       transform="translate(-13.230861,-88.639987)"
       sketch:type="MSShapeGroup"
       style="display:inline;fill:#000000;fill-opacity:1;stroke:none">
      <g
         id="g3807"
         transform="translate(0.011049,-0.403379)"
         style="fill:#000000;fill-opacity:1" />
    </g>
    <path
       style="color:#000000;display:inline;overflow:visible;visibility:visible;fill:#ffd815;fill-opacity:1;stroke:#ffffff;stroke-width:22.5;stroke-linecap:butt;stroke-linejoin:miter;stroke-miterlimit:4;stroke-dasharray:none;stroke-dashoffset:0;stroke-opacity:1;marker:none;enable-background:accumulate"
       d="m 164.71407,-115.14485 c -92.97297,0.15888 -183.93483,-0.52324 -271.32231,-0.7761 43.144255,76.030979 90.919819,155.358097 134.06409,231.38904 z"
       id="path3047"
       inkscape:connector-curvature="0"
       sodipodi:nodetypes="cccc" />
    <path
       sodipodi:nodetypes="cccc"
       inkscape:connector-curvature="0"
       id="path4925"
       d="m 165.40312,-115.7389 c -93.445483,0.1597 -184.86963,-0.5259 -272.70123,-0.78004 43.363522,76.41738 91.381892,156.147655 134.74543,232.56501 z"
       style="color:#000000;display:inline;overflow:visible;visibility:visible;fill:none;fill-opacity:1;stroke:#000000;stroke-width:8.040658;stroke-linecap:butt;stroke-linejoin:miter;stroke-miterlimit:4;stroke-dasharray:none;stroke-dashoffset:0;stroke-opacity:1;marker:none;enable-background:accumulate" />
    <path
       inkscape:connector-curvature="0"
       style="display:inline;fill:#000000;fill-opacity:1;stroke:none;stroke-opacity:0.3920455"
       d="m 25.728826,-95.702687 c -18.7565613,0.007 -34.3634632,13.674211 -35.865426,31.406823 l 18.1702131,0 c 1.5402749,-7.944264 8.8739209,-13.965608 17.6952129,-13.965608 9.940071,0 17.998008,7.643294 17.998008,17.070992 0,11.435164 -8.273531,18.152283 -17.932,18.183128 l -0.0013,0 -8.115031,-0.01013 0,0.0115 0,14.664457 0,0.01125 8.116469,-0.01 c 4.75e-4,0 7.37e-4,0 0.0012,0 9.657844,0.03151 17.930562,6.748524 17.930562,18.18313 0,9.42769549 -8.057937,17.0709895 -17.998008,17.0709895 -8.821292,0 -16.154938,-6.02134321 -17.6952129,-13.9656078 l -18.1702131,0 C -8.6347372,10.680837 6.9721647,24.347575 25.728726,24.355065 45.608742,24.354977 61.724655,9.0698018 61.724743,-9.7854783 61.724693,-20.451478 56.586729,-29.671671 48.526866,-35.674657 56.586692,-41.677642 61.724693,-50.896428 61.724743,-61.562396 61.724655,-80.41766 45.608742,-95.702843 25.728726,-95.702933 Z"
       id="path4286" />
  </g>
</svg>
