<?xml version="1.0" encoding="UTF-8" standalone="no"?>
<!-- Created with Inkscape (http://www.inkscape.org/) -->

<svg
   xmlns:sketch="http://www.bohemiancoding.com/sketch/ns"
   xmlns:dc="http://purl.org/dc/elements/1.1/"
   xmlns:cc="http://creativecommons.org/ns#"
   xmlns:rdf="http://www.w3.org/1999/02/22-rdf-syntax-ns#"
   xmlns:svg="http://www.w3.org/2000/svg"
   xmlns="http://www.w3.org/2000/svg"
   xmlns:sodipodi="http://sodipodi.sourceforge.net/DTD/sodipodi-0.dtd"
   xmlns:inkscape="http://www.inkscape.org/namespaces/inkscape"
   width="310.48099"
   height="265.08105"
   id="svg2"
   version="1.1"
   inkscape:version="0.48.4 r9939"
   sodipodi:docname="g1a-60.svg"
   inkscape:export-xdpi="12.75"
   inkscape:export-ydpi="12.75">
  <defs
     id="defs4" />
  <sodipodi:namedview
     id="base"
     pagecolor="#ffffff"
     bordercolor="#666666"
     borderopacity="1.0"
     inkscape:pageopacity="0.0"
     inkscape:pageshadow="2"
     inkscape:zoom="0.35355339"
     inkscape:cx="8.9916854"
     inkscape:cy="307.66733"
     inkscape:document-units="px"
     inkscape:current-layer="layer5"
     showgrid="false"
     inkscape:window-width="683"
     inkscape:window-height="716"
     inkscape:window-x="0"
     inkscape:window-y="24"
     inkscape:window-maximized="0"
     fit-margin-top="0"
     fit-margin-left="0"
     fit-margin-right="0"
     fit-margin-bottom="0" />
  <metadata
     id="metadata7">
    <rdf:RDF>
      <cc:Work
         rdf:about="">
        <dc:format>image/svg+xml</dc:format>
        <dc:type
           rdf:resource="http://purl.org/dc/dcmitype/StillImage" />
        <dc:title></dc:title>
      </cc:Work>
    </rdf:RDF>
  </metadata>
  <g
     inkscape:groupmode="layer"
     id="layer5"
     inkscape:label="schwarz"
     transform="translate(125.95901,127.22699)"
     style="display:inline">
    <g
       id="layer6-4"
       transform="translate(-13.230861,-88.639987)"
       sketch:type="MSShapeGroup"
       style="display:inline;fill:#000000;fill-opacity:1;stroke:none">
      <g
         id="g3807"
         transform="translate(0.011049,-0.403379)"
         style="fill:#000000;fill-opacity:1" />
    </g>
    <path
       style="color:#000000;display:inline;overflow:visible;visibility:visible;fill:#ffd815;fill-opacity:1;stroke:#ffffff;stroke-width:22.5;stroke-linecap:butt;stroke-linejoin:miter;stroke-miterlimit:4;stroke-dasharray:none;stroke-dashoffset:0;stroke-opacity:1;marker:none;enable-background:accumulate"
       d="m 164.71407,-115.14485 c -92.97297,0.15888 -183.93483,-0.52324 -271.32231,-0.7761 43.144255,76.030979 90.919819,155.358097 134.06409,231.38904 z"
       id="path3047"
       inkscape:connector-curvature="0"
       sodipodi:nodetypes="cccc" />
    <path
       sodipodi:nodetypes="cccc"
       inkscape:connector-curvature="0"
       id="path4925"
       d="m 165.40312,-115.7389 c -93.445483,0.1597 -184.86963,-0.5259 -272.70123,-0.78004 43.363522,76.41738 91.381892,156.147655 134.74543,232.56501 z"
       style="color:#000000;display:inline;overflow:visible;visibility:visible;fill:none;fill-opacity:1;stroke:#000000;stroke-width:8.040658;stroke-linecap:butt;stroke-linejoin:miter;stroke-miterlimit:4;stroke-dasharray:none;stroke-dashoffset:0;stroke-opacity:1;marker:none;enable-background:accumulate" />
    <path
       inkscape:connector-curvature="0"
       d="M 28.530523,-84.64594 C 14.526872,-84.645105 0.54099,-71.38048 0.54099,-58.73386 l 0,68.028659 c 0,8.543934 8.3836101,22.059261 27.484461,22.059261 15.488638,0 27.505393,-12.596532 27.505393,-22.059261 l 0,-32.352333 c 0,-22.893718 -26.943413,-23.432785 -36.407335,-20.151737 l 0,-17.09215 c 0,-9.157499 20.750074,-8.852244 20.750074,0 l 16.667407,0 c 0,-11.083299 -14.006949,-24.345871 -28.010467,-24.344519 z m -1.03122,57.017914 c 4.772738,-0.198944 9.848925,2.009963 9.848925,6.459131 l 0,26.3275763 c 0,11.5869307 -18.035351,12.3217867 -18.035351,0 l 0,-26.5542103 c 0,-4.015762 3.975195,-6.056961 8.186426,-6.232497 z"
       id="path4637"
       style="color:#000000;fill:#000000;fill-opacity:1;stroke:none;stroke-width:1px;marker:none;visibility:visible;display:inline;overflow:visible;enable-background:accumulate" />
  </g>
</svg>
