<?xml version="1.0" encoding="UTF-8" standalone="no"?>
<!-- Created with Inkscape (http://www.inkscape.org/) -->

<svg
   xmlns:sketch="http://www.bohemiancoding.com/sketch/ns"
   xmlns:dc="http://purl.org/dc/elements/1.1/"
   xmlns:cc="http://creativecommons.org/ns#"
   xmlns:rdf="http://www.w3.org/1999/02/22-rdf-syntax-ns#"
   xmlns:svg="http://www.w3.org/2000/svg"
   xmlns="http://www.w3.org/2000/svg"
   xmlns:sodipodi="http://sodipodi.sourceforge.net/DTD/sodipodi-0.dtd"
   xmlns:inkscape="http://www.inkscape.org/namespaces/inkscape"
   width="310.48099"
   height="265.08105"
   id="svg2"
   version="1.1"
   inkscape:version="0.91 r13725"
   sodipodi:docname="G1a_35_Tafel.svg">
  <defs
     id="defs4" />
  <sodipodi:namedview
     id="base"
     pagecolor="#ffffff"
     bordercolor="#666666"
     borderopacity="1.0"
     inkscape:pageopacity="0.0"
     inkscape:pageshadow="2"
     inkscape:zoom="1"
     inkscape:cx="-172.93717"
     inkscape:cy="142.29224"
     inkscape:document-units="px"
     inkscape:current-layer="layer5"
     showgrid="false"
     inkscape:window-width="1920"
     inkscape:window-height="1031"
     inkscape:window-x="0"
     inkscape:window-y="25"
     inkscape:window-maximized="1"
     fit-margin-top="0"
     fit-margin-left="0"
     fit-margin-right="0"
     fit-margin-bottom="0" />
  <metadata
     id="metadata7">
    <rdf:RDF>
      <cc:Work
         rdf:about="">
        <dc:format>image/svg+xml</dc:format>
        <dc:type
           rdf:resource="http://purl.org/dc/dcmitype/StillImage" />
        <dc:title></dc:title>
      </cc:Work>
    </rdf:RDF>
  </metadata>
  <g
     inkscape:groupmode="layer"
     id="layer5"
     inkscape:label="schwarz"
     transform="translate(125.95901,127.22699)"
     style="display:inline">
    <g
       id="layer6-4"
       transform="translate(-13.230861,-88.639987)"
       sketch:type="MSShapeGroup"
       style="display:inline;fill:#000000;fill-opacity:1;stroke:none">
      <g
         id="g3807"
         transform="translate(0.011049,-0.403379)"
         style="fill:#000000;fill-opacity:1" />
    </g>
    <path
       style="color:#000000;display:inline;overflow:visible;visibility:visible;fill:#ffd815;fill-opacity:1;stroke:#ffffff;stroke-width:22.5;stroke-linecap:butt;stroke-linejoin:miter;stroke-miterlimit:4;stroke-dasharray:none;stroke-dashoffset:0;stroke-opacity:1;marker:none;enable-background:accumulate"
       d="m 164.71407,-115.14485 c -92.97297,0.15888 -183.93483,-0.52324 -271.32231,-0.7761 43.144255,76.030979 90.919819,155.358097 134.06409,231.38904 z"
       id="path3047"
       inkscape:connector-curvature="0"
       sodipodi:nodetypes="cccc" />
    <path
       sodipodi:nodetypes="cccc"
       inkscape:connector-curvature="0"
       id="path4925"
       d="m 165.40312,-115.7389 c -93.445483,0.1597 -184.86963,-0.5259 -272.70123,-0.78004 43.363522,76.41738 91.381892,156.147655 134.74543,232.56501 z"
       style="color:#000000;display:inline;overflow:visible;visibility:visible;fill:none;fill-opacity:1;stroke:#000000;stroke-width:8.040658;stroke-linecap:butt;stroke-linejoin:miter;stroke-miterlimit:4;stroke-dasharray:none;stroke-dashoffset:0;stroke-opacity:1;marker:none;enable-background:accumulate" />
    <path
       style="display:inline;fill:#000000;fill-opacity:1;stroke:#ffffff;stroke-width:0;stroke-miterlimit:4;stroke-dasharray:none;stroke-opacity:0.41389729"
       d="m 55.204604,-94.031159 0,0.05323 -0.009,0 0,6.706496 0.009,0 0,20.851352 7.959471,-0.125 c 0,-2.145297 3.416778,-3.404827 7.321065,-3.411619 3.904287,-0.0068 6.669415,3.793637 6.669415,5.756187 l -0.06343,8.089899 c 0,3.141295 -4.30084,5.707789 -7.149535,5.709794 -2.852168,-0.0018 -6.955026,-1.969236 -6.955026,-5.721876 l -7.770537,0 c 0,6.709478 6.832538,12.84371 14.850563,12.846011 6.607435,-0.0015 14.098757,-4.63786 14.098757,-10.317649 -0.01203,-4.478734 0.03742,-8.957738 -0.0067,-13.436328 -0.11423,-5.842344 -7.852994,-9.957165 -12.116172,-10.05319 -2.314785,0.0015 -7.169888,0.678051 -8.878301,2.223235 l 0,-12.410816 20.744473,0 0,-6.706496 -22.131099,0 0,-0.05323 -6.572846,0 z"
       id="rect4407"
       inkscape:connector-curvature="0"
       sodipodi:nodetypes="ccccccczccccccccccccccccc" />
    <path
       inkscape:connector-curvature="0"
       style="display:inline;fill:#000000;fill-opacity:1;stroke:none;stroke-opacity:0.3920455"
       d="m 18.546659,-77.317828 c -15.0005002,0.006 -27.4820702,10.935911 -28.68326,25.11751 l 14.5315698,0 c 1.23183,-6.353397 7.0968902,-11.16895 14.1516902,-11.16895 7.94954,0 14.39385,6.112699 14.39385,13.65247 0,9.145236 -6.61673,14.517231 -14.34106,14.541899 l -0.001,0 -6.48997,-0.0081 0,0.0092 0,11.727853 0,0.009 6.49112,-0.008 c 3.8e-4,0 5.9e-4,0 10e-4,0 7.72383,0.0252 14.33991,5.39711 14.33991,14.5419003 0,7.5397695 -6.44431,13.6524695 -14.39385,13.6524695 -7.0548,0 -12.9198602,-4.81554997 -14.1516902,-11.16895 l -14.5315698,0 c 1.2011898,14.18159 13.6827598,25.1115202 28.68326,25.1175102 15.89898,-7e-5 28.78763,-12.2243402 28.7877,-27.3037902 -4e-5,-8.5300998 -4.10911,-15.9039198 -10.55496,-20.7047888 6.44582,-4.800868 10.55492,-12.173563 10.55496,-20.703637 -7e-5,-15.079439 -12.88872,-27.303722 -28.7877,-27.303787 z"
       id="path4286" />
  </g>
</svg>
