<?xml version="1.0" encoding="UTF-8" standalone="no"?>
<!-- Created with Inkscape (http://www.inkscape.org/) -->

<svg
   xmlns:dc="http://purl.org/dc/elements/1.1/"
   xmlns:cc="http://creativecommons.org/ns#"
   xmlns:rdf="http://www.w3.org/1999/02/22-rdf-syntax-ns#"
   xmlns:svg="http://www.w3.org/2000/svg"
   xmlns="http://www.w3.org/2000/svg"
   xmlns:sodipodi="http://sodipodi.sourceforge.net/DTD/sodipodi-0.dtd"
   xmlns:inkscape="http://www.inkscape.org/namespaces/inkscape"
   width="156.77524"
   height="230.75842"
   id="svg2"
   version="1.1"
   inkscape:version="0.48.4 r9939"
   sodipodi:docname="g2a-60.svg"
   inkscape:export-xdpi="12.480584"
   inkscape:export-ydpi="12.480584">
  <defs
     id="defs4" />
  <sodipodi:namedview
     id="base"
     pagecolor="#ffffff"
     bordercolor="#666666"
     borderopacity="1.0"
     inkscape:pageopacity="0.0"
     inkscape:pageshadow="2"
     inkscape:zoom="1"
     inkscape:cx="37.932063"
     inkscape:cy="109.23979"
     inkscape:document-units="px"
     inkscape:current-layer="layer5"
     showgrid="false"
     inkscape:window-width="683"
     inkscape:window-height="716"
     inkscape:window-x="683"
     inkscape:window-y="24"
     inkscape:window-maximized="0"
     fit-margin-top="0"
     fit-margin-left="0"
     fit-margin-right="0"
     fit-margin-bottom="0" />
  <metadata
     id="metadata7">
    <rdf:RDF>
      <cc:Work
         rdf:about="">
        <dc:format>image/svg+xml</dc:format>
        <dc:type
           rdf:resource="http://purl.org/dc/dcmitype/StillImage" />
        <dc:title></dc:title>
      </cc:Work>
    </rdf:RDF>
  </metadata>
  <g
     inkscape:groupmode="layer"
     id="layer5"
     inkscape:label="schwarz"
     transform="translate(42.927212,104.99011)"
     style="display:inline">
    <rect
       style="fill:#ffd815;fill-opacity:1;stroke:#ffffff;stroke-width:16;stroke-linecap:round;stroke-linejoin:round;stroke-miterlimit:4;stroke-dasharray:none;stroke-opacity:1"
       id="rect4663"
       width="140.77524"
       height="214.75842"
       x="-34.927212"
       y="-96.990112" />
    <path
       inkscape:connector-curvature="0"
       d="m 34.841258,-58.990089 c -17.75463,10e-4 -35.4867304,15.895681 -35.4867304,31.049818 l 0,81.517102 c 0,10.23799 10.62922,26.43308 34.8463704,26.43308 19.63738,0 34.87291,-15.09412 34.87291,-26.43308 l 0,-38.76702 c 0,-27.432993 -34.1604,-28.078946 -46.1593,-24.1473472 l 0,-20.4811118 c 0,-10.973199 26.30813,-10.607423 26.30813,0 l 21.13189,0 c 0,-13.280837 -17.75881,-29.173061 -35.51327,-29.171441 z m -1.30744,68.3231846 c 6.05115,-0.238391 12.48703,2.4084884 12.48703,7.7398224 l 0,31.547703 c 0,13.88434 -22.86625,14.7649 -22.86625,0 l 0,-31.819276 c 0,-4.811985 5.03998,-7.2579074 10.37922,-7.4682494 z"
       id="path4637"
       style="color:#000000;fill:#000000;fill-opacity:1;stroke:none;stroke-width:1px;marker:none;visibility:visible;display:inline;overflow:visible;enable-background:accumulate" />
  </g>
</svg>
