<?xml version="1.0" encoding="UTF-8" standalone="no"?>
<!-- Created with Inkscape (http://www.inkscape.org/) -->

<svg
   xmlns:dc="http://purl.org/dc/elements/1.1/"
   xmlns:cc="http://creativecommons.org/ns#"
   xmlns:rdf="http://www.w3.org/1999/02/22-rdf-syntax-ns#"
   xmlns:svg="http://www.w3.org/2000/svg"
   xmlns="http://www.w3.org/2000/svg"
   xmlns:sodipodi="http://sodipodi.sourceforge.net/DTD/sodipodi-0.dtd"
   xmlns:inkscape="http://www.inkscape.org/namespaces/inkscape"
   width="156.77524"
   height="230.75842"
   id="svg2"
   version="1.1"
   inkscape:version="0.91 r13725"
   sodipodi:docname="G2a_30_Tafel.svg">
  <defs
     id="defs4" />
  <sodipodi:namedview
     id="base"
     pagecolor="#ffffff"
     bordercolor="#666666"
     borderopacity="1.0"
     inkscape:pageopacity="0.0"
     inkscape:pageshadow="2"
     inkscape:zoom="1.4142136"
     inkscape:cx="3.1828426"
     inkscape:cy="104.75848"
     inkscape:document-units="px"
     inkscape:current-layer="layer5"
     showgrid="false"
     inkscape:window-width="1920"
     inkscape:window-height="1031"
     inkscape:window-x="0"
     inkscape:window-y="25"
     inkscape:window-maximized="1"
     fit-margin-top="0"
     fit-margin-left="0"
     fit-margin-right="0"
     fit-margin-bottom="0" />
  <metadata
     id="metadata7">
    <rdf:RDF>
      <cc:Work
         rdf:about="">
        <dc:format>image/svg+xml</dc:format>
        <dc:type
           rdf:resource="http://purl.org/dc/dcmitype/StillImage" />
        <dc:title></dc:title>
      </cc:Work>
    </rdf:RDF>
  </metadata>
  <g
     inkscape:groupmode="layer"
     id="layer5"
     inkscape:label="schwarz"
     transform="translate(42.927212,104.99011)"
     style="display:inline">
    <rect
       style="fill:#ffd815;fill-opacity:1;stroke:#ffffff;stroke-width:16;stroke-linecap:round;stroke-linejoin:round;stroke-miterlimit:4;stroke-dasharray:none;stroke-opacity:1"
       id="rect4663"
       width="140.77524"
       height="214.75842"
       x="-34.927212"
       y="-97.768845" />
    <path
       inkscape:connector-curvature="0"
       style="display:inline;fill:#000000;fill-opacity:1;stroke:none;stroke-opacity:0.3920455"
       d="m 35.371538,-72.091676 c -25.5285314,0.0102 -46.770217,18.611221 -48.814453,42.746096 l 24.730469,0 c 2.096397,-10.812495 12.077804,-19.007813 24.083984,-19.007813 13.528877,10e-7 24.496092,10.40286 24.496092,23.234377 0,15.5637703 -11.260649,24.70607027 -24.406248,24.74805027 l -0.002,0 -11.044922,-0.0137 0,0.0156 0,19.95897973 0,0.0156 11.046875,-0.0137 c 6.53e-4,0 0.0013,-10e-6 0.002,0 13.144757,0.0429 24.404295,9.185043 24.404295,24.748043 0,12.831519 -10.967215,23.234379 -24.496092,23.234379 -12.00618,0 -21.987587,-8.19532 -24.083984,-19.00781 l -24.730469,0 c 2.044236,24.13487 23.2859216,42.7359 48.814453,42.74609 C 62.42912,91.312406 84.3636,70.508586 84.36373,44.845716 84.36366,30.328817 77.37065,17.779724 66.40083,9.6093843 77.3706,1.4390543 84.36366,-11.108126 84.36373,-25.624986 84.3636,-51.28785 62.42912,-72.091676 35.371538,-72.091786 Z"
       id="path4286" />
  </g>
</svg>
