<?xml version="1.0" encoding="UTF-8" standalone="no"?>
<!-- Created with Inkscape (http://www.inkscape.org/) -->

<svg
   xmlns:dc="http://purl.org/dc/elements/1.1/"
   xmlns:cc="http://creativecommons.org/ns#"
   xmlns:rdf="http://www.w3.org/1999/02/22-rdf-syntax-ns#"
   xmlns:svg="http://www.w3.org/2000/svg"
   xmlns="http://www.w3.org/2000/svg"
   xmlns:sodipodi="http://sodipodi.sourceforge.net/DTD/sodipodi-0.dtd"
   xmlns:inkscape="http://www.inkscape.org/namespaces/inkscape"
   width="156.77524"
   height="230.75842"
   id="svg2"
   version="1.1"
   inkscape:version="0.91 r13725"
   sodipodi:docname="G2a_50,_Tafel.svg">
  <defs
     id="defs4" />
  <sodipodi:namedview
     id="base"
     pagecolor="#ffffff"
     bordercolor="#666666"
     borderopacity="1.0"
     inkscape:pageopacity="0.0"
     inkscape:pageshadow="2"
     inkscape:zoom="1.4142136"
     inkscape:cx="3.1828426"
     inkscape:cy="104.75848"
     inkscape:document-units="px"
     inkscape:current-layer="layer5"
     showgrid="false"
     inkscape:window-width="1920"
     inkscape:window-height="1031"
     inkscape:window-x="0"
     inkscape:window-y="25"
     inkscape:window-maximized="1"
     fit-margin-top="0"
     fit-margin-left="0"
     fit-margin-right="0"
     fit-margin-bottom="0" />
  <metadata
     id="metadata7">
    <rdf:RDF>
      <cc:Work
         rdf:about="">
        <dc:format>image/svg+xml</dc:format>
        <dc:type
           rdf:resource="http://purl.org/dc/dcmitype/StillImage" />
        <dc:title></dc:title>
      </cc:Work>
    </rdf:RDF>
  </metadata>
  <g
     inkscape:groupmode="layer"
     id="layer5"
     inkscape:label="schwarz"
     transform="translate(42.927212,104.99011)"
     style="display:inline">
    <rect
       style="fill:#ffd815;fill-opacity:1;stroke:#ffffff;stroke-width:16;stroke-linecap:round;stroke-linejoin:round;stroke-miterlimit:4;stroke-dasharray:none;stroke-opacity:1"
       id="rect4663"
       width="140.77524"
       height="214.75842"
       x="-34.927212"
       y="-96.990112" />
    <path
       style="display:inline;fill:#000000;fill-opacity:1;stroke:#ffffff;stroke-width:0;stroke-miterlimit:4;stroke-dasharray:none;stroke-opacity:0.41389729"
       d="m -0.09133925,-59.370666 0,0.14649 -0.0293,0 0,18.435546 0.0293,0 0,56.708987 18.43554725,0 0,-0.66016 c 2.19706,-7.4501899 9.030434,-12.6175899 16.849609,-12.6269499 9.388178,0.006 17.119563,7.3785999 17.572266,16.7558599 l -0.205078,25.480467 c -0.787145,9.17947 -7.886494,16.23471 -17.103516,16.24023 -9.228276,-0.005 -16.914836,-7.07756 -17.6875,-16.27344 l -17.82421825,0 c 0.114645,19.53262 15.97876525,35.30774 35.51171825,35.3125 19.455115,-0.004 35.265615,-15.65366 35.505865,-35.07812 l 0.0312,0 0,-25.681637 -0.0527,0 c 0.064,-0.81878 0.0973,-1.63967 0.0996,-2.46094 6.5e-4,-18.0986999 -14.670835,-32.771054 -32.769532,-32.771484 -7.489551,0.0044 -14.400117,2.531734 -19.927734,6.7792959 l 0,-31.7246089 49.857425,0 0,-18.435546 -49.857425,0 0,-0.14649 -18.43554725,0 z"
       id="rect4407"
       inkscape:connector-curvature="0" />
  </g>
</svg>
