<?xml version="1.0" encoding="UTF-8" standalone="no"?>
<!-- Created with Inkscape (http://www.inkscape.org/) -->

<svg
   xmlns:sketch="http://www.bohemiancoding.com/sketch/ns"
   xmlns:dc="http://purl.org/dc/elements/1.1/"
   xmlns:cc="http://creativecommons.org/ns#"
   xmlns:rdf="http://www.w3.org/1999/02/22-rdf-syntax-ns#"
   xmlns:svg="http://www.w3.org/2000/svg"
   xmlns="http://www.w3.org/2000/svg"
   xmlns:sodipodi="http://sodipodi.sourceforge.net/DTD/sodipodi-0.dtd"
   xmlns:inkscape="http://www.inkscape.org/namespaces/inkscape"
   width="156.77524"
   height="230.75842"
   id="svg2"
   version="1.1"
   inkscape:version="0.91 r13725"
   sodipodi:docname="G2a_15_Tafel.svg">
  <defs
     id="defs4" />
  <sodipodi:namedview
     id="base"
     pagecolor="#ffffff"
     bordercolor="#666666"
     borderopacity="1.0"
     inkscape:pageopacity="0.0"
     inkscape:pageshadow="2"
     inkscape:zoom="1.4142136"
     inkscape:cx="25.336679"
     inkscape:cy="107.6366"
     inkscape:document-units="px"
     inkscape:current-layer="layer5"
     showgrid="false"
     inkscape:window-width="1920"
     inkscape:window-height="1031"
     inkscape:window-x="0"
     inkscape:window-y="25"
     inkscape:window-maximized="1"
     fit-margin-top="0"
     fit-margin-left="0"
     fit-margin-right="0"
     fit-margin-bottom="0" />
  <metadata
     id="metadata7">
    <rdf:RDF>
      <cc:Work
         rdf:about="">
        <dc:format>image/svg+xml</dc:format>
        <dc:type
           rdf:resource="http://purl.org/dc/dcmitype/StillImage" />
        <dc:title></dc:title>
      </cc:Work>
    </rdf:RDF>
  </metadata>
  <g
     inkscape:groupmode="layer"
     id="layer5"
     inkscape:label="schwarz"
     transform="translate(-115.27474,107.26884)"
     style="display:inline">
    <rect
       style="fill:#ffd815;fill-opacity:1;stroke:#ffffff;stroke-width:16;stroke-linecap:round;stroke-linejoin:round;stroke-miterlimit:4;stroke-dasharray:none;stroke-opacity:1"
       id="rect4663"
       width="140.77524"
       height="214.75842"
       x="123.27474"
       y="-99.268845" />
    <path
       style="display:inline;fill:#000000;fill-opacity:1;stroke:#ffffff;stroke-width:0;stroke-miterlimit:4;stroke-dasharray:none;stroke-opacity:0.41389729"
       d="m 212.7454,-63.837062 0,0.0713 -0.0121,0 0,8.977434 0.0121,0 0,26.907996 9.48339,0 c 0,-2.87173 2.92987,-3.712031 5.11493,-3.730216 2.9131,0 5.41392,1.731685 5.41392,4.358786 l -0.0849,14.175813 c 0,4.2049889 -1.40667,7.6405399 -5.21998,7.6432239 -3.81796,-0.0025 -5.46159,-2.636052 -5.46159,-7.6593979 l -9.23048,0 c 0,8.9814179 3.95901,17.1928029 14.69207,17.1958829 8.84482,-0.002 14.68965,-6.208317 14.68965,-13.811375 -0.0161,-5.9953069 0.0501,-11.9909759 -0.009,-17.9860889 -0.15291,-7.820657 -5.15768,-11.990209 -10.86444,-12.118752 -3.09861,0.0022 -6.75317,1.409638 -9.04008,3.478044 l 0,-18.453916 19.90452,0 0,-8.977434 -21.76068,0 0,-0.0713 -7.62723,0 z"
       id="rect4407"
       inkscape:connector-curvature="0"
       sodipodi:nodetypes="ccccccccccccccccccccccccc" />
    <g
       style="display:inline;fill:#000000;fill-opacity:0.22590362;stroke:none"
       sketch:type="MSShapeGroup"
       transform="matrix(0.56548835,0.82475628,-0.82475628,0.56548835,262.66441,-140.15373)"
       id="g4252">
      <g
         style="fill:#000000;fill-opacity:0.22590362"
         transform="translate(0.011049,-0.403379)"
         id="g4254">
        <path
           d="M 55.570342,140.51334 55.525682,162.76355 35.506302,149.08401 35.36135,126.81642 46.681606,110.306 152.68637,182.98743 141.33422,199.54437 Z"
           id="path4258"
           inkscape:connector-curvature="0"
           style="fill:#000000;fill-opacity:1"
           sodipodi:nodetypes="cccccccc" />
      </g>
    </g>
  </g>
</svg>
