<?xml version="1.0" encoding="UTF-8" standalone="no"?>
<!-- Created with Inkscape (http://www.inkscape.org/) -->

<svg
   xmlns:sketch="http://www.bohemiancoding.com/sketch/ns"
   xmlns:dc="http://purl.org/dc/elements/1.1/"
   xmlns:cc="http://creativecommons.org/ns#"
   xmlns:rdf="http://www.w3.org/1999/02/22-rdf-syntax-ns#"
   xmlns:svg="http://www.w3.org/2000/svg"
   xmlns="http://www.w3.org/2000/svg"
   xmlns:sodipodi="http://sodipodi.sourceforge.net/DTD/sodipodi-0.dtd"
   xmlns:inkscape="http://www.inkscape.org/namespaces/inkscape"
   width="156.77524"
   height="230.75842"
   id="svg2"
   version="1.1"
   inkscape:version="0.91 r13725"
   sodipodi:docname="G4_25_Tafel.svg">
  <defs
     id="defs4" />
  <sodipodi:namedview
     id="base"
     pagecolor="#ffffff"
     bordercolor="#666666"
     borderopacity="1.0"
     inkscape:pageopacity="0.0"
     inkscape:pageshadow="2"
     inkscape:zoom="1.0761533"
     inkscape:cx="-195.43763"
     inkscape:cy="134.84581"
     inkscape:document-units="px"
     inkscape:current-layer="layer5"
     showgrid="false"
     inkscape:window-width="1920"
     inkscape:window-height="1031"
     inkscape:window-x="0"
     inkscape:window-y="25"
     inkscape:window-maximized="1"
     fit-margin-top="0"
     fit-margin-left="0"
     fit-margin-right="0"
     fit-margin-bottom="0" />
  <metadata
     id="metadata7">
    <rdf:RDF>
      <cc:Work
         rdf:about="">
        <dc:format>image/svg+xml</dc:format>
        <dc:type
           rdf:resource="http://purl.org/dc/dcmitype/StillImage" />
        <dc:title></dc:title>
      </cc:Work>
    </rdf:RDF>
  </metadata>
  <g
     inkscape:groupmode="layer"
     id="layer1"
     inkscape:label="image"
     style="display:inline" />
  <g
     inkscape:groupmode="layer"
     id="layer5"
     inkscape:label="schwarz"
     transform="translate(42.927212,104.99011)"
     style="display:inline">
    <rect
       style="fill:#ffffff;fill-opacity:1;stroke:#000000;stroke-width:8.48;stroke-linecap:round;stroke-linejoin:round;stroke-miterlimit:4;stroke-dasharray:none;stroke-opacity:1"
       id="rect4663"
       width="150.53589"
       height="222.38737"
       x="-39.479004"
       y="-101.13312" />
    <path
       style="fill:#000000;fill-opacity:1;stroke:none;stroke-width:16;stroke-miterlimit:4;stroke-dasharray:none;stroke-opacity:0.49096386"
       id="path4238"
       sodipodi:type="arc"
       sodipodi:cx="18.634651"
       sodipodi:cy="67.458771"
       sodipodi:rx="21.140112"
       sodipodi:ry="15.332388"
       sodipodi:start="0"
       sodipodi:end="0.003354261"
       sodipodi:open="true"
       d="m 39.774763,67.458771 a 21.140112,15.332388 0 0 1 -1.19e-4,0.05143" />
    <g
       id="g4812"
       transform="translate(3.1131728,-4.5789737)">
      <g
         style="display:inline;fill:#000000;fill-opacity:1;stroke:none"
         sketch:type="MSShapeGroup"
         transform="matrix(0.71541158,0,0,0.83959562,-17.340592,-55.420008)"
         id="layer6-4">
        <g
           style="fill:#000000;fill-opacity:1"
           transform="translate(0.011049,-0.403379)"
           id="g3807">
          <path
             sodipodi:nodetypes="cccczcczzcccc"
             style="fill:#000000;fill-opacity:1"
             inkscape:connector-curvature="0"
             id="path3774"
             d="m 91.849356,174.60323 -91.309686,0 0,-22.33028 61.971183,-79.646173 C 91.847263,34.419437 21.301751,20.500446 21.301751,58.010163 l 0,14.52935 -23.0801553,0 0,-12.95236 c 0,-21.537528 9.8497381,-42.034685 50.0920463,-42.034685 40.242308,0 59.906888,37.05788 36.474377,66.947301 l -54.746985,67.930581 61.808322,0 0,22.17288" />
        </g>
      </g>
      <path
         sodipodi:nodetypes="ccccccccccccccccccccccccc"
         inkscape:connector-curvature="0"
         id="rect4407"
         d="m 54.543448,-61.558332 0,0.0713 -0.0121,0 0,8.977439 0.0121,0 0,26.907996 9.48339,0 c 0,-2.87173 2.92987,-3.712031 5.11493,-3.730216 2.9131,0 5.41392,1.731685 5.41392,4.358786 l -0.0849,14.175813 c 0,4.2049889 -1.40667,7.6405399 -5.21998,7.6432239 -3.81796,-0.0025 -5.46159,-2.636052 -5.46159,-7.6593979 l -9.23048,0 c 0,8.9814179 3.95901,17.1928029 14.69207,17.1958829 8.84482,-0.002 14.689654,-6.20831705 14.689654,-13.811375 -0.0161,-5.9953069 0.0501,-11.9909759 -0.009,-17.9860889 -0.15291,-7.820657 -5.157684,-11.990209 -10.864444,-12.118752 -3.09861,0.0022 -6.75317,1.409638 -9.04008,3.478044 l 0,-18.453916 19.904524,0 0,-8.977439 -21.760684,0 0,-0.0713 -7.62723,0 z"
         style="display:inline;fill:#000000;fill-opacity:1;stroke:#ffffff;stroke-width:0;stroke-miterlimit:4;stroke-dasharray:none;stroke-opacity:0.41389729" />
    </g>
  </g>
</svg>
