<?xml version="1.0" encoding="UTF-8" standalone="no"?>
<!-- Created with Inkscape (http://www.inkscape.org/) -->

<svg
   xmlns:dc="http://purl.org/dc/elements/1.1/"
   xmlns:cc="http://creativecommons.org/ns#"
   xmlns:rdf="http://www.w3.org/1999/02/22-rdf-syntax-ns#"
   xmlns:svg="http://www.w3.org/2000/svg"
   xmlns="http://www.w3.org/2000/svg"
   xmlns:sodipodi="http://sodipodi.sourceforge.net/DTD/sodipodi-0.dtd"
   xmlns:inkscape="http://www.inkscape.org/namespaces/inkscape"
   width="156.77524"
   height="230.75842"
   id="svg2"
   version="1.1"
   inkscape:version="0.91 r13725"
   sodipodi:docname="G4_35_Tafel.svg">
  <defs
     id="defs4" />
  <sodipodi:namedview
     id="base"
     pagecolor="#ffffff"
     bordercolor="#666666"
     borderopacity="1.0"
     inkscape:pageopacity="0.0"
     inkscape:pageshadow="2"
     inkscape:zoom="1.0761533"
     inkscape:cx="-195.43763"
     inkscape:cy="134.84581"
     inkscape:document-units="px"
     inkscape:current-layer="layer5"
     showgrid="false"
     inkscape:window-width="1920"
     inkscape:window-height="1031"
     inkscape:window-x="0"
     inkscape:window-y="25"
     inkscape:window-maximized="1"
     fit-margin-top="0"
     fit-margin-left="0"
     fit-margin-right="0"
     fit-margin-bottom="0" />
  <metadata
     id="metadata7">
    <rdf:RDF>
      <cc:Work
         rdf:about="">
        <dc:format>image/svg+xml</dc:format>
        <dc:type
           rdf:resource="http://purl.org/dc/dcmitype/StillImage" />
        <dc:title></dc:title>
      </cc:Work>
    </rdf:RDF>
  </metadata>
  <g
     inkscape:groupmode="layer"
     id="layer1"
     inkscape:label="image"
     style="display:inline" />
  <g
     inkscape:groupmode="layer"
     id="layer5"
     inkscape:label="schwarz"
     transform="translate(42.927212,104.99011)"
     style="display:inline">
    <rect
       style="fill:#ffffff;fill-opacity:1;stroke:#000000;stroke-width:8.48;stroke-linecap:round;stroke-linejoin:round;stroke-miterlimit:4;stroke-dasharray:none;stroke-opacity:1"
       id="rect4663"
       width="150.53589"
       height="222.38737"
       x="-39.479004"
       y="-101.13312" />
    <path
       style="fill:#000000;fill-opacity:1;stroke:none;stroke-width:16;stroke-miterlimit:4;stroke-dasharray:none;stroke-opacity:0.49096386"
       id="path4238"
       sodipodi:type="arc"
       sodipodi:cx="18.634651"
       sodipodi:cy="67.458771"
       sodipodi:rx="21.140112"
       sodipodi:ry="15.332388"
       sodipodi:start="0"
       sodipodi:end="0.003354261"
       sodipodi:open="true"
       d="m 39.774763,67.458771 a 21.140112,15.332388 0 0 1 -1.19e-4,0.05143" />
    <g
       id="g4845"
       transform="translate(0.53214153,-4.8165107)">
      <path
         sodipodi:nodetypes="ccccccccccccccccccccccccc"
         inkscape:connector-curvature="0"
         id="rect4407"
         d="m 54.543448,-61.558332 0,0.0713 -0.0121,0 0,8.977439 0.0121,0 0,26.907996 9.48339,0 c 0,-2.87173 2.92987,-3.712031 5.11493,-3.730216 2.9131,0 5.41392,1.731685 5.41392,4.358786 l -0.0849,14.175813 c 0,4.2049889 -1.40667,7.6405399 -5.21998,7.6432239 -3.81796,-0.0025 -5.46159,-2.636052 -5.46159,-7.6593979 l -9.23048,0 c 0,8.9814179 3.95901,17.1928029 14.69207,17.1958829 8.84482,-0.002 14.68965,-6.20831705 14.68965,-13.811375 -0.0161,-5.9953069 0.0501,-11.9909759 -0.009,-17.9860889 -0.15291,-7.820657 -5.15768,-11.990209 -10.86444,-12.118752 -3.09861,0.0022 -6.75317,1.409638 -9.04008,3.478044 l 0,-18.453916 19.90452,0 0,-8.977439 -21.76068,0 0,-0.0713 -7.62723,0 z"
         style="display:inline;fill:#000000;fill-opacity:1;stroke:#ffffff;stroke-width:0;stroke-miterlimit:4;stroke-dasharray:none;stroke-opacity:0.41389729" />
      <path
         id="path4286"
         d="m 19.314098,-40.19513 c -17.13096,0.0082 -31.38522,14.978306 -32.75701,34.4020469 l 16.59542,0 c 1.40679,-8.7018929 8.10482,-15.2974829 16.16159,-15.2974829 9.07857,10e-7 16.43813,8.372219 16.43813,18.6990199 0,12.5257181 -7.55647,19.8834391 -16.37784,19.9172241 l -0.002,0 -7.41171,-0.01103 0,0.01255 0,16.062982 0,0.01255 7.41302,-0.01103 c 4.4e-4,0 6.7e-4,-8e-6 0.002,0 8.82081,0.03453 16.37653,7.392118 16.37653,19.917218 0,10.3268 -7.35956,18.69902 -16.43813,18.69902 -8.05677,0 -14.7548,-6.59559 -16.16159,-15.29748 l -16.59542,0 c 1.37179,19.42374 15.62605,34.39384 32.75701,34.40204 18.15702,-9e-5 32.87618,-16.743 32.87627,-37.39647 -4e-5,-11.68319 -4.69271,-21.782697 -12.05403,-28.358185 7.36128,-6.575479 12.05398,-16.6734461 12.05403,-28.3566111 -9e-5,-20.6534659 -14.71925,-37.3963799 -32.87627,-37.3964679 z"
         style="display:inline;fill:#000000;fill-opacity:1;stroke:none;stroke-opacity:0.3920455"
         inkscape:connector-curvature="0" />
    </g>
  </g>
</svg>
