<?xml version="1.0" encoding="UTF-8" standalone="no"?>
<!-- Created with Inkscape (http://www.inkscape.org/) -->

<svg
   xmlns:dc="http://purl.org/dc/elements/1.1/"
   xmlns:cc="http://creativecommons.org/ns#"
   xmlns:rdf="http://www.w3.org/1999/02/22-rdf-syntax-ns#"
   xmlns:svg="http://www.w3.org/2000/svg"
   xmlns="http://www.w3.org/2000/svg"
   xmlns:sodipodi="http://sodipodi.sourceforge.net/DTD/sodipodi-0.dtd"
   xmlns:inkscape="http://www.inkscape.org/namespaces/inkscape"
   width="156.77524"
   height="230.75842"
   id="svg2"
   version="1.1"
   inkscape:version="0.91 r13725"
   sodipodi:docname="G4_30_Tafel.svg">
  <defs
     id="defs4" />
  <sodipodi:namedview
     id="base"
     pagecolor="#ffffff"
     bordercolor="#666666"
     borderopacity="1.0"
     inkscape:pageopacity="0.0"
     inkscape:pageshadow="2"
     inkscape:zoom="1.0761533"
     inkscape:cx="-195.43763"
     inkscape:cy="134.84581"
     inkscape:document-units="px"
     inkscape:current-layer="layer5"
     showgrid="false"
     inkscape:window-width="1920"
     inkscape:window-height="1031"
     inkscape:window-x="0"
     inkscape:window-y="25"
     inkscape:window-maximized="1"
     fit-margin-top="0"
     fit-margin-left="0"
     fit-margin-right="0"
     fit-margin-bottom="0" />
  <metadata
     id="metadata7">
    <rdf:RDF>
      <cc:Work
         rdf:about="">
        <dc:format>image/svg+xml</dc:format>
        <dc:type
           rdf:resource="http://purl.org/dc/dcmitype/StillImage" />
        <dc:title></dc:title>
      </cc:Work>
    </rdf:RDF>
  </metadata>
  <g
     inkscape:groupmode="layer"
     id="layer1"
     inkscape:label="image"
     style="display:inline" />
  <g
     inkscape:groupmode="layer"
     id="layer5"
     inkscape:label="schwarz"
     transform="translate(42.927212,104.99011)"
     style="display:inline">
    <rect
       style="fill:#ffffff;fill-opacity:1;stroke:#000000;stroke-width:8.48;stroke-linecap:round;stroke-linejoin:round;stroke-miterlimit:4;stroke-dasharray:none;stroke-opacity:1"
       id="rect4663"
       width="150.53589"
       height="222.38737"
       x="-39.479004"
       y="-101.13312" />
    <path
       style="fill:#000000;fill-opacity:1;stroke:none;stroke-width:16;stroke-miterlimit:4;stroke-dasharray:none;stroke-opacity:0.49096386"
       id="path4238"
       sodipodi:type="arc"
       sodipodi:cx="18.634651"
       sodipodi:cy="67.458771"
       sodipodi:rx="21.140112"
       sodipodi:ry="15.332388"
       sodipodi:start="0"
       sodipodi:end="0.003354261"
       sodipodi:open="true"
       d="m 39.774763,67.458771 a 21.140112,15.332388 0 0 1 -1.19e-4,0.05143" />
    <path
       inkscape:connector-curvature="0"
       style="display:inline;fill:#000000;fill-opacity:1;stroke:none;stroke-opacity:0.3920455"
       d="m 35.700071,-71.64147 c -25.528531,0.0102 -46.770217,18.611221 -48.814453,42.746096 l 24.730469,0 c 2.096397,-10.812495 12.077804,-19.007813 24.083984,-19.007813 13.528877,1e-6 24.496092,10.40286 24.496092,23.234377 0,15.5637697 -11.260649,24.70606961 -24.406248,24.74804961 l -0.002,0 -11.044922,-0.0137 0,0.0156 0,19.95898039 0,0.0156 11.046875,-0.0137 c 6.53e-4,0 0.0013,-10e-6 0.002,0 13.144757,0.0429 24.404295,9.18504 24.404295,24.74804 0,12.83152 -10.967215,23.23438 -24.496092,23.23438 -12.00618,0 -21.987587,-8.19532 -24.083984,-19.00781 l -24.730469,0 c 2.044236,24.13487 23.285922,42.7359 48.814453,42.74609 27.057582,-1.1e-4 48.992062,-20.80393 48.992192,-46.4668 -7e-5,-14.5169 -6.99308,-27.06599 -17.9629,-35.23633 10.96977,-8.1703303 17.96283,-20.71751 17.9629,-35.23437 -1.3e-4,-25.662864 -21.93461,-46.46669 -48.992192,-46.4668 z"
       id="path4286" />
  </g>
</svg>
