<?xml version="1.0" encoding="UTF-8" standalone="no"?>
<!DOCTYPE svg PUBLIC "-//W3C//DTD SVG 1.1//EN" "http://www.w3.org/Graphics/SVG/1.1/DTD/svg11.dtd">
<svg width="100%" height="100%" viewBox="0 0 167 167" version="1.1" xmlns="http://www.w3.org/2000/svg" xmlns:xlink="http://www.w3.org/1999/xlink" xml:space="preserve" xmlns:serif="http://www.serif.com/" style="fill-rule:evenodd;clip-rule:evenodd;stroke-linejoin:round;stroke-miterlimit:2;">
    <g transform="matrix(4.16667,0,0,4.16667,0,0)">
        <g id="rect3591" transform="matrix(1,0,0,1,-5,-5)">
            <rect x="5" y="5" width="40" height="40" style="fill:rgb(0,51,153);"/>
        </g>
        <g id="path2818" transform="matrix(1,0,0,1,-5,-5)">
            <path d="M13.761,29.818L19.192,29.29C19.519,31.113 20.182,32.452 21.181,33.307C22.181,34.162 23.529,34.589 25.226,34.589C27.024,34.589 28.379,34.209 29.29,33.448C30.202,32.688 30.657,31.798 30.657,30.78C30.657,30.126 30.466,29.57 30.082,29.111C29.699,28.652 29.029,28.253 28.074,27.914C27.42,27.687 25.93,27.285 23.605,26.707C20.612,25.965 18.513,25.053 17.306,23.972C15.609,22.451 14.76,20.597 14.76,18.409C14.76,17.001 15.159,15.684 15.958,14.458C16.756,13.233 17.906,12.299 19.409,11.658C20.911,11.017 22.724,10.696 24.849,10.696C28.319,10.696 30.931,11.457 32.685,12.978C34.438,14.499 35.359,16.53 35.447,19.069L29.865,19.314C29.626,17.894 29.114,16.872 28.328,16.25C27.543,15.628 26.364,15.316 24.793,15.316C23.171,15.316 21.901,15.65 20.983,16.316C20.392,16.743 20.097,17.315 20.097,18.032C20.097,18.686 20.373,19.245 20.927,19.71C21.631,20.301 23.34,20.917 26.056,21.558C28.772,22.2 30.78,22.863 32.081,23.548C33.382,24.233 34.401,25.17 35.136,26.358C35.872,27.546 36.239,29.014 36.239,30.761C36.239,32.345 35.799,33.829 34.919,35.212C34.039,36.595 32.795,37.622 31.185,38.295C29.576,38.968 27.571,39.304 25.17,39.304C21.675,39.304 18.991,38.496 17.117,36.881C15.244,35.265 14.125,32.911 13.761,29.818Z" style="fill:white;fill-rule:nonzero;"/>
        </g>
    </g>
</svg>
