<?xml version="1.0" encoding="UTF-8" standalone="no"?>
<!-- Created with Inkscape (http://www.inkscape.org/) -->

<svg
   width="310.48099"
   height="265.08105"
   id="svg2"
   version="1.1"
   inkscape:version="1.1.2 (0a00cf5339, 2022-02-04)"
   sodipodi:docname="g1a-50.svg"
   xmlns:inkscape="http://www.inkscape.org/namespaces/inkscape"
   xmlns:sodipodi="http://sodipodi.sourceforge.net/DTD/sodipodi-0.dtd"
   xmlns="http://www.w3.org/2000/svg"
   xmlns:svg="http://www.w3.org/2000/svg"
   xmlns:rdf="http://www.w3.org/1999/02/22-rdf-syntax-ns#"
   xmlns:cc="http://creativecommons.org/ns#"
   xmlns:dc="http://purl.org/dc/elements/1.1/"
   xmlns:sketch="http://www.bohemiancoding.com/sketch/ns">
  <defs
     id="defs4" />
  <sodipodi:namedview
     id="base"
     pagecolor="#ffffff"
     bordercolor="#666666"
     borderopacity="1.0"
     inkscape:pageopacity="0.0"
     inkscape:pageshadow="2"
     inkscape:zoom="1.4142136"
     inkscape:cx="153.79572"
     inkscape:cy="4.2426406"
     inkscape:document-units="px"
     inkscape:current-layer="layer5"
     showgrid="false"
     inkscape:window-width="1920"
     inkscape:window-height="1007"
     inkscape:window-x="0"
     inkscape:window-y="0"
     inkscape:window-maximized="1"
     fit-margin-top="0"
     fit-margin-left="0"
     fit-margin-right="0"
     fit-margin-bottom="0"
     inkscape:pagecheckerboard="0"
     inkscape:lockguides="false" />
  <metadata
     id="metadata7">
    <rdf:RDF>
      <cc:Work
         rdf:about="">
        <dc:format>image/svg+xml</dc:format>
        <dc:type
           rdf:resource="http://purl.org/dc/dcmitype/StillImage" />
      </cc:Work>
    </rdf:RDF>
  </metadata>
  <g
     inkscape:groupmode="layer"
     id="layer5"
     inkscape:label="schwarz"
     transform="translate(125.95901,127.22699)"
     style="display:inline">
    <g
       id="layer6-4"
       transform="translate(-13.230861,-88.639987)"
       sketch:type="MSShapeGroup"
       style="display:inline;fill:#000000;fill-opacity:1;stroke:none">
      <g
         id="g3807"
         transform="translate(0.011049,-0.403379)"
         style="fill:#000000;fill-opacity:1" />
    </g>
    <path
       style="color:#000000;display:inline;overflow:visible;visibility:visible;fill:#ffd815;fill-opacity:1;stroke:#ffffff;stroke-width:22.5;stroke-linecap:butt;stroke-linejoin:miter;stroke-miterlimit:4;stroke-dasharray:none;stroke-dashoffset:0;stroke-opacity:1;marker:none;enable-background:accumulate"
       d="m 164.71407,-115.14485 c -92.97297,0.15888 -183.93483,-0.52324 -271.32231,-0.7761 43.144255,76.030979 90.919819,155.358097 134.06409,231.38904 z"
       id="path3047"
       inkscape:connector-curvature="0"
       sodipodi:nodetypes="cccc" />
    <path
       sodipodi:nodetypes="cccc"
       inkscape:connector-curvature="0"
       id="path4925"
       d="m 165.40312,-115.7389 c -93.445483,0.1597 -184.86963,-0.5259 -272.70123,-0.78004 43.363522,76.41738 91.381892,156.147655 134.74543,232.56501 z"
       style="color:#000000;display:inline;overflow:visible;visibility:visible;fill:none;fill-opacity:1;stroke:#000000;stroke-width:8.040658;stroke-linecap:butt;stroke-linejoin:miter;stroke-miterlimit:4;stroke-dasharray:none;stroke-dashoffset:0;stroke-opacity:1;marker:none;enable-background:accumulate" />
    <g
       id="g2707"
       transform="translate(-1.4402772)">
      <g
         id="g2702">
        <path
           sodipodi:nodetypes="ccccccczccccccccccccccccc"
           inkscape:connector-curvature="0"
           id="rect4407"
           d="m -12.955059,-76.684513 v 0.0839 h -0.01419 v 10.570883 h 0.01419 v 32.866227 l 12.54584295,-0.197028 c 0,-3.38145 5.38557905,-5.366741 11.53957705,-5.377446 6.153998,-0.01071 10.512436,5.979589 10.512436,9.072991 l -0.09998,12.751425 c 0,4.951358 -6.77905,8.9967057 -11.269208,8.9998657 -4.495632,-0.0028 -10.96262005,-3.1039397 -10.96262005,-9.0189087 H -12.937053 c 0,10.5755827 10.769552,20.2444552 23.407689,20.2480822 10.414742,-0.0023 22.222681,-7.3102677 22.222681,-16.2628392 -0.01896,-7.05945 0.05898,-14.119326 -0.01056,-21.17855 -0.180051,-9.208793 -12.378012,-15.694639 -19.0977,-15.845995 -3.6486,0.0023 -11.301289,1.068755 -13.99411605,3.504298 V -66.029727 H 32.288698 V -76.60061 H -2.594686 v -0.0839 h -10.360218 z"
           style="display:inline;fill:#000000;fill-opacity:1;stroke:#ffffff;stroke-width:0;stroke-miterlimit:4;stroke-dasharray:none;stroke-opacity:0.413897" />
        <path
           style="display:inline;fill:#000000;fill-opacity:1;stroke:none;stroke-width:0.436342"
           d="m 57.361948,-77.553175 c -8.3321,0.0473 -16.67208,5.73478 -16.68615,16.92452 h -0.0981 v 46.23044 h 0.0981 c 0.20695,22.5859503 33.34425,22.3330003 33.35828,0 h 0.0841 v -46.23044 h -0.0841 c -0.0208,-11.37382 -8.34341,-16.97184 -16.67213,-16.92452 z m -0.0281,10.05375 c 3.52287,-0.0318 7.05245,2.22781 7.06707,6.87077 h -0.0281 v 46.23044 h 0.0421 c -0.0149,9.0823203 -14.09208,9.1001503 -14.09208,-0.21033 v -46.02011 h -0.0281 c 0.0148,-4.52458 3.5236,-6.83896 7.03903,-6.87077 z"
           id="rect4094"
           inkscape:connector-curvature="0" />
      </g>
    </g>
  </g>
</svg>
