<?xml version="1.0" encoding="UTF-8" standalone="no"?>
<!-- Created with Inkscape (http://www.inkscape.org/) -->

<svg
   width="310.48099"
   height="265.08105"
   id="svg2"
   version="1.1"
   inkscape:version="1.1.2 (0a00cf5339, 2022-02-04)"
   sodipodi:docname="g1a-60.svg"
   xmlns:inkscape="http://www.inkscape.org/namespaces/inkscape"
   xmlns:sodipodi="http://sodipodi.sourceforge.net/DTD/sodipodi-0.dtd"
   xmlns="http://www.w3.org/2000/svg"
   xmlns:svg="http://www.w3.org/2000/svg"
   xmlns:rdf="http://www.w3.org/1999/02/22-rdf-syntax-ns#"
   xmlns:cc="http://creativecommons.org/ns#"
   xmlns:dc="http://purl.org/dc/elements/1.1/"
   xmlns:sketch="http://www.bohemiancoding.com/sketch/ns">
  <defs
     id="defs4" />
  <sodipodi:namedview
     id="base"
     pagecolor="#ffffff"
     bordercolor="#666666"
     borderopacity="1.0"
     inkscape:pageopacity="0.0"
     inkscape:pageshadow="2"
     inkscape:zoom="2"
     inkscape:cx="58"
     inkscape:cy="59.5"
     inkscape:document-units="px"
     inkscape:current-layer="layer5"
     showgrid="false"
     inkscape:window-width="1920"
     inkscape:window-height="1007"
     inkscape:window-x="0"
     inkscape:window-y="0"
     inkscape:window-maximized="1"
     fit-margin-top="0"
     fit-margin-left="0"
     fit-margin-right="0"
     fit-margin-bottom="0"
     inkscape:pagecheckerboard="0"
     inkscape:lockguides="false" />
  <metadata
     id="metadata7">
    <rdf:RDF>
      <cc:Work
         rdf:about="">
        <dc:format>image/svg+xml</dc:format>
        <dc:type
           rdf:resource="http://purl.org/dc/dcmitype/StillImage" />
      </cc:Work>
    </rdf:RDF>
  </metadata>
  <g
     inkscape:groupmode="layer"
     id="layer5"
     inkscape:label="schwarz"
     transform="translate(125.95901,127.22699)"
     style="display:inline">
    <g
       id="layer6-4"
       transform="translate(-13.230861,-88.639987)"
       sketch:type="MSShapeGroup"
       style="display:inline;fill:#000000;fill-opacity:1;stroke:none">
      <g
         id="g3807"
         transform="translate(0.011049,-0.403379)"
         style="fill:#000000;fill-opacity:1" />
    </g>
    <path
       style="color:#000000;display:inline;overflow:visible;visibility:visible;fill:#ffd815;fill-opacity:1;stroke:#ffffff;stroke-width:22.5;stroke-linecap:butt;stroke-linejoin:miter;stroke-miterlimit:4;stroke-dasharray:none;stroke-dashoffset:0;stroke-opacity:1;marker:none;enable-background:accumulate"
       d="m 164.71407,-115.14485 c -92.97297,0.15888 -183.93483,-0.52324 -271.32231,-0.7761 43.144255,76.030979 90.919819,155.358097 134.06409,231.38904 z"
       id="path3047"
       inkscape:connector-curvature="0"
       sodipodi:nodetypes="cccc" />
    <path
       sodipodi:nodetypes="cccc"
       inkscape:connector-curvature="0"
       id="path4925"
       d="m 165.40312,-115.7389 c -93.445483,0.1597 -184.86963,-0.5259 -272.70123,-0.78004 43.363522,76.41738 91.381892,156.147655 134.74543,232.56501 z"
       style="color:#000000;display:inline;overflow:visible;visibility:visible;fill:none;fill-opacity:1;stroke:#000000;stroke-width:8.040658;stroke-linecap:butt;stroke-linejoin:miter;stroke-miterlimit:4;stroke-dasharray:none;stroke-dashoffset:0;stroke-opacity:1;marker:none;enable-background:accumulate" />
    <g
       id="g2017"
       transform="translate(5.3856246)">
      <path
         style="fill:#000000;fill-opacity:1;stroke:none;stroke-width:0.436342"
         d="m 45.699879,-84.375776 c -8.332097,0.0473 -16.672075,5.73478 -16.686147,16.92452 h -0.09815 v 46.23044 h 0.09815 c 0.206953,22.5859507 33.344245,22.3329947 33.358273,0 h 0.08413 v -46.23044 h -0.08413 c -0.02077,-11.37382 -8.343402,-16.97184 -16.672126,-16.92452 z m -0.02806,10.05375 c 3.522869,-0.0318 7.052454,2.22781 7.067071,6.87077 h -0.02806 v 46.23044 h 0.04206 c -0.01488,9.082318 -14.092084,9.100143 -14.092084,-0.21033 v -46.02011 h -0.02806 c 0.01484,-4.52458 3.523603,-6.83896 7.039032,-6.87077 z"
         id="rect4094"
         inkscape:connector-curvature="0" />
      <path
         inkscape:connector-curvature="0"
         d="m 4.3441162,-84.376078 c -9.6576903,5.7e-4 -19.3031262,9.148593 -19.3031262,17.8704 v 46.916316 c 0,5.892369 5.7818001,15.2132841 18.9548007,15.2132841 10.6818193,0 18.9692363,-8.6872641 18.9692363,-15.2132841 v -22.311953 c 0,-15.788771 -18.5816639,-16.160542 -25.1085067,-13.89775 v -11.78769 c 0,-6.315516 14.3103957,-6.104995 14.3103957,0 H 23.66168 c 0,-7.643654 -9.659965,-16.790253 -19.3175638,-16.789323 z M 3.63293,-45.053379 c 3.2915434,-0.137203 6.792362,1.386182 6.792362,4.454573 v 18.156949 c 0,7.990987 -12.438173,8.497784 -12.438173,0 v -18.313248 c 0,-2.769491 2.74151374,-4.177214 5.645811,-4.298274 z"
         id="path4637"
         style="color:#000000;display:inline;overflow:visible;visibility:visible;fill:#000000;fill-opacity:1;stroke:none;stroke-width:0.689655px;marker:none;enable-background:accumulate" />
    </g>
  </g>
</svg>
