<?xml version="1.0" encoding="UTF-8" standalone="no"?>
<!-- Created with Inkscape (http://www.inkscape.org/) -->

<svg
   width="310.48099"
   height="265.08105"
   id="svg2"
   version="1.1"
   inkscape:version="1.1.2 (0a00cf5339, 2022-02-04)"
   sodipodi:docname="g1a-35.svg"
   xmlns:inkscape="http://www.inkscape.org/namespaces/inkscape"
   xmlns:sodipodi="http://sodipodi.sourceforge.net/DTD/sodipodi-0.dtd"
   xmlns="http://www.w3.org/2000/svg"
   xmlns:svg="http://www.w3.org/2000/svg"
   xmlns:rdf="http://www.w3.org/1999/02/22-rdf-syntax-ns#"
   xmlns:cc="http://creativecommons.org/ns#"
   xmlns:dc="http://purl.org/dc/elements/1.1/"
   xmlns:sketch="http://www.bohemiancoding.com/sketch/ns">
  <defs
     id="defs4" />
  <sodipodi:namedview
     id="base"
     pagecolor="#ffffff"
     bordercolor="#666666"
     borderopacity="1.0"
     inkscape:pageopacity="0.0"
     inkscape:pageshadow="2"
     inkscape:zoom="2"
     inkscape:cx="58.25"
     inkscape:cy="139.5"
     inkscape:document-units="px"
     inkscape:current-layer="layer5"
     showgrid="false"
     inkscape:window-width="1920"
     inkscape:window-height="1007"
     inkscape:window-x="0"
     inkscape:window-y="0"
     inkscape:window-maximized="1"
     fit-margin-top="0"
     fit-margin-left="0"
     fit-margin-right="0"
     fit-margin-bottom="0"
     inkscape:pagecheckerboard="0"
     inkscape:lockguides="false" />
  <metadata
     id="metadata7">
    <rdf:RDF>
      <cc:Work
         rdf:about="">
        <dc:format>image/svg+xml</dc:format>
        <dc:type
           rdf:resource="http://purl.org/dc/dcmitype/StillImage" />
      </cc:Work>
    </rdf:RDF>
  </metadata>
  <g
     inkscape:groupmode="layer"
     id="layer5"
     inkscape:label="schwarz"
     transform="translate(125.95901,127.22699)"
     style="display:inline">
    <g
       id="layer6-4"
       transform="translate(-13.230861,-88.639987)"
       sketch:type="MSShapeGroup"
       style="display:inline;fill:#000000;fill-opacity:1;stroke:none">
      <g
         id="g3807"
         transform="translate(0.011049,-0.403379)"
         style="fill:#000000;fill-opacity:1" />
    </g>
    <path
       style="color:#000000;display:inline;overflow:visible;visibility:visible;fill:#ffd815;fill-opacity:1;stroke:#ffffff;stroke-width:22.5;stroke-linecap:butt;stroke-linejoin:miter;stroke-miterlimit:4;stroke-dasharray:none;stroke-dashoffset:0;stroke-opacity:1;marker:none;enable-background:accumulate"
       d="m 164.71407,-115.14485 c -92.97297,0.15888 -183.93483,-0.52324 -271.32231,-0.7761 43.144255,76.030979 90.919819,155.358097 134.06409,231.38904 z"
       id="path3047"
       inkscape:connector-curvature="0"
       sodipodi:nodetypes="cccc" />
    <path
       sodipodi:nodetypes="cccc"
       inkscape:connector-curvature="0"
       id="path4925"
       d="m 165.40312,-115.7389 c -93.445483,0.1597 -184.86963,-0.5259 -272.70123,-0.78004 43.363522,76.41738 91.381892,156.147655 134.74543,232.56501 z"
       style="color:#000000;display:inline;overflow:visible;visibility:visible;fill:none;fill-opacity:1;stroke:#000000;stroke-width:8.040658;stroke-linecap:butt;stroke-linejoin:miter;stroke-miterlimit:4;stroke-dasharray:none;stroke-dashoffset:0;stroke-opacity:1;marker:none;enable-background:accumulate" />
    <g
       id="g3072"
       transform="translate(-3.570281)">
      <path
         inkscape:connector-curvature="0"
         style="display:inline;fill:#000000;fill-opacity:1;stroke:none;stroke-width:0.666345;stroke-opacity:0.392046"
         d="m 7.4632772,-84.375963 c -12.4983326,0.005 -22.8979072,9.11173 -23.8987322,20.92776 h 12.1076226 c 1.026354,-5.29361 5.9130886,-9.30591 11.7911096,-9.30591 6.6235118,0 11.9928758,5.09307 11.9928758,11.37517 0,7.619757 -5.513023,12.095673 -11.9488918,12.116227 h -8.66e-4 l -5.407408,-0.0067 v 0.0077 9.771582 0.0075 l 5.408366,-0.0067 c 3.16e-4,0 4.91e-4,0 7.99e-4,0 6.4354528,0.021 11.9479348,4.496843 11.9479348,12.116231 0,6.282094 -5.369364,11.375162 -11.9928768,11.375162 -5.87802,0 -10.7647556,-4.01229 -11.7911096,-9.305907 H -16.435522 c 1.000825,11.816022 11.4003996,20.9227791 23.8987322,20.9277701 13.2469428,-5.9e-5 23.9856938,-10.1852531 23.9857528,-22.7493671 -3.3e-5,-7.107231 -3.423688,-13.251057 -8.794334,-17.251114 5.370621,-4.000057 8.794301,-10.142945 8.794334,-17.250154 -5.9e-5,-12.5641 -10.73881,-22.7493 -23.9857528,-22.74936 z"
         id="path4286" />
      <path
         sodipodi:nodetypes="ccccccczccccccccccccccccc"
         inkscape:connector-curvature="0"
         id="rect4407"
         d="m 36.177181,-84.37607 v 0.0839 h -0.01419 v 10.570883 h 0.01419 v 32.866227 l 12.545843,-0.197028 c 0,-3.38145 5.385579,-5.366741 11.539577,-5.377446 6.153998,-0.01071 10.512436,5.979589 10.512436,9.072991 l -0.09998,12.751425 c 0,4.951358 -6.77905,8.996706 -11.269208,8.999866 -4.495632,-0.0028 -10.96262,-3.10394 -10.96262,-9.018909 H 36.195187 c 0,10.575583 10.769552,20.2444556 23.407689,20.2480826 10.414742,-0.0023 22.222681,-7.3102676 22.222681,-16.2628396 -0.01896,-7.05945 0.05898,-14.119326 -0.01056,-21.17855 -0.180052,-9.208793 -12.378012,-15.694639 -19.0977,-15.845995 -3.6486,0.0023 -11.301289,1.068755 -13.994116,3.504298 V -73.721284 H 81.420938 V -84.292167 H 46.537554 v -0.0839 H 36.177336 Z"
         style="display:inline;fill:#000000;fill-opacity:1;stroke:#ffffff;stroke-width:0;stroke-miterlimit:4;stroke-dasharray:none;stroke-opacity:0.413897" />
    </g>
  </g>
</svg>
