<?xml version="1.0" encoding="UTF-8" standalone="no"?>
<!-- Created with Inkscape (http://www.inkscape.org/) -->

<svg
   width="156.77524"
   height="230.75842"
   id="svg2"
   version="1.1"
   inkscape:version="1.1.2 (0a00cf5339, 2022-02-04)"
   sodipodi:docname="g2a-15.svg"
   xmlns:inkscape="http://www.inkscape.org/namespaces/inkscape"
   xmlns:sodipodi="http://sodipodi.sourceforge.net/DTD/sodipodi-0.dtd"
   xmlns="http://www.w3.org/2000/svg"
   xmlns:svg="http://www.w3.org/2000/svg"
   xmlns:rdf="http://www.w3.org/1999/02/22-rdf-syntax-ns#"
   xmlns:cc="http://creativecommons.org/ns#"
   xmlns:dc="http://purl.org/dc/elements/1.1/"
   xmlns:sketch="http://www.bohemiancoding.com/sketch/ns">
  <defs
     id="defs4" />
  <sodipodi:namedview
     id="base"
     pagecolor="#ffffff"
     bordercolor="#666666"
     borderopacity="1.0"
     inkscape:pageopacity="0.0"
     inkscape:pageshadow="2"
     inkscape:zoom="1.4142136"
     inkscape:cx="25.10229"
     inkscape:cy="107.48023"
     inkscape:document-units="px"
     inkscape:current-layer="layer5"
     showgrid="false"
     inkscape:window-width="1920"
     inkscape:window-height="1007"
     inkscape:window-x="0"
     inkscape:window-y="0"
     inkscape:window-maximized="1"
     fit-margin-top="0"
     fit-margin-left="0"
     fit-margin-right="0"
     fit-margin-bottom="0"
     inkscape:pagecheckerboard="0" />
  <metadata
     id="metadata7">
    <rdf:RDF>
      <cc:Work
         rdf:about="">
        <dc:format>image/svg+xml</dc:format>
        <dc:type
           rdf:resource="http://purl.org/dc/dcmitype/StillImage" />
        <dc:title />
      </cc:Work>
    </rdf:RDF>
  </metadata>
  <g
     inkscape:groupmode="layer"
     id="layer5"
     inkscape:label="schwarz"
     transform="translate(-115.27474,107.26884)"
     style="display:inline">
    <rect
       style="fill:#ffd815;fill-opacity:1;stroke:#ffffff;stroke-width:16;stroke-linecap:round;stroke-linejoin:round;stroke-miterlimit:4;stroke-dasharray:none;stroke-opacity:1"
       id="rect4663"
       width="140.77524"
       height="214.75842"
       x="123.27474"
       y="-99.268845" />
    <g
       id="g871"
       transform="translate(0,7.6053933)">
      <path
         style="display:inline;fill:#000000;fill-opacity:1;stroke:#ffffff;stroke-width:0;stroke-miterlimit:4;stroke-dasharray:none;stroke-opacity:0.413897"
         d="m 194.6574,-39.495026 v 0.08396 h -0.0142 v 10.570886 h 0.0142 V 2.8438586 h 11.16664 c 0,-3.38144903 3.44991,-4.370899 6.02281,-4.392312 3.43016,0 6.37487,2.03905097 6.37487,5.13245 l -0.1,16.6919534 c 0,4.951355 -1.65635,8.9967 -6.1465,8.99986 -4.49563,-0.0029 -6.431,-3.103939 -6.431,-9.018905 h -10.86885 c 0,10.575577 4.66172,20.244445 17.29985,20.248072 10.41473,-0.0024 17.29699,-7.310265 17.29699,-16.26283 -0.019,-7.059445 0.059,-14.119317 -0.0106,-21.1785354 -0.18005,-9.208786 -6.07314,-14.1184136 -12.79283,-14.2697726 -3.64859,0.0026 -7.95182,1.6598416 -10.64465,4.0953796 V -28.840184 h 23.43748 V -39.41107 h -25.6231 v -0.08396 h -8.98102 z"
         id="rect4407"
         inkscape:connector-curvature="0"
         sodipodi:nodetypes="ccccccccccccccccccccccccc" />
      <g
         style="display:inline;fill:#000000;fill-opacity:0.225904;stroke:none"
         sketch:type="MSShapeGroup"
         transform="matrix(0.35197667,0.51335269,-0.51335269,0.35197667,221.85795,-102.14798)"
         id="g4252">
        <g
           style="fill:#000000;fill-opacity:0.225904"
           transform="translate(0.011049,-0.403379)"
           id="g4254">
          <path
             d="M 55.570342,140.51334 55.525682,162.76355 35.506302,149.08401 35.36135,126.81642 46.681606,110.306 152.68637,182.98743 141.33422,199.54437 Z"
             id="path4258"
             inkscape:connector-curvature="0"
             style="fill:#000000;fill-opacity:1"
             sodipodi:nodetypes="cccccccc" />
        </g>
      </g>
    </g>
  </g>
</svg>
