<?xml version="1.0" encoding="UTF-8" standalone="no"?>
<!-- Created with Inkscape (http://www.inkscape.org/) -->

<svg
   width="156.77524"
   height="230.75842"
   id="svg2"
   version="1.1"
   inkscape:version="1.1.2 (0a00cf5339, 2022-02-04)"
   sodipodi:docname="g2a-30.svg"
   xmlns:inkscape="http://www.inkscape.org/namespaces/inkscape"
   xmlns:sodipodi="http://sodipodi.sourceforge.net/DTD/sodipodi-0.dtd"
   xmlns="http://www.w3.org/2000/svg"
   xmlns:svg="http://www.w3.org/2000/svg"
   xmlns:rdf="http://www.w3.org/1999/02/22-rdf-syntax-ns#"
   xmlns:cc="http://creativecommons.org/ns#"
   xmlns:dc="http://purl.org/dc/elements/1.1/">
  <defs
     id="defs4" />
  <sodipodi:namedview
     id="base"
     pagecolor="#ffffff"
     bordercolor="#666666"
     borderopacity="1.0"
     inkscape:pageopacity="0.0"
     inkscape:pageshadow="2"
     inkscape:zoom="1.4142136"
     inkscape:cx="3.1819804"
     inkscape:cy="104.6518"
     inkscape:document-units="px"
     inkscape:current-layer="layer5"
     showgrid="false"
     inkscape:window-width="1920"
     inkscape:window-height="1007"
     inkscape:window-x="0"
     inkscape:window-y="0"
     inkscape:window-maximized="1"
     fit-margin-top="0"
     fit-margin-left="0"
     fit-margin-right="0"
     fit-margin-bottom="0"
     inkscape:pagecheckerboard="0" />
  <metadata
     id="metadata7">
    <rdf:RDF>
      <cc:Work
         rdf:about="">
        <dc:format>image/svg+xml</dc:format>
        <dc:type
           rdf:resource="http://purl.org/dc/dcmitype/StillImage" />
        <dc:title />
      </cc:Work>
    </rdf:RDF>
  </metadata>
  <g
     inkscape:groupmode="layer"
     id="layer5"
     inkscape:label="schwarz"
     transform="translate(42.927212,104.99011)"
     style="display:inline">
    <rect
       style="fill:#ffd815;fill-opacity:1;stroke:#ffffff;stroke-width:16;stroke-linecap:round;stroke-linejoin:round;stroke-miterlimit:4;stroke-dasharray:none;stroke-opacity:1"
       id="rect4663"
       width="140.77524"
       height="214.75842"
       x="-34.927212"
       y="-97.768845" />
    <g
       id="g2163"
       transform="translate(13.188357,53.986443)"
       style="display:inline">
      <path
         style="fill:#000000;fill-opacity:1;stroke:none;stroke-width:0.436342"
         d="m 51.085504,-84.375776 c -8.332097,0.0473 -16.672075,5.73478 -16.686147,16.92452 h -0.09815 v 46.23044 h 0.09815 c 0.206953,22.5859507 33.344245,22.3329947 33.358273,0 h 0.08413 v -46.23044 h -0.08413 c -0.02077,-11.37382 -8.343402,-16.97184 -16.672126,-16.92452 z m -0.02806,10.05375 c 3.522869,-0.0318 7.052454,2.22781 7.067071,6.87077 h -0.02806 v 46.23044 h 0.04206 c -0.01488,9.082318 -14.092084,9.100143 -14.092084,-0.21033 v -46.02011 h -0.02806 c 0.01484,-4.52458 3.523603,-6.83896 7.039032,-6.87077 z"
         id="rect4094"
         inkscape:connector-curvature="0" />
      <path
         inkscape:connector-curvature="0"
         style="display:inline;fill:#000000;fill-opacity:1;stroke:none;stroke-width:0.666345;stroke-opacity:0.392046"
         d="m 0.60114056,-84.375963 c -12.49833256,0.005 -22.89790756,9.11173 -23.89873256,20.92776 h 12.107623 c 1.026354,-5.29361 5.9130886,-9.30591 11.79110956,-9.30591 6.62351204,0 11.99287544,5.09307 11.99287544,11.37517 0,7.619757 -5.5130224,12.095673 -11.94889144,12.116227 h -8.66e-4 l -5.40740796,-0.0067 v 0.0077 9.771582 0.0075 l 5.40836596,-0.0067 c 3.16e-4,0 4.91e-4,0 7.99e-4,0 6.43545304,0.021 11.94793444,4.496843 11.94793444,12.116231 0,6.282094 -5.3693634,11.375162 -11.99287644,11.375162 -5.87801996,0 -10.76475556,-4.01229 -11.79110956,-9.305907 h -12.107623 c 1.000825,11.816022 11.4004,20.9227791 23.89873256,20.9277701 C 13.848016,-4.3761369 24.586767,-14.561331 24.586826,-27.125445 c -3.3e-5,-7.107231 -3.423688,-13.251057 -8.794334,-17.251114 5.370621,-4.000057 8.794301,-10.142945 8.794334,-17.250154 -5.9e-5,-12.5641 -10.73881,-22.7493 -23.98575244,-22.74936 z"
         id="path4286" />
    </g>
  </g>
</svg>
