<?xml version="1.0" encoding="UTF-8" standalone="no"?>
<!-- Created with Inkscape (http://www.inkscape.org/) -->

<svg
   width="156.77524"
   height="230.75842"
   id="svg2"
   version="1.1"
   inkscape:version="1.1.2 (0a00cf5339, 2022-02-04)"
   sodipodi:docname="g2a-35.svg"
   xmlns:inkscape="http://www.inkscape.org/namespaces/inkscape"
   xmlns:sodipodi="http://sodipodi.sourceforge.net/DTD/sodipodi-0.dtd"
   xmlns="http://www.w3.org/2000/svg"
   xmlns:svg="http://www.w3.org/2000/svg"
   xmlns:rdf="http://www.w3.org/1999/02/22-rdf-syntax-ns#"
   xmlns:cc="http://creativecommons.org/ns#"
   xmlns:dc="http://purl.org/dc/elements/1.1/">
  <defs
     id="defs4" />
  <sodipodi:namedview
     id="base"
     pagecolor="#ffffff"
     bordercolor="#666666"
     borderopacity="1.0"
     inkscape:pageopacity="0.0"
     inkscape:pageshadow="2"
     inkscape:zoom="2.0000001"
     inkscape:cx="113.24999"
     inkscape:cy="111.49999"
     inkscape:document-units="px"
     inkscape:current-layer="layer5"
     showgrid="false"
     inkscape:window-width="1920"
     inkscape:window-height="1007"
     inkscape:window-x="0"
     inkscape:window-y="0"
     inkscape:window-maximized="1"
     fit-margin-top="0"
     fit-margin-left="0"
     fit-margin-right="0"
     fit-margin-bottom="0"
     inkscape:pagecheckerboard="0" />
  <metadata
     id="metadata7">
    <rdf:RDF>
      <cc:Work
         rdf:about="">
        <dc:format>image/svg+xml</dc:format>
        <dc:type
           rdf:resource="http://purl.org/dc/dcmitype/StillImage" />
        <dc:title />
      </cc:Work>
    </rdf:RDF>
  </metadata>
  <g
     inkscape:groupmode="layer"
     id="layer5"
     inkscape:label="schwarz"
     transform="translate(-115.27474,107.26884)"
     style="display:inline">
    <rect
       style="fill:#ffd815;fill-opacity:1;stroke:#ffffff;stroke-width:16;stroke-linecap:round;stroke-linejoin:round;stroke-miterlimit:4;stroke-dasharray:none;stroke-opacity:1"
       id="rect4663"
       width="140.77524"
       height="214.75842"
       x="123.27474"
       y="-99.268845" />
    <g
       id="g833"
       transform="translate(7.5388166,10.584351)">
      <path
         style="display:inline;fill:#000000;fill-opacity:1;stroke:#ffffff;stroke-width:0;stroke-miterlimit:4;stroke-dasharray:none;stroke-opacity:0.413897"
         d="m 192.85436,-42.473984 v 0.08396 h -0.0142 v 10.570886 h 0.0142 V -0.13509874 H 204.021 c 0,-3.38144896 3.44991,-4.37089896 6.02281,-4.39231196 3.43016,0 6.37487,2.039051 6.37487,5.13244996 l -0.1,16.69195274 c 0,4.951355 -1.65635,8.9967 -6.1465,8.99986 -4.49563,-0.0029 -6.431,-3.103939 -6.431,-9.018905 h -10.86885 c 0,10.575578 4.66172,20.244445 17.29985,20.248072 10.41473,-0.0024 17.29699,-7.310264 17.29699,-16.26283 -0.019,-7.059445 0.059,-14.1193167 -0.0106,-21.17853474 -0.18005,-9.20878596 -6.07314,-14.11841426 -12.79283,-14.26977326 -3.64859,0.0026 -7.95182,1.659842 -10.64465,4.09538 v -21.729403 h 23.43748 v -10.570886 h -25.6231 v -0.08396 h -8.98102 z"
         id="rect4407"
         inkscape:connector-curvature="0"
         sodipodi:nodetypes="ccccccccccccccccccccccccc" />
      <path
         inkscape:connector-curvature="0"
         style="display:inline;fill:#000000;fill-opacity:1;stroke:none;stroke-width:0.608329;stroke-opacity:0.392046"
         d="m 164.68609,-42.473907 c -10.42127,0.005 -19.09255,9.111742 -19.92705,20.927771 h 10.09548 c 0.85579,-5.293616 4.9304,-9.305906 9.83157,-9.305906 5.52276,1e-6 9.99979,5.093066 9.99979,11.375161 0,7.61976 -4.59682,12.0956769 -9.96312,12.1162293 h -0.001 l -4.50876,-0.00671 v 0.00763 9.7715815 0.00763 l 4.50955,-0.00671 c 2.7e-4,0 4.1e-4,-4.9e-6 10e-4,0 5.36596,0.021006 9.96232,4.4968414 9.96232,12.1162252 0,6.282097 -4.47703,11.375162 -9.99979,11.375162 -4.90117,0 -8.97578,-4.012291 -9.83157,-9.305905 h -10.09548 c 0.8345,11.816027 9.50578,20.922779 19.92705,20.927768 11.04544,-5.4e-5 19.99954,-10.185255 19.99959,-22.749365 -2e-5,-7.1072302 -2.85471,-13.2510537 -7.33282,-17.2511153 4.47809,-4.0000561 7.33279,-10.1429447 7.33282,-17.2501557 -5e-5,-12.564106 -8.95415,-22.74931 -19.99959,-22.749364 z"
         id="path4286" />
    </g>
  </g>
</svg>
