<?xml version="1.0" encoding="UTF-8" standalone="no"?>
<!-- Created with Inkscape (http://www.inkscape.org/) -->

<svg
   width="156.77524"
   height="230.75842"
   id="svg2"
   version="1.1"
   inkscape:version="1.1.2 (0a00cf5339, 2022-02-04)"
   sodipodi:docname="g2a-25.svg"
   xmlns:inkscape="http://www.inkscape.org/namespaces/inkscape"
   xmlns:sodipodi="http://sodipodi.sourceforge.net/DTD/sodipodi-0.dtd"
   xmlns="http://www.w3.org/2000/svg"
   xmlns:svg="http://www.w3.org/2000/svg"
   xmlns:rdf="http://www.w3.org/1999/02/22-rdf-syntax-ns#"
   xmlns:cc="http://creativecommons.org/ns#"
   xmlns:dc="http://purl.org/dc/elements/1.1/"
   xmlns:sketch="http://www.bohemiancoding.com/sketch/ns">
  <defs
     id="defs4" />
  <sodipodi:namedview
     id="base"
     pagecolor="#ffffff"
     bordercolor="#666666"
     borderopacity="1.0"
     inkscape:pageopacity="0.0"
     inkscape:pageshadow="2"
     inkscape:zoom="1.0000001"
     inkscape:cx="80.499992"
     inkscape:cy="145.99999"
     inkscape:document-units="px"
     inkscape:current-layer="layer5"
     showgrid="false"
     inkscape:window-width="1920"
     inkscape:window-height="1007"
     inkscape:window-x="0"
     inkscape:window-y="0"
     inkscape:window-maximized="1"
     fit-margin-top="0"
     fit-margin-left="0"
     fit-margin-right="0"
     fit-margin-bottom="0"
     inkscape:pagecheckerboard="0" />
  <metadata
     id="metadata7">
    <rdf:RDF>
      <cc:Work
         rdf:about="">
        <dc:format>image/svg+xml</dc:format>
        <dc:type
           rdf:resource="http://purl.org/dc/dcmitype/StillImage" />
        <dc:title />
      </cc:Work>
    </rdf:RDF>
  </metadata>
  <g
     inkscape:groupmode="layer"
     id="layer5"
     inkscape:label="schwarz"
     transform="translate(-115.27474,107.26884)"
     style="display:inline">
    <rect
       style="fill:#ffd815;fill-opacity:1;stroke:#ffffff;stroke-width:16;stroke-linecap:round;stroke-linejoin:round;stroke-miterlimit:4;stroke-dasharray:none;stroke-opacity:1"
       id="rect4663"
       width="140.77524"
       height="214.75842"
       x="123.27474"
       y="-99.268845" />
    <g
       id="g831"
       transform="translate(3.7227424,7.6057873)">
      <path
         style="display:inline;fill:#000000;fill-opacity:1;stroke:#ffffff;stroke-width:0;stroke-miterlimit:4;stroke-dasharray:none;stroke-opacity:0.413897"
         d="m 200.67815,-39.49542 v 0.08396 h -0.0142 v 10.570886 h 0.0142 V 2.8434646 h 11.16664 c 0,-3.3814489 3.44991,-4.3708989 6.02281,-4.3923119 3.43016,0 6.37487,2.039051 6.37487,5.1324499 l -0.1,16.6919534 c 0,4.951355 -1.65635,8.9967 -6.1465,8.999861 -4.49563,-0.0029 -6.431,-3.103939 -6.431,-9.018905 h -10.86885 c 0,10.575577 4.66172,20.244444 17.29985,20.248071 10.41473,-0.0024 17.29699,-7.310264 17.29699,-16.262829 -0.019,-7.059446 0.059,-14.119318 -0.0106,-21.1785364 -0.18005,-9.2087859 -6.07314,-14.1184136 -12.79283,-14.2697726 -3.64859,0.0026 -7.95182,1.6598417 -10.64465,4.0953797 V -28.840578 h 23.43748 v -10.570886 h -25.6231 v -0.08396 h -8.98102 z"
         id="rect4407"
         inkscape:connector-curvature="0"
         sodipodi:nodetypes="ccccccccccccccccccccccccc" />
      <g
         id="layer6-4"
         transform="matrix(0.46454817,0,0,0.46454817,145.38841,-43.549574)"
         sketch:type="MSShapeGroup"
         style="display:inline;fill:#000000;fill-opacity:1;stroke:none">
        <g
           id="g3807"
           transform="translate(0.011049,-0.403379)"
           style="fill:#000000;fill-opacity:1">
          <path
             d="M 91.849356,181.34082 H 0.53967 V 152.27295 L 62.510853,72.626777 C 91.847263,34.419437 21.301751,20.500446 21.301751,58.010163 v 14.52935 H -1.7784043 c 0,0 0,8.585168 0,-12.95236 0,-21.537528 9.8497381,-50.456677 50.0920463,-50.456677 40.242308,0 59.906888,45.479872 36.474377,75.369293 L 30.041034,152.43035 h 61.808322 v 28.91047"
             id="path3774"
             inkscape:connector-curvature="0"
             style="fill:#000000;fill-opacity:1"
             sodipodi:nodetypes="cccczcczzcccc" />
        </g>
      </g>
    </g>
  </g>
</svg>
