<?xml version="1.0" encoding="UTF-8" standalone="no"?>
<!-- Created with Inkscape (http://www.inkscape.org/) -->

<svg
   xmlns:dc="http://purl.org/dc/elements/1.1/"
   xmlns:cc="http://creativecommons.org/ns#"
   xmlns:rdf="http://www.w3.org/1999/02/22-rdf-syntax-ns#"
   xmlns:svg="http://www.w3.org/2000/svg"
   xmlns="http://www.w3.org/2000/svg"
   xmlns:sodipodi="http://sodipodi.sourceforge.net/DTD/sodipodi-0.dtd"
   xmlns:inkscape="http://www.inkscape.org/namespaces/inkscape"
   version="1.0"
   width="32"
   height="16.05554"
   id="svg25084"
   inkscape:version="0.91 r13725"
   sodipodi:docname="bridge.svg"
   inkscape:export-filename="/home/michael/Entwicklung/OpenRailwayMap/styles/icons/buridge-32.png"
   inkscape:export-xdpi="90"
   inkscape:export-ydpi="90">
  <metadata
     id="metadata9">
    <rdf:RDF>
      <cc:Work
         rdf:about="">
        <dc:format>image/svg+xml</dc:format>
        <dc:type
           rdf:resource="http://purl.org/dc/dcmitype/StillImage" />
        <dc:title></dc:title>
      </cc:Work>
    </rdf:RDF>
  </metadata>
  <sodipodi:namedview
     pagecolor="#ffffff"
     bordercolor="#666666"
     borderopacity="1"
     objecttolerance="10"
     gridtolerance="10"
     guidetolerance="10"
     inkscape:pageopacity="0"
     inkscape:pageshadow="2"
     inkscape:window-width="640"
     inkscape:window-height="480"
     id="namedview7"
     showgrid="false"
     inkscape:zoom="5.6568543"
     inkscape:cx="13.713951"
     inkscape:cy="11.990286"
     inkscape:current-layer="svg25084"
     fit-margin-top="0"
     fit-margin-left="0"
     fit-margin-right="0"
     fit-margin-bottom="0" />
  <defs
     id="defs25086" />
  <path
     style="color:#000000;display:inline;overflow:visible;visibility:visible;fill:#747474;fill-opacity:1;fill-rule:evenodd;stroke:none;stroke-width:1px;stroke-linecap:butt;stroke-linejoin:miter;stroke-miterlimit:4;stroke-dasharray:none;stroke-dashoffset:0;stroke-opacity:1;marker:none;enable-background:accumulate"
     d="m 0,0 32,0.1149998 -0.582017,5.8914054 -3.118696,0 0,-2.772036 c 0,-2.9454359 -3.580726,-3.0609433 -3.580726,0 l 0,8.2012278 -1.246813,2.159193 -1.393269,-0.373325 0,-6.5244398 c 0,-7.6870394 -11.801068,-7.6219286 -11.801068,0 l 0,8.6654708 -2.3074078,0 0,-6.4684086 0,-5.6597182 c 0,-3.0031897 -3.0619055,-2.9571043 -3.0619055,2.158e-4 l 0,6.0060244 -2.9444737,0 z"
     id="path4160"
     inkscape:connector-curvature="0"
     sodipodi:nodetypes="ccccsscccsscccssccc" />
  <path
     style="color:#000000;display:inline;overflow:visible;visibility:visible;fill:#000000;fill-opacity:1;fill-rule:evenodd;stroke:none;stroke-width:1px;stroke-linecap:butt;stroke-linejoin:miter;stroke-miterlimit:4;stroke-dasharray:none;stroke-dashoffset:0;stroke-opacity:1;marker:none;enable-background:accumulate"
     d="m 0,0.2299995 c 2.310146,1.2705803 3.3497116,1.6181431 3.580726,2.8887233 0.2310146,1.2705802 0.8085512,2.772175 1.963624,4.2737698 1.155073,1.5015948 2.6566678,2.1946386 2.8876824,3.9272484 0.2310146,1.732609 1.5015948,3.580727 2.6566676,3.696234 1.155073,0.115509 7.354335,0.319719 8.54754,0 1.193204,-0.319718 3.324426,-2.601543 3.927248,-4.851307 C 24.166311,7.9149043 27.120297,5.7332608 28.299693,4.5538642 30.804024,2.6254842 30.917064,0.1466775 32,0.1149998 l 0,15.9405402 -32,0 z"
     id="path4154"
     inkscape:connector-curvature="0"
     sodipodi:nodetypes="cssssssccccc" />
</svg>
