<?xml version="1.0" encoding="UTF-8" standalone="no"?>
<svg
   xmlns:dc="http://purl.org/dc/elements/1.1/"
   xmlns:cc="http://creativecommons.org/ns#"
   xmlns:rdf="http://www.w3.org/1999/02/22-rdf-syntax-ns#"
   xmlns:svg="http://www.w3.org/2000/svg"
   xmlns="http://www.w3.org/2000/svg"
   xmlns:xlink="http://www.w3.org/1999/xlink"
   width="2.0582378mm"
   height="3.6950369mm"
   viewBox="0 0 7.2929685 13.09265"
   id="svg2"
   version="1.1">
  <defs
     id="defs4">
    <radialGradient
       xlink:href="#linearGradient4152"
       id="radialGradient4158"
       cx="12.921565"
       cy="-1.2380347"
       fx="12.921565"
       fy="-1.2380347"
       r="2.1146162"
       gradientUnits="userSpaceOnUse"
       gradientTransform="matrix(0.91552028,0,0,0.91552028,4236.0272,2598.7592)" />
    <linearGradient
       id="linearGradient4152">
      <stop
         style="stop-color:#ff0300;stop-opacity:1"
         offset="0"
         id="stop4154" />
      <stop
         style="stop-color:#ff0000;stop-opacity:0.45188284"
         offset="1"
         id="stop4156" />
    </linearGradient>
  </defs>
  <metadata
     id="metadata7">
    <rdf:RDF>
      <cc:Work
         rdf:about="">
        <dc:format>image/svg+xml</dc:format>
        <dc:type
           rdf:resource="http://purl.org/dc/dcmitype/StillImage" />
        <dc:title></dc:title>
      </cc:Work>
    </rdf:RDF>
  </metadata>
  <g
     id="layer1"
     transform="translate(-4242.4279,-2596.8987)">
    <path
       style="color:#000000;display:inline;overflow:visible;visibility:visible;fill:#000000;fill-opacity:1;fill-rule:evenodd;stroke:none;stroke-width:5;stroke-linecap:butt;stroke-linejoin:miter;stroke-miterlimit:4;stroke-dasharray:none;stroke-dashoffset:0;stroke-opacity:1;marker:none;enable-background:accumulate"
       d="m 4243.7706,2599.3852 1e-4,4.939 c 0.3209,0.048 0.6784,0.058 1.042,0.058 0.3637,0 0.7212,-0.011 1.0422,-0.058 l -1e-4,-4.939 c 0,0 -0.6317,-0.089 -1.0421,-0.089 -0.4104,0 -0.7549,0.03 -1.0421,0.089 z m -0.1552,4.9126 -0.024,-4.8739 c -0.8279,0.2208 -1.0912,0.7354 -1.0912,1.5809 l 0,2.1249 c 0,0.7332 0.4659,1.0415 1.1153,1.1681 z m 2.3947,-4.8759 c 0,1.6544 0.01,3.2456 10e-5,4.8759 0.6493,-0.1266 1.1152,-0.4349 1.1152,-1.1681 l 0,-2.1249 c 0,-0.8455 -0.2874,-1.3621 -1.1153,-1.5829 z"
       id="path4219" />
    <circle
       style="opacity:1;fill:#000000;fill-opacity:1;stroke:none;stroke-width:5;stroke-linecap:round;stroke-linejoin:miter;stroke-miterlimit:4;stroke-dasharray:none;stroke-opacity:1"
       id="path4221"
       cx="4244.813"
       cy="2597.8865"
       r="0.98780268" />
    <g
       id="g4253"
       style="fill:#000000;fill-opacity:1;stroke:none"
       transform="matrix(0.00527834,0,0,0.00527834,4220.1067,2596.2149)">
      <path
         id="path4225"
         d="m 4571.5458,2609.9914 c -52.0826,0 -94.3038,-42.2212 -94.2948,-95.1122 l 0.01,-935.0942 188.5714,0 0.01,935.0942 c 0.01,52.891 -42.2122,95.1122 -94.2948,95.1122 z"
         style="opacity:1;fill:#000000;fill-opacity:1;stroke:none;stroke-width:4.96335888;stroke-linecap:round;stroke-linejoin:miter;stroke-miterlimit:4;stroke-dasharray:none;stroke-opacity:1" />
      <path
         style="opacity:1;fill:#000000;fill-opacity:1;stroke:none;stroke-width:4.96335888;stroke-linecap:round;stroke-linejoin:miter;stroke-miterlimit:4;stroke-dasharray:none;stroke-opacity:1"
         d="m 4789.7387,2609.9914 c -52.0826,0 -94.3038,-42.2212 -94.2948,-95.1122 l 0.01,-935.0942 188.5714,0 0.01,935.0942 c 0.01,52.891 -42.2122,95.1122 -94.2948,95.1122 z"
         id="path4230" />
    </g>
    <path
       style="opacity:1;fill:#ff0000;fill-opacity:1;stroke:none;stroke-width:1;stroke-linecap:round;stroke-linejoin:miter;stroke-miterlimit:4;stroke-dasharray:none;stroke-opacity:1"
       d="m -0.07226562,6.9765625 0,1.3945313 1.45898442,0 1.4589843,0 1.4589844,0 1.4570313,0 0,-1.3945313 -1.4570313,0 -1.4589844,0 -1.4589843,0 -1.45898442,0 z m 5.83593752,0 0,1.3945313 1.4570312,0 0,-1.3945313 -1.4570312,0 z"
       transform="translate(4242.5002,2595.689)"
       id="rect4021" />
  </g>
</svg>
