<?xml version="1.0" encoding="UTF-8" standalone="no"?>
<!-- Created with Inkscape (http://www.inkscape.org/) -->

<svg
   xmlns:dc="http://purl.org/dc/elements/1.1/"
   xmlns:cc="http://creativecommons.org/ns#"
   xmlns:rdf="http://www.w3.org/1999/02/22-rdf-syntax-ns#"
   xmlns:svg="http://www.w3.org/2000/svg"
   xmlns="http://www.w3.org/2000/svg"
   version="1.1"
   width="270.08646"
   height="607.4328"
   id="svg3045">
  <metadata
     id="metadata3051">
    <rdf:RDF>
      <cc:Work
         rdf:about="">
        <dc:format>image/svg+xml</dc:format>
        <dc:type
           rdf:resource="http://purl.org/dc/dcmitype/StillImage" />
        <dc:title></dc:title>
      </cc:Work>
    </rdf:RDF>
  </metadata>
  <defs
     id="defs3049">
    <filter
       color-interpolation-filters="sRGB"
       id="filter3005">
      <feGaussianBlur
         id="feGaussianBlur3007"
         stdDeviation="3" />
    </filter>
  </defs>
  <g
     transform="matrix(0.16258587,0,0,0.38536712,108.03432,-279.40465)"
     id="g4050"
     style="fill:#626262;fill-opacity:1">
    <path
       d="m 31.077636,1693.8467 270.086464,0 0,607.4328 -270.086464,0 z"
       id="path4052"
       style="fill:#626262;fill-opacity:1;stroke:none" />
  </g>
  <g
     transform="matrix(0.90046833,0,0,0.90046833,-14.334435,-1526.1951)"
     id="layer1"
     style="fill:#000000;fill-opacity:1">
    <path
       d="m 31.077636,1693.8467 270.086464,0 0,437.36 -270.086464,0 z"
       id="rect2982"
       style="fill:#000000;fill-opacity:1;stroke:none" />
  </g>
  <path
     d="m 184.83706,268.42377 a 49.584912,49.584912 0 0 1 -99.169825,0 49.584912,49.584912 0 1 1 99.169825,0 z"
     id="path3964"
     style="fill:#ffb500;fill-opacity:1;stroke:none" />
  <path
     d="m 45.38491,26.573359 179.73447,0 0,335.946411 -179.734469,0.43726 z"
     id="rect3966"
     style="fill:none;stroke:#ffb500;stroke-width:13.50702477;stroke-miterlimit:4;stroke-opacity:1" />
  <path
     d="m 12.194693,407.9711 121.001657,199.4617 124.69541,-199.4617 -245.697067,0 z m 27.89406,17.7047 188.889967,0 -95.78238,153.3537 -93.107587,-153.3537 z"
     id="path3862"
     style="color:#000000;fill:#000000;fill-opacity:1;stroke:none;stroke-width:3.79999995;marker:none;visibility:visible;display:inline;overflow:visible;enable-background:accumulate" />
  <path
     d="m 133.60831,579.073 -92.996747,-153.3646 188.863317,0 z"
     id="path3866"
     style="color:#000000;fill:#ffffff;fill-opacity:1;stroke:none;stroke-width:3.79999995;marker:none;visibility:visible;display:inline;overflow:visible;enable-background:accumulate" />
</svg>
