<?xml version="1.0" encoding="UTF-8" standalone="no"?>
<!-- Created with Inkscape (http://www.inkscape.org/) -->

<svg
   xmlns:dc="http://purl.org/dc/elements/1.1/"
   xmlns:cc="http://creativecommons.org/ns#"
   xmlns:rdf="http://www.w3.org/1999/02/22-rdf-syntax-ns#"
   xmlns:svg="http://www.w3.org/2000/svg"
   xmlns="http://www.w3.org/2000/svg"
   version="1.1"
   width="305.50787"
   height="674.09393"
   id="svg3045">
  <metadata
     id="metadata3051">
    <rdf:RDF>
      <cc:Work
         rdf:about="">
        <dc:format>image/svg+xml</dc:format>
        <dc:type
           rdf:resource="http://purl.org/dc/dcmitype/StillImage" />
        <dc:title></dc:title>
      </cc:Work>
    </rdf:RDF>
  </metadata>
  <defs
     id="defs3049">
    <filter
       color-interpolation-filters="sRGB"
       id="filter3005">
      <feGaussianBlur
         stdDeviation="3"
         id="feGaussianBlur3007" />
    </filter>
  </defs>
  <g
     transform="matrix(0.18055707,0,0,0.3771008,122.75964,-193.72041)"
     id="g4050"
     style="fill:#626262;fill-opacity:1">
    <path
       d="m 31.077636,1693.8467 270.086464,0 0,607.4328 -270.086464,0 z"
       id="path4052"
       style="fill:#626262;fill-opacity:1;stroke:none" />
  </g>
  <g
     transform="translate(-31.077636,-1693.8467)"
     id="layer1"
     style="fill:#000000;fill-opacity:1">
    <path
       d="m 31.077636,1731.0392 38.519878,-37.1925 235.773336,0 31.21466,31.8793 0,422.7398 -305.507874,0 z"
       id="rect2982"
       style="fill:#000000;fill-opacity:1;stroke:none" />
  </g>
  <path
     d="m 296.59222,362.6508 a 51.79158,51.79158 0 0 1 -103.58316,0 51.79158,51.79158 0 1 1 103.58316,0 z"
     id="path3964"
     style="fill:#ffb500;fill-opacity:1;stroke:none" />
  <path
     d="m 112.49881,362.6508 a 51.79158,51.79158 0 0 1 -103.5831568,0 51.79158,51.79158 0 1 1 103.5831568,0 z"
     id="path3845"
     style="fill:#ffb500;fill-opacity:1;stroke:none" />
  <path
     d="m 29.905402,474.63223 121.001658,199.4617 124.69541,-199.4617 -245.697068,0 z m 27.89406,17.7047 188.889968,0 -95.78238,153.3537 -93.107588,-153.3537 z"
     id="path3862"
     style="color:#000000;fill:#000000;fill-opacity:1;stroke:none;stroke-width:3.79999995;marker:none;visibility:visible;display:inline;overflow:visible;enable-background:accumulate" />
  <path
     d="m 151.31902,645.73413 -92.996748,-153.3646 188.863318,0 z"
     id="path3866"
     style="color:#000000;fill:#ffffff;fill-opacity:1;stroke:none;stroke-width:3.79999995;marker:none;visibility:visible;display:inline;overflow:visible;enable-background:accumulate" />
</svg>
