<?xml version="1.0" encoding="UTF-8" standalone="no"?>
<!-- Created with Inkscape (http://www.inkscape.org/) -->

<svg
   xmlns:dc="http://purl.org/dc/elements/1.1/"
   xmlns:cc="http://creativecommons.org/ns#"
   xmlns:rdf="http://www.w3.org/1999/02/22-rdf-syntax-ns#"
   xmlns:svg="http://www.w3.org/2000/svg"
   xmlns="http://www.w3.org/2000/svg"
   version="1.1"
   width="911.4317"
   height="1928.3722"
   id="svg2">
  <defs
     id="defs4" />
  <metadata
     id="metadata7">
    <rdf:RDF>
      <cc:Work
         rdf:about="">
        <dc:format>image/svg+xml</dc:format>
        <dc:type
           rdf:resource="http://purl.org/dc/dcmitype/StillImage" />
        <dc:title></dc:title>
      </cc:Work>
    </rdf:RDF>
  </metadata>
  <g
     transform="translate(-208.10806,-117.10583)"
     id="layer1"
     style="display:inline" />
  <g
     transform="matrix(1,0,0,1.4245927,-208.10773,9.105926)"
     id="layer3"
     style="display:inline">
    <rect
       width="37.375641"
       height="1264.7109"
       x="389.91888"
       y="3.8238351"
       id="rect4911"
       style="fill:#000000;fill-opacity:1;stroke:none" />
  </g>
  <g
     transform="translate(-208.10773,-229.19543)"
     id="layer7"
     style="display:inline">
    <g
       transform="matrix(0.37267254,-0.92796292,0.92796292,0.37267254,-698.91724,1128.115)"
       id="g4903">
      <path
         d="m 478.93954,1195.4033 c -26.33725,-15.2058 -35.36126,-48.8839 -20.15545,-75.2212 0.95037,-1.646 1.99278,-3.2367 3.08118,-4.7458 l 51.35404,-88.9478 c 0.76275,-1.6971 1.60059,-3.3632 2.55096,-5.0093 15.20583,-26.33727 48.8839,-35.36129 75.22116,-20.1555 26.33726,15.2059 35.36127,48.8839 20.15545,75.2212 -0.21601,0.3741 -0.45493,0.7338 -0.67825,1.101 l 0.032,0.018 -57.90948,100.3021 -0.096,-0.055 c -15.89014,24.2401 -48.13906,32.1664 -73.55558,17.4921 z"
         id="path4374"
         style="fill:#000000;fill-opacity:1;stroke:none;display:inline" />
      <path
         d="m 546.85151,1171.1889 a 47.156078,47.156078 0 0 0 -81.67671,-47.1561 47.156078,47.156078 0 1 0 81.67671,47.1561 z"
         id="path4376"
         style="fill:#ffe200;fill-opacity:1;stroke:none;display:inline" />
    </g>
    <g
       transform="matrix(0.63023445,0.77640488,-0.77640488,0.63023445,926.118,15.848195)"
       id="g3871">
      <path
         d="m 418.5714,498.07638 0,601.42862 -70,0 0,-601.42862"
         id="path3873"
         style="fill:#ffffff;fill-opacity:1;stroke:#bf2234;stroke-width:25.5;stroke-miterlimit:4;stroke-opacity:1;stroke-dasharray:none" />
      <path
         d="m 1082.8571,138.79076 a 73.571426,73.571426 0 1 1 -147.14282,0 73.571426,73.571426 0 1 1 147.14282,0 z"
         transform="matrix(0,-1.0165494,1.0165494,0,245.34088,1464.7795)"
         id="path3875"
         style="fill:#ffffff;fill-opacity:1;stroke:#bf2234;stroke-width:25.5;stroke-linecap:round;stroke-linejoin:round;stroke-miterlimit:4;stroke-opacity:1;stroke-dasharray:none;stroke-dashoffset:0" />
    </g>
  </g>
  <g
     transform="matrix(1.1818232,0,0,1.1818232,128.82112,847.16679)"
     id="g4596"
     style="display:inline">
    <path
       d="m 61.071429,914.86218 -34.642858,-27.85714 -1.785714,-440 69.642857,0 0,440 z"
       id="path4513"
       style="color:#000000;fill:#ffffff;fill-opacity:1;stroke:none;stroke-width:1px;marker:none;visibility:visible;display:inline;overflow:visible;enable-background:accumulate" />
    <path
       d="m 38.650654,461.56738 42.857143,0 0,418.57144 -21.428571,16.78571 -21.428572,-16.78571 z"
       id="path4515"
       style="fill:#dd9501;fill-opacity:1;stroke:#000000;stroke-width:8.5;stroke-miterlimit:4;stroke-opacity:1;display:inline" />
  </g>
  <g
     transform="matrix(1.1818245,0,0,1.1818245,-45.020046,725.77889)"
     id="layer12"
     style="display:inline">
    <g
       transform="matrix(0.9999989,0,0,0.9999989,149.30979,102.85822)"
       id="g4587"
       style="display:inline">
      <path
         d="m 187.14285,253.07646 a 132.14285,132.14285 0 1 1 -264.285703,0 132.14285,132.14285 0 1 1 264.285703,0 z"
         transform="matrix(1.2524472,0,0,1.2524472,-14.598881,-60.317015)"
         id="path4589"
         style="fill:#ffffff;fill-opacity:1;stroke:none" />
      <path
         d="m 187.14285,253.07646 a 132.14285,132.14285 0 1 1 -264.285703,0 132.14285,132.14285 0 1 1 264.285703,0 z"
         transform="translate(-1.4285714,5.7142858)"
         id="path4591"
         style="fill:#dd9501;fill-opacity:1;stroke:#000000;stroke-width:13;stroke-miterlimit:4;stroke-opacity:1;stroke-dasharray:none" />
    </g>
  </g>
  <path
     d="m 295.57701,1549.6447 c -29.77398,0 -53.9111,-24.1371 -53.9111,-53.9111 0,-1.8608 0.10517,-3.7198 0.28926,-5.5321 l 0,-100.5545 c -0.18405,-1.8123 -0.28926,-3.6351 -0.28926,-5.496 0,-29.7739 24.13712,-53.9111 53.9111,-53.9111 29.77399,0 53.9111,24.1372 53.9111,53.9111 0,0.423 -0.0265,0.8449 -0.0361,1.2656 l 0.0361,0 0,113.3904 -0.10842,0 c -1.60681,28.3309 -25.06954,50.8377 -53.80263,50.8377 z"
     id="path4582"
     style="fill:#000000;fill-opacity:1;stroke:none;display:inline" />
  <path
     d="m 88.904894,1534.4888 c -29.77398,0 -53.911103,24.1372 -53.911103,53.9111 0,1.8609 0.10521,3.7199 0.289261,5.5322 l 0,100.5545 c -0.184051,1.8123 -0.289261,3.6351 -0.289261,5.4959 0,29.774 24.137123,53.9111 53.911103,53.9111 29.773976,0 53.911096,-24.1371 53.911096,-53.9111 0,-0.4229 -0.0265,-0.8449 -0.0361,-1.2655 l 0.0361,0 0,-113.3905 -0.10841,0 c -1.60682,-28.3308 -25.06956,-50.8377 -53.802626,-50.8377 z"
     id="rect3803"
     style="fill:#000000;fill-opacity:1;stroke:none;display:inline" />
  <path
     d="m 134.63182,1695.7923 a 46.167311,46.167311 0 0 1 -92.334549,0 46.167311,46.167311 0 1 1 92.334549,0 z"
     id="path3778"
     style="fill:#ffe200;fill-opacity:1;stroke:none" />
  <path
     d="m 341.30403,1388.3412 a 46.167335,46.167335 0 1 0 -92.33467,0 46.167335,46.167335 0 0 0 92.33467,0 z"
     id="path3778-3"
     style="fill:#ffe200;fill-opacity:1;stroke:none;display:inline" />
  <g
     transform="translate(-194.16179,-72.405204)"
     id="layer4"
     style="display:inline">
    <g
       id="g3831">
      <path
         d="m 955.71431,192.36218 -707.14289,0 0,-70 707.14289,0"
         id="rect3058"
         style="fill:#ffffff;fill-opacity:1;stroke:#bf2234;stroke-width:25.5;stroke-miterlimit:4;stroke-opacity:1;stroke-dasharray:none" />
      <path
         d="m 1082.8571,138.79076 a 73.571426,73.571426 0 1 1 -147.14282,0 73.571426,73.571426 0 1 1 147.14282,0 z"
         transform="matrix(1.0165494,0,0,1.0165494,-8.1316865,19.131662)"
         id="path3829"
         style="fill:#ffffff;fill-opacity:1;stroke:#bf2234;stroke-width:25.5;stroke-linecap:round;stroke-linejoin:round;stroke-miterlimit:4;stroke-opacity:1;stroke-dasharray:none;stroke-dashoffset:0" />
    </g>
    <g
       id="g4368">
      <path
         d="m 590.99146,218.45711 c 26.33725,15.20583 35.36126,48.88389 20.15545,75.22115 -0.95037,1.64607 -1.99278,3.23674 -3.08118,4.74585 l -51.35404,88.9478 c -0.76275,1.69712 -1.60059,3.36322 -2.55096,5.00931 -15.20583,26.33725 -48.8839,35.36127 -75.22116,20.15545 -26.33726,-15.20583 -35.36127,-48.88389 -20.15545,-75.22116 0.21601,-0.37413 0.45493,-0.73384 0.67825,-1.10101 l -0.032,-0.0184 57.90948,-100.30215 0.096,0.0553 c 15.89014,-24.24012 48.13906,-32.16642 73.55558,-17.4922 z"
         id="path4069"
         style="fill:#000000;fill-opacity:1;stroke:none;display:inline" />
      <path
         d="m 523.07949,242.67149 a 47.156072,47.156072 0 0 0 81.67671,47.15607 47.156072,47.156072 0 1 0 -81.67671,-47.15607 z"
         id="path4071"
         style="fill:#bf2234;fill-opacity:1;stroke:none;display:inline" />
    </g>
  </g>
</svg>
