<?xml version="1.0" encoding="UTF-8" standalone="no"?>
<!-- Created with Inkscape (http://www.inkscape.org/) -->

<svg
   xmlns:dc="http://purl.org/dc/elements/1.1/"
   xmlns:cc="http://creativecommons.org/ns#"
   xmlns:rdf="http://www.w3.org/1999/02/22-rdf-syntax-ns#"
   xmlns:svg="http://www.w3.org/2000/svg"
   xmlns="http://www.w3.org/2000/svg"
   version="1.1"
   width="807.85901"
   height="2391.531"
   id="svg2">
  <defs
     id="defs4" />
  <metadata
     id="metadata7">
    <rdf:RDF>
      <cc:Work
         rdf:about="">
        <dc:format>image/svg+xml</dc:format>
        <dc:type
           rdf:resource="http://purl.org/dc/dcmitype/StillImage" />
        <dc:title></dc:title>
      </cc:Work>
    </rdf:RDF>
  </metadata>
  <g
     transform="translate(-163.08801,305.83578)"
     id="layer1"
     style="display:inline" />
  <g
     transform="matrix(1,0,0,1.6461252,-163.08768,303.36404)"
     id="layer3"
     style="display:inline">
    <rect
       width="37.375641"
       height="1264.7109"
       x="389.91888"
       y="3.8238351"
       id="rect4911"
       style="fill:#000000;fill-opacity:1;stroke:none" />
  </g>
  <g
     transform="translate(-163.08768,305.83472)"
     id="layer5"
     style="display:inline">
    <g
       transform="matrix(0.77500628,-0.63195353,0.63195353,0.77500628,-6.9145195,301.0174)"
       id="g3835">
      <path
         d="m 955.71431,192.36218 -707.14289,0 0,-70 707.14289,0"
         id="path3837"
         style="fill:#ffffff;fill-opacity:1;stroke:#bf2234;stroke-width:25.5;stroke-miterlimit:4;stroke-opacity:1;stroke-dasharray:none" />
      <path
         d="m 1082.8571,138.79076 a 73.571426,73.571426 0 1 1 -147.14282,0 73.571426,73.571426 0 1 1 147.14282,0 z"
         transform="matrix(1.0165494,0,0,1.0165494,-8.1316865,19.131662)"
         id="path3839"
         style="fill:#ffffff;fill-opacity:1;stroke:#bf2234;stroke-width:25.5;stroke-linecap:round;stroke-linejoin:round;stroke-miterlimit:4;stroke-opacity:1;stroke-dasharray:none;stroke-dashoffset:0" />
    </g>
    <path
       d="m 503.4231,154.16916 c 27.2035,-13.59573 60.27827,-2.56427 73.8741,24.63922 0.84969,1.70021 1.60236,3.44657 2.26183,5.18659 l 45.91613,91.87287 c 0.99578,1.57187 1.92425,3.18925 2.77394,4.88945 13.59572,27.20349 2.56415,60.27837 -24.63913,73.87409 -27.2034,13.59573 -60.27848,2.56426 -73.8741,-24.63924 -0.19323,-0.38648 -0.36159,-0.78401 -0.54493,-1.1728 l -0.033,0.017 -51.77742,-103.60055 0.099,-0.0502 c -11.46869,-26.61876 -0.30888,-57.89615 25.94339,-71.01649 z"
       id="path4298"
       style="fill:#000000;fill-opacity:1;stroke:none;display:inline" />
    <path
       d="m 620.84185,284.62447 a 47.156074,47.156074 0 0 0 -84.36284,42.16269 47.156074,47.156074 0 1 0 84.36284,-42.16269 z"
       id="path4616"
       style="fill:#3de0b7;fill-opacity:1;stroke:none;display:inline" />
  </g>
  <g
     transform="translate(-163.08768,193.74618)"
     id="layer7"
     style="display:inline">
    <g
       transform="matrix(0.37267254,-0.92796292,0.92796292,0.37267254,-698.91724,1128.115)"
       id="g4903">
      <path
         d="m 478.93954,1195.4033 c -26.33725,-15.2058 -35.36126,-48.8839 -20.15545,-75.2212 0.95037,-1.646 1.99278,-3.2367 3.08118,-4.7458 l 51.35404,-88.9478 c 0.76275,-1.6971 1.60059,-3.3632 2.55096,-5.0093 15.20583,-26.33727 48.8839,-35.36129 75.22116,-20.1555 26.33726,15.2059 35.36127,48.8839 20.15545,75.2212 -0.21601,0.3741 -0.45493,0.7338 -0.67825,1.101 l 0.032,0.018 -57.90948,100.3021 -0.096,-0.055 c -15.89014,24.2401 -48.13906,32.1664 -73.55558,17.4921 z"
         id="path4374"
         style="fill:#000000;fill-opacity:1;stroke:none;display:inline" />
      <path
         d="m 546.85151,1171.1889 a 47.156078,47.156078 0 0 0 -81.67671,-47.1561 47.156078,47.156078 0 1 0 81.67671,47.1561 z"
         id="path4376"
         style="fill:#ffe200;fill-opacity:1;stroke:none;display:inline" />
    </g>
    <g
       transform="matrix(0.63023445,0.77640488,-0.77640488,0.63023445,926.118,15.848195)"
       id="g3871">
      <path
         d="m 418.5714,498.07638 0,601.42862 -70,0 0,-601.42862"
         id="path3873"
         style="fill:#ffffff;fill-opacity:1;stroke:#bf2234;stroke-width:25.5;stroke-miterlimit:4;stroke-opacity:1;stroke-dasharray:none" />
      <path
         d="m 1082.8571,138.79076 a 73.571426,73.571426 0 1 1 -147.14282,0 73.571426,73.571426 0 1 1 147.14282,0 z"
         transform="matrix(0,-1.0165494,1.0165494,0,245.34088,1464.7795)"
         id="path3875"
         style="fill:#ffffff;fill-opacity:1;stroke:#bf2234;stroke-width:25.5;stroke-linecap:round;stroke-linejoin:round;stroke-miterlimit:4;stroke-opacity:1;stroke-dasharray:none;stroke-dashoffset:0" />
    </g>
  </g>
  <g
     transform="matrix(1.1818245,0,0,1.1818245,0,1148.7205)"
     id="layer11"
     style="display:inline">
    <path
       d="m 13.646835,739.70336 c -18.19578,18.19579 -18.19578,47.69765 0,65.89344 1.137239,1.13724 2.337587,2.209 3.557626,3.20408 l 61.451935,61.45193 c 0.995082,1.22004 2.044738,2.39829 3.181977,3.53553 18.195787,18.19579 47.697657,18.19579 65.893447,0 18.19578,-18.19579 18.19578,-47.69765 0,-65.89344 -0.25849,-0.25848 -0.53253,-0.50017 -0.7955,-0.7513 l 0.0221,-0.0221 -69.296389,-69.29638 -0.06629,0.0663 C 59.299905,721.55951 31.206506,722.14371 13.646845,739.70337 z"
       id="path4674"
       style="fill:#000000;fill-opacity:1;stroke:none;display:inline" />
  </g>
  <g
     transform="matrix(1.1818245,0,0,1.1818245,0,1148.7205)"
     id="layer8"
     style="display:inline">
    <path
       d="m 12.121832,743.76056 a 37.880722,37.880722 0 1 1 -75.761444,0 37.880722,37.880722 0 1 1 75.761444,0 z"
       transform="matrix(1.0533321,0,0,1.0533321,145.29852,57.201917)"
       id="path4495"
       style="fill:#ffe200;fill-opacity:1;stroke:none;display:inline" />
    <g
       transform="matrix(0.707106,-0.707106,0.707106,0.707106,-306.68458,340.30579)"
       id="g4596"
       style="display:inline">
      <path
         d="m 61.071429,914.86218 -34.642858,-27.85714 -1.785714,-440 69.642857,0 0,440 z"
         id="path4513"
         style="color:#000000;fill:#ffffff;fill-opacity:1;stroke:none;stroke-width:1px;marker:none;visibility:visible;display:inline;overflow:visible;enable-background:accumulate" />
      <path
         d="m 38.650654,461.56738 42.857143,0 0,418.57144 -21.428571,16.78571 -21.428572,-16.78571 z"
         id="path4515"
         style="fill:#dd9501;fill-opacity:1;stroke:#000000;stroke-width:8.5;stroke-miterlimit:4;stroke-opacity:1;display:inline" />
    </g>
    <path
       d="m 313.70168,583.51259 c -18.19579,18.19579 -47.69765,18.19579 -65.89344,0 -1.13724,-1.13724 -2.20902,-2.33757 -3.20408,-3.55763 l -61.45193,-61.45193 c -1.22004,-0.99508 -2.39829,-2.04474 -3.53553,-3.18198 -18.19579,-18.19579 -18.19579,-47.69765 0,-65.89344 18.19579,-18.19579 47.69765,-18.19579 65.89344,0 0.25848,0.25848 0.50015,0.53253 0.75134,0.79546 l 0.0221,-0.0221 69.29638,69.29639 -0.0662,0.0663 c 16.3319,18.29583 15.74771,46.38922 -1.81195,63.9489 z"
       id="path4612"
       style="fill:#000000;fill-opacity:1;stroke:none;display:inline" />
    <path
       d="m 12.121832,743.76056 a 37.880722,37.880722 0 1 1 -75.761444,0 37.880722,37.880722 0 1 1 75.761444,0 z"
       transform="matrix(0.7448183,-0.7448183,-0.7448183,-0.7448183,853.72146,1085.6992)"
       id="path4616-4"
       style="fill:#3de0b7;fill-opacity:1;stroke:none;display:inline" />
  </g>
  <g
     transform="matrix(1.1818245,0,0,1.1818245,0,1148.7205)"
     id="layer12"
     style="display:inline">
    <g
       transform="matrix(0.9999989,0,0,0.9999989,149.30979,102.85822)"
       id="g4587"
       style="display:inline">
      <path
         d="m 187.14285,253.07646 a 132.14285,132.14285 0 1 1 -264.285703,0 132.14285,132.14285 0 1 1 264.285703,0 z"
         transform="matrix(1.2524472,0,0,1.2524472,-14.598881,-60.317015)"
         id="path4589"
         style="fill:#ffffff;fill-opacity:1;stroke:none" />
      <path
         d="m 187.14285,253.07646 a 132.14285,132.14285 0 1 1 -264.285703,0 132.14285,132.14285 0 1 1 264.285703,0 z"
         transform="translate(-1.4285714,5.7142858)"
         id="path4591"
         style="fill:#dd9501;fill-opacity:1;stroke:#000000;stroke-width:13;stroke-miterlimit:4;stroke-opacity:1;stroke-dasharray:none" />
    </g>
  </g>
</svg>
