<?xml version="1.0" encoding="UTF-8" standalone="no"?>
<!-- Created with Inkscape (http://www.inkscape.org/) -->

<svg
   xmlns:dc="http://purl.org/dc/elements/1.1/"
   xmlns:cc="http://creativecommons.org/ns#"
   xmlns:rdf="http://www.w3.org/1999/02/22-rdf-syntax-ns#"
   xmlns:svg="http://www.w3.org/2000/svg"
   xmlns="http://www.w3.org/2000/svg"
   version="1.1"
   width="725.72888"
   height="1230.8053"
   id="svg2">
  <defs
     id="defs4" />
  <metadata
     id="metadata7">
    <rdf:RDF>
      <cc:Work
         rdf:about="">
        <dc:format>image/svg+xml</dc:format>
        <dc:type
           rdf:resource="http://purl.org/dc/dcmitype/StillImage" />
        <dc:title></dc:title>
      </cc:Work>
    </rdf:RDF>
  </metadata>
  <g
     transform="translate(-245.11955,305.72232)"
     id="layer1"
     style="display:inline" />
  <g
     transform="translate(-245.11955,305.72232)"
     id="layer3"
     style="display:inline">
    <rect
       width="37.375641"
       height="921.25916"
       x="389.91888"
       y="3.8238351"
       id="rect4911"
       style="fill:#000000;fill-opacity:1;stroke:none" />
  </g>
  <g
     transform="translate(-245.11955,305.72232)"
     id="layer5"
     style="display:inline">
    <g
       transform="matrix(0.77500628,-0.63195353,0.63195353,0.77500628,-6.9145195,301.0174)"
       id="g3835">
      <path
         d="m 955.71431,192.36218 -707.14289,0 0,-70 707.14289,0"
         id="path3837"
         style="fill:#ffffff;fill-opacity:1;stroke:#bf2234;stroke-width:25.5;stroke-miterlimit:4;stroke-opacity:1;stroke-dasharray:none" />
      <path
         d="m 1082.8571,138.79076 a 73.571426,73.571426 0 1 1 -147.14282,0 73.571426,73.571426 0 1 1 147.14282,0 z"
         transform="matrix(1.0165494,0,0,1.0165494,-8.1316865,19.131662)"
         id="path3839"
         style="fill:#ffffff;fill-opacity:1;stroke:#bf2234;stroke-width:25.5;stroke-linecap:round;stroke-linejoin:round;stroke-miterlimit:4;stroke-opacity:1;stroke-dasharray:none;stroke-dashoffset:0" />
    </g>
    <path
       d="m 503.4231,154.16916 c 27.2035,-13.59573 60.27827,-2.56427 73.8741,24.63922 0.84969,1.70021 1.60236,3.44657 2.26183,5.18659 l 45.91613,91.87287 c 0.99578,1.57187 1.92425,3.18925 2.77394,4.88945 13.59572,27.20349 2.56415,60.27837 -24.63913,73.87409 -27.2034,13.59573 -60.27848,2.56426 -73.8741,-24.63924 -0.19323,-0.38648 -0.36159,-0.78401 -0.54493,-1.1728 l -0.033,0.017 -51.77742,-103.60055 0.099,-0.0502 c -11.46869,-26.61876 -0.30888,-57.89615 25.94339,-71.01649 z"
       id="path4298"
       style="fill:#000000;fill-opacity:1;stroke:none;display:inline" />
    <path
       d="m 620.84185,284.62447 a 47.156074,47.156074 0 0 0 -84.36284,42.16269 47.156074,47.156074 0 1 0 84.36284,-42.16269 z"
       id="path4616"
       style="fill:#3de0b7;fill-opacity:1;stroke:none;display:inline" />
  </g>
</svg>
