<?xml version="1.0" encoding="UTF-8" standalone="no"?>
<!-- Created with Inkscape (http://www.inkscape.org/) -->

<svg
   xmlns:dc="http://purl.org/dc/elements/1.1/"
   xmlns:cc="http://creativecommons.org/ns#"
   xmlns:rdf="http://www.w3.org/1999/02/22-rdf-syntax-ns#"
   xmlns:svg="http://www.w3.org/2000/svg"
   xmlns="http://www.w3.org/2000/svg"
   version="1.1"
   width="112.196"
   height="332.24228"
   id="svg2984">
  <defs
     id="defs2986" />
  <metadata
     id="metadata2989">
    <rdf:RDF>
      <cc:Work
         rdf:about="">
        <dc:format>image/svg+xml</dc:format>
        <dc:type
           rdf:resource="http://purl.org/dc/dcmitype/StillImage" />
        <dc:title></dc:title>
      </cc:Work>
    </rdf:RDF>
  </metadata>
  <g
     transform="translate(12.466149,-857.90782)"
     id="layer1" />
  <g
     transform="translate(12.466149,-857.90782)"
     id="layer2"
     style="display:inline">
    <path
       d="m 0,873.06011 15.783634,-15.15229 56.189736,0 11.364215,12.12183 0,182.33255 -83.337585,0 0,-97.2272 z"
       id="rect4866"
       style="fill:#000000;fill-opacity:1;stroke:none" />
  </g>
  <g
     transform="translate(12.466149,0)"
     id="layer8">
    <rect
       width="6.4285712"
       height="138.5022"
       x="38.57143"
       y="193.7401"
       id="rect4010"
       style="fill:#000000;fill-opacity:1;stroke:none" />
  </g>
  <g
     transform="translate(12.466149,-50.80565)"
     id="layer4"
     style="display:none">
    <path
       d="m -41.416254,164.19525 a 6.8185296,6.8185296 0 1 1 -13.637059,0 6.8185296,6.8185296 0 1 1 13.637059,0 z"
       transform="matrix(1.4190262,0,0,1.4190262,87.386788,-110.9231)"
       id="path4895"
       style="fill:#a10625;fill-opacity:1;stroke:none" />
    <path
       d="m -41.416254,164.19525 a 6.8185296,6.8185296 0 1 1 -13.637059,0 6.8185296,6.8185296 0 1 1 13.637059,0 z"
       transform="matrix(1.4190262,0,0,1.4190262,128.81536,-110.9231)"
       id="path4900"
       style="fill:#a10625;fill-opacity:1;stroke:none" />
  </g>
  <path
     d="m 41.082186,35.197182 a 9.6756721,9.6756721 0 1 1 -19.351344,0 9.6756721,9.6756721 0 1 1 19.351344,0 z"
     id="path4902"
     style="fill:#3de0b7;fill-opacity:1;stroke:none" />
  <g
     transform="matrix(0.24014731,0,0,0.24014731,-164.41313,44.077021)"
     id="layer2-3"
     style="display:inline">
    <path
       d="m -174.92334,1143.5836 387.99413,-11.4075 93.8724,93.7991 2.43872,92.9115 -95.38464,96.0511 -395.20199,9.0765 -80.71429,-80.1522 2.14286,-115.8666 z"
       transform="matrix(0.70710678,-0.70710678,0.70710678,0.70710678,0,0)"
       id="rect5637-4"
       style="fill:#000000;fill-opacity:1;stroke:none" />
  </g>
  <g
     transform="matrix(0.24014731,0,0,0.24014731,-164.41313,237.90044)"
     id="layer5-8"
     style="display:inline">
    <path
       d="m -41.416254,164.19525 a 6.8185296,6.8185296 0 1 1 -13.637059,0 6.8185296,6.8185296 0 1 1 13.637059,0 z"
       transform="matrix(5.4190263,0,0,5.4190263,1128.0964,-682.90417)"
       id="path5684"
       style="fill:#3de0b7;fill-opacity:1;stroke:none;display:inline" />
    <path
       d="m -41.416254,164.19525 a 6.8185296,6.8185296 0 1 1 -13.637059,0 6.8185296,6.8185296 0 1 1 13.637059,0 z"
       transform="matrix(5.4190263,0,0,5.4190263,1343.2589,-929.38139)"
       id="path5687"
       style="fill:#3de0b7;fill-opacity:1;stroke:none;display:inline" />
  </g>
  <g
     transform="translate(12.466149,-50.80565)"
     id="layer6"
     style="display:none">
    <path
       d="m -41.416254,164.19525 a 6.8185296,6.8185296 0 1 1 -13.637059,0 6.8185296,6.8185296 0 1 1 13.637059,0 z"
       transform="matrix(1.4190262,0,0,1.4190262,87.386788,-146.99453)"
       id="path4907"
       style="fill:#3de0b7;fill-opacity:1;stroke:none" />
    <path
       d="m -41.416254,164.19525 a 6.8185296,6.8185296 0 1 1 -13.637059,0 6.8185296,6.8185296 0 1 1 13.637059,0 z"
       transform="matrix(1.4190262,0,0,1.4190262,87.386788,-17.70881)"
       id="path4905"
       style="fill:#fdca05;fill-opacity:1;stroke:none" />
  </g>
  <g
     transform="translate(12.466149,-50.80565)"
     id="layer7"
     style="display:none">
    <path
       d="m -41.416254,164.19525 a 6.8185296,6.8185296 0 1 1 -13.637059,0 6.8185296,6.8185296 0 1 1 13.637059,0 z"
       transform="translate(67.175148,23.236165)"
       id="path4876"
       style="fill:#ffffff;fill-opacity:1;stroke:none" />
    <path
       d="m -41.416254,164.19525 a 6.8185296,6.8185296 0 1 1 -13.637059,0 6.8185296,6.8185296 0 1 1 13.637059,0 z"
       transform="translate(107.07617,-11.614098)"
       id="path4878"
       style="fill:#ffffff;fill-opacity:1;stroke:none" />
    <path
       d="m -41.416254,164.19525 a 6.8185296,6.8185296 0 1 1 -13.637059,0 6.8185296,6.8185296 0 1 1 13.637059,0 z"
       transform="matrix(1.4190262,0,0,1.4190262,87.386788,-110.9231)"
       id="path4882"
       style="fill:#a10625;fill-opacity:1;stroke:none" />
  </g>
  <g
     transform="translate(12.466149,-857.90782)"
     id="layer3" />
</svg>
