<?xml version="1.0" encoding="UTF-8" standalone="no"?>
<!-- Created with Inkscape (http://www.inkscape.org/) -->

<svg
   xmlns:dc="http://purl.org/dc/elements/1.1/"
   xmlns:cc="http://creativecommons.org/ns#"
   xmlns:rdf="http://www.w3.org/1999/02/22-rdf-syntax-ns#"
   xmlns:svg="http://www.w3.org/2000/svg"
   xmlns="http://www.w3.org/2000/svg"
   xmlns:sodipodi="http://sodipodi.sourceforge.net/DTD/sodipodi-0.dtd"
   xmlns:inkscape="http://www.inkscape.org/namespaces/inkscape"
   width="280.82001"
   height="245.25999"
   id="svg2984"
   version="1.1"
   inkscape:version="0.48.4 r9939"
   sodipodi:docname="de:zs3v-50-sign-down.svg">
  <defs
     id="defs2986" />
  <sodipodi:namedview
     id="base"
     pagecolor="#ffffff"
     bordercolor="#666666"
     borderopacity="1.0"
     inkscape:pageopacity="0.0"
     inkscape:pageshadow="2"
     inkscape:zoom="1"
     inkscape:cx="-26.51055"
     inkscape:cy="64.971472"
     inkscape:document-units="px"
     inkscape:current-layer="layer2"
     showgrid="false"
     inkscape:window-width="1280"
     inkscape:window-height="758"
     inkscape:window-x="-4"
     inkscape:window-y="-3"
     inkscape:window-maximized="1" />
  <metadata
     id="metadata2989">
    <rdf:RDF>
      <cc:Work
         rdf:about="">
        <dc:format>image/svg+xml</dc:format>
        <dc:type
           rdf:resource="http://purl.org/dc/dcmitype/StillImage" />
        <dc:title></dc:title>
      </cc:Work>
    </rdf:RDF>
  </metadata>
  <g
     inkscape:label="Ebene 1"
     inkscape:groupmode="layer"
     id="layer1"
     transform="translate(0,-807.10217)" />
  <g
     inkscape:groupmode="layer"
     id="layer2"
     inkscape:label="Schild+Rahmen"
     transform="translate(0,-807.10217)">
    <path
       style="color:#000000;fill:#ffff00;fill-opacity:1;stroke:#fff4ff;stroke-width:14.25825404999999968;stroke-linecap:round;stroke-linejoin:round;stroke-miterlimit:4;stroke-opacity:1;stroke-dasharray:none;stroke-dashoffset:0;marker:none;visibility:visible;display:inline;overflow:visible;enable-background:accumulate;opacity:1"
       d="m 140.5,1037.2812 c 42.16667,-73.02078 84.33333,-146.04162 126.5,-219.06245 -84.33333,0 -168.666667,0 -253,0 42.166667,73.02083 84.333333,146.04167 126.5,219.06245 z"
       id="path3047"
       inkscape:connector-curvature="0" />
  </g>
  <g
     inkscape:groupmode="layer"
     id="layer3"
     inkscape:label="Ziffer"
     transform="translate(0,-807.10217)">
    <path
       style="color:#000000;fill:#000000;fill-opacity:1;stroke:none;stroke-width:1px;marker:none;visibility:visible;display:inline;overflow:visible;enable-background:accumulate"
       d="m 122.33039,886.65495 0,-28.21428 48.57142,0 0,-16.42858 -63.21428,0 0,61.78572 c 0,0 10.72631,-0.35872 16.07143,0 2.80818,-6.20805 9.50672,-8.6212 16.831,-8.6212 7.02389,0 14.95471,8.03114 14.95471,12.90691 0,12.5 0,9.23499 0,20.71429 0.25254,23.46064 -33.73731,21.43659 -33.73731,3.03046 -5.38643,0 -8.55465,-0.0992 -15.97216,-0.0992 -0.143,13.31115 13.60256,31.511 32.70923,31.511 21.1273,0 33.42881,-20.65352 33.42881,-30.50085 0,-33.58425 0,-19.38829 0,-30.01282 0,-10.36065 -13.30634,-22.82907 -27.57265,-22.82907 -11.00287,0 -15.04772,0.003 -22.0702,6.75764 z"
       id="path3859"
       inkscape:connector-curvature="0"
       sodipodi:nodetypes="cccccccsscccsscscc" />
  </g>
</svg>
