<?xml version="1.0" encoding="UTF-8" standalone="no"?>
<!-- Created with Inkscape (http://www.inkscape.org/) -->

<svg
   xmlns:dc="http://purl.org/dc/elements/1.1/"
   xmlns:cc="http://creativecommons.org/ns#"
   xmlns:rdf="http://www.w3.org/1999/02/22-rdf-syntax-ns#"
   xmlns:svg="http://www.w3.org/2000/svg"
   xmlns="http://www.w3.org/2000/svg"
   xmlns:sodipodi="http://sodipodi.sourceforge.net/DTD/sodipodi-0.dtd"
   xmlns:inkscape="http://www.inkscape.org/namespaces/inkscape"
   version="1.1"
   width="83.337585"
   height="154.85638"
   id="svg2984"
   inkscape:version="0.48.4 r9939"
   sodipodi:docname="de-hp1-light.svg"
   inkscape:export-filename="/home/alexander/Projekte/OpenRailwayMap/orm-latest/styles/icons/de-hp1-light-32.png"
   inkscape:export-xdpi="18.597878"
   inkscape:export-ydpi="18.597878">
  <sodipodi:namedview
     pagecolor="#ffffff"
     bordercolor="#666666"
     borderopacity="1"
     objecttolerance="10"
     gridtolerance="10"
     guidetolerance="10"
     inkscape:pageopacity="0"
     inkscape:pageshadow="2"
     inkscape:window-width="790"
     inkscape:window-height="480"
     id="namedview24"
     showgrid="false"
     inkscape:zoom="1.5239927"
     inkscape:cx="11.781523"
     inkscape:cy="62.089334"
     inkscape:window-x="1280"
     inkscape:window-y="491"
     inkscape:window-maximized="0"
     inkscape:current-layer="layer3-0" />
  <defs
     id="defs2986">
    <filter
       color-interpolation-filters="sRGB"
       id="filter3000">
      <feGaussianBlur
         id="feGaussianBlur3002"
         stdDeviation="3" />
    </filter>
    <filter
       color-interpolation-filters="sRGB"
       id="filter3042">
      <feGaussianBlur
         stdDeviation="3"
         id="feGaussianBlur3044" />
    </filter>
  </defs>
  <metadata
     id="metadata2989">
    <rdf:RDF>
      <cc:Work
         rdf:about="">
        <dc:format>image/svg+xml</dc:format>
        <dc:type
           rdf:resource="http://purl.org/dc/dcmitype/StillImage" />
        <dc:title></dc:title>
      </cc:Work>
    </rdf:RDF>
  </metadata>
  <rect
     width="83.337997"
     height="154.856"
     x="0"
     y="0.00038146973"
     id="rect3772"
     style="fill:#000000;fill-opacity:1;stroke:none" />
  <g
     transform="translate(0,-857.90782)"
     id="layer1" />
  <g
     id="layer8"
     style="display:none">
    <path
       d="m -41.416254,164.19525 a 6.8185296,6.8185296 0 1 1 -13.637059,0 6.8185296,6.8185296 0 1 1 13.637059,0 z"
       transform="matrix(1.4190262,0,0,1.4190262,128.81536,-161.72875)"
       id="path4900"
       style="fill:#a10625;fill-opacity:1;stroke:none;display:inline" />
    <path
       d="m -41.416254,164.19525 a 6.8185296,6.8185296 0 1 1 -13.637059,0 6.8185296,6.8185296 0 1 1 13.637059,0 z"
       transform="matrix(1.4190262,0,0,1.4190262,87.386788,-161.72875)"
       id="path2998"
       style="fill:#a10625;fill-opacity:1;stroke:none;display:inline" />
  </g>
  <g
     transform="translate(0,-50.80565)"
     id="layer5"
     style="display:none">
    <path
       d="m -41.416254,164.19525 a 6.8185296,6.8185296 0 1 1 -13.637059,0 6.8185296,6.8185296 0 1 1 13.637059,0 z"
       transform="matrix(1.4190262,0,0,1.4190262,87.386788,-146.99453)"
       id="path4902"
       style="fill:#3de0b7;fill-opacity:1;stroke:none" />
  </g>
  <g
     transform="translate(0,-50.80565)"
     id="layer6"
     style="display:none">
    <path
       d="m -41.416254,164.19525 a 6.8185296,6.8185296 0 1 1 -13.637059,0 6.8185296,6.8185296 0 1 1 13.637059,0 z"
       transform="matrix(1.4190262,0,0,1.4190262,87.386788,-146.99453)"
       id="path4907"
       style="fill:#3de0b7;fill-opacity:1;stroke:none" />
    <path
       d="m -41.416254,164.19525 a 6.8185296,6.8185296 0 1 1 -13.637059,0 6.8185296,6.8185296 0 1 1 13.637059,0 z"
       transform="matrix(1.4190262,0,0,1.4190262,87.386788,-17.70881)"
       id="path4905"
       style="fill:#fdca05;fill-opacity:1;stroke:none" />
  </g>
  <g
     transform="translate(0,-50.80565)"
     id="layer7"
     style="display:none">
    <path
       d="m -41.416254,164.19525 a 6.8185296,6.8185296 0 1 1 -13.637059,0 6.8185296,6.8185296 0 1 1 13.637059,0 z"
       transform="translate(67.175148,23.236165)"
       id="path4876"
       style="fill:#ffffff;fill-opacity:1;stroke:none" />
    <path
       d="m -41.416254,164.19525 a 6.8185296,6.8185296 0 1 1 -13.637059,0 6.8185296,6.8185296 0 1 1 13.637059,0 z"
       transform="translate(107.07617,-11.614098)"
       id="path4878"
       style="fill:#ffffff;fill-opacity:1;stroke:none" />
    <path
       d="m -41.416254,164.19525 a 6.8185296,6.8185296 0 1 1 -13.637059,0 6.8185296,6.8185296 0 1 1 13.637059,0 z"
       transform="matrix(1.4190262,0,0,1.4190262,87.386788,-110.9231)"
       id="path4882"
       style="fill:#a10625;fill-opacity:1;stroke:none" />
  </g>
  <g
     transform="translate(0,-857.90782)"
     id="layer3" />
  <g
     transform="matrix(0.28197705,0,0,0.28197705,-33.110012,-470.35711)"
     id="layer3-0"
     style="display:inline">
    <path
       inkscape:connector-curvature="0"
       d="m 2705.0531,894.29816 a 34.9916,34.9916 0 1 1 -69.9832,0 34.9916,34.9916 0 1 1 69.9832,0 z"
       transform="matrix(1.7568622,0,0,1.7568616,-4481.6524,199.59595)"
       id="path3756"
       style="fill:#3ce0b7;fill-opacity:1;stroke:none;display:inline;filter:url(#filter3042)" />
  </g>
</svg>
