<?xml version="1.0" encoding="UTF-8" standalone="no"?>
<!-- Created with Inkscape (http://www.inkscape.org/) -->

<svg
   xmlns:dc="http://purl.org/dc/elements/1.1/"
   xmlns:cc="http://creativecommons.org/ns#"
   xmlns:rdf="http://www.w3.org/1999/02/22-rdf-syntax-ns#"
   xmlns:svg="http://www.w3.org/2000/svg"
   xmlns="http://www.w3.org/2000/svg"
   xmlns:sodipodi="http://sodipodi.sourceforge.net/DTD/sodipodi-0.dtd"
   xmlns:inkscape="http://www.inkscape.org/namespaces/inkscape"
   width="280.82001"
   height="245.25999"
   id="svg2984"
   version="1.1"
   inkscape:version="0.48.4 r9939"
   sodipodi:docname="de-zs3v-30-sign-down.svg">
  <defs
     id="defs2986" />
  <sodipodi:namedview
     id="base"
     pagecolor="#ffffff"
     bordercolor="#666666"
     borderopacity="1.0"
     inkscape:pageopacity="0.0"
     inkscape:pageshadow="2"
     inkscape:zoom="0.49497475"
     inkscape:cx="-220.05549"
     inkscape:cy="87.298017"
     inkscape:document-units="px"
     inkscape:current-layer="layer2"
     showgrid="false"
     inkscape:window-width="1280"
     inkscape:window-height="758"
     inkscape:window-x="-4"
     inkscape:window-y="-3"
     inkscape:window-maximized="1" />
  <metadata
     id="metadata2989">
    <rdf:RDF>
      <cc:Work
         rdf:about="">
        <dc:format>image/svg+xml</dc:format>
        <dc:type
           rdf:resource="http://purl.org/dc/dcmitype/StillImage" />
        <dc:title></dc:title>
      </cc:Work>
    </rdf:RDF>
  </metadata>
  <g
     inkscape:label="Ebene 1"
     inkscape:groupmode="layer"
     id="layer1"
     transform="translate(0,-807.10217)" />
  <g
     inkscape:groupmode="layer"
     id="layer2"
     inkscape:label="Schild+Rahmen"
     transform="translate(0,-807.10217)">
    <path
       style="color:#000000;fill:#ffff00;fill-opacity:1;stroke:#f7f7f7;stroke-width:14.25825404999999968;stroke-linecap:round;stroke-linejoin:round;stroke-miterlimit:4;stroke-opacity:1;stroke-dasharray:none;stroke-dashoffset:0;marker:none;visibility:visible;display:inline;overflow:visible;enable-background:accumulate"
       d="m 273.00267,814.23195 -265.873543,0 133.368523,231.00115 133.18552,-230.68383"
       id="path3047"
       inkscape:connector-curvature="0"
       sodipodi:nodetypes="cccc" />
  </g>
  <g
     inkscape:groupmode="layer"
     id="layer3"
     inkscape:label="Ziffer"
     transform="translate(0,-807.10217)">
    <path
       style="color:#000000;fill:#000000;fill-opacity:1;stroke:none;stroke-width:1px;marker:none;visibility:visible;display:inline;overflow:visible;enable-background:accumulate"
       d="m 108.92857,59.545708 c 0,0 11.42857,0 17.14286,0 0,-22.143298 31.42857,-21.785715 31.42857,0 0,18.571429 -10.06871,21.607143 -24.89014,21.607143 0,3.792076 0.29107,7.856712 0.29107,12.681265 24.24193,0 24.3058,7.726704 24.3058,22.790574 0,23.1451 -35.42102,23.07647 -35.42102,0 -8.71801,0 -16.78571,0 -16.78571,0 0,0 -5.855319,33.08614 34.82143,33.08614 21.96951,0 34.82143,-11.86808 34.82143,-33.08614 0,-42.436125 0,-8.06279 0,-14.22184 0,-8.295523 -7.34298,-13.863552 -11.78572,-16.42857 5.58086,-3.222108 11.78572,-7.142858 11.78572,-17.142858 0,-14.642857 0,12.500001 0,-10.714285 0,-35.000001 -65.71429,-44.642857 -65.71429,1.428571 z"
       id="path4605"
       inkscape:connector-curvature="0"
       transform="translate(0,807.10217)"
       sodipodi:nodetypes="ccsccsccssccssc" />
  </g>
</svg>
