<?xml version="1.0" encoding="UTF-8" standalone="no"?>
<!-- Created with Inkscape (http://www.inkscape.org/) -->

<svg
   xmlns:dc="http://purl.org/dc/elements/1.1/"
   xmlns:cc="http://creativecommons.org/ns#"
   xmlns:rdf="http://www.w3.org/1999/02/22-rdf-syntax-ns#"
   xmlns:svg="http://www.w3.org/2000/svg"
   xmlns="http://www.w3.org/2000/svg"
   xmlns:sodipodi="http://sodipodi.sourceforge.net/DTD/sodipodi-0.dtd"
   xmlns:inkscape="http://www.inkscape.org/namespaces/inkscape"
   width="83.337585"
   height="194.45438"
   id="svg2984"
   version="1.1"
   inkscape:version="0.48.4 r9939"
   sodipodi:docname="HV_Hp2.svg">
  <defs
     id="defs2986" />
  <sodipodi:namedview
     id="base"
     pagecolor="#ffffff"
     bordercolor="#666666"
     borderopacity="1.0"
     inkscape:pageopacity="0.0"
     inkscape:pageshadow="2"
     inkscape:zoom="0.98994949"
     inkscape:cx="-154.94059"
     inkscape:cy="130.86038"
     inkscape:document-units="px"
     inkscape:current-layer="layer5"
     showgrid="false"
     inkscape:window-width="1309"
     inkscape:window-height="744"
     inkscape:window-x="57"
     inkscape:window-y="24"
     inkscape:window-maximized="1"
     fit-margin-top="0"
     fit-margin-left="0"
     fit-margin-right="0"
     fit-margin-bottom="0" />
  <metadata
     id="metadata2989">
    <rdf:RDF>
      <cc:Work
         rdf:about="">
        <dc:format>image/svg+xml</dc:format>
        <dc:type
           rdf:resource="http://purl.org/dc/dcmitype/StillImage" />
        <dc:title></dc:title>
      </cc:Work>
    </rdf:RDF>
  </metadata>
  <g
     inkscape:label="Ebene 1"
     inkscape:groupmode="layer"
     id="layer1"
     transform="translate(0,-857.90782)" />
  <g
     inkscape:groupmode="layer"
     id="layer2"
     inkscape:label="Schild+Rahmen"
     transform="translate(0,-857.90782)"
     style="display:inline">
    <path
       style="fill:#000000;fill-opacity:1;stroke:none"
       d="m 0,873.06011 15.783634,-15.15229 56.189736,0 11.364215,12.12183 0,182.33255 -83.337585,0 0,-97.2272 z"
       id="rect4866"
       inkscape:connector-curvature="0"
       sodipodi:nodetypes="cccccccc" />
  </g>
  <g
     inkscape:groupmode="layer"
     id="layer4"
     inkscape:label="Hp0"
     style="display:none"
     transform="translate(0,-50.80565)">
    <path
       transform="matrix(1.4190262,0,0,1.4190262,87.386788,-110.9231)"
       sodipodi:type="arc"
       style="fill:#a10625;fill-opacity:1;stroke:none"
       id="path4895"
       sodipodi:cx="-48.234783"
       sodipodi:cy="164.19525"
       sodipodi:rx="6.8185296"
       sodipodi:ry="6.8185296"
       d="m -41.416254,164.19525 a 6.8185296,6.8185296 0 1 1 -13.637059,0 6.8185296,6.8185296 0 1 1 13.637059,0 z" />
    <path
       d="m -41.416254,164.19525 a 6.8185296,6.8185296 0 1 1 -13.637059,0 6.8185296,6.8185296 0 1 1 13.637059,0 z"
       sodipodi:ry="6.8185296"
       sodipodi:rx="6.8185296"
       sodipodi:cy="164.19525"
       sodipodi:cx="-48.234783"
       id="path4900"
       style="fill:#a10625;fill-opacity:1;stroke:none"
       sodipodi:type="arc"
       transform="matrix(1.4190262,0,0,1.4190262,128.81536,-110.9231)" />
  </g>
  <g
     inkscape:groupmode="layer"
     id="layer5"
     inkscape:label="Hp1"
     style="display:inline"
     transform="translate(0,-50.80565)">
    <path
       d="m -41.416254,164.19525 a 6.8185296,6.8185296 0 1 1 -13.637059,0 6.8185296,6.8185296 0 1 1 13.637059,0 z"
       sodipodi:ry="6.8185296"
       sodipodi:rx="6.8185296"
       sodipodi:cy="164.19525"
       sodipodi:cx="-48.234783"
       id="path4902"
       style="fill:#3de0b7;fill-opacity:1;stroke:none"
       sodipodi:type="arc"
       transform="matrix(1.4190262,0,0,1.4190262,87.386788,-146.99453)" />
  </g>
  <g
     inkscape:groupmode="layer"
     id="layer6"
     inkscape:label="Hp2"
     style="display:none"
     transform="translate(0,-50.80565)">
    <path
       transform="matrix(1.4190262,0,0,1.4190262,87.386788,-146.99453)"
       sodipodi:type="arc"
       style="fill:#3de0b7;fill-opacity:1;stroke:none"
       id="path4907"
       sodipodi:cx="-48.234783"
       sodipodi:cy="164.19525"
       sodipodi:rx="6.8185296"
       sodipodi:ry="6.8185296"
       d="m -41.416254,164.19525 a 6.8185296,6.8185296 0 1 1 -13.637059,0 6.8185296,6.8185296 0 1 1 13.637059,0 z" />
    <path
       transform="matrix(1.4190262,0,0,1.4190262,87.386788,-17.70881)"
       sodipodi:type="arc"
       style="fill:#fdca05;fill-opacity:1;stroke:none"
       id="path4905"
       sodipodi:cx="-48.234783"
       sodipodi:cy="164.19525"
       sodipodi:rx="6.8185296"
       sodipodi:ry="6.8185296"
       d="m -41.416254,164.19525 a 6.8185296,6.8185296 0 1 1 -13.637059,0 6.8185296,6.8185296 0 1 1 13.637059,0 z" />
  </g>
  <g
     inkscape:groupmode="layer"
     id="layer7"
     inkscape:label="Hp0+Sh1"
     style="display:none"
     transform="translate(0,-50.80565)">
    <path
       sodipodi:type="arc"
       style="fill:#ffffff;fill-opacity:1;stroke:none"
       id="path4876"
       sodipodi:cx="-48.234783"
       sodipodi:cy="164.19525"
       sodipodi:rx="6.8185296"
       sodipodi:ry="6.8185296"
       d="m -41.416254,164.19525 a 6.8185296,6.8185296 0 1 1 -13.637059,0 6.8185296,6.8185296 0 1 1 13.637059,0 z"
       transform="translate(67.175148,23.236165)" />
    <path
       d="m -41.416254,164.19525 a 6.8185296,6.8185296 0 1 1 -13.637059,0 6.8185296,6.8185296 0 1 1 13.637059,0 z"
       sodipodi:ry="6.8185296"
       sodipodi:rx="6.8185296"
       sodipodi:cy="164.19525"
       sodipodi:cx="-48.234783"
       id="path4878"
       style="fill:#ffffff;fill-opacity:1;stroke:none"
       sodipodi:type="arc"
       transform="translate(107.07617,-11.614098)" />
    <path
       d="m -41.416254,164.19525 a 6.8185296,6.8185296 0 1 1 -13.637059,0 6.8185296,6.8185296 0 1 1 13.637059,0 z"
       sodipodi:ry="6.8185296"
       sodipodi:rx="6.8185296"
       sodipodi:cy="164.19525"
       sodipodi:cx="-48.234783"
       id="path4882"
       style="fill:#a10625;fill-opacity:1;stroke:none"
       sodipodi:type="arc"
       transform="matrix(1.4190262,0,0,1.4190262,87.386788,-110.9231)" />
  </g>
  <g
     inkscape:groupmode="layer"
     id="layer3"
     inkscape:label="Ziffer"
     transform="translate(0,-857.90782)" />
</svg>
