<?xml version="1.0" encoding="UTF-8" standalone="no"?>
<!-- Created with Inkscape (http://www.inkscape.org/) -->

<svg
   xmlns:dc="http://purl.org/dc/elements/1.1/"
   xmlns:cc="http://creativecommons.org/ns#"
   xmlns:rdf="http://www.w3.org/1999/02/22-rdf-syntax-ns#"
   xmlns:svg="http://www.w3.org/2000/svg"
   xmlns="http://www.w3.org/2000/svg"
   version="1.1"
   width="725.82715"
   height="1375.5421"
   id="svg2">
  <defs
     id="defs4" />
  <metadata
     id="metadata7">
    <rdf:RDF>
      <cc:Work
         rdf:about="">
        <dc:format>image/svg+xml</dc:format>
        <dc:type
           rdf:resource="http://purl.org/dc/dcmitype/StillImage" />
        <dc:title></dc:title>
      </cc:Work>
    </rdf:RDF>
  </metadata>
  <g
     transform="translate(-245.11955,305.83472)"
     id="layer1"
     style="display:inline" />
  <g
     transform="matrix(1,0,0,1.1569856,-245.11955,305.23443)"
     id="layer3"
     style="display:inline">
    <rect
       width="37.375641"
       height="921.25916"
       x="389.91888"
       y="3.8238351"
       id="rect4911"
       style="fill:#000000;fill-opacity:1;stroke:none" />
  </g>
  <g
     transform="matrix(0.77500628,-0.63195353,0.63195353,0.77500628,-252.03407,606.85212)"
     id="g3835">
    <path
       d="m 955.71431,192.36218 -707.14289,0 0,-70 707.14289,0"
       id="path3837"
       style="fill:#ffffff;fill-opacity:1;stroke:#bf2234;stroke-width:25.5;stroke-miterlimit:4;stroke-opacity:1;stroke-dasharray:none" />
    <path
       d="m 1082.8571,138.79076 a 73.571426,73.571426 0 1 1 -147.14282,0 73.571426,73.571426 0 1 1 147.14282,0 z"
       transform="matrix(1.0165494,0,0,1.0165494,-8.1316865,19.131662)"
       id="path3839"
       style="fill:#ffffff;fill-opacity:1;stroke:#bf2234;stroke-width:25.5;stroke-linecap:round;stroke-linejoin:round;stroke-miterlimit:4;stroke-opacity:1;stroke-dasharray:none;stroke-dashoffset:0" />
  </g>
  <path
     d="m 258.30354,460.00388 c 27.2035,-13.59573 60.27828,-2.56427 73.8741,24.63922 0.8497,1.70021 1.60236,3.44657 2.26183,5.18659 l 45.91613,91.87287 c 0.99578,1.57187 1.92425,3.18925 2.77394,4.88945 13.59572,27.20349 2.56415,60.27837 -24.63913,73.87409 -27.2034,13.59573 -60.27848,2.56426 -73.8741,-24.63924 -0.19323,-0.38648 -0.36159,-0.78401 -0.54493,-1.1728 l -0.033,0.017 -51.77742,-103.60055 0.099,-0.0502 c -11.46869,-26.61876 -0.30888,-57.89615 25.94339,-71.01649 z"
     id="path4298"
     style="fill:#000000;fill-opacity:1;stroke:none;display:inline" />
  <path
     d="m 375.7223,590.45919 a 47.156074,47.156074 0 0 0 -84.36284,42.16269 47.156074,47.156074 0 1 0 84.36284,-42.16269 z"
     id="path4616"
     style="fill:#3de0b7;fill-opacity:1;stroke:none;display:inline" />
  <g
     transform="matrix(0.87614728,0,0,0.87614728,-19.605842,591.87316)"
     id="layer10"
     style="display:inline">
    <path
       d="m 118.54643,701.21918 c -25.732735,0 -46.593702,20.86096 -46.593702,46.59369 0,1.6083 0.09093,3.21492 0.25,4.78125 l 0,86.90615 c -0.15907,1.56633 -0.25,3.1417 -0.25,4.75 0,25.73273 20.860967,46.5937 46.593702,46.5937 25.73273,0 46.5937,-20.86097 46.5937,-46.5937 0,-0.36555 -0.0229,-0.73022 -0.0312,-1.09375 l 0.0312,0 0,-97.99989 -0.0937,0 c -1.38872,-24.48551 -21.66684,-43.93745 -46.49995,-43.93745 z"
       id="path4650"
       style="fill:#000000;fill-opacity:1;stroke:none;display:inline" />
    <path
       d="m 297.16676,714.31794 c -25.73273,0 -46.5937,-20.86097 -46.5937,-46.5937 0,-1.6083 0.0909,-3.21491 0.25,-4.78124 l 0,-86.90616 c -0.15907,-1.56633 -0.25,-3.14169 -0.25,-4.74999 0,-25.73273 20.86097,-46.5937 46.5937,-46.5937 25.73274,0 46.5937,20.86097 46.5937,46.5937 0,0.36555 -0.0229,0.73022 -0.0312,1.09375 l 0.0312,0 0,97.99989 -0.0937,0 c -1.38872,24.4855 -21.66683,43.93745 -46.49995,43.93745 z"
       id="path4632"
       style="fill:#000000;fill-opacity:1;stroke:none;display:inline" />
  </g>
  <path
     d="m 118.88396,1246.964 a 34.959135,34.959135 0 0 1 -69.918204,0 34.959135,34.959135 0 1 1 69.918204,0 z"
     id="path3831"
     style="fill:#3de0b7;fill-opacity:1;stroke:none" />
  <path
     d="m 275.38176,1177.0013 a 34.959135,34.959135 0 1 0 -69.9182,0 34.959135,34.959135 0 0 0 69.9182,0 z"
     id="path3833"
     style="fill:#3de0b7;fill-opacity:1;stroke:none" />
  <path
     d="m 275.38176,1177.0013 a 34.959135,34.959135 0 1 0 -69.9182,0 34.959135,34.959135 0 0 0 69.9182,0 z"
     id="path4497"
     style="fill:#3de0b7;fill-opacity:1;stroke:none;display:inline" />
  <g
     transform="matrix(0.87614728,0,0,0.87614728,-19.605842,591.87316)"
     id="layer15"
     style="display:inline">
    <rect
       width="327.14249"
       height="11.428559"
       x="39.30991"
       y="353.79153"
       id="rect4688"
       style="fill:#000000;fill-opacity:1;stroke:none" />
  </g>
</svg>
