<?xml version="1.0" encoding="UTF-8" standalone="no"?>
<!-- Created with Inkscape (http://www.inkscape.org/) -->

<svg
   xmlns:dc="http://purl.org/dc/elements/1.1/"
   xmlns:cc="http://creativecommons.org/ns#"
   xmlns:rdf="http://www.w3.org/1999/02/22-rdf-syntax-ns#"
   xmlns:svg="http://www.w3.org/2000/svg"
   xmlns="http://www.w3.org/2000/svg"
   version="1.1"
   width="869.78101"
   height="921.25916"
   id="svg2">
  <defs
     id="defs4" />
  <metadata
     id="metadata7">
    <rdf:RDF>
      <cc:Work
         rdf:about="">
        <dc:format>image/svg+xml</dc:format>
        <dc:type
           rdf:resource="http://purl.org/dc/dcmitype/StillImage" />
        <dc:title></dc:title>
      </cc:Work>
    </rdf:RDF>
  </metadata>
  <g
     transform="translate(-235.8125,-3.8238351)"
     id="layer1"
     style="display:inline" />
  <g
     transform="translate(-235.8125,-3.8238351)"
     id="layer3"
     style="display:inline">
    <rect
       width="37.375641"
       height="921.25916"
       x="389.91888"
       y="3.8238351"
       id="rect4911"
       style="fill:#000000;fill-opacity:1;stroke:none" />
  </g>
  <g
     transform="translate(-235.8125,-3.8238351)"
     id="layer4"
     style="display:inline">
    <g
       id="g3831">
      <path
         d="m 955.71431,192.36218 -707.14289,0 0,-70 707.14289,0"
         id="rect3058"
         style="fill:#ffffff;fill-opacity:1;stroke:#bf2234;stroke-width:25.5;stroke-miterlimit:4;stroke-opacity:1;stroke-dasharray:none" />
      <path
         d="m 1082.8571,138.79076 a 73.571426,73.571426 0 1 1 -147.14282,0 73.571426,73.571426 0 1 1 147.14282,0 z"
         transform="matrix(1.0165494,0,0,1.0165494,-8.1316865,19.131662)"
         id="path3829"
         style="fill:#ffffff;fill-opacity:1;stroke:#bf2234;stroke-width:25.5;stroke-linecap:round;stroke-linejoin:round;stroke-miterlimit:4;stroke-opacity:1;stroke-dasharray:none;stroke-dashoffset:0" />
    </g>
    <g
       id="g4368">
      <path
         d="m 590.99146,218.45711 c 26.33725,15.20583 35.36126,48.88389 20.15545,75.22115 -0.95037,1.64607 -1.99278,3.23674 -3.08118,4.74585 l -51.35404,88.9478 c -0.76275,1.69712 -1.60059,3.36322 -2.55096,5.00931 -15.20583,26.33725 -48.8839,35.36127 -75.22116,20.15545 -26.33726,-15.20583 -35.36127,-48.88389 -20.15545,-75.22116 0.21601,-0.37413 0.45493,-0.73384 0.67825,-1.10101 l -0.032,-0.0184 57.90948,-100.30215 0.096,0.0553 c 15.89014,-24.24012 48.13906,-32.16642 73.55558,-17.4922 z"
         id="path4069"
         style="fill:#000000;fill-opacity:1;stroke:none;display:inline" />
      <path
         d="m 523.07949,242.67149 a 47.156072,47.156072 0 0 0 81.67671,47.15607 47.156072,47.156072 0 1 0 -81.67671,-47.15607 z"
         id="path4071"
         style="fill:#bf2234;fill-opacity:1;stroke:none;display:inline" />
    </g>
  </g>
</svg>
