<?xml version="1.0" encoding="UTF-8" standalone="no"?>
<!-- Created with Inkscape (http://www.inkscape.org/) -->

<svg
   xmlns:dc="http://purl.org/dc/elements/1.1/"
   xmlns:cc="http://creativecommons.org/ns#"
   xmlns:rdf="http://www.w3.org/1999/02/22-rdf-syntax-ns#"
   xmlns:svg="http://www.w3.org/2000/svg"
   xmlns="http://www.w3.org/2000/svg"
   version="1.1"
   width="806.84723"
   height="1706.6384"
   id="svg2">
  <defs
     id="defs4" />
  <metadata
     id="metadata7">
    <rdf:RDF>
      <cc:Work
         rdf:about="">
        <dc:format>image/svg+xml</dc:format>
        <dc:type
           rdf:resource="http://purl.org/dc/dcmitype/StillImage" />
        <dc:title></dc:title>
      </cc:Work>
    </rdf:RDF>
  </metadata>
  <g
     transform="translate(-164.09943,305.83472)"
     id="layer1"
     style="display:inline" />
  <g
     transform="matrix(1,0,0,1.516381,-164.09943,303.86016)"
     id="layer3"
     style="display:inline">
    <rect
       width="37.375641"
       height="921.25916"
       x="389.91888"
       y="3.8238351"
       id="rect4911"
       style="fill:#000000;fill-opacity:1;stroke:none" />
  </g>
  <g
     transform="matrix(0.77500628,-0.63195353,0.63195353,0.77500628,-171.01395,606.85212)"
     id="g3835">
    <path
       d="m 955.71431,192.36218 -707.14289,0 0,-70 707.14289,0"
       id="path3837"
       style="fill:#ffffff;fill-opacity:1;stroke:#bf2234;stroke-width:25.5;stroke-miterlimit:4;stroke-opacity:1;stroke-dasharray:none" />
    <path
       d="m 1082.8571,138.79076 a 73.571426,73.571426 0 1 1 -147.14282,0 73.571426,73.571426 0 1 1 147.14282,0 z"
       transform="matrix(1.0165494,0,0,1.0165494,-8.1316865,19.131662)"
       id="path3839"
       style="fill:#ffffff;fill-opacity:1;stroke:#bf2234;stroke-width:25.5;stroke-linecap:round;stroke-linejoin:round;stroke-miterlimit:4;stroke-opacity:1;stroke-dasharray:none;stroke-dashoffset:0" />
  </g>
  <path
     d="m 339.32366,460.00388 c 27.2035,-13.59573 60.27828,-2.56427 73.8741,24.63922 0.8497,1.70021 1.60236,3.44657 2.26183,5.18659 l 45.91613,91.87287 c 0.99578,1.57187 1.92425,3.18925 2.77394,4.88945 13.59572,27.20349 2.56415,60.27837 -24.63913,73.87409 -27.2034,13.59573 -60.27848,2.56426 -73.8741,-24.63924 -0.19323,-0.38648 -0.36159,-0.78401 -0.54493,-1.1728 l -0.033,0.017 -51.77742,-103.60055 0.099,-0.0502 c -11.46869,-26.61876 -0.30888,-57.89615 25.94339,-71.01649 z"
     id="path4298"
     style="fill:#000000;fill-opacity:1;stroke:none;display:inline" />
  <path
     d="m 456.74242,590.45919 a 47.156074,47.156074 0 0 0 -84.36284,42.16269 47.156074,47.156074 0 1 0 84.36284,-42.16269 z"
     id="path4616"
     style="fill:#3de0b7;fill-opacity:1;stroke:none;display:inline" />
  <g
     transform="matrix(1.1818246,0,0,1.1818246,0,540.63399)"
     id="layer11"
     style="display:inline">
    <path
       d="m 13.646835,739.70336 c -18.19578,18.19579 -18.19578,47.69765 0,65.89344 1.137239,1.13724 2.337587,2.209 3.557626,3.20408 l 61.451935,61.45193 c 0.995082,1.22004 2.044738,2.39829 3.181977,3.53553 18.195787,18.19579 47.697657,18.19579 65.893447,0 18.19578,-18.19579 18.19578,-47.69765 0,-65.89344 -0.25849,-0.25848 -0.53253,-0.50017 -0.7955,-0.7513 l 0.0221,-0.0221 -69.296389,-69.29638 -0.06629,0.0663 C 59.299905,721.55951 31.206506,722.14371 13.646845,739.70337 z"
       id="path4674"
       style="fill:#000000;fill-opacity:1;stroke:none;display:inline" />
  </g>
  <path
     d="m 186.80719,1534.1098 a 47.155959,47.155959 0 0 1 -94.311791,0 47.155959,47.155959 0 1 1 94.311791,0 z"
     id="path4495"
     style="fill:#ffe200;fill-opacity:1;stroke:none;display:inline" />
  <g
     transform="matrix(0.83567525,-0.83567525,0.83567525,0.83567525,-362.4474,942.81573)"
     id="g4596"
     style="display:inline">
    <path
       d="m 61.071429,914.86218 -34.642858,-27.85714 -1.785714,-440 69.642857,0 0,440 z"
       id="path4513"
       style="color:#000000;fill:#ffffff;fill-opacity:1;stroke:none;stroke-width:1px;marker:none;visibility:visible;display:inline;overflow:visible;enable-background:accumulate" />
    <path
       d="m 38.650654,461.56738 42.857143,0 0,418.57144 -21.428571,16.78571 -21.428572,-16.78571 z"
       id="path4515"
       style="fill:#dd9501;fill-opacity:1;stroke:#000000;stroke-width:8.5;stroke-miterlimit:4;stroke-opacity:1;display:inline" />
  </g>
  <path
     d="m 370.7404,1230.2435 c -21.50431,21.5043 -56.37031,21.5043 -77.8746,0 -1.3439,-1.344 -2.6106,-2.7626 -3.78651,-4.2045 l -72.62549,-72.6254 c -1.4419,-1.176 -2.8344,-2.4165 -4.1784,-3.7605 -21.5042,-21.5043 -21.5042,-56.3703 0,-77.8745 21.5043,-21.5042 56.3703,-21.5042 77.8745,0 0.3055,0.3055 0.5911,0.6294 0.888,0.9401 l 0.026,-0.026 81.8962,81.8962 -0.078,0.078 c 19.3014,21.6224 18.611,54.8239 -2.1415,75.5763 z"
     id="path4612"
     style="fill:#000000;fill-opacity:1;stroke:none;display:inline" />
  <path
     d="m 364.92799,1158.3787 a 47.155961,47.155961 0 0 0 -66.6885,66.6886 47.155961,47.155961 0 1 0 66.6885,-66.6886 z"
     id="path4616-4"
     style="fill:#3de0b7;fill-opacity:1;stroke:none;display:inline" />
  <g
     transform="matrix(1.1818246,0,0,1.1818246,0,540.63399)"
     id="layer12"
     style="display:inline">
    <g
       transform="matrix(0.9999989,0,0,0.9999989,149.30979,102.85822)"
       id="g4587"
       style="display:inline">
      <path
         d="m 187.14285,253.07646 a 132.14285,132.14285 0 1 1 -264.285703,0 132.14285,132.14285 0 1 1 264.285703,0 z"
         transform="matrix(1.2524472,0,0,1.2524472,-14.598881,-60.317015)"
         id="path4589"
         style="fill:#ffffff;fill-opacity:1;stroke:none" />
      <path
         d="m 187.14285,253.07646 a 132.14285,132.14285 0 1 1 -264.285703,0 132.14285,132.14285 0 1 1 264.285703,0 z"
         transform="translate(-1.4285714,5.7142858)"
         id="path4591"
         style="fill:#dd9501;fill-opacity:1;stroke:#000000;stroke-width:13;stroke-miterlimit:4;stroke-opacity:1;stroke-dasharray:none" />
    </g>
  </g>
</svg>
