<?xml version="1.0" encoding="UTF-8" standalone="no"?>
<!-- Created with Inkscape (http://www.inkscape.org/) -->

<svg
   xmlns:dc="http://purl.org/dc/elements/1.1/"
   xmlns:cc="http://creativecommons.org/ns#"
   xmlns:rdf="http://www.w3.org/1999/02/22-rdf-syntax-ns#"
   xmlns:svg="http://www.w3.org/2000/svg"
   xmlns="http://www.w3.org/2000/svg"
   version="1.1"
   width="83.337585"
   height="154.85638"
   id="svg2984">
  <defs
     id="defs2986">
    <filter
       color-interpolation-filters="sRGB"
       id="filter3000">
      <feGaussianBlur
         id="feGaussianBlur3002"
         stdDeviation="3" />
    </filter>
  </defs>
  <metadata
     id="metadata2989">
    <rdf:RDF>
      <cc:Work
         rdf:about="">
        <dc:format>image/svg+xml</dc:format>
        <dc:type
           rdf:resource="http://purl.org/dc/dcmitype/StillImage" />
        <dc:title></dc:title>
      </cc:Work>
    </rdf:RDF>
  </metadata>
  <rect
     width="83.337997"
     height="154.856"
     x="0"
     y="0.00038146973"
     id="rect3772"
     style="fill:#000000;fill-opacity:1;stroke:none" />
  <g
     transform="translate(0,-857.90782)"
     id="layer1" />
  <g
     transform="matrix(2.28,0,0,2.28,-10.243669,-224.73838)"
     id="layer4"
     style="fill:#ff0000;display:inline;filter:url(#filter3000)">
    <path
       d="m -41.416254,164.19525 a 6.8185296,6.8185296 0 1 1 -13.637059,0 6.8185296,6.8185296 0 1 1 13.637059,0 z"
       transform="matrix(1.4190262,0,0,1.4190262,87.386788,-110.9231)"
       id="path4895"
       style="fill:#ff0000;fill-opacity:1;stroke:none" />
  </g>
  <g
     id="layer8"
     style="display:none">
    <path
       d="m -41.416254,164.19525 a 6.8185296,6.8185296 0 1 1 -13.637059,0 6.8185296,6.8185296 0 1 1 13.637059,0 z"
       transform="matrix(1.4190262,0,0,1.4190262,128.81536,-161.72875)"
       id="path4900"
       style="fill:#a10625;fill-opacity:1;stroke:none;display:inline" />
    <path
       d="m -41.416254,164.19525 a 6.8185296,6.8185296 0 1 1 -13.637059,0 6.8185296,6.8185296 0 1 1 13.637059,0 z"
       transform="matrix(1.4190262,0,0,1.4190262,87.386788,-161.72875)"
       id="path2998"
       style="fill:#a10625;fill-opacity:1;stroke:none;display:inline" />
  </g>
  <g
     transform="translate(0,-50.80565)"
     id="layer5"
     style="display:none">
    <path
       d="m -41.416254,164.19525 a 6.8185296,6.8185296 0 1 1 -13.637059,0 6.8185296,6.8185296 0 1 1 13.637059,0 z"
       transform="matrix(1.4190262,0,0,1.4190262,87.386788,-146.99453)"
       id="path4902"
       style="fill:#3de0b7;fill-opacity:1;stroke:none" />
  </g>
  <g
     transform="translate(0,-50.80565)"
     id="layer6"
     style="display:none">
    <path
       d="m -41.416254,164.19525 a 6.8185296,6.8185296 0 1 1 -13.637059,0 6.8185296,6.8185296 0 1 1 13.637059,0 z"
       transform="matrix(1.4190262,0,0,1.4190262,87.386788,-146.99453)"
       id="path4907"
       style="fill:#3de0b7;fill-opacity:1;stroke:none" />
    <path
       d="m -41.416254,164.19525 a 6.8185296,6.8185296 0 1 1 -13.637059,0 6.8185296,6.8185296 0 1 1 13.637059,0 z"
       transform="matrix(1.4190262,0,0,1.4190262,87.386788,-17.70881)"
       id="path4905"
       style="fill:#fdca05;fill-opacity:1;stroke:none" />
  </g>
  <g
     transform="translate(0,-50.80565)"
     id="layer7"
     style="display:none">
    <path
       d="m -41.416254,164.19525 a 6.8185296,6.8185296 0 1 1 -13.637059,0 6.8185296,6.8185296 0 1 1 13.637059,0 z"
       transform="translate(67.175148,23.236165)"
       id="path4876"
       style="fill:#ffffff;fill-opacity:1;stroke:none" />
    <path
       d="m -41.416254,164.19525 a 6.8185296,6.8185296 0 1 1 -13.637059,0 6.8185296,6.8185296 0 1 1 13.637059,0 z"
       transform="translate(107.07617,-11.614098)"
       id="path4878"
       style="fill:#ffffff;fill-opacity:1;stroke:none" />
    <path
       d="m -41.416254,164.19525 a 6.8185296,6.8185296 0 1 1 -13.637059,0 6.8185296,6.8185296 0 1 1 13.637059,0 z"
       transform="matrix(1.4190262,0,0,1.4190262,87.386788,-110.9231)"
       id="path4882"
       style="fill:#a10625;fill-opacity:1;stroke:none" />
  </g>
  <g
     transform="translate(0,-857.90782)"
     id="layer3" />
</svg>
