<?xml version="1.0" encoding="UTF-8" standalone="no"?>
<!-- Created with Inkscape (http://www.inkscape.org/) -->

<svg
   xmlns:dc="http://purl.org/dc/elements/1.1/"
   xmlns:cc="http://creativecommons.org/ns#"
   xmlns:rdf="http://www.w3.org/1999/02/22-rdf-syntax-ns#"
   xmlns:svg="http://www.w3.org/2000/svg"
   xmlns="http://www.w3.org/2000/svg"
   version="1.1"
   width="762.83899"
   height="2246.9009"
   id="svg2">
  <defs
     id="defs4" />
  <metadata
     id="metadata7">
    <rdf:RDF>
      <cc:Work
         rdf:about="">
        <dc:format>image/svg+xml</dc:format>
        <dc:type
           rdf:resource="http://purl.org/dc/dcmitype/StillImage" />
        <dc:title></dc:title>
      </cc:Work>
    </rdf:RDF>
  </metadata>
  <g
     transform="translate(-208.10806,305.83578)"
     id="layer1"
     style="display:inline" />
  <g
     transform="matrix(1,0,0,1.5317668,-208.10773,303.80133)"
     id="layer3"
     style="display:inline">
    <rect
       width="37.375641"
       height="1264.7109"
       x="389.91888"
       y="3.8238351"
       id="rect4911"
       style="fill:#000000;fill-opacity:1;stroke:none" />
  </g>
  <g
     transform="translate(-208.10773,305.83472)"
     id="layer5"
     style="display:inline">
    <g
       transform="matrix(0.77500628,-0.63195353,0.63195353,0.77500628,-6.9145195,301.0174)"
       id="g3835">
      <path
         d="m 955.71431,192.36218 -707.14289,0 0,-70 707.14289,0"
         id="path3837"
         style="fill:#ffffff;fill-opacity:1;stroke:#bf2234;stroke-width:25.5;stroke-miterlimit:4;stroke-opacity:1;stroke-dasharray:none" />
      <path
         d="m 1082.8571,138.79076 a 73.571426,73.571426 0 1 1 -147.14282,0 73.571426,73.571426 0 1 1 147.14282,0 z"
         transform="matrix(1.0165494,0,0,1.0165494,-8.1316865,19.131662)"
         id="path3839"
         style="fill:#ffffff;fill-opacity:1;stroke:#bf2234;stroke-width:25.5;stroke-linecap:round;stroke-linejoin:round;stroke-miterlimit:4;stroke-opacity:1;stroke-dasharray:none;stroke-dashoffset:0" />
    </g>
    <path
       d="m 503.4231,154.16916 c 27.2035,-13.59573 60.27827,-2.56427 73.8741,24.63922 0.84969,1.70021 1.60236,3.44657 2.26183,5.18659 l 45.91613,91.87287 c 0.99578,1.57187 1.92425,3.18925 2.77394,4.88945 13.59572,27.20349 2.56415,60.27837 -24.63913,73.87409 -27.2034,13.59573 -60.27848,2.56426 -73.8741,-24.63924 -0.19323,-0.38648 -0.36159,-0.78401 -0.54493,-1.1728 l -0.033,0.017 -51.77742,-103.60055 0.099,-0.0502 c -11.46869,-26.61876 -0.30888,-57.89615 25.94339,-71.01649 z"
       id="path4298"
       style="fill:#000000;fill-opacity:1;stroke:none;display:inline" />
    <path
       d="m 620.84185,284.62447 a 47.156074,47.156074 0 0 0 -84.36284,42.16269 47.156074,47.156074 0 1 0 84.36284,-42.16269 z"
       id="path4616"
       style="fill:#3de0b7;fill-opacity:1;stroke:none;display:inline" />
  </g>
  <g
     transform="translate(-208.10773,193.74618)"
     id="layer7"
     style="display:inline">
    <g
       transform="matrix(0.37267254,-0.92796292,0.92796292,0.37267254,-698.91724,1128.115)"
       id="g4903">
      <path
         d="m 478.93954,1195.4033 c -26.33725,-15.2058 -35.36126,-48.8839 -20.15545,-75.2212 0.95037,-1.646 1.99278,-3.2367 3.08118,-4.7458 l 51.35404,-88.9478 c 0.76275,-1.6971 1.60059,-3.3632 2.55096,-5.0093 15.20583,-26.33727 48.8839,-35.36129 75.22116,-20.1555 26.33726,15.2059 35.36127,48.8839 20.15545,75.2212 -0.21601,0.3741 -0.45493,0.7338 -0.67825,1.101 l 0.032,0.018 -57.90948,100.3021 -0.096,-0.055 c -15.89014,24.2401 -48.13906,32.1664 -73.55558,17.4921 z"
         id="path4374"
         style="fill:#000000;fill-opacity:1;stroke:none;display:inline" />
      <path
         d="m 546.85151,1171.1889 a 47.156078,47.156078 0 0 0 -81.67671,-47.1561 47.156078,47.156078 0 1 0 81.67671,47.1561 z"
         id="path4376"
         style="fill:#ffe200;fill-opacity:1;stroke:none;display:inline" />
    </g>
    <g
       transform="matrix(0.63023445,0.77640488,-0.77640488,0.63023445,926.118,15.848195)"
       id="g3871">
      <path
         d="m 418.5714,498.07638 0,601.42862 -70,0 0,-601.42862"
         id="path3873"
         style="fill:#ffffff;fill-opacity:1;stroke:#bf2234;stroke-width:25.5;stroke-miterlimit:4;stroke-opacity:1;stroke-dasharray:none" />
      <path
         d="m 1082.8571,138.79076 a 73.571426,73.571426 0 1 1 -147.14282,0 73.571426,73.571426 0 1 1 147.14282,0 z"
         transform="matrix(0,-1.0165494,1.0165494,0,245.34088,1464.7795)"
         id="path3875"
         style="fill:#ffffff;fill-opacity:1;stroke:#bf2234;stroke-width:25.5;stroke-linecap:round;stroke-linejoin:round;stroke-miterlimit:4;stroke-opacity:1;stroke-dasharray:none;stroke-dashoffset:0" />
    </g>
  </g>
  <g
     transform="matrix(1.1818245,0,0,1.1818245,-45.020046,1148.7205)"
     id="layer12"
     style="display:inline">
    <g
       transform="matrix(0.9999989,0,0,0.9999989,149.30979,102.85822)"
       id="g4587"
       style="display:inline">
      <path
         d="m 187.14285,253.07646 a 132.14285,132.14285 0 1 1 -264.285703,0 132.14285,132.14285 0 1 1 264.285703,0 z"
         transform="matrix(1.2524472,0,0,1.2524472,-14.598881,-60.317015)"
         id="path4589"
         style="fill:#ffffff;fill-opacity:1;stroke:none" />
      <path
         d="m 187.14285,253.07646 a 132.14285,132.14285 0 1 1 -264.285703,0 132.14285,132.14285 0 1 1 264.285703,0 z"
         transform="translate(-1.4285714,5.7142858)"
         id="path4591"
         style="fill:#dd9501;fill-opacity:1;stroke:#000000;stroke-width:13;stroke-miterlimit:4;stroke-opacity:1;stroke-dasharray:none" />
    </g>
  </g>
  <g
     transform="matrix(1.157047,0,0,1.157047,-48.258897,1146.0869)"
     id="layer9"
     style="display:inline">
    <path
       d="m 297.16676,714.31794 c -25.73273,0 -46.5937,-20.86097 -46.5937,-46.5937 0,-1.6083 0.0909,-3.21491 0.25,-4.78124 l 0,-86.90616 c -0.15907,-1.56633 -0.25,-3.14169 -0.25,-4.74999 0,-25.73273 20.86097,-46.5937 46.5937,-46.5937 25.73274,0 46.5937,20.86097 46.5937,46.5937 0,0.36555 -0.0229,0.73022 -0.0312,1.09375 l 0.0312,0 0,97.99989 -0.0937,0 c -1.38872,24.4855 -21.66683,43.93745 -46.49995,43.93745 z"
       id="path4582"
       style="fill:#000000;fill-opacity:1;stroke:none;display:inline" />
    <path
       d="m 118.54643,701.21918 c -25.732735,0 -46.593702,20.86096 -46.593702,46.59369 0,1.6083 0.09093,3.21492 0.25,4.78125 l 0,86.90615 c -0.15907,1.56633 -0.25,3.1417 -0.25,4.75 0,25.73273 20.860967,46.5937 46.593702,46.5937 25.73273,0 46.5937,-20.86097 46.5937,-46.5937 0,-0.36555 -0.0229,-0.73022 -0.0312,-1.09375 l 0.0312,0 0,-97.99989 -0.0937,0 c -1.38872,-24.48551 -21.66684,-43.93745 -46.49995,-43.93745 z"
       id="rect3803"
       style="fill:#000000;fill-opacity:1;stroke:none;display:inline" />
  </g>
  <path
     d="m 134.63182,2118.7339 a 46.167311,46.167311 0 0 1 -92.334549,0 46.167311,46.167311 0 1 1 92.334549,0 z"
     id="path3778"
     style="fill:#ffe200;fill-opacity:1;stroke:none" />
  <path
     d="m 341.30403,1811.2828 a 46.167335,46.167335 0 1 0 -92.33467,0 46.167335,46.167335 0 0 0 92.33467,0 z"
     id="path3778-3"
     style="fill:#ffe200;fill-opacity:1;stroke:none;display:inline" />
</svg>
