<?xml version="1.0" encoding="UTF-8" standalone="no"?>
<svg
   xmlns:dc="http://purl.org/dc/elements/1.1/"
   xmlns:cc="http://creativecommons.org/ns#"
   xmlns:rdf="http://www.w3.org/1999/02/22-rdf-syntax-ns#"
   xmlns:svg="http://www.w3.org/2000/svg"
   xmlns="http://www.w3.org/2000/svg"
   id="svg2984"
   height="161.65564"
   width="83.337997"
   version="1.1">
  <defs
     id="defs2986">
    <filter
       id="filter3011"
       color-interpolation-filters="sRGB">
      <feGaussianBlur
         stdDeviation="3"
         id="feGaussianBlur3013" />
    </filter>
    <filter
       id="filter3004"
       style="color-interpolation-filters:sRGB">
      <feGaussianBlur
         id="feGaussianBlur3006"
         stdDeviation="3" />
    </filter>
  </defs>
  <metadata
     id="metadata2989">
    <rdf:RDF>
      <cc:Work
         rdf:about="">
        <dc:format>image/svg+xml</dc:format>
        <dc:type
           rdf:resource="http://purl.org/dc/dcmitype/StillImage" />
        <dc:title></dc:title>
      </cc:Work>
    </rdf:RDF>
  </metadata>
  <rect
     width="83.337997"
     height="161.65564"
     x="0"
     y="0"
     id="rect3087"
     style="fill:#000000;fill-opacity:1;stroke:none" />
  <g
     style="display:inline;filter:url(#filter3011)"
     id="layer1"
     transform="matrix(2.25,0,0,2.25,-52.91115,-51.493665)">
    <g
       id="layer3"
       transform="translate(0.5280619,-873.23078)">
      <path
         style="fill:#e60f1e;fill-opacity:1;stroke:none;display:inline"
         id="path4900"
         transform="matrix(1.4190262,0,0,1.4190262,110.24728,681.42835)"
         d="m -41.416254,164.19525 a 6.8185296,6.8185296 0 1 1 -13.637059,0 6.8185296,6.8185296 0 1 1 13.637059,0 z" />
    </g>
  </g>
  <g
     style="display:none"
     id="layer2">
    <g
       style="display:inline"
       id="layer6"
       transform="translate(-18.993843,-63.561877)">
      <path
         style="fill:#3de0b7;fill-opacity:1;stroke:none"
         id="path4907"
         transform="matrix(1.4190262,0,0,1.4190262,109.98314,-94.142948)"
         d="m -41.416254,164.19525 a 6.8185296,6.8185296 0 1 1 -13.637059,0 6.8185296,6.8185296 0 1 1 13.637059,0 z" />
    </g>
  </g>
  <g
     style="display:none"
     id="layer4">
    <g
       style="fill:#fdf42b;fill-opacity:1"
       id="layer3-9"
       transform="translate(20.314107,-839.13317)">
      <path
         style="fill:#fdf42b;fill-opacity:1;stroke:none;display:inline"
         id="path4900-0"
         transform="matrix(1.4190262,0,0,1.4190262,110.24728,681.42835)"
         d="m -41.416254,164.19525 a 6.8185296,6.8185296 0 1 1 -13.637059,0 6.8185296,6.8185296 0 1 1 13.637059,0 z" />
    </g>
  </g>
  <g
     style="display:none"
     id="layer5">
    <g
       style="display:inline"
       id="g3972"
       transform="translate(-21.406023,-178.91122)">
      <path
         style="fill:#ffffff;fill-opacity:1;stroke:none"
         id="path3974"
         transform="translate(90.844825,29.261212)"
         d="m -41.416254,164.19525 a 6.8185296,6.8185296 0 1 1 -13.637059,0 6.8185296,6.8185296 0 1 1 13.637059,0 z" />
    </g>
  </g>
  <g
     style="display:none"
     id="layer8">
    <g
       style="display:inline"
       id="g3956"
       transform="translate(0.70124717,-88.953011)">
      <path
         style="fill:#ffffff;fill-opacity:1;stroke:none"
         id="path3958"
         transform="translate(90.844825,29.261212)"
         d="m -41.416254,164.19525 a 6.8185296,6.8185296 0 1 1 -13.637059,0 6.8185296,6.8185296 0 1 1 13.637059,0 z" />
    </g>
    <g
       style="display:inline"
       id="g3968"
       transform="translate(-28.302853,-64.569033)">
      <path
         style="fill:#ffffff;fill-opacity:1;stroke:none"
         id="path3970"
         transform="translate(90.844825,29.261212)"
         d="m -41.416254,164.19525 a 6.8185296,6.8185296 0 1 1 -13.637059,0 6.8185296,6.8185296 0 1 1 13.637059,0 z" />
    </g>
  </g>
  <g
     style="display:none"
     id="layer9">
    <g
       style="display:inline"
       id="layer7"
       transform="translate(0.70124717,-64.569033)">
      <path
         style="fill:#ffffff;fill-opacity:1;stroke:none"
         id="path4878"
         transform="translate(90.844825,29.261212)"
         d="m -41.416254,164.19525 a 6.8185296,6.8185296 0 1 1 -13.637059,0 6.8185296,6.8185296 0 1 1 13.637059,0 z" />
    </g>
    <g
       style="display:inline"
       id="g3960"
       transform="translate(-15.212507,-88.953011)">
      <path
         style="fill:#ffffff;fill-opacity:1;stroke:none"
         id="path3962"
         transform="translate(90.844825,29.261212)"
         d="m -41.416254,164.19525 a 6.8185296,6.8185296 0 1 1 -13.637059,0 6.8185296,6.8185296 0 1 1 13.637059,0 z" />
    </g>
    <g
       style="display:inline"
       id="g3964"
       transform="translate(16.871674,-88.953011)">
      <path
         style="fill:#ffffff;fill-opacity:1;stroke:none"
         id="path3966"
         transform="translate(90.844825,29.261212)"
         d="m -41.416254,164.19525 a 6.8185296,6.8185296 0 1 1 -13.637059,0 6.8185296,6.8185296 0 1 1 13.637059,0 z" />
    </g>
  </g>
  <g
     style="display:none"
     id="layer10">
    <g
       style="display:inline"
       id="g4116"
       transform="translate(0.70124717,-88.953011)">
      <path
         style="fill:#ffffff;fill-opacity:1;stroke:none"
         id="path4118"
         transform="translate(90.844825,29.261212)"
         d="m -41.416254,164.19525 a 6.8185296,6.8185296 0 1 1 -13.637059,0 6.8185296,6.8185296 0 1 1 13.637059,0 z" />
    </g>
  </g>
  <g
     style="fill:#ffffff;fill-opacity:1;filter:url(#filter3004)"
     id="g4289"
     transform="matrix(0.59032831,0,0,0.59032831,-7.70428,-522.25145)">
    <path
       style="display:inline;fill:#ffffff;fill-opacity:1;stroke:none"
       id="path4291"
       transform="matrix(1.4190262,0,0,1.4190262,110.24728,681.42835)"
       d="m -41.416254,164.19525 a 6.8185296,6.8185296 0 1 1 -13.637059,0 6.8185296,6.8185296 0 1 1 13.637059,0 z" />
  </g>
</svg>
