<?xml version="1.0" encoding="UTF-8" standalone="no"?>
<svg
   xmlns:dc="http://purl.org/dc/elements/1.1/"
   xmlns:cc="http://creativecommons.org/ns#"
   xmlns:rdf="http://www.w3.org/1999/02/22-rdf-syntax-ns#"
   xmlns:svg="http://www.w3.org/2000/svg"
   xmlns="http://www.w3.org/2000/svg"
   id="svg2984"
   height="128.72455"
   width="83"
   version="1.1">
  <defs
     id="defs2986">
    <filter
       id="filter3004"
       color-interpolation-filters="sRGB">
      <feGaussianBlur
         stdDeviation="3"
         id="feGaussianBlur3006" />
    </filter>
  </defs>
  <metadata
     id="metadata2989">
    <rdf:RDF>
      <cc:Work
         rdf:about="">
        <dc:format>image/svg+xml</dc:format>
        <dc:type
           rdf:resource="http://purl.org/dc/dcmitype/StillImage" />
        <dc:title></dc:title>
      </cc:Work>
    </rdf:RDF>
  </metadata>
  <rect
     style="fill:#000000;fill-opacity:1;stroke:none"
     id="rect4002"
     y="0"
     x="0"
     height="128.72455"
     width="83" />
  <g
     style="fill:#fdf42b;fill-opacity:1;filter:url(#filter3004)"
     id="layer3"
     transform="matrix(1.355435,0,0,1.355435,5.9713039,-1186.3468)">
    <path
       style="display:inline;fill:#fdf42b;fill-opacity:1;stroke:none"
       id="path4900"
       transform="matrix(1.4190262,0,0,1.4190262,110.24728,681.42835)"
       d="m -41.416254,164.19525 a 6.8185296,6.8185296 0 1 1 -13.637059,0 6.8185296,6.8185296 0 1 1 13.637059,0 z" />
  </g>
  <g
     transform="matrix(0.59032831,0,0,0.59032831,-2.7009081,-442.08714)"
     id="g4289"
     style="fill:#ffffff;fill-opacity:1;filter:url(#filter3004)">
    <path
       d="m -41.416254,164.19525 a 6.8185296,6.8185296 0 1 1 -13.637059,0 6.8185296,6.8185296 0 1 1 13.637059,0 z"
       transform="matrix(1.4190262,0,0,1.4190262,110.24728,681.42835)"
       id="path4291"
       style="display:inline;fill:#ffffff;fill-opacity:1;stroke:none" />
  </g>
</svg>
