<?xml version="1.0" encoding="UTF-8" standalone="no"?>
<!-- Created with Inkscape (http://www.inkscape.org/) -->

<svg
   xmlns:dc="http://purl.org/dc/elements/1.1/"
   xmlns:cc="http://creativecommons.org/ns#"
   xmlns:rdf="http://www.w3.org/1999/02/22-rdf-syntax-ns#"
   xmlns:svg="http://www.w3.org/2000/svg"
   xmlns="http://www.w3.org/2000/svg"
   xmlns:sodipodi="http://sodipodi.sourceforge.net/DTD/sodipodi-0.dtd"
   xmlns:inkscape="http://www.inkscape.org/namespaces/inkscape"
   width="217.07001"
   height="277.67001"
   id="svg2"
   version="1.1"
   inkscape:version="0.48.3.1 r9886"
   sodipodi:docname="Lf7_150_Tafel.svg">
  <defs
     id="defs4" />
  <sodipodi:namedview
     id="base"
     pagecolor="#ffffff"
     bordercolor="#666666"
     borderopacity="1.0"
     inkscape:pageopacity="0.0"
     inkscape:pageshadow="2"
     inkscape:zoom="0.70710678"
     inkscape:cx="-252.55132"
     inkscape:cy="37.281629"
     inkscape:document-units="px"
     inkscape:current-layer="layer6"
     showgrid="false"
     inkscape:window-width="1912"
     inkscape:window-height="1137"
     inkscape:window-x="0"
     inkscape:window-y="0"
     inkscape:window-maximized="1" />
  <metadata
     id="metadata7">
    <rdf:RDF>
      <cc:Work
         rdf:about="">
        <dc:format>image/svg+xml</dc:format>
        <dc:type
           rdf:resource="http://purl.org/dc/dcmitype/StillImage" />
        <dc:title></dc:title>
      </cc:Work>
    </rdf:RDF>
  </metadata>
  <g
     inkscape:groupmode="layer"
     id="layer5"
     inkscape:label="schwarz"
     transform="translate(0,102.99001)"
     style="display:inline">
    <rect
       style="fill:#ffffff;fill-opacity:1;stroke:#000000;stroke-width:12;stroke-linecap:round;stroke-linejoin:round;stroke-miterlimit:4;stroke-opacity:1;stroke-dasharray:none"
       id="rect4663"
       width="205.06096"
       height="265.6701"
       x="6"
       y="-96.990112" />
  </g>
  <g
     inkscape:groupmode="layer"
     id="layer6"
     inkscape:label="Ziffer"
     transform="translate(0,102.99001)"
     style="display:inline">
    <path
       style="fill:#000000;fill-opacity:1;stroke:none;display:inline"
       d="m 54.833752,-53.921822 -25.38393,25.03125 0,30.1249998 23.77678,-24.1026798 0,148.946422 22.27776,0 0,-179.999992 z"
       id="rect4089"
       inkscape:connector-curvature="0"
       sodipodi:nodetypes="cccccccc" />
    <path
       style="font-size:265.14154053px;font-style:normal;font-variant:normal;font-weight:normal;font-stretch:normal;text-align:center;line-height:100%;letter-spacing:0px;word-spacing:0px;writing-mode:lr-tb;text-anchor:middle;fill:#000000;fill-opacity:1;stroke:none;display:inline;font-family:DIN 1451 Engschrift;-inkscape-font-specification:DIN 1451 Engschrift"
       d="m 145.07105,-53.913482 c -19.94378,0 -35.7749,16.67141 -35.5625,35.59375 l 0,110.25 c 0,18.675932 14.81342,35.625002 35.625,35.625002 19.94378,0 35.80615,-16.70266 35.59375,-35.625002 l 0,-46.625 c 0,-17.07295 -9.51001,-33.875 -28.21875,-33.875 -8.2112,0 -14.58962,1.71742 -20.65625,7.125 l 0,-37.5625 c 0.35617,-6.928811 6.02634,-12.551465 13.375,-12.5625 7.02775,-0.01058 13.15625,5.6528 13.15625,13.25 l 0,10.6874996 22.34375,0 0,-10.6874996 c 0,-18.67593 -14.84467,-35.59375 -35.65625,-35.59375 z m 0.0312,86.75 c 6.88272,0 13.3125,5.52774 13.3125,13.25 l 0,45.84375 c 0,7.24037 -5.81485,13.269822 -13.40625,13.281252 -7.0277,0.0106 -13.1562,-5.684042 -13.1562,-13.281252 l 0,-10.65625 0,-35.18669 c 0,-7.88673 6.81167,-13.25081 13.25,-13.25081 z"
       id="path4426-8"
       inkscape:connector-curvature="0"
       sodipodi:nodetypes="sccscssccssccssssssscss" />
  </g>
</svg>
