<?xml version="1.0" encoding="UTF-8" standalone="no"?>
<!-- Created with Inkscape (http://www.inkscape.org/) -->

<svg
   xmlns:dc="http://purl.org/dc/elements/1.1/"
   xmlns:cc="http://creativecommons.org/ns#"
   xmlns:rdf="http://www.w3.org/1999/02/22-rdf-syntax-ns#"
   xmlns:svg="http://www.w3.org/2000/svg"
   xmlns="http://www.w3.org/2000/svg"
   xmlns:sodipodi="http://sodipodi.sourceforge.net/DTD/sodipodi-0.dtd"
   xmlns:inkscape="http://www.inkscape.org/namespaces/inkscape"
   width="217.07001"
   height="277.67001"
   id="svg2"
   version="1.1"
   inkscape:version="0.48.3.1 r9886"
   sodipodi:docname="Lf7_120_Tafel.svg">
  <defs
     id="defs4" />
  <sodipodi:namedview
     id="base"
     pagecolor="#ffffff"
     bordercolor="#666666"
     borderopacity="1.0"
     inkscape:pageopacity="0.0"
     inkscape:pageshadow="2"
     inkscape:zoom="2.8284271"
     inkscape:cx="103.48098"
     inkscape:cy="137.09355"
     inkscape:document-units="px"
     inkscape:current-layer="layer6"
     showgrid="false"
     inkscape:window-width="1912"
     inkscape:window-height="1137"
     inkscape:window-x="0"
     inkscape:window-y="0"
     inkscape:window-maximized="1" />
  <metadata
     id="metadata7">
    <rdf:RDF>
      <cc:Work
         rdf:about="">
        <dc:format>image/svg+xml</dc:format>
        <dc:type
           rdf:resource="http://purl.org/dc/dcmitype/StillImage" />
        <dc:title></dc:title>
      </cc:Work>
    </rdf:RDF>
  </metadata>
  <g
     inkscape:groupmode="layer"
     id="layer5"
     inkscape:label="schwarz"
     transform="translate(0,102.99001)"
     style="display:inline">
    <rect
       style="fill:#ffffff;fill-opacity:1;stroke:#000000;stroke-width:12;stroke-linecap:round;stroke-linejoin:round;stroke-miterlimit:4;stroke-opacity:1;stroke-dasharray:none"
       id="rect4663"
       width="205.06096"
       height="265.6701"
       x="6"
       y="-96.990112" />
  </g>
  <g
     inkscape:groupmode="layer"
     id="layer6"
     inkscape:label="Ziffer"
     transform="translate(0,102.99001)"
     style="display:inline">
    <g
       id="g3839"
       transform="translate(-0.09162436,0.51213921)">
      <path
         sodipodi:nodetypes="cccccccc"
         inkscape:connector-curvature="0"
         id="rect4089-1"
         d="m 57.047724,-54.43456 -25.38393,25.03125 0,30.12500019 23.77678,-24.10268019 0,148.94642 22.27776,0 0,-179.99999 z"
         style="fill:#000000;fill-opacity:1;stroke:none;display:inline" />
      <path
         id="path3830"
         d="m 145.94127,-56.047538 c -22.5049,0 -38.84375,15.29757 -38.84375,39.625 l 0,13.4999978 22.375,0 0,-15.0624978 c 0,-9.47311 8.24074,-14.96233 15.6875,-15.0625 9.29281,-0.125 16.53125,5.76083 16.53125,15.3125 l 0,24.2499978 c 0,10.1017622 -9.40927,14.8437522 -24.03125,14.8437522 l 0,0.59375 c -0.0103,-0.002 -0.0209,0.002 -0.0312,0 l 0,10.0625 0,10.0625 c 0.0103,-0.002 0.0209,0.002 0.0312,0 l 0,0.5625 c 14.62198,0 24.03125,4.77325 24.03125,14.875 l 0,30.78125 c 0,9.55167 -7.23844,15.406268 -16.53125,15.281268 -7.44676,-0.10017 -15.6875,-5.558158 -15.6875,-15.031268 l 0,-15.0625 -22.375,0 0,13.5 c 0,24.327448 16.33885,39.625018 38.84375,39.625018 20.7827,0 38.0625,-14.62448 38.0625,-38.812518 l 0,-31.21875 c 0,-9.00176 -3.95657,-18.15828 -14.5625,-24.5625 10.60593,-6.40422 14.5625,-15.56074 14.5625,-24.5625022 l 0,-24.6874978 c 0,-24.18802 -17.2798,-38.8125 -38.0625,-38.8125 z"
         style="font-size:260px;font-style:normal;font-variant:normal;font-weight:normal;font-stretch:normal;text-align:center;line-height:100%;letter-spacing:0px;word-spacing:0px;writing-mode:lr-tb;text-anchor:middle;fill:#000000;fill-opacity:1;stroke:none;display:inline;font-family:DIN 1451 Engschrift;-inkscape-font-specification:DIN 1451 Engschrift"
         inkscape:connector-curvature="0" />
    </g>
  </g>
</svg>
