<?xml version="1.0" encoding="UTF-8" standalone="no"?>
<!-- Created with Inkscape (http://www.inkscape.org/) -->

<svg
   xmlns:dc="http://purl.org/dc/elements/1.1/"
   xmlns:cc="http://creativecommons.org/ns#"
   xmlns:rdf="http://www.w3.org/1999/02/22-rdf-syntax-ns#"
   xmlns:svg="http://www.w3.org/2000/svg"
   xmlns="http://www.w3.org/2000/svg"
   xmlns:sodipodi="http://sodipodi.sourceforge.net/DTD/sodipodi-0.dtd"
   xmlns:inkscape="http://www.inkscape.org/namespaces/inkscape"
   width="217.07001"
   height="277.67001"
   id="svg2"
   version="1.1"
   inkscape:version="0.48.4 r9939"
   sodipodi:docname="Lf7_70_Tafel.svg">
  <defs
     id="defs4" />
  <sodipodi:namedview
     id="base"
     pagecolor="#ffffff"
     bordercolor="#666666"
     borderopacity="1.0"
     inkscape:pageopacity="0.0"
     inkscape:pageshadow="2"
     inkscape:zoom="1.4"
     inkscape:cx="139.04442"
     inkscape:cy="139.05966"
     inkscape:document-units="px"
     inkscape:current-layer="layer6"
     showgrid="false"
     inkscape:window-width="1309"
     inkscape:window-height="744"
     inkscape:window-x="57"
     inkscape:window-y="24"
     inkscape:window-maximized="1" />
  <metadata
     id="metadata7">
    <rdf:RDF>
      <cc:Work
         rdf:about="">
        <dc:format>image/svg+xml</dc:format>
        <dc:type
           rdf:resource="http://purl.org/dc/dcmitype/StillImage" />
        <dc:title></dc:title>
      </cc:Work>
    </rdf:RDF>
  </metadata>
  <g
     inkscape:label="Ebene 1"
     inkscape:groupmode="layer"
     id="layer1"
     transform="translate(0,-774.69217)"
     style="display:inline" />
  <g
     inkscape:groupmode="layer"
     id="layer5"
     inkscape:label="schwarz"
     transform="translate(0,102.99001)">
    <rect
       style="fill:#ffffff;fill-opacity:1;stroke:#000000;stroke-width:12;stroke-linecap:round;stroke-linejoin:round;stroke-miterlimit:4;stroke-opacity:1;stroke-dasharray:none"
       id="rect4663"
       width="205.06096"
       height="265.6701"
       x="6"
       y="-96.990112" />
  </g>
  <g
     inkscape:groupmode="layer"
     id="layer6"
     inkscape:label="Ziffer"
     transform="translate(0,102.99001)">
    <path
       style="color:#000000;fill:#000000;fill-opacity:1;stroke:none;stroke-width:1px;marker:none;visibility:visible;display:inline;overflow:visible;enable-background:accumulate"
       d="m 103.58444,24.193196 0,25.910146 c 0,0 19.56481,1.586336 19.56481,12.690681 0,11.104345 0,0.528772 0,23.266286 0,26.438901 -31.416721,26.595941 -31.416721,8.418033 -8.41056,0 -11.40068,0 -27.806471,0 0,48.536138 84.075772,48.869588 84.075772,0 0,-17.14292 0,-23.488256 0,-33.799438 0,-10.311171 -2.75176,-18.4431 -10.74852,-26.439849 8.02436,-8.024367 13.50008,-15.351008 13.50008,-28.2974021 0,-6.60104757 0,-14.2683283 0,-26.6946289 0,-53.671008 -84.447819,-51.555889 -84.447819,0 12.164778,0 17.709178,0 24.852578,0 0,-24.588189 34.634991,-19.82919 34.634991,0 0,19.82920064 0,18.5072553 0,30.4047632 0,7.1385088 -10.57557,14.5414088 -22.2087,14.5414088 z"
       id="path3838"
       inkscape:connector-curvature="0"
       sodipodi:nodetypes="ccssccsscssccssc" />
  </g>
</svg>
