<?xml version="1.0" encoding="UTF-8" standalone="no"?>
<!-- Created with Inkscape (http://www.inkscape.org/) -->

<svg
   xmlns:dc="http://purl.org/dc/elements/1.1/"
   xmlns:cc="http://creativecommons.org/ns#"
   xmlns:rdf="http://www.w3.org/1999/02/22-rdf-syntax-ns#"
   xmlns:svg="http://www.w3.org/2000/svg"
   xmlns="http://www.w3.org/2000/svg"
   xmlns:sodipodi="http://sodipodi.sourceforge.net/DTD/sodipodi-0.dtd"
   xmlns:inkscape="http://www.inkscape.org/namespaces/inkscape"
   width="449.35999"
   height="384.07001"
   id="svg2"
   version="1.1"
   inkscape:version="0.48.3.1 r9886"
   sodipodi:docname="Lf6_130_Tafel_nu.svg">
  <defs
     id="defs4" />
  <sodipodi:namedview
     id="base"
     pagecolor="#ffffff"
     bordercolor="#666666"
     borderopacity="1.0"
     inkscape:pageopacity="0.0"
     inkscape:pageshadow="2"
     inkscape:zoom="0.70710678"
     inkscape:cx="-47.238151"
     inkscape:cy="402.01224"
     inkscape:document-units="px"
     inkscape:current-layer="layer6"
     showgrid="false"
     inkscape:window-width="1912"
     inkscape:window-height="1137"
     inkscape:window-x="0"
     inkscape:window-y="0"
     inkscape:window-maximized="1" />
  <metadata
     id="metadata7">
    <rdf:RDF>
      <cc:Work
         rdf:about="">
        <dc:format>image/svg+xml</dc:format>
        <dc:type
           rdf:resource="http://purl.org/dc/dcmitype/StillImage" />
        <dc:title />
      </cc:Work>
    </rdf:RDF>
  </metadata>
  <g
     inkscape:groupmode="layer"
     id="layer5"
     inkscape:label="Schild"
     transform="translate(0,209.39001)"
     style="display:inline">
    <path
       sodipodi:nodetypes="cccc"
       inkscape:connector-curvature="0"
       id="path4624"
       d="m 4.5,-205.32 220,375.49999 220,-375.49999 z"
       style="color:#000000;fill:#ffffff;stroke:#000000;stroke-width:9;stroke-linecap:round;stroke-linejoin:round;stroke-miterlimit:4;stroke-opacity:1;stroke-dasharray:none;stroke-dashoffset:0;marker:none;visibility:visible;display:inline;overflow:visible;enable-background:accumulate;fill-opacity:1" />
    <path
       style="color:#000000;fill:#d97100;fill-opacity:1;stroke:none;stroke-width:9;marker:none;visibility:visible;display:inline;overflow:visible;enable-background:accumulate"
       d="M 37.201488,-186.26365 224.5,133.42084 411.79851,-186.26365 z"
       id="path3780"
       inkscape:connector-curvature="0"
       sodipodi:nodetypes="cccc" />
  </g>
  <g
     inkscape:groupmode="layer"
     id="layer6"
     inkscape:label="Ziffer"
     transform="translate(0,209.39001)"
     style="display:inline">
    <path
       style="fill:#000000;fill-opacity:1;stroke:none"
       d="m 166.23145,-161.6796 -25.38393,25.03125 0,30.125 23.77678,-24.10268 0,148.946423 22.27776,0 0,-179.999993 z"
       id="rect4089"
       inkscape:connector-curvature="0"
       sodipodi:nodetypes="cccccccc" />
    <path
       style="font-size:260px;font-style:normal;font-variant:normal;font-weight:normal;font-stretch:normal;text-align:center;line-height:100%;letter-spacing:0px;word-spacing:0px;writing-mode:lr-tb;text-anchor:middle;fill:#000000;fill-opacity:1;stroke:none;font-family:DIN 1451 Engschrift;-inkscape-font-specification:DIN 1451 Engschrift"
       d="M 255.125 48.21875 C 232.6201 48.21875 216.28125 63.51632 216.28125 87.84375 L 216.28125 101.34375 L 238.65625 101.34375 L 238.65625 86.28125 C 238.65625 76.80814 246.89699 71.31892 254.34375 71.21875 C 263.63656 71.09375 270.875 76.97958 270.875 86.53125 L 270.875 110.78125 C 270.875 120.88301 261.46573 125.625 246.84375 125.625 L 246.84375 126.21875 C 246.83341 126.21646 246.82284 126.22105 246.8125 126.21875 L 246.8125 136.28125 L 246.8125 146.34375 C 246.82284 146.34145 246.83341 146.34604 246.84375 146.34375 L 246.84375 146.90625 C 261.46573 146.90625 270.875 151.6795 270.875 161.78125 L 270.875 192.5625 C 270.875 202.11417 263.63656 207.96875 254.34375 207.84375 C 246.89699 207.74358 238.65625 202.28561 238.65625 192.8125 L 238.65625 177.75 L 216.28125 177.75 L 216.28125 191.25 C 216.28125 215.57743 232.6201 230.875 255.125 230.875 C 275.9077 230.875 293.1875 216.25052 293.1875 192.0625 L 293.1875 160.84375 C 293.1875 151.84199 289.23093 142.68547 278.625 136.28125 C 289.23093 129.87703 293.1875 120.72051 293.1875 111.71875 L 293.1875 87.03125 C 293.1875 62.84323 275.9077 48.21875 255.125 48.21875 z "
       transform="translate(0,-209.39001)"
       id="path3830" />
  </g>
</svg>
