<?xml version="1.0" encoding="UTF-8" standalone="no"?>
<!-- Created with Inkscape (http://www.inkscape.org/) -->

<svg
   xmlns:dc="http://purl.org/dc/elements/1.1/"
   xmlns:cc="http://creativecommons.org/ns#"
   xmlns:rdf="http://www.w3.org/1999/02/22-rdf-syntax-ns#"
   xmlns:svg="http://www.w3.org/2000/svg"
   xmlns="http://www.w3.org/2000/svg"
   xmlns:sodipodi="http://sodipodi.sourceforge.net/DTD/sodipodi-0.dtd"
   xmlns:inkscape="http://www.inkscape.org/namespaces/inkscape"
   width="217.07001"
   height="277.67001"
   id="svg2"
   version="1.1"
   inkscape:version="0.48.4 r9939"
   sodipodi:docname="Lf7_90_Tafel.svg">
  <defs
     id="defs4" />
  <sodipodi:namedview
     id="base"
     pagecolor="#ffffff"
     bordercolor="#666666"
     borderopacity="1.0"
     inkscape:pageopacity="0.0"
     inkscape:pageshadow="2"
     inkscape:zoom="0.98994949"
     inkscape:cx="197.81336"
     inkscape:cy="-24.97833"
     inkscape:document-units="px"
     inkscape:current-layer="layer6"
     showgrid="false"
     inkscape:window-width="1309"
     inkscape:window-height="744"
     inkscape:window-x="57"
     inkscape:window-y="24"
     inkscape:window-maximized="1" />
  <metadata
     id="metadata7">
    <rdf:RDF>
      <cc:Work
         rdf:about="">
        <dc:format>image/svg+xml</dc:format>
        <dc:type
           rdf:resource="http://purl.org/dc/dcmitype/StillImage" />
        <dc:title></dc:title>
      </cc:Work>
    </rdf:RDF>
  </metadata>
  <g
     inkscape:label="Ebene 1"
     inkscape:groupmode="layer"
     id="layer1"
     transform="translate(0,-774.69217)"
     style="display:inline" />
  <g
     inkscape:groupmode="layer"
     id="layer5"
     inkscape:label="schwarz"
     transform="translate(0,102.99001)">
    <rect
       style="fill:#ffffff;fill-opacity:1;stroke:#000000;stroke-width:12;stroke-linecap:round;stroke-linejoin:round;stroke-miterlimit:4;stroke-opacity:1;stroke-dasharray:none"
       id="rect4663"
       width="205.06096"
       height="265.6701"
       x="6"
       y="-96.990112" />
  </g>
  <g
     inkscape:groupmode="layer"
     id="layer6"
     inkscape:label="Ziffer"
     transform="translate(0,102.99001)">
    <path
       style="color:#000000;fill:#000000;fill-opacity:1;stroke:none;stroke-width:1px;marker:none;visibility:visible;display:inline;overflow:visible;enable-background:accumulate"
       d="m 107.67326,-60.296322 c -20.794507,0.002 -41.562603,21.949481 -41.562602,42.874999 l -10e-7,112.56249 c 10e-7,14.137093 12.449101,36.500003 40.812603,36.500003 22.9996,0 40.8437,-20.84264 40.8437,-36.500004 l 0,-53.531247 c 0,-37.8807103 -40.0092,-38.772672 -54.062504,-33.3437409 l 4e-6,-28.2812511 c -10e-7,-15.152289 30.8125,-14.64721 30.8125,1e-6 l 24.75,0 c 0,-18.338779 -20.7994,-40.283489 -41.5937,-40.28125 z m -1.5313,94.343739 c 7.0872,-0.329181 14.625,3.32575 14.625,10.6875 l 0,43.562502 c 0,19.172121 -26.781303,20.388031 -26.781302,-1e-6 l -10e-7,-43.9375 c 10e-7,-6.64461 5.902898,-10.022049 12.156303,-10.312501 z"
       id="path4637"
       inkscape:connector-curvature="0" />
  </g>
</svg>
