<?xml version="1.0" encoding="UTF-8" standalone="no"?>
<!-- Created with Inkscape (http://www.inkscape.org/) -->

<svg
   xmlns:dc="http://purl.org/dc/elements/1.1/"
   xmlns:cc="http://creativecommons.org/ns#"
   xmlns:rdf="http://www.w3.org/1999/02/22-rdf-syntax-ns#"
   xmlns:svg="http://www.w3.org/2000/svg"
   xmlns="http://www.w3.org/2000/svg"
   xmlns:sodipodi="http://sodipodi.sourceforge.net/DTD/sodipodi-0.dtd"
   xmlns:inkscape="http://www.inkscape.org/namespaces/inkscape"
   width="217.07001"
   height="277.67001"
   id="svg2"
   version="1.1"
   inkscape:version="0.48.4 r9939"
   sodipodi:docname="Lf7_100_Tafel.svg">
  <defs
     id="defs4" />
  <sodipodi:namedview
     id="base"
     pagecolor="#ffffff"
     bordercolor="#666666"
     borderopacity="1.0"
     inkscape:pageopacity="0.0"
     inkscape:pageshadow="2"
     inkscape:zoom="0.49497475"
     inkscape:cx="339.04886"
     inkscape:cy="118.61192"
     inkscape:document-units="px"
     inkscape:current-layer="layer5"
     showgrid="false"
     inkscape:window-width="1309"
     inkscape:window-height="744"
     inkscape:window-x="57"
     inkscape:window-y="24"
     inkscape:window-maximized="1" />
  <metadata
     id="metadata7">
    <rdf:RDF>
      <cc:Work
         rdf:about="">
        <dc:format>image/svg+xml</dc:format>
        <dc:type
           rdf:resource="http://purl.org/dc/dcmitype/StillImage" />
        <dc:title></dc:title>
      </cc:Work>
    </rdf:RDF>
  </metadata>
  <g
     inkscape:label="Ebene 1"
     inkscape:groupmode="layer"
     id="layer1"
     transform="translate(0,-774.69217)"
     style="display:inline" />
  <g
     inkscape:groupmode="layer"
     id="layer5"
     inkscape:label="schwarz"
     transform="translate(0,102.99001)">
    <rect
       style="fill:#ffffff;fill-opacity:1;stroke:#000000;stroke-width:12;stroke-linecap:round;stroke-linejoin:round;stroke-miterlimit:4;stroke-opacity:1;stroke-dasharray:none"
       id="rect4663"
       width="205.06096"
       height="265.6701"
       x="6"
       y="-96.990112" />
    <path
       style="fill:#000000;fill-opacity:1;stroke:none"
       d="m 148.05967,-56.995068 c -19.09533,0.108489 -38.20872,13.142869 -38.24097,38.787272 l -0.22495,0 0,105.949987 0.22495,0 c 0.47429,51.762019 76.41766,51.182299 76.44981,0 l 0.19281,0 0,-105.949987 -0.19281,0 c -0.0476,-26.066292 -19.12124,-38.895716 -38.20884,-38.787272 z m -0.0643,23.040989 c 8.07364,-0.07304 16.16267,5.105641 16.19617,15.746283 l -0.0643,0 0,105.949987 0.0964,0 c -0.0341,20.814669 -32.29595,20.855519 -32.29595,-0.482029 l 0,-105.467958 -0.0643,0 c 0.034,-10.369342 8.07532,-15.673398 16.13191,-15.746283 z"
       id="rect4094"
       inkscape:connector-curvature="0" />
  </g>
  <g
     inkscape:groupmode="layer"
     id="layer6"
     inkscape:label="Ziffer"
     transform="translate(0,102.99001)">
    <path
       style="fill:#000000;fill-opacity:1;stroke:none"
       d="M 58.227679,45.53125 34.09375,69.3125 l 0,37.375 23.776786,-24.102678 0,142.946428 25.691964,0 0,-180 z"
       transform="translate(0,-102.99001)"
       id="rect4089"
       inkscape:connector-curvature="0"
       sodipodi:nodetypes="cccccccc" />
  </g>
</svg>
