<?xml version="1.0" encoding="UTF-8" standalone="no"?>
<!-- Created with Inkscape (http://www.inkscape.org/) -->

<svg
   xmlns:dc="http://purl.org/dc/elements/1.1/"
   xmlns:cc="http://creativecommons.org/ns#"
   xmlns:rdf="http://www.w3.org/1999/02/22-rdf-syntax-ns#"
   xmlns:svg="http://www.w3.org/2000/svg"
   xmlns="http://www.w3.org/2000/svg"
   version="1.1"
   width="195"
   height="39.3125"
   id="svg2">
  <defs
     id="defs4" />
  <metadata
     id="metadata7">
    <rdf:RDF>
      <cc:Work
         rdf:about="">
        <dc:format>image/svg+xml</dc:format>
        <dc:type
           rdf:resource="http://purl.org/dc/dcmitype/StillImage" />
        <dc:title></dc:title>
      </cc:Work>
    </rdf:RDF>
  </metadata>
  <g
     transform="translate(0,-1013.0625)"
     id="layer2">
    <path
       d="m 0,1013.0625 0,39.3125 13.59375,0 21.03125,-39.3125 -34.625,0 z m 58.71875,0 -21.03125,39.3125 35.375,0 21.03125,-39.3125 -35.375,0 z m 59.46875,0 -21.03125,39.3125 37.6875,0 21.03125,-39.3125 -37.6875,0 z m 61.78125,0 -21.03125,39.3125 36.0625,0 0,-39.3125 -15.03125,0 z"
       id="rect3052"
       style="fill:#ffffff;fill-opacity:0.49315072;stroke:none" />
    <path
       d="m 34.625239,1013.0762 24.107075,0 -21.036247,39.286 -24.107076,0 z"
       id="rect3834"
       style="fill:#000000;fill-opacity:1;stroke:none;display:inline" />
    <path
       d="m 94.08937,1013.0762 24.10709,0 -21.036252,39.286 -24.107086,0 z"
       id="rect3836"
       style="fill:#000000;fill-opacity:1;stroke:none;display:inline" />
    <path
       d="m 155.87492,1013.0762 24.10707,0 -21.03625,39.286 -24.10707,0 z"
       id="rect3838"
       style="fill:#000000;fill-opacity:1;stroke:none;display:inline" />
  </g>
</svg>
