<?xml version="1.0" encoding="UTF-8" standalone="no"?>
<svg
   xmlns:dc="http://purl.org/dc/elements/1.1/"
   xmlns:cc="http://creativecommons.org/ns#"
   xmlns:rdf="http://www.w3.org/1999/02/22-rdf-syntax-ns#"
   xmlns:svg="http://www.w3.org/2000/svg"
   xmlns="http://www.w3.org/2000/svg"
   xmlns:sodipodi="http://sodipodi.sourceforge.net/DTD/sodipodi-0.dtd"
   xmlns:inkscape="http://www.inkscape.org/namespaces/inkscape"
   version="1.1"
   width="179.42291"
   height="114.8891"
   id="svg2"
   inkscape:version="0.91 r13725"
   sodipodi:docname="de-ne13a.svg">
  <sodipodi:namedview
     pagecolor="#ffffff"
     bordercolor="#666666"
     borderopacity="1"
     objecttolerance="10"
     gridtolerance="10"
     guidetolerance="10"
     inkscape:pageopacity="0"
     inkscape:pageshadow="2"
     inkscape:window-width="640"
     inkscape:window-height="480"
     id="namedview10"
     showgrid="false"
     inkscape:zoom="2.5938057"
     inkscape:cx="122.86737"
     inkscape:cy="64.38416"
     inkscape:current-layer="svg2" />
  <defs
     id="defs4" />
  <metadata
     id="metadata7">
    <rdf:RDF>
      <cc:Work
         rdf:about="">
        <dc:format>image/svg+xml</dc:format>
        <dc:type
           rdf:resource="http://purl.org/dc/dcmitype/StillImage" />
        <dc:title />
      </cc:Work>
    </rdf:RDF>
  </metadata>
  <path
     d="M 3.2653597,44.426077 44.470306,3.3070601 C 47.278791,0.64497283 50.563907,0.0602382 53.989479,0.0602382 L 128.63798,0 c 2.68796,0 4.86208,1.940443 6.35886,3.4372207 l 40.63903,40.7163213 c 2.28684,2.291196 3.78704,5.28469 3.78704,8.521864 l 0,56.370414 c 0,3.23718 -2.6061,5.84328 -5.84327,5.84328 l -167.736365,0 C 2.6061007,114.8891 0,112.283 0,109.04582 L 0,52.675406 c 0,-3.237174 0.93446315,-6.00295 3.2653597,-8.249329 z"
     id="rect3844"
     style="fill:#000000;fill-opacity:1;stroke:none" />
  <g
     transform="translate(-3.7496372,-861.51225)"
     id="layer1" />
  <g
     transform="translate(-3.7496372,-861.51225)"
     id="layer3" />
  <path
     d="m 114.85473,30.49972 a 9.9679403,9.9679403 0 1 1 -19.935879,0 9.9679403,9.9679403 0 1 1 19.935879,0 z"
     id="path3849"
     style="fill:#ffffff;fill-opacity:1;stroke:none" />
  <rect
     style="opacity:1;fill:#cd5310;fill-opacity:1;stroke:none;stroke-width:7;stroke-linecap:square;stroke-linejoin:miter;stroke-miterlimit:4;stroke-dasharray:none;stroke-opacity:1"
     id="rect4354"
     width="154.8082"
     height="28.235456"
     x="12.307357"
     y="64.746826" />
</svg>
