<?xml version="1.0" encoding="UTF-8" standalone="no"?>
<!-- Created with Inkscape (http://www.inkscape.org/) -->

<svg
   xmlns:dc="http://purl.org/dc/elements/1.1/"
   xmlns:cc="http://creativecommons.org/ns#"
   xmlns:rdf="http://www.w3.org/1999/02/22-rdf-syntax-ns#"
   xmlns:svg="http://www.w3.org/2000/svg"
   xmlns="http://www.w3.org/2000/svg"
   version="1.1"
   width="132.37535"
   height="192.22366"
   id="svg2">
  <defs
     id="defs4" />
  <metadata
     id="metadata7">
    <rdf:RDF>
      <cc:Work
         rdf:about="">
        <dc:format>image/svg+xml</dc:format>
        <dc:type
           rdf:resource="http://purl.org/dc/dcmitype/StillImage" />
        <dc:title></dc:title>
      </cc:Work>
    </rdf:RDF>
  </metadata>
  <g
     transform="translate(3.3479854e-4,-860.15135)"
     id="layer1" />
  <g
     transform="translate(3.3479854e-4,-860.15135)"
     id="layer2">
    <rect
       width="130.56221"
       height="190.41373"
       x="0.89999998"
       y="861.04846"
       id="rect3836"
       style="fill:#000000;fill-opacity:1;stroke:none" />
    <path
       d="m 23.40625,30.78125 0,135 21.40625,0 0,-57.65625 29.28125,0 0,-0.0312 c 48.61099,-0.067 50.38624,-77.248193 0,-77.3125 l -0.0625,0 -29.21875,0 -4.8125,0 -16.59375,0 z m 50.6875,21.40625 c 20.367908,0.0716 20.652038,34.430697 0,34.5 -0.02084,7e-5 -0.04162,0 -0.0625,0 l -29.21875,0 0,-34.46875 29.28125,0 0,-0.03125 z"
       transform="translate(-3.3479854e-4,860.15135)"
       id="rect3931"
       style="fill:#ffffff;fill-opacity:1;stroke:none" />
  </g>
  <g
     transform="translate(3.3479854e-4,-860.15135)"
     id="layer3" />
</svg>
