<?xml version="1.0" encoding="UTF-8" standalone="no"?>
<!-- Created with Inkscape (http://www.inkscape.org/) -->

<svg
   xmlns:dc="http://purl.org/dc/elements/1.1/"
   xmlns:cc="http://creativecommons.org/ns#"
   xmlns:rdf="http://www.w3.org/1999/02/22-rdf-syntax-ns#"
   xmlns:svg="http://www.w3.org/2000/svg"
   xmlns="http://www.w3.org/2000/svg"
   version="1.1"
   width="467.19656"
   height="485.60495"
   id="svg2984">
  <defs
     id="defs2986" />
  <metadata
     id="metadata2989">
    <rdf:RDF>
      <cc:Work
         rdf:about="">
        <dc:format>image/svg+xml</dc:format>
        <dc:type
           rdf:resource="http://purl.org/dc/dcmitype/StillImage" />
        <dc:title></dc:title>
      </cc:Work>
    </rdf:RDF>
  </metadata>
  <g
     transform="translate(-684.63447,-649.85377)"
     id="layer1" />
  <path
     d="M 0.31176736,282.47143 73.022511,206.67836 28.25012,162.76574 C -35.110842,99.404775 66.697669,12.926054 118.79058,65.018967 L 164.55865,109.59662 266.59873,0.05182624 399.30252,-4.6919723e-6 466.7253,63.973911 467.19656,199.33942 194.16461,485.20748 80.414825,485.60494 -3.0878073e-6,402.15965 z"
     id="rect5637"
     style="fill:#000000;fill-opacity:1;stroke:none" />
  <path
     d="m 120.03126,364.12261 a 36.949791,36.949791 0 1 1 -73.899581,0 36.949791,36.949791 0 1 1 73.899581,0 z"
     id="path4905"
     style="fill:#fdca05;fill-opacity:1;stroke:none;display:inline" />
  <path
     d="m 337.21406,117.64538 a 36.949791,36.949791 0 1 1 -73.89958,0 36.949791,36.949791 0 1 1 73.89958,0 z"
     id="path4905-3"
     style="fill:#fdca05;fill-opacity:1;stroke:none;display:inline" />
  <g
     transform="translate(-684.63447,157.2484)"
     id="layer5"
     style="display:none">
    <path
       d="m -41.416254,164.19525 a 6.8185296,6.8185296 0 1 1 -13.637059,0 6.8185296,6.8185296 0 1 1 13.637059,0 z"
       transform="matrix(5.4190263,0,0,5.4190263,1128.0964,-682.90417)"
       id="path5684"
       style="fill:#3de0b7;fill-opacity:1;stroke:none;display:inline" />
    <path
       d="m -41.416254,164.19525 a 6.8185296,6.8185296 0 1 1 -13.637059,0 6.8185296,6.8185296 0 1 1 13.637059,0 z"
       transform="matrix(5.4190263,0,0,5.4190263,1343.2589,-929.38139)"
       id="path5687"
       style="fill:#3de0b7;fill-opacity:1;stroke:none;display:inline" />
  </g>
  <g
     transform="translate(-684.63447,157.2484)"
     id="layer6"
     style="display:none">
    <path
       d="m -41.416254,164.19525 a 6.8185296,6.8185296 0 1 1 -13.637059,0 6.8185296,6.8185296 0 1 1 13.637059,0 z"
       transform="matrix(5.4190263,0,0,5.4190263,1034.1522,-682.90417)"
       id="path5690"
       style="fill:#fdca05;fill-opacity:1;stroke:none;display:inline" />
    <path
       d="m -41.416254,164.19525 a 6.8185296,6.8185296 0 1 1 -13.637059,0 6.8185296,6.8185296 0 1 1 13.637059,0 z"
       transform="matrix(5.4190263,0,0,5.4190263,1343.2589,-929.38139)"
       id="path5693"
       style="fill:#3de0b7;fill-opacity:1;stroke:none;display:inline" />
  </g>
  <path
     d="m 100.2511,119.31451 a 22.041184,22.041184 0 1 1 -44.082368,0 22.041184,22.041184 0 1 1 44.082368,0 z"
     id="path4905-3-8"
     style="fill:#ffffff;fill-opacity:1;stroke:none;display:inline" />
</svg>
