<?xml version="1.0" encoding="UTF-8" standalone="no"?>
<!-- Created with Inkscape (http://www.inkscape.org/) -->

<svg
   xmlns:dc="http://purl.org/dc/elements/1.1/"
   xmlns:cc="http://creativecommons.org/ns#"
   xmlns:rdf="http://www.w3.org/1999/02/22-rdf-syntax-ns#"
   xmlns:svg="http://www.w3.org/2000/svg"
   xmlns="http://www.w3.org/2000/svg"
   version="1.1"
   width="387.19199"
   height="858.35809"
   id="svg2">
  <defs
     id="defs4" />
  <metadata
     id="metadata7">
    <rdf:RDF>
      <cc:Work
         rdf:about="">
        <dc:format>image/svg+xml</dc:format>
        <dc:type
           rdf:resource="http://purl.org/dc/dcmitype/StillImage" />
        <dc:title></dc:title>
      </cc:Work>
    </rdf:RDF>
  </metadata>
  <g
     transform="translate(0,-194.00406)"
     id="layer13"
     style="display:inline">
    <rect
       width="28.571398"
       height="697.14203"
       x="193.59544"
       y="355.22012"
       id="rect4681"
       style="fill:#000000;fill-opacity:1;stroke:none" />
  </g>
  <g
     transform="translate(0,-194.00406)"
     id="layer11"
     style="display:inline">
    <path
       d="m 13.646835,739.70336 c -18.19578,18.19579 -18.19578,47.69765 0,65.89344 1.137239,1.13724 2.337587,2.209 3.557626,3.20408 l 61.451935,61.45193 c 0.995082,1.22004 2.044738,2.39829 3.181977,3.53553 18.195787,18.19579 47.697657,18.19579 65.893447,0 18.19578,-18.19579 18.19578,-47.69765 0,-65.89344 -0.25849,-0.25848 -0.53253,-0.50017 -0.7955,-0.7513 l 0.0221,-0.0221 -69.296389,-69.29638 -0.06629,0.0663 C 59.299905,721.55951 31.206506,722.14371 13.646845,739.70337 z"
       id="path4674"
       style="fill:#000000;fill-opacity:1;stroke:none;display:inline" />
  </g>
  <g
     transform="translate(0,-194.00406)"
     id="layer8"
     style="display:inline">
    <path
       d="m 12.121832,743.76056 a 37.880722,37.880722 0 1 1 -75.761444,0 37.880722,37.880722 0 1 1 75.761444,0 z"
       transform="matrix(1.0533321,0,0,1.0533321,145.29852,57.201917)"
       id="path4495"
       style="fill:#ffe200;fill-opacity:1;stroke:none;display:inline" />
    <g
       transform="matrix(0.707106,-0.707106,0.707106,0.707106,-306.68458,340.30579)"
       id="g4596"
       style="display:inline">
      <path
         d="m 61.071429,914.86218 -34.642858,-27.85714 -1.785714,-440 69.642857,0 0,440 z"
         id="path4513"
         style="color:#000000;fill:#ffffff;fill-opacity:1;stroke:none;stroke-width:1px;marker:none;visibility:visible;display:inline;overflow:visible;enable-background:accumulate" />
      <path
         d="m 38.650654,461.56738 42.857143,0 0,418.57144 -21.428571,16.78571 -21.428572,-16.78571 z"
         id="path4515"
         style="fill:#dd9501;fill-opacity:1;stroke:#000000;stroke-width:8.5;stroke-miterlimit:4;stroke-opacity:1;display:inline" />
    </g>
    <path
       d="m 313.70168,583.51259 c -18.19579,18.19579 -47.69765,18.19579 -65.89344,0 -1.13724,-1.13724 -2.20902,-2.33757 -3.20408,-3.55763 l -61.45193,-61.45193 c -1.22004,-0.99508 -2.39829,-2.04474 -3.53553,-3.18198 -18.19579,-18.19579 -18.19579,-47.69765 0,-65.89344 18.19579,-18.19579 47.69765,-18.19579 65.89344,0 0.25848,0.25848 0.50015,0.53253 0.75134,0.79546 l 0.0221,-0.0221 69.29638,69.29639 -0.0662,0.0663 c 16.3319,18.29583 15.74771,46.38922 -1.81195,63.9489 z"
       id="path4612"
       style="fill:#000000;fill-opacity:1;stroke:none;display:inline" />
    <path
       d="m 12.121832,743.76056 a 37.880722,37.880722 0 1 1 -75.761444,0 37.880722,37.880722 0 1 1 75.761444,0 z"
       transform="matrix(0.7448183,-0.7448183,-0.7448183,-0.7448183,853.72146,1085.6992)"
       id="path4616"
       style="fill:#3de0b7;fill-opacity:1;stroke:none;display:inline" />
  </g>
  <g
     transform="translate(0,-194.00406)"
     id="layer12"
     style="display:inline">
    <g
       transform="matrix(0.9999989,0,0,0.9999989,149.30979,102.85822)"
       id="g4587"
       style="display:inline">
      <path
         d="m 187.14285,253.07646 a 132.14285,132.14285 0 1 1 -264.285703,0 132.14285,132.14285 0 1 1 264.285703,0 z"
         transform="matrix(1.2524472,0,0,1.2524472,-14.598881,-60.317015)"
         id="path4589"
         style="fill:#ffffff;fill-opacity:1;stroke:none" />
      <path
         d="m 187.14285,253.07646 a 132.14285,132.14285 0 1 1 -264.285703,0 132.14285,132.14285 0 1 1 264.285703,0 z"
         transform="translate(-1.4285714,5.7142858)"
         id="path4591"
         style="fill:#dd9501;fill-opacity:1;stroke:#000000;stroke-width:13;stroke-miterlimit:4;stroke-opacity:1;stroke-dasharray:none" />
    </g>
  </g>
</svg>
