<?xml version="1.0" encoding="UTF-8" standalone="no"?>
<!-- Created with Inkscape (http://www.inkscape.org/) -->

<svg
   xmlns:dc="http://purl.org/dc/elements/1.1/"
   xmlns:cc="http://creativecommons.org/ns#"
   xmlns:rdf="http://www.w3.org/1999/02/22-rdf-syntax-ns#"
   xmlns:svg="http://www.w3.org/2000/svg"
   xmlns="http://www.w3.org/2000/svg"
   version="1.1"
   width="331.00351"
   height="723.78497"
   id="svg2">
  <defs
     id="defs4" />
  <metadata
     id="metadata7">
    <rdf:RDF>
      <cc:Work
         rdf:about="">
        <dc:format>image/svg+xml</dc:format>
        <dc:type
           rdf:resource="http://purl.org/dc/dcmitype/StillImage" />
        <dc:title></dc:title>
      </cc:Work>
    </rdf:RDF>
  </metadata>
  <g
     transform="matrix(1,0,0,0.8069646,-38.093681,-125.43401)"
     id="layer13"
     style="display:inline">
    <rect
       width="28.571398"
       height="697.14203"
       x="193.59544"
       y="355.22012"
       id="rect4681"
       style="fill:#000000;fill-opacity:1;stroke:none" />
  </g>
  <g
     transform="translate(-38.093681,-194.00407)"
     id="layer9"
     style="display:inline">
    <path
       d="m 297.16676,714.31794 c -25.73273,0 -46.5937,-20.86097 -46.5937,-46.5937 0,-1.6083 0.0909,-3.21491 0.25,-4.78124 l 0,-86.90616 c -0.15907,-1.56633 -0.25,-3.14169 -0.25,-4.74999 0,-25.73273 20.86097,-46.5937 46.5937,-46.5937 25.73274,0 46.5937,20.86097 46.5937,46.5937 0,0.36555 -0.0229,0.73022 -0.0312,1.09375 l 0.0312,0 0,97.99989 -0.0937,0 c -1.38872,24.4855 -21.66683,43.93745 -46.49995,43.93745 z"
       id="path4582"
       style="fill:#000000;fill-opacity:1;stroke:none;display:inline" />
    <path
       d="m 118.54643,701.21918 c -25.732735,0 -46.593702,20.86096 -46.593702,46.59369 0,1.6083 0.09093,3.21492 0.25,4.78125 l 0,86.90615 c -0.15907,1.56633 -0.25,3.1417 -0.25,4.75 0,25.73273 20.860967,46.5937 46.593702,46.5937 25.73273,0 46.5937,-20.86097 46.5937,-46.5937 0,-0.36555 -0.0229,-0.73022 -0.0312,-1.09375 l 0.0312,0 0,-97.99989 -0.0937,0 c -1.38872,-24.48551 -21.66684,-43.93745 -46.49995,-43.93745 z"
       id="rect3803"
       style="fill:#000000;fill-opacity:1;stroke:none;display:inline" />
  </g>
  <path
     d="m 119.97315,646.62472 a 39.90098,39.90098 0 0 1 -79.801957,0 39.90098,39.90098 0 1 1 79.801957,0 z"
     id="path3778"
     style="fill:#ffe200;fill-opacity:1;stroke:none" />
  <path
     d="m 298.59349,380.90422 a 39.90098,39.90098 0 1 0 -79.80196,0 39.90098,39.90098 0 0 0 79.80196,0 z"
     id="path3778-3"
     style="fill:#ffe200;fill-opacity:1;stroke:none;display:inline" />
  <g
     transform="translate(-38.093681,-194.00407)"
     id="layer14"
     style="display:inline">
    <g
       transform="matrix(0.9999989,0,0,0.9999989,149.30979,102.85822)"
       id="g3842"
       style="display:inline">
      <path
         d="m 187.14285,253.07646 a 132.14285,132.14285 0 1 1 -264.285703,0 132.14285,132.14285 0 1 1 264.285703,0 z"
         transform="matrix(1.2524472,0,0,1.2524472,-14.598881,-60.317015)"
         id="path3840"
         style="fill:#ffffff;fill-opacity:1;stroke:none" />
      <path
         d="m 187.14285,253.07646 a 132.14285,132.14285 0 1 1 -264.285703,0 132.14285,132.14285 0 1 1 264.285703,0 z"
         transform="translate(-1.4285714,5.7142858)"
         id="path3070"
         style="fill:#dd9501;fill-opacity:1;stroke:#000000;stroke-width:13;stroke-miterlimit:4;stroke-opacity:1;stroke-dasharray:none" />
    </g>
  </g>
</svg>
