<?xml version="1.0" encoding="UTF-8" standalone="no"?>
<!-- Created with Inkscape (http://www.inkscape.org/) -->

<svg
   xmlns:dc="http://purl.org/dc/elements/1.1/"
   xmlns:cc="http://creativecommons.org/ns#"
   xmlns:rdf="http://www.w3.org/1999/02/22-rdf-syntax-ns#"
   xmlns:svg="http://www.w3.org/2000/svg"
   xmlns="http://www.w3.org/2000/svg"
   version="1.1"
   width="387.19199"
   height="858.35809"
   id="svg2">
  <defs
     id="defs4" />
  <metadata
     id="metadata7">
    <rdf:RDF>
      <cc:Work
         rdf:about="">
        <dc:format>image/svg+xml</dc:format>
        <dc:type
           rdf:resource="http://purl.org/dc/dcmitype/StillImage" />
        <dc:title></dc:title>
      </cc:Work>
    </rdf:RDF>
  </metadata>
  <g
     transform="translate(0,-194.00406)"
     id="layer13"
     style="display:inline">
    <rect
       width="28.571398"
       height="697.14203"
       x="193.59544"
       y="355.22012"
       id="rect4681"
       style="fill:#000000;fill-opacity:1;stroke:none" />
  </g>
  <g
     transform="translate(0,-194.00406)"
     id="layer10"
     style="display:inline">
    <path
       d="m 118.54643,701.21918 c -25.732735,0 -46.593702,20.86096 -46.593702,46.59369 0,1.6083 0.09093,3.21492 0.25,4.78125 l 0,86.90615 c -0.15907,1.56633 -0.25,3.1417 -0.25,4.75 0,25.73273 20.860967,46.5937 46.593702,46.5937 25.73273,0 46.5937,-20.86097 46.5937,-46.5937 0,-0.36555 -0.0229,-0.73022 -0.0312,-1.09375 l 0.0312,0 0,-97.99989 -0.0937,0 c -1.38872,-24.48551 -21.66684,-43.93745 -46.49995,-43.93745 z"
       id="path4650"
       style="fill:#000000;fill-opacity:1;stroke:none;display:inline" />
    <path
       d="m 297.16676,714.31794 c -25.73273,0 -46.5937,-20.86097 -46.5937,-46.5937 0,-1.6083 0.0909,-3.21491 0.25,-4.78124 l 0,-86.90616 c -0.15907,-1.56633 -0.25,-3.14169 -0.25,-4.74999 0,-25.73273 20.86097,-46.5937 46.5937,-46.5937 25.73274,0 46.5937,20.86097 46.5937,46.5937 0,0.36555 -0.0229,0.73022 -0.0312,1.09375 l 0.0312,0 0,97.99989 -0.0937,0 c -1.38872,24.4855 -21.66683,43.93745 -46.49995,43.93745 z"
       id="path4632"
       style="fill:#000000;fill-opacity:1;stroke:none;display:inline" />
  </g>
  <g
     transform="translate(0,-194.00406)"
     id="layer7"
     style="display:inline">
    <path
       d="m 12.121832,743.76056 a 37.880722,37.880722 0 1 1 -75.761444,0 37.880722,37.880722 0 1 1 75.761444,0 z"
       transform="matrix(1.0533321,0,0,1.0533321,145.29852,-35.732017)"
       id="path3831"
       style="fill:#3de0b7;fill-opacity:1;stroke:none" />
    <path
       d="m 12.121832,743.76056 a 37.880722,37.880722 0 1 1 -75.761444,0 37.880722,37.880722 0 1 1 75.761444,0 z"
       transform="matrix(1.0533321,0,0,-1.0533321,323.91886,1451.2692)"
       id="path3833"
       style="fill:#3de0b7;fill-opacity:1;stroke:none" />
    <path
       d="m 12.121832,743.76056 a 37.880722,37.880722 0 1 1 -75.761444,0 37.880722,37.880722 0 1 1 75.761444,0 z"
       transform="matrix(1.0533321,0,0,-1.0533321,323.91886,1451.2692)"
       id="path4497"
       style="fill:#3de0b7;fill-opacity:1;stroke:none;display:inline" />
    <g
       transform="matrix(0.9999989,0,0,0.9999989,149.30979,102.85822)"
       id="g4657"
       style="display:inline">
      <path
         d="m 61.071429,914.86218 -34.642858,-27.85714 -1.785714,-440 69.642857,0 0,440 z"
         id="path4659"
         style="color:#000000;fill:#ffffff;fill-opacity:1;stroke:none;stroke-width:1px;marker:none;visibility:visible;display:inline;overflow:visible;enable-background:accumulate" />
      <path
         d="m 38.650654,461.56738 42.857143,0 0,418.57144 -21.428571,16.78571 -21.428572,-16.78571 z"
         id="path4661"
         style="fill:#dd9501;fill-opacity:1;stroke:#000000;stroke-width:8.5;stroke-miterlimit:4;stroke-opacity:1;display:inline" />
    </g>
  </g>
  <g
     transform="translate(0,-194.00406)"
     id="layer15"
     style="display:inline">
    <rect
       width="327.14249"
       height="11.428559"
       x="39.30991"
       y="353.79153"
       id="rect4688"
       style="fill:#000000;fill-opacity:1;stroke:none" />
  </g>
</svg>
