<?xml version="1.0" encoding="UTF-8" standalone="no"?>
<!-- Created with Inkscape (http://www.inkscape.org/) -->

<svg
   xmlns:dc="http://purl.org/dc/elements/1.1/"
   xmlns:cc="http://creativecommons.org/ns#"
   xmlns:rdf="http://www.w3.org/1999/02/22-rdf-syntax-ns#"
   xmlns:svg="http://www.w3.org/2000/svg"
   xmlns="http://www.w3.org/2000/svg"
   version="1.1"
   width="29.200998"
   height="63.906998"
   viewBox="0 0 29.200999 63.907"
   id="Ebene_1"
   xml:space="preserve"><metadata
     id="metadata85"><rdf:RDF><cc:Work
         rdf:about=""><dc:format>image/svg+xml</dc:format><dc:type
           rdf:resource="http://purl.org/dc/dcmitype/StillImage" /><dc:title></dc:title></cc:Work></rdf:RDF></metadata><defs
     id="defs83" /><rect
     width="29.201"
     height="63.907001"
     x="0"
     y="-8.6623146e-08"
     id="rect5"
     style="fill:#7e7e7e;stroke:none" /><circle
     cx="21.684999"
     cy="13.376"
     r="1.276"
     transform="translate(-7.0840001,-7.0910006)"
     id="circle9"
     style="fill:#ffffff;stroke:none" /><circle
     cx="19.037001"
     cy="15.997"
     r="1.276"
     transform="translate(-7.0840001,-7.0910006)"
     id="circle11"
     style="fill:#ffffff;stroke:none" /><circle
     cx="16.389999"
     cy="18.618"
     r="1.275"
     transform="translate(-7.0840001,-7.0910006)"
     id="circle13"
     style="fill:#ffffff;stroke:none" /><circle
     cx="13.744"
     cy="21.239"
     r="1.275"
     transform="translate(-7.0840001,-7.0910006)"
     id="circle15"
     style="fill:#ffffff;stroke:none" /><circle
     cx="21.684999"
     cy="56.853001"
     r="1.276"
     transform="translate(-7.0840001,-7.0910006)"
     id="circle17"
     style="fill:#ffffff;stroke:none" /><circle
     cx="19.037001"
     cy="59.473999"
     r="1.276"
     transform="translate(-7.0840001,-7.0910006)"
     id="circle19"
     style="fill:#ffffff;stroke:none" /><circle
     cx="16.389999"
     cy="62.095001"
     r="1.275"
     transform="translate(-7.0840001,-7.0910006)"
     id="circle21"
     style="fill:#ffffff;stroke:none" /><circle
     cx="13.744"
     cy="64.716003"
     r="1.275"
     transform="translate(-7.0840001,-7.0910006)"
     id="circle23"
     style="fill:#ffffff;stroke:none" /><circle
     cx="13.744"
     cy="24.862"
     r="1.275"
     transform="translate(-7.0840001,-7.0910006)"
     id="circle25"
     style="fill:#ffffff;stroke:none" /><circle
     cx="13.744"
     cy="28.485001"
     r="1.275"
     transform="translate(-7.0840001,-7.0910006)"
     id="circle27"
     style="fill:#ffffff;stroke:none" /><circle
     cx="13.744"
     cy="32.108002"
     r="1.275"
     transform="translate(-7.0840001,-7.0910006)"
     id="circle29"
     style="fill:#ffffff;stroke:none" /><circle
     cx="13.744"
     cy="35.730999"
     r="1.275"
     transform="translate(-7.0840001,-7.0910006)"
     id="circle31"
     style="fill:#ffffff;stroke:none" /><circle
     cx="13.744"
     cy="39.354"
     r="1.275"
     transform="translate(-7.0840001,-7.0910006)"
     id="circle33"
     style="fill:#ffffff;stroke:none" /><circle
     cx="13.744"
     cy="42.979"
     r="1.275"
     transform="translate(-7.0840001,-7.0910006)"
     id="circle35"
     style="fill:#ffffff;stroke:none" /><circle
     cx="13.744"
     cy="46.602001"
     r="1.275"
     transform="translate(-7.0840001,-7.0910006)"
     id="circle37"
     style="fill:#ffffff;stroke:none" /><circle
     cx="13.744"
     cy="50.224998"
     r="1.275"
     transform="translate(-7.0840001,-7.0910006)"
     id="circle39"
     style="fill:#ffffff;stroke:none" /><circle
     cx="13.744"
     cy="53.848"
     r="1.275"
     transform="translate(-7.0840001,-7.0910006)"
     id="circle41"
     style="fill:#ffffff;stroke:none" /><circle
     cx="13.744"
     cy="57.471001"
     r="1.275"
     transform="translate(-7.0840001,-7.0910006)"
     id="circle43"
     style="fill:#ffffff;stroke:none" /><circle
     cx="13.744"
     cy="61.094002"
     r="1.275"
     transform="translate(-7.0840001,-7.0910006)"
     id="circle45"
     style="fill:#ffffff;stroke:none" /><circle
     cx="24.332001"
     cy="15.997"
     r="1.275"
     transform="translate(-7.0840001,-7.0910006)"
     id="circle47"
     style="fill:#ffffff;stroke:none" /><circle
     cx="26.979"
     cy="18.618"
     r="1.276"
     transform="translate(-7.0840001,-7.0910006)"
     id="circle49"
     style="fill:#ffffff;stroke:none" /><circle
     cx="29.625999"
     cy="21.239"
     r="1.276"
     transform="translate(-7.0840001,-7.0910006)"
     id="circle51"
     style="fill:#ffffff;stroke:none" /><circle
     cx="24.332001"
     cy="59.473999"
     r="1.275"
     transform="translate(-7.0840001,-7.0910006)"
     id="circle53"
     style="fill:#ffffff;stroke:none" /><circle
     cx="26.979"
     cy="62.095001"
     r="1.276"
     transform="translate(-7.0840001,-7.0910006)"
     id="circle55"
     style="fill:#ffffff;stroke:none" /><circle
     cx="29.625999"
     cy="64.716003"
     r="1.276"
     transform="translate(-7.0840001,-7.0910006)"
     id="circle57"
     style="fill:#ffffff;stroke:none" /><circle
     cx="29.625999"
     cy="24.862"
     r="1.276"
     transform="translate(-7.0840001,-7.0910006)"
     id="circle59"
     style="fill:#ffffff;stroke:none" /><circle
     cx="29.625999"
     cy="28.485001"
     r="1.276"
     transform="translate(-7.0840001,-7.0910006)"
     id="circle61"
     style="fill:#ffffff;stroke:none" /><circle
     cx="29.625999"
     cy="32.108002"
     r="1.276"
     transform="translate(-7.0840001,-7.0910006)"
     id="circle63"
     style="fill:#ffffff;stroke:none" /><circle
     cx="29.625999"
     cy="35.730999"
     r="1.276"
     transform="translate(-7.0840001,-7.0910006)"
     id="circle65"
     style="fill:#ffffff;stroke:none" /><circle
     cx="29.625999"
     cy="39.354"
     r="1.276"
     transform="translate(-7.0840001,-7.0910006)"
     id="circle67"
     style="fill:#ffffff;stroke:none" /><circle
     cx="29.625999"
     cy="42.979"
     r="1.276"
     transform="translate(-7.0840001,-7.0910006)"
     id="circle69"
     style="fill:#ffffff;stroke:none" /><circle
     cx="29.625999"
     cy="46.602001"
     r="1.276"
     transform="translate(-7.0840001,-7.0910006)"
     id="circle71"
     style="fill:#ffffff;stroke:none" /><circle
     cx="29.625999"
     cy="50.224998"
     r="1.276"
     transform="translate(-7.0840001,-7.0910006)"
     id="circle73"
     style="fill:#ffffff;stroke:none" /><circle
     cx="29.625999"
     cy="53.848"
     r="1.276"
     transform="translate(-7.0840001,-7.0910006)"
     id="circle75"
     style="fill:#ffffff;stroke:none" /><circle
     cx="29.625999"
     cy="57.471001"
     r="1.276"
     transform="translate(-7.0840001,-7.0910006)"
     id="circle77"
     style="fill:#ffffff;stroke:none" /><circle
     cx="29.625999"
     cy="61.094002"
     r="1.276"
     transform="translate(-7.0840001,-7.0910006)"
     id="circle79"
     style="fill:#ffffff;stroke:none" /></svg>