<?xml version="1.0" encoding="UTF-8" standalone="no"?>
<svg width="200px" height="178px" viewBox="0 0 200 178" version="1.1" xmlns="http://www.w3.org/2000/svg" xmlns:xlink="http://www.w3.org/1999/xlink" xmlns:sketch="http://www.bohemiancoding.com/sketch/ns">
    <title>Slice 1 1</title>
    <description>Created with Sketch (http://www.bohemiancoding.com/sketch)</description>
    <defs></defs>
    <g id="Page-1" stroke="none" stroke-width="1" fill="none" fill-rule="evenodd" sketch:type="MSPage">
        <g id="Zs3_60_Tafel" sketch:type="MSLayerGroup" transform="translate(5.000000, 5.000000)" stroke="#FFFFFF" stroke-width="10.1550102" fill="#000000">
            <g id="layer1" transform="translate(0.000000, 0.317820)" sketch:type="MSShapeGroup">
                <path d="M189.43777,164.2847 L0.0775052,164.2847 L95.06521,-0.23886 L189.92249,164.0587" id="path3047"></path>
            </g>
        </g>
        <path d="M79.0364913,75 L68,85.9859375 L68,99.2074653 L78.3377304,88.6290668 L78.3377304,153.999997 L88.023713,153.999997 L88.023713,75 L79.0364913,75 Z" id="rect4089" fill="#FFFFFF" sketch:type="MSShapeGroup"></path>
        <path d="M128.999161,118.942652 L128.999161,139.236684 C129.083597,147.471949 122.782287,154.736383 114.853999,154.736383 C106.58073,154.736383 100.684952,147.364708 100.684952,139.236684 L100.684952,134.593451 L109.567803,134.593451 L109.567803,139.236684 C109.567803,142.543093 112.000596,145.019087 114.794352,145.014482 C117.812175,145.009508 120.125081,142.387792 120.125081,139.236684 L120.125081,119.278191 C120.125081,115.917358 117.571701,113.521093 114.835599,113.521093 C112.685464,113.521093 110.394657,114.90251 109.567803,117.648225 L100.720235,117.648225 L100.720235,75.7558594 L128.999161,75.7558594 L128.999161,85.4595936 L109.567803,85.4595936 L109.567803,107.292809 C111.979483,104.939355 114.517718,104.201167 117.781929,104.201167 C125.21925,104.201167 128.999161,111.512267 128.999161,118.942652 L128.999161,118.942652 Z" id="path4426" fill="#FFFFFF" sketch:type="MSShapeGroup"></path>
    </g>
</svg>