<?xml version="1.0" encoding="UTF-8" standalone="no"?>
<!-- Created with Inkscape (http://www.inkscape.org/) -->

<svg
   xmlns:dc="http://purl.org/dc/elements/1.1/"
   xmlns:cc="http://creativecommons.org/ns#"
   xmlns:rdf="http://www.w3.org/1999/02/22-rdf-syntax-ns#"
   xmlns:svg="http://www.w3.org/2000/svg"
   xmlns="http://www.w3.org/2000/svg"
   xmlns:sodipodi="http://sodipodi.sourceforge.net/DTD/sodipodi-0.dtd"
   xmlns:inkscape="http://www.inkscape.org/namespaces/inkscape"
   width="200"
   height="174.67999"
   id="svg2"
   version="1.1"
   inkscape:version="0.48.4 r9939"
   sodipodi:docname="Zs3_20_Tafel.svg">
  <defs
     id="defs4">
    <inkscape:path-effect
       effect="envelope"
       id="path-effect4080"
       is_visible="true"
       yy="true"
       xx="true"
       bendpath1="m -166.17009,46.722467 38.52293,0"
       bendpath2="m -127.64716,46.722467 0,79.975283"
       bendpath3="m -166.17009,126.69775 38.52293,0"
       bendpath4="m -166.17009,46.722467 0,79.975283" />
    <inkscape:path-effect
       effect="bend_path"
       id="path-effect4076"
       is_visible="true"
       bendpath="m -166.17009,86.710108 38.52293,0"
       prop_scale="1"
       scale_y_rel="false"
       vertical="false" />
  </defs>
  <sodipodi:namedview
     id="base"
     pagecolor="#ffffff"
     bordercolor="#666666"
     borderopacity="1.0"
     inkscape:pageopacity="0.0"
     inkscape:pageshadow="2"
     inkscape:zoom="1.4"
     inkscape:cx="264.08767"
     inkscape:cy="142.07557"
     inkscape:document-units="px"
     inkscape:current-layer="layer1"
     showgrid="false"
     inkscape:window-width="1309"
     inkscape:window-height="744"
     inkscape:window-x="57"
     inkscape:window-y="24"
     inkscape:window-maximized="1" />
  <metadata
     id="metadata7">
    <rdf:RDF>
      <cc:Work
         rdf:about="">
        <dc:format>image/svg+xml</dc:format>
        <dc:type
           rdf:resource="http://purl.org/dc/dcmitype/StillImage" />
        <dc:title></dc:title>
      </cc:Work>
    </rdf:RDF>
  </metadata>
  <g
     inkscape:label="Ebene 1"
     inkscape:groupmode="layer"
     id="layer1"
     transform="translate(0,-877.68218)">
    <path
       style="color:#000000;fill:#000000;fill-opacity:1;stroke:#ffffff;stroke-width:10.15501021999999942;stroke-linecap:round;stroke-linejoin:round;stroke-miterlimit:4;stroke-opacity:1;stroke-dasharray:none;stroke-dashoffset:0;marker:none;visibility:visible;display:inline;overflow:visible;enable-background:accumulate"
       d="m 194.43777,1047.2847 -189.3602648,0 94.9877048,-164.52356 94.85728,164.29756"
       id="path3047"
       inkscape:connector-curvature="0"
       sodipodi:nodetypes="cccc" />
    <path
       style="color:#000000;fill:#ffffff;fill-opacity:1;stroke:none;stroke-width:1px;marker:none;visibility:visible;display:inline;overflow:visible;enable-background:accumulate"
       d="m 74.527983,963.19277 c 0,0 7.918245,0 11.877371,0 0,-15.342 21.775176,-15.0942 21.775176,0 0,12.8672 -6.97607,14.9704 -17.245047,14.9704 0,2.6274 0.201667,5.4435 0.201667,8.7862 16.79593,0 16.84019,5.3534 16.84019,15.79033 0,16.036 -24.541332,15.9885 -24.541332,0 -6.040243,0 -11.629921,0 -11.629921,0 0,0 -4.056837,22.9237 24.125907,22.9237 15.221496,0 24.125906,-8.2228 24.125906,-22.9237 0,-29.40173 0,-5.58623 0,-9.85353 0,-5.7475 -5.08756,-9.6053 -8.1657,-11.3825 3.86668,-2.2324 8.1657,-4.9488 8.1657,-11.8773 0,-10.1453 0,8.6606 0,-7.4234 0,-24.2496 -45.529917,-30.9307 -45.529917,0.9898 z"
       id="path4605"
       inkscape:connector-curvature="0"
       sodipodi:nodetypes="ccsccsccssccssc" />
  </g>
</svg>
