<?xml version="1.0" encoding="UTF-8" standalone="no"?>
<svg width="200px" height="178px" viewBox="0 0 200 178" version="1.1" xmlns="http://www.w3.org/2000/svg" xmlns:xlink="http://www.w3.org/1999/xlink" xmlns:sketch="http://www.bohemiancoding.com/sketch/ns">
    <title>Slice 1 1</title>
    <description>Created with Sketch (http://www.bohemiancoding.com/sketch)</description>
    <defs></defs>
    <g id="Page-1" stroke="none" stroke-width="1" fill="none" fill-rule="evenodd" sketch:type="MSPage">
        <g id="Zs3_60_Tafel" sketch:type="MSLayerGroup" transform="translate(5.000000, 5.000000)" stroke="#FFFFFF" stroke-width="10.1550102" fill="#000000">
            <g id="layer1" transform="translate(0.000000, 0.317820)" sketch:type="MSShapeGroup">
                <path d="M189.43777,164.2847 L0.0775052,164.2847 L95.06521,-0.23886 L189.92249,164.0587" id="path3047"></path>
            </g>
        </g>
        <path d="M78.0364913,75 L67,85.9859375 L67,99.2074653 L77.3377304,88.6290668 L77.3377304,153.999997 L87.023713,153.999997 L87.023713,75 L78.0364913,75 Z" id="rect4089" fill="#FFFFFF" sketch:type="MSShapeGroup"></path>
        <path d="M118.927562,154.603224 L118.927562,142.084603 L96.3405032,142.084603 L96.3405032,131.890262 L112.103886,75.3543384 L122.469035,75.3543384 L106.134512,132.201611 L118.927562,132.201611 L118.927562,109.296217 L128.775184,109.296217 L128.775184,132.201611 L134.264011,132.201611 L134.264011,142.084603 L128.775184,142.084603 L128.775184,154.603224 L118.927562,154.603224 Z" id="path3860" fill="#FFFFFF" sketch:type="MSShapeGroup"></path>
    </g>
</svg>