<?xml version="1.0" encoding="UTF-8" standalone="no"?>
<svg width="280px" height="246px" viewBox="0 0 280 246" version="1.1" xmlns="http://www.w3.org/2000/svg" xmlns:xlink="http://www.w3.org/1999/xlink" xmlns:sketch="http://www.bohemiancoding.com/sketch/ns">
    <title>Slice 1</title>
    <description>Created with Sketch (http://www.bohemiancoding.com/sketch)</description>
    <defs>
        <path id="path-1" d="M7.129127,7.12978 L140.49765,238.13093 L273.68317,7.4471 L7.129127,7.12978 Z"></path>
    </defs>
    <g id="Page-1" stroke="none" stroke-width="1" fill="none" fill-rule="evenodd" sketch:type="MSPage">
        <g id="path3047">
            <use stroke="#E6F445" stroke-width="14.258254" stroke-linecap="round" stroke-linejoin="round" fill="#000000" fill-rule="evenodd" sketch:type="MSShapeGroup" xlink:href="#path-1"></use>
            <use stroke="none" fill="none" xlink:href="#path-1"></use>
            <use stroke="none" fill="none" xlink:href="#path-1"></use>
        </g>
        <path d="M107.451088,30 L92,45.01875 L92,63.09375 L106.472823,48.632142 L106.472823,137.999996 L120.033198,137.999996 L120.033198,30 L107.451088,30 L107.451088,30 Z" id="rect4089" fill="#E6F445" sketch:type="MSShapeGroup"></path>
        <path d="M182.478921,137.286842 L137.318033,137.286842 L137.318033,123.653233 L166.658888,67.0865142 C167.991115,64.5180948 169.612548,61.8324016 169.612548,59.1239744 L169.612548,51.3416937 C169.612548,45.5215452 165.291009,41.9421539 159.739461,42.0183214 C155.290747,42.0793614 150.361429,45.4144904 150.361429,51.1867691 L150.361429,59.9364881 L137,59.9364881 L137,52.1364481 C137,37.3129539 146.754025,28 160.19851,28 C172.61415,28 182.926974,36.9078113 182.926974,51.6463576 L182.926974,60.9114901 C182.926974,65.5252851 180.152635,70.1746981 178.047103,74.2365472 L152.381928,123.748021 L182.478921,123.748021 L182.478921,137.286842" id="path3774" fill="#E6F445" sketch:type="MSShapeGroup"></path>
    </g>
</svg>