<?xml version="1.0" encoding="UTF-8" standalone="no"?>
<!-- Created with Inkscape (http://www.inkscape.org/) -->

<svg
   xmlns:dc="http://purl.org/dc/elements/1.1/"
   xmlns:cc="http://creativecommons.org/ns#"
   xmlns:rdf="http://www.w3.org/1999/02/22-rdf-syntax-ns#"
   xmlns:svg="http://www.w3.org/2000/svg"
   xmlns="http://www.w3.org/2000/svg"
   version="1.1"
   width="18.09375"
   height="99.96875"
   viewBox="7.086 7.087 18.09375 99.968751"
   id="Ebene_1"
   xml:space="preserve"><metadata
     id="metadata21"><rdf:RDF><cc:Work
         rdf:about=""><dc:format>image/svg+xml</dc:format><dc:type
           rdf:resource="http://purl.org/dc/dcmitype/StillImage" /><dc:title></dc:title></cc:Work></rdf:RDF></metadata><defs
     id="defs19" /><rect
     width="17.58"
     height="99.480003"
     x="7.3337998"
     y="7.3294458"
     id="rect3"
     style="stroke:#000000;stroke-width:0.51109999;stroke-miterlimit:10" /><rect
     width="11.054894"
     height="11.054894"
     x="-4.3598018"
     y="-29.501131"
     transform="matrix(-0.70710678,0.70710678,-0.70710678,-0.70710678,0,0)"
     id="rect5"
     style="fill:#ffffff;stroke:#000000;stroke-width:0.2499976;stroke-miterlimit:10" /><rect
     width="11.053894"
     height="11.054894"
     x="6.699975"
     y="-40.556522"
     transform="matrix(-0.70710678,0.70710678,-0.70710678,-0.70710678,0,0)"
     id="rect7"
     style="fill:#ffffff;stroke:#000000;stroke-width:0.2499976;stroke-miterlimit:10" /><rect
     width="11.054894"
     height="11.054894"
     x="17.752539"
     y="-51.610508"
     transform="matrix(-0.70710678,0.70710678,-0.70710678,-0.70710678,0,0)"
     id="rect9"
     style="fill:#ffffff;stroke:#000000;stroke-width:0.2499976;stroke-miterlimit:10" /><rect
     width="11.056676"
     height="11.055676"
     x="28.810148"
     y="-62.658978"
     transform="matrix(-0.70705678,0.70715678,-0.70715678,-0.70705678,0,0)"
     id="rect11"
     style="fill:#ffffff;stroke:#000000;stroke-width:0.25001529;stroke-miterlimit:10" /><rect
     width="11.053894"
     height="11.053894"
     x="39.867447"
     y="-73.721428"
     transform="matrix(-0.70710678,0.70710678,-0.70710678,-0.70710678,0,0)"
     id="rect13"
     style="fill:#ffffff;stroke:#000000;stroke-width:0.2499976;stroke-miterlimit:10" /><rect
     width="11.055676"
     height="11.054675"
     x="50.918957"
     y="-84.77298"
     transform="matrix(-0.70715678,0.70705678,-0.70705678,-0.70715678,0,0)"
     id="rect15"
     style="fill:#ffffff;stroke:#000000;stroke-width:0.25001529;stroke-miterlimit:10" /></svg>