<?xml version="1.0" encoding="UTF-8" standalone="no"?>
<svg width="200px" height="178px" viewBox="0 0 200 178" version="1.1" xmlns="http://www.w3.org/2000/svg" xmlns:xlink="http://www.w3.org/1999/xlink" xmlns:sketch="http://www.bohemiancoding.com/sketch/ns">
    <title>Slice 1 1</title>
    <description>Created with Sketch (http://www.bohemiancoding.com/sketch)</description>
    <defs></defs>
    <g id="Page-1" stroke="none" stroke-width="1" fill="none" fill-rule="evenodd" sketch:type="MSPage">
        <g id="Zs3_60_Tafel" sketch:type="MSLayerGroup" transform="translate(5.000000, 5.000000)" stroke="#FFFFFF" stroke-width="10.1550102" fill="#000000">
            <g id="layer1" transform="translate(0.000000, 0.317820)" sketch:type="MSShapeGroup">
                <path d="M189.43777,164.2847 L0.0775052,164.2847 L95.06521,-0.23886 L189.92249,164.0587" id="path3047"></path>
            </g>
        </g>
        <path d="M78.0364913,75 L67,85.9859375 L67,99.2074653 L77.3377304,88.6290668 L77.3377304,153.999997 L87.023713,153.999997 L87.023713,75 L78.0364913,75 Z" id="rect4089" fill="#FFFFFF" sketch:type="MSShapeGroup"></path>
        <path d="M100,92.5389344 L100,98.5143443 L109.87987,98.5143443 L109.87987,91.8473361 C109.87987,87.6543202 113.518638,85.2246654 116.806818,85.1803279 C120.910137,85.125 124.106331,87.7302034 124.106331,91.9579918 L124.106331,102.691598 C124.106331,107.162869 119.951589,109.261783 113.49513,109.261783 L113.49513,109.52459 C113.490564,109.523577 113.481331,113.978484 113.481331,113.978484 L113.481331,118.432377 C113.485897,118.431359 113.49513,118.681352 113.49513,118.681352 C119.951589,118.681352 124.106331,120.794102 124.106331,125.265369 L124.106331,138.889857 C124.106331,143.117645 120.910137,145.709016 116.806818,145.653689 C113.518638,145.609351 109.87987,143.193528 109.87987,139.000512 L109.87987,132.333504 L100,132.333504 L100,138.308914 C100,149.076793 107.214557,155.847848 117.151786,155.847848 C126.328562,155.847848 133.958604,149.374718 133.958604,138.668545 L133.958604,124.85041 C133.958604,120.866024 132.211547,116.813138 127.528409,113.978484 C132.211547,111.143829 133.958604,107.090943 133.958604,103.106557 L133.958604,92.1793033 C133.958604,81.4731305 126.328562,75 117.151786,75 C107.214557,75 100,81.7710556 100,92.5389344 Z" id="path3830" fill="#FFFFFF" sketch:type="MSShapeGroup"></path>
    </g>
</svg>