<?xml version="1.0" encoding="UTF-8" standalone="no"?>
<svg width="280px" height="246px" viewBox="0 0 280 246" version="1.1" xmlns="http://www.w3.org/2000/svg" xmlns:xlink="http://www.w3.org/1999/xlink" xmlns:sketch="http://www.bohemiancoding.com/sketch/ns">
    <title>Slice 1</title>
    <description>Created with Sketch (http://www.bohemiancoding.com/sketch)</description>
    <defs>
        <path id="path-1" d="M7.129127,7.12978 L140.49765,238.13093 L273.68317,7.4471 L7.129127,7.12978 Z"></path>
    </defs>
    <g id="Page-1" stroke="none" stroke-width="1" fill="none" fill-rule="evenodd" sketch:type="MSPage">
        <g id="path3047">
            <use stroke="#E6F445" stroke-width="14.258254" stroke-linecap="round" stroke-linejoin="round" fill="#000000" fill-rule="evenodd" sketch:type="MSShapeGroup" xlink:href="#path-1"></use>
            <use stroke="none" fill="none" xlink:href="#path-1"></use>
            <use stroke="none" fill="none" xlink:href="#path-1"></use>
        </g>
        <path d="M161.480082,28.0004321 C150.320474,28.0692017 139.150312,36.3314316 139.131464,52.5868983 L139,52.5868983 L139,119.74645 L139.131464,119.74645 C139.408646,152.557349 183.791136,152.189875 183.809924,119.74645 L183.922606,119.74645 L183.922606,52.5868983 L183.809924,52.5868983 C183.782107,36.064004 172.635175,27.9316941 161.480082,28.0004321 L161.480082,28.0004321 L161.480082,28.0004321 Z M161.442505,42.6056497 C166.160866,42.5593766 170.888221,45.8420118 170.907799,52.5868983 L170.870221,52.5868983 L170.870221,119.74645 L170.926559,119.74645 C170.90663,132.940448 152.052302,132.966342 152.052302,119.440902 L152.052302,52.5868983 L152.014724,52.5868983 C152.034595,46.0139833 156.734067,42.6518533 161.442464,42.6056497 L161.442505,42.6056497 L161.442505,42.6056497 Z" id="rect4094" fill="#E6F445" sketch:type="MSShapeGroup"></path>
        <path d="M108.283346,31 L94,45.9293402 L94,69.3925352 L108.071972,54.2614078 L108.071972,143.999996 L123.277423,143.999996 L123.277423,31 L108.283346,31 L108.283346,31 Z" id="rect4089" fill="#E6F445" sketch:type="MSShapeGroup"></path>
    </g>
</svg>