<?xml version="1.0" encoding="UTF-8" standalone="no"?>
<svg width="200px" height="178px" viewBox="0 0 200 178" version="1.1" xmlns="http://www.w3.org/2000/svg" xmlns:xlink="http://www.w3.org/1999/xlink" xmlns:sketch="http://www.bohemiancoding.com/sketch/ns">
    <title>Slice 1</title>
    <description>Created with Sketch (http://www.bohemiancoding.com/sketch)</description>
    <defs></defs>
    <g id="Page-1" stroke="none" stroke-width="1" fill="none" fill-rule="evenodd" sketch:type="MSPage">
        <g id="Zs3_60_Tafel" sketch:type="MSLayerGroup" transform="translate(5.000000, 5.000000)" stroke="#FFFFFF" stroke-width="10.1550102" fill="#000000">
            <g id="layer1" transform="translate(0.000000, 0.317820)" sketch:type="MSShapeGroup">
                <path d="M189.43777,164.2847 L0.0775052,164.2847 L95.06521,-0.23886 L189.92249,164.0587" id="path3047"></path>
            </g>
        </g>
        <path d="M100.677785,65 C90.549838,65 83.1773843,71.7958702 83.0142219,82.6366126 C83.0095343,82.637067 83.0000228,82.6366126 83.0000228,82.6366126 L83.0000228,91.8951242 C83.0000228,95.9855728 84.7864353,100.813754 88.1910054,104.121471 C84.7864125,107.457589 83,112.086967 83,116.177416 L83.0141991,130.363387 C83.0250305,141.202435 90.551399,148 100.677762,148 C110.135966,148 118,141.354565 118,130.363387 L118,116.177416 C118,112.086967 115.820222,106.782733 112.803611,104.113605 C116.463829,100.560868 118,95.8865896 118,91.796141 L118,82.6366126 C118,71.6454438 110.135966,65 100.677762,65 L100.677785,65 Z M100.318508,75.0009037 C104.636551,74.9430397 108,77.6676613 108,82.0892445 L108,91.4632135 C108,95.2308218 105.215835,98.998949 100.507278,98.9999998 C95.7913613,99.0009257 92.9884932,95.234326 93.0000355,91.4632135 L93.0290771,81.9735165 C93.0425059,77.5883182 96.8582599,75.0472736 100.318508,75.0009037 L100.318508,75.0009037 Z M100.507268,109 C104.867276,109 108,112.403576 108,116.332769 L108,130.143051 C108,134.428492 104.636546,137.055202 100.318498,136.99912 C96.8582451,136.954177 93.037923,134.505402 93.0290572,130.255216 L93.0000156,116.332769 C92.991791,112.380183 96.24254,109 100.507268,109 L100.507268,109 Z" id="path3830-7" fill="#FFFFFF" sketch:type="MSShapeGroup"></path>
    </g>
</svg>