<?xml version="1.0" encoding="UTF-8" standalone="no"?>
<svg width="280px" height="246px" viewBox="0 0 280 246" version="1.1" xmlns="http://www.w3.org/2000/svg" xmlns:xlink="http://www.w3.org/1999/xlink" xmlns:sketch="http://www.bohemiancoding.com/sketch/ns">
    <title>Slice 1</title>
    <description>Created with Sketch (http://www.bohemiancoding.com/sketch)</description>
    <defs>
        <path id="path-1" d="M7.129127,7.12978 L140.49765,238.13093 L273.68317,7.4471 L7.129127,7.12978 Z"></path>
    </defs>
    <g id="Page-1" stroke="none" stroke-width="1" fill="none" fill-rule="evenodd" sketch:type="MSPage">
        <g id="path3047">
            <use stroke="#E6F445" stroke-width="14.258254" stroke-linecap="round" stroke-linejoin="round" fill="#000000" fill-rule="evenodd" sketch:type="MSShapeGroup" xlink:href="#path-1"></use>
            <use stroke="none" fill="none" xlink:href="#path-1"></use>
            <use stroke="none" fill="none" xlink:href="#path-1"></use>
        </g>
        <path d="M107.899263,30 L93,45.01875 L93,63.09375 L106.955936,48.632142 L106.955936,137.999996 L120.032013,137.999996 L120.032013,30 L107.899263,30 L107.899263,30 Z" id="rect4089" fill="#E6F445" sketch:type="MSShapeGroup"></path>
        <path d="M157.038222,30 C145.240492,30 135.875605,39.9475817 136.00125,51.2382596 L136.00125,117.02279 C136.00125,128.166439 144.764119,138.279697 157.075194,138.279697 C168.872922,138.279697 178.256297,128.313468 178.130652,117.02279 L178.130652,89.2023477 C178.130652,79.0151739 172.505012,68.9896405 161.437869,68.9896405 C156.58054,68.9896405 152.80739,70.0143992 149.218679,73.2410222 L149.218679,50.8280387 C149.429372,46.6937205 152.783557,43.3387668 157.130652,43.3321824 C161.287912,43.3258694 164.913222,46.7051238 164.913222,51.2382596 L164.913222,57.6153315 L178.130652,57.6153315 L178.130652,51.2382596 C178.130652,40.0946109 169.349297,30 157.038222,30 L157.038222,30 L157.038222,30 Z M157.056679,81.7624314 C161.128147,81.7624314 164.931679,85.0607514 164.931679,89.6685085 L164.931679,117.02279 C164.931679,121.343011 161.491907,124.940693 157.001221,124.947514 C152.843989,124.953827 149.218679,121.555932 149.218679,117.02279 L149.218679,110.664365 L149.218679,89.6689911 C149.218679,84.9630975 153.248119,81.7624314 157.056707,81.7624314 L157.056679,81.7624314 L157.056679,81.7624314 Z" id="path4426" fill="#E6F445" sketch:type="MSShapeGroup"></path>
    </g>
</svg>