<?xml version="1.0" encoding="UTF-8" standalone="no"?>
<svg width="280px" height="246px" viewBox="0 0 280 246" version="1.1" xmlns="http://www.w3.org/2000/svg" xmlns:xlink="http://www.w3.org/1999/xlink" xmlns:sketch="http://www.bohemiancoding.com/sketch/ns">
    <title>Slice 1</title>
    <description>Created with Sketch (http://www.bohemiancoding.com/sketch)</description>
    <defs>
        <path id="path-1" d="M7.129127,7.12978 L140.49765,238.13093 L273.68317,7.4471 L7.129127,7.12978 Z"></path>
    </defs>
    <g id="Page-1" stroke="none" stroke-width="1" fill="none" fill-rule="evenodd" sketch:type="MSPage">
        <g id="path3047">
            <use stroke="#E6F445" stroke-width="14.258254" stroke-linecap="round" stroke-linejoin="round" fill="#000000" fill-rule="evenodd" sketch:type="MSShapeGroup" xlink:href="#path-1"></use>
            <use stroke="none" fill="none" xlink:href="#path-1"></use>
            <use stroke="none" fill="none" xlink:href="#path-1"></use>
        </g>
        <path d="M107.451088,30 L92,45.01875 L92,63.09375 L106.472823,48.632142 L106.472823,137.999996 L120.033198,137.999996 L120.033198,30 L107.451088,30 L107.451088,30 Z" id="rect4089" fill="#E6F445" sketch:type="MSShapeGroup"></path>
        <path d="M162.908607,138.340249 L162.908607,121.226185 L132,121.226185 L132,107.289617 L153.570945,30 L167.754833,30 L145.402328,107.715259 L162.908607,107.715259 L162.908607,76.4015556 L176.3843,76.4015556 L176.3843,107.715259 L183.895326,107.715259 L183.895326,121.226185 L176.3843,121.226185 L176.3843,138.340249 L162.908607,138.340249 L162.908607,138.340249 Z" id="path3860" fill="#E6F445" sketch:type="MSShapeGroup"></path>
    </g>
</svg>