<?xml version="1.0" encoding="UTF-8" standalone="no"?>
<svg width="200px" height="178px" viewBox="0 0 200 178" version="1.1" xmlns="http://www.w3.org/2000/svg" xmlns:xlink="http://www.w3.org/1999/xlink" xmlns:sketch="http://www.bohemiancoding.com/sketch/ns">
    <title>Slice 1</title>
    <description>Created with Sketch (http://www.bohemiancoding.com/sketch)</description>
    <defs></defs>
    <g id="Page-1" stroke="none" stroke-width="1" fill="none" fill-rule="evenodd" sketch:type="MSPage">
        <g id="Zs3_60_Tafel" sketch:type="MSLayerGroup" transform="translate(5.000000, 5.000000)" stroke="#FFFFFF" stroke-width="10.1550102" fill="#000000">
            <g id="layer1" transform="translate(0.000000, 0.317820)" sketch:type="MSShapeGroup">
                <path d="M189.43777,164.2847 L0.0775052,164.2847 L95.06521,-0.23886 L189.92249,164.0587" id="path3047"></path>
            </g>
        </g>
        <path d="M115.486279,73.000298 C107.798549,73.0477253 100.103548,78.7458149 100.090564,89.9564816 L100,89.9564816 L100,136.273414 L100.090564,136.273414 C100.281512,158.90162 130.856116,158.64819 130.869059,136.273414 L130.946684,136.273414 L130.946684,89.9564816 L130.869059,89.9564816 C130.849896,78.5613821 123.170898,72.9528925 115.486279,73.000298 L115.486279,73.000298 Z M115.460392,83.0728619 C118.710819,83.0409494 121.967441,85.3048357 121.980928,89.9564816 L121.955041,89.9564816 L121.955041,136.273414 L121.993852,136.273414 C121.980123,145.372723 108.991586,145.390581 108.991586,136.062691 L108.991586,89.9564816 L108.965699,89.9564816 C108.979388,85.4234368 112.216802,83.1047264 115.460364,83.0728619 L115.460392,83.0728619 Z" id="rect4094" fill="#FFFFFF" sketch:type="MSShapeGroup"></path>
        <path d="M78.8505837,75 L69,85.3052083 L69,101.501042 L78.7048082,91.056547 L78.7048082,152.999997 L89.1913265,152.999997 L89.1913265,75 L78.8505837,75 Z" id="rect4089" fill="#FFFFFF" sketch:type="MSShapeGroup"></path>
    </g>
</svg>