<?xml version="1.0" encoding="UTF-8" standalone="no"?>
<svg
   xmlns:dc="http://purl.org/dc/elements/1.1/"
   xmlns:cc="http://creativecommons.org/ns#"
   xmlns:rdf="http://www.w3.org/1999/02/22-rdf-syntax-ns#"
   xmlns:svg="http://www.w3.org/2000/svg"
   xmlns="http://www.w3.org/2000/svg"
   xmlns:xlink="http://www.w3.org/1999/xlink"
   id="svg2"
   height="10.459298"
   width="11.762437"
   version="1.0">
  <metadata
     id="metadata12">
    <rdf:RDF>
      <cc:Work
         rdf:about="">
        <dc:format>image/svg+xml</dc:format>
        <dc:type
           rdf:resource="http://purl.org/dc/dcmitype/StillImage" />
        <dc:title></dc:title>
      </cc:Work>
    </rdf:RDF>
  </metadata>
  <defs
     id="defs4">
    <linearGradient
       id="linearGradient4152">
      <stop
         style="stop-color:#ff0300;stop-opacity:1"
         offset="0"
         id="stop4154" />
      <stop
         style="stop-color:#ff0000;stop-opacity:0.25339368"
         offset="1"
         id="stop4156" />
    </linearGradient>
    <filter
       style="color-interpolation-filters:sRGB"
       id="filter2986">
      <feGaussianBlur
         id="feGaussianBlur2988"
         stdDeviation="3" />
    </filter>
    <radialGradient
       xlink:href="#linearGradient4152"
       id="radialGradient4158"
       cx="12.921565"
       cy="-1.2380347"
       fx="12.921565"
       fy="-1.2380347"
       r="2.1146162"
       gradientUnits="userSpaceOnUse"
       gradientTransform="translate(-7.0403458,6.467692)" />
  </defs>
  <g
     id="g4259"
     transform="matrix(0.93,0,0,0.93,-1.0826678e-8,1.3359338)">
    <path
       id="path1890"
       style="fill:#ffffff;fill-opacity:1;fill-rule:evenodd;stroke:none;stroke-width:0.04327754;stroke-linecap:butt;stroke-linejoin:miter;stroke-miterlimit:4;stroke-dasharray:none;stroke-opacity:1"
       d="M 3.5093823,6.8501261 6.3279582,5.231707 9.1329613,6.8422528 10.050424,5.3091905 8.148821,4.2002876 10.051966,3.0614964 9.1533085,1.5166083 6.3258634,3.1583231 3.4840314,1.5130116 2.591801,3.0594253 4.5305412,4.184217 2.6178238,5.2950724 Z" />
    <path
       id="path1882"
       style="fill:#c1121c;fill-opacity:1;fill-rule:evenodd;stroke:none;stroke-width:1px;stroke-linecap:butt;stroke-linejoin:miter;stroke-opacity:1"
       d="M 3.5403536,6.8498731 2.6387322,5.2629628 1.1641589e-8,6.7847212 0.91658536,8.3643037 3.5403536,6.8498731 Z" />
    <path
       id="path1884"
       style="fill:#c1121c;fill-opacity:1;fill-rule:evenodd;stroke:none;stroke-width:1px;stroke-linecap:butt;stroke-linejoin:miter;stroke-opacity:1"
       d="M 12.647782,1.5869063 11.746161,-3.9821952e-6 9.1074286,1.5217544 10.024014,3.1013369 12.647782,1.5869063 Z" />
    <path
       id="path1886"
       style="fill:#c1121c;fill-opacity:1;fill-rule:evenodd;stroke:none;stroke-width:1px;stroke-linecap:butt;stroke-linejoin:miter;stroke-opacity:1"
       d="M 12.647782,6.7866816 11.746161,8.373584 9.1074286,6.8518256 10.024014,5.2722431 12.647782,6.7866816 Z" />
    <path
       id="path1888"
       style="fill:#c1121c;fill-opacity:1;fill-rule:evenodd;stroke:none;stroke-width:1px;stroke-linecap:butt;stroke-linejoin:miter;stroke-opacity:1"
       d="M 3.5454918,1.5273827 2.6438624,3.114293 0.00513027,1.5925346 0.92171562,0.0129521 3.5454918,1.5273827 Z" />
  </g>
  <path
     id="rect4021"
     d="m 0,9.4977973 0,0.9615007 2.3530301,0 2.35303,0 2.3530302,0 2.3498802,0 0,-0.9615007 -2.3498802,0 -2.3530302,0 -2.35303,0 -2.3530301,0 z m 9.4121204,0 0,0.9615007 2.3498796,0 0,-0.9615007 -2.3498796,0 z"
     style="opacity:1;fill:#ff0000;fill-opacity:1;stroke:none;stroke-width:1;stroke-linecap:round;stroke-linejoin:miter;stroke-miterlimit:4;stroke-dasharray:none;stroke-opacity:1" />
  <path
     style="opacity:1;fill:#ff0000;fill-opacity:1;stroke:none;stroke-width:1;stroke-linecap:round;stroke-linejoin:miter;stroke-miterlimit:4;stroke-dasharray:none;stroke-opacity:1"
     d="m 0,0 0,0.9615011 2.3530301,0 2.35303,0 2.3530302,0 2.3498802,0 L 9.4089705,0 7.0590903,0 4.7060601,0 2.3530301,0 0,0 Z m 9.4121204,0 0,0.9615011 2.3498796,0 L 11.762,0 9.4121204,0 Z"
     id="path3353" />
</svg>
