<?xml version="1.0" encoding="UTF-8" standalone="no"?>
<svg
   xmlns:dc="http://purl.org/dc/elements/1.1/"
   xmlns:cc="http://creativecommons.org/ns#"
   xmlns:rdf="http://www.w3.org/1999/02/22-rdf-syntax-ns#"
   xmlns:svg="http://www.w3.org/2000/svg"
   xmlns="http://www.w3.org/2000/svg"
   id="svg2"
   height="10.59295"
   width="15.99999"
   version="1.0">
  <metadata
     id="metadata12">
    <rdf:RDF>
      <cc:Work
         rdf:about="">
        <dc:format>image/svg+xml</dc:format>
        <dc:type
           rdf:resource="http://purl.org/dc/dcmitype/StillImage" />
        <dc:title></dc:title>
      </cc:Work>
    </rdf:RDF>
  </metadata>
  <defs
     id="defs4" />
  <g
     transform="translate(119.70668,-608.83096)"
     id="g3026">
    <path
       id="path1890"
       style="fill:#ffffff;fill-opacity:1;fill-rule:evenodd;stroke:none;stroke-width:0.04327754;stroke-linecap:butt;stroke-linejoin:miter;stroke-miterlimit:4;stroke-dasharray:none;stroke-opacity:1"
       d="m -115.26716,617.49667 3.56562,-2.04737 3.54845,2.03741 1.16063,-1.93939 -2.40561,-1.40281 2.40756,-1.44062 -1.13684,-1.95435 -3.57684,2.07684 -3.59504,-2.08139 -1.12871,1.95628 2.45259,1.42291 -2.41967,1.40528 z" />
    <path
       id="path1882"
       style="fill:#c1121c;fill-opacity:1;fill-rule:evenodd;stroke:none;stroke-width:1px;stroke-linecap:butt;stroke-linejoin:miter;stroke-opacity:1"
       d="m -115.22798,617.49635 -1.14059,-2.00751 -3.33811,1.92509 1.15952,1.99824 3.31918,-1.91582 z" />
    <path
       id="path1884"
       style="fill:#c1121c;fill-opacity:1;fill-rule:evenodd;stroke:none;stroke-width:1px;stroke-linecap:butt;stroke-linejoin:miter;stroke-opacity:1"
       d="m -103.70669,610.83847 -1.14059,-2.00751 -3.33811,1.92509 1.15952,1.99824 3.31918,-1.91582 z" />
    <path
       id="path1886"
       style="fill:#c1121c;fill-opacity:1;fill-rule:evenodd;stroke:none;stroke-width:1px;stroke-linecap:butt;stroke-linejoin:miter;stroke-opacity:1"
       d="m -103.70669,617.41641 -1.14059,2.0075 -3.33811,-1.92509 1.15952,-1.99824 3.31918,1.91583 z" />
    <path
       id="path1888"
       style="fill:#c1121c;fill-opacity:1;fill-rule:evenodd;stroke:none;stroke-width:1px;stroke-linecap:butt;stroke-linejoin:miter;stroke-opacity:1"
       d="m -115.22148,610.76317 -1.1406,2.00751 -3.33811,-1.92509 1.15952,-1.99824 3.31919,1.91582 z" />
  </g>
</svg>
