<?xml version="1.0" encoding="UTF-8" standalone="no"?>
<!-- Created with Inkscape (http://www.inkscape.org/) -->

<svg
   xmlns:dc="http://purl.org/dc/elements/1.1/"
   xmlns:cc="http://creativecommons.org/ns#"
   xmlns:rdf="http://www.w3.org/1999/02/22-rdf-syntax-ns#"
   xmlns:svg="http://www.w3.org/2000/svg"
   xmlns="http://www.w3.org/2000/svg"
   xmlns:sodipodi="http://sodipodi.sourceforge.net/DTD/sodipodi-0.dtd"
   xmlns:inkscape="http://www.inkscape.org/namespaces/inkscape"
   id="svg2"
   version="1.1"
   inkscape:version="0.91 r13725"
   width="23.692749"
   height="32"
   viewBox="0 0 23.692749 32"
   sodipodi:docname="phone.svg">
  <metadata
     id="metadata8">
    <rdf:RDF>
      <cc:Work
         rdf:about="">
        <dc:format>image/svg+xml</dc:format>
        <dc:type
           rdf:resource="http://purl.org/dc/dcmitype/StillImage" />
        <dc:title></dc:title>
      </cc:Work>
    </rdf:RDF>
  </metadata>
  <defs
     id="defs6" />
  <sodipodi:namedview
     pagecolor="#ffffff"
     bordercolor="#666666"
     borderopacity="1"
     objecttolerance="10"
     gridtolerance="10"
     guidetolerance="10"
     inkscape:pageopacity="1"
     inkscape:pageshadow="2"
     inkscape:window-width="1920"
     inkscape:window-height="1031"
     id="namedview4"
     showgrid="false"
     fit-margin-top="0"
     fit-margin-left="0"
     fit-margin-right="0"
     fit-margin-bottom="0"
     inkscape:zoom="8.34386"
     inkscape:cx="7.3088534"
     inkscape:cy="31.011695"
     inkscape:window-x="0"
     inkscape:window-y="25"
     inkscape:window-maximized="1"
     inkscape:current-layer="svg2" />
  <path
     style="fill:#000000"
     d="M 15.495349,31.974252 C 13.058384,31.749555 10.47115,30.166171 7.819497,27.2766 6.821077,26.188611 5.7912474,24.887224 4.6888984,23.320339 4.2133332,22.644446 3.2929524,21.26736 3.1141842,20.964263 1.6765786,18.526887 0.64592877,14.774525 0.21955303,10.425569 0.05818465,8.7796856 -0.04071436,6.5256076 0.01622507,5.7918156 0.08482438,4.9073246 0.25334269,4.2409316 0.58125942,3.5566376 1.2631428,2.1339516 2.5251001,1.1065626 4.331602,0.50346855 c 0.703703,-0.234898 1.6095339,-0.411296 2.3815161,-0.463796 l 0.1812682,-0.012 0,0.168698 c 0,0.093 0.0391,1.50128505 0.086799,3.13016905 0.0477,1.628783 0.098199,3.360866 0.1122689,3.849061 0.014,0.488195 0.0312,1.039489 0.0382,1.225188 0.007,0.185598 0.0143,0.461295 0.0163,0.612493 l 0.004,0.275098 -0.2296577,0.125298 c -0.8631518,0.471197 -1.3352671,1.1362904 -1.4549159,2.0498804 -0.054099,0.413096 10e-4,0.99289 0.1402386,1.475486 0.081999,0.284297 1.0795992,2.269077 2.494445,4.96275 1.5549744,2.96047 2.4762148,4.596854 3.1134278,5.530244 0.390517,0.571994 0.815272,0.897891 1.367407,1.04919 0.244477,0.067 0.819011,0.08 1.100119,0.024 0.274497,-0.054 0.743582,-0.215497 0.9751,-0.335696 l 0.211238,-0.109699 1.069519,0.840991 c 0.588234,0.462496 1.609574,1.265988 2.269647,1.785483 0.660074,0.519494 1.826872,1.435985 2.592884,2.036679 0.766013,0.600794 1.393276,1.099489 1.393906,1.108489 0.002,0.028 -0.668543,0.414696 -1.073969,0.619694 -1.125369,0.568794 -2.552294,1.091089 -3.887931,1.423185 -0.477805,0.118799 -1.127709,0.156199 -1.737693,0.1 z m 4.145789,-5.288346 c -1.847012,-1.466686 -3.535565,-2.807672 -3.752332,-2.979971 -0.227388,-0.180698 -0.384817,-0.322596 -0.372097,-0.335296 0.0121,-0.012 0.459506,-0.254498 0.9942,-0.538695 l 0.972161,-0.516695 0.175018,0 c 0.351456,0.01 0.778032,0.190798 1.281967,0.549395 0.483575,0.344096 1.727383,1.297187 2.94351,2.255377 0.357537,0.281697 0.799152,0.629594 0.98136,0.773192 0.399216,0.314397 0.566045,0.489596 0.685334,0.719493 0.111388,0.214598 0.156538,0.401496 0.138718,0.574095 -0.0197,0.191098 -0.631093,2.161878 -0.670663,2.161878 -0.0104,0 -1.530165,-1.199988 -3.377176,-2.666773 z M 8.0318449,9.0690826 c -0.053299,-0.046 -0.069499,-0.089 -0.087099,-0.231198 -0.077299,-0.623594 -0.1476386,-2.809472 -0.199558,-6.200638 -0.0141,-0.92139 -0.0297,-1.88578105 -0.0346,-2.14307805 l -0.009,-0.467795 0.1120289,-0.017 c 0.5449645,-0.082 1.6416435,0.386596 2.1382685,0.912991 0.2894967,0.30689705 0.2752867,0.24389705 0.2964167,1.31458605 0.0272,1.380187 0.0723,4.561755 0.0718,5.07265 l -4e-4,0.447095 -0.238887,0.283197 C 9.7623275,8.4172886 9.5471697,8.6117866 9.2793624,8.7641856 8.712958,9.0864826 8.1983732,9.2121806 8.0317849,9.0688826 Z"
     id="path3338"
     inkscape:connector-curvature="0" />
</svg>
