<?xml version="1.0" encoding="UTF-8" standalone="no"?>
<!-- Created with Inkscape (http://www.inkscape.org/) -->

<svg
   xmlns:dc="http://purl.org/dc/elements/1.1/"
   xmlns:cc="http://creativecommons.org/ns#"
   xmlns:rdf="http://www.w3.org/1999/02/22-rdf-syntax-ns#"
   xmlns:svg="http://www.w3.org/2000/svg"
   xmlns="http://www.w3.org/2000/svg"
   xmlns:sodipodi="http://sodipodi.sourceforge.net/DTD/sodipodi-0.dtd"
   xmlns:inkscape="http://www.inkscape.org/namespaces/inkscape"
   width="16"
   height="46.102783"
   viewBox="0 0 16 46.102785"
   id="svg2"
   version="1.1"
   inkscape:version="0.91 r13725"
   sodipodi:docname="Bue201.svg">
  <defs
     id="defs4" />
  <sodipodi:namedview
     id="base"
     pagecolor="#ffffff"
     bordercolor="#666666"
     borderopacity="1.0"
     inkscape:pageopacity="0.0"
     inkscape:pageshadow="2"
     inkscape:zoom="4"
     inkscape:cx="11.201649"
     inkscape:cy="20.401125"
     inkscape:document-units="px"
     inkscape:current-layer="layer1"
     showgrid="false"
     units="px"
     fit-margin-top="0"
     fit-margin-left="0"
     fit-margin-right="0"
     fit-margin-bottom="0" />
  <metadata
     id="metadata7">
    <rdf:RDF>
      <cc:Work
         rdf:about="">
        <dc:format>image/svg+xml</dc:format>
        <dc:type
           rdf:resource="http://purl.org/dc/dcmitype/StillImage" />
        <dc:title></dc:title>
      </cc:Work>
    </rdf:RDF>
  </metadata>
  <g
     inkscape:label="Ebene 1"
     inkscape:groupmode="layer"
     id="layer1"
     transform="translate(0,-1020.3622)">
    <rect
       style="opacity:1;fill:#838383;fill-opacity:1;stroke:none;stroke-width:2;stroke-linecap:round;stroke-linejoin:round;stroke-miterlimit:4;stroke-dasharray:none;stroke-opacity:1"
       id="rect4136"
       width="16"
       height="32"
       x="0"
       y="1020.3622" />
    <circle
       style="opacity:1;fill:#000000;fill-opacity:1;stroke:none;stroke-width:2;stroke-linecap:round;stroke-linejoin:round;stroke-miterlimit:4;stroke-dasharray:none;stroke-opacity:1"
       id="path4138"
       cx="8"
       cy="1044.3622"
       r="7" />
    <circle
       r="7"
       cy="-8"
       cx="1028.3622"
       id="circle4207"
       style="opacity:1;fill:#000000;fill-opacity:1;stroke:none;stroke-width:2;stroke-linecap:round;stroke-linejoin:round;stroke-miterlimit:4;stroke-dasharray:none;stroke-opacity:1"
       transform="matrix(0,1,-1,0,0,0)" />
    <rect
       style="opacity:0.95999995;fill:#ffffff;fill-opacity:1;stroke:#000000;stroke-width:1;stroke-linecap:round;stroke-linejoin:round;stroke-miterlimit:4;stroke-dasharray:none;stroke-dashoffset:0;stroke-opacity:1"
       id="rect4202"
       width="13.384521"
       height="13.384521"
       x="1.6515158"
       y="1052.5804" />
    <path
       style="fill:#000000;fill-opacity:1;stroke:none"
       d="m 3.4290839,1056.4774 0,5.873 2.751953,0 0.002,0 c 2.044885,0 2.259199,-2.1605 1.015625,-2.9355 1.243574,-0.7751 1.02926,-2.9375 -1.015625,-2.9375 l -0.002,0 z m 2.876953,0.6855 c 1.411775,0 1.257427,1.9277 0,1.9277 l -2.212884,0 0,-1.9257 2.212891,0 z m -2.212891,2.5762 c 0.779295,0 1.429705,0 2.209,0 1.257427,0 1.415659,1.9258 0.0039,1.9258 l -2.212891,0 z"
       id="rect3931"
       inkscape:connector-curvature="0"
       sodipodi:nodetypes="cccscsccccccccccscc" />
    <path
       style="color:#000000;display:inline;overflow:visible;visibility:visible;fill:#000000;fill-opacity:1;fill-rule:evenodd;stroke:none;stroke-width:0.1;stroke-linecap:butt;stroke-linejoin:miter;stroke-miterlimit:4;stroke-dasharray:none;stroke-dashoffset:0;stroke-opacity:1;marker:none;enable-background:accumulate"
       d="m 8.9525209,1056.4776 0,3.7569 c 0,1.0077 0.690489,2.1161 2.1796871,2.1161 1.489199,0 2.179688,-1.1084 2.179688,-2.1161 l 0,-3.7569 -0.859375,0 0,3.4983 c 0,1.2022 -0.671284,1.4524 -1.320313,1.4582 -0.649028,-0.01 -1.3203121,-0.256 -1.3203121,-1.4582 l 0,-3.4983 z"
       id="path4215"
       inkscape:connector-curvature="0"
       sodipodi:nodetypes="cscsccscscc" />
    <path
       inkscape:connector-curvature="0"
       style="opacity:0.95999995;fill:#000000;fill-opacity:1;stroke:none;stroke-width:0.1;stroke-linecap:round;stroke-linejoin:round;stroke-miterlimit:4;stroke-dasharray:none;stroke-dashoffset:0;stroke-opacity:1"
       d="m 10.038403,1055.1056 0.7513,0 0,0.7513 -0.7513,0 z"
       id="rect4220" />
    <g
       id="g4225"
       transform="translate(20.622908,-19.353553)">
      <path
         inkscape:connector-curvature="0"
         style="opacity:0.95999995;fill:#000000;fill-opacity:1;stroke:none;stroke-width:0.1;stroke-linecap:round;stroke-linejoin:round;stroke-miterlimit:4;stroke-dasharray:none;stroke-dashoffset:0;stroke-opacity:1"
         d="m -9.1481944,1074.4592 0.7513008,0 0,0.7513 -0.7513008,0 z"
         id="path4223" />
    </g>
    <rect
       style="opacity:1;fill:#ffffff;fill-opacity:1;stroke:none;stroke-width:2;stroke-linecap:round;stroke-linejoin:round;stroke-miterlimit:4;stroke-dasharray:none;stroke-opacity:1"
       id="rect4140"
       width="2.0535715"
       height="10.267858"
       x="7.1428571"
       y="1039.4158" />
  </g>
</svg>
