<?xml version="1.0" encoding="UTF-8" standalone="no"?>
<svg
   xmlns:dc="http://purl.org/dc/elements/1.1/"
   xmlns:cc="http://creativecommons.org/ns#"
   xmlns:rdf="http://www.w3.org/1999/02/22-rdf-syntax-ns#"
   xmlns:svg="http://www.w3.org/2000/svg"
   xmlns="http://www.w3.org/2000/svg"
   xmlns:sodipodi="http://sodipodi.sourceforge.net/DTD/sodipodi-0.dtd"
   xmlns:inkscape="http://www.inkscape.org/namespaces/inkscape"
   id="svg2"
   height="62.525066"
   width="89.954979"
   version="1.1"
   inkscape:version="0.91 r13725"
   sodipodi:docname="Ra14.svg">
  <sodipodi:namedview
     pagecolor="#ffffff"
     bordercolor="#666666"
     borderopacity="1"
     objecttolerance="10"
     gridtolerance="10"
     guidetolerance="10"
     inkscape:pageopacity="0"
     inkscape:pageshadow="2"
     inkscape:window-width="640"
     inkscape:window-height="480"
     id="namedview8"
     showgrid="false"
     inkscape:zoom="3.3701335"
     inkscape:cx="39.648849"
     inkscape:cy="57.518658"
     inkscape:current-layer="svg2" />
  <defs
     id="defs4" />
  <metadata
     id="metadata7">
    <rdf:RDF>
      <cc:Work
         rdf:about="">
        <dc:format>image/svg+xml</dc:format>
        <dc:type
           rdf:resource="http://purl.org/dc/dcmitype/StillImage" />
        <dc:title></dc:title>
      </cc:Work>
    </rdf:RDF>
  </metadata>
  <g
     id="layer1"
     transform="translate(-167.35201,-759.94061)" />
  <g
     id="layer3"
     transform="translate(-167.35201,-759.94061)" />
  <path
     id="rect4334"
     d="m 1,44.900479 c 0,-57.75769 87.954978,-59.305134 87.954978,0 l 0,16.624588 -87.954978,0 z"
     style="opacity:1;fill:#ffffff;fill-opacity:1;stroke:#000000;stroke-width:2;stroke-linecap:round;stroke-linejoin:round;stroke-miterlimit:4;stroke-dasharray:none;stroke-opacity:1" />
  <path
     inkscape:connector-curvature="0"
     id="path3010"
     style="font-style:normal;font-variant:normal;font-weight:normal;font-stretch:normal;font-size:32px;line-height:125%;font-family:'Alte DIN 1451 Mittelschrift';-inkscape-font-specification:'Alte DIN 1451 Mittelschrift';letter-spacing:0px;word-spacing:0px;fill:#000000;fill-opacity:1;stroke:none"
     d="m 28.575302,33.639425 0,-8.054502 -5.749218,0 0,8.054502 -2.798813,0 0,-18.451902 2.798813,0 0,7.90253 5.749218,0 0,-7.90253 2.798813,0 0,18.451902 -2.798813,0"
     sodipodi:nodetypes="ccccccccccccc" />
  <path
     inkscape:connector-curvature="0"
     id="path3012"
     style="font-style:normal;font-variant:normal;font-weight:normal;font-stretch:normal;font-size:32px;line-height:125%;font-family:'Alte DIN 1451 Mittelschrift';-inkscape-font-specification:'Alte DIN 1451 Mittelschrift';letter-spacing:0px;word-spacing:0px;fill:#000000;fill-opacity:1;stroke:none"
     d="m 41.867096,33.687273 0,-1.100484 -0.04784,0 c -0.231269,0.430625 -0.57816,0.741631 -1.040675,0.933019 -0.494427,0.207337 -1.140362,0.311006 -1.937808,0.311006 -1.371622,-0.0319 -2.408308,-0.398726 -3.110063,-1.100484 -0.765556,-0.701755 -1.148332,-1.598889 -1.148331,-2.691401 -1e-6,-1.036682 0.330942,-1.905904 0.992827,-2.607668 0.661882,-0.70175 1.638761,-1.060603 2.930636,-1.07656 l 3.361261,0 0,-1.315796 c 0.008,-1.100474 -0.817395,-1.634766 -2.476089,-1.602879 -0.57417,1.1e-5 -1.052641,0.06381 -1.435413,0.191389 -0.374806,0.167475 -0.657901,0.426646 -0.849286,0.777516 l -1.913886,-1.507185 c 0.925043,-1.236038 2.284696,-1.838114 4.078968,-1.806228 1.507177,-0.01594 2.719303,0.279121 3.636381,0.885171 0.901111,0.629999 1.359645,1.698583 1.375604,3.205757 l 0,8.504827 -2.416279,0 m 0,-4.36605 0,-0.909096 -2.906713,0 c -1.419468,0.03988 -2.121225,0.542273 -2.105273,1.507185 -4e-6,0.414678 0.18341,0.773531 0.550242,1.07656 0.350875,0.326958 0.929027,0.490435 1.734458,0.490433 1.020732,0.01595 1.738438,-0.107654 2.15312,-0.370816 0.38277,-0.263155 0.574159,-0.861243 0.574166,-1.794266" />
  <path
     inkscape:connector-curvature="0"
     id="path3014"
     style="font-style:normal;font-variant:normal;font-weight:normal;font-stretch:normal;font-size:32px;line-height:125%;font-family:'Alte DIN 1451 Mittelschrift';-inkscape-font-specification:'Alte DIN 1451 Mittelschrift';letter-spacing:0px;word-spacing:0px;fill:#000000;fill-opacity:1;stroke:none"
     d="m 47.948681,30.460667 0,-15.273242 2.646856,0 0,15.057947 c -4e-6,0.607894 0.329269,0.911837 0.987821,0.911836 l 0.899171,0 0,2.482217 -1.165123,0 c -0.962496,0 -1.764572,-0.23218 -2.406231,-0.696541 -0.641665,-0.472802 -0.962495,-1.300207 -0.962494,-2.482217" />
  <path
     style="font-style:normal;font-variant:normal;font-weight:normal;font-stretch:normal;font-size:32px;line-height:125%;font-family:'Alte DIN 1451 Mittelschrift';-inkscape-font-specification:'Alte DIN 1451 Mittelschrift';letter-spacing:0px;word-spacing:0px;fill:#000000;fill-opacity:1;stroke:none"
     d="M 55.1875 16.027344 L 55.1875 20.019531 L 53.484375 20.019531 L 53.484375 22.021484 L 55.1875 22.021484 L 55.1875 30.460938 C 55.187499 31.642948 55.508726 32.470557 56.150391 32.943359 C 56.79205 33.40772 57.594145 33.638672 58.556641 33.638672 L 59.720703 33.638672 L 59.720703 31.15625 L 58.822266 31.15625 C 58.163714 31.156251 57.833984 30.853988 57.833984 30.246094 L 57.833984 22.021484 L 60.011719 22.021484 L 60.011719 20.019531 L 57.833984 20.019531 L 57.833984 16.027344 L 55.1875 16.027344 z "
     id="path4231" />
  <circle
     style="opacity:0.95999995;fill:#000000;fill-opacity:1;stroke:none;stroke-width:1;stroke-linecap:round;stroke-linejoin:round;stroke-miterlimit:4;stroke-dasharray:none;stroke-dashoffset:0;stroke-opacity:0.4905149"
     id="path4236"
     cx="65.650223"
     cy="32.11084"
     r="1.2610776" />
  <path
     style="color:#000000;display:inline;overflow:visible;visibility:visible;fill:#000000;fill-rule:evenodd;stroke:none;stroke-width:1px;stroke-linecap:butt;stroke-linejoin:miter;stroke-miterlimit:4;stroke-dasharray:none;stroke-dashoffset:0;stroke-opacity:1;marker:none;enable-background:accumulate;fill-opacity:1"
     d="m 66.46621,26.176358 c 0.519267,-9.866078 0.374543,-10.465827 0,-10.68207 -0.374543,-0.216242 -2.152582,-0.521573 -2.670518,-0.222543 -0.517935,0.299031 -0.296724,2.670518 0,6.157026 0.296725,3.486509 0.222544,4.302501 0.741811,5.71194 0.519267,1.40944 1.854526,1.112716 1.928707,-0.964353 z"
     id="path4238"
     inkscape:connector-curvature="0" />
  <path
     style="opacity:0.95999995;fill:#000000;fill-opacity:1;stroke:none;stroke-width:1;stroke-linecap:round;stroke-linejoin:round;stroke-miterlimit:4;stroke-dasharray:none;stroke-dashoffset:0;stroke-opacity:0.4905149"
     d="M 52.558594 39.392578 L 52.558594 46.107422 L 47.261719 46.107422 L 47.261719 42.041016 L 47.261719 42.015625 L 47.259766 42.015625 C 47.246013 41.02821 46.455577 40.232422 45.464844 40.232422 C 44.474105 40.232422 43.658684 41.028203 43.644531 42.015625 L 43.642578 42.015625 L 43.642578 42.041016 L 43.642578 46.107422 L 38.574219 46.107422 L 38.574219 40.900391 L 35.570312 40.900391 L 35.570312 46.107422 L 34.134766 46.107422 C 34.067426 45.314974 33.409486 44.691406 32.599609 44.691406 L 32.599609 47.785156 C 33.076317 47.785156 33.497399 47.565534 33.78125 47.226562 L 33.78125 52.820312 L 62.734375 52.820312 L 62.734375 39.392578 L 52.558594 39.392578 z M 54.289062 41.333984 L 61.423828 41.333984 L 61.423828 48.046875 L 59.273438 48.046875 L 59.273438 44.271484 L 57.017578 44.271484 L 57.017578 48.046875 L 54.289062 48.046875 L 54.289062 41.333984 z M 36.099609 54.216797 A 2.4850647 2.4850647 0 0 0 36.052734 54.699219 A 2.4850647 2.4850647 0 0 0 38.537109 57.183594 A 2.4850647 2.4850647 0 0 0 41.021484 54.699219 A 2.4850647 2.4850647 0 0 0 40.972656 54.216797 L 36.099609 54.216797 z M 46.261719 54.216797 A 2.4850647 2.4850647 0 0 0 46.214844 54.699219 A 2.4850647 2.4850647 0 0 0 48.699219 57.183594 A 2.4850647 2.4850647 0 0 0 51.185547 54.699219 A 2.4850647 2.4850647 0 0 0 51.134766 54.216797 L 46.261719 54.216797 z M 55.386719 54.216797 A 2.4850647 2.4850647 0 0 0 55.339844 54.699219 A 2.4850647 2.4850647 0 0 0 57.824219 57.183594 A 2.4850647 2.4850647 0 0 0 60.308594 54.699219 A 2.4850647 2.4850647 0 0 0 60.259766 54.216797 L 55.386719 54.216797 z "
     id="rect4249" />
</svg>
