<?xml version="1.0" encoding="UTF-8" standalone="no"?>
<!-- Created with Inkscape (http://www.inkscape.org/) -->

<svg
   xmlns:dc="http://purl.org/dc/elements/1.1/"
   xmlns:cc="http://creativecommons.org/ns#"
   xmlns:rdf="http://www.w3.org/1999/02/22-rdf-syntax-ns#"
   xmlns:svg="http://www.w3.org/2000/svg"
   xmlns="http://www.w3.org/2000/svg"
   xmlns:sodipodi="http://sodipodi.sourceforge.net/DTD/sodipodi-0.dtd"
   xmlns:inkscape="http://www.inkscape.org/namespaces/inkscape"
   version="1.1"
   width="23.753155"
   height="23.753155"
   id="svg2984"
   inkscape:version="0.91 r13725"
   sodipodi:docname="de-hha-sh3.svg">
  <sodipodi:namedview
     pagecolor="#ffffff"
     bordercolor="#666666"
     borderopacity="1"
     objecttolerance="10"
     gridtolerance="10"
     guidetolerance="10"
     inkscape:pageopacity="0"
     inkscape:pageshadow="2"
     inkscape:window-width="1280"
     inkscape:window-height="758"
     id="namedview24"
     showgrid="false"
     inkscape:zoom="1.5239927"
     inkscape:cx="-13.475422"
     inkscape:cy="49.869001"
     inkscape:window-x="-4"
     inkscape:window-y="-3"
     inkscape:window-maximized="1"
     inkscape:current-layer="svg2984"
     inkscape:snap-nodes="true"
     fit-margin-top="0"
     fit-margin-left="0"
     fit-margin-right="0"
     fit-margin-bottom="0" />
  <defs
     id="defs2986">
    <filter
       id="filter3000"
       style="color-interpolation-filters:sRGB">
      <feGaussianBlur
         id="feGaussianBlur3002"
         stdDeviation="3" />
    </filter>
    <filter
       id="filter3005"
       style="color-interpolation-filters:sRGB">
      <feGaussianBlur
         id="feGaussianBlur3007"
         stdDeviation="3" />
    </filter>
    <filter
       id="filter3005-2"
       style="color-interpolation-filters:sRGB">
      <feGaussianBlur
         id="feGaussianBlur3007-4"
         stdDeviation="3" />
    </filter>
    <filter
       id="filter3005-2-1"
       style="color-interpolation-filters:sRGB">
      <feGaussianBlur
         id="feGaussianBlur3007-4-3"
         stdDeviation="3" />
    </filter>
  </defs>
  <metadata
     id="metadata2989">
    <rdf:RDF>
      <cc:Work
         rdf:about="">
        <dc:format>image/svg+xml</dc:format>
        <dc:type
           rdf:resource="http://purl.org/dc/dcmitype/StillImage" />
        <dc:title></dc:title>
      </cc:Work>
    </rdf:RDF>
  </metadata>
  <rect
     width="23.753155"
     height="23.753155"
     x="-23.753155"
     y="0"
     id="rect3772"
     style="fill:#000000;fill-opacity:1;stroke:none"
     transform="scale(-1,1)" />
  <g
     transform="matrix(-0.48261993,0,0,0.4750631,23.753155,-457.37376)"
     id="layer1" />
  <g
     id="layer8"
     style="display:none"
     transform="translate(0,-131.10323)">
    <path
       d="m -41.416254,164.19525 a 6.8185296,6.8185296 0 1 1 -13.637059,0 6.8185296,6.8185296 0 1 1 13.637059,0 z"
       transform="matrix(1.4190262,0,0,1.4190262,128.81536,-161.72875)"
       id="path4900"
       style="display:inline;fill:#a10625;fill-opacity:1;stroke:none"
       inkscape:connector-curvature="0" />
    <path
       d="m -41.416254,164.19525 a 6.8185296,6.8185296 0 1 1 -13.637059,0 6.8185296,6.8185296 0 1 1 13.637059,0 z"
       transform="matrix(1.4190262,0,0,1.4190262,87.386788,-161.72875)"
       id="path2998"
       style="display:inline;fill:#a10625;fill-opacity:1;stroke:none"
       inkscape:connector-curvature="0" />
  </g>
  <g
     transform="translate(0,-181.90888)"
     id="layer5"
     style="display:none">
    <path
       d="m -41.416254,164.19525 a 6.8185296,6.8185296 0 1 1 -13.637059,0 6.8185296,6.8185296 0 1 1 13.637059,0 z"
       transform="matrix(1.4190262,0,0,1.4190262,87.386788,-146.99453)"
       id="path4902"
       style="fill:#3de0b7;fill-opacity:1;stroke:none"
       inkscape:connector-curvature="0" />
  </g>
  <g
     transform="translate(0,-181.90888)"
     id="layer6"
     style="display:none">
    <path
       d="m -41.416254,164.19525 a 6.8185296,6.8185296 0 1 1 -13.637059,0 6.8185296,6.8185296 0 1 1 13.637059,0 z"
       transform="matrix(1.4190262,0,0,1.4190262,87.386788,-146.99453)"
       id="path4907"
       style="fill:#3de0b7;fill-opacity:1;stroke:none"
       inkscape:connector-curvature="0" />
    <path
       d="m -41.416254,164.19525 a 6.8185296,6.8185296 0 1 1 -13.637059,0 6.8185296,6.8185296 0 1 1 13.637059,0 z"
       transform="matrix(1.4190262,0,0,1.4190262,87.386788,-17.70881)"
       id="path4905"
       style="fill:#fdca05;fill-opacity:1;stroke:none"
       inkscape:connector-curvature="0" />
  </g>
  <g
     transform="translate(0,-181.90888)"
     id="layer7"
     style="display:none">
    <path
       d="m -41.416254,164.19525 a 6.8185296,6.8185296 0 1 1 -13.637059,0 6.8185296,6.8185296 0 1 1 13.637059,0 z"
       transform="translate(67.175148,23.236165)"
       id="path4876"
       style="fill:#ffffff;fill-opacity:1;stroke:none"
       inkscape:connector-curvature="0" />
    <path
       d="m -41.416254,164.19525 a 6.8185296,6.8185296 0 1 1 -13.637059,0 6.8185296,6.8185296 0 1 1 13.637059,0 z"
       transform="translate(107.07617,-11.614098)"
       id="path4878"
       style="fill:#ffffff;fill-opacity:1;stroke:none"
       inkscape:connector-curvature="0" />
    <path
       d="m -41.416254,164.19525 a 6.8185296,6.8185296 0 1 1 -13.637059,0 6.8185296,6.8185296 0 1 1 13.637059,0 z"
       transform="matrix(1.4190262,0,0,1.4190262,87.386788,-110.9231)"
       id="path4882"
       style="fill:#a10625;fill-opacity:1;stroke:none"
       inkscape:connector-curvature="0" />
  </g>
  <g
     transform="matrix(-0.48261993,0,0,0.4750631,23.753155,-457.37376)"
     id="layer3" />
  <g
     transform="matrix(-0.11907994,0,0,0.11721549,29.168782,-214.32792)"
     id="layer3-8-9"
     style="display:inline;fill:#ff0000">
    <path
       inkscape:connector-curvature="0"
       d="m 2705.0531,894.29816 a 34.9916,34.9916 0 1 1 -69.9832,0 34.9916,34.9916 0 1 1 69.9832,0 z"
       transform="matrix(1.765267,0,0,1.765267,-4566.8363,348.43997)"
       id="path3759-6"
       style="fill:#ff0000;fill-opacity:1;stroke:none;filter:url(#filter3005-2-1)" />
  </g>
</svg>
